<svg width="69" height="69" viewBox="0 0 69 69" fill="none" xmlns="http://www.w3.org/2000/svg">
<path fill-rule="evenodd" clip-rule="evenodd" d="M34.5 34.5C34.5 29.7365 38.3615 25.875 43.125 25.875C47.8885 25.875 51.75 29.7365 51.75 34.5C51.75 39.2635 47.8885 43.125 43.125 43.125C38.3615 43.125 34.5 39.2635 34.5 34.5Z" fill="#1ABCFE"/>
<path fill-rule="evenodd" clip-rule="evenodd" d="M17.25 51.75C17.25 46.9865 21.1115 43.125 25.875 43.125H34.5V51.75C34.5 56.5135 30.6385 60.375 25.875 60.375C21.1115 60.375 17.25 56.5135 17.25 51.75Z" fill="#0ACF83"/>
<path fill-rule="evenodd" clip-rule="evenodd" d="M34.5 8.625V25.875H43.125C47.8885 25.875 51.75 22.0135 51.75 17.25C51.75 12.4865 47.8885 8.625 43.125 8.625H34.5Z" fill="#FF7262"/>
<path fill-rule="evenodd" clip-rule="evenodd" d="M17.25 17.25C17.25 22.0135 21.1115 25.875 25.875 25.875H34.5V8.625H25.875C21.1115 8.625 17.25 12.4865 17.25 17.25Z" fill="#F24E1E"/>
<path fill-rule="evenodd" clip-rule="evenodd" d="M17.25 34.5C17.25 39.2635 21.1115 43.125 25.875 43.125H34.5V25.875H25.875C21.1115 25.875 17.25 29.7365 17.25 34.5Z" fill="#A259FF"/>
</svg>
