<svg width="70" height="69" viewBox="0 0 70 69" fill="none" xmlns="http://www.w3.org/2000/svg">
<path d="M4.68408 26.1625C4.68408 18.5143 4.68408 14.6902 6.17252 11.7689C7.48179 9.19935 9.57094 7.11021 12.1405 5.80094C15.0618 4.3125 18.8859 4.3125 26.5341 4.3125H43.2091C50.8573 4.3125 54.6814 4.3125 57.6026 5.80094C60.1722 7.11021 62.2614 9.19935 63.5706 11.7689C65.0591 14.6902 65.0591 18.5143 65.0591 26.1625V42.8375C65.0591 50.4857 65.0591 54.3098 63.5706 57.2311C62.2614 59.8006 60.1722 61.8898 57.6026 63.1991C54.6814 64.6875 50.8573 64.6875 43.2091 64.6875H26.5341C18.8859 64.6875 15.0618 64.6875 12.1405 63.1991C9.57094 61.8898 7.48179 59.8006 6.17252 57.2311C4.68408 54.3098 4.68408 50.4857 4.68408 42.8375V26.1625Z" fill="#470137"/>
<path d="M36.2656 22.0666L28.7322 34.8195L36.792 48.3616C36.9596 48.6686 36.792 48.7364 36.5491 48.7364H30.7979C30.3928 48.7364 30.1093 48.7217 29.9473 48.4446C29.4068 47.3646 28.8668 46.2915 28.3272 45.2253C27.7868 44.1595 27.213 43.0725 26.606 41.9643C25.9984 40.8571 25.3976 39.7355 24.8036 38.5996C24.2632 39.7075 23.6623 40.8153 23.0822 41.9228C22.5014 43.0308 21.9276 44.1316 21.361 45.2253C20.794 46.3196 20.2135 47.4065 19.6194 48.4862C19.5112 48.7354 19.3219 48.7611 19.0523 48.7611H13.5037C13.2857 48.7611 13.2594 48.5972 13.3822 48.4031L21.199 35.2348L13.5847 22.0251C13.4463 21.8366 13.5654 21.6357 13.7872 21.6512H19.4978C19.7451 21.6372 19.9637 21.7306 20.1054 21.942C20.5914 23.0499 21.1314 24.1577 21.7254 25.2652C22.3191 26.3732 22.9199 27.4671 23.5278 28.5469C24.1353 29.6269 24.7361 30.7208 25.2491 31.8286C25.7889 30.6933 26.3356 29.5856 26.8895 28.5054C27.4426 27.4253 28.0096 26.3384 28.5905 25.2444C29.1708 24.1508 29.7311 23.0638 30.2713 21.9836C30.3431 21.7466 30.5146 21.6265 30.7573 21.6512H36.063C36.2656 21.6512 36.3493 21.9277 36.2656 22.0666Z" fill="#FF61F6"/>
<path d="M47.8892 49.2757C44.3173 49.3314 40.576 47.8609 38.6953 44.6025C37.777 43.0382 37.318 41.0789 37.3183 38.7245C37.303 36.818 37.778 34.9411 38.6953 33.2828C41.0622 29.0519 45.8305 27.4666 50.3597 27.8826V19.6992C50.3597 19.5058 50.4408 19.4084 50.6028 19.4084H55.7059C55.8454 19.388 55.9689 19.5146 55.949 19.6576V44.2078C55.949 45.2207 56.0494 46.2301 56.111 47.2402C56.1209 47.4128 56.0211 47.5834 55.8679 47.6556C53.3465 48.7342 50.6183 49.2632 47.8892 49.2757ZM50.3597 44.1247V32.7843C46.6605 31.7565 43.069 34.5742 43.0694 38.4753C42.9816 42.5085 46.4583 45.295 50.3597 44.1247Z" fill="#FF61F6"/>
</svg>
