<svg width="383" height="600" viewBox="0 0 383 600" fill="none" xmlns="http://www.w3.org/2000/svg">
<rect x="119.013" y="551.876" width="47.723" height="47.7745" rx="5.11329" fill="#F3FBFF"/>
<path d="M128.418 576.67H126.126L125.703 577.838H124.979L126.88 572.613H127.671L129.564 577.838H128.84L128.418 576.67ZM128.222 576.112L127.272 573.457L126.322 576.112H128.222ZM132.028 572.583C132.601 572.583 133.097 572.691 133.514 572.907C133.936 573.118 134.258 573.422 134.479 573.819C134.705 574.216 134.818 574.684 134.818 575.222C134.818 575.76 134.705 576.227 134.479 576.624C134.258 577.016 133.936 577.318 133.514 577.529C133.097 577.735 132.601 577.838 132.028 577.838H130.392V572.583H132.028ZM132.028 577.273C132.707 577.273 133.225 577.094 133.582 576.737C133.939 576.376 134.117 575.87 134.117 575.222C134.117 574.568 133.936 574.058 133.574 573.691C133.217 573.324 132.702 573.141 132.028 573.141H131.078V577.273H132.028ZM137.36 572.583C137.933 572.583 138.428 572.691 138.845 572.907C139.267 573.118 139.589 573.422 139.81 573.819C140.036 574.216 140.15 574.684 140.15 575.222C140.15 575.76 140.036 576.227 139.81 576.624C139.589 577.016 139.267 577.318 138.845 577.529C138.428 577.735 137.933 577.838 137.36 577.838H135.723V572.583H137.36ZM137.36 577.273C138.038 577.273 138.556 577.094 138.913 576.737C139.27 576.376 139.448 575.87 139.448 575.222C139.448 574.568 139.267 574.058 138.905 573.691C138.549 573.324 138.033 573.141 137.36 573.141H136.41V577.273H137.36ZM144.701 572.583C145.274 572.583 145.769 572.691 146.187 572.907C146.609 573.118 146.931 573.422 147.152 573.819C147.378 574.216 147.491 574.684 147.491 575.222C147.491 575.76 147.378 576.227 147.152 576.624C146.931 577.016 146.609 577.318 146.187 577.529C145.769 577.735 145.274 577.838 144.701 577.838H143.065V572.583H144.701ZM144.701 577.273C145.38 577.273 145.898 577.094 146.255 576.737C146.611 576.376 146.79 575.87 146.79 575.222C146.79 574.568 146.609 574.058 146.247 573.691C145.89 573.324 145.375 573.141 144.701 573.141H143.751V577.273H144.701ZM149.082 573.141V574.898H150.998V575.463H149.082V577.273H151.224V577.838H148.396V572.575H151.224V573.141H149.082ZM154.894 575.131C155.085 575.162 155.258 575.239 155.414 575.365C155.575 575.491 155.701 575.647 155.791 575.833C155.887 576.019 155.934 576.217 155.934 576.428C155.934 576.695 155.866 576.936 155.731 577.152C155.595 577.363 155.396 577.532 155.135 577.657C154.879 577.778 154.575 577.838 154.223 577.838H152.262V572.583H154.147C154.504 572.583 154.808 572.643 155.06 572.764C155.311 572.879 155.5 573.038 155.625 573.239C155.751 573.44 155.814 573.666 155.814 573.917C155.814 574.229 155.728 574.488 155.557 574.694C155.391 574.895 155.17 575.041 154.894 575.131ZM152.948 574.852H154.102C154.424 574.852 154.673 574.777 154.849 574.626C155.024 574.475 155.112 574.267 155.112 574C155.112 573.734 155.024 573.525 154.849 573.374C154.673 573.224 154.419 573.148 154.087 573.148H152.948V574.852ZM154.162 577.273C154.504 577.273 154.771 577.192 154.962 577.032C155.153 576.871 155.248 576.647 155.248 576.36C155.248 576.069 155.148 575.84 154.947 575.674C154.745 575.503 154.477 575.418 154.14 575.418H152.948V577.273H154.162ZM160.121 572.583V573.141H158.689V577.838H158.003V573.141H156.562V572.583H160.121Z" fill="#154C6B"/>
<rect x="119.013" y="551.876" width="47.723" height="47.7745" rx="5.11329" stroke="#E5F4FD" stroke-width="0.699495"/>
<rect x="65.2102" y="551.876" width="47.723" height="47.7745" rx="5.11329" fill="#F3FBFF"/>
<path d="M74.5044 576.67H72.2121L71.7899 577.838H71.066L72.9662 572.613H73.7579L75.6506 577.838H74.9267L74.5044 576.67ZM74.3084 576.112L73.3583 573.457L72.4082 576.112H74.3084ZM78.115 572.583C78.6881 572.583 79.1832 572.691 79.6004 572.907C80.0227 573.118 80.3444 573.422 80.5656 573.819C80.7918 574.216 80.9049 574.684 80.9049 575.222C80.9049 575.76 80.7918 576.227 80.5656 576.624C80.3444 577.016 80.0227 577.318 79.6004 577.529C79.1832 577.735 78.6881 577.838 78.115 577.838H76.4787V572.583H78.115ZM78.115 577.273C78.7936 577.273 79.3114 577.094 79.6683 576.737C80.0252 576.376 80.2037 575.87 80.2037 575.222C80.2037 574.568 80.0227 574.058 79.6608 573.691C79.3039 573.324 78.7886 573.141 78.115 573.141H77.1649V577.273H78.115ZM83.4463 572.583C84.0193 572.583 84.5145 572.691 84.9317 572.907C85.354 573.118 85.6757 573.422 85.8969 573.819C86.1231 574.216 86.2362 574.684 86.2362 575.222C86.2362 575.76 86.1231 576.227 85.8969 576.624C85.6757 577.016 85.354 577.318 84.9317 577.529C84.5145 577.735 84.0193 577.838 83.4463 577.838H81.81V572.583H83.4463ZM83.4463 577.273C84.1249 577.273 84.6427 577.094 84.9996 576.737C85.3565 576.376 85.535 575.87 85.535 575.222C85.535 574.568 85.354 574.058 84.9921 573.691C84.6351 573.324 84.1199 573.141 83.4463 573.141H82.4962V577.273H83.4463ZM91.7832 575.131C91.9742 575.162 92.1476 575.239 92.3035 575.365C92.4643 575.491 92.59 575.647 92.6805 575.833C92.776 576.019 92.8238 576.217 92.8238 576.428C92.8238 576.695 92.7559 576.936 92.6202 577.152C92.4844 577.363 92.2859 577.532 92.0245 577.657C91.7681 577.778 91.464 577.838 91.1121 577.838H89.1516V572.583H91.0367C91.3936 572.583 91.6977 572.643 91.9491 572.764C92.2004 572.879 92.3889 573.038 92.5146 573.239C92.6403 573.44 92.7031 573.666 92.7031 573.917C92.7031 574.229 92.6177 574.488 92.4467 574.694C92.2809 574.895 92.0597 575.041 91.7832 575.131ZM89.8378 574.852H90.9914C91.3132 574.852 91.562 574.777 91.7379 574.626C91.9139 574.475 92.0019 574.267 92.0019 574C92.0019 573.734 91.9139 573.525 91.7379 573.374C91.562 573.224 91.3081 573.148 90.9764 573.148H89.8378V574.852ZM91.0518 577.273C91.3936 577.273 91.66 577.192 91.851 577.032C92.0421 576.871 92.1376 576.647 92.1376 576.36C92.1376 576.069 92.037 575.84 91.836 575.674C91.6349 575.503 91.3659 575.418 91.0291 575.418H89.8378V577.273H91.0518ZM96.8826 576.67H94.5903L94.1681 577.838H93.4442L95.3444 572.613H96.1361L98.0288 577.838H97.3049L96.8826 576.67ZM96.6866 576.112L95.7365 573.457L94.7864 576.112H96.6866ZM102.989 577.838H102.303L99.5431 573.653V577.838H98.8569V572.575H99.5431L102.303 576.753V572.575H102.989V577.838ZM107.009 577.838L104.845 575.441V577.838H104.159V572.583H104.845V575.018L107.017 572.583H107.884L105.501 575.214L107.906 577.838H107.009Z" fill="#154C6B"/>
<rect x="65.2102" y="551.876" width="47.723" height="47.7745" rx="5.11329" stroke="#E5F4FD" stroke-width="0.699495"/>
<g clip-path="url(#clip0_48:5328)">
<rect x="11.4074" y="551.876" width="47.723" height="47.7745" rx="5.11329" fill="#F3FBFF"/>
<path d="M30.8464 569.373H28.8816L28.5196 570.375H27.8992L29.5279 565.896H30.2065L31.8288 570.375H31.2083L30.8464 569.373ZM30.6783 568.895L29.864 566.62L29.0496 568.895H30.6783ZM33.9412 565.87C34.4324 565.87 34.8568 565.963 35.2144 566.148C35.5763 566.329 35.8521 566.59 36.0417 566.93C36.2356 567.271 36.3325 567.671 36.3325 568.133C36.3325 568.594 36.2356 568.994 36.0417 569.335C35.8521 569.671 35.5763 569.929 35.2144 570.11C34.8568 570.287 34.4324 570.375 33.9412 570.375H32.5386V565.87H33.9412ZM33.9412 569.891C34.5228 569.891 34.9666 569.738 35.2726 569.432C35.5785 569.121 35.7315 568.688 35.7315 568.133C35.7315 567.572 35.5763 567.135 35.2661 566.82C34.9602 566.506 34.5185 566.349 33.9412 566.349H33.1268V569.891H33.9412ZM38.5108 565.87C39.002 565.87 39.4265 565.963 39.7841 566.148C40.146 566.329 40.4218 566.59 40.6114 566.93C40.8053 567.271 40.9022 567.671 40.9022 568.133C40.9022 568.594 40.8053 568.994 40.6114 569.335C40.4218 569.671 40.146 569.929 39.7841 570.11C39.4265 570.287 39.002 570.375 38.5108 570.375H37.1083V565.87H38.5108ZM38.5108 569.891C39.0925 569.891 39.5363 569.738 39.8423 569.432C40.1482 569.121 40.3011 568.688 40.3011 568.133C40.3011 567.572 40.146 567.135 39.8358 566.82C39.5299 566.506 39.0882 566.349 38.5108 566.349H37.6965V569.891H38.5108ZM16.474 575.87V576.349H15.246V580.375H14.6579V576.349H13.4234V575.87H16.474ZM19.57 580.375L18.4971 578.533H17.7862V580.375H17.198V575.87H18.6522C18.9926 575.87 19.2792 575.929 19.5118 576.045C19.7488 576.161 19.9255 576.319 20.0418 576.517C20.1582 576.715 20.2163 576.941 20.2163 577.195C20.2163 577.506 20.1258 577.779 19.9449 578.016C19.7682 578.253 19.5011 578.41 19.1434 578.488L20.2745 580.375H19.57ZM17.7862 578.061H18.6522C18.9711 578.061 19.2102 577.984 19.3697 577.829C19.5291 577.669 19.6088 577.458 19.6088 577.195C19.6088 576.928 19.5291 576.721 19.3697 576.575C19.2145 576.428 18.9754 576.355 18.6522 576.355H17.7862V578.061ZM23.7931 579.373H21.8282L21.4663 580.375H20.8458L22.4746 575.896H23.1532L24.7755 580.375H24.155L23.7931 579.373ZM23.625 578.895L22.8106 576.62L21.9963 578.895H23.625ZM29.0271 580.375H28.439L26.0735 576.788V580.375H25.4853V575.864H26.0735L28.439 579.445V575.864H29.0271V580.375ZM31.4581 580.42C31.1608 580.42 30.8936 580.369 30.6567 580.265C30.424 580.158 30.2409 580.011 30.1073 579.826C29.9737 579.636 29.9048 579.419 29.9005 579.173H30.5274C30.5489 579.384 30.6351 579.563 30.7859 579.71C30.941 579.852 31.1651 579.923 31.4581 579.923C31.7382 579.923 31.9579 579.854 32.1173 579.716C32.2811 579.574 32.3629 579.393 32.3629 579.173C32.3629 579.001 32.3156 578.861 32.2208 578.753C32.126 578.645 32.0075 578.563 31.8653 578.507C31.7231 578.451 31.5314 578.391 31.2901 578.326C30.9928 578.249 30.7536 578.171 30.5726 578.094C30.396 578.016 30.243 577.896 30.1138 577.732C29.9888 577.564 29.9263 577.34 29.9263 577.06C29.9263 576.814 29.9888 576.596 30.1138 576.407C30.2387 576.217 30.4132 576.071 30.6373 575.967C30.8656 575.864 31.1263 575.812 31.4193 575.812C31.8416 575.812 32.1863 575.918 32.4534 576.129C32.7249 576.34 32.8778 576.62 32.9123 576.969H32.266C32.2445 576.797 32.154 576.646 31.9945 576.517C31.8351 576.383 31.624 576.316 31.3612 576.316C31.1156 576.316 30.9152 576.381 30.7601 576.51C30.605 576.635 30.5274 576.812 30.5274 577.04C30.5274 577.204 30.5726 577.338 30.6631 577.441C30.7579 577.544 30.8721 577.624 31.0057 577.68C31.1436 577.732 31.3353 577.792 31.5809 577.861C31.8782 577.943 32.1173 578.025 32.2983 578.107C32.4793 578.184 32.6344 578.307 32.7637 578.475C32.8929 578.639 32.9576 578.863 32.9576 579.147C32.9576 579.367 32.8994 579.574 32.7831 579.768C32.6667 579.962 32.4944 580.119 32.266 580.24C32.0376 580.36 31.7683 580.42 31.4581 580.42ZM36.4859 579.373H34.5211L34.1592 580.375H33.5387L35.1674 575.896H35.8461L37.4683 580.375H36.8478L36.4859 579.373ZM36.3179 578.895L35.5035 576.62L34.6891 578.895H36.3179ZM37.9584 578.12C37.9584 577.68 38.0575 577.286 38.2557 576.937C38.4539 576.584 38.7232 576.308 39.0636 576.11C39.4083 575.911 39.7896 575.812 40.2076 575.812C40.6988 575.812 41.1275 575.931 41.4938 576.168C41.86 576.405 42.1272 576.741 42.2952 577.176H41.5907C41.4658 576.905 41.2848 576.696 41.0478 576.549C40.8151 576.403 40.5351 576.329 40.2076 576.329C39.8931 576.329 39.6108 576.403 39.3609 576.549C39.111 576.696 38.915 576.905 38.7728 577.176C38.6306 577.443 38.5595 577.758 38.5595 578.12C38.5595 578.477 38.6306 578.792 38.7728 579.063C38.915 579.33 39.111 579.537 39.3609 579.684C39.6108 579.83 39.8931 579.903 40.2076 579.903C40.5351 579.903 40.8151 579.832 41.0478 579.69C41.2848 579.544 41.4658 579.335 41.5907 579.063H42.2952C42.1272 579.494 41.86 579.828 41.4938 580.065C41.1275 580.298 40.6988 580.414 40.2076 580.414C39.7896 580.414 39.4083 580.317 39.0636 580.123C38.7232 579.925 38.4539 579.651 38.2557 579.302C38.0575 578.953 37.9584 578.559 37.9584 578.12ZM45.9434 575.87V576.349H44.7154V580.375H44.1273V576.349H42.8928V575.87H45.9434ZM47.2556 575.87V580.375H46.6674V575.87H47.2556ZM50.3003 580.42C49.8824 580.42 49.5011 580.324 49.1563 580.13C48.8116 579.931 48.538 579.658 48.3355 579.309C48.1373 578.955 48.0382 578.559 48.0382 578.12C48.0382 577.68 48.1373 577.286 48.3355 576.937C48.538 576.584 48.8116 576.31 49.1563 576.116C49.5011 575.918 49.8824 575.819 50.3003 575.819C50.7226 575.819 51.1061 575.918 51.4508 576.116C51.7955 576.31 52.0669 576.581 52.2651 576.93C52.4634 577.279 52.5625 577.676 52.5625 578.12C52.5625 578.563 52.4634 578.96 52.2651 579.309C52.0669 579.658 51.7955 579.931 51.4508 580.13C51.1061 580.324 50.7226 580.42 50.3003 580.42ZM50.3003 579.91C50.6149 579.91 50.8971 579.837 51.147 579.69C51.4012 579.544 51.5994 579.335 51.7416 579.063C51.8881 578.792 51.9614 578.477 51.9614 578.12C51.9614 577.758 51.8881 577.443 51.7416 577.176C51.5994 576.905 51.4034 576.696 51.1535 576.549C50.9036 576.403 50.6192 576.329 50.3003 576.329C49.9815 576.329 49.6971 576.403 49.4472 576.549C49.1973 576.696 48.9991 576.905 48.8526 577.176C48.7104 577.443 48.6393 577.758 48.6393 578.12C48.6393 578.477 48.7104 578.792 48.8526 579.063C48.9991 579.335 49.1973 579.544 49.4472 579.69C49.7014 579.837 49.9858 579.91 50.3003 579.91ZM56.8807 580.375H56.2926L53.927 576.788V580.375H53.3389V575.864H53.927L56.2926 579.445V575.864H56.8807V580.375Z" fill="#154C6B"/>
</g>
<rect x="11.4074" y="551.876" width="47.723" height="47.7745" rx="5.11329" stroke="#E5F4FD" stroke-width="0.699495"/>
<g clip-path="url(#clip1_48:5328)">
<rect x="334.224" y="551.876" width="47.723" height="47.7745" rx="5.11329" fill="#F3FBFF"/>
<path d="M353.927 571.284H351.635L351.213 572.452H350.489L352.389 567.227H353.181L355.073 572.452H354.349L353.927 571.284ZM353.731 570.726L352.781 568.071L351.831 570.726H353.731ZM357.538 567.197C358.111 567.197 358.606 567.305 359.023 567.521C359.445 567.732 359.767 568.036 359.988 568.433C360.214 568.83 360.328 569.298 360.328 569.836C360.328 570.374 360.214 570.841 359.988 571.238C359.767 571.63 359.445 571.932 359.023 572.143C358.606 572.349 358.111 572.452 357.538 572.452H355.901V567.197H357.538ZM357.538 571.887C358.216 571.887 358.734 571.708 359.091 571.351C359.448 570.99 359.626 570.484 359.626 569.836C359.626 569.182 359.445 568.672 359.083 568.305C358.727 567.938 358.211 567.755 357.538 567.755H356.588V571.887H357.538ZM362.869 567.197C363.442 567.197 363.937 567.305 364.354 567.521C364.777 567.732 365.098 568.036 365.32 568.433C365.546 568.83 365.659 569.298 365.659 569.836C365.659 570.374 365.546 570.841 365.32 571.238C365.098 571.63 364.777 571.932 364.354 572.143C363.937 572.349 363.442 572.452 362.869 572.452H361.233V567.197H362.869ZM362.869 571.887C363.548 571.887 364.065 571.708 364.422 571.351C364.779 570.99 364.958 570.484 364.958 569.836C364.958 569.182 364.777 568.672 364.415 568.305C364.058 567.938 363.543 567.755 362.869 567.755H361.919V571.887H362.869ZM344.332 583.505C343.985 583.505 343.673 583.445 343.397 583.324C343.125 583.199 342.911 583.028 342.756 582.811C342.6 582.59 342.519 582.336 342.514 582.05H343.246C343.271 582.296 343.371 582.505 343.547 582.676C343.728 582.842 343.99 582.925 344.332 582.925C344.658 582.925 344.915 582.844 345.101 582.683C345.292 582.517 345.387 582.306 345.387 582.05C345.387 581.849 345.332 581.685 345.221 581.56C345.111 581.434 344.973 581.339 344.807 581.273C344.641 581.208 344.417 581.137 344.136 581.062C343.789 580.972 343.51 580.881 343.299 580.791C343.092 580.7 342.914 580.559 342.763 580.368C342.617 580.172 342.545 579.911 342.545 579.584C342.545 579.298 342.617 579.044 342.763 578.823C342.909 578.601 343.113 578.43 343.374 578.31C343.64 578.189 343.945 578.129 344.286 578.129C344.779 578.129 345.181 578.252 345.493 578.498C345.81 578.745 345.988 579.071 346.028 579.479H345.274C345.249 579.278 345.143 579.102 344.957 578.951C344.771 578.795 344.525 578.717 344.218 578.717C343.932 578.717 343.698 578.792 343.517 578.943C343.336 579.089 343.246 579.295 343.246 579.562C343.246 579.753 343.299 579.908 343.404 580.029C343.515 580.15 343.648 580.243 343.804 580.308C343.965 580.368 344.188 580.439 344.475 580.519C344.822 580.615 345.101 580.71 345.312 580.806C345.523 580.896 345.704 581.039 345.855 581.236C346.006 581.427 346.081 581.688 346.081 582.02C346.081 582.276 346.013 582.517 345.877 582.744C345.742 582.97 345.541 583.153 345.274 583.294C345.008 583.435 344.694 583.505 344.332 583.505ZM350.197 582.284H347.905L347.483 583.452H346.759L348.659 578.227H349.451L351.344 583.452H350.62L350.197 582.284ZM350.001 581.726L349.051 579.071L348.101 581.726H350.001ZM356.515 578.197L354.532 583.452H353.74L351.757 578.197H352.488L354.14 582.729L355.791 578.197H356.515ZM357.954 578.197V583.452H357.267V578.197H357.954ZM363.255 583.452H362.569L359.809 579.267V583.452H359.123V578.189H359.809L362.569 582.367V578.189H363.255V583.452ZM368.406 579.72C368.26 579.413 368.049 579.177 367.773 579.011C367.496 578.84 367.175 578.755 366.808 578.755C366.441 578.755 366.109 578.84 365.812 579.011C365.521 579.177 365.289 579.418 365.119 579.735C364.953 580.047 364.87 580.409 364.87 580.821C364.87 581.233 364.953 581.595 365.119 581.907C365.289 582.218 365.521 582.46 365.812 582.63C366.109 582.796 366.441 582.879 366.808 582.879C367.32 582.879 367.743 582.726 368.074 582.419C368.406 582.113 368.6 581.698 368.655 581.175H366.559V580.617H369.386V581.145C369.346 581.577 369.21 581.974 368.979 582.336C368.748 582.693 368.444 582.977 368.067 583.188C367.69 583.395 367.27 583.498 366.808 583.498C366.32 583.498 365.875 583.385 365.473 583.158C365.071 582.927 364.752 582.608 364.515 582.201C364.284 581.794 364.168 581.334 364.168 580.821C364.168 580.308 364.284 579.848 364.515 579.441C364.752 579.029 365.071 578.709 365.473 578.483C365.875 578.252 366.32 578.136 366.808 578.136C367.366 578.136 367.858 578.275 368.285 578.551C368.718 578.828 369.032 579.217 369.228 579.72H368.406ZM371.96 583.505C371.613 583.505 371.302 583.445 371.025 583.324C370.754 583.199 370.54 583.028 370.384 582.811C370.228 582.59 370.148 582.336 370.143 582.05H370.874C370.899 582.296 371 582.505 371.176 582.676C371.357 582.842 371.618 582.925 371.96 582.925C372.287 582.925 372.543 582.844 372.729 582.683C372.92 582.517 373.016 582.306 373.016 582.05C373.016 581.849 372.96 581.685 372.85 581.56C372.739 581.434 372.601 581.339 372.435 581.273C372.269 581.208 372.046 581.137 371.764 581.062C371.417 580.972 371.138 580.881 370.927 580.791C370.721 580.7 370.542 580.559 370.392 580.368C370.246 580.172 370.173 579.911 370.173 579.584C370.173 579.298 370.246 579.044 370.392 578.823C370.537 578.601 370.741 578.43 371.002 578.31C371.269 578.189 371.573 578.129 371.915 578.129C372.407 578.129 372.81 578.252 373.121 578.498C373.438 578.745 373.616 579.071 373.657 579.479H372.903C372.877 579.278 372.772 579.102 372.586 578.951C372.4 578.795 372.154 578.717 371.847 578.717C371.56 578.717 371.327 578.792 371.146 578.943C370.965 579.089 370.874 579.295 370.874 579.562C370.874 579.753 370.927 579.908 371.033 580.029C371.143 580.15 371.276 580.243 371.432 580.308C371.593 580.368 371.817 580.439 372.103 580.519C372.45 580.615 372.729 580.71 372.94 580.806C373.151 580.896 373.332 581.039 373.483 581.236C373.634 581.427 373.709 581.688 373.709 582.02C373.709 582.276 373.642 582.517 373.506 582.744C373.37 582.97 373.169 583.153 372.903 583.294C372.636 583.435 372.322 583.505 371.96 583.505Z" fill="#154C6B"/>
</g>
<rect x="334.224" y="551.876" width="47.723" height="47.7745" rx="5.11329" stroke="#E5F4FD" stroke-width="0.699495"/>
<g clip-path="url(#clip2_48:5328)">
<rect x="172.816" y="551.876" width="47.723" height="47.7745" rx="5.11329" fill="#F3FBFF"/>
<path d="M192.519 571.284H190.226L189.804 572.452H189.08L190.98 567.227H191.772L193.665 572.452H192.941L192.519 571.284ZM192.323 570.726L191.372 568.071L190.422 570.726H192.323ZM196.129 567.197C196.702 567.197 197.197 567.305 197.615 567.521C198.037 567.732 198.359 568.036 198.58 568.433C198.806 568.83 198.919 569.298 198.919 569.836C198.919 570.374 198.806 570.841 198.58 571.238C198.359 571.63 198.037 571.932 197.615 572.143C197.197 572.349 196.702 572.452 196.129 572.452H194.493V567.197H196.129ZM196.129 571.887C196.808 571.887 197.326 571.708 197.682 571.351C198.039 570.99 198.218 570.484 198.218 569.836C198.218 569.182 198.037 568.672 197.675 568.305C197.318 567.938 196.803 567.755 196.129 567.755H195.179V571.887H196.129ZM201.46 567.197C202.034 567.197 202.529 567.305 202.946 567.521C203.368 567.732 203.69 568.036 203.911 568.433C204.137 568.83 204.25 569.298 204.25 569.836C204.25 570.374 204.137 570.841 203.911 571.238C203.69 571.63 203.368 571.932 202.946 572.143C202.529 572.349 202.034 572.452 201.46 572.452H199.824V567.197H201.46ZM201.46 571.887C202.139 571.887 202.657 571.708 203.014 571.351C203.371 570.99 203.549 570.484 203.549 569.836C203.549 569.182 203.368 568.672 203.006 568.305C202.649 567.938 202.134 567.755 201.46 567.755H200.51V571.887H201.46ZM185.486 580.745C185.677 580.776 185.851 580.853 186.007 580.979C186.167 581.105 186.293 581.261 186.384 581.447C186.479 581.633 186.527 581.831 186.527 582.042C186.527 582.309 186.459 582.55 186.323 582.766C186.187 582.977 185.989 583.146 185.728 583.271C185.471 583.392 185.167 583.452 184.815 583.452H182.855V578.197H184.74C185.097 578.197 185.401 578.257 185.652 578.378C185.903 578.493 186.092 578.652 186.218 578.853C186.343 579.054 186.406 579.28 186.406 579.531C186.406 579.843 186.321 580.102 186.15 580.308C185.984 580.509 185.763 580.655 185.486 580.745ZM183.541 580.466H184.694C185.016 580.466 185.265 580.391 185.441 580.24C185.617 580.089 185.705 579.881 185.705 579.614C185.705 579.348 185.617 579.139 185.441 578.988C185.265 578.838 185.011 578.762 184.679 578.762H183.541V580.466ZM184.755 582.887C185.097 582.887 185.363 582.806 185.554 582.646C185.745 582.485 185.841 582.261 185.841 581.974C185.841 581.683 185.74 581.454 185.539 581.288C185.338 581.117 185.069 581.032 184.732 581.032H183.541V582.887H184.755ZM188.15 578.197V581.522C188.15 581.99 188.263 582.336 188.489 582.563C188.721 582.789 189.04 582.902 189.447 582.902C189.849 582.902 190.163 582.789 190.39 582.563C190.621 582.336 190.736 581.99 190.736 581.522V578.197H191.423V581.515C191.423 581.952 191.335 582.321 191.159 582.623C190.983 582.92 190.744 583.141 190.442 583.287C190.146 583.432 189.811 583.505 189.44 583.505C189.068 583.505 188.731 583.432 188.429 583.287C188.132 583.141 187.896 582.92 187.72 582.623C187.549 582.321 187.464 581.952 187.464 581.515V578.197H188.15ZM194.204 578.197C194.777 578.197 195.272 578.305 195.689 578.521C196.111 578.732 196.433 579.036 196.654 579.433C196.88 579.83 196.994 580.298 196.994 580.836C196.994 581.374 196.88 581.841 196.654 582.238C196.433 582.63 196.111 582.932 195.689 583.143C195.272 583.349 194.777 583.452 194.204 583.452H192.567V578.197H194.204ZM194.204 582.887C194.882 582.887 195.4 582.708 195.757 582.351C196.114 581.99 196.292 581.484 196.292 580.836C196.292 580.182 196.111 579.672 195.749 579.305C195.392 578.938 194.877 578.755 194.204 578.755H193.253V582.887H194.204ZM201.88 579.72C201.734 579.413 201.523 579.177 201.247 579.011C200.97 578.84 200.648 578.755 200.281 578.755C199.914 578.755 199.583 578.84 199.286 579.011C198.994 579.177 198.763 579.418 198.592 579.735C198.426 580.047 198.343 580.409 198.343 580.821C198.343 581.233 198.426 581.595 198.592 581.907C198.763 582.218 198.994 582.46 199.286 582.63C199.583 582.796 199.914 582.879 200.281 582.879C200.794 582.879 201.216 582.726 201.548 582.419C201.88 582.113 202.073 581.698 202.129 581.175H200.033V580.617H202.86V581.145C202.82 581.577 202.684 581.974 202.453 582.336C202.222 582.693 201.918 582.977 201.541 583.188C201.164 583.395 200.744 583.498 200.281 583.498C199.794 583.498 199.349 583.385 198.947 583.158C198.545 582.927 198.225 582.608 197.989 582.201C197.758 581.794 197.642 581.334 197.642 580.821C197.642 580.308 197.758 579.848 197.989 579.441C198.225 579.029 198.545 578.709 198.947 578.483C199.349 578.252 199.794 578.136 200.281 578.136C200.839 578.136 201.332 578.275 201.759 578.551C202.192 578.828 202.506 579.217 202.702 579.72H201.88ZM204.454 578.755V580.512H206.369V581.077H204.454V582.887H206.595V583.452H203.767V578.189H206.595V578.755H204.454ZM210.868 578.197V578.755H209.436V583.452H208.749V578.755H207.309V578.197H210.868Z" fill="#154C6B"/>
</g>
<rect x="172.816" y="551.876" width="47.723" height="47.7745" rx="5.11329" stroke="#E5F4FD" stroke-width="0.699495"/>
<rect x="226.619" y="551.876" width="47.723" height="47.7745" rx="5.11329" fill="#F3FBFF"/>
<path d="M236.994 576.67H234.702L234.279 577.838H233.555L235.456 572.613H236.247L238.14 577.838H237.416L236.994 576.67ZM236.798 576.112L235.848 573.457L234.898 576.112H236.798ZM240.604 572.583C241.178 572.583 241.673 572.691 242.09 572.907C242.512 573.118 242.834 573.422 243.055 573.819C243.281 574.216 243.394 574.684 243.394 575.222C243.394 575.76 243.281 576.227 243.055 576.624C242.834 577.016 242.512 577.318 242.09 577.529C241.673 577.735 241.178 577.838 240.604 577.838H238.968V572.583H240.604ZM240.604 577.273C241.283 577.273 241.801 577.094 242.158 576.737C242.515 576.376 242.693 575.87 242.693 575.222C242.693 574.568 242.512 574.058 242.15 573.691C241.793 573.324 241.278 573.141 240.604 573.141H239.654V577.273H240.604ZM245.936 572.583C246.509 572.583 247.004 572.691 247.421 572.907C247.843 573.118 248.165 573.422 248.386 573.819C248.613 574.216 248.726 574.684 248.726 575.222C248.726 575.76 248.613 576.227 248.386 576.624C248.165 577.016 247.843 577.318 247.421 577.529C247.004 577.735 246.509 577.838 245.936 577.838H244.299V572.583H245.936ZM245.936 577.273C246.614 577.273 247.132 577.094 247.489 576.737C247.846 576.376 248.024 575.87 248.024 575.222C248.024 574.568 247.843 574.058 247.482 573.691C247.125 573.324 246.609 573.141 245.936 573.141H244.986V577.273H245.936ZM254.273 575.131C254.464 575.162 254.637 575.239 254.793 575.365C254.954 575.491 255.079 575.647 255.17 575.833C255.265 576.019 255.313 576.217 255.313 576.428C255.313 576.695 255.245 576.936 255.11 577.152C254.974 577.363 254.775 577.532 254.514 577.657C254.258 577.778 253.953 577.838 253.602 577.838H251.641V572.583H253.526C253.883 572.583 254.187 572.643 254.439 572.764C254.69 572.879 254.878 573.038 255.004 573.239C255.13 573.44 255.193 573.666 255.193 573.917C255.193 574.229 255.107 574.488 254.936 574.694C254.77 574.895 254.549 575.041 254.273 575.131ZM252.327 574.852H253.481C253.803 574.852 254.051 574.777 254.227 574.626C254.403 574.475 254.491 574.267 254.491 574C254.491 573.734 254.403 573.525 254.227 573.374C254.051 573.224 253.798 573.148 253.466 573.148H252.327V574.852ZM253.541 577.273C253.883 577.273 254.15 577.192 254.341 577.032C254.532 576.871 254.627 576.647 254.627 576.36C254.627 576.069 254.527 575.84 254.325 575.674C254.124 575.503 253.855 575.418 253.519 575.418H252.327V577.273H253.541ZM256.952 572.583V577.838H256.265V572.583H256.952ZM258.807 577.28H260.647V577.838H258.121V572.583H258.807V577.28ZM262.062 577.28H263.902V577.838H261.376V572.583H262.062V577.28ZM266.297 577.891C265.95 577.891 265.638 577.831 265.362 577.71C265.091 577.585 264.877 577.414 264.721 577.197C264.565 576.976 264.485 576.722 264.48 576.436H265.211C265.236 576.682 265.337 576.891 265.513 577.062C265.694 577.228 265.955 577.311 266.297 577.311C266.624 577.311 266.88 577.23 267.066 577.069C267.257 576.903 267.353 576.692 267.353 576.436C267.353 576.235 267.297 576.071 267.187 575.946C267.076 575.82 266.938 575.725 266.772 575.659C266.606 575.594 266.382 575.523 266.101 575.448C265.754 575.358 265.475 575.267 265.264 575.177C265.058 575.086 264.879 574.945 264.729 574.754C264.583 574.558 264.51 574.297 264.51 573.97C264.51 573.684 264.583 573.43 264.729 573.209C264.874 572.987 265.078 572.816 265.339 572.696C265.606 572.575 265.91 572.515 266.252 572.515C266.744 572.515 267.147 572.638 267.458 572.884C267.775 573.131 267.953 573.457 267.994 573.865H267.24C267.214 573.664 267.109 573.488 266.923 573.337C266.737 573.181 266.491 573.103 266.184 573.103C265.897 573.103 265.664 573.178 265.483 573.329C265.302 573.475 265.211 573.681 265.211 573.948C265.211 574.139 265.264 574.294 265.37 574.415C265.48 574.536 265.613 574.629 265.769 574.694C265.93 574.754 266.154 574.825 266.44 574.905C266.787 575.001 267.066 575.096 267.277 575.192C267.488 575.282 267.669 575.425 267.82 575.622C267.971 575.813 268.046 576.074 268.046 576.406C268.046 576.662 267.979 576.903 267.843 577.13C267.707 577.356 267.506 577.539 267.24 577.68C266.973 577.821 266.659 577.891 266.297 577.891Z" fill="#154C6B"/>
<rect x="226.619" y="551.876" width="47.723" height="47.7745" rx="5.11329" stroke="#E5F4FD" stroke-width="0.699495"/>
<g clip-path="url(#clip3_48:5328)">
<rect x="280.422" y="551.876" width="47.723" height="47.7745" rx="5.11329" fill="#F3FBFF"/>
<path d="M300.124 571.284H297.832L297.41 572.452H296.686L298.586 567.227H299.378L301.27 572.452H300.547L300.124 571.284ZM299.928 570.726L298.978 568.071L298.028 570.726H299.928ZM303.735 567.197C304.308 567.197 304.803 567.305 305.22 567.521C305.643 567.732 305.964 568.036 306.185 568.433C306.412 568.83 306.525 569.298 306.525 569.836C306.525 570.374 306.412 570.841 306.185 571.238C305.964 571.63 305.643 571.932 305.22 572.143C304.803 572.349 304.308 572.452 303.735 572.452H302.099V567.197H303.735ZM303.735 571.887C304.414 571.887 304.931 571.708 305.288 571.351C305.645 570.99 305.824 570.484 305.824 569.836C305.824 569.182 305.643 568.672 305.281 568.305C304.924 567.938 304.408 567.755 303.735 567.755H302.785V571.887H303.735ZM309.066 567.197C309.639 567.197 310.134 567.305 310.552 567.521C310.974 567.732 311.296 568.036 311.517 568.433C311.743 568.83 311.856 569.298 311.856 569.836C311.856 570.374 311.743 570.841 311.517 571.238C311.296 571.63 310.974 571.932 310.552 572.143C310.134 572.349 309.639 572.452 309.066 572.452H307.43V567.197H309.066ZM309.066 571.887C309.745 571.887 310.263 571.708 310.619 571.351C310.976 570.99 311.155 570.484 311.155 569.836C311.155 569.182 310.974 568.672 310.612 568.305C310.255 567.938 309.74 567.755 309.066 567.755H308.116V571.887H309.066ZM290.94 578.197V583.452H290.254V578.197H290.94ZM296.242 583.452H295.556L292.796 579.267V583.452H292.11V578.189H292.796L295.556 582.367V578.189H296.242V583.452ZM297.155 580.821C297.155 580.308 297.271 579.848 297.502 579.441C297.733 579.029 298.048 578.707 298.445 578.476C298.847 578.244 299.292 578.129 299.779 578.129C300.352 578.129 300.853 578.267 301.28 578.544C301.707 578.82 302.019 579.212 302.215 579.72H301.393C301.247 579.403 301.036 579.159 300.76 578.988C300.488 578.818 300.161 578.732 299.779 578.732C299.412 578.732 299.083 578.818 298.792 578.988C298.5 579.159 298.271 579.403 298.105 579.72C297.939 580.032 297.857 580.399 297.857 580.821C297.857 581.238 297.939 581.605 298.105 581.922C298.271 582.233 298.5 582.475 298.792 582.646C299.083 582.816 299.412 582.902 299.779 582.902C300.161 582.902 300.488 582.819 300.76 582.653C301.036 582.482 301.247 582.238 301.393 581.922H302.215C302.019 582.424 301.707 582.814 301.28 583.09C300.853 583.362 300.352 583.498 299.779 583.498C299.292 583.498 298.847 583.385 298.445 583.158C298.048 582.927 297.733 582.608 297.502 582.201C297.271 581.794 297.155 581.334 297.155 580.821ZM305.619 583.505C305.131 583.505 304.687 583.392 304.284 583.166C303.882 582.935 303.563 582.615 303.327 582.208C303.096 581.796 302.98 581.334 302.98 580.821C302.98 580.308 303.096 579.848 303.327 579.441C303.563 579.029 303.882 578.709 304.284 578.483C304.687 578.252 305.131 578.136 305.619 578.136C306.112 578.136 306.559 578.252 306.961 578.483C307.363 578.709 307.68 579.026 307.911 579.433C308.143 579.841 308.258 580.303 308.258 580.821C308.258 581.339 308.143 581.801 307.911 582.208C307.68 582.615 307.363 582.935 306.961 583.166C306.559 583.392 306.112 583.505 305.619 583.505ZM305.619 582.909C305.986 582.909 306.315 582.824 306.607 582.653C306.903 582.482 307.135 582.238 307.301 581.922C307.471 581.605 307.557 581.238 307.557 580.821C307.557 580.399 307.471 580.032 307.301 579.72C307.135 579.403 306.906 579.159 306.614 578.988C306.323 578.818 305.991 578.732 305.619 578.732C305.247 578.732 304.915 578.818 304.624 578.988C304.332 579.159 304.101 579.403 303.93 579.72C303.764 580.032 303.681 580.399 303.681 580.821C303.681 581.238 303.764 581.605 303.93 581.922C304.101 582.238 304.332 582.482 304.624 582.653C304.92 582.824 305.252 582.909 305.619 582.909ZM314.495 578.234V583.452H313.809V579.562L312.075 583.452H311.592L309.85 579.554V583.452H309.164V578.234H309.903L311.833 582.548L313.764 578.234H314.495ZM316.345 578.755V580.512H318.26V581.077H316.345V582.887H318.486V583.452H315.659V578.189H318.486V578.755H316.345Z" fill="#154C6B"/>
</g>
<rect x="280.422" y="551.876" width="47.723" height="47.7745" rx="5.11329" stroke="#E5F4FD" stroke-width="0.699495"/>
<path d="M358.781 545.982C358.991 546.192 359.332 546.192 359.543 545.982L362.97 542.555C363.181 542.344 363.181 542.003 362.97 541.793C362.76 541.582 362.419 541.582 362.209 541.793L359.162 544.84L356.115 541.793C355.905 541.582 355.564 541.582 355.353 541.793C355.143 542.003 355.143 542.344 355.353 542.555L358.781 545.982ZM35.4262 545.982C35.6365 546.192 35.9775 546.192 36.1879 545.982L39.6155 542.555C39.8258 542.344 39.8258 542.003 39.6155 541.793C39.4051 541.582 39.0641 541.582 38.8538 541.793L35.807 544.84L32.7602 541.793C32.5499 541.582 32.2089 541.582 31.9985 541.793C31.7882 542.003 31.7882 542.344 31.9985 542.555L35.4262 545.982ZM89.229 545.982C89.4393 546.192 89.7803 546.192 89.9907 545.982L93.4183 542.555C93.6286 542.344 93.6286 542.003 93.4183 541.793C93.208 541.582 92.8669 541.582 92.6566 541.793L89.6098 544.84L86.563 541.793C86.3527 541.582 86.0117 541.582 85.8014 541.793C85.591 542.003 85.591 542.344 85.8014 542.555L89.229 545.982ZM143.57 545.982C143.78 546.192 144.121 546.192 144.332 545.982L147.759 542.555C147.969 542.344 147.969 542.003 147.759 541.793C147.549 541.582 147.208 541.582 146.997 541.793L143.951 544.84L140.904 541.793C140.694 541.582 140.353 541.582 140.142 541.793C139.932 542.003 139.932 542.344 140.142 542.555L143.57 545.982ZM196.835 545.982C197.045 546.192 197.386 546.192 197.596 545.982L201.024 542.555C201.234 542.344 201.234 542.003 201.024 541.793C200.814 541.582 200.473 541.582 200.262 541.793L197.215 544.84L194.169 541.793C193.958 541.582 193.617 541.582 193.407 541.793C193.197 542.003 193.197 542.344 193.407 542.555L196.835 545.982ZM249.561 545.982C249.772 546.192 250.113 546.192 250.323 545.982L253.751 542.555C253.961 542.344 253.961 542.003 253.751 541.793C253.54 541.582 253.199 541.582 252.989 541.793L249.942 544.84L246.895 541.793C246.685 541.582 246.344 541.582 246.134 541.793C245.923 542.003 245.923 542.344 246.134 542.555L249.561 545.982ZM303.902 545.982C304.113 546.192 304.454 546.192 304.664 545.982L308.092 542.555C308.302 542.344 308.302 542.003 308.092 541.793C307.881 541.582 307.54 541.582 307.33 541.793L304.283 544.84L301.236 541.793C301.026 541.582 300.685 541.582 300.475 541.793C300.264 542.003 300.264 542.344 300.475 542.555L303.902 545.982ZM358.623 533.196V545.601H359.701V533.196H358.623ZM35.2684 538.6V545.601H36.3456V538.6H35.2684ZM89.6098 516.517H57.351V517.594H89.6098V516.517ZM89.0712 517.056V545.601H90.1484V517.056H89.0712ZM143.951 516.517H89.6098V517.594H143.951V516.517ZM143.412 517.056V545.601H144.489V517.056H143.412ZM197.215 516.517H143.951V517.594H197.215V516.517ZM196.677 517.056V545.601H197.754V517.056H196.677ZM249.942 516.517H197.215V517.594H249.942V516.517ZM249.404 517.056V545.601H250.481V517.056H249.404ZM343.021 516.517H304.283V517.594H343.021V516.517ZM304.283 516.517H249.942V517.594H304.283V516.517ZM303.744 517.056V545.601H304.822V517.056H303.744ZM214.97 350.628V351.167H216.047V350.628H214.97ZM342.482 189.587V372.711H343.56V189.587H342.482ZM237.052 373.249H343.021V372.172H237.052V373.249ZM342.482 372.711V493.357H343.56V372.711H342.482ZM342.482 493.357V517.056H343.56V493.357H342.482ZM164.946 493.896H343.021V492.819H164.946V493.896ZM152.559 481.508C152.559 488.35 158.105 493.896 164.946 493.896V492.819C158.7 492.819 153.636 487.755 153.636 481.508H152.559ZM36.3456 538.6C36.3456 526.999 45.75 517.594 57.351 517.594V516.517C45.1551 516.517 35.2684 526.404 35.2684 538.6H36.3456ZM214.97 351.167C214.97 363.363 224.857 373.249 237.052 373.249V372.172C225.451 372.172 216.047 362.768 216.047 351.167H214.97ZM343.021 517.594C351.638 517.594 358.623 524.579 358.623 533.196H359.701C359.701 523.985 352.233 516.517 343.021 516.517V517.594Z" fill="#154C6B"/>
<rect x="230.036" y="0.5386" width="47.3453" height="47.3968" rx="4.92444" fill="#F3FBFF"/>
<path d="M235.692 26.3653C235.204 26.3653 234.76 26.2522 234.357 26.026C233.955 25.7947 233.636 25.4755 233.4 25.0683C233.169 24.6561 233.053 24.1936 233.053 23.6809C233.053 23.1682 233.169 22.7082 233.4 22.301C233.636 21.8888 233.955 21.5696 234.357 21.3434C234.76 21.1121 235.204 20.9965 235.692 20.9965C236.185 20.9965 236.632 21.1121 237.034 21.3434C237.436 21.5696 237.753 21.8863 237.984 22.2935C238.216 22.7007 238.331 23.1631 238.331 23.6809C238.331 24.1987 238.216 24.6612 237.984 25.0683C237.753 25.4755 237.436 25.7947 237.034 26.026C236.632 26.2522 236.185 26.3653 235.692 26.3653ZM235.692 25.7696C236.059 25.7696 236.388 25.6841 236.68 25.5132C236.976 25.3423 237.208 25.0985 237.374 24.7818C237.544 24.4651 237.63 24.0981 237.63 23.6809C237.63 23.2586 237.544 22.8917 237.374 22.58C237.208 22.2633 236.979 22.0195 236.687 21.8486C236.396 21.6777 236.064 21.5922 235.692 21.5922C235.32 21.5922 234.988 21.6777 234.697 21.8486C234.405 22.0195 234.174 22.2633 234.003 22.58C233.837 22.8917 233.754 23.2586 233.754 23.6809C233.754 24.0981 233.837 24.4651 234.003 24.7818C234.174 25.0985 234.405 25.3423 234.697 25.5132C234.993 25.6841 235.325 25.7696 235.692 25.7696ZM243.58 21.0568L241.597 26.3125H240.805L238.822 21.0568H239.554L241.205 25.5886L242.856 21.0568H243.58ZM245.019 21.6148V23.3717H246.934V23.9373H245.019V25.747H247.16V26.3125H244.333V21.0493H247.16V21.6148H245.019ZM250.966 26.3125L249.714 24.1635H248.885V26.3125H248.199V21.0568H249.895C250.292 21.0568 250.627 21.1247 250.898 21.2604C251.175 21.3962 251.381 21.5796 251.516 21.8109C251.652 22.0421 251.72 22.306 251.72 22.6026C251.72 22.9646 251.614 23.2838 251.403 23.5603C251.197 23.8367 250.886 24.0202 250.468 24.1107L251.788 26.3125H250.966ZM248.885 23.613H249.895C250.267 23.613 250.546 23.5226 250.732 23.3416C250.918 23.1556 251.011 22.9093 251.011 22.6026C251.011 22.291 250.918 22.0497 250.732 21.8787C250.551 21.7078 250.272 21.6224 249.895 21.6224H248.885V23.613ZM257.129 21.0568L255.146 26.3125H254.355L252.371 21.0568H253.103L254.754 25.5886L256.406 21.0568H257.129ZM258.568 21.0568V26.3125H257.882V21.0568H258.568ZM260.424 21.6148V23.3717H262.339V23.9373H260.424V25.747H262.565V26.3125H259.738V21.0493H262.565V21.6148H260.424ZM270.209 21.0568L268.686 26.3125H267.917L266.695 22.0823L265.428 26.3125L264.667 26.32L263.196 21.0568H263.928L265.074 25.5132L266.341 21.0568H267.11L268.316 25.4981L269.47 21.0568H270.209Z" fill="#154C6B"/>
<rect x="230.036" y="0.5386" width="47.3453" height="47.3968" rx="4.92444" stroke="#E5F4FD" stroke-width="1.0772"/>
<rect x="0.835719" y="127.648" width="47.3453" height="47.3968" rx="4.92444" fill="#F3FBFF"/>
<path d="M17.36 148.166C17.9331 148.166 18.4282 148.274 18.8455 148.49C19.2677 148.702 19.5894 149.006 19.8106 149.403C20.0368 149.8 20.1499 150.267 20.1499 150.805C20.1499 151.343 20.0368 151.811 19.8106 152.208C19.5894 152.6 19.2677 152.902 18.8455 153.113C18.4282 153.319 17.9331 153.422 17.36 153.422H15.7237V148.166H17.36ZM17.36 152.856C18.0386 152.856 18.5564 152.678 18.9133 152.321C19.2702 151.959 19.4487 151.454 19.4487 150.805C19.4487 150.152 19.2677 149.642 18.9058 149.275C18.5489 148.908 18.0336 148.724 17.36 148.724H16.4099V152.856H17.36ZM21.7412 148.724V150.481H23.6565V151.047H21.7412V152.856H23.8827V153.422H21.055V148.159H23.8827V148.724H21.7412ZM27.5525 150.715C27.7436 150.745 27.917 150.823 28.0728 150.949C28.2337 151.074 28.3594 151.23 28.4499 151.416C28.5454 151.602 28.5931 151.801 28.5931 152.012C28.5931 152.278 28.5253 152.52 28.3895 152.736C28.2538 152.947 28.0552 153.115 27.7938 153.241C27.5375 153.362 27.2333 153.422 26.8815 153.422H24.9209V148.166H26.806C27.163 148.166 27.4671 148.227 27.7184 148.347C27.9698 148.463 28.1583 148.621 28.284 148.822C28.4096 149.023 28.4725 149.25 28.4725 149.501C28.4725 149.813 28.387 150.071 28.2161 150.278C28.0502 150.479 27.829 150.624 27.5525 150.715ZM25.6071 150.436H26.7608C27.0825 150.436 27.3314 150.36 27.5073 150.21C27.6832 150.059 27.7712 149.85 27.7712 149.584C27.7712 149.317 27.6832 149.109 27.5073 148.958C27.3314 148.807 27.0775 148.732 26.7457 148.732H25.6071V150.436ZM26.8211 152.856C27.163 152.856 27.4294 152.776 27.6204 152.615C27.8114 152.454 27.9069 152.23 27.9069 151.944C27.9069 151.652 27.8064 151.424 27.6053 151.258C27.4043 151.087 27.1353 151.001 26.7985 151.001H25.6071V152.856H26.8211ZM32.7802 148.166V148.724H31.3475V153.422H30.6613V148.724H29.2211V148.166H32.7802Z" fill="#154C6B"/>
<rect x="0.835719" y="127.648" width="47.3453" height="47.3968" rx="4.92444" stroke="#E5F4FD" stroke-width="1.0772"/>
<rect x="60.0188" y="127.648" width="47.3453" height="47.3968" rx="4.92444" fill="#F3FBFF"/>
<path d="M69.6508 153.475C69.304 153.475 68.9923 153.414 68.7158 153.294C68.4444 153.168 68.2307 152.997 68.0749 152.781C67.919 152.56 67.8386 152.306 67.8336 152.019H68.565C68.5901 152.266 68.6907 152.474 68.8666 152.645C69.0476 152.811 69.309 152.894 69.6508 152.894C69.9776 152.894 70.2339 152.814 70.4199 152.653C70.611 152.487 70.7065 152.276 70.7065 152.019C70.7065 151.818 70.6512 151.655 70.5406 151.529C70.43 151.404 70.2918 151.308 70.1259 151.243C69.96 151.177 69.7363 151.107 69.4548 151.032C69.1079 150.941 68.8289 150.851 68.6178 150.76C68.4117 150.67 68.2332 150.529 68.0824 150.338C67.9366 150.142 67.8637 149.88 67.8637 149.554C67.8637 149.267 67.9366 149.013 68.0824 148.792C68.2282 148.571 68.4318 148.4 68.6932 148.279C68.9596 148.159 69.2637 148.098 69.6056 148.098C70.0982 148.098 70.5004 148.222 70.812 148.468C71.1287 148.714 71.3072 149.041 71.3474 149.448H70.5934C70.5682 149.247 70.4627 149.071 70.2767 148.92C70.0907 148.764 69.8444 148.687 69.5377 148.687C69.2512 148.687 69.0174 148.762 68.8365 148.913C68.6555 149.059 68.565 149.265 68.565 149.531C68.565 149.722 68.6178 149.878 68.7234 149.999C68.8339 150.119 68.9672 150.212 69.123 150.278C69.2839 150.338 69.5076 150.408 69.7941 150.489C70.1409 150.584 70.4199 150.68 70.6311 150.775C70.8422 150.866 71.0232 151.009 71.174 151.205C71.3248 151.396 71.4002 151.657 71.4002 151.989C71.4002 152.246 71.3323 152.487 71.1966 152.713C71.0609 152.939 70.8598 153.123 70.5934 153.264C70.3269 153.404 70.0128 153.475 69.6508 153.475ZM75.5166 152.253H73.2243L72.8021 153.422H72.0782L73.9784 148.196H74.7701L76.6627 153.422H75.9389L75.5166 152.253ZM75.3205 151.695L74.3705 149.041L73.4204 151.695H75.3205ZM81.8342 148.166L79.851 153.422H79.0593L77.0762 148.166H77.8076L79.4589 152.698L81.1103 148.166H81.8342ZM83.2727 148.166V153.422H82.5865V148.166H83.2727ZM88.5743 153.422H87.8881L85.1284 149.237V153.422H84.4422V148.159H85.1284L87.8881 152.336V148.159H88.5743V153.422ZM93.7254 149.689C93.5796 149.383 93.3684 149.146 93.092 148.981C92.8155 148.81 92.4938 148.724 92.1268 148.724C91.7598 148.724 91.428 148.81 91.1315 148.981C90.8399 149.146 90.6087 149.388 90.4377 149.704C90.2719 150.016 90.1889 150.378 90.1889 150.79C90.1889 151.202 90.2719 151.564 90.4377 151.876C90.6087 152.188 90.8399 152.429 91.1315 152.6C91.428 152.766 91.7598 152.849 92.1268 152.849C92.6395 152.849 93.0618 152.695 93.3936 152.389C93.7254 152.082 93.9189 151.667 93.9742 151.145H91.878V150.587H94.7056V151.115C94.6654 151.547 94.5297 151.944 94.2984 152.306C94.0672 152.663 93.7631 152.947 93.386 153.158C93.009 153.364 92.5893 153.467 92.1268 153.467C91.6392 153.467 91.1943 153.354 90.7921 153.128C90.39 152.897 90.0708 152.577 89.8345 152.17C89.6033 151.763 89.4877 151.303 89.4877 150.79C89.4877 150.278 89.6033 149.818 89.8345 149.41C90.0708 148.998 90.39 148.679 90.7921 148.453C91.1943 148.222 91.6392 148.106 92.1268 148.106C92.6848 148.106 93.1774 148.244 93.6047 148.521C94.037 148.797 94.3512 149.187 94.5473 149.689H93.7254ZM97.2793 153.475C96.9324 153.475 96.6208 153.414 96.3443 153.294C96.0728 153.168 95.8592 152.997 95.7034 152.781C95.5475 152.56 95.4671 152.306 95.4621 152.019H96.1935C96.2186 152.266 96.3192 152.474 96.4951 152.645C96.6761 152.811 96.9375 152.894 97.2793 152.894C97.606 152.894 97.8624 152.814 98.0484 152.653C98.2394 152.487 98.335 152.276 98.335 152.019C98.335 151.818 98.2797 151.655 98.1691 151.529C98.0585 151.404 97.9202 151.308 97.7543 151.243C97.5885 151.177 97.3648 151.107 97.0832 151.032C96.7364 150.941 96.4574 150.851 96.2463 150.76C96.0402 150.67 95.8617 150.529 95.7109 150.338C95.5651 150.142 95.4922 149.88 95.4922 149.554C95.4922 149.267 95.5651 149.013 95.7109 148.792C95.8567 148.571 96.0603 148.4 96.3217 148.279C96.5881 148.159 96.8922 148.098 97.2341 148.098C97.7267 148.098 98.1288 148.222 98.4405 148.468C98.7572 148.714 98.9357 149.041 98.9759 149.448H98.2218C98.1967 149.247 98.0911 149.071 97.9051 148.92C97.7192 148.764 97.4728 148.687 97.1662 148.687C96.8797 148.687 96.6459 148.762 96.4649 148.913C96.284 149.059 96.1935 149.265 96.1935 149.531C96.1935 149.722 96.2463 149.878 96.3518 149.999C96.4624 150.119 96.5956 150.212 96.7515 150.278C96.9123 150.338 97.136 150.408 97.4226 150.489C97.7694 150.584 98.0484 150.68 98.2595 150.775C98.4707 150.866 98.6516 151.009 98.8025 151.205C98.9533 151.396 99.0287 151.657 99.0287 151.989C99.0287 152.246 98.9608 152.487 98.8251 152.713C98.6894 152.939 98.4883 153.123 98.2218 153.264C97.9554 153.404 97.6412 153.475 97.2793 153.475Z" fill="#154C6B"/>
<rect x="60.0188" y="127.648" width="47.3453" height="47.3968" rx="4.92444" stroke="#E5F4FD" stroke-width="1.0772"/>
<rect x="119.202" y="127.648" width="47.3453" height="47.3968" rx="4.92444" fill="#F3FBFF"/>
<path d="M131.803 150.715C131.994 150.745 132.167 150.823 132.323 150.949C132.484 151.074 132.61 151.23 132.7 151.416C132.796 151.602 132.843 151.801 132.843 152.012C132.843 152.278 132.775 152.52 132.64 152.736C132.504 152.947 132.305 153.115 132.044 153.241C131.788 153.362 131.483 153.422 131.132 153.422H129.171V148.166H131.056C131.413 148.166 131.717 148.227 131.969 148.347C132.22 148.463 132.408 148.621 132.534 148.822C132.66 149.023 132.723 149.25 132.723 149.501C132.723 149.813 132.637 150.071 132.466 150.278C132.3 150.479 132.079 150.624 131.803 150.715ZM129.857 150.436H131.011C131.333 150.436 131.582 150.36 131.757 150.21C131.933 150.059 132.021 149.85 132.021 149.584C132.021 149.317 131.933 149.109 131.757 148.958C131.582 148.807 131.328 148.732 130.996 148.732H129.857V150.436ZM131.071 152.856C131.413 152.856 131.68 152.776 131.871 152.615C132.062 152.454 132.157 152.23 132.157 151.944C132.157 151.652 132.057 151.424 131.855 151.258C131.654 151.087 131.385 151.001 131.049 151.001H129.857V152.856H131.071ZM134.467 148.166V151.492C134.467 151.959 134.58 152.306 134.806 152.532C135.037 152.758 135.356 152.871 135.764 152.871C136.166 152.871 136.48 152.758 136.706 152.532C136.937 152.306 137.053 151.959 137.053 151.492V148.166H137.739V151.484C137.739 151.921 137.651 152.291 137.475 152.592C137.299 152.889 137.06 153.11 136.759 153.256C136.462 153.402 136.128 153.475 135.756 153.475C135.384 153.475 135.047 153.402 134.746 153.256C134.449 153.11 134.213 152.889 134.037 152.592C133.866 152.291 133.78 151.921 133.78 151.484V148.166H134.467ZM140.52 148.166C141.093 148.166 141.588 148.274 142.005 148.49C142.428 148.702 142.749 149.006 142.971 149.403C143.197 149.8 143.31 150.267 143.31 150.805C143.31 151.343 143.197 151.811 142.971 152.208C142.749 152.6 142.428 152.902 142.005 153.113C141.588 153.319 141.093 153.422 140.52 153.422H138.884V148.166H140.52ZM140.52 152.856C141.199 152.856 141.716 152.678 142.073 152.321C142.43 151.959 142.609 151.454 142.609 150.805C142.609 150.152 142.428 149.642 142.066 149.275C141.709 148.908 141.194 148.724 140.52 148.724H139.57V152.856H140.52ZM148.196 149.689C148.051 149.383 147.839 149.146 147.563 148.981C147.287 148.81 146.965 148.724 146.598 148.724C146.231 148.724 145.899 148.81 145.602 148.981C145.311 149.146 145.08 149.388 144.909 149.704C144.743 150.016 144.66 150.378 144.66 150.79C144.66 151.202 144.743 151.564 144.909 151.876C145.08 152.188 145.311 152.429 145.602 152.6C145.899 152.766 146.231 152.849 146.598 152.849C147.111 152.849 147.533 152.695 147.865 152.389C148.196 152.082 148.39 151.667 148.445 151.145H146.349V150.587H149.177V151.115C149.136 151.547 149.001 151.944 148.769 152.306C148.538 152.663 148.234 152.947 147.857 153.158C147.48 153.364 147.06 153.467 146.598 153.467C146.11 153.467 145.665 153.354 145.263 153.128C144.861 152.897 144.542 152.577 144.306 152.17C144.074 151.763 143.959 151.303 143.959 150.79C143.959 150.278 144.074 149.818 144.306 149.41C144.542 148.998 144.861 148.679 145.263 148.453C145.665 148.222 146.11 148.106 146.598 148.106C147.156 148.106 147.648 148.244 148.076 148.521C148.508 148.797 148.822 149.187 149.018 149.689H148.196ZM150.77 148.724V150.481H152.685V151.047H150.77V152.856H152.912V153.422H150.084V148.159H152.912V148.724H150.77ZM157.185 148.166V148.724H155.752V153.422H155.066V148.724H153.626V148.166H157.185Z" fill="#154C6B"/>
<rect x="119.202" y="127.648" width="47.3453" height="47.3968" rx="4.92444" stroke="#E5F4FD" stroke-width="1.0772"/>
<rect x="178.385" y="127.648" width="47.3453" height="47.3968" rx="4.92444" fill="#F3FBFF"/>
<path d="M196.148 150.715C196.339 150.745 196.512 150.823 196.668 150.949C196.829 151.074 196.954 151.23 197.045 151.416C197.14 151.602 197.188 151.801 197.188 152.012C197.188 152.278 197.12 152.52 196.985 152.736C196.849 152.947 196.65 153.115 196.389 153.241C196.133 153.362 195.828 153.422 195.477 153.422H193.516V148.166H195.401C195.758 148.166 196.062 148.227 196.314 148.347C196.565 148.463 196.753 148.621 196.879 148.822C197.005 149.023 197.068 149.25 197.068 149.501C197.068 149.813 196.982 150.071 196.811 150.278C196.645 150.479 196.424 150.624 196.148 150.715ZM194.202 150.436H195.356C195.678 150.436 195.926 150.36 196.102 150.21C196.278 150.059 196.366 149.85 196.366 149.584C196.366 149.317 196.278 149.109 196.102 148.958C195.926 148.807 195.673 148.732 195.341 148.732H194.202V150.436ZM195.416 152.856C195.758 152.856 196.024 152.776 196.216 152.615C196.407 152.454 196.502 152.23 196.502 151.944C196.502 151.652 196.402 151.424 196.2 151.258C195.999 151.087 195.73 151.001 195.394 151.001H194.202V152.856H195.416ZM198.827 148.166V153.422H198.14V148.166H198.827ZM200.682 152.864H202.522V153.422H199.996V148.166H200.682V152.864ZM203.937 152.864H205.777V153.422H203.251V148.166H203.937V152.864ZM208.172 153.475C207.825 153.475 207.513 153.414 207.237 153.294C206.966 153.168 206.752 152.997 206.596 152.781C206.44 152.56 206.36 152.306 206.355 152.019H207.086C207.111 152.266 207.212 152.474 207.388 152.645C207.569 152.811 207.83 152.894 208.172 152.894C208.499 152.894 208.755 152.814 208.941 152.653C209.132 152.487 209.228 152.276 209.228 152.019C209.228 151.818 209.172 151.655 209.062 151.529C208.951 151.404 208.813 151.308 208.647 151.243C208.481 151.177 208.257 151.107 207.976 151.032C207.629 150.941 207.35 150.851 207.139 150.76C206.933 150.67 206.754 150.529 206.604 150.338C206.458 150.142 206.385 149.88 206.385 149.554C206.385 149.267 206.458 149.013 206.604 148.792C206.749 148.571 206.953 148.4 207.214 148.279C207.481 148.159 207.785 148.098 208.127 148.098C208.619 148.098 209.022 148.222 209.333 148.468C209.65 148.714 209.828 149.041 209.869 149.448H209.115C209.089 149.247 208.984 149.071 208.798 148.92C208.612 148.764 208.366 148.687 208.059 148.687C207.772 148.687 207.539 148.762 207.358 148.913C207.177 149.059 207.086 149.265 207.086 149.531C207.086 149.722 207.139 149.878 207.245 149.999C207.355 150.119 207.488 150.212 207.644 150.278C207.805 150.338 208.029 150.408 208.315 150.489C208.662 150.584 208.941 150.68 209.152 150.775C209.363 150.866 209.544 151.009 209.695 151.205C209.846 151.396 209.921 151.657 209.921 151.989C209.921 152.246 209.853 152.487 209.718 152.713C209.582 152.939 209.381 153.123 209.115 153.264C208.848 153.404 208.534 153.475 208.172 153.475Z" fill="#154C6B"/>
<rect x="178.385" y="127.648" width="47.3453" height="47.3968" rx="4.92444" stroke="#E5F4FD" stroke-width="1.0772"/>
<rect x="319.348" y="127.648" width="47.3453" height="47.3968" rx="4.92444" fill="#F3FBFF"/>
<path d="M338.45 152.253H336.157L335.735 153.422H335.011L336.912 148.196H337.703L339.596 153.422H338.872L338.45 152.253ZM338.254 151.695L337.304 149.041L336.354 151.695H338.254ZM342.06 148.166C342.633 148.166 343.129 148.274 343.546 148.49C343.968 148.702 344.29 149.006 344.511 149.403C344.737 149.8 344.85 150.267 344.85 150.805C344.85 151.343 344.737 151.811 344.511 152.208C344.29 152.6 343.968 152.902 343.546 153.113C343.129 153.319 342.633 153.422 342.06 153.422H340.424V148.166H342.06ZM342.06 152.856C342.739 152.856 343.257 152.678 343.614 152.321C343.971 151.959 344.149 151.454 344.149 150.805C344.149 150.152 343.968 149.642 343.606 149.275C343.249 148.908 342.734 148.724 342.06 148.724H341.11V152.856H342.06ZM347.392 148.166C347.965 148.166 348.46 148.274 348.877 148.49C349.299 148.702 349.621 149.006 349.842 149.403C350.068 149.8 350.182 150.267 350.182 150.805C350.182 151.343 350.068 151.811 349.842 152.208C349.621 152.6 349.299 152.902 348.877 153.113C348.46 153.319 347.965 153.422 347.392 153.422H345.755V148.166H347.392ZM347.392 152.856C348.07 152.856 348.588 152.678 348.945 152.321C349.302 151.959 349.48 151.454 349.48 150.805C349.48 150.152 349.299 149.642 348.937 149.275C348.58 148.908 348.065 148.724 347.392 148.724H346.442V152.856H347.392Z" fill="#154C6B"/>
<rect x="319.348" y="127.648" width="47.3453" height="47.3968" rx="4.92444" stroke="#E5F4FD" stroke-width="1.0772"/>
<path d="M345.33 118.873C345.541 119.083 345.882 119.083 346.092 118.873L349.52 115.445C349.73 115.235 349.73 114.894 349.52 114.684C349.309 114.473 348.968 114.473 348.758 114.684L345.711 117.73L342.664 114.684C342.454 114.473 342.113 114.473 341.903 114.684C341.692 114.894 341.692 115.235 341.903 115.445L345.33 118.873ZM30.0459 118.873C30.2562 119.083 30.5973 119.083 30.8076 118.873L34.2352 115.445C34.4456 115.235 34.4456 114.894 34.2352 114.684C34.0249 114.473 33.6839 114.473 33.4735 114.684L30.4268 117.73L27.38 114.684C27.1696 114.473 26.8286 114.473 26.6183 114.684C26.4079 114.894 26.4079 115.235 26.6183 115.445L30.0459 118.873ZM87.0769 118.873C87.2872 119.083 87.6283 119.083 87.8386 118.873L91.2662 115.445C91.4766 115.235 91.4766 114.894 91.2662 114.684C91.0559 114.473 90.7149 114.473 90.5045 114.684L87.4577 117.73L84.411 114.684C84.2006 114.473 83.8596 114.473 83.6493 114.684C83.4389 114.894 83.4389 115.235 83.6493 115.445L87.0769 118.873ZM147.874 118.873C148.084 119.083 148.425 119.083 148.636 118.873L152.063 115.445C152.274 115.235 152.274 114.894 152.063 114.684C151.853 114.473 151.512 114.473 151.302 114.684L148.255 117.73L145.208 114.684C144.998 114.473 144.657 114.473 144.446 114.684C144.236 114.894 144.236 115.235 144.446 115.445L147.874 118.873ZM205.981 118.873C206.191 119.083 206.532 119.083 206.743 118.873L210.17 115.445C210.381 115.235 210.381 114.894 210.17 114.684C209.96 114.473 209.619 114.473 209.409 114.684L206.362 117.73L203.315 114.684C203.105 114.473 202.764 114.473 202.553 114.684C202.343 114.894 202.343 115.235 202.553 115.445L205.981 118.873ZM256.936 60.3232V84.0216H258.013V60.3232H256.936ZM257.475 84.5602H324.167V83.483H257.475V84.5602ZM345.173 105.566V118.492H346.25V105.566H345.173ZM29.8882 105.566V118.492H30.9654V105.566H29.8882ZM87.4577 83.483H51.9707V84.5602H87.4577V83.483ZM86.9191 84.0216V118.492H87.9963V84.0216H86.9191ZM148.255 83.483H87.4577V84.5602H148.255V83.483ZM147.716 84.0216V118.492H148.794V84.0216H147.716ZM257.475 83.483H206.362V84.5602H257.475V83.483ZM206.362 83.483H148.255V84.5602H206.362V83.483ZM205.823 84.0216V118.492H206.901V84.0216H205.823ZM30.9654 105.566C30.9654 93.9647 40.3698 84.5602 51.9707 84.5602V83.483C39.7749 83.483 29.8882 93.3697 29.8882 105.566H30.9654ZM324.167 84.5602C335.768 84.5602 345.173 93.9647 345.173 105.566H346.25C346.25 93.3697 336.363 83.483 324.167 83.483V84.5602Z" fill="#154C6B"/>
<path d="M148.255 224.057V224.596H147.716V224.057H148.255ZM161.706 224.057V223.519H162.244V224.057H161.706ZM99.1372 289.07C98.9268 289.281 98.5858 289.281 98.3755 289.07L94.9479 285.643C94.7375 285.432 94.7375 285.091 94.9479 284.881C95.1582 284.671 95.4992 284.671 95.7096 284.881L98.7563 287.928L101.803 284.881C102.013 284.671 102.354 284.671 102.565 284.881C102.775 285.091 102.775 285.432 102.565 285.643L99.1372 289.07ZM218.041 289.07C217.831 289.281 217.49 289.281 217.28 289.07L213.852 285.643C213.642 285.432 213.642 285.091 213.852 284.881C214.062 284.671 214.403 284.671 214.614 284.881L217.661 287.928L220.707 284.881C220.918 284.671 221.259 284.671 221.469 284.881C221.679 285.091 221.679 285.432 221.469 285.643L218.041 289.07ZM29.8882 202.514V189.587H30.9654V202.514H29.8882ZM86.9197 224.596H51.9708V223.519H86.9197V224.596ZM86.3811 224.057V189.587H87.4583V224.057H86.3811ZM147.716 224.057V189.587H148.794V224.057H147.716ZM182.666 224.596H148.255V223.519H182.666V224.596ZM203.671 202.514V189.587H204.748V202.514H203.671ZM148.255 223.519H161.706V224.596H148.255V223.519ZM161.706 224.596H86.9197V223.519H161.706V224.596ZM162.244 224.057V255.835H161.167V224.057H162.244ZM161.706 256.373H120.3V255.296H161.706V256.373ZM99.2949 277.379V288.689H98.2177V277.379H99.2949ZM161.706 255.296H196.117V256.373H161.706V255.296ZM218.199 277.379V288.689H217.122V277.379H218.199ZM196.117 255.296C208.312 255.296 218.199 265.183 218.199 277.379H217.122C217.122 265.778 207.718 256.373 196.117 256.373V255.296ZM182.666 223.519C194.267 223.519 203.671 214.114 203.671 202.514H204.748C204.748 214.709 194.862 224.596 182.666 224.596V223.519ZM120.3 256.373C108.699 256.373 99.2949 265.778 99.2949 277.379H98.2177C98.2177 265.183 108.104 255.296 120.3 255.296V256.373ZM30.9654 202.514C30.9654 214.114 40.3698 223.519 51.9708 223.519V224.596C39.7749 224.596 29.8882 214.709 29.8882 202.514H30.9654Z" fill="#154C6B"/>
<path d="M35.1118 419.411C34.9015 419.622 34.5604 419.622 34.3501 419.411L30.9225 415.984C30.7121 415.773 30.7121 415.432 30.9225 415.222C31.1328 415.012 31.4738 415.012 31.6842 415.222L34.731 418.269L37.7777 415.222C37.9881 415.012 38.3291 415.012 38.5394 415.222C38.7498 415.432 38.7498 415.773 38.5394 415.984L35.1118 419.411ZM154.016 419.411C153.806 419.622 153.465 419.622 153.254 419.411L149.827 415.984C149.616 415.773 149.616 415.432 149.827 415.222C150.037 415.012 150.378 415.012 150.588 415.222L153.635 418.269L156.682 415.222C156.892 415.012 157.233 415.012 157.444 415.222C157.654 415.432 157.654 415.773 157.444 415.984L154.016 419.411ZM98.2189 354.399V386.176H97.1417V354.399H98.2189ZM97.6803 386.715H56.2749V385.637H97.6803V386.715ZM35.2696 407.72V419.031H34.1924V407.72H35.2696ZM97.6803 385.637H132.091V386.715H97.6803V385.637ZM154.174 407.72V419.031H153.097V407.72H154.174ZM132.091 385.637C144.287 385.637 154.174 395.524 154.174 407.72H153.097C153.097 396.119 143.692 386.715 132.091 386.715V385.637ZM56.2749 386.715C44.674 386.715 35.2696 396.119 35.2696 407.72H34.1924C34.1924 395.524 44.0791 385.637 56.2749 385.637V386.715Z" fill="#154C6B"/>
<rect x="70.7794" y="297.846" width="47.3453" height="47.3968" rx="4.92444" fill="#F3FBFF"/>
<path d="M82.5174 318.364C83.0905 318.364 83.5856 318.472 84.0028 318.688C84.4251 318.899 84.7468 319.203 84.968 319.6C85.1942 319.997 85.3073 320.465 85.3073 321.003C85.3073 321.541 85.1942 322.008 84.968 322.405C84.7468 322.797 84.4251 323.099 84.0028 323.31C83.5856 323.516 83.0905 323.619 82.5174 323.619H80.8811V318.364H82.5174ZM82.5174 323.054C83.196 323.054 83.7138 322.875 84.0707 322.518C84.4276 322.157 84.6061 321.651 84.6061 321.003C84.6061 320.349 84.4251 319.839 84.0632 319.472C83.7063 319.105 83.191 318.922 82.5174 318.922H81.5673V323.054H82.5174ZM86.8986 318.922V320.679H88.8139V321.244H86.8986V323.054H89.0401V323.619H86.2124V318.356H89.0401V318.922H86.8986ZM93.3132 318.364V318.922H91.8805V323.619H91.1943V318.922H89.7541V318.364H93.3132ZM97.2645 322.451H94.9722L94.5499 323.619H93.826L95.7262 318.394H96.518L98.4106 323.619H97.6867L97.2645 322.451ZM97.0684 321.893L96.1183 319.238L95.1682 321.893H97.0684ZM99.9249 318.364V323.619H99.2387V318.364H99.9249ZM101.781 323.061H103.62V323.619H101.094V318.364H101.781V323.061ZM106.016 323.672C105.669 323.672 105.357 323.612 105.081 323.491C104.809 323.366 104.595 323.195 104.44 322.978C104.284 322.757 104.203 322.503 104.198 322.217H104.93C104.955 322.463 105.055 322.672 105.231 322.843C105.412 323.009 105.674 323.092 106.016 323.092C106.342 323.092 106.599 323.011 106.785 322.85C106.976 322.684 107.071 322.473 107.071 322.217C107.071 322.016 107.016 321.852 106.905 321.727C106.795 321.601 106.656 321.506 106.491 321.44C106.325 321.375 106.101 321.304 105.82 321.229C105.473 321.139 105.194 321.048 104.983 320.958C104.776 320.867 104.598 320.726 104.447 320.535C104.301 320.339 104.228 320.078 104.228 319.751C104.228 319.465 104.301 319.211 104.447 318.99C104.593 318.768 104.797 318.597 105.058 318.477C105.324 318.356 105.628 318.296 105.97 318.296C106.463 318.296 106.865 318.419 107.177 318.665C107.493 318.912 107.672 319.238 107.712 319.646H106.958C106.933 319.445 106.827 319.269 106.641 319.118C106.455 318.962 106.209 318.884 105.902 318.884C105.616 318.884 105.382 318.959 105.201 319.11C105.02 319.256 104.93 319.462 104.93 319.729C104.93 319.92 104.983 320.075 105.088 320.196C105.199 320.317 105.332 320.41 105.488 320.475C105.649 320.535 105.872 320.606 106.159 320.686C106.506 320.782 106.785 320.877 106.996 320.973C107.207 321.063 107.388 321.206 107.539 321.403C107.69 321.594 107.765 321.855 107.765 322.187C107.765 322.443 107.697 322.684 107.561 322.911C107.426 323.137 107.225 323.32 106.958 323.461C106.692 323.602 106.377 323.672 106.016 323.672Z" fill="#154C6B"/>
<rect x="70.7794" y="297.846" width="47.3453" height="47.3968" rx="4.92444" stroke="#E5F4FD" stroke-width="1.0772"/>
<rect x="191.298" y="297.846" width="47.3453" height="47.3968" rx="4.92444" fill="#F3FBFF"/>
<path d="M210.399 322.451H208.107L207.684 323.619H206.961L208.861 318.394H209.653L211.545 323.619H210.821L210.399 322.451ZM210.203 321.893L209.253 319.238L208.303 321.893H210.203ZM214.01 318.364C214.583 318.364 215.078 318.472 215.495 318.688C215.917 318.899 216.239 319.203 216.46 319.6C216.686 319.997 216.8 320.465 216.8 321.003C216.8 321.541 216.686 322.008 216.46 322.405C216.239 322.797 215.917 323.099 215.495 323.31C215.078 323.516 214.583 323.619 214.01 323.619H212.373V318.364H214.01ZM214.01 323.054C214.688 323.054 215.206 322.875 215.563 322.518C215.92 322.157 216.098 321.651 216.098 321.003C216.098 320.349 215.917 319.839 215.555 319.472C215.198 319.105 214.683 318.922 214.01 318.922H213.059V323.054H214.01ZM219.341 318.364C219.914 318.364 220.409 318.472 220.826 318.688C221.249 318.899 221.57 319.203 221.792 319.6C222.018 319.997 222.131 320.465 222.131 321.003C222.131 321.541 222.018 322.008 221.792 322.405C221.57 322.797 221.249 323.099 220.826 323.31C220.409 323.516 219.914 323.619 219.341 323.619H217.705V318.364H219.341ZM219.341 323.054C220.02 323.054 220.537 322.875 220.894 322.518C221.251 322.157 221.43 321.651 221.43 321.003C221.43 320.349 221.249 319.839 220.887 319.472C220.53 319.105 220.014 318.922 219.341 318.922H218.391V323.054H219.341Z" fill="#154C6B"/>
<rect x="191.298" y="297.846" width="47.3453" height="47.3968" rx="4.92444" stroke="#E5F4FD" stroke-width="1.0772"/>
<rect x="8.36813" y="428.187" width="47.3453" height="47.3968" rx="4.92444" fill="#F3FBFF"/>
<path d="M25.3546 449.263V451.02H27.2699V451.585H25.3546V453.395H27.4961V453.96H24.6685V448.697H27.4961V449.263H25.3546ZM30.1707 448.705C30.7437 448.705 31.2389 448.813 31.6561 449.029C32.0784 449.24 32.4001 449.544 32.6213 449.941C32.8475 450.339 32.9606 450.806 32.9606 451.344C32.9606 451.882 32.8475 452.349 32.6213 452.746C32.4001 453.139 32.0784 453.44 31.6561 453.651C31.2389 453.857 30.7437 453.96 30.1707 453.96H28.5344V448.705H30.1707ZM30.1707 453.395C30.8493 453.395 31.3671 453.216 31.724 452.86C32.0809 452.498 32.2594 451.992 32.2594 451.344C32.2594 450.69 32.0784 450.18 31.7164 449.813C31.3595 449.446 30.8443 449.263 30.1707 449.263H29.2206V453.395H30.1707ZM34.5519 448.705V453.96H33.8657V448.705H34.5519ZM38.9562 448.705V449.263H37.5235V453.96H36.8373V449.263H35.3971V448.705H38.9562Z" fill="#154C6B"/>
<rect x="8.36813" y="428.187" width="47.3453" height="47.3968" rx="4.92444" stroke="#E5F4FD" stroke-width="1.0772"/>
<rect x="127.81" y="428.187" width="47.3453" height="47.3968" rx="4.92444" fill="#F3FBFF"/>
<path d="M146.912 452.792H144.619L144.197 453.96H143.473L145.373 448.735H146.165L148.058 453.96H147.334L146.912 452.792ZM146.716 452.234L145.766 449.579L144.815 452.234H146.716ZM150.522 448.705C151.095 448.705 151.59 448.813 152.008 449.029C152.43 449.24 152.752 449.544 152.973 449.941C153.199 450.339 153.312 450.806 153.312 451.344C153.312 451.882 153.199 452.349 152.973 452.746C152.752 453.139 152.43 453.44 152.008 453.651C151.59 453.857 151.095 453.96 150.522 453.96H148.886V448.705H150.522ZM150.522 453.395C151.201 453.395 151.719 453.216 152.076 452.86C152.433 452.498 152.611 451.992 152.611 451.344C152.611 450.69 152.43 450.18 152.068 449.813C151.711 449.446 151.196 449.263 150.522 449.263H149.572V453.395H150.522ZM155.854 448.705C156.427 448.705 156.922 448.813 157.339 449.029C157.761 449.24 158.083 449.544 158.304 449.941C158.53 450.339 158.644 450.806 158.644 451.344C158.644 451.882 158.53 452.349 158.304 452.746C158.083 453.139 157.761 453.44 157.339 453.651C156.922 453.857 156.427 453.96 155.854 453.96H154.217V448.705H155.854ZM155.854 453.395C156.532 453.395 157.05 453.216 157.407 452.86C157.764 452.498 157.942 451.992 157.942 451.344C157.942 450.69 157.761 450.18 157.399 449.813C157.042 449.446 156.527 449.263 155.854 449.263H154.903V453.395H155.854Z" fill="#154C6B"/>
<rect x="127.81" y="428.187" width="47.3453" height="47.3968" rx="4.92444" stroke="#E5F4FD" stroke-width="1.0772"/>
<defs>
<clipPath id="clip0_48:5328">
</clipPath>
<clipPath id="clip1_48:5328">
</clipPath>
<clipPath id="clip2_48:5328">
</clipPath>
<clipPath id="clip3_48:5328">
</clipPath>
</defs>
</svg>
