<svg width="1201" height="942" viewBox="0 0 1201 942" fill="none" xmlns="http://www.w3.org/2000/svg">
<rect x="434.269" y="0.440381" width="88.492" height="88.5426" rx="6.43834" fill="#F3FBFF"/>
<path d="M456.354 49.593C455.687 49.593 455.078 49.4382 454.528 49.1287C453.978 48.8122 453.541 48.3754 453.218 47.8183C452.901 47.2542 452.743 46.6214 452.743 45.9197C452.743 45.2181 452.901 44.5887 453.218 44.0315C453.541 43.4675 453.978 43.0307 454.528 42.7211C455.078 42.4047 455.687 42.2465 456.354 42.2465C457.028 42.2465 457.641 42.4047 458.191 42.7211C458.741 43.0307 459.174 43.464 459.491 44.0212C459.807 44.5784 459.966 45.2112 459.966 45.9197C459.966 46.6282 459.807 47.2611 459.491 47.8183C459.174 48.3754 458.741 48.8122 458.191 49.1287C457.641 49.4382 457.028 49.593 456.354 49.593ZM456.354 48.7778C456.856 48.7778 457.307 48.6609 457.706 48.427C458.112 48.1932 458.428 47.8595 458.655 47.4262C458.889 46.9928 459.006 46.4907 459.006 45.9197C459.006 45.3419 458.889 44.8398 458.655 44.4133C458.428 43.9799 458.115 43.6463 457.716 43.4124C457.317 43.1786 456.863 43.0616 456.354 43.0616C455.845 43.0616 455.391 43.1786 454.992 43.4124C454.593 43.6463 454.277 43.9799 454.043 44.4133C453.816 44.8398 453.702 45.3419 453.702 45.9197C453.702 46.4907 453.816 46.9928 454.043 47.4262C454.277 47.8595 454.593 48.1932 454.992 48.427C455.398 48.6609 455.852 48.7778 456.354 48.7778ZM467.148 42.329L464.435 49.5208H463.351L460.638 42.329H461.638L463.898 48.5302L466.158 42.329H467.148ZM469.117 43.0926V45.4967H471.738V46.2706H469.117V48.7469H472.047V49.5208H468.178V42.3187H472.047V43.0926H469.117ZM477.255 49.5208L475.542 46.5801H474.407V49.5208H473.468V42.329H475.789C476.333 42.329 476.79 42.4219 477.162 42.6076C477.54 42.7934 477.822 43.0444 478.008 43.3609C478.194 43.6773 478.286 44.0384 478.286 44.4443C478.286 44.9395 478.142 45.3763 477.853 45.7547C477.571 46.133 477.145 46.3841 476.574 46.5079L478.379 49.5208H477.255ZM474.407 45.8269H475.789C476.298 45.8269 476.68 45.7031 476.935 45.4554C477.189 45.2009 477.317 44.8639 477.317 44.4443C477.317 44.0178 477.189 43.6876 476.935 43.4537C476.687 43.2198 476.305 43.1029 475.789 43.1029H474.407V45.8269ZM485.689 42.329L482.975 49.5208H481.892L479.178 42.329H480.179L482.438 48.5302L484.698 42.329H485.689ZM487.657 42.329V49.5208H486.718V42.329H487.657ZM490.196 43.0926V45.4967H492.817V46.2706H490.196V48.7469H493.127V49.5208H489.257V42.3187H493.127V43.0926H490.196ZM503.586 42.329L501.502 49.5208H500.449L498.778 43.7323L497.044 49.5208L496.002 49.5311L493.99 42.329H494.991L496.559 48.427L498.293 42.329H499.345L500.996 48.4064L502.575 42.329H503.586Z" fill="#154C6B"/>
<rect x="434.269" y="0.440381" width="88.492" height="88.5426" rx="6.43834" stroke="#E5F4FD" stroke-width="0.880761"/>
<rect x="1.15437" y="216.776" width="88.492" height="88.5426" rx="6.43834" fill="#F3FBFF"/>
<path d="M36.4186 258.665C37.2028 258.665 37.8803 258.813 38.4513 259.109C39.0291 259.398 39.4693 259.814 39.772 260.357C40.0815 260.901 40.2363 261.54 40.2363 262.276C40.2363 263.012 40.0815 263.652 39.772 264.195C39.4693 264.732 39.0291 265.145 38.4513 265.434C37.8803 265.716 37.2028 265.857 36.4186 265.857H34.1796V258.665H36.4186ZM36.4186 265.083C37.3472 265.083 38.0557 264.839 38.5441 264.35C39.0325 263.855 39.2767 263.164 39.2767 262.276C39.2767 261.382 39.0291 260.684 38.5338 260.182C38.0454 259.68 37.3404 259.429 36.4186 259.429H35.1185V265.083H36.4186ZM42.4137 259.429V261.833H45.0345V262.606H42.4137V265.083H45.3441V265.857H41.4748V258.655H45.3441V259.429H42.4137ZM50.3658 262.152C50.6272 262.194 50.8645 262.3 51.0778 262.472C51.2979 262.644 51.4699 262.858 51.5937 263.112C51.7244 263.367 51.7897 263.638 51.7897 263.927C51.7897 264.292 51.6969 264.622 51.5111 264.918C51.3254 265.207 51.0537 265.437 50.696 265.609C50.3452 265.774 49.929 265.857 49.4475 265.857H46.7648V258.665H49.3443C49.8327 258.665 50.2489 258.748 50.5928 258.913C50.9368 259.071 51.1947 259.288 51.3667 259.563C51.5387 259.838 51.6246 260.147 51.6246 260.491C51.6246 260.918 51.5077 261.272 51.2738 261.554C51.0468 261.829 50.7442 262.029 50.3658 262.152ZM47.7038 261.771H49.2824C49.7227 261.771 50.0632 261.668 50.3039 261.461C50.5447 261.255 50.6651 260.969 50.6651 260.605C50.6651 260.24 50.5447 259.955 50.3039 259.748C50.0632 259.542 49.7158 259.439 49.2618 259.439H47.7038V261.771ZM49.365 265.083C49.8327 265.083 50.1973 264.973 50.4587 264.753C50.7201 264.533 50.8508 264.226 50.8508 263.834C50.8508 263.435 50.7132 263.122 50.4381 262.895C50.1629 262.662 49.7949 262.545 49.334 262.545H47.7038V265.083H49.365ZM57.5192 258.665V259.429H55.5587V265.857H54.6198V259.429H52.649V258.665H57.5192Z" fill="#154C6B"/>
<rect x="1.15437" y="216.776" width="88.492" height="88.5426" rx="6.43834" stroke="#E5F4FD" stroke-width="0.880761"/>
<rect x="193.649" y="216.776" width="88.492" height="88.5426" rx="6.43834" fill="#F3FBFF"/>
<path d="M218.673 265.929C218.198 265.929 217.772 265.846 217.394 265.681C217.022 265.509 216.73 265.275 216.516 264.98C216.303 264.677 216.193 264.33 216.186 263.938H217.187C217.222 264.275 217.359 264.56 217.6 264.794C217.848 265.021 218.205 265.134 218.673 265.134C219.12 265.134 219.471 265.024 219.725 264.804C219.987 264.577 220.118 264.288 220.118 263.938C220.118 263.662 220.042 263.439 219.891 263.267C219.739 263.095 219.55 262.964 219.323 262.875C219.096 262.785 218.79 262.689 218.405 262.586C217.93 262.462 217.548 262.338 217.259 262.214C216.977 262.091 216.733 261.898 216.527 261.637C216.327 261.368 216.228 261.011 216.228 260.564C216.228 260.171 216.327 259.824 216.527 259.521C216.726 259.219 217.005 258.985 217.363 258.82C217.727 258.655 218.143 258.572 218.611 258.572C219.285 258.572 219.835 258.741 220.262 259.078C220.695 259.415 220.94 259.862 220.995 260.419H219.963C219.928 260.144 219.784 259.903 219.529 259.697C219.275 259.484 218.938 259.377 218.518 259.377C218.126 259.377 217.806 259.48 217.559 259.686C217.311 259.886 217.187 260.168 217.187 260.533C217.187 260.794 217.259 261.007 217.404 261.172C217.555 261.337 217.737 261.465 217.951 261.554C218.171 261.637 218.477 261.733 218.869 261.843C219.344 261.974 219.725 262.104 220.014 262.235C220.303 262.359 220.551 262.555 220.757 262.823C220.964 263.085 221.067 263.442 221.067 263.896C221.067 264.247 220.974 264.577 220.788 264.887C220.602 265.196 220.327 265.447 219.963 265.64C219.598 265.833 219.168 265.929 218.673 265.929ZM226.7 264.257H223.563L222.985 265.857H221.995L224.595 258.706H225.678L228.268 265.857H227.277L226.7 264.257ZM226.431 263.494L225.131 259.862L223.831 263.494H226.431ZM235.344 258.665L232.631 265.857H231.547L228.834 258.665H229.834L232.094 264.866L234.354 258.665H235.344ZM237.313 258.665V265.857H236.374V258.665H237.313ZM244.567 265.857H243.628L239.852 260.13V265.857H238.913V258.655H239.852L243.628 264.371V258.655H244.567V265.857ZM251.616 260.749C251.416 260.33 251.128 260.006 250.749 259.779C250.371 259.545 249.931 259.429 249.429 259.429C248.926 259.429 248.472 259.545 248.067 259.779C247.668 260.006 247.351 260.337 247.117 260.77C246.89 261.196 246.777 261.692 246.777 262.256C246.777 262.82 246.89 263.315 247.117 263.741C247.351 264.168 247.668 264.498 248.067 264.732C248.472 264.959 248.926 265.073 249.429 265.073C250.13 265.073 250.708 264.863 251.162 264.443C251.616 264.024 251.881 263.456 251.956 262.741H249.088V261.977H252.957V262.699C252.902 263.291 252.717 263.834 252.4 264.33C252.084 264.818 251.668 265.207 251.152 265.496C250.636 265.778 250.061 265.919 249.429 265.919C248.761 265.919 248.153 265.764 247.602 265.454C247.052 265.138 246.615 264.701 246.292 264.144C245.975 263.587 245.817 262.957 245.817 262.256C245.817 261.554 245.975 260.925 246.292 260.367C246.615 259.803 247.052 259.367 247.602 259.057C248.153 258.741 248.761 258.582 249.429 258.582C250.192 258.582 250.866 258.772 251.451 259.15C252.042 259.528 252.472 260.061 252.741 260.749H251.616ZM256.479 265.929C256.004 265.929 255.578 265.846 255.2 265.681C254.828 265.509 254.536 265.275 254.323 264.98C254.109 264.677 253.999 264.33 253.992 263.938H254.993C255.028 264.275 255.165 264.56 255.406 264.794C255.654 265.021 256.011 265.134 256.479 265.134C256.926 265.134 257.277 265.024 257.532 264.804C257.793 264.577 257.924 264.288 257.924 263.938C257.924 263.662 257.848 263.439 257.697 263.267C257.545 263.095 257.356 262.964 257.129 262.875C256.902 262.785 256.596 262.689 256.211 262.586C255.736 262.462 255.354 262.338 255.066 262.214C254.783 262.091 254.539 261.898 254.333 261.637C254.133 261.368 254.034 261.011 254.034 260.564C254.034 260.171 254.133 259.824 254.333 259.521C254.532 259.219 254.811 258.985 255.169 258.82C255.533 258.655 255.949 258.572 256.417 258.572C257.091 258.572 257.642 258.741 258.068 259.078C258.501 259.415 258.746 259.862 258.801 260.419H257.769C257.734 260.144 257.59 259.903 257.335 259.697C257.081 259.484 256.744 259.377 256.324 259.377C255.932 259.377 255.612 259.48 255.365 259.686C255.117 259.886 254.993 260.168 254.993 260.533C254.993 260.794 255.066 261.007 255.21 261.172C255.361 261.337 255.544 261.465 255.757 261.554C255.977 261.637 256.283 261.733 256.675 261.843C257.15 261.974 257.532 262.104 257.82 262.235C258.109 262.359 258.357 262.555 258.563 262.823C258.77 263.085 258.873 263.442 258.873 263.896C258.873 264.247 258.78 264.577 258.594 264.887C258.409 265.196 258.133 265.447 257.769 265.64C257.404 265.833 256.974 265.929 256.479 265.929Z" fill="#154C6B"/>
<rect x="193.649" y="216.776" width="88.492" height="88.5426" rx="6.43834" stroke="#E5F4FD" stroke-width="0.880761"/>
<rect x="386.144" y="216.776" width="88.492" height="88.5426" rx="6.43834" fill="#F3FBFF"/>
<path d="M415.398 262.152C415.66 262.194 415.897 262.3 416.11 262.472C416.33 262.644 416.502 262.858 416.626 263.112C416.757 263.367 416.822 263.638 416.822 263.927C416.822 264.292 416.729 264.622 416.544 264.918C416.358 265.207 416.086 265.437 415.729 265.609C415.378 265.774 414.962 265.857 414.48 265.857H411.797V258.665H414.377C414.865 258.665 415.281 258.748 415.625 258.913C415.969 259.071 416.227 259.288 416.399 259.563C416.571 259.838 416.657 260.147 416.657 260.491C416.657 260.918 416.54 261.272 416.306 261.554C416.079 261.829 415.777 262.029 415.398 262.152ZM412.736 261.771H414.315C414.755 261.771 415.096 261.668 415.336 261.461C415.577 261.255 415.698 260.969 415.698 260.605C415.698 260.24 415.577 259.955 415.336 259.748C415.096 259.542 414.748 259.439 414.294 259.439H412.736V261.771ZM414.398 265.083C414.865 265.083 415.23 264.973 415.491 264.753C415.753 264.533 415.883 264.226 415.883 263.834C415.883 263.435 415.746 263.122 415.471 262.895C415.195 262.662 414.827 262.545 414.367 262.545H412.736V265.083H414.398ZM419.044 258.665V263.215C419.044 263.855 419.198 264.33 419.508 264.639C419.824 264.949 420.261 265.103 420.818 265.103C421.369 265.103 421.798 264.949 422.108 264.639C422.424 264.33 422.583 263.855 422.583 263.215V258.665H423.522V263.205C423.522 263.803 423.401 264.309 423.16 264.722C422.92 265.128 422.593 265.43 422.18 265.63C421.774 265.829 421.317 265.929 420.808 265.929C420.299 265.929 419.838 265.829 419.425 265.63C419.019 265.43 418.696 265.128 418.455 264.722C418.222 264.309 418.105 263.803 418.105 263.205V258.665H419.044ZM427.327 258.665C428.111 258.665 428.789 258.813 429.36 259.109C429.937 259.398 430.378 259.814 430.68 260.357C430.99 260.901 431.145 261.54 431.145 262.276C431.145 263.012 430.99 263.652 430.68 264.195C430.378 264.732 429.937 265.145 429.36 265.434C428.789 265.716 428.111 265.857 427.327 265.857H425.088V258.665H427.327ZM427.327 265.083C428.256 265.083 428.964 264.839 429.453 264.35C429.941 263.855 430.185 263.164 430.185 262.276C430.185 261.382 429.937 260.684 429.442 260.182C428.954 259.68 428.249 259.429 427.327 259.429H426.027V265.083H427.327ZM437.831 260.749C437.632 260.33 437.343 260.006 436.964 259.779C436.586 259.545 436.146 259.429 435.644 259.429C435.142 259.429 434.688 259.545 434.282 259.779C433.883 260.006 433.566 260.337 433.332 260.77C433.105 261.196 432.992 261.692 432.992 262.256C432.992 262.82 433.105 263.315 433.332 263.741C433.566 264.168 433.883 264.498 434.282 264.732C434.688 264.959 435.142 265.073 435.644 265.073C436.345 265.073 436.923 264.863 437.377 264.443C437.831 264.024 438.096 263.456 438.172 262.741H435.303V261.977H439.172V262.699C439.117 263.291 438.932 263.834 438.615 264.33C438.299 264.818 437.883 265.207 437.367 265.496C436.851 265.778 436.277 265.919 435.644 265.919C434.976 265.919 434.368 265.764 433.817 265.454C433.267 265.138 432.83 264.701 432.507 264.144C432.191 263.587 432.032 262.957 432.032 262.256C432.032 261.554 432.191 260.925 432.507 260.367C432.83 259.803 433.267 259.367 433.817 259.057C434.368 258.741 434.976 258.582 435.644 258.582C436.407 258.582 437.081 258.772 437.666 259.15C438.258 259.528 438.688 260.061 438.956 260.749H437.831ZM441.353 259.429V261.833H443.974V262.606H441.353V265.083H444.283V265.857H440.414V258.655H444.283V259.429H441.353ZM450.13 258.665V259.429H448.17V265.857H447.231V259.429H445.26V258.665H450.13Z" fill="#154C6B"/>
<rect x="386.144" y="216.776" width="88.492" height="88.5426" rx="6.43834" stroke="#E5F4FD" stroke-width="0.880761"/>
<rect x="578.64" y="216.776" width="88.492" height="88.5426" rx="6.43834" fill="#F3FBFF"/>
<path d="M615.566 262.152C615.827 262.194 616.064 262.3 616.278 262.472C616.498 262.644 616.67 262.858 616.793 263.112C616.924 263.367 616.99 263.638 616.99 263.927C616.99 264.292 616.897 264.622 616.711 264.918C616.525 265.207 616.253 265.437 615.896 265.609C615.545 265.774 615.129 265.857 614.647 265.857H611.965V258.665H614.544C615.033 258.665 615.449 258.748 615.793 258.913C616.137 259.071 616.395 259.288 616.566 259.563C616.738 259.838 616.824 260.147 616.824 260.491C616.824 260.918 616.707 261.272 616.474 261.554C616.247 261.829 615.944 262.029 615.566 262.152ZM612.904 261.771H614.482C614.922 261.771 615.263 261.668 615.504 261.461C615.744 261.255 615.865 260.969 615.865 260.605C615.865 260.24 615.744 259.955 615.504 259.748C615.263 259.542 614.916 259.439 614.462 259.439H612.904V261.771ZM614.565 265.083C615.033 265.083 615.397 264.973 615.658 264.753C615.92 264.533 616.051 264.226 616.051 263.834C616.051 263.435 615.913 263.122 615.638 262.895C615.363 262.662 614.995 262.545 614.534 262.545H612.904V265.083H614.565ZM619.231 258.665V265.857H618.293V258.665H619.231ZM621.771 265.093H624.288V265.857H620.832V258.665H621.771V265.093ZM626.224 265.093H628.742V265.857H625.285V258.665H626.224V265.093ZM632.019 265.929C631.545 265.929 631.118 265.846 630.74 265.681C630.369 265.509 630.076 265.275 629.863 264.98C629.65 264.677 629.54 264.33 629.533 263.938H630.534C630.568 264.275 630.706 264.56 630.946 264.794C631.194 265.021 631.552 265.134 632.019 265.134C632.467 265.134 632.817 265.024 633.072 264.804C633.333 264.577 633.464 264.288 633.464 263.938C633.464 263.662 633.388 263.439 633.237 263.267C633.086 263.095 632.896 262.964 632.669 262.875C632.442 262.785 632.136 262.689 631.751 262.586C631.277 262.462 630.895 262.338 630.606 262.214C630.324 262.091 630.08 261.898 629.873 261.637C629.674 261.368 629.574 261.011 629.574 260.564C629.574 260.171 629.674 259.824 629.873 259.521C630.073 259.219 630.351 258.985 630.709 258.82C631.074 258.655 631.49 258.572 631.958 258.572C632.632 258.572 633.182 258.741 633.608 259.078C634.042 259.415 634.286 259.862 634.341 260.419H633.309C633.275 260.144 633.13 259.903 632.876 259.697C632.621 259.484 632.284 259.377 631.865 259.377C631.473 259.377 631.153 259.48 630.905 259.686C630.657 259.886 630.534 260.168 630.534 260.533C630.534 260.794 630.606 261.007 630.75 261.172C630.902 261.337 631.084 261.465 631.297 261.554C631.517 261.637 631.823 261.733 632.215 261.843C632.69 261.974 633.072 262.104 633.361 262.235C633.65 262.359 633.897 262.555 634.104 262.823C634.31 263.085 634.413 263.442 634.413 263.896C634.413 264.247 634.32 264.577 634.135 264.887C633.949 265.196 633.674 265.447 633.309 265.64C632.945 265.833 632.515 265.929 632.019 265.929Z" fill="#154C6B"/>
<rect x="578.64" y="216.776" width="88.492" height="88.5426" rx="6.43834" stroke="#E5F4FD" stroke-width="0.880761"/>
<rect x="867.382" y="216.776" width="88.492" height="88.5426" rx="6.43834" fill="#F3FBFF"/>
<path d="M905.644 264.257H902.507L901.929 265.857H900.939L903.539 258.706H904.622L907.212 265.857H906.222L905.644 264.257ZM905.375 263.494L904.075 259.862L902.775 263.494H905.375ZM910.584 258.665C911.369 258.665 912.046 258.813 912.617 259.109C913.195 259.398 913.635 259.814 913.938 260.357C914.247 260.901 914.402 261.54 914.402 262.276C914.402 263.012 914.247 263.652 913.938 264.195C913.635 264.732 913.195 265.145 912.617 265.434C912.046 265.716 911.369 265.857 910.584 265.857H908.345V258.665H910.584ZM910.584 265.083C911.513 265.083 912.221 264.839 912.71 264.35C913.198 263.855 913.442 263.164 913.442 262.276C913.442 261.382 913.195 260.684 912.7 260.182C912.211 259.68 911.506 259.429 910.584 259.429H909.284V265.083H910.584ZM917.88 258.665C918.664 258.665 919.341 258.813 919.912 259.109C920.49 259.398 920.93 259.814 921.233 260.357C921.542 260.901 921.697 261.54 921.697 262.276C921.697 263.012 921.542 263.652 921.233 264.195C920.93 264.732 920.49 265.145 919.912 265.434C919.341 265.716 918.664 265.857 917.88 265.857H915.641V258.665H917.88ZM917.88 265.083C918.808 265.083 919.517 264.839 920.005 264.35C920.493 263.855 920.738 263.164 920.738 262.276C920.738 261.382 920.49 260.684 919.995 260.182C919.506 259.68 918.801 259.429 917.88 259.429H916.579V265.083H917.88Z" fill="#154C6B"/>
<rect x="867.382" y="216.776" width="88.492" height="88.5426" rx="6.43834" stroke="#E5F4FD" stroke-width="0.880761"/>
<rect x="421.04" y="431.133" width="88.492" height="88.5426" rx="6.43834" fill="#F3FBFF"/>
<path d="M459.335 478.614H456.199L455.621 480.213H454.63L457.23 473.063H458.314L460.904 480.213H459.913L459.335 478.614ZM459.067 477.85L457.767 474.218L456.467 477.85H459.067ZM464.276 473.021C465.06 473.021 465.738 473.169 466.309 473.465C466.886 473.754 467.327 474.17 467.629 474.714C467.939 475.257 468.094 475.897 468.094 476.633C468.094 477.369 467.939 478.009 467.629 478.552C467.327 479.088 466.886 479.501 466.309 479.79C465.738 480.072 465.06 480.213 464.276 480.213H462.037V473.021H464.276ZM464.276 479.439C465.205 479.439 465.913 479.195 466.401 478.707C466.89 478.211 467.134 477.52 467.134 476.633C467.134 475.739 466.886 475.04 466.391 474.538C465.903 474.036 465.198 473.785 464.276 473.785H462.976V479.439H464.276ZM471.571 473.021C472.355 473.021 473.033 473.169 473.604 473.465C474.182 473.754 474.622 474.17 474.924 474.714C475.234 475.257 475.389 475.897 475.389 476.633C475.389 477.369 475.234 478.009 474.924 478.552C474.622 479.088 474.182 479.501 473.604 479.79C473.033 480.072 472.355 480.213 471.571 480.213H469.332V473.021H471.571ZM471.571 479.439C472.5 479.439 473.208 479.195 473.697 478.707C474.185 478.211 474.429 477.52 474.429 476.633C474.429 475.739 474.182 475.04 473.686 474.538C473.198 474.036 472.493 473.785 471.571 473.785H470.271V479.439H471.571Z" fill="#154C6B"/>
<rect x="421.04" y="431.133" width="88.492" height="88.5426" rx="6.43834" stroke="#E5F4FD" stroke-width="0.880761"/>
<rect x="200.935" y="595.125" width="88.492" height="88.5426" rx="6.43834" fill="#F3FBFF"/>
<path d="M239.23 642.606H236.093L235.516 644.206H234.525L237.125 637.055H238.209L240.799 644.206H239.808L239.23 642.606ZM238.962 641.843L237.662 638.211L236.362 641.843H238.962ZM244.171 637.014C244.955 637.014 245.633 637.162 246.203 637.458C246.781 637.746 247.221 638.163 247.524 638.706C247.834 639.249 247.988 639.889 247.988 640.625C247.988 641.361 247.834 642.001 247.524 642.544C247.221 643.081 246.781 643.494 246.203 643.783C245.633 644.065 244.955 644.206 244.171 644.206H241.932V637.014H244.171ZM244.171 643.432C245.099 643.432 245.808 643.188 246.296 642.699C246.785 642.204 247.029 641.513 247.029 640.625C247.029 639.731 246.781 639.033 246.286 638.531C245.798 638.028 245.093 637.777 244.171 637.777H242.871V643.432H244.171ZM251.466 637.014C252.25 637.014 252.928 637.162 253.499 637.458C254.076 637.746 254.517 638.163 254.819 638.706C255.129 639.249 255.284 639.889 255.284 640.625C255.284 641.361 255.129 642.001 254.819 642.544C254.517 643.081 254.076 643.494 253.499 643.783C252.928 644.065 252.25 644.206 251.466 644.206H249.227V637.014H251.466ZM251.466 643.432C252.395 643.432 253.103 643.188 253.592 642.699C254.08 642.204 254.324 641.513 254.324 640.625C254.324 639.731 254.076 639.033 253.581 638.531C253.093 638.028 252.388 637.777 251.466 637.777H250.166V643.432H251.466Z" fill="#154C6B"/>
<rect x="200.935" y="595.125" width="88.492" height="88.5426" rx="6.43834" stroke="#E5F4FD" stroke-width="0.880761"/>
<rect x="126.151" y="431.133" width="88.492" height="88.5426" rx="6.43834" fill="#F3FBFF"/>
<path d="M154.579 473.021C155.363 473.021 156.041 473.169 156.612 473.465C157.189 473.754 157.63 474.17 157.932 474.714C158.242 475.257 158.397 475.897 158.397 476.633C158.397 477.369 158.242 478.009 157.932 478.552C157.63 479.088 157.189 479.501 156.612 479.79C156.041 480.072 155.363 480.213 154.579 480.213H152.34V473.021H154.579ZM154.579 479.439C155.508 479.439 156.216 479.195 156.705 478.707C157.193 478.211 157.437 477.52 157.437 476.633C157.437 475.739 157.189 475.04 156.694 474.538C156.206 474.036 155.501 473.785 154.579 473.785H153.279V479.439H154.579ZM160.574 473.785V476.189H163.195V476.963H160.574V479.439H163.504V480.213H159.635V473.011H163.504V473.785H160.574ZM169.352 473.021V473.785H167.391V480.213H166.452V473.785H164.482V473.021H169.352ZM174.759 478.614H171.622L171.044 480.213H170.053L172.654 473.063H173.737L176.327 480.213H175.336L174.759 478.614ZM174.49 477.85L173.19 474.218L171.89 477.85H174.49ZM178.399 473.021V480.213H177.46V473.021H178.399ZM180.938 479.45H183.456V480.213H179.999V473.021H180.938V479.45ZM186.733 480.285C186.259 480.285 185.832 480.203 185.454 480.038C185.082 479.866 184.79 479.632 184.577 479.336C184.364 479.033 184.254 478.686 184.247 478.294H185.247C185.282 478.631 185.419 478.916 185.66 479.15C185.908 479.377 186.266 479.491 186.733 479.491C187.18 479.491 187.531 479.381 187.786 479.161C188.047 478.934 188.178 478.645 188.178 478.294C188.178 478.019 188.102 477.795 187.951 477.623C187.799 477.451 187.61 477.321 187.383 477.231C187.156 477.142 186.85 477.045 186.465 476.942C185.99 476.818 185.609 476.695 185.32 476.571C185.038 476.447 184.793 476.254 184.587 475.993C184.388 475.725 184.288 475.367 184.288 474.92C184.288 474.528 184.388 474.18 184.587 473.878C184.787 473.575 185.065 473.341 185.423 473.176C185.787 473.011 186.204 472.929 186.671 472.929C187.346 472.929 187.896 473.097 188.322 473.434C188.756 473.771 189 474.218 189.055 474.776H188.023C187.989 474.5 187.844 474.26 187.59 474.053C187.335 473.84 186.998 473.733 186.579 473.733C186.186 473.733 185.867 473.837 185.619 474.043C185.371 474.242 185.247 474.524 185.247 474.889C185.247 475.15 185.32 475.364 185.464 475.529C185.616 475.694 185.798 475.821 186.011 475.91C186.231 475.993 186.537 476.089 186.929 476.199C187.404 476.33 187.786 476.461 188.075 476.591C188.364 476.715 188.611 476.911 188.818 477.18C189.024 477.441 189.127 477.799 189.127 478.253C189.127 478.604 189.034 478.934 188.849 479.243C188.663 479.553 188.388 479.804 188.023 479.996C187.658 480.189 187.229 480.285 186.733 480.285Z" fill="#154C6B"/>
<rect x="126.151" y="431.133" width="88.492" height="88.5426" rx="6.43834" stroke="#E5F4FD" stroke-width="0.880761"/>
<rect x="622.295" y="853.017" width="88.492" height="88.5426" rx="6.43834" fill="#F3FBFF"/>
<path d="M646.868 900.498H643.731L643.154 902.097H642.163L644.763 894.947H645.847L648.436 902.097H647.446L646.868 900.498ZM646.6 899.735L645.3 896.103L644 899.735H646.6ZM651.809 894.906C652.593 894.906 653.27 895.054 653.841 895.349C654.419 895.638 654.859 896.054 655.162 896.598C655.472 897.141 655.626 897.781 655.626 898.517C655.626 899.253 655.472 899.893 655.162 900.436C654.859 900.973 654.419 901.385 653.841 901.674C653.27 901.956 652.593 902.097 651.809 902.097H649.57V894.906H651.809ZM651.809 901.324C652.737 901.324 653.446 901.079 653.934 900.591C654.423 900.096 654.667 899.404 654.667 898.517C654.667 897.623 654.419 896.925 653.924 896.422C653.435 895.92 652.73 895.669 651.809 895.669H650.509V901.324H651.809ZM659.104 894.906C659.888 894.906 660.566 895.054 661.136 895.349C661.714 895.638 662.155 896.054 662.457 896.598C662.767 897.141 662.922 897.781 662.922 898.517C662.922 899.253 662.767 899.893 662.457 900.436C662.155 900.973 661.714 901.385 661.136 901.674C660.566 901.956 659.888 902.097 659.104 902.097H656.865V894.906H659.104ZM659.104 901.324C660.032 901.324 660.741 901.079 661.229 900.591C661.718 900.096 661.962 899.404 661.962 898.517C661.962 897.623 661.714 896.925 661.219 896.422C660.731 895.92 660.026 895.669 659.104 895.669H657.804V901.324H659.104ZM669.15 894.906C669.934 894.906 670.612 895.054 671.183 895.349C671.76 895.638 672.201 896.054 672.503 896.598C672.813 897.141 672.968 897.781 672.968 898.517C672.968 899.253 672.813 899.893 672.503 900.436C672.201 900.973 671.76 901.385 671.183 901.674C670.612 901.956 669.934 902.097 669.15 902.097H666.911V894.906H669.15ZM669.15 901.324C670.078 901.324 670.787 901.079 671.275 900.591C671.764 900.096 672.008 899.404 672.008 898.517C672.008 897.623 671.76 896.925 671.265 896.422C670.777 895.92 670.072 895.669 669.15 895.669H667.85V901.324H669.15ZM675.145 895.669V898.073H677.766V898.847H675.145V901.324H678.075V902.097H674.206V894.895H678.075V895.669H675.145ZM683.097 898.393C683.358 898.434 683.596 898.541 683.809 898.713C684.029 898.885 684.201 899.098 684.325 899.353C684.456 899.607 684.521 899.879 684.521 900.168C684.521 900.533 684.428 900.863 684.242 901.158C684.057 901.447 683.785 901.678 683.427 901.85C683.076 902.015 682.66 902.097 682.179 902.097H679.496V894.906H682.076C682.564 894.906 682.98 894.988 683.324 895.153C683.668 895.312 683.926 895.528 684.098 895.803C684.27 896.079 684.356 896.388 684.356 896.732C684.356 897.158 684.239 897.513 684.005 897.795C683.778 898.07 683.475 898.269 683.097 898.393ZM680.435 898.011H682.014C682.454 898.011 682.794 897.908 683.035 897.702C683.276 897.496 683.396 897.21 683.396 896.846C683.396 896.481 683.276 896.195 683.035 895.989C682.794 895.783 682.447 895.68 681.993 895.68H680.435V898.011ZM682.096 901.324C682.564 901.324 682.929 901.213 683.19 900.993C683.451 900.773 683.582 900.467 683.582 900.075C683.582 899.676 683.444 899.363 683.169 899.136C682.894 898.902 682.526 898.785 682.065 898.785H680.435V901.324H682.096ZM690.25 894.906V895.669H688.29V902.097H687.351V895.669H685.38V894.906H690.25Z" fill="#154C6B"/>
<rect x="622.295" y="853.017" width="88.492" height="88.5426" rx="6.43834" stroke="#E5F4FD" stroke-width="0.880761"/>
<rect x="499.383" y="853.017" width="88.492" height="88.5426" rx="6.43834" fill="#F3FBFF"/>
<path d="M522.848 900.498H519.711L519.133 902.097H518.143L520.743 894.947H521.826L524.416 902.097H523.425L522.848 900.498ZM522.579 899.735L521.279 896.103L519.979 899.735H522.579ZM527.788 894.906C528.572 894.906 529.25 895.054 529.821 895.349C530.399 895.638 530.839 896.054 531.142 896.598C531.451 897.141 531.606 897.781 531.606 898.517C531.606 899.253 531.451 899.893 531.142 900.436C530.839 900.973 530.399 901.385 529.821 901.674C529.25 901.956 528.572 902.097 527.788 902.097H525.549V894.906H527.788ZM527.788 901.324C528.717 901.324 529.425 901.079 529.914 900.591C530.402 900.096 530.646 899.404 530.646 898.517C530.646 897.623 530.399 896.925 529.903 896.422C529.415 895.92 528.71 895.669 527.788 895.669H526.488V901.324H527.788ZM535.083 894.906C535.868 894.906 536.545 895.054 537.116 895.349C537.694 895.638 538.134 896.054 538.437 896.598C538.746 897.141 538.901 897.781 538.901 898.517C538.901 899.253 538.746 899.893 538.437 900.436C538.134 900.973 537.694 901.385 537.116 901.674C536.545 901.956 535.868 902.097 535.083 902.097H532.844V894.906H535.083ZM535.083 901.324C536.012 901.324 536.721 901.079 537.209 900.591C537.697 900.096 537.942 899.404 537.942 898.517C537.942 897.623 537.694 896.925 537.199 896.422C536.71 895.92 536.005 895.669 535.083 895.669H533.783V901.324H535.083ZM546.491 898.393C546.753 898.434 546.99 898.541 547.203 898.713C547.424 898.885 547.596 899.098 547.719 899.353C547.85 899.607 547.915 899.879 547.915 900.168C547.915 900.533 547.823 900.863 547.637 901.158C547.451 901.447 547.179 901.678 546.822 901.85C546.471 902.015 546.055 902.097 545.573 902.097H542.89V894.906H545.47C545.958 894.906 546.375 894.988 546.718 895.153C547.062 895.312 547.32 895.528 547.492 895.803C547.664 896.079 547.75 896.388 547.75 896.732C547.75 897.158 547.633 897.513 547.399 897.795C547.172 898.07 546.87 898.269 546.491 898.393ZM543.829 898.011H545.408C545.848 898.011 546.189 897.908 546.43 897.702C546.67 897.496 546.791 897.21 546.791 896.846C546.791 896.481 546.67 896.195 546.43 895.989C546.189 895.783 545.841 895.68 545.387 895.68H543.829V898.011ZM545.491 901.324C545.958 901.324 546.323 901.213 546.584 900.993C546.846 900.773 546.976 900.467 546.976 900.075C546.976 899.676 546.839 899.363 546.564 899.136C546.289 898.902 545.921 898.785 545.46 898.785H543.829V901.324H545.491ZM553.469 900.498H550.333L549.755 902.097H548.764L551.365 894.947H552.448L555.038 902.097H554.047L553.469 900.498ZM553.201 899.735L551.901 896.103L550.601 899.735H553.201ZM561.825 902.097H560.886L557.11 896.371V902.097H556.171V894.895H557.11L560.886 900.612V894.895H561.825V902.097ZM567.326 902.097L564.365 898.816V902.097H563.426V894.906H564.365V898.238L567.336 894.906H568.523L565.263 898.507L568.554 902.097H567.326Z" fill="#154C6B"/>
<rect x="499.383" y="853.017" width="88.492" height="88.5426" rx="6.43834" stroke="#E5F4FD" stroke-width="0.880761"/>
<rect x="377.026" y="853.017" width="88.492" height="88.5426" rx="6.43834" fill="#F3FBFF"/>
<path d="M413.962 891.042H410.826L410.248 892.642H409.257L411.857 885.491H412.941L415.531 892.642H414.54L413.962 891.042ZM413.694 890.279L412.394 886.647L411.094 890.279H413.694ZM418.903 885.45C419.687 885.45 420.365 885.598 420.936 885.894C421.513 886.182 421.954 886.599 422.256 887.142C422.566 887.685 422.721 888.325 422.721 889.061C422.721 889.797 422.566 890.437 422.256 890.98C421.954 891.517 421.513 891.93 420.936 892.219C420.365 892.501 419.687 892.642 418.903 892.642H416.664V885.45H418.903ZM418.903 891.868C419.832 891.868 420.54 891.624 421.028 891.135C421.517 890.64 421.761 889.949 421.761 889.061C421.761 888.167 421.513 887.469 421.018 886.967C420.53 886.465 419.825 886.213 418.903 886.213H417.603V891.868H418.903ZM426.198 885.45C426.982 885.45 427.66 885.598 428.231 885.894C428.809 886.182 429.249 886.599 429.552 887.142C429.861 887.685 430.016 888.325 430.016 889.061C430.016 889.797 429.861 890.437 429.552 890.98C429.249 891.517 428.809 891.93 428.231 892.219C427.66 892.501 426.982 892.642 426.198 892.642H423.959V885.45H426.198ZM426.198 891.868C427.127 891.868 427.835 891.624 428.324 891.135C428.812 890.64 429.056 889.949 429.056 889.061C429.056 888.167 428.809 887.469 428.313 886.967C427.825 886.465 427.12 886.213 426.198 886.213H424.898V891.868H426.198ZM391.018 900.45V901.213H389.057V907.642H388.118V901.213H386.148V900.45H391.018ZM395.96 907.642L394.248 904.701H393.113V907.642H392.174V900.45H394.495C395.039 900.45 395.496 900.543 395.867 900.728C396.246 900.914 396.528 901.165 396.714 901.482C396.899 901.798 396.992 902.159 396.992 902.565C396.992 903.06 396.848 903.497 396.559 903.876C396.277 904.254 395.85 904.505 395.279 904.629L397.085 907.642H395.96ZM393.113 903.948H394.495C395.004 903.948 395.386 903.824 395.64 903.576C395.895 903.322 396.022 902.985 396.022 902.565C396.022 902.139 395.895 901.808 395.64 901.575C395.393 901.341 395.011 901.224 394.495 901.224H393.113V903.948ZM402.702 906.042H399.565L398.988 907.642H397.997L400.597 900.491H401.681L404.271 907.642H403.28L402.702 906.042ZM402.434 905.279L401.134 901.647L399.834 905.279H402.434ZM411.058 907.642H410.119L406.343 901.915V907.642H405.404V900.44H406.343L410.119 906.156V900.44H411.058V907.642ZM414.939 907.714C414.464 907.714 414.038 907.631 413.659 907.466C413.288 907.294 412.996 907.06 412.782 906.765C412.569 906.462 412.459 906.115 412.452 905.722H413.453C413.488 906.059 413.625 906.345 413.866 906.579C414.113 906.806 414.471 906.919 414.939 906.919C415.386 906.919 415.737 906.809 415.991 906.589C416.253 906.362 416.383 906.073 416.383 905.722C416.383 905.447 416.308 905.224 416.156 905.052C416.005 904.88 415.816 904.749 415.589 904.66C415.362 904.57 415.056 904.474 414.671 904.371C414.196 904.247 413.814 904.123 413.525 903.999C413.243 903.876 412.999 903.683 412.793 903.422C412.593 903.153 412.494 902.796 412.494 902.348C412.494 901.956 412.593 901.609 412.793 901.306C412.992 901.004 413.271 900.77 413.629 900.605C413.993 900.44 414.409 900.357 414.877 900.357C415.551 900.357 416.101 900.526 416.528 900.863C416.961 901.2 417.205 901.647 417.261 902.204H416.229C416.194 901.929 416.05 901.688 415.795 901.482C415.541 901.268 415.204 901.162 414.784 901.162C414.392 901.162 414.072 901.265 413.825 901.471C413.577 901.671 413.453 901.953 413.453 902.317C413.453 902.579 413.525 902.792 413.67 902.957C413.821 903.122 414.003 903.25 414.217 903.339C414.437 903.422 414.743 903.518 415.135 903.628C415.61 903.759 415.991 903.889 416.28 904.02C416.569 904.144 416.817 904.34 417.023 904.608C417.23 904.869 417.333 905.227 417.333 905.681C417.333 906.032 417.24 906.362 417.054 906.672C416.868 906.981 416.593 907.232 416.229 907.425C415.864 907.618 415.434 907.714 414.939 907.714ZM422.966 906.042H419.829L419.251 907.642H418.26L420.861 900.491H421.944L424.534 907.642H423.543L422.966 906.042ZM422.697 905.279L421.397 901.647L420.097 905.279H422.697ZM425.316 904.041C425.316 903.339 425.474 902.71 425.791 902.152C426.107 901.588 426.537 901.148 427.081 900.832C427.631 900.515 428.24 900.357 428.907 900.357C429.691 900.357 430.376 900.546 430.96 900.925C431.545 901.303 431.971 901.839 432.24 902.534H431.115C430.916 902.101 430.627 901.767 430.248 901.533C429.877 901.299 429.43 901.182 428.907 901.182C428.405 901.182 427.954 901.299 427.555 901.533C427.156 901.767 426.843 902.101 426.616 902.534C426.389 902.961 426.276 903.463 426.276 904.041C426.276 904.612 426.389 905.114 426.616 905.547C426.843 905.974 427.156 906.304 427.555 906.538C427.954 906.771 428.405 906.888 428.907 906.888C429.43 906.888 429.877 906.775 430.248 906.548C430.627 906.314 430.916 905.98 431.115 905.547H432.24C431.971 906.235 431.545 906.768 430.96 907.146C430.376 907.518 429.691 907.704 428.907 907.704C428.24 907.704 427.631 907.549 427.081 907.239C426.537 906.923 426.107 906.486 425.791 905.929C425.474 905.372 425.316 904.742 425.316 904.041ZM438.064 900.45V901.213H436.103V907.642H435.164V901.213H433.194V900.45H438.064ZM440.159 900.45V907.642H439.22V900.45H440.159ZM445.019 907.714C444.352 907.714 443.743 907.559 443.193 907.25C442.643 906.933 442.206 906.496 441.883 905.939C441.566 905.375 441.408 904.742 441.408 904.041C441.408 903.339 441.566 902.71 441.883 902.152C442.206 901.588 442.643 901.152 443.193 900.842C443.743 900.526 444.352 900.367 445.019 900.367C445.693 900.367 446.306 900.526 446.856 900.842C447.406 901.152 447.84 901.585 448.156 902.142C448.472 902.699 448.631 903.332 448.631 904.041C448.631 904.749 448.472 905.382 448.156 905.939C447.84 906.496 447.406 906.933 446.856 907.25C446.306 907.559 445.693 907.714 445.019 907.714ZM445.019 906.899C445.522 906.899 445.972 906.782 446.371 906.548C446.777 906.314 447.093 905.98 447.32 905.547C447.554 905.114 447.671 904.612 447.671 904.041C447.671 903.463 447.554 902.961 447.32 902.534C447.093 902.101 446.78 901.767 446.381 901.533C445.982 901.299 445.528 901.182 445.019 901.182C444.51 901.182 444.056 901.299 443.657 901.533C443.258 901.767 442.942 902.101 442.708 902.534C442.481 902.961 442.368 903.463 442.368 904.041C442.368 904.612 442.481 905.114 442.708 905.547C442.942 905.98 443.258 906.314 443.657 906.548C444.063 906.782 444.517 906.899 445.019 906.899ZM455.525 907.642H454.586L450.809 901.915V907.642H449.87V900.44H450.809L454.586 906.156V900.44H455.525V907.642Z" fill="#154C6B"/>
<rect x="377.026" y="853.017" width="88.492" height="88.5426" rx="6.43834" stroke="#E5F4FD" stroke-width="0.880761"/>
<rect x="1111.78" y="853.017" width="88.492" height="88.5426" rx="6.43834" fill="#F3FBFF"/>
<path d="M1127 900.498H1123.87L1123.29 902.097H1122.3L1124.9 894.947H1125.98L1128.57 902.097H1127.58L1127 900.498ZM1126.73 899.735L1125.43 896.103L1124.13 899.735H1126.73ZM1131.94 894.906C1132.73 894.906 1133.4 895.054 1133.98 895.349C1134.55 895.638 1134.99 896.054 1135.3 896.598C1135.61 897.141 1135.76 897.781 1135.76 898.517C1135.76 899.253 1135.61 899.893 1135.3 900.436C1134.99 900.973 1134.55 901.385 1133.98 901.674C1133.4 901.956 1132.73 902.097 1131.94 902.097H1129.7V894.906H1131.94ZM1131.94 901.324C1132.87 901.324 1133.58 901.079 1134.07 900.591C1134.56 900.096 1134.8 899.404 1134.8 898.517C1134.8 897.623 1134.55 896.925 1134.06 896.422C1133.57 895.92 1132.86 895.669 1131.94 895.669H1130.64V901.324H1131.94ZM1139.24 894.906C1140.02 894.906 1140.7 895.054 1141.27 895.349C1141.85 895.638 1142.29 896.054 1142.59 896.598C1142.9 897.141 1143.06 897.781 1143.06 898.517C1143.06 899.253 1142.9 899.893 1142.59 900.436C1142.29 900.973 1141.85 901.385 1141.27 901.674C1140.7 901.956 1140.02 902.097 1139.24 902.097H1137V894.906H1139.24ZM1139.24 901.324C1140.17 901.324 1140.88 901.079 1141.36 900.591C1141.85 900.096 1142.1 899.404 1142.1 898.517C1142.1 897.623 1141.85 896.925 1141.35 896.422C1140.86 895.92 1140.16 895.669 1139.24 895.669H1137.94V901.324H1139.24ZM1149.33 902.17C1148.85 902.17 1148.42 902.087 1148.05 901.922C1147.67 901.75 1147.38 901.516 1147.17 901.22C1146.96 900.918 1146.85 900.57 1146.84 900.178H1147.84C1147.87 900.515 1148.01 900.801 1148.25 901.035C1148.5 901.262 1148.86 901.375 1149.33 901.375C1149.77 901.375 1150.12 901.265 1150.38 901.045C1150.64 900.818 1150.77 900.529 1150.77 900.178C1150.77 899.903 1150.69 899.68 1150.54 899.508C1150.39 899.336 1150.2 899.205 1149.98 899.115C1149.75 899.026 1149.44 898.93 1149.06 898.827C1148.58 898.703 1148.2 898.579 1147.91 898.455C1147.63 898.331 1147.39 898.139 1147.18 897.877C1146.98 897.609 1146.88 897.251 1146.88 896.804C1146.88 896.412 1146.98 896.065 1147.18 895.762C1147.38 895.459 1147.66 895.226 1148.01 895.06C1148.38 894.895 1148.8 894.813 1149.26 894.813C1149.94 894.813 1150.49 894.981 1150.91 895.318C1151.35 895.655 1151.59 896.103 1151.65 896.66H1150.62C1150.58 896.385 1150.44 896.144 1150.18 895.938C1149.93 895.724 1149.59 895.618 1149.17 895.618C1148.78 895.618 1148.46 895.721 1148.21 895.927C1147.96 896.127 1147.84 896.409 1147.84 896.773C1147.84 897.035 1147.91 897.248 1148.06 897.413C1148.21 897.578 1148.39 897.705 1148.6 897.795C1148.82 897.877 1149.13 897.974 1149.52 898.084C1150 898.214 1150.38 898.345 1150.67 898.476C1150.96 898.6 1151.2 898.796 1151.41 899.064C1151.62 899.325 1151.72 899.683 1151.72 900.137C1151.72 900.488 1151.63 900.818 1151.44 901.128C1151.25 901.437 1150.98 901.688 1150.62 901.881C1150.25 902.073 1149.82 902.17 1149.33 902.17ZM1157.35 900.498H1154.22L1153.64 902.097H1152.65L1155.25 894.947H1156.33L1158.92 902.097H1157.93L1157.35 900.498ZM1157.08 899.735L1155.78 896.103L1154.48 899.735H1157.08ZM1166 894.906L1163.28 902.097H1162.2L1159.49 894.906H1160.49L1162.75 901.107L1165.01 894.906H1166ZM1167.97 894.906V902.097H1167.03V894.906H1167.97ZM1175.22 902.097H1174.28L1170.5 896.371V902.097H1169.57V894.895H1170.5L1174.28 900.612V894.895H1175.22V902.097ZM1182.27 896.99C1182.07 896.57 1181.78 896.247 1181.4 896.02C1181.02 895.786 1180.58 895.669 1180.08 895.669C1179.58 895.669 1179.12 895.786 1178.72 896.02C1178.32 896.247 1178 896.577 1177.77 897.011C1177.54 897.437 1177.43 897.932 1177.43 898.496C1177.43 899.06 1177.54 899.556 1177.77 899.982C1178 900.409 1178.32 900.739 1178.72 900.973C1179.12 901.2 1179.58 901.313 1180.08 901.313C1180.78 901.313 1181.36 901.103 1181.81 900.684C1182.27 900.264 1182.53 899.697 1182.61 898.981H1179.74V898.218H1183.61V898.94C1183.55 899.532 1183.37 900.075 1183.05 900.57C1182.74 901.059 1182.32 901.447 1181.8 901.736C1181.29 902.018 1180.71 902.159 1180.08 902.159C1179.41 902.159 1178.8 902.005 1178.25 901.695C1177.7 901.379 1177.27 900.942 1176.94 900.385C1176.63 899.827 1176.47 899.198 1176.47 898.496C1176.47 897.795 1176.63 897.165 1176.94 896.608C1177.27 896.044 1177.7 895.607 1178.25 895.298C1178.8 894.981 1179.41 894.823 1180.08 894.823C1180.84 894.823 1181.52 895.012 1182.1 895.391C1182.69 895.769 1183.12 896.302 1183.39 896.99H1182.27ZM1187.13 902.17C1186.66 902.17 1186.23 902.087 1185.85 901.922C1185.48 901.75 1185.19 901.516 1184.97 901.22C1184.76 900.918 1184.65 900.57 1184.64 900.178H1185.65C1185.68 900.515 1185.82 900.801 1186.06 901.035C1186.31 901.262 1186.66 901.375 1187.13 901.375C1187.58 901.375 1187.93 901.265 1188.18 901.045C1188.45 900.818 1188.58 900.529 1188.58 900.178C1188.58 899.903 1188.5 899.68 1188.35 899.508C1188.2 899.336 1188.01 899.205 1187.78 899.115C1187.55 899.026 1187.25 898.93 1186.86 898.827C1186.39 898.703 1186.01 898.579 1185.72 898.455C1185.44 898.331 1185.19 898.139 1184.99 897.877C1184.79 897.609 1184.69 897.251 1184.69 896.804C1184.69 896.412 1184.79 896.065 1184.99 895.762C1185.18 895.459 1185.46 895.226 1185.82 895.06C1186.19 894.895 1186.6 894.813 1187.07 894.813C1187.74 894.813 1188.29 894.981 1188.72 895.318C1189.15 895.655 1189.4 896.103 1189.45 896.66H1188.42C1188.39 896.385 1188.24 896.144 1187.99 895.938C1187.73 895.724 1187.4 895.618 1186.98 895.618C1186.58 895.618 1186.26 895.721 1186.02 895.927C1185.77 896.127 1185.65 896.409 1185.65 896.773C1185.65 897.035 1185.72 897.248 1185.86 897.413C1186.01 897.578 1186.2 897.705 1186.41 897.795C1186.63 897.877 1186.94 897.974 1187.33 898.084C1187.8 898.214 1188.18 898.345 1188.47 898.476C1188.76 898.6 1189.01 898.796 1189.22 899.064C1189.42 899.325 1189.53 899.683 1189.53 900.137C1189.53 900.488 1189.43 900.818 1189.25 901.128C1189.06 901.437 1188.79 901.688 1188.42 901.881C1188.06 902.073 1187.63 902.17 1187.13 902.17Z" fill="#154C6B"/>
<rect x="1111.78" y="853.017" width="88.492" height="88.5426" rx="6.43834" stroke="#E5F4FD" stroke-width="0.880761"/>
<rect x="744.666" y="853.017" width="88.492" height="88.5426" rx="6.43834" fill="#F3FBFF"/>
<path d="M762.168 900.498H759.031L758.454 902.097H757.463L760.063 894.947H761.147L763.736 902.097H762.746L762.168 900.498ZM761.9 899.735L760.6 896.103L759.3 899.735H761.9ZM767.109 894.906C767.893 894.906 768.57 895.054 769.141 895.349C769.719 895.638 770.159 896.054 770.462 896.598C770.772 897.141 770.926 897.781 770.926 898.517C770.926 899.253 770.772 899.893 770.462 900.436C770.159 900.973 769.719 901.385 769.141 901.674C768.57 901.956 767.893 902.097 767.109 902.097H764.87V894.906H767.109ZM767.109 901.324C768.037 901.324 768.746 901.079 769.234 900.591C769.723 900.096 769.967 899.404 769.967 898.517C769.967 897.623 769.719 896.925 769.224 896.422C768.735 895.92 768.03 895.669 767.109 895.669H765.809V901.324H767.109ZM774.404 894.906C775.188 894.906 775.866 895.054 776.437 895.349C777.014 895.638 777.455 896.054 777.757 896.598C778.067 897.141 778.222 897.781 778.222 898.517C778.222 899.253 778.067 899.893 777.757 900.436C777.455 900.973 777.014 901.385 776.437 901.674C775.866 901.956 775.188 902.097 774.404 902.097H772.165V894.906H774.404ZM774.404 901.324C775.332 901.324 776.041 901.079 776.529 900.591C777.018 900.096 777.262 899.404 777.262 898.517C777.262 897.623 777.014 896.925 776.519 896.422C776.031 895.92 775.326 895.669 774.404 895.669H773.104V901.324H774.404ZM785.812 898.393C786.073 898.434 786.311 898.541 786.524 898.713C786.744 898.885 786.916 899.098 787.04 899.353C787.17 899.607 787.236 899.879 787.236 900.168C787.236 900.533 787.143 900.863 786.957 901.158C786.771 901.447 786.5 901.678 786.142 901.85C785.791 902.015 785.375 902.097 784.894 902.097H782.211V894.906H784.79C785.279 894.906 785.695 894.988 786.039 895.153C786.383 895.312 786.641 895.528 786.813 895.803C786.985 896.079 787.071 896.388 787.071 896.732C787.071 897.158 786.954 897.513 786.72 897.795C786.493 898.07 786.19 898.269 785.812 898.393ZM783.15 898.011H784.728C785.169 898.011 785.509 897.908 785.75 897.702C785.991 897.496 786.111 897.21 786.111 896.846C786.111 896.481 785.991 896.195 785.75 895.989C785.509 895.783 785.162 895.68 784.708 895.68H783.15V898.011ZM784.811 901.324C785.279 901.324 785.643 901.213 785.905 900.993C786.166 900.773 786.297 900.467 786.297 900.075C786.297 899.676 786.159 899.363 785.884 899.136C785.609 898.902 785.241 898.785 784.78 898.785H783.15V901.324H784.811ZM789.457 894.906V899.456C789.457 900.096 789.612 900.57 789.921 900.88C790.238 901.189 790.675 901.344 791.232 901.344C791.782 901.344 792.212 901.189 792.522 900.88C792.838 900.57 792.996 900.096 792.996 899.456V894.906H793.935V899.446C793.935 900.044 793.815 900.55 793.574 900.962C793.333 901.368 793.006 901.671 792.594 901.87C792.188 902.07 791.73 902.17 791.221 902.17C790.712 902.17 790.252 902.07 789.839 901.87C789.433 901.671 789.11 901.368 788.869 900.962C788.635 900.55 788.518 900.044 788.518 899.446V894.906H789.457ZM797.74 894.906C798.525 894.906 799.202 895.054 799.773 895.349C800.351 895.638 800.791 896.054 801.094 896.598C801.403 897.141 801.558 897.781 801.558 898.517C801.558 899.253 801.403 899.893 801.094 900.436C800.791 900.973 800.351 901.385 799.773 901.674C799.202 901.956 798.525 902.097 797.74 902.097H795.501V894.906H797.74ZM797.74 901.324C798.669 901.324 799.378 901.079 799.866 900.591C800.354 900.096 800.599 899.404 800.599 898.517C800.599 897.623 800.351 896.925 799.856 896.422C799.367 895.92 798.662 895.669 797.74 895.669H796.44V901.324H797.74ZM808.245 896.99C808.045 896.57 807.756 896.247 807.378 896.02C807 895.786 806.559 895.669 806.057 895.669C805.555 895.669 805.101 895.786 804.695 896.02C804.296 896.247 803.98 896.577 803.746 897.011C803.519 897.437 803.405 897.932 803.405 898.496C803.405 899.06 803.519 899.556 803.746 899.982C803.98 900.409 804.296 900.739 804.695 900.973C805.101 901.2 805.555 901.313 806.057 901.313C806.759 901.313 807.337 901.103 807.791 900.684C808.245 900.264 808.509 899.697 808.585 898.981H805.717V898.218H809.586V898.94C809.531 899.532 809.345 900.075 809.029 900.57C808.712 901.059 808.296 901.447 807.78 901.736C807.264 902.018 806.69 902.159 806.057 902.159C805.39 902.159 804.781 902.005 804.231 901.695C803.681 901.379 803.244 900.942 802.92 900.385C802.604 899.827 802.446 899.198 802.446 898.496C802.446 897.795 802.604 897.165 802.92 896.608C803.244 896.044 803.681 895.607 804.231 895.298C804.781 894.981 805.39 894.823 806.057 894.823C806.821 894.823 807.495 895.012 808.08 895.391C808.671 895.769 809.101 896.302 809.369 896.99H808.245ZM811.766 895.669V898.073H814.387V898.847H811.766V901.324H814.697V902.097H810.827V894.895H814.697V895.669H811.766ZM820.544 894.906V895.669H818.583V902.097H817.645V895.669H815.674V894.906H820.544Z" fill="#154C6B"/>
<rect x="744.666" y="853.017" width="88.492" height="88.5426" rx="6.43834" stroke="#E5F4FD" stroke-width="0.880761"/>
<rect x="867.038" y="853.017" width="88.492" height="88.5426" rx="6.43834" fill="#F3FBFF"/>
<path d="M892.353 900.498H889.217L888.639 902.097H887.648L890.248 894.947H891.332L893.922 902.097H892.931L892.353 900.498ZM892.085 899.735L890.785 896.103L889.485 899.735H892.085ZM897.294 894.906C898.078 894.906 898.756 895.054 899.327 895.349C899.904 895.638 900.345 896.054 900.647 896.598C900.957 897.141 901.112 897.781 901.112 898.517C901.112 899.253 900.957 899.893 900.647 900.436C900.345 900.973 899.904 901.385 899.327 901.674C898.756 901.956 898.078 902.097 897.294 902.097H895.055V894.906H897.294ZM897.294 901.324C898.223 901.324 898.931 901.079 899.419 900.591C899.908 900.096 900.152 899.404 900.152 898.517C900.152 897.623 899.904 896.925 899.409 896.422C898.921 895.92 898.216 895.669 897.294 895.669H895.994V901.324H897.294ZM904.589 894.906C905.373 894.906 906.051 895.054 906.622 895.349C907.2 895.638 907.64 896.054 907.942 896.598C908.252 897.141 908.407 897.781 908.407 898.517C908.407 899.253 908.252 899.893 907.942 900.436C907.64 900.973 907.2 901.385 906.622 901.674C906.051 901.956 905.373 902.097 904.589 902.097H902.35V894.906H904.589ZM904.589 901.324C905.518 901.324 906.226 901.079 906.715 900.591C907.203 900.096 907.447 899.404 907.447 898.517C907.447 897.623 907.2 896.925 906.704 896.422C906.216 895.92 905.511 895.669 904.589 895.669H903.289V901.324H904.589ZM915.997 898.393C916.259 898.434 916.496 898.541 916.709 898.713C916.929 898.885 917.101 899.098 917.225 899.353C917.356 899.607 917.421 899.879 917.421 900.168C917.421 900.533 917.328 900.863 917.142 901.158C916.957 901.447 916.685 901.678 916.327 901.85C915.976 902.015 915.56 902.097 915.079 902.097H912.396V894.906H914.976C915.464 894.906 915.88 894.988 916.224 895.153C916.568 895.312 916.826 895.528 916.998 895.803C917.17 896.079 917.256 896.388 917.256 896.732C917.256 897.158 917.139 897.513 916.905 897.795C916.678 898.07 916.375 898.269 915.997 898.393ZM913.335 898.011H914.914C915.354 898.011 915.694 897.908 915.935 897.702C916.176 897.496 916.296 897.21 916.296 896.846C916.296 896.481 916.176 896.195 915.935 895.989C915.694 895.783 915.347 895.68 914.893 895.68H913.335V898.011ZM914.996 901.324C915.464 901.324 915.829 901.213 916.09 900.993C916.351 900.773 916.482 900.467 916.482 900.075C916.482 899.676 916.344 899.363 916.069 899.136C915.794 898.902 915.426 898.785 914.965 898.785H913.335V901.324H914.996ZM919.663 894.906V902.097H918.724V894.906H919.663ZM922.202 901.334H924.72V902.097H921.263V894.906H922.202V901.334ZM926.656 901.334H929.173V902.097H925.717V894.906H926.656V901.334ZM932.451 902.17C931.976 902.17 931.55 902.087 931.171 901.922C930.8 901.75 930.508 901.516 930.294 901.22C930.081 900.918 929.971 900.57 929.964 900.178H930.965C931 900.515 931.137 900.801 931.378 901.035C931.625 901.262 931.983 901.375 932.451 901.375C932.898 901.375 933.249 901.265 933.503 901.045C933.765 900.818 933.895 900.529 933.895 900.178C933.895 899.903 933.82 899.68 933.668 899.508C933.517 899.336 933.328 899.205 933.101 899.115C932.874 899.026 932.568 898.93 932.183 898.827C931.708 898.703 931.326 898.579 931.037 898.455C930.755 898.331 930.511 898.139 930.305 897.877C930.105 897.609 930.006 897.251 930.006 896.804C930.006 896.412 930.105 896.065 930.305 895.762C930.504 895.459 930.783 895.226 931.141 895.06C931.505 894.895 931.921 894.813 932.389 894.813C933.063 894.813 933.613 894.981 934.04 895.318C934.473 895.655 934.717 896.103 934.772 896.66H933.741C933.706 896.385 933.562 896.144 933.307 895.938C933.053 895.724 932.716 895.618 932.296 895.618C931.904 895.618 931.584 895.721 931.337 895.927C931.089 896.127 930.965 896.409 930.965 896.773C930.965 897.035 931.037 897.248 931.182 897.413C931.333 897.578 931.515 897.705 931.729 897.795C931.949 897.877 932.255 897.974 932.647 898.084C933.122 898.214 933.503 898.345 933.792 898.476C934.081 898.6 934.329 898.796 934.535 899.064C934.742 899.325 934.845 899.683 934.845 900.137C934.845 900.488 934.752 900.818 934.566 901.128C934.38 901.437 934.105 901.688 933.741 901.881C933.376 902.073 932.946 902.17 932.451 902.17Z" fill="#154C6B"/>
<rect x="867.038" y="853.017" width="88.492" height="88.5426" rx="6.43834" stroke="#E5F4FD" stroke-width="0.880761"/>
<rect x="989.41" y="853.017" width="88.492" height="88.5426" rx="6.43834" fill="#F3FBFF"/>
<path d="M1006.34 900.498H1003.21L1002.63 902.097H1001.64L1004.24 894.947H1005.32L1007.91 902.097H1006.92L1006.34 900.498ZM1006.07 899.735L1004.77 896.103L1003.47 899.735H1006.07ZM1011.28 894.906C1012.07 894.906 1012.74 895.054 1013.32 895.349C1013.89 895.638 1014.33 896.054 1014.64 896.598C1014.95 897.141 1015.1 897.781 1015.1 898.517C1015.1 899.253 1014.95 899.893 1014.64 900.436C1014.33 900.973 1013.89 901.385 1013.32 901.674C1012.74 901.956 1012.07 902.097 1011.28 902.097H1009.04V894.906H1011.28ZM1011.28 901.324C1012.21 901.324 1012.92 901.079 1013.41 900.591C1013.9 900.096 1014.14 899.404 1014.14 898.517C1014.14 897.623 1013.89 896.925 1013.4 896.422C1012.91 895.92 1012.2 895.669 1011.28 895.669H1009.98V901.324H1011.28ZM1018.58 894.906C1019.36 894.906 1020.04 895.054 1020.61 895.349C1021.19 895.638 1021.63 896.054 1021.93 896.598C1022.24 897.141 1022.4 897.781 1022.4 898.517C1022.4 899.253 1022.24 899.893 1021.93 900.436C1021.63 900.973 1021.19 901.385 1020.61 901.674C1020.04 901.956 1019.36 902.097 1018.58 902.097H1016.34V894.906H1018.58ZM1018.58 901.324C1019.51 901.324 1020.21 901.079 1020.7 900.591C1021.19 900.096 1021.44 899.404 1021.44 898.517C1021.44 897.623 1021.19 896.925 1020.69 896.422C1020.2 895.92 1019.5 895.669 1018.58 895.669H1017.28V901.324H1018.58ZM1027.32 894.906V902.097H1026.38V894.906H1027.32ZM1034.58 902.097H1033.64L1029.86 896.371V902.097H1028.92V894.895H1029.86L1033.64 900.612V894.895H1034.58V902.097ZM1035.83 898.496C1035.83 897.795 1035.99 897.165 1036.3 896.608C1036.62 896.044 1037.05 895.604 1037.59 895.287C1038.14 894.971 1038.75 894.813 1039.42 894.813C1040.2 894.813 1040.89 895.002 1041.47 895.38C1042.06 895.759 1042.48 896.295 1042.75 896.99H1041.63C1041.43 896.557 1041.14 896.223 1040.76 895.989C1040.39 895.755 1039.94 895.638 1039.42 895.638C1038.92 895.638 1038.47 895.755 1038.07 895.989C1037.67 896.223 1037.36 896.557 1037.13 896.99C1036.9 897.416 1036.79 897.919 1036.79 898.496C1036.79 899.067 1036.9 899.569 1037.13 900.003C1037.36 900.429 1037.67 900.76 1038.07 900.993C1038.47 901.227 1038.92 901.344 1039.42 901.344C1039.94 901.344 1040.39 901.231 1040.76 901.004C1041.14 900.77 1041.43 900.436 1041.63 900.003H1042.75C1042.48 900.691 1042.06 901.224 1041.47 901.602C1040.89 901.974 1040.2 902.159 1039.42 902.159C1038.75 902.159 1038.14 902.005 1037.59 901.695C1037.05 901.379 1036.62 900.942 1036.3 900.385C1035.99 899.827 1035.83 899.198 1035.83 898.496ZM1047.41 902.17C1046.74 902.17 1046.13 902.015 1045.58 901.705C1045.03 901.389 1044.6 900.952 1044.27 900.395C1043.96 899.831 1043.8 899.198 1043.8 898.496C1043.8 897.795 1043.96 897.165 1044.27 896.608C1044.6 896.044 1045.03 895.607 1045.58 895.298C1046.13 894.981 1046.74 894.823 1047.41 894.823C1048.08 894.823 1048.7 894.981 1049.25 895.298C1049.8 895.607 1050.23 896.041 1050.55 896.598C1050.86 897.155 1051.02 897.788 1051.02 898.496C1051.02 899.205 1050.86 899.838 1050.55 900.395C1050.23 900.952 1049.8 901.389 1049.25 901.705C1048.7 902.015 1048.08 902.17 1047.41 902.17ZM1047.41 901.355C1047.91 901.355 1048.36 901.238 1048.76 901.004C1049.17 900.77 1049.48 900.436 1049.71 900.003C1049.94 899.569 1050.06 899.067 1050.06 898.496C1050.06 897.919 1049.94 897.416 1049.71 896.99C1049.48 896.557 1049.17 896.223 1048.77 895.989C1048.37 895.755 1047.92 895.638 1047.41 895.638C1046.9 895.638 1046.45 895.755 1046.05 895.989C1045.65 896.223 1045.33 896.557 1045.1 896.99C1044.87 897.416 1044.76 897.919 1044.76 898.496C1044.76 899.067 1044.87 899.569 1045.1 900.003C1045.33 900.436 1045.65 900.77 1046.05 901.004C1046.45 901.238 1046.91 901.355 1047.41 901.355ZM1059.56 894.957V902.097H1058.62V896.773L1056.24 902.097H1055.58L1053.2 896.763V902.097H1052.26V894.957H1053.27L1055.91 900.859L1058.55 894.957H1059.56ZM1062.09 895.669V898.073H1064.71V898.847H1062.09V901.324H1065.02V902.097H1061.15V894.895H1065.02V895.669H1062.09Z" fill="#154C6B"/>
<rect x="989.41" y="853.017" width="88.492" height="88.5426" rx="6.43834" stroke="#E5F4FD" stroke-width="0.880761"/>
<path d="M242.1 195.792C242.436 196.128 242.98 196.128 243.316 195.792L248.788 190.32C249.124 189.984 249.124 189.44 248.788 189.104C248.452 188.768 247.908 188.768 247.572 189.104L242.708 193.968L237.844 189.104C237.508 188.768 236.964 188.768 236.628 189.104C236.292 189.44 236.292 189.984 236.628 190.32L242.1 195.792ZM434.945 171.281H435.805C435.805 170.806 435.42 170.421 434.945 170.421V171.281ZM434.337 195.792C434.673 196.128 435.217 196.128 435.553 195.792L441.025 190.32C441.361 189.984 441.361 189.44 441.025 189.104C440.689 188.768 440.145 188.768 439.809 189.104L434.945 193.968L430.081 189.104C429.745 188.768 429.201 188.768 428.865 189.104C428.529 189.44 428.529 189.984 428.865 190.32L434.337 195.792ZM338.826 170.421C338.352 170.421 337.967 170.806 337.967 171.281C337.967 171.756 338.352 172.14 338.826 172.14V170.421ZM242.708 170.421H69.9913V172.14H242.708V170.421ZM241.848 171.281V195.184H243.568V171.281H241.848ZM434.945 170.421H242.708V172.14H434.945V170.421ZM434.085 171.281V195.184H435.805V171.281H434.085ZM478.857 104.729V138.005H480.577V104.729H478.857ZM479.717 138.865H783.928V137.145H479.717V138.865ZM783.928 138.865H853.933V137.145H783.928V138.865ZM479.717 137.145H372.102V138.865H479.717V137.145ZM603.279 170.421H338.826V172.14H603.279V170.421ZM338.826 172.14H434.945V170.421H338.826V172.14ZM372.102 137.145C353.25 137.145 337.967 152.428 337.967 171.281H339.686C339.686 153.378 354.199 138.865 372.102 138.865V137.145ZM46.9476 195.184C46.9476 182.458 57.2646 172.14 69.9913 172.14V170.421C56.3149 170.421 45.2279 181.508 45.2279 195.184H46.9476ZM853.933 138.865C885.038 138.865 910.253 164.08 910.253 195.184H911.972C911.972 163.13 885.987 137.145 853.933 137.145V138.865ZM628.042 195.184C628.042 181.508 616.955 170.421 603.279 170.421V172.14C616.005 172.14 626.322 182.458 626.322 195.184H628.042Z" fill="#154C6B"/>
<path d="M168.671 420.551C169.007 420.887 169.551 420.887 169.887 420.551L175.359 415.079C175.695 414.744 175.695 414.199 175.359 413.863C175.023 413.528 174.479 413.528 174.143 413.863L169.279 418.727L164.415 413.863C164.079 413.528 163.535 413.528 163.199 413.863C162.863 414.199 162.863 414.744 163.199 415.079L168.671 420.551ZM168.419 414.155V419.943H170.139V414.155H168.419Z" fill="#154C6B"/>
<path d="M45.4798 197.557C45.8156 197.893 46.36 197.893 46.6958 197.557L52.1678 192.085C52.5035 191.749 52.5035 191.205 52.1678 190.869C51.832 190.533 51.2875 190.533 50.9518 190.869L46.0878 195.733L41.2238 190.869C40.888 190.533 40.3436 190.533 40.0078 190.869C39.672 191.205 39.672 191.749 40.0078 192.085L45.4798 197.557ZM45.2279 194.106V196.949H46.9476V194.106H45.2279Z" fill="#154C6B"/>
<path d="M626.545 197.557C626.88 197.893 627.425 197.893 627.761 197.557L633.233 192.085C633.568 191.749 633.568 191.205 633.233 190.869C632.897 190.533 632.352 190.533 632.017 190.869L627.153 195.733L622.289 190.869C621.953 190.533 621.408 190.533 621.073 190.869C620.737 191.205 620.737 191.749 621.073 192.085L626.545 197.557ZM626.293 194.106V196.949H628.012V194.106H626.293Z" fill="#154C6B"/>
<path d="M910.505 197.557C910.841 197.893 911.385 197.893 911.721 197.557L917.193 192.085C917.529 191.749 917.529 191.205 917.193 190.869C916.857 190.533 916.313 190.533 915.977 190.869L911.113 195.733L906.249 190.869C905.913 190.533 905.369 190.533 905.033 190.869C904.697 191.205 904.697 191.749 905.033 192.085L910.505 197.557ZM910.253 194.106V196.949H911.973V194.106H910.253Z" fill="#154C6B"/>
<path d="M464.428 420.551C464.763 420.887 465.308 420.887 465.644 420.551L471.116 415.079C471.451 414.744 471.451 414.199 471.116 413.863C470.78 413.528 470.235 413.528 469.9 413.863L465.036 418.727L460.172 413.863C459.836 413.528 459.291 413.528 458.956 413.863C458.62 414.199 458.62 414.744 458.956 415.079L464.428 420.551ZM464.176 414.155V419.943H465.895V414.155H464.176Z" fill="#154C6B"/>
<path d="M417.887 835.379C418.223 835.715 418.767 835.715 419.103 835.379L424.575 829.907C424.911 829.571 424.911 829.027 424.575 828.691C424.239 828.355 423.695 828.355 423.359 828.691L418.495 833.555L413.631 828.691C413.295 828.355 412.751 828.355 412.415 828.691C412.079 829.027 412.079 829.571 412.415 829.907L417.887 835.379ZM417.635 831.631V834.771H419.355V831.631H417.635Z" fill="#154C6B"/>
<path d="M1161.78 835.379C1162.12 835.715 1162.66 835.715 1163 835.379L1168.47 829.907C1168.8 829.571 1168.8 829.027 1168.47 828.691C1168.13 828.355 1167.59 828.355 1167.25 828.691L1162.39 833.555L1157.52 828.691C1157.19 828.355 1156.64 828.355 1156.31 828.691C1155.97 829.027 1155.97 829.571 1156.31 829.907L1161.78 835.379ZM1161.53 831.631V834.771H1163.25V831.631H1161.53Z" fill="#154C6B"/>
<path d="M240.645 320.892C240.645 320.417 240.26 320.032 239.786 320.032C239.311 320.032 238.926 320.417 238.926 320.892H240.645ZM431.766 320.892C431.766 320.417 431.381 320.032 430.906 320.032C430.431 320.032 430.046 320.417 430.046 320.892H431.766ZM78.7617 355.114H239.786V353.394H78.7617V355.114ZM238.926 320.892V354.254H240.645V320.892H238.926ZM430.906 355.114H593.648V353.394H430.906V355.114ZM430.046 320.892V354.254H431.766V320.892H430.046ZM239.786 355.114H335.346V353.394H239.786V355.114ZM335.346 355.114H430.906V353.394H335.346V355.114ZM334.486 354.254V386.308H336.205V354.254H334.486ZM335.346 387.168H435.64V385.448H335.346V387.168ZM335.346 385.448H198.695V387.168H335.346V385.448ZM198.695 385.448C181.977 385.448 168.424 399.001 168.424 415.719H170.143C170.143 399.951 182.926 387.168 198.695 387.168V385.448ZM626.15 320.892C626.15 338.843 611.599 353.394 593.648 353.394V355.114C612.548 355.114 627.87 339.792 627.87 320.892H626.15ZM435.64 387.168C451.409 387.168 464.192 399.951 464.192 415.719H465.911C465.911 399.001 452.359 385.448 435.64 385.448V387.168ZM44.5401 320.892C44.5401 339.792 59.8616 355.114 78.7617 355.114V353.394C60.8114 353.394 46.2597 338.843 46.2597 320.892H44.5401Z" fill="#154C6B"/>
<path d="M912.488 316.594C912.488 316.119 912.103 315.734 911.628 315.734C911.153 315.734 910.768 316.119 910.768 316.594H912.488ZM787.617 835.379C787.953 835.715 788.497 835.715 788.833 835.379L794.305 829.907C794.641 829.571 794.641 829.027 794.305 828.691C793.969 828.355 793.425 828.355 793.089 828.691L788.225 833.555L783.361 828.691C783.025 828.355 782.481 828.355 782.145 828.691C781.809 829.027 781.809 829.571 782.145 829.907L787.617 835.379ZM911.02 835.379C911.356 835.715 911.9 835.715 912.236 835.379L917.708 829.907C918.044 829.571 918.044 829.027 917.708 828.691C917.372 828.355 916.828 828.355 916.492 828.691L911.628 833.555L906.764 828.691C906.428 828.355 905.884 828.355 905.548 828.691C905.212 829.027 905.212 829.571 905.548 829.907L911.02 835.379ZM1036.4 835.379C1036.74 835.715 1037.28 835.715 1037.62 835.379L1043.09 829.907C1043.42 829.571 1043.42 829.027 1043.09 828.691C1042.75 828.355 1042.21 828.355 1041.87 828.691L1037.01 833.555L1032.14 828.691C1031.81 828.355 1031.26 828.355 1030.93 828.691C1030.59 829.027 1030.59 829.571 1030.93 829.907L1036.4 835.379ZM544.988 835.379C545.324 835.715 545.868 835.715 546.204 835.379L551.676 829.907C552.012 829.571 552.012 829.027 551.676 828.691C551.34 828.355 550.796 828.355 550.46 828.691L545.596 833.555L540.732 828.691C540.396 828.355 539.852 828.355 539.516 828.691C539.18 829.027 539.18 829.571 539.516 829.907L544.988 835.379ZM666.302 835.379C666.638 835.715 667.182 835.715 667.518 835.379L672.99 829.907C673.326 829.571 673.326 829.027 672.99 828.691C672.654 828.355 672.11 828.355 671.774 828.691L666.91 833.555L662.046 828.691C661.71 828.355 661.166 828.355 660.83 828.691C660.494 829.027 660.494 829.571 660.83 829.907L666.302 835.379ZM911.628 797.11H788.225V798.83H911.628V797.11ZM787.365 797.97V834.771H789.085V797.97H787.365ZM910.768 797.97V834.771H912.488V797.97H910.768ZM911.628 798.83H1037.01V797.11H911.628V798.83ZM1037.01 798.83H1125.59V797.11H1037.01V798.83ZM1036.15 797.97V834.771H1037.87V797.97H1036.15ZM910.768 316.594V562.366H912.488V316.594H910.768ZM498.519 563.226H911.628V561.506H498.519V563.226ZM910.768 562.366V680.168H912.488V562.366H910.768ZM910.768 680.168V712.206H912.488V680.168H910.768ZM910.768 712.206V797.97H912.488V712.206H910.768ZM911.628 711.346H268.99V713.066H911.628V711.346ZM545.596 797.11H455.199V798.83H545.596V797.11ZM544.736 797.97V834.771H546.456V797.97H544.736ZM788.225 797.11H666.91V798.83H788.225V797.11ZM666.91 797.11H545.596V798.83H666.91V797.11ZM666.05 797.97V834.771H667.77V797.97H666.05ZM268.99 711.346C258.703 711.346 250.363 703.006 250.363 692.719H248.643C248.643 703.956 257.753 713.066 268.99 713.066V711.346ZM419.258 834.771C419.258 814.921 435.349 798.83 455.199 798.83V797.11C434.4 797.11 417.538 813.971 417.538 834.771H419.258ZM467.713 532.42C467.713 549.434 481.505 563.226 498.519 563.226V561.506C482.455 561.506 469.433 548.484 469.433 532.42H467.713ZM1163.25 834.771C1163.25 813.971 1146.39 797.11 1125.59 797.11V798.83C1145.44 798.83 1161.53 814.921 1161.53 834.771H1163.25Z" fill="#154C6B"/>
<rect x="46.7293" y="595.125" width="88.492" height="88.5426" rx="6.43834" fill="#F3FBFF"/>
<path d="M82.4106 637.777V640.182H85.0314V640.955H82.4106V643.432H85.3409V644.206H81.4716V637.004H85.3409V637.777H82.4106ZM89.0007 637.014C89.7849 637.014 90.4624 637.162 91.0334 637.458C91.6112 637.746 92.0514 638.163 92.3541 638.706C92.6636 639.249 92.8184 639.889 92.8184 640.625C92.8184 641.361 92.6636 642.001 92.3541 642.544C92.0514 643.081 91.6112 643.494 91.0334 643.783C90.4624 644.065 89.7849 644.206 89.0007 644.206H86.7617V637.014H89.0007ZM89.0007 643.432C89.9293 643.432 90.6378 643.188 91.1262 642.699C91.6146 642.204 91.8588 641.513 91.8588 640.625C91.8588 639.731 91.6112 639.033 91.1159 638.531C90.6275 638.028 89.9225 637.777 89.0007 637.777H87.7006V643.432H89.0007ZM94.9958 637.014V644.206H94.0569V637.014H94.9958ZM101.023 637.014V637.777H99.0621V644.206H98.1232V637.777H96.1524V637.014H101.023Z" fill="#154C6B"/>
<rect x="46.7293" y="595.125" width="88.492" height="88.5426" rx="6.43834" stroke="#E5F4FD" stroke-width="0.880761"/>
<path d="M90.6322 587.796C90.9676 588.131 91.5114 588.131 91.8468 587.796L97.313 582.329C97.6484 581.994 97.6484 581.45 97.313 581.115C96.9775 580.779 96.4337 580.779 96.0983 581.115L91.2395 585.974L86.3807 581.115C86.0453 580.779 85.5015 580.779 85.166 581.115C84.8306 581.45 84.8306 581.994 85.166 582.329L90.6322 587.796ZM241.716 587.796C242.052 588.131 242.596 588.131 242.931 587.796L248.397 582.329C248.733 581.994 248.733 581.45 248.397 581.115C248.062 580.779 247.518 580.779 247.182 581.115L242.324 585.974L237.465 581.115C237.129 580.779 236.586 580.779 236.25 581.115C235.915 581.45 235.915 581.994 236.25 582.329L241.716 587.796ZM167.017 527.845V547.385H168.735V527.845H167.017ZM167.876 546.526H128.72V548.244H167.876V546.526ZM90.3806 584.865V587.188H92.0984V584.865H90.3806ZM167.876 548.244H204.844V546.526H167.876V548.244ZM241.465 584.865V587.188H243.183V584.865H241.465ZM204.844 548.244C225.069 548.244 241.465 564.639 241.465 584.865H243.183C243.183 563.691 226.018 546.526 204.844 546.526V548.244ZM128.72 546.526C107.546 546.526 90.3806 563.691 90.3806 584.865H92.0984C92.0984 564.639 108.494 548.244 128.72 548.244V546.526Z" fill="#154C6B"/>
</svg>
