<svg width="448" height="154" viewBox="0 0 448 154" fill="none" xmlns="http://www.w3.org/2000/svg">
<g clip-path="url(#clip0_149_27492)">
<path d="M9.36296 120.182V121.551H5.84723V133.079H4.16337V121.551H0.629132V120.182H9.36296ZM21.3723 120.182V133.079H19.6884V127.232H13.1195V133.079H11.4357V120.182H13.1195V125.844H19.6884V120.182H21.3723ZM25.9313 121.551V125.863H30.6313V127.25H25.9313V131.691H31.1864V133.079H24.2475V120.163H31.1864V121.551H25.9313ZM45.958 120.182V121.551H40.3513V125.9H44.9033V127.269H40.3513V133.079H38.6675V120.182H45.958ZM54.7826 133.079L51.711 127.805H49.6756V133.079H47.9917V120.182H52.1551C53.1296 120.182 53.9499 120.348 54.6161 120.682C55.2946 121.015 55.8003 121.465 56.1334 122.032C56.4665 122.6 56.633 123.247 56.633 123.975C56.633 124.863 56.374 125.647 55.8558 126.325C55.3501 127.004 54.5852 127.454 53.5614 127.676L56.7995 133.079H54.7826ZM49.6756 126.455H52.1551C53.0679 126.455 53.7526 126.233 54.209 125.789C54.6654 125.332 54.8936 124.728 54.8936 123.975C54.8936 123.21 54.6654 122.618 54.209 122.199C53.7649 121.779 53.0803 121.57 52.1551 121.57H49.6756V126.455ZM60.9333 120.182V133.079H59.2494V120.182H60.9333ZM65.487 121.551V125.863H70.187V127.25H65.487V131.691H70.7421V133.079H63.8031V120.163H70.7421V121.551H65.487ZM83.4301 133.079H81.7462L74.9738 122.809V133.079H73.29V120.163H74.9738L81.7462 130.415V120.163H83.4301V133.079ZM90.3159 120.182C91.7222 120.182 92.9372 120.447 93.9611 120.978C94.9973 121.496 95.7868 122.242 96.3296 123.217C96.8847 124.191 97.1623 125.338 97.1623 126.658C97.1623 127.978 96.8847 129.125 96.3296 130.1C95.7868 131.062 94.9973 131.802 93.9611 132.32C92.9372 132.826 91.7222 133.079 90.3159 133.079H86.3005V120.182H90.3159ZM90.3159 131.691C91.9812 131.691 93.2518 131.253 94.1277 130.378C95.0035 129.489 95.4414 128.25 95.4414 126.658C95.4414 125.055 94.9973 123.802 94.1092 122.902C93.2333 122.001 91.9689 121.551 90.3159 121.551H87.9844V131.691H90.3159ZM101.067 131.71H105.582V133.079H99.3833V120.182H101.067V131.71ZM116.4 120.182L112.2 128.213V133.079H110.516V128.213L106.297 120.182H108.166L111.349 126.714L114.531 120.182H116.4ZM129.567 126.436C130.036 126.51 130.462 126.701 130.844 127.01C131.239 127.318 131.547 127.701 131.769 128.157C132.004 128.613 132.121 129.101 132.121 129.619C132.121 130.273 131.954 130.865 131.621 131.395C131.288 131.913 130.801 132.327 130.159 132.635C129.53 132.931 128.784 133.079 127.921 133.079H123.11V120.182H127.735C128.611 120.182 129.358 120.33 129.974 120.626C130.591 120.91 131.054 121.298 131.362 121.792C131.671 122.285 131.825 122.84 131.825 123.457C131.825 124.222 131.615 124.857 131.196 125.363C130.789 125.856 130.246 126.214 129.567 126.436ZM124.793 125.752H127.624C128.414 125.752 129.025 125.567 129.456 125.196C129.888 124.826 130.104 124.314 130.104 123.661C130.104 123.007 129.888 122.495 129.456 122.125C129.025 121.755 128.402 121.57 127.587 121.57H124.793V125.752ZM127.772 131.691C128.611 131.691 129.265 131.494 129.734 131.099C130.203 130.704 130.437 130.155 130.437 129.452C130.437 128.737 130.19 128.176 129.697 127.768C129.203 127.349 128.543 127.139 127.717 127.139H124.793V131.691H127.772ZM136.104 120.182V128.342C136.104 129.489 136.382 130.341 136.937 130.896C137.505 131.451 138.288 131.728 139.287 131.728C140.274 131.728 141.045 131.451 141.6 130.896C142.168 130.341 142.451 129.489 142.451 128.342V120.182H144.135V128.324C144.135 129.397 143.919 130.304 143.487 131.044C143.056 131.771 142.47 132.314 141.73 132.672C141.002 133.03 140.181 133.209 139.269 133.209C138.356 133.209 137.529 133.03 136.789 132.672C136.061 132.314 135.481 131.771 135.05 131.044C134.63 130.304 134.421 129.397 134.421 128.324V120.182H136.104ZM150.959 120.182C152.366 120.182 153.581 120.447 154.605 120.978C155.641 121.496 156.43 122.242 156.973 123.217C157.528 124.191 157.806 125.338 157.806 126.658C157.806 127.978 157.528 129.125 156.973 130.1C156.43 131.062 155.641 131.802 154.605 132.32C153.581 132.826 152.366 133.079 150.959 133.079H146.944V120.182H150.959ZM150.959 131.691C152.625 131.691 153.895 131.253 154.771 130.378C155.647 129.489 156.085 128.25 156.085 126.658C156.085 125.055 155.641 123.802 154.753 122.902C153.877 122.001 152.612 121.551 150.959 121.551H148.628V131.691H150.959ZM169.797 123.92C169.439 123.167 168.921 122.587 168.243 122.18C167.564 121.761 166.775 121.551 165.874 121.551C164.974 121.551 164.159 121.761 163.432 122.18C162.716 122.587 162.149 123.18 161.729 123.957C161.322 124.722 161.119 125.61 161.119 126.621C161.119 127.633 161.322 128.521 161.729 129.286C162.149 130.051 162.716 130.643 163.432 131.062C164.159 131.469 164.974 131.673 165.874 131.673C167.132 131.673 168.169 131.297 168.983 130.544C169.797 129.792 170.272 128.774 170.408 127.491H165.264V126.122H172.202V127.417C172.104 128.478 171.771 129.452 171.203 130.341C170.636 131.216 169.889 131.913 168.964 132.431C168.039 132.937 167.009 133.19 165.874 133.19C164.678 133.19 163.586 132.913 162.599 132.357C161.612 131.79 160.829 131.007 160.249 130.007C159.682 129.008 159.398 127.88 159.398 126.621C159.398 125.363 159.682 124.234 160.249 123.235C160.829 122.223 161.612 121.44 162.599 120.885C163.586 120.318 164.678 120.034 165.874 120.034C167.243 120.034 168.452 120.373 169.501 121.052C170.562 121.73 171.333 122.686 171.814 123.92H169.797ZM176.113 121.551V125.863H180.813V127.25H176.113V131.691H181.368V133.079H174.429V120.163H181.368V121.551H176.113ZM191.854 120.182V121.551H188.338V133.079H186.654V121.551H183.12V120.182H191.854ZM195.61 120.182V133.079H193.927V120.182H195.61ZM208.62 133.079H206.937L200.164 122.809V133.079H198.48V120.163H200.164L206.937 130.415V120.163H208.62V133.079ZM221.261 123.92C220.903 123.167 220.385 122.587 219.707 122.18C219.028 121.761 218.239 121.551 217.338 121.551C216.438 121.551 215.623 121.761 214.896 122.18C214.18 122.587 213.613 123.18 213.193 123.957C212.786 124.722 212.583 125.61 212.583 126.621C212.583 127.633 212.786 128.521 213.193 129.286C213.613 130.051 214.18 130.643 214.896 131.062C215.623 131.469 216.438 131.673 217.338 131.673C218.596 131.673 219.633 131.297 220.447 130.544C221.261 129.792 221.736 128.774 221.872 127.491H216.727V126.122H223.666V127.417C223.568 128.478 223.235 129.452 222.667 130.341C222.1 131.216 221.353 131.913 220.428 132.431C219.503 132.937 218.473 133.19 217.338 133.19C216.141 133.19 215.05 132.913 214.063 132.357C213.076 131.79 212.293 131.007 211.713 130.007C211.145 129.008 210.862 127.88 210.862 126.621C210.862 125.363 211.145 124.234 211.713 123.235C212.293 122.223 213.076 121.44 214.063 120.885C215.05 120.318 216.141 120.034 217.338 120.034C218.707 120.034 219.916 120.373 220.965 121.052C222.026 121.73 222.797 122.686 223.278 123.92H221.261ZM238.45 130.211H232.824L231.788 133.079H230.012L234.675 120.256H236.618L241.262 133.079H239.486L238.45 130.211ZM237.968 128.842L235.637 122.328L233.305 128.842H237.968ZM251.917 123.957C251.917 125.03 251.547 125.924 250.807 126.64C250.079 127.343 248.963 127.694 247.458 127.694H244.978V133.079H243.294V120.182H247.458C248.913 120.182 250.017 120.533 250.77 121.237C251.535 121.94 251.917 122.846 251.917 123.957ZM247.458 126.307C248.395 126.307 249.086 126.103 249.53 125.696C249.974 125.289 250.196 124.709 250.196 123.957C250.196 122.365 249.283 121.57 247.458 121.57H244.978V126.307H247.458ZM262.633 123.957C262.633 125.03 262.263 125.924 261.523 126.64C260.795 127.343 259.678 127.694 258.173 127.694H255.694V133.079H254.01V120.182H258.173C259.629 120.182 260.733 120.533 261.486 121.237C262.25 121.94 262.633 122.846 262.633 123.957ZM258.173 126.307C259.111 126.307 259.802 126.103 260.246 125.696C260.69 125.289 260.912 124.709 260.912 123.957C260.912 122.365 259.999 121.57 258.173 121.57H255.694V126.307H258.173Z" fill="black"/>
<path d="M102.063 75.9922C106.244 76.8832 109.602 78.9734 112.138 82.263C114.673 85.484 115.941 89.1848 115.941 93.3653C115.941 99.3962 113.817 104.194 109.568 107.757C105.387 111.252 99.5276 113 91.9889 113H58.3736V40.8349H90.8582C98.1912 40.8349 103.914 42.5139 108.026 45.872C112.206 49.2301 114.296 53.7876 114.296 59.5443C114.296 63.7934 113.166 67.3228 110.904 70.1327C108.711 72.9425 105.764 74.8957 102.063 75.9922ZM75.9522 70.0299H87.4658C90.3442 70.0299 92.5372 69.4131 94.0449 68.1795C95.6212 66.8774 96.4093 64.9927 96.4093 62.5255C96.4093 60.0583 95.6212 58.1737 94.0449 56.8716C92.5372 55.5694 90.3442 54.9184 87.4658 54.9184H75.9522V70.0299ZM88.905 98.8137C91.8519 98.8137 94.1135 98.1626 95.6897 96.8605C97.3345 95.4898 98.1569 93.5367 98.1569 91.0009C98.1569 88.4652 97.3002 86.4778 95.5869 85.0386C93.9421 83.5994 91.6463 82.8798 88.6994 82.8798H75.9522V98.8137H88.905ZM187.919 55.638V113H170.341V105.187C168.559 107.723 166.126 109.779 163.042 111.355C160.026 112.863 156.668 113.617 152.967 113.617C148.581 113.617 144.709 112.657 141.351 110.738C137.993 108.751 135.389 105.907 133.538 102.206C131.688 98.5053 130.763 94.1535 130.763 89.1506V55.638H148.239V86.7862C148.239 90.624 149.232 93.6052 151.22 95.7297C153.207 97.8542 155.88 98.9165 159.238 98.9165C162.665 98.9165 165.372 97.8542 167.359 95.7297C169.347 93.6052 170.341 90.624 170.341 86.7862V55.638H187.919ZM202.191 84.2162C202.191 78.3224 203.287 73.1481 205.48 68.6935C207.742 64.2388 210.792 60.8122 214.629 58.4135C218.467 56.0149 222.751 54.8156 227.479 54.8156C231.249 54.8156 234.675 55.6037 237.759 57.18C240.912 58.7562 243.379 60.8807 245.161 63.5535V36.9285H262.739V113H245.161V104.776C243.516 107.517 241.152 109.71 238.068 111.355C235.052 113 231.523 113.822 227.479 113.822C222.751 113.822 218.467 112.623 214.629 110.224C210.792 107.757 207.742 104.296 205.48 99.8417C203.287 95.3185 202.191 90.11 202.191 84.2162ZM245.161 84.319C245.161 79.9329 243.927 76.472 241.46 73.9362C239.061 71.4005 236.114 70.1327 232.619 70.1327C229.124 70.1327 226.143 71.4005 223.676 73.9362C221.277 76.4034 220.078 79.8301 220.078 84.2162C220.078 88.6023 221.277 92.0975 223.676 94.7017C226.143 97.2374 229.124 98.5053 232.619 98.5053C236.114 98.5053 239.061 97.2374 241.46 94.7017C243.927 92.166 245.161 88.7051 245.161 84.319ZM302.39 54.8156C306.434 54.8156 309.963 55.638 312.979 57.2827C316.063 58.9275 318.427 61.0863 320.072 63.7591V55.638H337.65V112.897C337.65 118.174 336.588 122.937 334.464 127.186C332.408 131.504 329.221 134.931 324.903 137.466C320.654 140.002 315.343 141.27 308.969 141.27C300.471 141.27 293.584 139.248 288.307 135.205C283.03 131.23 280.014 125.816 279.26 118.962H296.634C297.182 121.155 298.484 122.869 300.54 124.102C302.596 125.404 305.132 126.056 308.147 126.056C311.779 126.056 314.658 124.993 316.782 122.869C318.975 120.813 320.072 117.489 320.072 112.897V104.776C318.358 107.449 315.994 109.642 312.979 111.355C309.963 113 306.434 113.822 302.39 113.822C297.662 113.822 293.378 112.623 289.54 110.224C285.703 107.757 282.653 104.296 280.391 99.8417C278.198 95.3185 277.102 90.11 277.102 84.2162C277.102 78.3224 278.198 73.1481 280.391 68.6935C282.653 64.2388 285.703 60.8122 289.54 58.4135C293.378 56.0149 297.662 54.8156 302.39 54.8156ZM320.072 84.319C320.072 79.9329 318.838 76.472 316.371 73.9362C313.972 71.4005 311.025 70.1327 307.53 70.1327C304.035 70.1327 301.054 71.4005 298.587 73.9362C296.188 76.4034 294.989 79.8301 294.989 84.2162C294.989 88.6023 296.188 92.0975 298.587 94.7017C301.054 97.2374 304.035 98.5053 307.53 98.5053C311.025 98.5053 313.972 97.2374 316.371 94.7017C318.838 92.166 320.072 88.7051 320.072 84.319ZM364.349 49.6756C361.265 49.6756 358.729 48.7847 356.741 47.0028C354.823 45.1524 353.863 42.8908 353.863 40.2181C353.863 37.4767 354.823 35.2152 356.741 33.4333C358.729 31.5829 361.265 30.6577 364.349 30.6577C367.364 30.6577 369.831 31.5829 371.75 33.4333C373.738 35.2152 374.731 37.4767 374.731 40.2181C374.731 42.8908 373.738 45.1524 371.75 47.0028C369.831 48.7847 367.364 49.6756 364.349 49.6756ZM373.087 55.638V113H355.508V55.638H373.087ZM445.038 83.3938C445.038 85.0386 444.935 86.7519 444.73 88.5338H404.946C405.22 92.0975 406.351 94.8388 408.339 96.7577C410.395 98.6081 412.896 99.5333 415.843 99.5333C420.229 99.5333 423.279 97.6829 424.992 93.9821H443.702C442.742 97.7514 440.995 101.144 438.459 104.159C435.992 107.175 432.873 109.539 429.104 111.252C425.335 112.966 421.12 113.822 416.46 113.822C410.84 113.822 405.837 112.623 401.451 110.224C397.065 107.826 393.638 104.399 391.171 99.9445C388.704 95.4898 387.47 90.2813 387.47 84.319C387.47 78.3566 388.67 73.1481 391.068 68.6935C393.536 64.2388 396.962 60.8122 401.348 58.4135C405.734 56.0149 410.772 54.8156 416.46 54.8156C422.011 54.8156 426.945 55.9806 431.263 58.3107C435.581 60.6409 438.939 63.9647 441.337 68.2823C443.804 72.5999 445.038 77.637 445.038 83.3938ZM427.048 78.7678C427.048 75.7524 426.02 73.3537 423.964 71.5719C421.908 69.79 419.338 68.8991 416.254 68.8991C413.307 68.8991 410.806 69.7557 408.75 71.4691C406.762 73.1824 405.529 75.6153 405.049 78.7678H427.048Z" fill="#154C6B"/>
</g>
<defs>
<clipPath id="clip0_149_27492">
<rect width="448" height="154" fill="white"/>
</clipPath>
</defs>
</svg>
