<svg width="147" height="295" viewBox="0 0 147 295" fill="none" xmlns="http://www.w3.org/2000/svg">
<g clip-path="url(#clip0_149_23282)">
<path d="M146.724 74.395H145.749L145.742 22.311C145.742 10.5097 136.084 0.845013 124.275 0.845013L23.086 0.837891C11.277 0.837891 1.61184 10.4955 1.61896 22.3039V45.2585H0.664551V55.3505H1.61896V66.5607H0.664551V86.7519H1.61896V93.6247H0.664551V113.816H1.62608L1.64033 270.082C1.64033 281.883 11.2984 291.548 23.1074 291.548L124.296 291.555C136.105 291.555 145.77 281.898 145.763 270.089L145.749 106.701H146.724V74.395V74.395Z" fill="#BCBCBC"/>
<path d="M124.553 290.542L22.8581 290.535C11.747 290.535 2.65154 281.44 2.65154 270.33L2.62305 22.0531C2.62305 10.9355 11.7185 1.84766 22.8296 1.84766L124.525 1.85478C135.636 1.85478 144.731 10.9497 144.731 22.0602L144.76 270.337C144.76 281.455 135.671 290.542 124.553 290.542Z" fill="#DBDBDB"/>
<path d="M136.574 24.4261C136.574 16.2998 129.922 9.65487 121.796 9.64775H105.607C104.923 9.64775 104.367 10.2033 104.367 10.887C104.367 15.6374 100.478 19.5261 95.7278 19.5261H47.3458C42.5952 19.5261 38.7064 15.6374 38.7064 10.887V10.8799C38.7064 10.1962 38.1509 9.64062 37.4671 9.64062H25.523C17.3964 9.64062 10.7441 16.2927 10.7441 24.419L10.7655 267.383C10.7655 275.509 17.4178 282.154 25.5444 282.161L121.824 282.168C129.951 282.168 136.603 275.516 136.603 267.39L136.574 24.4261Z" fill="white"/>
<path d="M80.4254 13.9915H67.2349C66.616 13.9915 66.1108 13.4743 66.1108 12.8405C66.1108 12.2067 66.616 11.6895 67.2349 11.6895H80.4254C81.0444 11.6895 81.5495 12.2067 81.5495 12.8405C81.5495 13.4743 81.0444 13.9915 80.4254 13.9915Z" fill="white"/>
<path d="M88.4299 13.6639C88.8933 13.6639 89.2689 13.2958 89.2689 12.8417C89.2689 12.3876 88.8933 12.0195 88.4299 12.0195C87.9665 12.0195 87.5908 12.3876 87.5908 12.8417C87.5908 13.2958 87.9665 13.6639 88.4299 13.6639Z" fill="white"/>
<path d="M88.4297 14.3211C89.2639 14.3211 89.94 13.6585 89.94 12.8412C89.94 12.0239 89.2639 11.3613 88.4297 11.3613C87.5956 11.3613 86.9194 12.0239 86.9194 12.8412C86.9194 13.6585 87.5956 14.3211 88.4297 14.3211Z" stroke="white" stroke-width="0.31034" stroke-miterlimit="10"/>
<rect x="17.4453" y="40.1055" width="112.098" height="29.5349" rx="6.71247" fill="#C4C4C4" fill-opacity="0.5"/>
<rect x="17.4453" y="74.6738" width="112.098" height="21.8155" rx="6.71247" fill="#C4C4C4" fill-opacity="0.5"/>
<rect x="17.4453" y="101.523" width="112.098" height="21.8155" rx="6.71247" fill="#C4C4C4" fill-opacity="0.5"/>
<rect x="17.4453" y="128.375" width="112.098" height="21.8155" rx="6.71247" fill="#C4C4C4" fill-opacity="0.5"/>
<rect x="17.4453" y="155.225" width="112.098" height="21.8155" rx="6.71247" fill="#C4C4C4" fill-opacity="0.5"/>
<rect x="17.4453" y="183.752" width="112.098" height="65.1109" rx="6.71247" fill="#C4C4C4" fill-opacity="0.5"/>
<rect x="17.1099" y="254.232" width="18.7949" height="18.7949" rx="9.39745" fill="#C4C4C4" fill-opacity="0.5"/>
<rect x="40.6035" y="254.232" width="18.7949" height="18.7949" rx="9.39745" fill="#C4C4C4" fill-opacity="0.5"/>
<rect x="64.0972" y="254.232" width="18.7949" height="18.7949" rx="9.39745" fill="#C4C4C4" fill-opacity="0.5"/>
<rect x="87.5908" y="254.232" width="18.7949" height="18.7949" rx="9.39745" fill="#C4C4C4" fill-opacity="0.5"/>
<rect x="111.084" y="254.232" width="18.7949" height="18.7949" rx="9.39745" fill="#C4C4C4" fill-opacity="0.5"/>
<path d="M136.563 24.35C136.563 16.2236 129.911 9.5787 121.784 9.57158H105.595C104.912 9.57158 104.356 10.1271 104.356 10.8108C104.356 15.5613 100.467 19.4499 95.7166 19.4499H47.3346C42.584 19.4499 38.6952 15.5613 38.6952 10.8108V10.8037C38.6952 10.12 38.1396 9.56445 37.4559 9.56445H25.5118C17.3852 9.56445 10.7329 16.2165 10.7329 24.3428L10.7543 267.306C10.7543 275.433 17.4065 282.078 25.5331 282.085L121.813 282.092C129.939 282.092 136.592 275.44 136.592 267.314L136.563 24.35Z" fill="#CFCFCF" fill-opacity="0.3"/>
<path d="M95.0334 279.715H51.9548C51.4348 279.715 51.0073 279.27 51.0073 278.729C51.0073 278.187 51.4348 277.742 51.9548 277.742H95.0334C95.5534 277.742 95.9809 278.187 95.9809 278.729C95.9737 279.27 95.5534 279.715 95.0334 279.715Z" fill="#BFBFBF"/>
<rect x="111.084" y="16.2754" width="18.7949" height="18.7949" rx="9.39745" fill="#C4C4C4"/>
<path d="M120.65 21.3105L120.65 30.0368M116.119 25.5058H125.18" stroke="black" stroke-width="0.671247"/>
<rect x="52" y="39" width="78" height="120" rx="6.71247" fill="#C4C4C4"/>
<path d="M60.0711 48.5646V54.1406H59.3431V48.5646H60.0711ZM65.6958 54.1406H64.9678L62.0398 49.7006V54.1406H61.3118V48.5566H62.0398L64.9678 52.9886V48.5566H65.6958V54.1406ZM66.6648 51.3486C66.6648 50.8046 66.7875 50.3166 67.0328 49.8846C67.2781 49.4473 67.6115 49.106 68.0328 48.8606C68.4595 48.6153 68.9315 48.4926 69.4488 48.4926C70.0568 48.4926 70.5875 48.6393 71.0408 48.9326C71.4941 49.226 71.8248 49.642 72.0328 50.1806H71.1608C71.0061 49.8446 70.7821 49.586 70.4888 49.4046C70.2008 49.2233 69.8541 49.1326 69.4488 49.1326C69.0595 49.1326 68.7101 49.2233 68.4008 49.4046C68.0915 49.586 67.8488 49.8446 67.6728 50.1806C67.4968 50.5113 67.4088 50.9006 67.4088 51.3486C67.4088 51.7913 67.4968 52.1806 67.6728 52.5166C67.8488 52.8473 68.0915 53.1033 68.4008 53.2846C68.7101 53.466 69.0595 53.5566 69.4488 53.5566C69.8541 53.5566 70.2008 53.4686 70.4888 53.2926C70.7821 53.1113 71.0061 52.8526 71.1608 52.5166H72.0328C71.8248 53.05 71.4941 53.4633 71.0408 53.7566C70.5875 54.0446 70.0568 54.1886 69.4488 54.1886C68.9315 54.1886 68.4595 54.0686 68.0328 53.8286C67.6115 53.5833 67.2781 53.2446 67.0328 52.8126C66.7875 52.3806 66.6648 51.8926 66.6648 51.3486ZM75.6445 54.1966C75.1272 54.1966 74.6552 54.0766 74.2285 53.8366C73.8018 53.5913 73.4632 53.2526 73.2125 52.8206C72.9672 52.3833 72.8445 51.8926 72.8445 51.3486C72.8445 50.8046 72.9672 50.3166 73.2125 49.8846C73.4632 49.4473 73.8018 49.1086 74.2285 48.8686C74.6552 48.6233 75.1272 48.5006 75.6445 48.5006C76.1672 48.5006 76.6418 48.6233 77.0685 48.8686C77.4952 49.1086 77.8312 49.4446 78.0765 49.8766C78.3218 50.3086 78.4445 50.7993 78.4445 51.3486C78.4445 51.898 78.3218 52.3886 78.0765 52.8206C77.8312 53.2526 77.4952 53.5913 77.0685 53.8366C76.6418 54.0766 76.1672 54.1966 75.6445 54.1966ZM75.6445 53.5646C76.0338 53.5646 76.3832 53.474 76.6925 53.2926C77.0072 53.1113 77.2525 52.8526 77.4285 52.5166C77.6098 52.1806 77.7005 51.7913 77.7005 51.3486C77.7005 50.9006 77.6098 50.5113 77.4285 50.1806C77.2525 49.8446 77.0098 49.586 76.7005 49.4046C76.3912 49.2233 76.0392 49.1326 75.6445 49.1326C75.2498 49.1326 74.8978 49.2233 74.5885 49.4046C74.2792 49.586 74.0338 49.8446 73.8525 50.1806C73.6765 50.5113 73.5885 50.9006 73.5885 51.3486C73.5885 51.7913 73.6765 52.1806 73.8525 52.5166C74.0338 52.8526 74.2792 53.1113 74.5885 53.2926C74.9032 53.474 75.2552 53.5646 75.6445 53.5646ZM85.0616 48.6046V54.1406H84.3336V50.0126L82.4936 54.1406H81.9816L80.1336 50.0046V54.1406H79.4056V48.6046H80.1896L82.2376 53.1806L84.2856 48.6046H85.0616ZM87.0242 49.1566V51.0206H89.0562V51.6206H87.0242V53.5406H89.2962V54.1406H86.2962V48.5566H89.2962V49.1566H87.0242ZM62.1351 70.2686C62.3377 70.3006 62.5217 70.3833 62.6871 70.5166C62.8577 70.65 62.9911 70.8153 63.0871 71.0126C63.1884 71.21 63.2391 71.4206 63.2391 71.6446C63.2391 71.9273 63.1671 72.1833 63.0231 72.4126C62.8791 72.6366 62.6684 72.8153 62.3911 72.9486C62.1191 73.0766 61.7964 73.1406 61.4231 73.1406H59.3431V67.5646H61.3431C61.7217 67.5646 62.0444 67.6286 62.3111 67.7566C62.5777 67.8793 62.7777 68.0473 62.9111 68.2606C63.0444 68.474 63.1111 68.714 63.1111 68.9806C63.1111 69.3113 63.0204 69.586 62.8391 69.8046C62.6631 70.018 62.4284 70.1726 62.1351 70.2686ZM60.0711 69.9726H61.2951C61.6364 69.9726 61.9004 69.8926 62.0871 69.7326C62.2737 69.5726 62.3671 69.3513 62.3671 69.0686C62.3671 68.786 62.2737 68.5646 62.0871 68.4046C61.9004 68.2446 61.6311 68.1646 61.2791 68.1646H60.0711V69.9726ZM61.3591 72.5406C61.7217 72.5406 62.0044 72.4553 62.2071 72.2846C62.4097 72.114 62.5111 71.8766 62.5111 71.5726C62.5111 71.2633 62.4044 71.0206 62.1911 70.8446C61.9777 70.6633 61.6924 70.5726 61.3351 70.5726H60.0711V72.5406H61.3591ZM64.9773 67.5646V73.1406H64.2493V67.5646H64.9773ZM66.9461 72.5486H68.8981V73.1406H66.2181V67.5646H66.9461V72.5486ZM70.3992 72.5486H72.3512V73.1406H69.6712V67.5646H70.3992V72.5486ZM74.8923 73.1966C74.5243 73.1966 74.1936 73.1326 73.9003 73.0046C73.6123 72.8713 73.3856 72.69 73.2203 72.4606C73.055 72.226 72.9696 71.9566 72.9643 71.6526H73.7403C73.767 71.914 73.8736 72.1353 74.0603 72.3166C74.2523 72.4926 74.5296 72.5806 74.8923 72.5806C75.239 72.5806 75.511 72.4953 75.7083 72.3246C75.911 72.1486 76.0123 71.9246 76.0123 71.6526C76.0123 71.4393 75.9536 71.266 75.8363 71.1326C75.719 70.9993 75.5723 70.898 75.3963 70.8286C75.2203 70.7593 74.983 70.6846 74.6843 70.6046C74.3163 70.5086 74.0203 70.4126 73.7963 70.3166C73.5776 70.2206 73.3883 70.0713 73.2283 69.8686C73.0736 69.6606 72.9963 69.3833 72.9963 69.0366C72.9963 68.7326 73.0736 68.4633 73.2283 68.2286C73.383 67.994 73.599 67.8126 73.8763 67.6846C74.159 67.5566 74.4816 67.4926 74.8443 67.4926C75.367 67.4926 75.7936 67.6233 76.1243 67.8846C76.4603 68.146 76.6496 68.4926 76.6923 68.9246H75.8923C75.8656 68.7113 75.7536 68.5246 75.5563 68.3646C75.359 68.1993 75.0976 68.1166 74.7723 68.1166C74.4683 68.1166 74.2203 68.1966 74.0283 68.3566C73.8363 68.5113 73.7403 68.73 73.7403 69.0126C73.7403 69.2153 73.7963 69.3806 73.9083 69.5086C74.0256 69.6366 74.167 69.7353 74.3323 69.8046C74.503 69.8686 74.7403 69.9433 75.0443 70.0286C75.4123 70.13 75.7083 70.2313 75.9323 70.3326C76.1563 70.4286 76.3483 70.5806 76.5083 70.7886C76.6683 70.9913 76.7483 71.2686 76.7483 71.6206C76.7483 71.8926 76.6763 72.1486 76.5323 72.3886C76.3883 72.6286 76.175 72.8233 75.8923 72.9726C75.6096 73.122 75.2763 73.1966 74.8923 73.1966ZM61.0791 85.5646C61.6871 85.5646 62.2124 85.6793 62.6551 85.9086C63.1031 86.1326 63.4444 86.4553 63.6791 86.8766C63.9191 87.298 64.0391 87.794 64.0391 88.3646C64.0391 88.9353 63.9191 89.4313 63.6791 89.8526C63.4444 90.2686 63.1031 90.5886 62.6551 90.8126C62.2124 91.0313 61.6871 91.1406 61.0791 91.1406H59.3431V85.5646H61.0791ZM61.0791 90.5406C61.7991 90.5406 62.3484 90.3513 62.7271 89.9726C63.1057 89.5886 63.2951 89.0526 63.2951 88.3646C63.2951 87.6713 63.1031 87.13 62.7191 86.7406C62.3404 86.3513 61.7937 86.1566 61.0791 86.1566H60.0711V90.5406H61.0791ZM65.7273 86.1566V88.0206H67.7593V88.6206H65.7273V90.5406H67.9993V91.1406H64.9993V85.5566H67.9993V86.1566H65.7273ZM71.8929 88.2686C72.0955 88.3006 72.2795 88.3833 72.4449 88.5166C72.6155 88.65 72.7489 88.8153 72.8449 89.0126C72.9462 89.21 72.9969 89.4206 72.9969 89.6446C72.9969 89.9273 72.9249 90.1833 72.7809 90.4126C72.6369 90.6366 72.4262 90.8153 72.1489 90.9486C71.8769 91.0766 71.5542 91.1406 71.1809 91.1406H69.1009V85.5646H71.1009C71.4795 85.5646 71.8022 85.6286 72.0689 85.7566C72.3355 85.8793 72.5355 86.0473 72.6689 86.2606C72.8022 86.474 72.8689 86.714 72.8689 86.9806C72.8689 87.3113 72.7782 87.586 72.5969 87.8046C72.4209 88.018 72.1862 88.1726 71.8929 88.2686ZM69.8289 87.9726H71.0529C71.3942 87.9726 71.6582 87.8926 71.8449 87.7326C72.0315 87.5726 72.1249 87.3513 72.1249 87.0686C72.1249 86.786 72.0315 86.5646 71.8449 86.4046C71.6582 86.2446 71.3889 86.1646 71.0369 86.1646H69.8289V87.9726ZM71.1169 90.5406C71.4795 90.5406 71.7622 90.4553 71.9649 90.2846C72.1675 90.114 72.2689 89.8766 72.2689 89.5726C72.2689 89.2633 72.1622 89.0206 71.9489 88.8446C71.7355 88.6633 71.4502 88.5726 71.0929 88.5726H69.8289V90.5406H71.1169ZM77.4391 85.5646V86.1566H75.9191V91.1406H75.1911V86.1566H73.6631V85.5646H77.4391ZM61.1111 110.197C60.7431 110.197 60.4124 110.133 60.1191 110.005C59.8311 109.871 59.6044 109.69 59.4391 109.461C59.2737 109.226 59.1884 108.957 59.1831 108.653H59.9591C59.9857 108.914 60.0924 109.135 60.2791 109.317C60.4711 109.493 60.7484 109.581 61.1111 109.581C61.4577 109.581 61.7297 109.495 61.9271 109.325C62.1297 109.149 62.2311 108.925 62.2311 108.653C62.2311 108.439 62.1724 108.266 62.0551 108.133C61.9377 107.999 61.7911 107.898 61.6151 107.829C61.4391 107.759 61.2017 107.685 60.9031 107.605C60.5351 107.509 60.2391 107.413 60.0151 107.317C59.7964 107.221 59.6071 107.071 59.4471 106.869C59.2924 106.661 59.2151 106.383 59.2151 106.037C59.2151 105.733 59.2924 105.463 59.4471 105.229C59.6017 104.994 59.8177 104.813 60.0951 104.685C60.3777 104.557 60.7004 104.493 61.0631 104.493C61.5857 104.493 62.0124 104.623 62.3431 104.885C62.6791 105.146 62.8684 105.493 62.9111 105.925H62.1111C62.0844 105.711 61.9724 105.525 61.7751 105.365C61.5777 105.199 61.3164 105.117 60.9911 105.117C60.6871 105.117 60.4391 105.197 60.2471 105.357C60.0551 105.511 59.9591 105.73 59.9591 106.013C59.9591 106.215 60.0151 106.381 60.1271 106.509C60.2444 106.637 60.3857 106.735 60.5511 106.805C60.7217 106.869 60.9591 106.943 61.2631 107.029C61.6311 107.13 61.9271 107.231 62.1511 107.333C62.3751 107.429 62.5671 107.581 62.7271 107.789C62.8871 107.991 62.9671 108.269 62.9671 108.621C62.9671 108.893 62.8951 109.149 62.7511 109.389C62.6071 109.629 62.3937 109.823 62.1111 109.973C61.8284 110.122 61.4951 110.197 61.1111 110.197ZM67.3344 108.901H64.9024L64.4544 110.141H63.6864L65.7024 104.597H66.5424L68.5504 110.141H67.7824L67.3344 108.901ZM67.1264 108.309L66.1184 105.493L65.1104 108.309H67.1264ZM74.037 104.565L71.933 110.141H71.093L68.989 104.565H69.765L71.517 109.373L73.269 104.565H74.037ZM75.5632 104.565V110.141H74.8352V104.565H75.5632ZM81.188 110.141H80.46L77.532 105.701V110.141H76.804V104.557H77.532L80.46 108.989V104.557H81.188V110.141ZM86.653 106.181C86.4983 105.855 86.2743 105.605 85.981 105.429C85.6877 105.247 85.3463 105.157 84.957 105.157C84.5677 105.157 84.2157 105.247 83.901 105.429C83.5917 105.605 83.3463 105.861 83.165 106.197C82.989 106.527 82.901 106.911 82.901 107.349C82.901 107.786 82.989 108.17 83.165 108.501C83.3463 108.831 83.5917 109.087 83.901 109.269C84.2157 109.445 84.5677 109.533 84.957 109.533C85.501 109.533 85.949 109.37 86.301 109.045C86.653 108.719 86.8583 108.279 86.917 107.725H84.693V107.133H87.693V107.693C87.6503 108.151 87.5063 108.573 87.261 108.957C87.0157 109.335 86.693 109.637 86.293 109.861C85.893 110.079 85.4477 110.189 84.957 110.189C84.4397 110.189 83.9677 110.069 83.541 109.829C83.1143 109.583 82.7757 109.245 82.525 108.813C82.2797 108.381 82.157 107.893 82.157 107.349C82.157 106.805 82.2797 106.317 82.525 105.885C82.7757 105.447 83.1143 105.109 83.541 104.869C83.9677 104.623 84.4397 104.501 84.957 104.501C85.549 104.501 86.0717 104.647 86.525 104.941C86.9837 105.234 87.317 105.647 87.525 106.181H86.653ZM90.4236 110.197C90.0556 110.197 89.7249 110.133 89.4316 110.005C89.1436 109.871 88.9169 109.69 88.7516 109.461C88.5862 109.226 88.5009 108.957 88.4956 108.653H89.2716C89.2982 108.914 89.4049 109.135 89.5916 109.317C89.7836 109.493 90.0609 109.581 90.4236 109.581C90.7702 109.581 91.0422 109.495 91.2396 109.325C91.4422 109.149 91.5436 108.925 91.5436 108.653C91.5436 108.439 91.4849 108.266 91.3676 108.133C91.2502 107.999 91.1036 107.898 90.9276 107.829C90.7516 107.759 90.5142 107.685 90.2156 107.605C89.8476 107.509 89.5516 107.413 89.3276 107.317C89.1089 107.221 88.9196 107.071 88.7596 106.869C88.6049 106.661 88.5276 106.383 88.5276 106.037C88.5276 105.733 88.6049 105.463 88.7596 105.229C88.9142 104.994 89.1302 104.813 89.4076 104.685C89.6902 104.557 90.0129 104.493 90.3756 104.493C90.8982 104.493 91.3249 104.623 91.6556 104.885C91.9916 105.146 92.1809 105.493 92.2236 105.925H91.4236C91.3969 105.711 91.2849 105.525 91.0876 105.365C90.8902 105.199 90.6289 105.117 90.3036 105.117C89.9996 105.117 89.7516 105.197 89.5596 105.357C89.3676 105.511 89.2716 105.73 89.2716 106.013C89.2716 106.215 89.3276 106.381 89.4396 106.509C89.5569 106.637 89.6982 106.735 89.8636 106.805C90.0342 106.869 90.2716 106.943 90.5756 107.029C90.9436 107.13 91.2396 107.231 91.4636 107.333C91.6876 107.429 91.8796 107.581 92.0396 107.789C92.1996 107.991 92.2796 108.269 92.2796 108.621C92.2796 108.893 92.2076 109.149 92.0636 109.389C91.9196 109.629 91.7062 109.823 91.4236 109.973C91.1409 110.122 90.8076 110.197 90.4236 110.197ZM62.7751 123.565V124.157H61.2551V129.141H60.5271V124.157H58.9991V123.565H62.7751ZM66.6072 129.141L65.2792 126.861H64.3992V129.141H63.6712V123.565H65.4712C65.8925 123.565 66.2472 123.637 66.5352 123.781C66.8285 123.925 67.0472 124.119 67.1912 124.365C67.3352 124.61 67.4072 124.89 67.4072 125.205C67.4072 125.589 67.2952 125.927 67.0712 126.221C66.8525 126.514 66.5218 126.709 66.0792 126.805L67.4792 129.141H66.6072ZM64.3992 126.277H65.4712C65.8658 126.277 66.1618 126.181 66.3592 125.989C66.5565 125.791 66.6552 125.53 66.6552 125.205C66.6552 124.874 66.5565 124.618 66.3592 124.437C66.1672 124.255 65.8712 124.165 65.4712 124.165H64.3992V126.277ZM71.8344 127.901H69.4024L68.9544 129.141H68.1864L70.2024 123.597H71.0424L73.0504 129.141H72.2824L71.8344 127.901ZM71.6264 127.309L70.6184 124.493L69.6104 127.309H71.6264ZM78.313 129.141H77.585L74.657 124.701V129.141H73.929V123.557H74.657L77.585 127.989V123.557H78.313V129.141ZM81.322 129.197C80.954 129.197 80.6233 129.133 80.33 129.005C80.042 128.871 79.8153 128.69 79.65 128.461C79.4847 128.226 79.3993 127.957 79.394 127.653H80.17C80.1967 127.914 80.3033 128.135 80.49 128.317C80.682 128.493 80.9593 128.581 81.322 128.581C81.6687 128.581 81.9407 128.495 82.138 128.325C82.3407 128.149 82.442 127.925 82.442 127.653C82.442 127.439 82.3833 127.266 82.266 127.133C82.1487 126.999 82.002 126.898 81.826 126.829C81.65 126.759 81.4127 126.685 81.114 126.605C80.746 126.509 80.45 126.413 80.226 126.317C80.0073 126.221 79.818 126.071 79.658 125.869C79.5033 125.661 79.426 125.383 79.426 125.037C79.426 124.733 79.5033 124.463 79.658 124.229C79.8127 123.994 80.0287 123.813 80.306 123.685C80.5887 123.557 80.9113 123.493 81.274 123.493C81.7967 123.493 82.2233 123.623 82.554 123.885C82.89 124.146 83.0793 124.493 83.122 124.925H82.322C82.2953 124.711 82.1833 124.525 81.986 124.365C81.7887 124.199 81.5273 124.117 81.202 124.117C80.898 124.117 80.65 124.197 80.458 124.357C80.266 124.511 80.17 124.73 80.17 125.013C80.17 125.215 80.226 125.381 80.338 125.509C80.4553 125.637 80.5967 125.735 80.762 125.805C80.9327 125.869 81.17 125.943 81.474 126.029C81.842 126.13 82.138 126.231 82.362 126.333C82.586 126.429 82.778 126.581 82.938 126.789C83.098 126.991 83.178 127.269 83.178 127.621C83.178 127.893 83.106 128.149 82.962 128.389C82.818 128.629 82.6047 128.823 82.322 128.973C82.0393 129.122 81.706 129.197 81.322 129.197ZM87.5453 127.901H85.1133L84.6653 129.141H83.8973L85.9133 123.597H86.7533L88.7613 129.141H87.9933L87.5453 127.901ZM87.3373 127.309L86.3293 124.493L85.3213 127.309H87.3373ZM89.3679 126.349C89.3679 125.805 89.4906 125.317 89.7359 124.885C89.9813 124.447 90.3146 124.106 90.7359 123.861C91.1626 123.615 91.6346 123.493 92.1519 123.493C92.7599 123.493 93.2906 123.639 93.7439 123.933C94.1973 124.226 94.5279 124.642 94.7359 125.181H93.8639C93.7093 124.845 93.4853 124.586 93.1919 124.405C92.9039 124.223 92.5573 124.133 92.1519 124.133C91.7626 124.133 91.4133 124.223 91.1039 124.405C90.7946 124.586 90.5519 124.845 90.3759 125.181C90.1999 125.511 90.1119 125.901 90.1119 126.349C90.1119 126.791 90.1999 127.181 90.3759 127.517C90.5519 127.847 90.7946 128.103 91.1039 128.285C91.4133 128.466 91.7626 128.557 92.1519 128.557C92.5573 128.557 92.9039 128.469 93.1919 128.293C93.4853 128.111 93.7093 127.853 93.8639 127.517H94.7359C94.5279 128.05 94.1973 128.463 93.7439 128.757C93.2906 129.045 92.7599 129.189 92.1519 129.189C91.6346 129.189 91.1626 129.069 90.7359 128.829C90.3146 128.583 89.9813 128.245 89.7359 127.813C89.4906 127.381 89.3679 126.893 89.3679 126.349ZM99.2516 123.565V124.157H97.7316V129.141H97.0036V124.157H95.4756V123.565H99.2516ZM100.876 123.565V129.141H100.148V123.565H100.876ZM104.644 129.197C104.127 129.197 103.655 129.077 103.228 128.837C102.802 128.591 102.463 128.253 102.212 127.821C101.967 127.383 101.844 126.893 101.844 126.349C101.844 125.805 101.967 125.317 102.212 124.885C102.463 124.447 102.802 124.109 103.228 123.869C103.655 123.623 104.127 123.501 104.644 123.501C105.167 123.501 105.642 123.623 106.068 123.869C106.495 124.109 106.831 124.445 107.076 124.877C107.322 125.309 107.444 125.799 107.444 126.349C107.444 126.898 107.322 127.389 107.076 127.821C106.831 128.253 106.495 128.591 106.068 128.837C105.642 129.077 105.167 129.197 104.644 129.197ZM104.644 128.565C105.034 128.565 105.383 128.474 105.692 128.293C106.007 128.111 106.252 127.853 106.428 127.517C106.61 127.181 106.7 126.791 106.7 126.349C106.7 125.901 106.61 125.511 106.428 125.181C106.252 124.845 106.01 124.586 105.7 124.405C105.391 124.223 105.039 124.133 104.644 124.133C104.25 124.133 103.898 124.223 103.588 124.405C103.279 124.586 103.034 124.845 102.852 125.181C102.676 125.511 102.588 125.901 102.588 126.349C102.588 126.791 102.676 127.181 102.852 127.517C103.034 127.853 103.279 128.111 103.588 128.293C103.903 128.474 104.255 128.565 104.644 128.565ZM112.79 129.141H112.062L109.134 124.701V129.141H108.406V123.557H109.134L112.062 127.989V123.557H112.79V129.141ZM62.1351 144.269C62.3377 144.301 62.5217 144.383 62.6871 144.517C62.8577 144.65 62.9911 144.815 63.0871 145.013C63.1884 145.21 63.2391 145.421 63.2391 145.645C63.2391 145.927 63.1671 146.183 63.0231 146.413C62.8791 146.637 62.6684 146.815 62.3911 146.949C62.1191 147.077 61.7964 147.141 61.4231 147.141H59.3431V141.565H61.3431C61.7217 141.565 62.0444 141.629 62.3111 141.757C62.5777 141.879 62.7777 142.047 62.9111 142.261C63.0444 142.474 63.1111 142.714 63.1111 142.981C63.1111 143.311 63.0204 143.586 62.8391 143.805C62.6631 144.018 62.4284 144.173 62.1351 144.269ZM60.0711 143.973H61.2951C61.6364 143.973 61.9004 143.893 62.0871 143.733C62.2737 143.573 62.3671 143.351 62.3671 143.069C62.3671 142.786 62.2737 142.565 62.0871 142.405C61.9004 142.245 61.6311 142.165 61.2791 142.165H60.0711V143.973ZM61.3591 146.541C61.7217 146.541 62.0044 146.455 62.2071 146.285C62.4097 146.114 62.5111 145.877 62.5111 145.573C62.5111 145.263 62.4044 145.021 62.1911 144.845C61.9777 144.663 61.6924 144.573 61.3351 144.573H60.0711V146.541H61.3591ZM64.9613 141.565V145.093C64.9613 145.589 65.0813 145.957 65.3213 146.197C65.5666 146.437 65.9053 146.557 66.3373 146.557C66.764 146.557 67.0973 146.437 67.3373 146.197C67.5826 145.957 67.7053 145.589 67.7053 145.093V141.565H68.4333V145.085C68.4333 145.549 68.34 145.941 68.1533 146.261C67.9666 146.575 67.7133 146.81 67.3933 146.965C67.0786 147.119 66.724 147.197 66.3293 147.197C65.9346 147.197 65.5773 147.119 65.2573 146.965C64.9426 146.81 64.692 146.575 64.5053 146.261C64.324 145.941 64.2333 145.549 64.2333 145.085V141.565H64.9613ZM71.3837 141.565C71.9917 141.565 72.5171 141.679 72.9597 141.909C73.4077 142.133 73.7491 142.455 73.9837 142.877C74.2237 143.298 74.3437 143.794 74.3437 144.365C74.3437 144.935 74.2237 145.431 73.9837 145.853C73.7491 146.269 73.4077 146.589 72.9597 146.813C72.5171 147.031 71.9917 147.141 71.3837 147.141H69.6477V141.565H71.3837ZM71.3837 146.541C72.1037 146.541 72.6531 146.351 73.0317 145.973C73.4104 145.589 73.5997 145.053 73.5997 144.365C73.5997 143.671 73.4077 143.13 73.0237 142.741C72.6451 142.351 72.0984 142.157 71.3837 142.157H70.3757V146.541H71.3837ZM79.528 143.181C79.3733 142.855 79.1493 142.605 78.856 142.429C78.5627 142.247 78.2213 142.157 77.832 142.157C77.4427 142.157 77.0907 142.247 76.776 142.429C76.4667 142.605 76.2213 142.861 76.04 143.197C75.864 143.527 75.776 143.911 75.776 144.349C75.776 144.786 75.864 145.17 76.04 145.501C76.2213 145.831 76.4667 146.087 76.776 146.269C77.0907 146.445 77.4427 146.533 77.832 146.533C78.376 146.533 78.824 146.37 79.176 146.045C79.528 145.719 79.7333 145.279 79.792 144.725H77.568V144.133H80.568V144.693C80.5253 145.151 80.3813 145.573 80.136 145.957C79.8907 146.335 79.568 146.637 79.168 146.861C78.768 147.079 78.3227 147.189 77.832 147.189C77.3147 147.189 76.8427 147.069 76.416 146.829C75.9893 146.583 75.6507 146.245 75.4 145.813C75.1547 145.381 75.032 144.893 75.032 144.349C75.032 143.805 75.1547 143.317 75.4 142.885C75.6507 142.447 75.9893 142.109 76.416 141.869C76.8427 141.623 77.3147 141.501 77.832 141.501C78.424 141.501 78.9467 141.647 79.4 141.941C79.8587 142.234 80.192 142.647 80.4 143.181H79.528ZM82.2586 142.157V144.021H84.2906V144.621H82.2586V146.541H84.5306V147.141H81.5306V141.557H84.5306V142.157H82.2586ZM89.0641 141.565V142.157H87.5441V147.141H86.8161V142.157H85.2881V141.565H89.0641Z" fill="black"/>
</g>
<defs>
<clipPath id="clip0_149_23282">
<rect width="145.996" height="294.006" fill="white" transform="translate(0.664551 0.837891)"/>
</clipPath>
</defs>
</svg>
