<svg width="147" height="295" viewBox="0 0 147 295" fill="none" xmlns="http://www.w3.org/2000/svg">
<g clip-path="url(#clip0_149_23178)">
<path d="M146.865 74.395H145.889L145.882 22.311C145.882 10.5097 136.224 0.845013 124.415 0.845013L23.2261 0.837891C11.4171 0.837891 1.75197 10.4955 1.75909 22.3039V45.2585H0.804688V55.3505H1.75909V66.5607H0.804688V86.7519H1.75909V93.6247H0.804688V113.816H1.76622L1.78046 270.082C1.78046 281.883 11.4385 291.548 23.2475 291.548L124.436 291.555C136.245 291.555 145.91 281.898 145.903 270.089L145.889 106.701H146.865V74.395V74.395Z" fill="#BCBCBC"/>
<path d="M124.694 290.542L22.9987 290.535C11.8876 290.535 2.79216 281.44 2.79216 270.33L2.76367 22.0531C2.76367 10.9355 11.8591 1.84766 22.9702 1.84766L124.665 1.85478C135.776 1.85478 144.872 10.9497 144.872 22.0602L144.9 270.337C144.9 281.455 135.812 290.542 124.694 290.542Z" fill="#DBDBDB"/>
<path d="M136.715 24.4261C136.715 16.2998 130.063 9.65487 121.936 9.64775H105.747C105.063 9.64775 104.508 10.2033 104.508 10.887C104.508 15.6374 100.619 19.5261 95.8685 19.5261H47.4864C42.7358 19.5261 38.847 15.6374 38.847 10.887V10.8799C38.847 10.1962 38.2915 9.64062 37.6078 9.64062H25.6636C17.537 9.64062 10.8848 16.2927 10.8848 24.419L10.9061 267.383C10.9061 275.509 17.5584 282.154 25.685 282.161L121.965 282.168C130.091 282.168 136.744 275.516 136.744 267.39L136.715 24.4261Z" fill="white"/>
<path d="M80.5655 13.9915H67.3751C66.7561 13.9915 66.251 13.4743 66.251 12.8405C66.251 12.2067 66.7561 11.6895 67.3751 11.6895H80.5655C81.1845 11.6895 81.6897 12.2067 81.6897 12.8405C81.6897 13.4743 81.1845 13.9915 80.5655 13.9915Z" fill="white"/>
<path d="M88.5705 13.6639C89.0339 13.6639 89.4096 13.2958 89.4096 12.8417C89.4096 12.3876 89.0339 12.0195 88.5705 12.0195C88.1071 12.0195 87.7314 12.3876 87.7314 12.8417C87.7314 13.2958 88.1071 13.6639 88.5705 13.6639Z" fill="white"/>
<path d="M88.5699 14.3211C89.404 14.3211 90.0802 13.6585 90.0802 12.8412C90.0802 12.0239 89.404 11.3613 88.5699 11.3613C87.7358 11.3613 87.0596 12.0239 87.0596 12.8412C87.0596 13.6585 87.7358 14.3211 88.5699 14.3211Z" stroke="white" stroke-width="0.31034" stroke-miterlimit="10"/>
<rect x="17.5854" y="66.2832" width="112.098" height="95.6527" rx="6.71247" fill="#C4C4C4"/>
<rect x="17.2505" y="254.232" width="18.7949" height="18.7949" rx="9.39745" fill="#C4C4C4"/>
<rect x="40.7437" y="254.232" width="18.7949" height="18.7949" rx="9.39745" fill="#C4C4C4"/>
<rect x="64.2373" y="254.232" width="18.7949" height="18.7949" rx="9.39745" fill="#C4C4C4"/>
<rect x="87.7314" y="254.232" width="18.7949" height="18.7949" rx="9.39745" fill="#C4C4C4"/>
<rect x="111.225" y="254.232" width="18.7949" height="18.7949" rx="9.39745" fill="#C4C4C4"/>
<path d="M95.174 279.715H52.0954C51.5754 279.715 51.1479 279.27 51.1479 278.729C51.1479 278.187 51.5754 277.742 52.0954 277.742H95.174C95.694 277.742 96.1215 278.187 96.1215 278.729C96.1144 279.27 95.694 279.715 95.174 279.715Z" fill="#BFBFBF"/>
<rect x="111.225" y="16.2754" width="18.7949" height="18.7949" rx="9.39745" fill="#C4C4C4"/>
<path d="M120.79 21.3105L120.79 30.0368M116.259 25.5058H125.321" stroke="black" stroke-width="0.671247"/>
<rect x="17.9214" y="169" width="112.098" height="21.8155" rx="6.71247" fill="#C4C4C4"/>
<rect x="17.9214" y="195" width="112.098" height="21.8155" rx="6.71247" fill="#C4C4C4"/>
<rect x="17.9214" y="222" width="112.098" height="21.8155" rx="6.71247" fill="#C4C4C4"/>
<path d="M25.3137 117.13C25.3137 116.586 25.4364 116.098 25.6817 115.666C25.9271 115.229 26.2604 114.887 26.6817 114.642C27.1084 114.397 27.5804 114.274 28.0977 114.274C28.7057 114.274 29.2364 114.421 29.6897 114.714C30.1431 115.007 30.4737 115.423 30.6817 115.962H29.8097C29.6551 115.626 29.4311 115.367 29.1377 115.186C28.8497 115.005 28.5031 114.914 28.0977 114.914C27.7084 114.914 27.3591 115.005 27.0497 115.186C26.7404 115.367 26.4977 115.626 26.3217 115.962C26.1457 116.293 26.0577 116.682 26.0577 117.13C26.0577 117.573 26.1457 117.962 26.3217 118.298C26.4977 118.629 26.7404 118.885 27.0497 119.066C27.3591 119.247 27.7084 119.338 28.0977 119.338C28.5031 119.338 28.8497 119.25 29.1377 119.074C29.4311 118.893 29.6551 118.634 29.8097 118.298H30.6817C30.4737 118.831 30.1431 119.245 29.6897 119.538C29.2364 119.826 28.7057 119.97 28.0977 119.97C27.5804 119.97 27.1084 119.85 26.6817 119.61C26.2604 119.365 25.9271 119.026 25.6817 118.594C25.4364 118.162 25.3137 117.674 25.3137 117.13ZM35.0614 118.682H32.6294L32.1814 119.922H31.4134L33.4294 114.378H34.2694L36.2774 119.922H35.5094L35.0614 118.682ZM34.8534 118.09L33.8454 115.274L32.8374 118.09H34.8534ZM37.884 119.33H39.836V119.922H37.156V114.346H37.884V119.33ZM41.3372 114.938V116.802H43.3692V117.402H41.3372V119.322H43.6092V119.922H40.6092V114.338H43.6092V114.938H41.3372ZM49.0947 119.922H48.3667L45.4387 115.482V119.922H44.7107V114.338H45.4387L48.3667 118.77V114.338H49.0947V119.922ZM52.0717 114.346C52.6797 114.346 53.2051 114.461 53.6477 114.69C54.0957 114.914 54.4371 115.237 54.6717 115.658C54.9117 116.079 55.0317 116.575 55.0317 117.146C55.0317 117.717 54.9117 118.213 54.6717 118.634C54.4371 119.05 54.0957 119.37 53.6477 119.594C53.2051 119.813 52.6797 119.922 52.0717 119.922H50.3357V114.346H52.0717ZM52.0717 119.322C52.7917 119.322 53.3411 119.133 53.7197 118.754C54.0984 118.37 54.2877 117.834 54.2877 117.146C54.2877 116.453 54.0957 115.911 53.7117 115.522C53.3331 115.133 52.7864 114.938 52.0717 114.938H51.0637V119.322H52.0717ZM59.288 118.682H56.856L56.408 119.922H55.64L57.656 114.378H58.496L60.504 119.922H59.736L59.288 118.682ZM59.08 118.09L58.072 115.274L57.064 118.09H59.08ZM64.3186 119.922L62.9906 117.642H62.1106V119.922H61.3826V114.346H63.1826C63.6039 114.346 63.9586 114.418 64.2466 114.562C64.5399 114.706 64.7586 114.901 64.9026 115.146C65.0466 115.391 65.1186 115.671 65.1186 115.986C65.1186 116.37 65.0066 116.709 64.7826 117.002C64.5639 117.295 64.2333 117.49 63.7906 117.586L65.1906 119.922H64.3186ZM62.1106 117.058H63.1826C63.5773 117.058 63.8733 116.962 64.0706 116.77C64.2679 116.573 64.3666 116.311 64.3666 115.986C64.3666 115.655 64.2679 115.399 64.0706 115.218C63.8786 115.037 63.5826 114.946 63.1826 114.946H62.1106V117.058Z" fill="black"/>
<path d="M26.3137 177.424V183H25.5857V177.424H26.3137ZM31.9385 183H31.2105L28.2825 178.56V183H27.5545V177.416H28.2825L31.2105 181.848V177.416H31.9385V183ZM32.9075 180.208C32.9075 179.664 33.0301 179.176 33.2755 178.744C33.5208 178.307 33.8541 177.965 34.2755 177.72C34.7021 177.475 35.1741 177.352 35.6915 177.352C36.2995 177.352 36.8301 177.499 37.2835 177.792C37.7368 178.085 38.0675 178.501 38.2755 179.04H37.4035C37.2488 178.704 37.0248 178.445 36.7315 178.264C36.4435 178.083 36.0968 177.992 35.6915 177.992C35.3021 177.992 34.9528 178.083 34.6435 178.264C34.3341 178.445 34.0915 178.704 33.9155 179.04C33.7395 179.371 33.6515 179.76 33.6515 180.208C33.6515 180.651 33.7395 181.04 33.9155 181.376C34.0915 181.707 34.3341 181.963 34.6435 182.144C34.9528 182.325 35.3021 182.416 35.6915 182.416C36.0968 182.416 36.4435 182.328 36.7315 182.152C37.0248 181.971 37.2488 181.712 37.4035 181.376H38.2755C38.0675 181.909 37.7368 182.323 37.2835 182.616C36.8301 182.904 36.2995 183.048 35.6915 183.048C35.1741 183.048 34.7021 182.928 34.2755 182.688C33.8541 182.443 33.5208 182.104 33.2755 181.672C33.0301 181.24 32.9075 180.752 32.9075 180.208ZM41.8872 183.056C41.3698 183.056 40.8978 182.936 40.4712 182.696C40.0445 182.451 39.7058 182.112 39.4552 181.68C39.2098 181.243 39.0872 180.752 39.0872 180.208C39.0872 179.664 39.2098 179.176 39.4552 178.744C39.7058 178.307 40.0445 177.968 40.4712 177.728C40.8978 177.483 41.3698 177.36 41.8872 177.36C42.4098 177.36 42.8845 177.483 43.3112 177.728C43.7378 177.968 44.0738 178.304 44.3192 178.736C44.5645 179.168 44.6872 179.659 44.6872 180.208C44.6872 180.757 44.5645 181.248 44.3192 181.68C44.0738 182.112 43.7378 182.451 43.3112 182.696C42.8845 182.936 42.4098 183.056 41.8872 183.056ZM41.8872 182.424C42.2765 182.424 42.6258 182.333 42.9352 182.152C43.2498 181.971 43.4952 181.712 43.6712 181.376C43.8525 181.04 43.9432 180.651 43.9432 180.208C43.9432 179.76 43.8525 179.371 43.6712 179.04C43.4952 178.704 43.2525 178.445 42.9432 178.264C42.6338 178.083 42.2818 177.992 41.8872 177.992C41.4925 177.992 41.1405 178.083 40.8312 178.264C40.5218 178.445 40.2765 178.704 40.0952 179.04C39.9192 179.371 39.8312 179.76 39.8312 180.208C39.8312 180.651 39.9192 181.04 40.0952 181.376C40.2765 181.712 40.5218 181.971 40.8312 182.152C41.1458 182.333 41.4978 182.424 41.8872 182.424ZM51.3042 177.464V183H50.5762V178.872L48.7362 183H48.2242L46.3762 178.864V183H45.6482V177.464H46.4322L48.4802 182.04L50.5282 177.464H51.3042ZM53.2669 178.016V179.88H55.2989V180.48H53.2669V182.4H55.5389V183H52.5389V177.416H55.5389V178.016H53.2669ZM59.5012 177.424V183H58.7732V177.424H59.5012ZM65.126 183H64.398L61.47 178.56V183H60.742V177.416H61.47L64.398 181.848V177.416H65.126V183ZM69.519 177.424V178.016H67.095V179.896H69.063V180.488H67.095V183H66.367V177.424H69.519ZM72.9262 183.056C72.4089 183.056 71.9369 182.936 71.5102 182.696C71.0836 182.451 70.7449 182.112 70.4942 181.68C70.2489 181.243 70.1262 180.752 70.1262 180.208C70.1262 179.664 70.2489 179.176 70.4942 178.744C70.7449 178.307 71.0836 177.968 71.5102 177.728C71.9369 177.483 72.4089 177.36 72.9262 177.36C73.4489 177.36 73.9236 177.483 74.3502 177.728C74.7769 177.968 75.1129 178.304 75.3582 178.736C75.6036 179.168 75.7262 179.659 75.7262 180.208C75.7262 180.757 75.6036 181.248 75.3582 181.68C75.1129 182.112 74.7769 182.451 74.3502 182.696C73.9236 182.936 73.4489 183.056 72.9262 183.056ZM72.9262 182.424C73.3156 182.424 73.6649 182.333 73.9742 182.152C74.2889 181.971 74.5342 181.712 74.7102 181.376C74.8916 181.04 74.9822 180.651 74.9822 180.208C74.9822 179.76 74.8916 179.371 74.7102 179.04C74.5342 178.704 74.2916 178.445 73.9822 178.264C73.6729 178.083 73.3209 177.992 72.9262 177.992C72.5316 177.992 72.1796 178.083 71.8702 178.264C71.5609 178.445 71.3156 178.704 71.1342 179.04C70.9582 179.371 70.8702 179.76 70.8702 180.208C70.8702 180.651 70.9582 181.04 71.1342 181.376C71.3156 181.712 71.5609 181.971 71.8702 182.152C72.1849 182.333 72.5369 182.424 72.9262 182.424Z" fill="black"/>
<path d="M28.3777 206.128C28.5804 206.16 28.7644 206.243 28.9297 206.376C29.1004 206.509 29.2337 206.675 29.3297 206.872C29.4311 207.069 29.4817 207.28 29.4817 207.504C29.4817 207.787 29.4097 208.043 29.2657 208.272C29.1217 208.496 28.9111 208.675 28.6337 208.808C28.3617 208.936 28.0391 209 27.6657 209H25.5857V203.424H27.5857C27.9644 203.424 28.2871 203.488 28.5537 203.616C28.8204 203.739 29.0204 203.907 29.1537 204.12C29.2871 204.333 29.3537 204.573 29.3537 204.84C29.3537 205.171 29.2631 205.445 29.0817 205.664C28.9057 205.877 28.6711 206.032 28.3777 206.128ZM26.3137 205.832H27.5377C27.8791 205.832 28.1431 205.752 28.3297 205.592C28.5164 205.432 28.6097 205.211 28.6097 204.928C28.6097 204.645 28.5164 204.424 28.3297 204.264C28.1431 204.104 27.8737 204.024 27.5217 204.024H26.3137V205.832ZM27.6017 208.4C27.9644 208.4 28.2471 208.315 28.4497 208.144C28.6524 207.973 28.7537 207.736 28.7537 207.432C28.7537 207.123 28.6471 206.88 28.4337 206.704C28.2204 206.523 27.9351 206.432 27.5777 206.432H26.3137V208.4H27.6017ZM31.22 203.424V209H30.492V203.424H31.22ZM33.1887 208.408H35.1407V209H32.4607V203.424H33.1887V208.408ZM36.6419 208.408H38.5939V209H35.9139V203.424H36.6419V208.408ZM42.2278 203.424V209H41.4998V203.424H42.2278ZM47.8525 209H47.1245L44.1965 204.56V209H43.4685V203.416H44.1965L47.1245 207.848V203.416H47.8525V209ZM52.2455 203.424V204.016H49.8215V205.896H51.7895V206.488H49.8215V209H49.0935V203.424H52.2455ZM55.6528 209.056C55.1355 209.056 54.6635 208.936 54.2368 208.696C53.8101 208.451 53.4715 208.112 53.2208 207.68C52.9755 207.243 52.8528 206.752 52.8528 206.208C52.8528 205.664 52.9755 205.176 53.2208 204.744C53.4715 204.307 53.8101 203.968 54.2368 203.728C54.6635 203.483 55.1355 203.36 55.6528 203.36C56.1755 203.36 56.6501 203.483 57.0768 203.728C57.5035 203.968 57.8395 204.304 58.0848 204.736C58.3301 205.168 58.4528 205.659 58.4528 206.208C58.4528 206.757 58.3301 207.248 58.0848 207.68C57.8395 208.112 57.5035 208.451 57.0768 208.696C56.6501 208.936 56.1755 209.056 55.6528 209.056ZM55.6528 208.424C56.0421 208.424 56.3915 208.333 56.7008 208.152C57.0155 207.971 57.2608 207.712 57.4368 207.376C57.6181 207.04 57.7088 206.651 57.7088 206.208C57.7088 205.76 57.6181 205.371 57.4368 205.04C57.2608 204.704 57.0181 204.445 56.7088 204.264C56.3995 204.083 56.0475 203.992 55.6528 203.992C55.2581 203.992 54.9061 204.083 54.5968 204.264C54.2875 204.445 54.0421 204.704 53.8608 205.04C53.6848 205.371 53.5968 205.76 53.5968 206.208C53.5968 206.651 53.6848 207.04 53.8608 207.376C54.0421 207.712 54.2875 207.971 54.5968 208.152C54.9115 208.333 55.2635 208.424 55.6528 208.424Z" fill="black"/>
<path d="M28.3777 233.128C28.5804 233.16 28.7644 233.243 28.9297 233.376C29.1004 233.509 29.2337 233.675 29.3297 233.872C29.4311 234.069 29.4817 234.28 29.4817 234.504C29.4817 234.787 29.4097 235.043 29.2657 235.272C29.1217 235.496 28.9111 235.675 28.6337 235.808C28.3617 235.936 28.0391 236 27.6657 236H25.5857V230.424H27.5857C27.9644 230.424 28.2871 230.488 28.5537 230.616C28.8204 230.739 29.0204 230.907 29.1537 231.12C29.2871 231.333 29.3537 231.573 29.3537 231.84C29.3537 232.171 29.2631 232.445 29.0817 232.664C28.9057 232.877 28.6711 233.032 28.3777 233.128ZM26.3137 232.832H27.5377C27.8791 232.832 28.1431 232.752 28.3297 232.592C28.5164 232.432 28.6097 232.211 28.6097 231.928C28.6097 231.645 28.5164 231.424 28.3297 231.264C28.1431 231.104 27.8737 231.024 27.5217 231.024H26.3137V232.832ZM27.6017 235.4C27.9644 235.4 28.2471 235.315 28.4497 235.144C28.6524 234.973 28.7537 234.736 28.7537 234.432C28.7537 234.123 28.6471 233.88 28.4337 233.704C28.2204 233.523 27.9351 233.432 27.5777 233.432H26.3137V235.4H27.6017ZM31.22 230.424V236H30.492V230.424H31.22ZM33.1887 235.408H35.1407V236H32.4607V230.424H33.1887V235.408ZM36.6419 235.408H38.5939V236H35.9139V230.424H36.6419V235.408ZM42.2278 230.424V236H41.4998V230.424H42.2278ZM47.8525 236H47.1245L44.1965 231.56V236H43.4685V230.416H44.1965L47.1245 234.848V230.416H47.8525V236ZM52.2455 230.424V231.016H49.8215V232.896H51.7895V233.488H49.8215V236H49.0935V230.424H52.2455ZM55.6528 236.056C55.1355 236.056 54.6635 235.936 54.2368 235.696C53.8101 235.451 53.4715 235.112 53.2208 234.68C52.9755 234.243 52.8528 233.752 52.8528 233.208C52.8528 232.664 52.9755 232.176 53.2208 231.744C53.4715 231.307 53.8101 230.968 54.2368 230.728C54.6635 230.483 55.1355 230.36 55.6528 230.36C56.1755 230.36 56.6501 230.483 57.0768 230.728C57.5035 230.968 57.8395 231.304 58.0848 231.736C58.3301 232.168 58.4528 232.659 58.4528 233.208C58.4528 233.757 58.3301 234.248 58.0848 234.68C57.8395 235.112 57.5035 235.451 57.0768 235.696C56.6501 235.936 56.1755 236.056 55.6528 236.056ZM55.6528 235.424C56.0421 235.424 56.3915 235.333 56.7008 235.152C57.0155 234.971 57.2608 234.712 57.4368 234.376C57.6181 234.04 57.7088 233.651 57.7088 233.208C57.7088 232.76 57.6181 232.371 57.4368 232.04C57.2608 231.704 57.0181 231.445 56.7088 231.264C56.3995 231.083 56.0475 230.992 55.6528 230.992C55.2581 230.992 54.9061 231.083 54.5968 231.264C54.2875 231.445 54.0421 231.704 53.8608 232.04C53.6848 232.371 53.5968 232.76 53.5968 233.208C53.5968 233.651 53.6848 234.04 53.8608 234.376C54.0421 234.712 54.2875 234.971 54.5968 235.152C54.9115 235.333 55.2635 235.424 55.6528 235.424Z" fill="black"/>
<rect x="17.9214" y="38" width="112.098" height="21.8155" rx="6.71247" fill="#C4C4C4"/>
<path d="M29.0177 46.424V47.016H27.4977V52H26.7697V47.016H25.2417V46.424H29.0177ZM32.4419 52.056C31.9245 52.056 31.4525 51.936 31.0259 51.696C30.5992 51.4507 30.2605 51.112 30.0099 50.68C29.7645 50.2427 29.6419 49.752 29.6419 49.208C29.6419 48.664 29.7645 48.176 30.0099 47.744C30.2605 47.3067 30.5992 46.968 31.0259 46.728C31.4525 46.4827 31.9245 46.36 32.4419 46.36C32.9645 46.36 33.4392 46.4827 33.8659 46.728C34.2925 46.968 34.6285 47.304 34.8739 47.736C35.1192 48.168 35.2419 48.6587 35.2419 49.208C35.2419 49.7573 35.1192 50.248 34.8739 50.68C34.6285 51.112 34.2925 51.4507 33.8659 51.696C33.4392 51.936 32.9645 52.056 32.4419 52.056ZM32.4419 51.424C32.8312 51.424 33.1805 51.3333 33.4899 51.152C33.8045 50.9707 34.0499 50.712 34.2259 50.376C34.4072 50.04 34.4979 49.6507 34.4979 49.208C34.4979 48.76 34.4072 48.3707 34.2259 48.04C34.0499 47.704 33.8072 47.4453 33.4979 47.264C33.1885 47.0827 32.8365 46.992 32.4419 46.992C32.0472 46.992 31.6952 47.0827 31.3859 47.264C31.0765 47.4453 30.8312 47.704 30.6499 48.04C30.4739 48.3707 30.3859 48.76 30.3859 49.208C30.3859 49.6507 30.4739 50.04 30.6499 50.376C30.8312 50.712 31.0765 50.9707 31.3859 51.152C31.7005 51.3333 32.0525 51.424 32.4419 51.424ZM39.6349 46.424V47.016H38.1149V52H37.3869V47.016H35.8589V46.424H39.6349ZM43.827 50.76H41.395L40.947 52H40.179L42.195 46.456H43.035L45.043 52H44.275L43.827 50.76ZM43.619 50.168L42.611 47.352L41.603 50.168H43.619ZM46.6497 51.408H48.6017V52H45.9217V46.424H46.6497V51.408ZM54.2996 49.128C54.5023 49.16 54.6863 49.2427 54.8516 49.376C55.0223 49.5093 55.1556 49.6747 55.2516 49.872C55.3529 50.0693 55.4036 50.28 55.4036 50.504C55.4036 50.7867 55.3316 51.0427 55.1876 51.272C55.0436 51.496 54.8329 51.6747 54.5556 51.808C54.2836 51.936 53.9609 52 53.5876 52H51.5076V46.424H53.5076C53.8863 46.424 54.2089 46.488 54.4756 46.616C54.7423 46.7387 54.9423 46.9067 55.0756 47.12C55.2089 47.3333 55.2756 47.5733 55.2756 47.84C55.2756 48.1707 55.1849 48.4453 55.0036 48.664C54.8276 48.8773 54.5929 49.032 54.2996 49.128ZM52.2356 48.832H53.4596C53.8009 48.832 54.0649 48.752 54.2516 48.592C54.4383 48.432 54.5316 48.2107 54.5316 47.928C54.5316 47.6453 54.4383 47.424 54.2516 47.264C54.0649 47.104 53.7956 47.024 53.4436 47.024H52.2356V48.832ZM53.5236 51.4C53.8863 51.4 54.1689 51.3147 54.3716 51.144C54.5743 50.9733 54.6756 50.736 54.6756 50.432C54.6756 50.1227 54.5689 49.88 54.3556 49.704C54.1423 49.5227 53.8569 49.432 53.4996 49.432H52.2356V51.4H53.5236ZM57.1419 46.424V52H56.4139V46.424H57.1419ZM59.1106 51.408H61.0626V52H58.3826V46.424H59.1106V51.408ZM62.5637 51.408H64.5157V52H61.8357V46.424H62.5637V51.408ZM69.9497 52.056C69.4323 52.056 68.9603 51.936 68.5337 51.696C68.107 51.4507 67.7683 51.112 67.5177 50.68C67.2723 50.2427 67.1497 49.752 67.1497 49.208C67.1497 48.664 67.2723 48.176 67.5177 47.744C67.7683 47.3067 68.107 46.968 68.5337 46.728C68.9603 46.4827 69.4323 46.36 69.9497 46.36C70.4723 46.36 70.947 46.4827 71.3737 46.728C71.8003 46.968 72.1363 47.304 72.3817 47.736C72.627 48.168 72.7497 48.6587 72.7497 49.208C72.7497 49.7573 72.627 50.248 72.3817 50.68C72.1363 51.112 71.8003 51.4507 71.3737 51.696C70.947 51.936 70.4723 52.056 69.9497 52.056ZM69.9497 51.424C70.339 51.424 70.6883 51.3333 70.9977 51.152C71.3123 50.9707 71.5577 50.712 71.7337 50.376C71.915 50.04 72.0057 49.6507 72.0057 49.208C72.0057 48.76 71.915 48.3707 71.7337 48.04C71.5577 47.704 71.315 47.4453 71.0057 47.264C70.6963 47.0827 70.3443 46.992 69.9497 46.992C69.555 46.992 69.203 47.0827 68.8937 47.264C68.5843 47.4453 68.339 47.704 68.1577 48.04C67.9817 48.3707 67.8937 48.76 67.8937 49.208C67.8937 49.6507 67.9817 50.04 68.1577 50.376C68.339 50.712 68.5843 50.9707 68.8937 51.152C69.2083 51.3333 69.5603 51.424 69.9497 51.424ZM78.3187 46.424L76.2147 52H75.3747L73.2707 46.424H74.0467L75.7987 51.232L77.5507 46.424H78.3187ZM79.845 47.016V48.88H81.877V49.48H79.845V51.4H82.117V52H79.117V46.416H82.117V47.016H79.845ZM86.1545 52L84.8265 49.72H83.9465V52H83.2185V46.424H85.0185C85.4399 46.424 85.7945 46.496 86.0825 46.64C86.3759 46.784 86.5945 46.9787 86.7385 47.224C86.8825 47.4693 86.9545 47.7493 86.9545 48.064C86.9545 48.448 86.8425 48.7867 86.6185 49.08C86.3999 49.3733 86.0692 49.568 85.6265 49.664L87.0265 52H86.1545ZM83.9465 49.136H85.0185C85.4132 49.136 85.7092 49.04 85.9065 48.848C86.1039 48.6507 86.2025 48.3893 86.2025 48.064C86.2025 47.7333 86.1039 47.4773 85.9065 47.296C85.7145 47.1147 85.4185 47.024 85.0185 47.024H83.9465V49.136ZM92.6937 46.424L90.5897 52H89.7497L87.6457 46.424H88.4217L90.1737 51.232L91.9257 46.424H92.6937ZM94.22 46.424V52H93.492V46.424H94.22ZM96.1887 47.016V48.88H98.2207V49.48H96.1887V51.4H98.4607V52H95.4607V46.416H98.4607V47.016H96.1887ZM106.57 46.424L104.954 52H104.138L102.842 47.512L101.498 52L100.69 52.008L99.1303 46.424H99.9063L101.122 51.152L102.466 46.424H103.282L104.562 51.136L105.786 46.424H106.57Z" fill="black"/>
</g>
<defs>
<clipPath id="clip0_149_23178">
<rect width="145.996" height="294.006" fill="white" transform="translate(0.804688 0.837891)"/>
</clipPath>
</defs>
</svg>
