<svg width="147" height="295" viewBox="0 0 147 295" fill="none" xmlns="http://www.w3.org/2000/svg">
<g clip-path="url(#clip0_149_23310)">
<path d="M146.759 74.395H145.783L145.776 22.311C145.776 10.5097 136.118 0.845013 124.309 0.845013L23.1207 0.837891C11.3117 0.837891 1.6465 10.4955 1.65363 22.3039V45.2585H0.699219V55.3505H1.65363V66.5607H0.699219V86.7519H1.65363V93.6247H0.699219V113.816H1.66075L1.67499 270.082C1.67499 281.883 11.333 291.548 23.142 291.548L124.331 291.555C136.14 291.555 145.805 281.898 145.798 270.089L145.783 106.701H146.759V74.395V74.395Z" fill="#BCBCBC"/>
<path d="M124.588 290.542L22.8932 290.535C11.7821 290.535 2.68669 281.44 2.68669 270.33L2.6582 22.0531C2.6582 10.9355 11.7536 1.84766 22.8647 1.84766L124.56 1.85478C135.671 1.85478 144.766 10.9497 144.766 22.0602L144.795 270.337C144.795 281.455 135.706 290.542 124.588 290.542Z" fill="#DBDBDB"/>
<path d="M136.61 24.4261C136.61 16.2998 129.957 9.65487 121.831 9.64775H105.642C104.958 9.64775 104.402 10.2033 104.402 10.887C104.402 15.6374 100.514 19.5261 95.763 19.5261H47.381C42.6304 19.5261 38.7416 15.6374 38.7416 10.887V10.8799C38.7416 10.1962 38.186 9.64062 37.5023 9.64062H25.5581C17.4316 9.64062 10.7793 16.2927 10.7793 24.419L10.8007 267.383C10.8007 275.509 17.4529 282.154 25.5795 282.161L121.859 282.168C129.986 282.168 136.638 275.516 136.638 267.39L136.61 24.4261Z" fill="white"/>
<path d="M80.4601 13.9915H67.2696C66.6506 13.9915 66.1455 13.4743 66.1455 12.8405C66.1455 12.2067 66.6506 11.6895 67.2696 11.6895H80.4601C81.079 11.6895 81.5842 12.2067 81.5842 12.8405C81.5842 13.4743 81.079 13.9915 80.4601 13.9915Z" fill="white"/>
<path d="M88.4645 13.6639C88.9279 13.6639 89.3036 13.2958 89.3036 12.8417C89.3036 12.3876 88.9279 12.0195 88.4645 12.0195C88.0011 12.0195 87.6255 12.3876 87.6255 12.8417C87.6255 13.2958 88.0011 13.6639 88.4645 13.6639Z" fill="white"/>
<path d="M88.4644 14.3211C89.2985 14.3211 89.9747 13.6585 89.9747 12.8412C89.9747 12.0239 89.2985 11.3613 88.4644 11.3613C87.6303 11.3613 86.9541 12.0239 86.9541 12.8412C86.9541 13.6585 87.6303 14.3211 88.4644 14.3211Z" stroke="white" stroke-width="0.31034" stroke-miterlimit="10"/>
<rect x="17.8159" y="62.2559" width="112.098" height="13.4249" rx="4.69873" fill="#C4C4C4"/>
<rect x="17.145" y="254.232" width="18.7949" height="18.7949" rx="9.39745" fill="#C4C4C4"/>
<rect x="40.6382" y="254.232" width="18.7949" height="18.7949" rx="9.39745" fill="#C4C4C4"/>
<rect x="64.1318" y="254.232" width="18.7949" height="18.7949" rx="9.39745" fill="#C4C4C4"/>
<rect x="87.6255" y="254.232" width="18.7949" height="18.7949" rx="9.39745" fill="#C4C4C4"/>
<rect x="111.119" y="254.232" width="18.7949" height="18.7949" rx="9.39745" fill="#C4C4C4"/>
<path d="M95.0685 279.715H51.99C51.4699 279.715 51.0425 279.27 51.0425 278.729C51.0425 278.187 51.4699 277.742 51.99 277.742H95.0685C95.5886 277.742 96.016 278.187 96.016 278.729C96.0089 279.27 95.5886 279.715 95.0685 279.715Z" fill="#BFBFBF"/>
<rect x="111.119" y="16.2754" width="18.7949" height="18.7949" rx="9.39745" fill="#C4C4C4"/>
<path d="M120.684 21.3105L120.684 30.0368M116.153 25.5058H125.215" stroke="black" stroke-width="0.671247"/>
<rect x="18" y="86" width="72.159" height="21.8155" rx="6.71247" fill="#C4C4C4"/>
<rect x="18" y="111" width="72.159" height="21.8155" rx="6.71247" fill="#C4C4C4"/>
<rect x="18" y="136" width="72.159" height="21.8155" rx="6.71247" fill="#C4C4C4"/>
<rect x="18" y="162" width="72.159" height="21.8155" rx="6.71247" fill="#C4C4C4"/>
<rect x="17.8159" y="193.484" width="112.098" height="58.0628" rx="6.71247" fill="#C4C4C4"/>
<path d="M31.408 97.128C31.6107 97.16 31.7947 97.2427 31.96 97.376C32.1307 97.5093 32.264 97.6747 32.36 97.872C32.4613 98.0693 32.512 98.28 32.512 98.504C32.512 98.7867 32.44 99.0427 32.296 99.272C32.152 99.496 31.9413 99.6747 31.664 99.808C31.392 99.936 31.0693 100 30.696 100H28.616V94.424H30.616C30.9947 94.424 31.3173 94.488 31.584 94.616C31.8507 94.7387 32.0507 94.9067 32.184 95.12C32.3173 95.3333 32.384 95.5733 32.384 95.84C32.384 96.1707 32.2933 96.4453 32.112 96.664C31.936 96.8773 31.7013 97.032 31.408 97.128ZM29.344 96.832H30.568C30.9093 96.832 31.1733 96.752 31.36 96.592C31.5467 96.432 31.64 96.2107 31.64 95.928C31.64 95.6453 31.5467 95.424 31.36 95.264C31.1733 95.104 30.904 95.024 30.552 95.024H29.344V96.832ZM30.632 99.4C30.9947 99.4 31.2773 99.3147 31.48 99.144C31.6827 98.9733 31.784 98.736 31.784 98.432C31.784 98.1227 31.6773 97.88 31.464 97.704C31.2507 97.5227 30.9653 97.432 30.608 97.432H29.344V99.4H30.632ZM34.2343 94.424V97.952C34.2343 98.448 34.3543 98.816 34.5943 99.056C34.8396 99.296 35.1783 99.416 35.6103 99.416C36.0369 99.416 36.3703 99.296 36.6103 99.056C36.8556 98.816 36.9783 98.448 36.9783 97.952V94.424H37.7063V97.944C37.7063 98.408 37.6129 98.8 37.4262 99.12C37.2396 99.4347 36.9863 99.6693 36.6663 99.824C36.3516 99.9787 35.9969 100.056 35.6023 100.056C35.2076 100.056 34.8503 99.9787 34.5303 99.824C34.2156 99.6693 33.9649 99.4347 33.7783 99.12C33.5969 98.8 33.5063 98.408 33.5063 97.944V94.424H34.2343ZM40.6567 94.424C41.2647 94.424 41.79 94.5387 42.2327 94.768C42.6807 94.992 43.022 95.3147 43.2567 95.736C43.4967 96.1573 43.6167 96.6533 43.6167 97.224C43.6167 97.7947 43.4967 98.2907 43.2567 98.712C43.022 99.128 42.6807 99.448 42.2327 99.672C41.79 99.8907 41.2647 100 40.6567 100H38.9207V94.424H40.6567ZM40.6567 99.4C41.3767 99.4 41.926 99.2107 42.3047 98.832C42.6834 98.448 42.8727 97.912 42.8727 97.224C42.8727 96.5307 42.6807 95.9893 42.2967 95.6C41.918 95.2107 41.3714 95.016 40.6567 95.016H39.6487V99.4H40.6567ZM48.8009 96.04C48.6463 95.7147 48.4223 95.464 48.1289 95.288C47.8356 95.1067 47.4943 95.016 47.1049 95.016C46.7156 95.016 46.3636 95.1067 46.0489 95.288C45.7396 95.464 45.4943 95.72 45.3129 96.056C45.1369 96.3867 45.0489 96.7707 45.0489 97.208C45.0489 97.6453 45.1369 98.0293 45.3129 98.36C45.4943 98.6907 45.7396 98.9467 46.0489 99.128C46.3636 99.304 46.7156 99.392 47.1049 99.392C47.6489 99.392 48.0969 99.2293 48.4489 98.904C48.8009 98.5787 49.0063 98.1387 49.0649 97.584H46.8409V96.992H49.8409V97.552C49.7983 98.0107 49.6543 98.432 49.4089 98.816C49.1636 99.1947 48.8409 99.496 48.4409 99.72C48.0409 99.9387 47.5956 100.048 47.1049 100.048C46.5876 100.048 46.1156 99.928 45.6889 99.688C45.2623 99.4427 44.9236 99.104 44.6729 98.672C44.4276 98.24 44.3049 97.752 44.3049 97.208C44.3049 96.664 44.4276 96.176 44.6729 95.744C44.9236 95.3067 45.2623 94.968 45.6889 94.728C46.1156 94.4827 46.5876 94.36 47.1049 94.36C47.6969 94.36 48.2196 94.5067 48.6729 94.8C49.1316 95.0933 49.4649 95.5067 49.6729 96.04H48.8009ZM51.5315 95.016V96.88H53.5635V97.48H51.5315V99.4H53.8035V100H50.8035V94.416H53.8035V95.016H51.5315ZM58.3371 94.424V95.016H56.8171V100H56.0891V95.016H54.5611V94.424H58.3371ZM62.094 94.424V100H61.366V94.424H62.094ZM67.7188 100H66.9908L64.0628 95.56V100H63.3348V94.416H64.0628L66.9908 98.848V94.416H67.7188V100ZM72.1118 94.424V95.016H69.6878V96.896H71.6558V97.488H69.6878V100H68.9598V94.424H72.1118ZM75.519 100.056C75.0017 100.056 74.5297 99.936 74.103 99.696C73.6763 99.4507 73.3377 99.112 73.087 98.68C72.8417 98.2427 72.719 97.752 72.719 97.208C72.719 96.664 72.8417 96.176 73.087 95.744C73.3377 95.3067 73.6763 94.968 74.103 94.728C74.5297 94.4827 75.0017 94.36 75.519 94.36C76.0417 94.36 76.5163 94.4827 76.943 94.728C77.3697 94.968 77.7057 95.304 77.951 95.736C78.1963 96.168 78.319 96.6587 78.319 97.208C78.319 97.7573 78.1963 98.248 77.951 98.68C77.7057 99.112 77.3697 99.4507 76.943 99.696C76.5163 99.936 76.0417 100.056 75.519 100.056ZM75.519 99.424C75.9083 99.424 76.2577 99.3333 76.567 99.152C76.8817 98.9707 77.127 98.712 77.303 98.376C77.4843 98.04 77.575 97.6507 77.575 97.208C77.575 96.76 77.4843 96.3707 77.303 96.04C77.127 95.704 76.8843 95.4453 76.575 95.264C76.2657 95.0827 75.9137 94.992 75.519 94.992C75.1243 94.992 74.7723 95.0827 74.463 95.264C74.1537 95.4453 73.9083 95.704 73.727 96.04C73.551 96.3707 73.463 96.76 73.463 97.208C73.463 97.6507 73.551 98.04 73.727 98.376C73.9083 98.712 74.1537 98.9707 74.463 99.152C74.7777 99.3333 75.1297 99.424 75.519 99.424Z" fill="black"/>
<path d="M31.408 122.128C31.6107 122.16 31.7947 122.243 31.96 122.376C32.1307 122.509 32.264 122.675 32.36 122.872C32.4613 123.069 32.512 123.28 32.512 123.504C32.512 123.787 32.44 124.043 32.296 124.272C32.152 124.496 31.9413 124.675 31.664 124.808C31.392 124.936 31.0693 125 30.696 125H28.616V119.424H30.616C30.9947 119.424 31.3173 119.488 31.584 119.616C31.8507 119.739 32.0507 119.907 32.184 120.12C32.3173 120.333 32.384 120.573 32.384 120.84C32.384 121.171 32.2933 121.445 32.112 121.664C31.936 121.877 31.7013 122.032 31.408 122.128ZM29.344 121.832H30.568C30.9093 121.832 31.1733 121.752 31.36 121.592C31.5467 121.432 31.64 121.211 31.64 120.928C31.64 120.645 31.5467 120.424 31.36 120.264C31.1733 120.104 30.904 120.024 30.552 120.024H29.344V121.832ZM30.632 124.4C30.9947 124.4 31.2773 124.315 31.48 124.144C31.6827 123.973 31.784 123.736 31.784 123.432C31.784 123.123 31.6773 122.88 31.464 122.704C31.2507 122.523 30.9653 122.432 30.608 122.432H29.344V124.4H30.632ZM34.2343 119.424V122.952C34.2343 123.448 34.3543 123.816 34.5943 124.056C34.8396 124.296 35.1783 124.416 35.6103 124.416C36.0369 124.416 36.3703 124.296 36.6103 124.056C36.8556 123.816 36.9783 123.448 36.9783 122.952V119.424H37.7063V122.944C37.7063 123.408 37.6129 123.8 37.4262 124.12C37.2396 124.435 36.9863 124.669 36.6663 124.824C36.3516 124.979 35.9969 125.056 35.6023 125.056C35.2076 125.056 34.8503 124.979 34.5303 124.824C34.2156 124.669 33.9649 124.435 33.7783 124.12C33.5969 123.8 33.5063 123.408 33.5063 122.944V119.424H34.2343ZM40.6567 119.424C41.2647 119.424 41.79 119.539 42.2327 119.768C42.6807 119.992 43.022 120.315 43.2567 120.736C43.4967 121.157 43.6167 121.653 43.6167 122.224C43.6167 122.795 43.4967 123.291 43.2567 123.712C43.022 124.128 42.6807 124.448 42.2327 124.672C41.79 124.891 41.2647 125 40.6567 125H38.9207V119.424H40.6567ZM40.6567 124.4C41.3767 124.4 41.926 124.211 42.3047 123.832C42.6834 123.448 42.8727 122.912 42.8727 122.224C42.8727 121.531 42.6807 120.989 42.2967 120.6C41.918 120.211 41.3714 120.016 40.6567 120.016H39.6487V124.4H40.6567ZM48.8009 121.04C48.6463 120.715 48.4223 120.464 48.1289 120.288C47.8356 120.107 47.4943 120.016 47.1049 120.016C46.7156 120.016 46.3636 120.107 46.0489 120.288C45.7396 120.464 45.4943 120.72 45.3129 121.056C45.1369 121.387 45.0489 121.771 45.0489 122.208C45.0489 122.645 45.1369 123.029 45.3129 123.36C45.4943 123.691 45.7396 123.947 46.0489 124.128C46.3636 124.304 46.7156 124.392 47.1049 124.392C47.6489 124.392 48.0969 124.229 48.4489 123.904C48.8009 123.579 49.0063 123.139 49.0649 122.584H46.8409V121.992H49.8409V122.552C49.7983 123.011 49.6543 123.432 49.4089 123.816C49.1636 124.195 48.8409 124.496 48.4409 124.72C48.0409 124.939 47.5956 125.048 47.1049 125.048C46.5876 125.048 46.1156 124.928 45.6889 124.688C45.2623 124.443 44.9236 124.104 44.6729 123.672C44.4276 123.24 44.3049 122.752 44.3049 122.208C44.3049 121.664 44.4276 121.176 44.6729 120.744C44.9236 120.307 45.2623 119.968 45.6889 119.728C46.1156 119.483 46.5876 119.36 47.1049 119.36C47.6969 119.36 48.2196 119.507 48.6729 119.8C49.1316 120.093 49.4649 120.507 49.6729 121.04H48.8009ZM51.5315 120.016V121.88H53.5635V122.48H51.5315V124.4H53.8035V125H50.8035V119.416H53.8035V120.016H51.5315ZM58.3371 119.424V120.016H56.8171V125H56.0891V120.016H54.5611V119.424H58.3371ZM62.094 119.424V125H61.366V119.424H62.094ZM67.7188 125H66.9908L64.0628 120.56V125H63.3348V119.416H64.0628L66.9908 123.848V119.416H67.7188V125ZM72.1118 119.424V120.016H69.6878V121.896H71.6558V122.488H69.6878V125H68.9598V119.424H72.1118ZM75.519 125.056C75.0017 125.056 74.5297 124.936 74.103 124.696C73.6763 124.451 73.3377 124.112 73.087 123.68C72.8417 123.243 72.719 122.752 72.719 122.208C72.719 121.664 72.8417 121.176 73.087 120.744C73.3377 120.307 73.6763 119.968 74.103 119.728C74.5297 119.483 75.0017 119.36 75.519 119.36C76.0417 119.36 76.5163 119.483 76.943 119.728C77.3697 119.968 77.7057 120.304 77.951 120.736C78.1963 121.168 78.319 121.659 78.319 122.208C78.319 122.757 78.1963 123.248 77.951 123.68C77.7057 124.112 77.3697 124.451 76.943 124.696C76.5163 124.936 76.0417 125.056 75.519 125.056ZM75.519 124.424C75.9083 124.424 76.2577 124.333 76.567 124.152C76.8817 123.971 77.127 123.712 77.303 123.376C77.4843 123.04 77.575 122.651 77.575 122.208C77.575 121.76 77.4843 121.371 77.303 121.04C77.127 120.704 76.8843 120.445 76.575 120.264C76.2657 120.083 75.9137 119.992 75.519 119.992C75.1243 119.992 74.7723 120.083 74.463 120.264C74.1537 120.445 73.9083 120.704 73.727 121.04C73.551 121.371 73.463 121.76 73.463 122.208C73.463 122.651 73.551 123.04 73.727 123.376C73.9083 123.712 74.1537 123.971 74.463 124.152C74.7777 124.333 75.1297 124.424 75.519 124.424Z" fill="black"/>
<path d="M31.408 147.128C31.6107 147.16 31.7947 147.243 31.96 147.376C32.1307 147.509 32.264 147.675 32.36 147.872C32.4613 148.069 32.512 148.28 32.512 148.504C32.512 148.787 32.44 149.043 32.296 149.272C32.152 149.496 31.9413 149.675 31.664 149.808C31.392 149.936 31.0693 150 30.696 150H28.616V144.424H30.616C30.9947 144.424 31.3173 144.488 31.584 144.616C31.8507 144.739 32.0507 144.907 32.184 145.12C32.3173 145.333 32.384 145.573 32.384 145.84C32.384 146.171 32.2933 146.445 32.112 146.664C31.936 146.877 31.7013 147.032 31.408 147.128ZM29.344 146.832H30.568C30.9093 146.832 31.1733 146.752 31.36 146.592C31.5467 146.432 31.64 146.211 31.64 145.928C31.64 145.645 31.5467 145.424 31.36 145.264C31.1733 145.104 30.904 145.024 30.552 145.024H29.344V146.832ZM30.632 149.4C30.9947 149.4 31.2773 149.315 31.48 149.144C31.6827 148.973 31.784 148.736 31.784 148.432C31.784 148.123 31.6773 147.88 31.464 147.704C31.2507 147.523 30.9653 147.432 30.608 147.432H29.344V149.4H30.632ZM34.2343 144.424V147.952C34.2343 148.448 34.3543 148.816 34.5943 149.056C34.8396 149.296 35.1783 149.416 35.6103 149.416C36.0369 149.416 36.3703 149.296 36.6103 149.056C36.8556 148.816 36.9783 148.448 36.9783 147.952V144.424H37.7063V147.944C37.7063 148.408 37.6129 148.8 37.4262 149.12C37.2396 149.435 36.9863 149.669 36.6663 149.824C36.3516 149.979 35.9969 150.056 35.6023 150.056C35.2076 150.056 34.8503 149.979 34.5303 149.824C34.2156 149.669 33.9649 149.435 33.7783 149.12C33.5969 148.8 33.5063 148.408 33.5063 147.944V144.424H34.2343ZM40.6567 144.424C41.2647 144.424 41.79 144.539 42.2327 144.768C42.6807 144.992 43.022 145.315 43.2567 145.736C43.4967 146.157 43.6167 146.653 43.6167 147.224C43.6167 147.795 43.4967 148.291 43.2567 148.712C43.022 149.128 42.6807 149.448 42.2327 149.672C41.79 149.891 41.2647 150 40.6567 150H38.9207V144.424H40.6567ZM40.6567 149.4C41.3767 149.4 41.926 149.211 42.3047 148.832C42.6834 148.448 42.8727 147.912 42.8727 147.224C42.8727 146.531 42.6807 145.989 42.2967 145.6C41.918 145.211 41.3714 145.016 40.6567 145.016H39.6487V149.4H40.6567ZM48.8009 146.04C48.6463 145.715 48.4223 145.464 48.1289 145.288C47.8356 145.107 47.4943 145.016 47.1049 145.016C46.7156 145.016 46.3636 145.107 46.0489 145.288C45.7396 145.464 45.4943 145.72 45.3129 146.056C45.1369 146.387 45.0489 146.771 45.0489 147.208C45.0489 147.645 45.1369 148.029 45.3129 148.36C45.4943 148.691 45.7396 148.947 46.0489 149.128C46.3636 149.304 46.7156 149.392 47.1049 149.392C47.6489 149.392 48.0969 149.229 48.4489 148.904C48.8009 148.579 49.0063 148.139 49.0649 147.584H46.8409V146.992H49.8409V147.552C49.7983 148.011 49.6543 148.432 49.4089 148.816C49.1636 149.195 48.8409 149.496 48.4409 149.72C48.0409 149.939 47.5956 150.048 47.1049 150.048C46.5876 150.048 46.1156 149.928 45.6889 149.688C45.2623 149.443 44.9236 149.104 44.6729 148.672C44.4276 148.24 44.3049 147.752 44.3049 147.208C44.3049 146.664 44.4276 146.176 44.6729 145.744C44.9236 145.307 45.2623 144.968 45.6889 144.728C46.1156 144.483 46.5876 144.36 47.1049 144.36C47.6969 144.36 48.2196 144.507 48.6729 144.8C49.1316 145.093 49.4649 145.507 49.6729 146.04H48.8009ZM51.5315 145.016V146.88H53.5635V147.48H51.5315V149.4H53.8035V150H50.8035V144.416H53.8035V145.016H51.5315ZM58.3371 144.424V145.016H56.8171V150H56.0891V145.016H54.5611V144.424H58.3371ZM62.094 144.424V150H61.366V144.424H62.094ZM67.7188 150H66.9908L64.0628 145.56V150H63.3348V144.416H64.0628L66.9908 148.848V144.416H67.7188V150ZM72.1118 144.424V145.016H69.6878V146.896H71.6558V147.488H69.6878V150H68.9598V144.424H72.1118ZM75.519 150.056C75.0017 150.056 74.5297 149.936 74.103 149.696C73.6763 149.451 73.3377 149.112 73.087 148.68C72.8417 148.243 72.719 147.752 72.719 147.208C72.719 146.664 72.8417 146.176 73.087 145.744C73.3377 145.307 73.6763 144.968 74.103 144.728C74.5297 144.483 75.0017 144.36 75.519 144.36C76.0417 144.36 76.5163 144.483 76.943 144.728C77.3697 144.968 77.7057 145.304 77.951 145.736C78.1963 146.168 78.319 146.659 78.319 147.208C78.319 147.757 78.1963 148.248 77.951 148.68C77.7057 149.112 77.3697 149.451 76.943 149.696C76.5163 149.936 76.0417 150.056 75.519 150.056ZM75.519 149.424C75.9083 149.424 76.2577 149.333 76.567 149.152C76.8817 148.971 77.127 148.712 77.303 148.376C77.4843 148.04 77.575 147.651 77.575 147.208C77.575 146.76 77.4843 146.371 77.303 146.04C77.127 145.704 76.8843 145.445 76.575 145.264C76.2657 145.083 75.9137 144.992 75.519 144.992C75.1243 144.992 74.7723 145.083 74.463 145.264C74.1537 145.445 73.9083 145.704 73.727 146.04C73.551 146.371 73.463 146.76 73.463 147.208C73.463 147.651 73.551 148.04 73.727 148.376C73.9083 148.712 74.1537 148.971 74.463 149.152C74.7777 149.333 75.1297 149.424 75.519 149.424Z" fill="black"/>
<path d="M31.408 173.128C31.6107 173.16 31.7947 173.243 31.96 173.376C32.1307 173.509 32.264 173.675 32.36 173.872C32.4613 174.069 32.512 174.28 32.512 174.504C32.512 174.787 32.44 175.043 32.296 175.272C32.152 175.496 31.9413 175.675 31.664 175.808C31.392 175.936 31.0693 176 30.696 176H28.616V170.424H30.616C30.9947 170.424 31.3173 170.488 31.584 170.616C31.8507 170.739 32.0507 170.907 32.184 171.12C32.3173 171.333 32.384 171.573 32.384 171.84C32.384 172.171 32.2933 172.445 32.112 172.664C31.936 172.877 31.7013 173.032 31.408 173.128ZM29.344 172.832H30.568C30.9093 172.832 31.1733 172.752 31.36 172.592C31.5467 172.432 31.64 172.211 31.64 171.928C31.64 171.645 31.5467 171.424 31.36 171.264C31.1733 171.104 30.904 171.024 30.552 171.024H29.344V172.832ZM30.632 175.4C30.9947 175.4 31.2773 175.315 31.48 175.144C31.6827 174.973 31.784 174.736 31.784 174.432C31.784 174.123 31.6773 173.88 31.464 173.704C31.2507 173.523 30.9653 173.432 30.608 173.432H29.344V175.4H30.632ZM34.2343 170.424V173.952C34.2343 174.448 34.3543 174.816 34.5943 175.056C34.8396 175.296 35.1783 175.416 35.6103 175.416C36.0369 175.416 36.3703 175.296 36.6103 175.056C36.8556 174.816 36.9783 174.448 36.9783 173.952V170.424H37.7063V173.944C37.7063 174.408 37.6129 174.8 37.4262 175.12C37.2396 175.435 36.9863 175.669 36.6663 175.824C36.3516 175.979 35.9969 176.056 35.6023 176.056C35.2076 176.056 34.8503 175.979 34.5303 175.824C34.2156 175.669 33.9649 175.435 33.7783 175.12C33.5969 174.8 33.5063 174.408 33.5063 173.944V170.424H34.2343ZM40.6567 170.424C41.2647 170.424 41.79 170.539 42.2327 170.768C42.6807 170.992 43.022 171.315 43.2567 171.736C43.4967 172.157 43.6167 172.653 43.6167 173.224C43.6167 173.795 43.4967 174.291 43.2567 174.712C43.022 175.128 42.6807 175.448 42.2327 175.672C41.79 175.891 41.2647 176 40.6567 176H38.9207V170.424H40.6567ZM40.6567 175.4C41.3767 175.4 41.926 175.211 42.3047 174.832C42.6834 174.448 42.8727 173.912 42.8727 173.224C42.8727 172.531 42.6807 171.989 42.2967 171.6C41.918 171.211 41.3714 171.016 40.6567 171.016H39.6487V175.4H40.6567ZM48.8009 172.04C48.6463 171.715 48.4223 171.464 48.1289 171.288C47.8356 171.107 47.4943 171.016 47.1049 171.016C46.7156 171.016 46.3636 171.107 46.0489 171.288C45.7396 171.464 45.4943 171.72 45.3129 172.056C45.1369 172.387 45.0489 172.771 45.0489 173.208C45.0489 173.645 45.1369 174.029 45.3129 174.36C45.4943 174.691 45.7396 174.947 46.0489 175.128C46.3636 175.304 46.7156 175.392 47.1049 175.392C47.6489 175.392 48.0969 175.229 48.4489 174.904C48.8009 174.579 49.0063 174.139 49.0649 173.584H46.8409V172.992H49.8409V173.552C49.7983 174.011 49.6543 174.432 49.4089 174.816C49.1636 175.195 48.8409 175.496 48.4409 175.72C48.0409 175.939 47.5956 176.048 47.1049 176.048C46.5876 176.048 46.1156 175.928 45.6889 175.688C45.2623 175.443 44.9236 175.104 44.6729 174.672C44.4276 174.24 44.3049 173.752 44.3049 173.208C44.3049 172.664 44.4276 172.176 44.6729 171.744C44.9236 171.307 45.2623 170.968 45.6889 170.728C46.1156 170.483 46.5876 170.36 47.1049 170.36C47.6969 170.36 48.2196 170.507 48.6729 170.8C49.1316 171.093 49.4649 171.507 49.6729 172.04H48.8009ZM51.5315 171.016V172.88H53.5635V173.48H51.5315V175.4H53.8035V176H50.8035V170.416H53.8035V171.016H51.5315ZM58.3371 170.424V171.016H56.8171V176H56.0891V171.016H54.5611V170.424H58.3371ZM62.094 170.424V176H61.366V170.424H62.094ZM67.7188 176H66.9908L64.0628 171.56V176H63.3348V170.416H64.0628L66.9908 174.848V170.416H67.7188V176ZM72.1118 170.424V171.016H69.6878V172.896H71.6558V173.488H69.6878V176H68.9598V170.424H72.1118ZM75.519 176.056C75.0017 176.056 74.5297 175.936 74.103 175.696C73.6763 175.451 73.3377 175.112 73.087 174.68C72.8417 174.243 72.719 173.752 72.719 173.208C72.719 172.664 72.8417 172.176 73.087 171.744C73.3377 171.307 73.6763 170.968 74.103 170.728C74.5297 170.483 75.0017 170.36 75.519 170.36C76.0417 170.36 76.5163 170.483 76.943 170.728C77.3697 170.968 77.7057 171.304 77.951 171.736C78.1963 172.168 78.319 172.659 78.319 173.208C78.319 173.757 78.1963 174.248 77.951 174.68C77.7057 175.112 77.3697 175.451 76.943 175.696C76.5163 175.936 76.0417 176.056 75.519 176.056ZM75.519 175.424C75.9083 175.424 76.2577 175.333 76.567 175.152C76.8817 174.971 77.127 174.712 77.303 174.376C77.4843 174.04 77.575 173.651 77.575 173.208C77.575 172.76 77.4843 172.371 77.303 172.04C77.127 171.704 76.8843 171.445 76.575 171.264C76.2657 171.083 75.9137 170.992 75.519 170.992C75.1243 170.992 74.7723 171.083 74.463 171.264C74.1537 171.445 73.9083 171.704 73.727 172.04C73.551 172.371 73.463 172.76 73.463 173.208C73.463 173.651 73.551 174.04 73.727 174.376C73.9083 174.712 74.1537 174.971 74.463 175.152C74.7777 175.333 75.1297 175.424 75.519 175.424Z" fill="black"/>
<path d="M28.9123 222.752V223.344H27.3923V228.328H26.6643V223.344H25.1363V222.752H28.9123ZM32.7444 228.328L31.4164 226.048H30.5364V228.328H29.8084V222.752H31.6084C32.0297 222.752 32.3844 222.824 32.6724 222.968C32.9657 223.112 33.1844 223.307 33.3284 223.552C33.4724 223.797 33.5444 224.077 33.5444 224.392C33.5444 224.776 33.4324 225.115 33.2084 225.408C32.9897 225.701 32.659 225.896 32.2164 225.992L33.6164 228.328H32.7444ZM30.5364 225.464H31.6084C32.003 225.464 32.299 225.368 32.4964 225.176C32.6937 224.979 32.7924 224.717 32.7924 224.392C32.7924 224.061 32.6937 223.805 32.4964 223.624C32.3044 223.443 32.0084 223.352 31.6084 223.352H30.5364V225.464ZM37.9716 227.088H35.5396L35.0916 228.328H34.3236L36.3396 222.784H37.1796L39.1876 228.328H38.4196L37.9716 227.088ZM37.7636 226.496L36.7556 223.68L35.7476 226.496H37.7636ZM44.4502 228.328H43.7222L40.7942 223.888V228.328H40.0662V222.744H40.7942L43.7222 227.176V222.744H44.4502V228.328ZM47.4592 228.384C47.0912 228.384 46.7605 228.32 46.4672 228.192C46.1792 228.059 45.9525 227.877 45.7872 227.648C45.6219 227.413 45.5365 227.144 45.5312 226.84H46.3072C46.3339 227.101 46.4405 227.323 46.6272 227.504C46.8192 227.68 47.0965 227.768 47.4592 227.768C47.8059 227.768 48.0779 227.683 48.2752 227.512C48.4779 227.336 48.5792 227.112 48.5792 226.84C48.5792 226.627 48.5205 226.453 48.4032 226.32C48.2859 226.187 48.1392 226.085 47.9632 226.016C47.7872 225.947 47.5499 225.872 47.2512 225.792C46.8832 225.696 46.5872 225.6 46.3632 225.504C46.1445 225.408 45.9552 225.259 45.7952 225.056C45.6405 224.848 45.5632 224.571 45.5632 224.224C45.5632 223.92 45.6405 223.651 45.7952 223.416C45.9499 223.181 46.1659 223 46.4432 222.872C46.7259 222.744 47.0485 222.68 47.4112 222.68C47.9339 222.68 48.3605 222.811 48.6912 223.072C49.0272 223.333 49.2165 223.68 49.2592 224.112H48.4592C48.4325 223.899 48.3205 223.712 48.1232 223.552C47.9259 223.387 47.6645 223.304 47.3392 223.304C47.0352 223.304 46.7872 223.384 46.5952 223.544C46.4032 223.699 46.3072 223.917 46.3072 224.2C46.3072 224.403 46.3632 224.568 46.4752 224.696C46.5925 224.824 46.7339 224.923 46.8992 224.992C47.0699 225.056 47.3072 225.131 47.6112 225.216C47.9792 225.317 48.2752 225.419 48.4992 225.52C48.7232 225.616 48.9152 225.768 49.0752 225.976C49.2352 226.179 49.3152 226.456 49.3152 226.808C49.3152 227.08 49.2432 227.336 49.0992 227.576C48.9552 227.816 48.7419 228.011 48.4592 228.16C48.1765 228.309 47.8432 228.384 47.4592 228.384ZM53.6825 227.088H51.2505L50.8025 228.328H50.0345L52.0505 222.784H52.8905L54.8985 228.328H54.1305L53.6825 227.088ZM53.4745 226.496L52.4665 223.68L51.4585 226.496H53.4745ZM55.5051 225.536C55.5051 224.992 55.6278 224.504 55.8731 224.072C56.1185 223.635 56.4518 223.293 56.8731 223.048C57.2998 222.803 57.7718 222.68 58.2891 222.68C58.8971 222.68 59.4278 222.827 59.8811 223.12C60.3345 223.413 60.6651 223.829 60.8731 224.368H60.0011C59.8465 224.032 59.6225 223.773 59.3291 223.592C59.0411 223.411 58.6945 223.32 58.2891 223.32C57.8998 223.32 57.5505 223.411 57.2411 223.592C56.9318 223.773 56.6891 224.032 56.5131 224.368C56.3371 224.699 56.2491 225.088 56.2491 225.536C56.2491 225.979 56.3371 226.368 56.5131 226.704C56.6891 227.035 56.9318 227.291 57.2411 227.472C57.5505 227.653 57.8998 227.744 58.2891 227.744C58.6945 227.744 59.0411 227.656 59.3291 227.48C59.6225 227.299 59.8465 227.04 60.0011 226.704H60.8731C60.6651 227.237 60.3345 227.651 59.8811 227.944C59.4278 228.232 58.8971 228.376 58.2891 228.376C57.7718 228.376 57.2998 228.256 56.8731 228.016C56.4518 227.771 56.1185 227.432 55.8731 227C55.6278 226.568 55.5051 226.08 55.5051 225.536ZM65.3888 222.752V223.344H63.8688V228.328H63.1408V223.344H61.6128V222.752H65.3888ZM67.0129 222.752V228.328H66.2849V222.752H67.0129ZM70.7817 228.384C70.2644 228.384 69.7924 228.264 69.3657 228.024C68.939 227.779 68.6004 227.44 68.3497 227.008C68.1044 226.571 67.9817 226.08 67.9817 225.536C67.9817 224.992 68.1044 224.504 68.3497 224.072C68.6004 223.635 68.939 223.296 69.3657 223.056C69.7924 222.811 70.2644 222.688 70.7817 222.688C71.3044 222.688 71.779 222.811 72.2057 223.056C72.6324 223.296 72.9684 223.632 73.2137 224.064C73.459 224.496 73.5817 224.987 73.5817 225.536C73.5817 226.085 73.459 226.576 73.2137 227.008C72.9684 227.44 72.6324 227.779 72.2057 228.024C71.779 228.264 71.3044 228.384 70.7817 228.384ZM70.7817 227.752C71.171 227.752 71.5204 227.661 71.8297 227.48C72.1444 227.299 72.3897 227.04 72.5657 226.704C72.747 226.368 72.8377 225.979 72.8377 225.536C72.8377 225.088 72.747 224.699 72.5657 224.368C72.3897 224.032 72.147 223.773 71.8377 223.592C71.5284 223.411 71.1764 223.32 70.7817 223.32C70.387 223.32 70.035 223.411 69.7257 223.592C69.4164 223.773 69.171 224.032 68.9897 224.368C68.8137 224.699 68.7257 225.088 68.7257 225.536C68.7257 225.979 68.8137 226.368 68.9897 226.704C69.171 227.04 69.4164 227.299 69.7257 227.48C70.0404 227.661 70.3924 227.752 70.7817 227.752ZM78.9268 228.328H78.1988L75.2708 223.888V228.328H74.5428V222.744H75.2708L78.1988 227.176V222.744H78.9268V228.328ZM81.9358 228.384C81.5678 228.384 81.2371 228.32 80.9438 228.192C80.6558 228.059 80.4291 227.877 80.2638 227.648C80.0984 227.413 80.0131 227.144 80.0078 226.84H80.7838C80.8104 227.101 80.9171 227.323 81.1038 227.504C81.2958 227.68 81.5731 227.768 81.9358 227.768C82.2824 227.768 82.5544 227.683 82.7518 227.512C82.9544 227.336 83.0558 227.112 83.0558 226.84C83.0558 226.627 82.9971 226.453 82.8798 226.32C82.7624 226.187 82.6158 226.085 82.4398 226.016C82.2638 225.947 82.0264 225.872 81.7278 225.792C81.3598 225.696 81.0638 225.6 80.8398 225.504C80.6211 225.408 80.4318 225.259 80.2718 225.056C80.1171 224.848 80.0398 224.571 80.0398 224.224C80.0398 223.92 80.1171 223.651 80.2718 223.416C80.4264 223.181 80.6424 223 80.9198 222.872C81.2024 222.744 81.5251 222.68 81.8878 222.68C82.4104 222.68 82.8371 222.811 83.1678 223.072C83.5038 223.333 83.6931 223.68 83.7358 224.112H82.9358C82.9091 223.899 82.7971 223.712 82.5998 223.552C82.4024 223.387 82.1411 223.304 81.8158 223.304C81.5118 223.304 81.2638 223.384 81.0718 223.544C80.8798 223.699 80.7838 223.917 80.7838 224.2C80.7838 224.403 80.8398 224.568 80.9518 224.696C81.0691 224.824 81.2104 224.923 81.3758 224.992C81.5464 225.056 81.7838 225.131 82.0878 225.216C82.4558 225.317 82.7518 225.419 82.9758 225.52C83.1998 225.616 83.3918 225.768 83.5518 225.976C83.7118 226.179 83.7918 226.456 83.7918 226.808C83.7918 227.08 83.7198 227.336 83.5758 227.576C83.4318 227.816 83.2184 228.011 82.9358 228.16C82.6531 228.309 82.3198 228.384 81.9358 228.384Z" fill="black"/>
<rect x="17.8159" y="37.7559" width="112.098" height="21.8155" rx="6.71247" fill="#C4C4C4"/>
<path d="M28.0083 51.5306C27.4909 51.5306 27.0189 51.4106 26.5923 51.1706C26.1656 50.9253 25.8269 50.5866 25.5763 50.1546C25.3309 49.7173 25.2083 49.2266 25.2083 48.6826C25.2083 48.1386 25.3309 47.6506 25.5763 47.2186C25.8269 46.7813 26.1656 46.4426 26.5923 46.2026C27.0189 45.9573 27.4909 45.8346 28.0083 45.8346C28.5309 45.8346 29.0056 45.9573 29.4323 46.2026C29.8589 46.4426 30.1949 46.7786 30.4403 47.2106C30.6856 47.6426 30.8083 48.1333 30.8083 48.6826C30.8083 49.2319 30.6856 49.7226 30.4403 50.1546C30.1949 50.5866 29.8589 50.9253 29.4323 51.1706C29.0056 51.4106 28.5309 51.5306 28.0083 51.5306ZM28.0083 50.8986C28.3976 50.8986 28.7469 50.8079 29.0563 50.6266C29.3709 50.4453 29.6163 50.1866 29.7923 49.8506C29.9736 49.5146 30.0643 49.1253 30.0643 48.6826C30.0643 48.2346 29.9736 47.8453 29.7923 47.5146C29.6163 47.1786 29.3736 46.9199 29.0643 46.7386C28.7549 46.5573 28.4029 46.4666 28.0083 46.4666C27.6136 46.4666 27.2616 46.5573 26.9523 46.7386C26.6429 46.9199 26.3976 47.1786 26.2163 47.5146C26.0403 47.8453 25.9523 48.2346 25.9523 48.6826C25.9523 49.1253 26.0403 49.5146 26.2163 49.8506C26.3976 50.1866 26.6429 50.4453 26.9523 50.6266C27.2669 50.8079 27.6189 50.8986 28.0083 50.8986ZM36.3773 45.8986L34.2733 51.4746H33.4333L31.3293 45.8986H32.1053L33.8573 50.7066L35.6093 45.8986H36.3773ZM37.9036 46.4906V48.3546H39.9356V48.9546H37.9036V50.8746H40.1756V51.4746H37.1756V45.8906H40.1756V46.4906H37.9036ZM44.2131 51.4746L42.8851 49.1946H42.0051V51.4746H41.2771V45.8986H43.0771C43.4985 45.8986 43.8531 45.9706 44.1411 46.1146C44.4345 46.2586 44.6531 46.4533 44.7971 46.6986C44.9411 46.9439 45.0131 47.2239 45.0131 47.5386C45.0131 47.9226 44.9011 48.2613 44.6771 48.5546C44.4585 48.8479 44.1278 49.0426 43.6851 49.1386L45.0851 51.4746H44.2131ZM42.0051 48.6106H43.0771C43.4718 48.6106 43.7678 48.5146 43.9651 48.3226C44.1625 48.1253 44.2611 47.8639 44.2611 47.5386C44.2611 47.2079 44.1625 46.9519 43.9651 46.7706C43.7731 46.5893 43.4771 46.4986 43.0771 46.4986H42.0051V48.6106ZM50.7523 45.8986L48.6483 51.4746H47.8083L45.7043 45.8986H46.4803L48.2323 50.7066L49.9843 45.8986H50.7523ZM52.2786 45.8986V51.4746H51.5506V45.8986H52.2786ZM54.2473 46.4906V48.3546H56.2793V48.9546H54.2473V50.8746H56.5193V51.4746H53.5193V45.8906H56.5193V46.4906H54.2473ZM64.6289 45.8986L63.0129 51.4746H62.1969L60.9009 46.9866L59.5569 51.4746L58.7489 51.4826L57.1889 45.8986H57.9649L59.1809 50.6266L60.5249 45.8986H61.3409L62.6209 50.6106L63.8449 45.8986H64.6289ZM68.1456 43.9386L65.9536 52.8346H65.2336L67.4176 43.9386H68.1456ZM73.8911 51.5306C73.3737 51.5306 72.9017 51.4106 72.4751 51.1706C72.0484 50.9253 71.7097 50.5866 71.4591 50.1546C71.2137 49.7173 71.0911 49.2266 71.0911 48.6826C71.0911 48.1386 71.2137 47.6506 71.4591 47.2186C71.7097 46.7813 72.0484 46.4426 72.4751 46.2026C72.9017 45.9573 73.3737 45.8346 73.8911 45.8346C74.4137 45.8346 74.8884 45.9573 75.3151 46.2026C75.7417 46.4426 76.0777 46.7786 76.3231 47.2106C76.5684 47.6426 76.6911 48.1333 76.6911 48.6826C76.6911 49.2319 76.5684 49.7226 76.3231 50.1546C76.0777 50.5866 75.7417 50.9253 75.3151 51.1706C74.8884 51.4106 74.4137 51.5306 73.8911 51.5306ZM73.8911 50.8986C74.2804 50.8986 74.6297 50.8079 74.9391 50.6266C75.2537 50.4453 75.4991 50.1866 75.6751 49.8506C75.8564 49.5146 75.9471 49.1253 75.9471 48.6826C75.9471 48.2346 75.8564 47.8453 75.6751 47.5146C75.4991 47.1786 75.2564 46.9199 74.9471 46.7386C74.6377 46.5573 74.2857 46.4666 73.8911 46.4666C73.4964 46.4666 73.1444 46.5573 72.8351 46.7386C72.5257 46.9199 72.2804 47.1786 72.0991 47.5146C71.9231 47.8453 71.8351 48.2346 71.8351 48.6826C71.8351 49.1253 71.9231 49.5146 72.0991 49.8506C72.2804 50.1866 72.5257 50.4453 72.8351 50.6266C73.1497 50.8079 73.5017 50.8986 73.8911 50.8986ZM82.0361 51.4746H81.3081L78.3801 47.0346V51.4746H77.6521V45.8906H78.3801L81.3081 50.3226V45.8906H82.0361V51.4746ZM88.8419 45.8986V46.4906H87.3219V51.4746H86.5939V46.4906H85.0659V45.8986H88.8419ZM92.6741 51.4746L91.3461 49.1946H90.4661V51.4746H89.7381V45.8986H91.5381C91.9594 45.8986 92.3141 45.9706 92.6021 46.1146C92.8954 46.2586 93.1141 46.4533 93.2581 46.6986C93.4021 46.9439 93.4741 47.2239 93.4741 47.5386C93.4741 47.9226 93.3621 48.2613 93.1381 48.5546C92.9194 48.8479 92.5887 49.0426 92.1461 49.1386L93.5461 51.4746H92.6741ZM90.4661 48.6106H91.5381C91.9327 48.6106 92.2287 48.5146 92.4261 48.3226C92.6234 48.1253 92.7221 47.8639 92.7221 47.5386C92.7221 47.2079 92.6234 46.9519 92.4261 46.7706C92.2341 46.5893 91.9381 46.4986 91.5381 46.4986H90.4661V48.6106ZM97.9013 50.2346H95.4693L95.0213 51.4746H94.2533L96.2693 45.9306H97.1093L99.1173 51.4746H98.3493L97.9013 50.2346ZM97.6933 49.6426L96.6853 46.8266L95.6773 49.6426H97.6933ZM99.7239 48.6826C99.7239 48.1386 99.8465 47.6506 100.092 47.2186C100.337 46.7813 100.671 46.4399 101.092 46.1946C101.519 45.9493 101.991 45.8266 102.508 45.8266C103.116 45.8266 103.647 45.9733 104.1 46.2666C104.553 46.5599 104.884 46.9759 105.092 47.5146H104.22C104.065 47.1786 103.841 46.9199 103.548 46.7386C103.26 46.5573 102.913 46.4666 102.508 46.4666C102.119 46.4666 101.769 46.5573 101.46 46.7386C101.151 46.9199 100.908 47.1786 100.732 47.5146C100.556 47.8453 100.468 48.2346 100.468 48.6826C100.468 49.1253 100.556 49.5146 100.732 49.8506C100.908 50.1813 101.151 50.4373 101.46 50.6186C101.769 50.7999 102.119 50.8906 102.508 50.8906C102.913 50.8906 103.26 50.8026 103.548 50.6266C103.841 50.4453 104.065 50.1866 104.22 49.8506H105.092C104.884 50.3839 104.553 50.7973 104.1 51.0906C103.647 51.3786 103.116 51.5226 102.508 51.5226C101.991 51.5226 101.519 51.4026 101.092 51.1626C100.671 50.9173 100.337 50.5786 100.092 50.1466C99.8465 49.7146 99.7239 49.2266 99.7239 48.6826ZM109.2 51.4746L106.904 48.9306V51.4746H106.176V45.8986H106.904V48.4826L109.208 45.8986H110.128L107.6 48.6906L110.152 51.4746H109.2Z" fill="black"/>
<path d="M20.2083 69.8213C20.2083 69.2773 20.3309 68.7893 20.5763 68.3573C20.8216 67.9199 21.1549 67.5786 21.5763 67.3333C22.0029 67.0879 22.4749 66.9653 22.9923 66.9653C23.6003 66.9653 24.1309 67.1119 24.5843 67.4053C25.0376 67.6986 25.3683 68.1146 25.5763 68.6533H24.7043C24.5496 68.3173 24.3256 68.0586 24.0323 67.8773C23.7443 67.6959 23.3976 67.6053 22.9923 67.6053C22.6029 67.6053 22.2536 67.6959 21.9443 67.8773C21.6349 68.0586 21.3923 68.3173 21.2163 68.6533C21.0403 68.9839 20.9523 69.3733 20.9523 69.8213C20.9523 70.2639 21.0403 70.6533 21.2163 70.9893C21.3923 71.3199 21.6349 71.5759 21.9443 71.7573C22.2536 71.9386 22.6029 72.0293 22.9923 72.0293C23.3976 72.0293 23.7443 71.9413 24.0323 71.7653C24.3256 71.5839 24.5496 71.3253 24.7043 70.9893H25.5763C25.3683 71.5226 25.0376 71.9359 24.5843 72.2293C24.1309 72.5173 23.6003 72.6613 22.9923 72.6613C22.4749 72.6613 22.0029 72.5413 21.5763 72.3013C21.1549 72.0559 20.8216 71.7173 20.5763 71.2853C20.3309 70.8533 20.2083 70.3653 20.2083 69.8213ZM29.1879 72.6693C28.6706 72.6693 28.1986 72.5493 27.7719 72.3093C27.3453 72.0639 27.0066 71.7253 26.7559 71.2933C26.5106 70.8559 26.3879 70.3653 26.3879 69.8213C26.3879 69.2773 26.5106 68.7893 26.7559 68.3573C27.0066 67.9199 27.3453 67.5813 27.7719 67.3413C28.1986 67.0959 28.6706 66.9733 29.1879 66.9733C29.7106 66.9733 30.1853 67.0959 30.6119 67.3413C31.0386 67.5813 31.3746 67.9173 31.6199 68.3493C31.8653 68.7813 31.9879 69.2719 31.9879 69.8213C31.9879 70.3706 31.8653 70.8613 31.6199 71.2933C31.3746 71.7253 31.0386 72.0639 30.6119 72.3093C30.1853 72.5493 29.7106 72.6693 29.1879 72.6693ZM29.1879 72.0373C29.5773 72.0373 29.9266 71.9466 30.2359 71.7653C30.5506 71.5839 30.7959 71.3253 30.9719 70.9893C31.1533 70.6533 31.2439 70.2639 31.2439 69.8213C31.2439 69.3733 31.1533 68.9839 30.9719 68.6533C30.7959 68.3173 30.5533 68.0586 30.2439 67.8773C29.9346 67.6959 29.5826 67.6053 29.1879 67.6053C28.7933 67.6053 28.4413 67.6959 28.1319 67.8773C27.8226 68.0586 27.5773 68.3173 27.3959 68.6533C27.2199 68.9839 27.1319 69.3733 27.1319 69.8213C27.1319 70.2639 27.2199 70.6533 27.3959 70.9893C27.5773 71.3253 27.8226 71.5839 28.1319 71.7653C28.4466 71.9466 28.7986 72.0373 29.1879 72.0373ZM38.605 67.0773V72.6133H37.877V68.4853L36.037 72.6133H35.525L33.677 68.4773V72.6133H32.949V67.0773H33.733L35.781 71.6533L37.829 67.0773H38.605ZM43.5676 68.6693C43.5676 69.1333 43.4076 69.5199 43.0876 69.8293C42.773 70.1333 42.2903 70.2853 41.6396 70.2853H40.5676V72.6133H39.8396V67.0373H41.6396C42.269 67.0373 42.7463 67.1893 43.0716 67.4933C43.4023 67.7973 43.5676 68.1893 43.5676 68.6693ZM41.6396 69.6853C42.045 69.6853 42.3436 69.5973 42.5356 69.4213C42.7276 69.2453 42.8236 68.9946 42.8236 68.6693C42.8236 67.9813 42.429 67.6373 41.6396 67.6373H40.5676V69.6853H41.6396ZM47.7684 71.3733H45.3364L44.8884 72.6133H44.1204L46.1364 67.0693H46.9764L48.9844 72.6133H48.2164L47.7684 71.3733ZM47.5604 70.7813L46.5524 67.9653L45.5444 70.7813H47.5604ZM52.7991 72.6133L51.4711 70.3333H50.5911V72.6133H49.8631V67.0373H51.6631C52.0844 67.0373 52.4391 67.1093 52.7271 67.2533C53.0204 67.3973 53.2391 67.5919 53.3831 67.8373C53.5271 68.0826 53.5991 68.3626 53.5991 68.6773C53.5991 69.0613 53.4871 69.3999 53.2631 69.6933C53.0444 69.9866 52.7137 70.1813 52.2711 70.2773L53.6711 72.6133H52.7991ZM50.5911 69.7493H51.6631C52.0577 69.7493 52.3537 69.6533 52.5511 69.4613C52.7484 69.2639 52.8471 69.0026 52.8471 68.6773C52.8471 68.3466 52.7484 68.0906 52.5511 67.9093C52.3591 67.7279 52.0631 67.6373 51.6631 67.6373H50.5911V69.7493ZM55.4583 67.6293V69.4933H57.4903V70.0933H55.4583V72.0133H57.7303V72.6133H54.7303V67.0293H57.7303V67.6293H55.4583ZM60.5678 67.0373C61.1758 67.0373 61.7012 67.1519 62.1438 67.3813C62.5918 67.6053 62.9332 67.9279 63.1678 68.3493C63.4078 68.7706 63.5278 69.2666 63.5278 69.8373C63.5278 70.4079 63.4078 70.9039 63.1678 71.3253C62.9332 71.7413 62.5918 72.0613 62.1438 72.2853C61.7012 72.5039 61.1758 72.6133 60.5678 72.6133H58.8318V67.0373H60.5678ZM60.5678 72.0133C61.2878 72.0133 61.8372 71.8239 62.2158 71.4453C62.5945 71.0613 62.7838 70.5253 62.7838 69.8373C62.7838 69.1439 62.5918 68.6026 62.2078 68.2133C61.8292 67.8239 61.2825 67.6293 60.5678 67.6293H59.5598V72.0133H60.5678ZM70.0529 67.0373V67.6293H68.5329V72.6133H67.8049V67.6293H66.2769V67.0373H70.0529ZM73.477 72.6693C72.9597 72.6693 72.4877 72.5493 72.061 72.3093C71.6343 72.0639 71.2957 71.7253 71.045 71.2933C70.7997 70.8559 70.677 70.3653 70.677 69.8213C70.677 69.2773 70.7997 68.7893 71.045 68.3573C71.2957 67.9199 71.6343 67.5813 72.061 67.3413C72.4877 67.0959 72.9597 66.9733 73.477 66.9733C73.9997 66.9733 74.4743 67.0959 74.901 67.3413C75.3277 67.5813 75.6637 67.9173 75.909 68.3493C76.1543 68.7813 76.277 69.2719 76.277 69.8213C76.277 70.3706 76.1543 70.8613 75.909 71.2933C75.6637 71.7253 75.3277 72.0639 74.901 72.3093C74.4743 72.5493 73.9997 72.6693 73.477 72.6693ZM73.477 72.0373C73.8663 72.0373 74.2157 71.9466 74.525 71.7653C74.8397 71.5839 75.085 71.3253 75.261 70.9893C75.4423 70.6533 75.533 70.2639 75.533 69.8213C75.533 69.3733 75.4423 68.9839 75.261 68.6533C75.085 68.3173 74.8423 68.0586 74.533 67.8773C74.2237 67.6959 73.8717 67.6053 73.477 67.6053C73.0823 67.6053 72.7303 67.6959 72.421 67.8773C72.1117 68.0586 71.8663 68.3173 71.685 68.6533C71.509 68.9839 71.421 69.3733 71.421 69.8213C71.421 70.2639 71.509 70.6533 71.685 70.9893C71.8663 71.3253 72.1117 71.5839 72.421 71.7653C72.7357 71.9466 73.0877 72.0373 73.477 72.0373ZM80.0989 72.0213H82.0509V72.6133H79.3709V67.0373H80.0989V72.0213ZM86.12 71.3733H83.688L83.24 72.6133H82.472L84.488 67.0693H85.328L87.336 72.6133H86.568L86.12 71.3733ZM85.912 70.7813L84.904 67.9653L83.896 70.7813H85.912ZM89.9826 72.6693C89.6146 72.6693 89.284 72.6053 88.9906 72.4773C88.7026 72.3439 88.476 72.1626 88.3106 71.9333C88.1453 71.6986 88.06 71.4293 88.0546 71.1253H88.8306C88.8573 71.3866 88.964 71.6079 89.1506 71.7893C89.3426 71.9653 89.62 72.0533 89.9826 72.0533C90.3293 72.0533 90.6013 71.9679 90.7986 71.7973C91.0013 71.6213 91.1026 71.3973 91.1026 71.1253C91.1026 70.9119 91.044 70.7386 90.9266 70.6053C90.8093 70.4719 90.6626 70.3706 90.4866 70.3013C90.3106 70.2319 90.0733 70.1573 89.7746 70.0773C89.4066 69.9813 89.1106 69.8853 88.8866 69.7893C88.668 69.6933 88.4786 69.5439 88.3186 69.3413C88.164 69.1333 88.0866 68.8559 88.0866 68.5093C88.0866 68.2053 88.164 67.9359 88.3186 67.7013C88.4733 67.4666 88.6893 67.2853 88.9666 67.1573C89.2493 67.0293 89.572 66.9653 89.9346 66.9653C90.4573 66.9653 90.884 67.0959 91.2146 67.3573C91.5506 67.6186 91.74 67.9653 91.7826 68.3973H90.9826C90.956 68.1839 90.844 67.9973 90.6466 67.8373C90.4493 67.6719 90.188 67.5893 89.8626 67.5893C89.5586 67.5893 89.3106 67.6693 89.1186 67.8293C88.9266 67.9839 88.8306 68.2026 88.8306 68.4853C88.8306 68.6879 88.8866 68.8533 88.9986 68.9813C89.116 69.1093 89.2573 69.2079 89.4226 69.2773C89.5933 69.3413 89.8306 69.4159 90.1346 69.5013C90.5026 69.6026 90.7986 69.7039 91.0226 69.8053C91.2466 69.9013 91.4386 70.0533 91.5986 70.2613C91.7586 70.4639 91.8386 70.7413 91.8386 71.0933C91.8386 71.3653 91.7666 71.6213 91.6226 71.8613C91.4786 72.1013 91.2653 72.2959 90.9826 72.4453C90.7 72.5946 90.3666 72.6693 89.9826 72.6693ZM96.3419 67.0373V67.6293H94.8219V72.6133H94.0939V67.6293H92.5659V67.0373H96.3419ZM105.027 67.0773V72.6133H104.299V68.4853L102.459 72.6133H101.947L100.099 68.4773V72.6133H99.3709V67.0773H100.155L102.203 71.6533L104.251 67.0773H105.027ZM108.79 72.6693C108.272 72.6693 107.8 72.5493 107.374 72.3093C106.947 72.0639 106.608 71.7253 106.358 71.2933C106.112 70.8559 105.99 70.3653 105.99 69.8213C105.99 69.2773 106.112 68.7893 106.358 68.3573C106.608 67.9199 106.947 67.5813 107.374 67.3413C107.8 67.0959 108.272 66.9733 108.79 66.9733C109.312 66.9733 109.787 67.0959 110.214 67.3413C110.64 67.5813 110.976 67.9173 111.222 68.3493C111.467 68.7813 111.59 69.2719 111.59 69.8213C111.59 70.3706 111.467 70.8613 111.222 71.2933C110.976 71.7253 110.64 72.0639 110.214 72.3093C109.787 72.5493 109.312 72.6693 108.79 72.6693ZM108.79 72.0373C109.179 72.0373 109.528 71.9466 109.838 71.7653C110.152 71.5839 110.398 71.3253 110.574 70.9893C110.755 70.6533 110.846 70.2639 110.846 69.8213C110.846 69.3733 110.755 68.9839 110.574 68.6533C110.398 68.3173 110.155 68.0586 109.846 67.8773C109.536 67.6959 109.184 67.6053 108.79 67.6053C108.395 67.6053 108.043 67.6959 107.734 67.8773C107.424 68.0586 107.179 68.3173 106.998 68.6533C106.822 68.9839 106.734 69.3733 106.734 69.8213C106.734 70.2639 106.822 70.6533 106.998 70.9893C107.179 71.3253 107.424 71.5839 107.734 71.7653C108.048 71.9466 108.4 72.0373 108.79 72.0373ZM116.935 72.6133H116.207L113.279 68.1733V72.6133H112.551V67.0293H113.279L116.207 71.4613V67.0293H116.935V72.6133ZM121.608 67.0373V67.6293H120.088V72.6133H119.36V67.6293H117.832V67.0373H121.608ZM126.8 67.0373V72.6133H126.072V70.0853H123.232V72.6133H122.504V67.0373H123.232V69.4853H126.072V67.0373H126.8Z" fill="black"/>
<rect x="90.9819" y="86.0859" width="38.9323" height="21.8155" rx="6.71247" fill="#C4C4C4"/>
<rect x="90.9819" y="111.258" width="38.9323" height="21.8155" rx="6.71247" fill="#C4C4C4"/>
<rect x="90.9819" y="136.43" width="38.9323" height="21.8155" rx="6.71247" fill="#C4C4C4"/>
<rect x="90.9819" y="161.602" width="38.9323" height="21.8155" rx="6.71247" fill="#C4C4C4"/>
<path d="M94.344 97.208C94.344 96.664 94.4667 96.176 94.712 95.744C94.9573 95.3067 95.2907 94.9653 95.712 94.72C96.1387 94.4747 96.6107 94.352 97.128 94.352C97.736 94.352 98.2667 94.4987 98.72 94.792C99.1733 95.0853 99.504 95.5013 99.712 96.04H98.84C98.6853 95.704 98.4613 95.4453 98.168 95.264C97.88 95.0827 97.5333 94.992 97.128 94.992C96.7387 94.992 96.3893 95.0827 96.08 95.264C95.7707 95.4453 95.528 95.704 95.352 96.04C95.176 96.3707 95.088 96.76 95.088 97.208C95.088 97.6507 95.176 98.04 95.352 98.376C95.528 98.7067 95.7707 98.9627 96.08 99.144C96.3893 99.3253 96.7387 99.416 97.128 99.416C97.5333 99.416 97.88 99.328 98.168 99.152C98.4613 98.9707 98.6853 98.712 98.84 98.376H99.712C99.504 98.9093 99.1733 99.3227 98.72 99.616C98.2667 99.904 97.736 100.048 97.128 100.048C96.6107 100.048 96.1387 99.928 95.712 99.688C95.2907 99.4427 94.9573 99.104 94.712 98.672C94.4667 98.24 94.344 97.752 94.344 97.208ZM105.092 94.424V100H104.364V97.472H101.524V100H100.796V94.424H101.524V96.872H104.364V94.424H105.092ZM109.631 98.76H107.199L106.751 100H105.983L107.999 94.456H108.839L110.847 100H110.079L109.631 98.76ZM109.423 98.168L108.415 95.352L107.407 98.168H109.423ZM116.109 100H115.381L112.453 95.56V100H111.725V94.416H112.453L115.381 98.848V94.416H116.109V100ZM121.574 96.04C121.42 95.7147 121.196 95.464 120.902 95.288C120.609 95.1067 120.268 95.016 119.878 95.016C119.489 95.016 119.137 95.1067 118.822 95.288C118.513 95.464 118.268 95.72 118.086 96.056C117.91 96.3867 117.822 96.7707 117.822 97.208C117.822 97.6453 117.91 98.0293 118.086 98.36C118.268 98.6907 118.513 98.9467 118.822 99.128C119.137 99.304 119.489 99.392 119.878 99.392C120.422 99.392 120.87 99.2293 121.222 98.904C121.574 98.5787 121.78 98.1387 121.838 97.584H119.614V96.992H122.614V97.552C122.572 98.0107 122.428 98.432 122.182 98.816C121.937 99.1947 121.614 99.496 121.214 99.72C120.814 99.9387 120.369 100.048 119.878 100.048C119.361 100.048 118.889 99.928 118.462 99.688C118.036 99.4427 117.697 99.104 117.446 98.672C117.201 98.24 117.078 97.752 117.078 97.208C117.078 96.664 117.201 96.176 117.446 95.744C117.697 95.3067 118.036 94.968 118.462 94.728C118.889 94.4827 119.361 94.36 119.878 94.36C120.47 94.36 120.993 94.5067 121.446 94.8C121.905 95.0933 122.238 95.5067 122.446 96.04H121.574ZM124.305 95.016V96.88H126.337V97.48H124.305V99.4H126.577V100H123.577V94.416H126.577V95.016H124.305Z" fill="black"/>
<path d="M94.344 122.208C94.344 121.664 94.4667 121.176 94.712 120.744C94.9573 120.307 95.2907 119.965 95.712 119.72C96.1387 119.475 96.6107 119.352 97.128 119.352C97.736 119.352 98.2667 119.499 98.72 119.792C99.1733 120.085 99.504 120.501 99.712 121.04H98.84C98.6853 120.704 98.4613 120.445 98.168 120.264C97.88 120.083 97.5333 119.992 97.128 119.992C96.7387 119.992 96.3893 120.083 96.08 120.264C95.7707 120.445 95.528 120.704 95.352 121.04C95.176 121.371 95.088 121.76 95.088 122.208C95.088 122.651 95.176 123.04 95.352 123.376C95.528 123.707 95.7707 123.963 96.08 124.144C96.3893 124.325 96.7387 124.416 97.128 124.416C97.5333 124.416 97.88 124.328 98.168 124.152C98.4613 123.971 98.6853 123.712 98.84 123.376H99.712C99.504 123.909 99.1733 124.323 98.72 124.616C98.2667 124.904 97.736 125.048 97.128 125.048C96.6107 125.048 96.1387 124.928 95.712 124.688C95.2907 124.443 94.9573 124.104 94.712 123.672C94.4667 123.24 94.344 122.752 94.344 122.208ZM105.092 119.424V125H104.364V122.472H101.524V125H100.796V119.424H101.524V121.872H104.364V119.424H105.092ZM109.631 123.76H107.199L106.751 125H105.983L107.999 119.456H108.839L110.847 125H110.079L109.631 123.76ZM109.423 123.168L108.415 120.352L107.407 123.168H109.423ZM116.109 125H115.381L112.453 120.56V125H111.725V119.416H112.453L115.381 123.848V119.416H116.109V125ZM121.574 121.04C121.42 120.715 121.196 120.464 120.902 120.288C120.609 120.107 120.268 120.016 119.878 120.016C119.489 120.016 119.137 120.107 118.822 120.288C118.513 120.464 118.268 120.72 118.086 121.056C117.91 121.387 117.822 121.771 117.822 122.208C117.822 122.645 117.91 123.029 118.086 123.36C118.268 123.691 118.513 123.947 118.822 124.128C119.137 124.304 119.489 124.392 119.878 124.392C120.422 124.392 120.87 124.229 121.222 123.904C121.574 123.579 121.78 123.139 121.838 122.584H119.614V121.992H122.614V122.552C122.572 123.011 122.428 123.432 122.182 123.816C121.937 124.195 121.614 124.496 121.214 124.72C120.814 124.939 120.369 125.048 119.878 125.048C119.361 125.048 118.889 124.928 118.462 124.688C118.036 124.443 117.697 124.104 117.446 123.672C117.201 123.24 117.078 122.752 117.078 122.208C117.078 121.664 117.201 121.176 117.446 120.744C117.697 120.307 118.036 119.968 118.462 119.728C118.889 119.483 119.361 119.36 119.878 119.36C120.47 119.36 120.993 119.507 121.446 119.8C121.905 120.093 122.238 120.507 122.446 121.04H121.574ZM124.305 120.016V121.88H126.337V122.48H124.305V124.4H126.577V125H123.577V119.416H126.577V120.016H124.305Z" fill="black"/>
<path d="M94.344 147.208C94.344 146.664 94.4667 146.176 94.712 145.744C94.9573 145.307 95.2907 144.965 95.712 144.72C96.1387 144.475 96.6107 144.352 97.128 144.352C97.736 144.352 98.2667 144.499 98.72 144.792C99.1733 145.085 99.504 145.501 99.712 146.04H98.84C98.6853 145.704 98.4613 145.445 98.168 145.264C97.88 145.083 97.5333 144.992 97.128 144.992C96.7387 144.992 96.3893 145.083 96.08 145.264C95.7707 145.445 95.528 145.704 95.352 146.04C95.176 146.371 95.088 146.76 95.088 147.208C95.088 147.651 95.176 148.04 95.352 148.376C95.528 148.707 95.7707 148.963 96.08 149.144C96.3893 149.325 96.7387 149.416 97.128 149.416C97.5333 149.416 97.88 149.328 98.168 149.152C98.4613 148.971 98.6853 148.712 98.84 148.376H99.712C99.504 148.909 99.1733 149.323 98.72 149.616C98.2667 149.904 97.736 150.048 97.128 150.048C96.6107 150.048 96.1387 149.928 95.712 149.688C95.2907 149.443 94.9573 149.104 94.712 148.672C94.4667 148.24 94.344 147.752 94.344 147.208ZM105.092 144.424V150H104.364V147.472H101.524V150H100.796V144.424H101.524V146.872H104.364V144.424H105.092ZM109.631 148.76H107.199L106.751 150H105.983L107.999 144.456H108.839L110.847 150H110.079L109.631 148.76ZM109.423 148.168L108.415 145.352L107.407 148.168H109.423ZM116.109 150H115.381L112.453 145.56V150H111.725V144.416H112.453L115.381 148.848V144.416H116.109V150ZM121.574 146.04C121.42 145.715 121.196 145.464 120.902 145.288C120.609 145.107 120.268 145.016 119.878 145.016C119.489 145.016 119.137 145.107 118.822 145.288C118.513 145.464 118.268 145.72 118.086 146.056C117.91 146.387 117.822 146.771 117.822 147.208C117.822 147.645 117.91 148.029 118.086 148.36C118.268 148.691 118.513 148.947 118.822 149.128C119.137 149.304 119.489 149.392 119.878 149.392C120.422 149.392 120.87 149.229 121.222 148.904C121.574 148.579 121.78 148.139 121.838 147.584H119.614V146.992H122.614V147.552C122.572 148.011 122.428 148.432 122.182 148.816C121.937 149.195 121.614 149.496 121.214 149.72C120.814 149.939 120.369 150.048 119.878 150.048C119.361 150.048 118.889 149.928 118.462 149.688C118.036 149.443 117.697 149.104 117.446 148.672C117.201 148.24 117.078 147.752 117.078 147.208C117.078 146.664 117.201 146.176 117.446 145.744C117.697 145.307 118.036 144.968 118.462 144.728C118.889 144.483 119.361 144.36 119.878 144.36C120.47 144.36 120.993 144.507 121.446 144.8C121.905 145.093 122.238 145.507 122.446 146.04H121.574ZM124.305 145.016V146.88H126.337V147.48H124.305V149.4H126.577V150H123.577V144.416H126.577V145.016H124.305Z" fill="black"/>
<path d="M94.344 172.208C94.344 171.664 94.4667 171.176 94.712 170.744C94.9573 170.307 95.2907 169.965 95.712 169.72C96.1387 169.475 96.6107 169.352 97.128 169.352C97.736 169.352 98.2667 169.499 98.72 169.792C99.1733 170.085 99.504 170.501 99.712 171.04H98.84C98.6853 170.704 98.4613 170.445 98.168 170.264C97.88 170.083 97.5333 169.992 97.128 169.992C96.7387 169.992 96.3893 170.083 96.08 170.264C95.7707 170.445 95.528 170.704 95.352 171.04C95.176 171.371 95.088 171.76 95.088 172.208C95.088 172.651 95.176 173.04 95.352 173.376C95.528 173.707 95.7707 173.963 96.08 174.144C96.3893 174.325 96.7387 174.416 97.128 174.416C97.5333 174.416 97.88 174.328 98.168 174.152C98.4613 173.971 98.6853 173.712 98.84 173.376H99.712C99.504 173.909 99.1733 174.323 98.72 174.616C98.2667 174.904 97.736 175.048 97.128 175.048C96.6107 175.048 96.1387 174.928 95.712 174.688C95.2907 174.443 94.9573 174.104 94.712 173.672C94.4667 173.24 94.344 172.752 94.344 172.208ZM105.092 169.424V175H104.364V172.472H101.524V175H100.796V169.424H101.524V171.872H104.364V169.424H105.092ZM109.631 173.76H107.199L106.751 175H105.983L107.999 169.456H108.839L110.847 175H110.079L109.631 173.76ZM109.423 173.168L108.415 170.352L107.407 173.168H109.423ZM116.109 175H115.381L112.453 170.56V175H111.725V169.416H112.453L115.381 173.848V169.416H116.109V175ZM121.574 171.04C121.42 170.715 121.196 170.464 120.902 170.288C120.609 170.107 120.268 170.016 119.878 170.016C119.489 170.016 119.137 170.107 118.822 170.288C118.513 170.464 118.268 170.72 118.086 171.056C117.91 171.387 117.822 171.771 117.822 172.208C117.822 172.645 117.91 173.029 118.086 173.36C118.268 173.691 118.513 173.947 118.822 174.128C119.137 174.304 119.489 174.392 119.878 174.392C120.422 174.392 120.87 174.229 121.222 173.904C121.574 173.579 121.78 173.139 121.838 172.584H119.614V171.992H122.614V172.552C122.572 173.011 122.428 173.432 122.182 173.816C121.937 174.195 121.614 174.496 121.214 174.72C120.814 174.939 120.369 175.048 119.878 175.048C119.361 175.048 118.889 174.928 118.462 174.688C118.036 174.443 117.697 174.104 117.446 173.672C117.201 173.24 117.078 172.752 117.078 172.208C117.078 171.664 117.201 171.176 117.446 170.744C117.697 170.307 118.036 169.968 118.462 169.728C118.889 169.483 119.361 169.36 119.878 169.36C120.47 169.36 120.993 169.507 121.446 169.8C121.905 170.093 122.238 170.507 122.446 171.04H121.574ZM124.305 170.016V171.88H126.337V172.48H124.305V174.4H126.577V175H123.577V169.416H126.577V170.016H124.305Z" fill="black"/>
</g>
<defs>
<clipPath id="clip0_149_23310">
<rect width="145.996" height="294.006" fill="white" transform="translate(0.699219 0.837891)"/>
</clipPath>
</defs>
</svg>
