<svg width="147" height="295" viewBox="0 0 147 295" fill="none" xmlns="http://www.w3.org/2000/svg">
<g clip-path="url(#clip0_149_23206)">
<path d="M146.829 74.395H145.854L145.847 22.311C145.847 10.5097 136.189 0.845013 124.38 0.845013L23.191 0.837891C11.382 0.837891 1.71682 10.4955 1.72394 22.3039V45.2585H0.769531V55.3505H1.72394V66.5607H0.769531V86.7519H1.72394V93.6247H0.769531V113.816H1.73106L1.74531 270.082C1.74531 281.883 11.4033 291.548 23.2123 291.548L124.401 291.555C136.21 291.555 145.875 281.898 145.868 270.089L145.854 106.701H146.829V74.395V74.395Z" fill="#BCBCBC"/>
<path d="M124.658 290.542L22.9635 290.535C11.8524 290.535 2.75701 281.44 2.75701 270.33L2.72852 22.0531C2.72852 10.9355 11.8239 1.84766 22.935 1.84766L124.63 1.85478C135.741 1.85478 144.837 10.9497 144.837 22.0602L144.865 270.337C144.865 281.455 135.777 290.542 124.658 290.542Z" fill="#DBDBDB"/>
<path d="M136.68 24.4261C136.68 16.2998 130.028 9.65487 121.901 9.64775H105.712C105.028 9.64775 104.473 10.2033 104.473 10.887C104.473 15.6374 100.584 19.5261 95.8333 19.5261H47.4513C42.7007 19.5261 38.8119 15.6374 38.8119 10.887V10.8799C38.8119 10.1962 38.2563 9.64062 37.5726 9.64062H25.6285C17.5019 9.64062 10.8496 16.2927 10.8496 24.419L10.871 267.383C10.871 275.509 17.5232 282.154 25.6498 282.161L121.93 282.168C130.056 282.168 136.708 275.516 136.708 267.39L136.68 24.4261Z" fill="white"/>
<path d="M80.5309 13.9915H67.3404C66.7214 13.9915 66.2163 13.4743 66.2163 12.8405C66.2163 12.2067 66.7214 11.6895 67.3404 11.6895H80.5309C81.1498 11.6895 81.655 12.2067 81.655 12.8405C81.655 13.4743 81.1498 13.9915 80.5309 13.9915Z" fill="white"/>
<path d="M88.5354 13.6639C88.9988 13.6639 89.3744 13.2958 89.3744 12.8417C89.3744 12.3876 88.9988 12.0195 88.5354 12.0195C88.0719 12.0195 87.6963 12.3876 87.6963 12.8417C87.6963 13.2958 88.0719 13.6639 88.5354 13.6639Z" fill="white"/>
<path d="M88.5347 14.3211C89.3688 14.3211 90.045 13.6585 90.045 12.8412C90.045 12.0239 89.3688 11.3613 88.5347 11.3613C87.7006 11.3613 87.0244 12.0239 87.0244 12.8412C87.0244 13.6585 87.7006 14.3211 88.5347 14.3211Z" stroke="white" stroke-width="0.31034" stroke-miterlimit="10"/>
<rect x="17.2153" y="254.232" width="18.7949" height="18.7949" rx="9.39745" fill="#C4C4C4"/>
<rect x="40.709" y="254.232" width="18.7949" height="18.7949" rx="9.39745" fill="#C4C4C4"/>
<rect x="64.2026" y="254.232" width="18.7949" height="18.7949" rx="9.39745" fill="#C4C4C4"/>
<rect x="87.6963" y="254.232" width="18.7949" height="18.7949" rx="9.39745" fill="#C4C4C4"/>
<rect x="111.19" y="254.232" width="18.7949" height="18.7949" rx="9.39745" fill="#C4C4C4"/>
<path d="M95.1388 279.715H52.0603C51.5402 279.715 51.1128 279.27 51.1128 278.729C51.1128 278.187 51.5402 277.742 52.0603 277.742H95.1388C95.6589 277.742 96.0863 278.187 96.0863 278.729C96.0792 279.27 95.6589 279.715 95.1388 279.715Z" fill="#BFBFBF"/>
<rect x="111.19" y="16.2754" width="18.7949" height="18.7949" rx="9.39745" fill="#C4C4C4"/>
<path d="M120.755 21.3105L120.755 30.0368M116.224 25.5058H125.286" stroke="black" stroke-width="0.671247"/>
<rect x="17.8862" y="82" width="71.4878" height="38.2611" rx="6.71247" fill="#C4C4C4"/>
<rect x="17.8862" y="125" width="71.4878" height="38.2611" rx="6.71247" fill="#C4C4C4"/>
<rect x="17.8862" y="169" width="71.4878" height="38.2611" rx="6.71247" fill="#C4C4C4"/>
<rect x="17.8862" y="212" width="71.4878" height="38.2611" rx="6.71247" fill="#C4C4C4"/>
<path d="M27.2866 98.424C27.8946 98.424 28.4199 98.5387 28.8626 98.768C29.3106 98.992 29.6519 99.3147 29.8866 99.736C30.1266 100.157 30.2466 100.653 30.2466 101.224C30.2466 101.795 30.1266 102.291 29.8866 102.712C29.6519 103.128 29.3106 103.448 28.8626 103.672C28.4199 103.891 27.8946 104 27.2866 104H25.5506V98.424H27.2866ZM27.2866 103.4C28.0066 103.4 28.5559 103.211 28.9346 102.832C29.3132 102.448 29.5026 101.912 29.5026 101.224C29.5026 100.531 29.3106 99.9893 28.9266 99.6C28.5479 99.2107 28.0012 99.016 27.2866 99.016H26.2786V103.4H27.2866ZM31.9348 99.016V100.88H33.9668V101.48H31.9348V103.4H34.2068V104H31.2068V98.416H34.2068V99.016H31.9348ZM38.1004 101.128C38.303 101.16 38.487 101.243 38.6524 101.376C38.823 101.509 38.9564 101.675 39.0524 101.872C39.1537 102.069 39.2044 102.28 39.2044 102.504C39.2044 102.787 39.1324 103.043 38.9884 103.272C38.8444 103.496 38.6337 103.675 38.3564 103.808C38.0844 103.936 37.7617 104 37.3884 104H35.3084V98.424H37.3084C37.687 98.424 38.0097 98.488 38.2764 98.616C38.543 98.7387 38.743 98.9067 38.8764 99.12C39.0097 99.3333 39.0764 99.5733 39.0764 99.84C39.0764 100.171 38.9857 100.445 38.8044 100.664C38.6284 100.877 38.3937 101.032 38.1004 101.128ZM36.0364 100.832H37.2604C37.6017 100.832 37.8657 100.752 38.0524 100.592C38.239 100.432 38.3324 100.211 38.3324 99.928C38.3324 99.6453 38.239 99.424 38.0524 99.264C37.8657 99.104 37.5964 99.024 37.2444 99.024H36.0364V100.832ZM37.3244 103.4C37.687 103.4 37.9697 103.315 38.1724 103.144C38.375 102.973 38.4764 102.736 38.4764 102.432C38.4764 102.123 38.3697 101.88 38.1564 101.704C37.943 101.523 37.6577 101.432 37.3004 101.432H36.0364V103.4H37.3244ZM43.6466 98.424V99.016H42.1266V104H41.3986V99.016H39.8706V98.424H43.6466Z" fill="black"/>
<path d="M27.2866 141.424C27.8946 141.424 28.4199 141.539 28.8626 141.768C29.3106 141.992 29.6519 142.315 29.8866 142.736C30.1266 143.157 30.2466 143.653 30.2466 144.224C30.2466 144.795 30.1266 145.291 29.8866 145.712C29.6519 146.128 29.3106 146.448 28.8626 146.672C28.4199 146.891 27.8946 147 27.2866 147H25.5506V141.424H27.2866ZM27.2866 146.4C28.0066 146.4 28.5559 146.211 28.9346 145.832C29.3132 145.448 29.5026 144.912 29.5026 144.224C29.5026 143.531 29.3106 142.989 28.9266 142.6C28.5479 142.211 28.0012 142.016 27.2866 142.016H26.2786V146.4H27.2866ZM31.9348 142.016V143.88H33.9668V144.48H31.9348V146.4H34.2068V147H31.2068V141.416H34.2068V142.016H31.9348ZM38.1004 144.128C38.303 144.16 38.487 144.243 38.6524 144.376C38.823 144.509 38.9564 144.675 39.0524 144.872C39.1537 145.069 39.2044 145.28 39.2044 145.504C39.2044 145.787 39.1324 146.043 38.9884 146.272C38.8444 146.496 38.6337 146.675 38.3564 146.808C38.0844 146.936 37.7617 147 37.3884 147H35.3084V141.424H37.3084C37.687 141.424 38.0097 141.488 38.2764 141.616C38.543 141.739 38.743 141.907 38.8764 142.12C39.0097 142.333 39.0764 142.573 39.0764 142.84C39.0764 143.171 38.9857 143.445 38.8044 143.664C38.6284 143.877 38.3937 144.032 38.1004 144.128ZM36.0364 143.832H37.2604C37.6017 143.832 37.8657 143.752 38.0524 143.592C38.239 143.432 38.3324 143.211 38.3324 142.928C38.3324 142.645 38.239 142.424 38.0524 142.264C37.8657 142.104 37.5964 142.024 37.2444 142.024H36.0364V143.832ZM37.3244 146.4C37.687 146.4 37.9697 146.315 38.1724 146.144C38.375 145.973 38.4764 145.736 38.4764 145.432C38.4764 145.123 38.3697 144.88 38.1564 144.704C37.943 144.523 37.6577 144.432 37.3004 144.432H36.0364V146.4H37.3244ZM43.6466 141.424V142.016H42.1266V147H41.3986V142.016H39.8706V141.424H43.6466Z" fill="black"/>
<path d="M27.2866 185.424C27.8946 185.424 28.4199 185.539 28.8626 185.768C29.3106 185.992 29.6519 186.315 29.8866 186.736C30.1266 187.157 30.2466 187.653 30.2466 188.224C30.2466 188.795 30.1266 189.291 29.8866 189.712C29.6519 190.128 29.3106 190.448 28.8626 190.672C28.4199 190.891 27.8946 191 27.2866 191H25.5506V185.424H27.2866ZM27.2866 190.4C28.0066 190.4 28.5559 190.211 28.9346 189.832C29.3132 189.448 29.5026 188.912 29.5026 188.224C29.5026 187.531 29.3106 186.989 28.9266 186.6C28.5479 186.211 28.0012 186.016 27.2866 186.016H26.2786V190.4H27.2866ZM31.9348 186.016V187.88H33.9668V188.48H31.9348V190.4H34.2068V191H31.2068V185.416H34.2068V186.016H31.9348ZM38.1004 188.128C38.303 188.16 38.487 188.243 38.6524 188.376C38.823 188.509 38.9564 188.675 39.0524 188.872C39.1537 189.069 39.2044 189.28 39.2044 189.504C39.2044 189.787 39.1324 190.043 38.9884 190.272C38.8444 190.496 38.6337 190.675 38.3564 190.808C38.0844 190.936 37.7617 191 37.3884 191H35.3084V185.424H37.3084C37.687 185.424 38.0097 185.488 38.2764 185.616C38.543 185.739 38.743 185.907 38.8764 186.12C39.0097 186.333 39.0764 186.573 39.0764 186.84C39.0764 187.171 38.9857 187.445 38.8044 187.664C38.6284 187.877 38.3937 188.032 38.1004 188.128ZM36.0364 187.832H37.2604C37.6017 187.832 37.8657 187.752 38.0524 187.592C38.239 187.432 38.3324 187.211 38.3324 186.928C38.3324 186.645 38.239 186.424 38.0524 186.264C37.8657 186.104 37.5964 186.024 37.2444 186.024H36.0364V187.832ZM37.3244 190.4C37.687 190.4 37.9697 190.315 38.1724 190.144C38.375 189.973 38.4764 189.736 38.4764 189.432C38.4764 189.123 38.3697 188.88 38.1564 188.704C37.943 188.523 37.6577 188.432 37.3004 188.432H36.0364V190.4H37.3244ZM43.6466 185.424V186.016H42.1266V191H41.3986V186.016H39.8706V185.424H43.6466Z" fill="black"/>
<path d="M27.2866 228.424C27.8946 228.424 28.4199 228.539 28.8626 228.768C29.3106 228.992 29.6519 229.315 29.8866 229.736C30.1266 230.157 30.2466 230.653 30.2466 231.224C30.2466 231.795 30.1266 232.291 29.8866 232.712C29.6519 233.128 29.3106 233.448 28.8626 233.672C28.4199 233.891 27.8946 234 27.2866 234H25.5506V228.424H27.2866ZM27.2866 233.4C28.0066 233.4 28.5559 233.211 28.9346 232.832C29.3132 232.448 29.5026 231.912 29.5026 231.224C29.5026 230.531 29.3106 229.989 28.9266 229.6C28.5479 229.211 28.0012 229.016 27.2866 229.016H26.2786V233.4H27.2866ZM31.9348 229.016V230.88H33.9668V231.48H31.9348V233.4H34.2068V234H31.2068V228.416H34.2068V229.016H31.9348ZM38.1004 231.128C38.303 231.16 38.487 231.243 38.6524 231.376C38.823 231.509 38.9564 231.675 39.0524 231.872C39.1537 232.069 39.2044 232.28 39.2044 232.504C39.2044 232.787 39.1324 233.043 38.9884 233.272C38.8444 233.496 38.6337 233.675 38.3564 233.808C38.0844 233.936 37.7617 234 37.3884 234H35.3084V228.424H37.3084C37.687 228.424 38.0097 228.488 38.2764 228.616C38.543 228.739 38.743 228.907 38.8764 229.12C39.0097 229.333 39.0764 229.573 39.0764 229.84C39.0764 230.171 38.9857 230.445 38.8044 230.664C38.6284 230.877 38.3937 231.032 38.1004 231.128ZM36.0364 230.832H37.2604C37.6017 230.832 37.8657 230.752 38.0524 230.592C38.239 230.432 38.3324 230.211 38.3324 229.928C38.3324 229.645 38.239 229.424 38.0524 229.264C37.8657 229.104 37.5964 229.024 37.2444 229.024H36.0364V230.832ZM37.3244 233.4C37.687 233.4 37.9697 233.315 38.1724 233.144C38.375 232.973 38.4764 232.736 38.4764 232.432C38.4764 232.123 38.3697 231.88 38.1564 231.704C37.943 231.523 37.6577 231.432 37.3004 231.432H36.0364V233.4H37.3244ZM43.6466 228.424V229.016H42.1266V234H41.3986V229.016H39.8706V228.424H43.6466Z" fill="black"/>
<rect x="17.8862" y="37.7559" width="112.098" height="37.5898" rx="6.71247" fill="#C4C4C4"/>
<path d="M28.9826 56.9533V57.5453H27.4626V62.5293H26.7346V57.5453H25.2066V56.9533H28.9826ZM32.4067 62.5853C31.8894 62.5853 31.4174 62.4653 30.9907 62.2253C30.564 61.98 30.2254 61.6413 29.9747 61.2093C29.7294 60.772 29.6067 60.2813 29.6067 59.7373C29.6067 59.1933 29.7294 58.7053 29.9747 58.2733C30.2254 57.836 30.564 57.4973 30.9907 57.2573C31.4174 57.012 31.8894 56.8893 32.4067 56.8893C32.9294 56.8893 33.404 57.012 33.8307 57.2573C34.2574 57.4973 34.5934 57.8333 34.8387 58.2653C35.084 58.6973 35.2067 59.188 35.2067 59.7373C35.2067 60.2866 35.084 60.7773 34.8387 61.2093C34.5934 61.6413 34.2574 61.98 33.8307 62.2253C33.404 62.4653 32.9294 62.5853 32.4067 62.5853ZM32.4067 61.9533C32.796 61.9533 33.1454 61.8626 33.4547 61.6813C33.7694 61.5 34.0147 61.2413 34.1907 60.9053C34.372 60.5693 34.4627 60.18 34.4627 59.7373C34.4627 59.2893 34.372 58.9 34.1907 58.5693C34.0147 58.2333 33.772 57.9746 33.4627 57.7933C33.1534 57.612 32.8014 57.5213 32.4067 57.5213C32.012 57.5213 31.66 57.612 31.3507 57.7933C31.0414 57.9746 30.796 58.2333 30.6147 58.5693C30.4387 58.9 30.3507 59.2893 30.3507 59.7373C30.3507 60.18 30.4387 60.5693 30.6147 60.9053C30.796 61.2413 31.0414 61.5 31.3507 61.6813C31.6654 61.8626 32.0174 61.9533 32.4067 61.9533ZM39.5998 56.9533V57.5453H38.0798V62.5293H37.3518V57.5453H35.8238V56.9533H39.5998ZM43.7919 61.2893H41.3599L40.9119 62.5293H40.1439L42.1599 56.9853H42.9999L45.0079 62.5293H44.2399L43.7919 61.2893ZM43.5839 60.6973L42.5759 57.8813L41.5679 60.6973H43.5839ZM46.6145 61.9373H48.5665V62.5293H45.8865V56.9533H46.6145V61.9373ZM53.2084 56.9533C53.8164 56.9533 54.3418 57.068 54.7844 57.2973C55.2324 57.5213 55.5738 57.844 55.8084 58.2653C56.0484 58.6866 56.1684 59.1826 56.1684 59.7533C56.1684 60.324 56.0484 60.82 55.8084 61.2413C55.5738 61.6573 55.2324 61.9773 54.7844 62.2013C54.3418 62.42 53.8164 62.5293 53.2084 62.5293H51.4724V56.9533H53.2084ZM53.2084 61.9293C53.9284 61.9293 54.4778 61.74 54.8564 61.3613C55.2351 60.9773 55.4244 60.4413 55.4244 59.7533C55.4244 59.06 55.2324 58.5186 54.8484 58.1293C54.4698 57.74 53.9231 57.5453 53.2084 57.5453H52.2004V61.9293H53.2084ZM57.8567 57.5453V59.4093H59.8887V60.0093H57.8567V61.9293H60.1287V62.5293H57.1287V56.9453H60.1287V57.5453H57.8567ZM64.0223 59.6573C64.2249 59.6893 64.4089 59.772 64.5743 59.9053C64.7449 60.0386 64.8783 60.204 64.9743 60.4013C65.0756 60.5986 65.1263 60.8093 65.1263 61.0333C65.1263 61.316 65.0543 61.572 64.9103 61.8013C64.7663 62.0253 64.5556 62.204 64.2783 62.3373C64.0063 62.4653 63.6836 62.5293 63.3103 62.5293H61.2303V56.9533H63.2303C63.6089 56.9533 63.9316 57.0173 64.1983 57.1453C64.4649 57.268 64.6649 57.436 64.7983 57.6493C64.9316 57.8626 64.9983 58.1026 64.9983 58.3693C64.9983 58.7 64.9076 58.9746 64.7263 59.1933C64.5503 59.4066 64.3156 59.5613 64.0223 59.6573ZM61.9583 59.3613H63.1823C63.5236 59.3613 63.7876 59.2813 63.9743 59.1213C64.1609 58.9613 64.2543 58.74 64.2543 58.4573C64.2543 58.1746 64.1609 57.9533 63.9743 57.7933C63.7876 57.6333 63.5183 57.5533 63.1663 57.5533H61.9583V59.3613ZM63.2463 61.9293C63.6089 61.9293 63.8916 61.844 64.0943 61.6733C64.2969 61.5026 64.3983 61.2653 64.3983 60.9613C64.3983 60.652 64.2916 60.4093 64.0783 60.2333C63.8649 60.052 63.5796 59.9613 63.2223 59.9613H61.9583V61.9293H63.2463ZM69.5685 56.9533V57.5453H68.0485V62.5293H67.3205V57.5453H65.7925V56.9533H69.5685ZM75.1254 62.5853C74.6081 62.5853 74.1361 62.4653 73.7094 62.2253C73.2828 61.98 72.9441 61.6413 72.6934 61.2093C72.4481 60.772 72.3254 60.2813 72.3254 59.7373C72.3254 59.1933 72.4481 58.7053 72.6934 58.2733C72.9441 57.836 73.2828 57.4973 73.7094 57.2573C74.1361 57.012 74.6081 56.8893 75.1254 56.8893C75.6481 56.8893 76.1228 57.012 76.5494 57.2573C76.9761 57.4973 77.3121 57.8333 77.5574 58.2653C77.8028 58.6973 77.9254 59.188 77.9254 59.7373C77.9254 60.2866 77.8028 60.7773 77.5574 61.2093C77.3121 61.6413 76.9761 61.98 76.5494 62.2253C76.1228 62.4653 75.6481 62.5853 75.1254 62.5853ZM75.1254 61.9533C75.5148 61.9533 75.8641 61.8626 76.1734 61.6813C76.4881 61.5 76.7334 61.2413 76.9094 60.9053C77.0908 60.5693 77.1814 60.18 77.1814 59.7373C77.1814 59.2893 77.0908 58.9 76.9094 58.5693C76.7334 58.2333 76.4908 57.9746 76.1814 57.7933C75.8721 57.612 75.5201 57.5213 75.1254 57.5213C74.7308 57.5213 74.3788 57.612 74.0694 57.7933C73.7601 57.9746 73.5148 58.2333 73.3334 58.5693C73.1574 58.9 73.0694 59.2893 73.0694 59.7373C73.0694 60.18 73.1574 60.5693 73.3334 60.9053C73.5148 61.2413 73.7601 61.5 74.0694 61.6813C74.3841 61.8626 74.7361 61.9533 75.1254 61.9533ZM83.4945 56.9533L81.3905 62.5293H80.5505L78.4465 56.9533H79.2225L80.9745 61.7613L82.7265 56.9533H83.4945ZM85.0208 57.5453V59.4093H87.0528V60.0093H85.0208V61.9293H87.2928V62.5293H84.2928V56.9453H87.2928V57.5453H85.0208ZM91.3303 62.5293L90.0023 60.2493H89.1223V62.5293H88.3943V56.9533H90.1943C90.6157 56.9533 90.9703 57.0253 91.2583 57.1693C91.5517 57.3133 91.7703 57.508 91.9143 57.7533C92.0583 57.9986 92.1303 58.2786 92.1303 58.5933C92.1303 58.9773 92.0183 59.316 91.7943 59.6093C91.5757 59.9026 91.245 60.0973 90.8023 60.1933L92.2023 62.5293H91.3303ZM89.1223 59.6653H90.1943C90.589 59.6653 90.885 59.5693 91.0823 59.3773C91.2797 59.18 91.3783 58.9186 91.3783 58.5933C91.3783 58.2626 91.2797 58.0066 91.0823 57.8253C90.8903 57.644 90.5943 57.5533 90.1943 57.5533H89.1223V59.6653ZM97.8695 56.9533L95.7655 62.5293H94.9255L92.8215 56.9533H93.5975L95.3495 61.7613L97.1015 56.9533H97.8695ZM99.3958 56.9533V62.5293H98.6678V56.9533H99.3958ZM101.365 57.5453V59.4093H103.397V60.0093H101.365V61.9293H103.637V62.5293H100.637V56.9453H103.637V57.5453H101.365ZM111.746 56.9533L110.13 62.5293H109.314L108.018 58.0413L106.674 62.5293L105.866 62.5373L104.306 56.9533H105.082L106.298 61.6813L107.642 56.9533H108.458L109.738 61.6653L110.962 56.9533H111.746Z" fill="black"/>
<rect x="90.0454" y="82.0586" width="39.9392" height="38.2611" rx="6.71247" fill="#C4C4C4"/>
<rect x="90.0454" y="125.354" width="39.9392" height="38.2611" rx="6.71247" fill="#C4C4C4"/>
<rect x="90.0454" y="168.648" width="39.9392" height="38.2611" rx="6.71247" fill="#C4C4C4"/>
<rect x="90.0454" y="211.945" width="39.9392" height="38.2611" rx="6.71247" fill="#C4C4C4"/>
<path d="M93.344 102.208C93.344 101.664 93.4667 101.176 93.712 100.744C93.9573 100.307 94.2907 99.9653 94.712 99.72C95.1387 99.4747 95.6107 99.352 96.128 99.352C96.736 99.352 97.2667 99.4987 97.72 99.792C98.1733 100.085 98.504 100.501 98.712 101.04H97.84C97.6853 100.704 97.4613 100.445 97.168 100.264C96.88 100.083 96.5333 99.992 96.128 99.992C95.7387 99.992 95.3893 100.083 95.08 100.264C94.7707 100.445 94.528 100.704 94.352 101.04C94.176 101.371 94.088 101.76 94.088 102.208C94.088 102.651 94.176 103.04 94.352 103.376C94.528 103.707 94.7707 103.963 95.08 104.144C95.3893 104.325 95.7387 104.416 96.128 104.416C96.5333 104.416 96.88 104.328 97.168 104.152C97.4613 103.971 97.6853 103.712 97.84 103.376H98.712C98.504 103.909 98.1733 104.323 97.72 104.616C97.2667 104.904 96.736 105.048 96.128 105.048C95.6107 105.048 95.1387 104.928 94.712 104.688C94.2907 104.443 93.9573 104.104 93.712 103.672C93.4667 103.24 93.344 102.752 93.344 102.208ZM104.092 99.424V105H103.364V102.472H100.524V105H99.7957V99.424H100.524V101.872H103.364V99.424H104.092ZM108.631 103.76H106.199L105.751 105H104.983L106.999 99.456H107.839L109.847 105H109.079L108.631 103.76ZM108.423 103.168L107.415 100.352L106.407 103.168H108.423ZM115.109 105H114.381L111.453 100.56V105H110.725V99.416H111.453L114.381 103.848V99.416H115.109V105ZM120.574 101.04C120.42 100.715 120.196 100.464 119.902 100.288C119.609 100.107 119.268 100.016 118.878 100.016C118.489 100.016 118.137 100.107 117.822 100.288C117.513 100.464 117.268 100.72 117.086 101.056C116.91 101.387 116.822 101.771 116.822 102.208C116.822 102.645 116.91 103.029 117.086 103.36C117.268 103.691 117.513 103.947 117.822 104.128C118.137 104.304 118.489 104.392 118.878 104.392C119.422 104.392 119.87 104.229 120.222 103.904C120.574 103.579 120.78 103.139 120.838 102.584H118.614V101.992H121.614V102.552C121.572 103.011 121.428 103.432 121.182 103.816C120.937 104.195 120.614 104.496 120.214 104.72C119.814 104.939 119.369 105.048 118.878 105.048C118.361 105.048 117.889 104.928 117.462 104.688C117.036 104.443 116.697 104.104 116.446 103.672C116.201 103.24 116.078 102.752 116.078 102.208C116.078 101.664 116.201 101.176 116.446 100.744C116.697 100.307 117.036 99.968 117.462 99.728C117.889 99.4827 118.361 99.36 118.878 99.36C119.47 99.36 119.993 99.5067 120.446 99.8C120.905 100.093 121.238 100.507 121.446 101.04H120.574ZM123.305 100.016V101.88H125.337V102.48H123.305V104.4H125.577V105H122.577V99.416H125.577V100.016H123.305Z" fill="black"/>
<path d="M93.344 145.208C93.344 144.664 93.4667 144.176 93.712 143.744C93.9573 143.307 94.2907 142.965 94.712 142.72C95.1387 142.475 95.6107 142.352 96.128 142.352C96.736 142.352 97.2667 142.499 97.72 142.792C98.1733 143.085 98.504 143.501 98.712 144.04H97.84C97.6853 143.704 97.4613 143.445 97.168 143.264C96.88 143.083 96.5333 142.992 96.128 142.992C95.7387 142.992 95.3893 143.083 95.08 143.264C94.7707 143.445 94.528 143.704 94.352 144.04C94.176 144.371 94.088 144.76 94.088 145.208C94.088 145.651 94.176 146.04 94.352 146.376C94.528 146.707 94.7707 146.963 95.08 147.144C95.3893 147.325 95.7387 147.416 96.128 147.416C96.5333 147.416 96.88 147.328 97.168 147.152C97.4613 146.971 97.6853 146.712 97.84 146.376H98.712C98.504 146.909 98.1733 147.323 97.72 147.616C97.2667 147.904 96.736 148.048 96.128 148.048C95.6107 148.048 95.1387 147.928 94.712 147.688C94.2907 147.443 93.9573 147.104 93.712 146.672C93.4667 146.24 93.344 145.752 93.344 145.208ZM104.092 142.424V148H103.364V145.472H100.524V148H99.7957V142.424H100.524V144.872H103.364V142.424H104.092ZM108.631 146.76H106.199L105.751 148H104.983L106.999 142.456H107.839L109.847 148H109.079L108.631 146.76ZM108.423 146.168L107.415 143.352L106.407 146.168H108.423ZM115.109 148H114.381L111.453 143.56V148H110.725V142.416H111.453L114.381 146.848V142.416H115.109V148ZM120.574 144.04C120.42 143.715 120.196 143.464 119.902 143.288C119.609 143.107 119.268 143.016 118.878 143.016C118.489 143.016 118.137 143.107 117.822 143.288C117.513 143.464 117.268 143.72 117.086 144.056C116.91 144.387 116.822 144.771 116.822 145.208C116.822 145.645 116.91 146.029 117.086 146.36C117.268 146.691 117.513 146.947 117.822 147.128C118.137 147.304 118.489 147.392 118.878 147.392C119.422 147.392 119.87 147.229 120.222 146.904C120.574 146.579 120.78 146.139 120.838 145.584H118.614V144.992H121.614V145.552C121.572 146.011 121.428 146.432 121.182 146.816C120.937 147.195 120.614 147.496 120.214 147.72C119.814 147.939 119.369 148.048 118.878 148.048C118.361 148.048 117.889 147.928 117.462 147.688C117.036 147.443 116.697 147.104 116.446 146.672C116.201 146.24 116.078 145.752 116.078 145.208C116.078 144.664 116.201 144.176 116.446 143.744C116.697 143.307 117.036 142.968 117.462 142.728C117.889 142.483 118.361 142.36 118.878 142.36C119.47 142.36 119.993 142.507 120.446 142.8C120.905 143.093 121.238 143.507 121.446 144.04H120.574ZM123.305 143.016V144.88H125.337V145.48H123.305V147.4H125.577V148H122.577V142.416H125.577V143.016H123.305Z" fill="black"/>
<path d="M93.344 188.208C93.344 187.664 93.4667 187.176 93.712 186.744C93.9573 186.307 94.2907 185.965 94.712 185.72C95.1387 185.475 95.6107 185.352 96.128 185.352C96.736 185.352 97.2667 185.499 97.72 185.792C98.1733 186.085 98.504 186.501 98.712 187.04H97.84C97.6853 186.704 97.4613 186.445 97.168 186.264C96.88 186.083 96.5333 185.992 96.128 185.992C95.7387 185.992 95.3893 186.083 95.08 186.264C94.7707 186.445 94.528 186.704 94.352 187.04C94.176 187.371 94.088 187.76 94.088 188.208C94.088 188.651 94.176 189.04 94.352 189.376C94.528 189.707 94.7707 189.963 95.08 190.144C95.3893 190.325 95.7387 190.416 96.128 190.416C96.5333 190.416 96.88 190.328 97.168 190.152C97.4613 189.971 97.6853 189.712 97.84 189.376H98.712C98.504 189.909 98.1733 190.323 97.72 190.616C97.2667 190.904 96.736 191.048 96.128 191.048C95.6107 191.048 95.1387 190.928 94.712 190.688C94.2907 190.443 93.9573 190.104 93.712 189.672C93.4667 189.24 93.344 188.752 93.344 188.208ZM104.092 185.424V191H103.364V188.472H100.524V191H99.7957V185.424H100.524V187.872H103.364V185.424H104.092ZM108.631 189.76H106.199L105.751 191H104.983L106.999 185.456H107.839L109.847 191H109.079L108.631 189.76ZM108.423 189.168L107.415 186.352L106.407 189.168H108.423ZM115.109 191H114.381L111.453 186.56V191H110.725V185.416H111.453L114.381 189.848V185.416H115.109V191ZM120.574 187.04C120.42 186.715 120.196 186.464 119.902 186.288C119.609 186.107 119.268 186.016 118.878 186.016C118.489 186.016 118.137 186.107 117.822 186.288C117.513 186.464 117.268 186.72 117.086 187.056C116.91 187.387 116.822 187.771 116.822 188.208C116.822 188.645 116.91 189.029 117.086 189.36C117.268 189.691 117.513 189.947 117.822 190.128C118.137 190.304 118.489 190.392 118.878 190.392C119.422 190.392 119.87 190.229 120.222 189.904C120.574 189.579 120.78 189.139 120.838 188.584H118.614V187.992H121.614V188.552C121.572 189.011 121.428 189.432 121.182 189.816C120.937 190.195 120.614 190.496 120.214 190.72C119.814 190.939 119.369 191.048 118.878 191.048C118.361 191.048 117.889 190.928 117.462 190.688C117.036 190.443 116.697 190.104 116.446 189.672C116.201 189.24 116.078 188.752 116.078 188.208C116.078 187.664 116.201 187.176 116.446 186.744C116.697 186.307 117.036 185.968 117.462 185.728C117.889 185.483 118.361 185.36 118.878 185.36C119.47 185.36 119.993 185.507 120.446 185.8C120.905 186.093 121.238 186.507 121.446 187.04H120.574ZM123.305 186.016V187.88H125.337V188.48H123.305V190.4H125.577V191H122.577V185.416H125.577V186.016H123.305Z" fill="black"/>
<path d="M93.344 231.208C93.344 230.664 93.4667 230.176 93.712 229.744C93.9573 229.307 94.2907 228.965 94.712 228.72C95.1387 228.475 95.6107 228.352 96.128 228.352C96.736 228.352 97.2667 228.499 97.72 228.792C98.1733 229.085 98.504 229.501 98.712 230.04H97.84C97.6853 229.704 97.4613 229.445 97.168 229.264C96.88 229.083 96.5333 228.992 96.128 228.992C95.7387 228.992 95.3893 229.083 95.08 229.264C94.7707 229.445 94.528 229.704 94.352 230.04C94.176 230.371 94.088 230.76 94.088 231.208C94.088 231.651 94.176 232.04 94.352 232.376C94.528 232.707 94.7707 232.963 95.08 233.144C95.3893 233.325 95.7387 233.416 96.128 233.416C96.5333 233.416 96.88 233.328 97.168 233.152C97.4613 232.971 97.6853 232.712 97.84 232.376H98.712C98.504 232.909 98.1733 233.323 97.72 233.616C97.2667 233.904 96.736 234.048 96.128 234.048C95.6107 234.048 95.1387 233.928 94.712 233.688C94.2907 233.443 93.9573 233.104 93.712 232.672C93.4667 232.24 93.344 231.752 93.344 231.208ZM104.092 228.424V234H103.364V231.472H100.524V234H99.7957V228.424H100.524V230.872H103.364V228.424H104.092ZM108.631 232.76H106.199L105.751 234H104.983L106.999 228.456H107.839L109.847 234H109.079L108.631 232.76ZM108.423 232.168L107.415 229.352L106.407 232.168H108.423ZM115.109 234H114.381L111.453 229.56V234H110.725V228.416H111.453L114.381 232.848V228.416H115.109V234ZM120.574 230.04C120.42 229.715 120.196 229.464 119.902 229.288C119.609 229.107 119.268 229.016 118.878 229.016C118.489 229.016 118.137 229.107 117.822 229.288C117.513 229.464 117.268 229.72 117.086 230.056C116.91 230.387 116.822 230.771 116.822 231.208C116.822 231.645 116.91 232.029 117.086 232.36C117.268 232.691 117.513 232.947 117.822 233.128C118.137 233.304 118.489 233.392 118.878 233.392C119.422 233.392 119.87 233.229 120.222 232.904C120.574 232.579 120.78 232.139 120.838 231.584H118.614V230.992H121.614V231.552C121.572 232.011 121.428 232.432 121.182 232.816C120.937 233.195 120.614 233.496 120.214 233.72C119.814 233.939 119.369 234.048 118.878 234.048C118.361 234.048 117.889 233.928 117.462 233.688C117.036 233.443 116.697 233.104 116.446 232.672C116.201 232.24 116.078 231.752 116.078 231.208C116.078 230.664 116.201 230.176 116.446 229.744C116.697 229.307 117.036 228.968 117.462 228.728C117.889 228.483 118.361 228.36 118.878 228.36C119.47 228.36 119.993 228.507 120.446 228.8C120.905 229.093 121.238 229.507 121.446 230.04H120.574ZM123.305 229.016V230.88H125.337V231.48H123.305V233.4H125.577V234H122.577V228.416H125.577V229.016H123.305Z" fill="black"/>
</g>
<defs>
<clipPath id="clip0_149_23206">
<rect width="145.996" height="294.006" fill="white" transform="translate(0.769531 0.837891)"/>
</clipPath>
</defs>
</svg>
