<svg width="147" height="295" viewBox="0 0 147 295" fill="none" xmlns="http://www.w3.org/2000/svg">
<g clip-path="url(#clip0_149_23148)">
<path d="M146.9 74.395H145.924L145.917 22.311C145.917 10.5097 136.259 0.845013 124.45 0.845013L23.2613 0.837891C11.4523 0.837891 1.78713 10.4955 1.79425 22.3039V45.2585H0.839844V55.3505H1.79425V66.5607H0.839844V86.7519H1.79425V93.6247H0.839844V113.816H1.80137L1.81562 270.082C1.81562 281.883 11.4737 291.548 23.2827 291.548L124.471 291.555C136.28 291.555 145.945 281.898 145.938 270.089L145.924 106.701H146.9V74.395V74.395Z" fill="#BCBCBC"/>
<path d="M124.729 290.542L23.0338 290.535C11.9227 290.535 2.82732 281.44 2.82732 270.33L2.79883 22.0531C2.79883 10.9355 11.8943 1.84766 23.0053 1.84766L124.7 1.85478C135.811 1.85478 144.907 10.9497 144.907 22.0602L144.935 270.337C144.935 281.455 135.847 290.542 124.729 290.542Z" fill="#DBDBDB"/>
<path d="M136.75 24.4261C136.75 16.2998 130.098 9.65487 121.971 9.64775H105.782C105.099 9.64775 104.543 10.2033 104.543 10.887C104.543 15.6374 100.654 19.5261 95.9036 19.5261H47.5216C42.771 19.5261 38.8822 15.6374 38.8822 10.887V10.8799C38.8822 10.1962 38.3267 9.64062 37.6429 9.64062H25.6988C17.5722 9.64062 10.9199 16.2927 10.9199 24.419L10.9413 267.383C10.9413 275.509 17.5935 282.154 25.7201 282.161L122 282.168C130.126 282.168 136.779 275.516 136.779 267.39L136.75 24.4261Z" fill="white"/>
<path d="M95.2091 279.715H52.1306C51.6105 279.715 51.1831 279.27 51.1831 278.729C51.1831 278.187 51.6105 277.742 52.1306 277.742H95.2091C95.7292 277.742 96.1566 278.187 96.1566 278.729C96.1495 279.27 95.7292 279.715 95.2091 279.715Z" fill="#BFBFBF"/>
<path d="M80.6012 13.9915H67.4107C66.7918 13.9915 66.2866 13.4743 66.2866 12.8405C66.2866 12.2067 66.7918 11.6895 67.4107 11.6895H80.6012C81.2202 11.6895 81.7253 12.2067 81.7253 12.8405C81.7253 13.4743 81.2202 13.9915 80.6012 13.9915Z" fill="white"/>
<path d="M88.6057 13.6639C89.0691 13.6639 89.4447 13.2958 89.4447 12.8417C89.4447 12.3876 89.0691 12.0195 88.6057 12.0195C88.1423 12.0195 87.7666 12.3876 87.7666 12.8417C87.7666 13.2958 88.1423 13.6639 88.6057 13.6639Z" fill="white"/>
<path d="M88.605 14.3211C89.4392 14.3211 90.1153 13.6585 90.1153 12.8412C90.1153 12.0239 89.4392 11.3613 88.605 11.3613C87.7709 11.3613 87.0947 12.0239 87.0947 12.8412C87.0947 13.6585 87.7709 14.3211 88.605 14.3211Z" stroke="white" stroke-width="0.31034" stroke-miterlimit="10"/>
<rect x="17.6206" y="40.1055" width="112.098" height="29.5349" rx="6.71247" fill="#C4C4C4"/>
<rect x="17.6206" y="74.6738" width="112.098" height="21.8155" rx="6.71247" fill="#C4C4C4"/>
<rect x="17.6206" y="101.523" width="112.098" height="21.8155" rx="6.71247" fill="#C4C4C4"/>
<rect x="17.6206" y="128.375" width="112.098" height="21.8155" rx="6.71247" fill="#C4C4C4"/>
<rect x="17.6206" y="155.225" width="112.098" height="21.8155" rx="6.71247" fill="#C4C4C4"/>
<rect x="17.2856" y="254.232" width="18.7949" height="18.7949" rx="9.39745" fill="#C4C4C4"/>
<rect x="40.7793" y="254.232" width="18.7949" height="18.7949" rx="9.39745" fill="#C4C4C4"/>
<rect x="64.2725" y="254.232" width="18.7949" height="18.7949" rx="9.39745" fill="#C4C4C4"/>
<rect x="87.7666" y="254.232" width="18.7949" height="18.7949" rx="9.39745" fill="#C4C4C4"/>
<rect x="111.26" y="254.232" width="18.7949" height="18.7949" rx="9.39745" fill="#C4C4C4"/>
<rect x="111.26" y="16.2754" width="18.7949" height="18.7949" rx="9.39745" fill="#C4C4C4"/>
<rect x="17.6206" y="183.752" width="112.098" height="65.1109" rx="6.71247" fill="#C4C4C4"/>
<path d="M29.8266 60.5716C29.3093 60.5716 28.8373 60.4516 28.4106 60.2116C27.984 59.9663 27.6453 59.6276 27.3946 59.1956C27.1493 58.7583 27.0266 58.2676 27.0266 57.7236C27.0266 57.1796 27.1493 56.6916 27.3946 56.2596C27.6453 55.8223 27.984 55.4836 28.4106 55.2436C28.8373 54.9983 29.3093 54.8756 29.8266 54.8756C30.3493 54.8756 30.824 54.9983 31.2506 55.2436C31.6773 55.4836 32.0133 55.8196 32.2586 56.2516C32.504 56.6836 32.6266 57.1743 32.6266 57.7236C32.6266 58.273 32.504 58.7636 32.2586 59.1956C32.0133 59.6276 31.6773 59.9663 31.2506 60.2116C30.824 60.4516 30.3493 60.5716 29.8266 60.5716ZM29.8266 59.9396C30.216 59.9396 30.5653 59.849 30.8746 59.6676C31.1893 59.4863 31.4346 59.2276 31.6106 58.8916C31.792 58.5556 31.8826 58.1663 31.8826 57.7236C31.8826 57.2756 31.792 56.8863 31.6106 56.5556C31.4346 56.2196 31.192 55.961 30.8826 55.7796C30.5733 55.5983 30.2213 55.5076 29.8266 55.5076C29.432 55.5076 29.08 55.5983 28.7706 55.7796C28.4613 55.961 28.216 56.2196 28.0346 56.5556C27.8586 56.8863 27.7706 57.2756 27.7706 57.7236C27.7706 58.1663 27.8586 58.5556 28.0346 58.8916C28.216 59.2276 28.4613 59.4863 28.7706 59.6676C29.0853 59.849 29.4373 59.9396 29.8266 59.9396ZM38.1957 54.9396L36.0917 60.5156H35.2517L33.1477 54.9396H33.9237L35.6757 59.7476L37.4277 54.9396H38.1957ZM39.7219 55.5316V57.3956H41.7539V57.9956H39.7219V59.9156H41.9939V60.5156H38.9939V54.9316H41.9939V55.5316H39.7219ZM46.0315 60.5156L44.7035 58.2356H43.8235V60.5156H43.0955V54.9396H44.8955C45.3168 54.9396 45.6715 55.0116 45.9595 55.1556C46.2528 55.2996 46.4715 55.4943 46.6155 55.7396C46.7595 55.985 46.8315 56.265 46.8315 56.5796C46.8315 56.9636 46.7195 57.3023 46.4955 57.5956C46.2768 57.889 45.9462 58.0836 45.5035 58.1796L46.9035 60.5156H46.0315ZM43.8235 57.6516H44.8955C45.2902 57.6516 45.5862 57.5556 45.7835 57.3636C45.9808 57.1663 46.0795 56.905 46.0795 56.5796C46.0795 56.249 45.9808 55.993 45.7835 55.8116C45.5915 55.6303 45.2955 55.5396 44.8955 55.5396H43.8235V57.6516ZM52.5707 54.9396L50.4667 60.5156H49.6267L47.5227 54.9396H48.2987L50.0507 59.7476L51.8027 54.9396H52.5707ZM54.0969 54.9396V60.5156H53.3689V54.9396H54.0969ZM56.0657 55.5316V57.3956H58.0977V57.9956H56.0657V59.9156H58.3377V60.5156H55.3377V54.9316H58.3377V55.5316H56.0657ZM66.4472 54.9396L64.8312 60.5156H64.0152L62.7192 56.0276L61.3752 60.5156L60.5672 60.5236L59.0072 54.9396H59.7832L60.9992 59.6676L62.3432 54.9396H63.1592L64.4392 59.6516L65.6632 54.9396H66.4472Z" fill="black"/>
<path d="M28.7488 88.5225C28.9515 88.5545 29.1355 88.6372 29.3008 88.7705C29.4715 88.9039 29.6048 89.0692 29.7008 89.2665C29.8022 89.4639 29.8528 89.6745 29.8528 89.8985C29.8528 90.1812 29.7808 90.4372 29.6368 90.6665C29.4928 90.8905 29.2822 91.0692 29.0048 91.2025C28.7328 91.3305 28.4102 91.3945 28.0368 91.3945H25.9568V85.8185H27.9568C28.3355 85.8185 28.6582 85.8825 28.9248 86.0105C29.1915 86.1332 29.3915 86.3012 29.5248 86.5145C29.6582 86.7279 29.7248 86.9679 29.7248 87.2345C29.7248 87.5652 29.6342 87.8399 29.4528 88.0585C29.2768 88.2719 29.0422 88.4265 28.7488 88.5225ZM26.6848 88.2265H27.9088C28.2502 88.2265 28.5142 88.1465 28.7008 87.9865C28.8875 87.8265 28.9808 87.6052 28.9808 87.3225C28.9808 87.0399 28.8875 86.8185 28.7008 86.6585C28.5142 86.4985 28.2448 86.4185 27.8928 86.4185H26.6848V88.2265ZM27.9728 90.7945C28.3355 90.7945 28.6182 90.7092 28.8208 90.5385C29.0235 90.3679 29.1248 90.1305 29.1248 89.8265C29.1248 89.5172 29.0182 89.2745 28.8048 89.0985C28.5915 88.9172 28.3062 88.8265 27.9488 88.8265H26.6848V90.7945H27.9728ZM31.5911 85.8185V91.3945H30.8631V85.8185H31.5911ZM33.5598 90.8025H35.5118V91.3945H32.8318V85.8185H33.5598V90.8025ZM37.0129 90.8025H38.9649V91.3945H36.2849V85.8185H37.0129V90.8025ZM41.5061 91.4505C41.1381 91.4505 40.8074 91.3865 40.5141 91.2585C40.2261 91.1252 39.9994 90.9439 39.8341 90.7145C39.6687 90.4799 39.5834 90.2105 39.5781 89.9065H40.3541C40.3807 90.1679 40.4874 90.3892 40.6741 90.5705C40.8661 90.7465 41.1434 90.8345 41.5061 90.8345C41.8527 90.8345 42.1247 90.7492 42.3221 90.5785C42.5247 90.4025 42.6261 90.1785 42.6261 89.9065C42.6261 89.6932 42.5674 89.5199 42.4501 89.3865C42.3327 89.2532 42.1861 89.1519 42.0101 89.0825C41.8341 89.0132 41.5967 88.9385 41.2981 88.8585C40.9301 88.7625 40.6341 88.6665 40.4101 88.5705C40.1914 88.4745 40.0021 88.3252 39.8421 88.1225C39.6874 87.9145 39.6101 87.6372 39.6101 87.2905C39.6101 86.9865 39.6874 86.7172 39.8421 86.4825C39.9967 86.2479 40.2127 86.0665 40.4901 85.9385C40.7727 85.8105 41.0954 85.7465 41.4581 85.7465C41.9807 85.7465 42.4074 85.8772 42.7381 86.1385C43.0741 86.3999 43.2634 86.7465 43.3061 87.1785H42.5061C42.4794 86.9652 42.3674 86.7785 42.1701 86.6185C41.9727 86.4532 41.7114 86.3705 41.3861 86.3705C41.0821 86.3705 40.8341 86.4505 40.6421 86.6105C40.4501 86.7652 40.3541 86.9839 40.3541 87.2665C40.3541 87.4692 40.4101 87.6345 40.5221 87.7625C40.6394 87.8905 40.7807 87.9892 40.9461 88.0585C41.1167 88.1225 41.3541 88.1972 41.6581 88.2825C42.0261 88.3839 42.3221 88.4852 42.5461 88.5865C42.7701 88.6825 42.9621 88.8345 43.1221 89.0425C43.2821 89.2452 43.3621 89.5225 43.3621 89.8745C43.3621 90.1465 43.2901 90.4025 43.1461 90.6425C43.0021 90.8825 42.7887 91.0772 42.5061 91.2265C42.2234 91.3759 41.8901 91.4505 41.5061 91.4505Z" fill="black"/>
<path d="M27.6928 112.668C28.3008 112.668 28.8262 112.783 29.2688 113.012C29.7168 113.236 30.0582 113.559 30.2928 113.98C30.5328 114.401 30.6528 114.897 30.6528 115.468C30.6528 116.039 30.5328 116.535 30.2928 116.956C30.0582 117.372 29.7168 117.692 29.2688 117.916C28.8262 118.135 28.3008 118.244 27.6928 118.244H25.9568V112.668H27.6928ZM27.6928 117.644C28.4128 117.644 28.9622 117.455 29.3408 117.076C29.7195 116.692 29.9088 116.156 29.9088 115.468C29.9088 114.775 29.7168 114.233 29.3328 113.844C28.9542 113.455 28.4075 113.26 27.6928 113.26H26.6848V117.644H27.6928ZM32.3411 113.26V115.124H34.3731V115.724H32.3411V117.644H34.6131V118.244H31.6131V112.66H34.6131V113.26H32.3411ZM38.5066 115.372C38.7093 115.404 38.8933 115.487 39.0586 115.62C39.2293 115.753 39.3626 115.919 39.4586 116.116C39.56 116.313 39.6106 116.524 39.6106 116.748C39.6106 117.031 39.5386 117.287 39.3946 117.516C39.2506 117.74 39.04 117.919 38.7626 118.052C38.4906 118.18 38.168 118.244 37.7946 118.244H35.7146V112.668H37.7146C38.0933 112.668 38.416 112.732 38.6826 112.86C38.9493 112.983 39.1493 113.151 39.2826 113.364C39.416 113.577 39.4826 113.817 39.4826 114.084C39.4826 114.415 39.392 114.689 39.2106 114.908C39.0346 115.121 38.8 115.276 38.5066 115.372ZM36.4426 115.076H37.6666C38.008 115.076 38.272 114.996 38.4586 114.836C38.6453 114.676 38.7386 114.455 38.7386 114.172C38.7386 113.889 38.6453 113.668 38.4586 113.508C38.272 113.348 38.0026 113.268 37.6506 113.268H36.4426V115.076ZM37.7306 117.644C38.0933 117.644 38.376 117.559 38.5786 117.388C38.7813 117.217 38.8826 116.98 38.8826 116.676C38.8826 116.367 38.776 116.124 38.5626 115.948C38.3493 115.767 38.064 115.676 37.7066 115.676H36.4426V117.644H37.7306ZM44.0529 112.668V113.26H42.5329V118.244H41.8049V113.26H40.2769V112.668H44.0529Z" fill="black"/>
<path d="M27.7248 145.15C27.3568 145.15 27.0262 145.086 26.7328 144.958C26.4448 144.824 26.2182 144.643 26.0528 144.414C25.8875 144.179 25.8022 143.91 25.7968 143.606H26.5728C26.5995 143.867 26.7062 144.088 26.8928 144.27C27.0848 144.446 27.3622 144.534 27.7248 144.534C28.0715 144.534 28.3435 144.448 28.5408 144.278C28.7435 144.102 28.8448 143.878 28.8448 143.606C28.8448 143.392 28.7862 143.219 28.6688 143.086C28.5515 142.952 28.4048 142.851 28.2288 142.782C28.0528 142.712 27.8155 142.638 27.5168 142.558C27.1488 142.462 26.8528 142.366 26.6288 142.27C26.4102 142.174 26.2208 142.024 26.0608 141.822C25.9062 141.614 25.8288 141.336 25.8288 140.99C25.8288 140.686 25.9062 140.416 26.0608 140.182C26.2155 139.947 26.4315 139.766 26.7088 139.638C26.9915 139.51 27.3142 139.446 27.6768 139.446C28.1995 139.446 28.6262 139.576 28.9568 139.838C29.2928 140.099 29.4822 140.446 29.5248 140.878H28.7248C28.6982 140.664 28.5862 140.478 28.3888 140.318C28.1915 140.152 27.9302 140.07 27.6048 140.07C27.3008 140.07 27.0528 140.15 26.8608 140.31C26.6688 140.464 26.5728 140.683 26.5728 140.966C26.5728 141.168 26.6288 141.334 26.7408 141.462C26.8582 141.59 26.9995 141.688 27.1648 141.758C27.3355 141.822 27.5728 141.896 27.8768 141.982C28.2448 142.083 28.5408 142.184 28.7648 142.286C28.9888 142.382 29.1808 142.534 29.3408 142.742C29.5008 142.944 29.5808 143.222 29.5808 143.574C29.5808 143.846 29.5088 144.102 29.3648 144.342C29.2208 144.582 29.0075 144.776 28.7248 144.926C28.4422 145.075 28.1088 145.15 27.7248 145.15ZM33.9481 143.854H31.5161L31.0681 145.094H30.3001L32.3161 139.55H33.1561L35.1641 145.094H34.3961L33.9481 143.854ZM33.7401 143.262L32.7321 140.446L31.7241 143.262H33.7401ZM40.6508 139.518L38.5468 145.094H37.7068L35.6028 139.518H36.3788L38.1308 144.326L39.8828 139.518H40.6508ZM42.177 139.518V145.094H41.449V139.518H42.177ZM47.8018 145.094H47.0738L44.1458 140.654V145.094H43.4178V139.51H44.1458L47.0738 143.942V139.51H47.8018V145.094ZM53.2668 141.134C53.1121 140.808 52.8881 140.558 52.5948 140.382C52.3014 140.2 51.9601 140.11 51.5708 140.11C51.1814 140.11 50.8294 140.2 50.5148 140.382C50.2054 140.558 49.9601 140.814 49.7788 141.15C49.6028 141.48 49.5148 141.864 49.5148 142.302C49.5148 142.739 49.6028 143.123 49.7788 143.454C49.9601 143.784 50.2054 144.04 50.5148 144.222C50.8294 144.398 51.1814 144.486 51.5708 144.486C52.1148 144.486 52.5628 144.323 52.9148 143.998C53.2668 143.672 53.4721 143.232 53.5308 142.678H51.3068V142.086H54.3068V142.646C54.2641 143.104 54.1201 143.526 53.8748 143.91C53.6294 144.288 53.3068 144.59 52.9068 144.814C52.5068 145.032 52.0614 145.142 51.5708 145.142C51.0534 145.142 50.5814 145.022 50.1548 144.782C49.7281 144.536 49.3894 144.198 49.1388 143.766C48.8934 143.334 48.7708 142.846 48.7708 142.302C48.7708 141.758 48.8934 141.27 49.1388 140.838C49.3894 140.4 49.7281 140.062 50.1548 139.822C50.5814 139.576 51.0534 139.454 51.5708 139.454C52.1628 139.454 52.6854 139.6 53.1388 139.894C53.5974 140.187 53.9308 140.6 54.1388 141.134H53.2668ZM57.0373 145.15C56.6693 145.15 56.3387 145.086 56.0453 144.958C55.7573 144.824 55.5307 144.643 55.3653 144.414C55.2 144.179 55.1147 143.91 55.1093 143.606H55.8853C55.912 143.867 56.0187 144.088 56.2053 144.27C56.3973 144.446 56.6747 144.534 57.0373 144.534C57.384 144.534 57.656 144.448 57.8533 144.278C58.056 144.102 58.1573 143.878 58.1573 143.606C58.1573 143.392 58.0987 143.219 57.9813 143.086C57.864 142.952 57.7173 142.851 57.5413 142.782C57.3653 142.712 57.128 142.638 56.8293 142.558C56.4613 142.462 56.1653 142.366 55.9413 142.27C55.7227 142.174 55.5333 142.024 55.3733 141.822C55.2187 141.614 55.1413 141.336 55.1413 140.99C55.1413 140.686 55.2187 140.416 55.3733 140.182C55.528 139.947 55.744 139.766 56.0213 139.638C56.304 139.51 56.6267 139.446 56.9893 139.446C57.512 139.446 57.9387 139.576 58.2693 139.838C58.6053 140.099 58.7947 140.446 58.8373 140.878H58.0373C58.0107 140.664 57.8987 140.478 57.7013 140.318C57.504 140.152 57.2427 140.07 56.9173 140.07C56.6133 140.07 56.3653 140.15 56.1733 140.31C55.9813 140.464 55.8853 140.683 55.8853 140.966C55.8853 141.168 55.9413 141.334 56.0533 141.462C56.1707 141.59 56.312 141.688 56.4773 141.758C56.648 141.822 56.8853 141.896 57.1893 141.982C57.5573 142.083 57.8533 142.184 58.0773 142.286C58.3013 142.382 58.4933 142.534 58.6533 142.742C58.8133 142.944 58.8933 143.222 58.8933 143.574C58.8933 143.846 58.8213 144.102 58.6773 144.342C58.5333 144.582 58.32 144.776 58.0373 144.926C57.7547 145.075 57.4213 145.15 57.0373 145.15Z" fill="black"/>
<path d="M26.6848 166.367V171.943H25.9568V166.367H26.6848ZM32.3096 171.943H31.5816L28.6536 167.503V171.943H27.9256V166.359H28.6536L31.5816 170.791V166.359H32.3096V171.943ZM33.2786 169.151C33.2786 168.607 33.4012 168.119 33.6466 167.687C33.8919 167.25 34.2252 166.909 34.6466 166.663C35.0732 166.418 35.5452 166.295 36.0626 166.295C36.6706 166.295 37.2012 166.442 37.6546 166.735C38.1079 167.029 38.4386 167.445 38.6466 167.983H37.7746C37.6199 167.647 37.3959 167.389 37.1026 167.207C36.8146 167.026 36.4679 166.935 36.0626 166.935C35.6732 166.935 35.3239 167.026 35.0146 167.207C34.7052 167.389 34.4626 167.647 34.2866 167.983C34.1106 168.314 34.0226 168.703 34.0226 169.151C34.0226 169.594 34.1106 169.983 34.2866 170.319C34.4626 170.65 34.7052 170.906 35.0146 171.087C35.3239 171.269 35.6732 171.359 36.0626 171.359C36.4679 171.359 36.8146 171.271 37.1026 171.095C37.3959 170.914 37.6199 170.655 37.7746 170.319H38.6466C38.4386 170.853 38.1079 171.266 37.6546 171.559C37.2012 171.847 36.6706 171.991 36.0626 171.991C35.5452 171.991 35.0732 171.871 34.6466 171.631C34.2252 171.386 33.8919 171.047 33.6466 170.615C33.4012 170.183 33.2786 169.695 33.2786 169.151ZM42.2583 171.999C41.7409 171.999 41.2689 171.879 40.8423 171.639C40.4156 171.394 40.0769 171.055 39.8263 170.623C39.5809 170.186 39.4583 169.695 39.4583 169.151C39.4583 168.607 39.5809 168.119 39.8263 167.687C40.0769 167.25 40.4156 166.911 40.8423 166.671C41.2689 166.426 41.7409 166.303 42.2583 166.303C42.7809 166.303 43.2556 166.426 43.6823 166.671C44.1089 166.911 44.4449 167.247 44.6903 167.679C44.9356 168.111 45.0583 168.602 45.0583 169.151C45.0583 169.701 44.9356 170.191 44.6903 170.623C44.4449 171.055 44.1089 171.394 43.6823 171.639C43.2556 171.879 42.7809 171.999 42.2583 171.999ZM42.2583 171.367C42.6476 171.367 42.9969 171.277 43.3063 171.095C43.6209 170.914 43.8663 170.655 44.0423 170.319C44.2236 169.983 44.3143 169.594 44.3143 169.151C44.3143 168.703 44.2236 168.314 44.0423 167.983C43.8663 167.647 43.6236 167.389 43.3143 167.207C43.0049 167.026 42.6529 166.935 42.2583 166.935C41.8636 166.935 41.5116 167.026 41.2023 167.207C40.8929 167.389 40.6476 167.647 40.4663 167.983C40.2903 168.314 40.2023 168.703 40.2023 169.151C40.2023 169.594 40.2903 169.983 40.4663 170.319C40.6476 170.655 40.8929 170.914 41.2023 171.095C41.5169 171.277 41.8689 171.367 42.2583 171.367ZM51.6753 166.407V171.943H50.9473V167.815L49.1073 171.943H48.5953L46.7473 167.807V171.943H46.0193V166.407H46.8033L48.8513 170.983L50.8993 166.407H51.6753ZM53.6379 166.959V168.823H55.6699V169.423H53.6379V171.343H55.9099V171.943H52.9099V166.359H55.9099V166.959H53.6379Z" fill="black"/>
<path d="M29.3888 216.711V217.303H27.8688V222.287H27.1408V217.303H25.6128V216.711H29.3888ZM33.2209 222.287L31.8929 220.007H31.0129V222.287H30.2849V216.711H32.0849C32.5063 216.711 32.8609 216.783 33.1489 216.927C33.4423 217.071 33.6609 217.266 33.8049 217.511C33.9489 217.756 34.0209 218.036 34.0209 218.351C34.0209 218.735 33.9089 219.074 33.6849 219.367C33.4663 219.66 33.1356 219.855 32.6929 219.951L34.0929 222.287H33.2209ZM31.0129 219.423H32.0849C32.4796 219.423 32.7756 219.327 32.9729 219.135C33.1703 218.938 33.2689 218.676 33.2689 218.351C33.2689 218.02 33.1703 217.764 32.9729 217.583C32.7809 217.402 32.4849 217.311 32.0849 217.311H31.0129V219.423ZM38.4481 221.047H36.0161L35.5681 222.287H34.8001L36.8161 216.743H37.6561L39.6641 222.287H38.8961L38.4481 221.047ZM38.2401 220.455L37.2321 217.639L36.2241 220.455H38.2401ZM44.9268 222.287H44.1988L41.2708 217.847V222.287H40.5428V216.703H41.2708L44.1988 221.135V216.703H44.9268V222.287ZM47.9358 222.343C47.5678 222.343 47.2371 222.279 46.9438 222.151C46.6558 222.018 46.4291 221.836 46.2638 221.607C46.0984 221.372 46.0131 221.103 46.0078 220.799H46.7838C46.8104 221.06 46.9171 221.282 47.1038 221.463C47.2958 221.639 47.5731 221.727 47.9358 221.727C48.2824 221.727 48.5544 221.642 48.7518 221.471C48.9544 221.295 49.0558 221.071 49.0558 220.799C49.0558 220.586 48.9971 220.412 48.8798 220.279C48.7624 220.146 48.6158 220.044 48.4398 219.975C48.2638 219.906 48.0264 219.831 47.7278 219.751C47.3598 219.655 47.0638 219.559 46.8398 219.463C46.6211 219.367 46.4318 219.218 46.2718 219.015C46.1171 218.807 46.0398 218.53 46.0398 218.183C46.0398 217.879 46.1171 217.61 46.2718 217.375C46.4264 217.14 46.6424 216.959 46.9198 216.831C47.2024 216.703 47.5251 216.639 47.8878 216.639C48.4104 216.639 48.8371 216.77 49.1678 217.031C49.5038 217.292 49.6931 217.639 49.7358 218.071H48.9358C48.9091 217.858 48.7971 217.671 48.5998 217.511C48.4024 217.346 48.1411 217.263 47.8158 217.263C47.5118 217.263 47.2638 217.343 47.0718 217.503C46.8798 217.658 46.7838 217.876 46.7838 218.159C46.7838 218.362 46.8398 218.527 46.9518 218.655C47.0691 218.783 47.2104 218.882 47.3758 218.951C47.5464 219.015 47.7838 219.09 48.0878 219.175C48.4558 219.276 48.7518 219.378 48.9758 219.479C49.1998 219.575 49.3918 219.727 49.5518 219.935C49.7118 220.138 49.7918 220.415 49.7918 220.767C49.7918 221.039 49.7198 221.295 49.5758 221.535C49.4318 221.775 49.2184 221.97 48.9358 222.119C48.6531 222.268 48.3198 222.343 47.9358 222.343ZM54.1591 221.047H51.7271L51.2791 222.287H50.5111L52.5271 216.743H53.3671L55.3751 222.287H54.6071L54.1591 221.047ZM53.9511 220.455L52.9431 217.639L51.9351 220.455H53.9511ZM55.9817 219.495C55.9817 218.951 56.1044 218.463 56.3497 218.031C56.595 217.594 56.9284 217.252 57.3497 217.007C57.7764 216.762 58.2484 216.639 58.7657 216.639C59.3737 216.639 59.9044 216.786 60.3577 217.079C60.811 217.372 61.1417 217.788 61.3497 218.327H60.4777C60.323 217.991 60.099 217.732 59.8057 217.551C59.5177 217.37 59.171 217.279 58.7657 217.279C58.3764 217.279 58.027 217.37 57.7177 217.551C57.4084 217.732 57.1657 217.991 56.9897 218.327C56.8137 218.658 56.7257 219.047 56.7257 219.495C56.7257 219.938 56.8137 220.327 56.9897 220.663C57.1657 220.994 57.4084 221.25 57.7177 221.431C58.027 221.612 58.3764 221.703 58.7657 221.703C59.171 221.703 59.5177 221.615 59.8057 221.439C60.099 221.258 60.323 220.999 60.4777 220.663H61.3497C61.1417 221.196 60.811 221.61 60.3577 221.903C59.9044 222.191 59.3737 222.335 58.7657 222.335C58.2484 222.335 57.7764 222.215 57.3497 221.975C56.9284 221.73 56.595 221.391 56.3497 220.959C56.1044 220.527 55.9817 220.039 55.9817 219.495ZM65.8654 216.711V217.303H64.3454V222.287H63.6174V217.303H62.0894V216.711H65.8654ZM67.4895 216.711V222.287H66.7615V216.711H67.4895ZM71.2583 222.343C70.7409 222.343 70.2689 222.223 69.8423 221.983C69.4156 221.738 69.0769 221.399 68.8263 220.967C68.5809 220.53 68.4583 220.039 68.4583 219.495C68.4583 218.951 68.5809 218.463 68.8263 218.031C69.0769 217.594 69.4156 217.255 69.8423 217.015C70.2689 216.77 70.7409 216.647 71.2583 216.647C71.7809 216.647 72.2556 216.77 72.6823 217.015C73.1089 217.255 73.4449 217.591 73.6903 218.023C73.9356 218.455 74.0583 218.946 74.0583 219.495C74.0583 220.044 73.9356 220.535 73.6903 220.967C73.4449 221.399 73.1089 221.738 72.6823 221.983C72.2556 222.223 71.7809 222.343 71.2583 222.343ZM71.2583 221.711C71.6476 221.711 71.9969 221.62 72.3063 221.439C72.6209 221.258 72.8663 220.999 73.0423 220.663C73.2236 220.327 73.3143 219.938 73.3143 219.495C73.3143 219.047 73.2236 218.658 73.0423 218.327C72.8663 217.991 72.6236 217.732 72.3143 217.551C72.0049 217.37 71.6529 217.279 71.2583 217.279C70.8636 217.279 70.5116 217.37 70.2023 217.551C69.8929 217.732 69.6476 217.991 69.4663 218.327C69.2903 218.658 69.2023 219.047 69.2023 219.495C69.2023 219.938 69.2903 220.327 69.4663 220.663C69.6476 220.999 69.8929 221.258 70.2023 221.439C70.5169 221.62 70.8689 221.711 71.2583 221.711ZM79.4033 222.287H78.6753L75.7473 217.847V222.287H75.0193V216.703H75.7473L78.6753 221.135V216.703H79.4033V222.287ZM82.4123 222.343C82.0443 222.343 81.7137 222.279 81.4203 222.151C81.1323 222.018 80.9057 221.836 80.7403 221.607C80.575 221.372 80.4897 221.103 80.4843 220.799H81.2603C81.287 221.06 81.3937 221.282 81.5803 221.463C81.7723 221.639 82.0497 221.727 82.4123 221.727C82.759 221.727 83.031 221.642 83.2283 221.471C83.431 221.295 83.5323 221.071 83.5323 220.799C83.5323 220.586 83.4737 220.412 83.3563 220.279C83.239 220.146 83.0923 220.044 82.9163 219.975C82.7403 219.906 82.503 219.831 82.2043 219.751C81.8363 219.655 81.5403 219.559 81.3163 219.463C81.0977 219.367 80.9083 219.218 80.7483 219.015C80.5937 218.807 80.5163 218.53 80.5163 218.183C80.5163 217.879 80.5937 217.61 80.7483 217.375C80.903 217.14 81.119 216.959 81.3963 216.831C81.679 216.703 82.0017 216.639 82.3643 216.639C82.887 216.639 83.3137 216.77 83.6443 217.031C83.9803 217.292 84.1697 217.639 84.2123 218.071H83.4123C83.3857 217.858 83.2737 217.671 83.0763 217.511C82.879 217.346 82.6177 217.263 82.2923 217.263C81.9883 217.263 81.7403 217.343 81.5483 217.503C81.3563 217.658 81.2603 217.876 81.2603 218.159C81.2603 218.362 81.3163 218.527 81.4283 218.655C81.5457 218.783 81.687 218.882 81.8523 218.951C82.023 219.015 82.2603 219.09 82.5643 219.175C82.9323 219.276 83.2283 219.378 83.4523 219.479C83.6763 219.575 83.8683 219.727 84.0283 219.935C84.1883 220.138 84.2683 220.415 84.2683 220.767C84.2683 221.039 84.1963 221.295 84.0523 221.535C83.9083 221.775 83.695 221.97 83.4123 222.119C83.1297 222.268 82.7963 222.343 82.4123 222.343Z" fill="black"/>
<path d="M120.825 21.3105L120.825 30.0368M116.294 25.5058H125.356" stroke="black" stroke-width="0.671247"/>
</g>
<defs>
<clipPath id="clip0_149_23148">
<rect width="145.996" height="294.006" fill="white" transform="translate(0.839844 0.837891)"/>
</clipPath>
</defs>
</svg>
