<svg width="147" height="295" viewBox="0 0 147 295" fill="none" xmlns="http://www.w3.org/2000/svg">
<g clip-path="url(#clip0_149_23242)">
<path d="M146.794 74.395H145.819L145.811 22.311C145.811 10.5097 136.153 0.845013 124.344 0.845013L23.1558 0.837891C11.3468 0.837891 1.68166 10.4955 1.68878 22.3039V45.2585H0.734375V55.3505H1.68878V66.5607H0.734375V86.7519H1.68878V93.6247H0.734375V113.816H1.6959L1.71015 270.082C1.71015 281.883 11.3682 291.548 23.1772 291.548L124.366 291.555C136.175 291.555 145.84 281.898 145.833 270.089L145.819 106.701H146.794V74.395V74.395Z" fill="#BCBCBC"/>
<path d="M124.624 290.542L22.9289 290.535C11.8178 290.535 2.72234 281.44 2.72234 270.33L2.69385 22.0531C2.69385 10.9355 11.7893 1.84766 22.9004 1.84766L124.595 1.85478C135.706 1.85478 144.802 10.9497 144.802 22.0602L144.83 270.337C144.83 281.455 135.742 290.542 124.624 290.542Z" fill="#DBDBDB"/>
<path d="M136.645 24.4261C136.645 16.2998 129.993 9.65487 121.866 9.64775H105.677C104.994 9.64775 104.438 10.2033 104.438 10.887C104.438 15.6374 100.549 19.5261 95.7986 19.5261H47.4166C42.666 19.5261 38.7772 15.6374 38.7772 10.887V10.8799C38.7772 10.1962 38.2217 9.64062 37.5379 9.64062H25.5938C17.4672 9.64062 10.8149 16.2927 10.8149 24.419L10.8363 267.383C10.8363 275.509 17.4886 282.154 25.6152 282.161L121.895 282.168C130.021 282.168 136.674 275.516 136.674 267.39L136.645 24.4261Z" fill="white"/>
<path d="M80.4957 13.9915H67.3053C66.6863 13.9915 66.1812 13.4743 66.1812 12.8405C66.1812 12.2067 66.6863 11.6895 67.3053 11.6895H80.4957C81.1147 11.6895 81.6198 12.2067 81.6198 12.8405C81.6198 13.4743 81.1147 13.9915 80.4957 13.9915Z" fill="white"/>
<path d="M88.5002 13.6639C88.9636 13.6639 89.3392 13.2958 89.3392 12.8417C89.3392 12.3876 88.9636 12.0195 88.5002 12.0195C88.0368 12.0195 87.6611 12.3876 87.6611 12.8417C87.6611 13.2958 88.0368 13.6639 88.5002 13.6639Z" fill="white"/>
<path d="M88.5001 14.3211C89.3342 14.3211 90.0104 13.6585 90.0104 12.8412C90.0104 12.0239 89.3342 11.3613 88.5001 11.3613C87.6659 11.3613 86.9897 12.0239 86.9897 12.8412C86.9897 13.6585 87.6659 14.3211 88.5001 14.3211Z" stroke="white" stroke-width="0.31034" stroke-miterlimit="10"/>
<rect x="17.5156" y="69.6406" width="72.4947" height="28.8636" rx="6.71247" fill="#C4C4C4"/>
<rect x="17.1802" y="254.232" width="18.7949" height="18.7949" rx="9.39745" fill="#C4C4C4"/>
<rect x="40.6738" y="254.232" width="18.7949" height="18.7949" rx="9.39745" fill="#C4C4C4"/>
<rect x="64.1675" y="254.232" width="18.7949" height="18.7949" rx="9.39745" fill="#C4C4C4"/>
<rect x="87.6611" y="254.232" width="18.7949" height="18.7949" rx="9.39745" fill="#C4C4C4"/>
<rect x="111.155" y="254.232" width="18.7949" height="18.7949" rx="9.39745" fill="#C4C4C4"/>
<path d="M95.1037 279.715H52.0251C51.5051 279.715 51.0776 279.27 51.0776 278.729C51.0776 278.187 51.5051 277.742 52.0251 277.742H95.1037C95.6237 277.742 96.0512 278.187 96.0512 278.729C96.044 279.27 95.6237 279.715 95.1037 279.715Z" fill="#BFBFBF"/>
<rect x="111.155" y="16.2754" width="18.7949" height="18.7949" rx="9.39745" fill="#C4C4C4"/>
<path d="M120.72 21.3105L120.72 30.0368M116.189 25.5058H125.251" stroke="black" stroke-width="0.671247"/>
<path d="M27.6057 88.1068C27.2377 88.1068 26.907 88.0428 26.6137 87.9148C26.3257 87.7814 26.099 87.6001 25.9337 87.3708C25.7683 87.1361 25.683 86.8668 25.6777 86.5628H26.4537C26.4803 86.8241 26.587 87.0454 26.7737 87.2268C26.9657 87.4028 27.243 87.4908 27.6057 87.4908C27.9523 87.4908 28.2243 87.4054 28.4217 87.2348C28.6243 87.0588 28.7257 86.8348 28.7257 86.5628C28.7257 86.3494 28.667 86.1761 28.5497 86.0428C28.4323 85.9094 28.2857 85.8081 28.1097 85.7388C27.9337 85.6694 27.6963 85.5948 27.3977 85.5148C27.0297 85.4188 26.7337 85.3228 26.5097 85.2268C26.291 85.1308 26.1017 84.9814 25.9417 84.7788C25.787 84.5708 25.7097 84.2934 25.7097 83.9468C25.7097 83.6428 25.787 83.3734 25.9417 83.1388C26.0963 82.9041 26.3123 82.7228 26.5897 82.5948C26.8723 82.4668 27.195 82.4028 27.5577 82.4028C28.0803 82.4028 28.507 82.5334 28.8377 82.7948C29.1737 83.0561 29.363 83.4028 29.4057 83.8348H28.6057C28.579 83.6214 28.467 83.4348 28.2697 83.2748C28.0723 83.1094 27.811 83.0268 27.4857 83.0268C27.1817 83.0268 26.9337 83.1068 26.7417 83.2668C26.5497 83.4214 26.4537 83.6401 26.4537 83.9228C26.4537 84.1254 26.5097 84.2908 26.6217 84.4188C26.739 84.5468 26.8803 84.6454 27.0457 84.7148C27.2163 84.7788 27.4537 84.8534 27.7577 84.9388C28.1257 85.0401 28.4217 85.1414 28.6457 85.2428C28.8697 85.3388 29.0617 85.4908 29.2217 85.6988C29.3817 85.9014 29.4617 86.1788 29.4617 86.5308C29.4617 86.8028 29.3897 87.0588 29.2457 87.2988C29.1017 87.5388 28.8883 87.7334 28.6057 87.8828C28.323 88.0321 27.9897 88.1068 27.6057 88.1068ZM33.829 86.8108H31.397L30.949 88.0508H30.181L32.197 82.5068H33.037L35.045 88.0508H34.277L33.829 86.8108ZM33.621 86.2188L32.613 83.4028L31.605 86.2188H33.621ZM40.5316 82.4748L38.4276 88.0508H37.5876L35.4836 82.4748H36.2596L38.0116 87.2828L39.7636 82.4748H40.5316ZM42.0579 82.4748V88.0508H41.3299V82.4748H42.0579ZM47.6826 88.0508H46.9546L44.0266 83.6108V88.0508H43.2986V82.4668H44.0266L46.9546 86.8988V82.4668H47.6826V88.0508ZM53.1476 84.0908C52.993 83.7654 52.769 83.5148 52.4756 83.3388C52.1823 83.1574 51.841 83.0668 51.4516 83.0668C51.0623 83.0668 50.7103 83.1574 50.3956 83.3388C50.0863 83.5148 49.841 83.7708 49.6596 84.1068C49.4836 84.4374 49.3956 84.8214 49.3956 85.2588C49.3956 85.6961 49.4836 86.0801 49.6596 86.4108C49.841 86.7414 50.0863 86.9974 50.3956 87.1788C50.7103 87.3548 51.0623 87.4428 51.4516 87.4428C51.9956 87.4428 52.4436 87.2801 52.7956 86.9548C53.1476 86.6294 53.353 86.1894 53.4116 85.6348H51.1876V85.0428H54.1876V85.6028C54.145 86.0614 54.001 86.4828 53.7556 86.8668C53.5103 87.2454 53.1876 87.5468 52.7876 87.7708C52.3876 87.9894 51.9423 88.0988 51.4516 88.0988C50.9343 88.0988 50.4623 87.9788 50.0356 87.7388C49.609 87.4934 49.2703 87.1548 49.0196 86.7228C48.7743 86.2908 48.6516 85.8028 48.6516 85.2588C48.6516 84.7148 48.7743 84.2268 49.0196 83.7948C49.2703 83.3574 49.609 83.0188 50.0356 82.7788C50.4623 82.5334 50.9343 82.4108 51.4516 82.4108C52.0436 82.4108 52.5663 82.5574 53.0196 82.8508C53.4783 83.1441 53.8116 83.5574 54.0196 84.0908H53.1476ZM56.9182 88.1068C56.5502 88.1068 56.2195 88.0428 55.9262 87.9148C55.6382 87.7814 55.4115 87.6001 55.2462 87.3708C55.0808 87.1361 54.9955 86.8668 54.9902 86.5628H55.7662C55.7928 86.8241 55.8995 87.0454 56.0862 87.2268C56.2782 87.4028 56.5555 87.4908 56.9182 87.4908C57.2648 87.4908 57.5368 87.4054 57.7342 87.2348C57.9368 87.0588 58.0382 86.8348 58.0382 86.5628C58.0382 86.3494 57.9795 86.1761 57.8622 86.0428C57.7448 85.9094 57.5982 85.8081 57.4222 85.7388C57.2462 85.6694 57.0088 85.5948 56.7102 85.5148C56.3422 85.4188 56.0462 85.3228 55.8222 85.2268C55.6035 85.1308 55.4142 84.9814 55.2542 84.7788C55.0995 84.5708 55.0222 84.2934 55.0222 83.9468C55.0222 83.6428 55.0995 83.3734 55.2542 83.1388C55.4088 82.9041 55.6248 82.7228 55.9022 82.5948C56.1848 82.4668 56.5075 82.4028 56.8702 82.4028C57.3928 82.4028 57.8195 82.5334 58.1502 82.7948C58.4862 83.0561 58.6755 83.4028 58.7182 83.8348H57.9182C57.8915 83.6214 57.7795 83.4348 57.5822 83.2748C57.3848 83.1094 57.1235 83.0268 56.7982 83.0268C56.4942 83.0268 56.2462 83.1068 56.0542 83.2668C55.8622 83.4214 55.7662 83.6401 55.7662 83.9228C55.7662 84.1254 55.8222 84.2908 55.9342 84.4188C56.0515 84.5468 56.1928 84.6454 56.3582 84.7148C56.5288 84.7788 56.7662 84.8534 57.0702 84.9388C57.4382 85.0401 57.7342 85.1414 57.9582 85.2428C58.1822 85.3388 58.3742 85.4908 58.5342 85.6988C58.6942 85.9014 58.7742 86.1788 58.7742 86.5308C58.7742 86.8028 58.7022 87.0588 58.5582 87.2988C58.4142 87.5388 58.2008 87.7334 57.9182 87.8828C57.6355 88.0321 57.3022 88.1068 56.9182 88.1068ZM66.2023 84.0908C66.0476 83.7654 65.8236 83.5148 65.5303 83.3388C65.237 83.1574 64.8956 83.0668 64.5063 83.0668C64.117 83.0668 63.765 83.1574 63.4503 83.3388C63.141 83.5148 62.8956 83.7708 62.7143 84.1068C62.5383 84.4374 62.4503 84.8214 62.4503 85.2588C62.4503 85.6961 62.5383 86.0801 62.7143 86.4108C62.8956 86.7414 63.141 86.9974 63.4503 87.1788C63.765 87.3548 64.117 87.4428 64.5063 87.4428C65.0503 87.4428 65.4983 87.2801 65.8503 86.9548C66.2023 86.6294 66.4076 86.1894 66.4663 85.6348H64.2423V85.0428H67.2423V85.6028C67.1996 86.0614 67.0556 86.4828 66.8103 86.8668C66.565 87.2454 66.2423 87.5468 65.8423 87.7708C65.4423 87.9894 64.997 88.0988 64.5063 88.0988C63.989 88.0988 63.517 87.9788 63.0903 87.7388C62.6636 87.4934 62.325 87.1548 62.0743 86.7228C61.829 86.2908 61.7063 85.8028 61.7063 85.2588C61.7063 84.7148 61.829 84.2268 62.0743 83.7948C62.325 83.3574 62.6636 83.0188 63.0903 82.7788C63.517 82.5334 63.989 82.4108 64.5063 82.4108C65.0983 82.4108 65.621 82.5574 66.0743 82.8508C66.533 83.1441 66.8663 83.5574 67.0743 84.0908H66.2023ZM70.7329 88.1068C70.2155 88.1068 69.7435 87.9868 69.3169 87.7468C68.8902 87.5014 68.5515 87.1628 68.3009 86.7308C68.0555 86.2934 67.9329 85.8028 67.9329 85.2588C67.9329 84.7148 68.0555 84.2268 68.3009 83.7948C68.5515 83.3574 68.8902 83.0188 69.3169 82.7788C69.7435 82.5334 70.2155 82.4108 70.7329 82.4108C71.2555 82.4108 71.7302 82.5334 72.1569 82.7788C72.5835 83.0188 72.9195 83.3548 73.1649 83.7868C73.4102 84.2188 73.5329 84.7094 73.5329 85.2588C73.5329 85.8081 73.4102 86.2988 73.1649 86.7308C72.9195 87.1628 72.5835 87.5014 72.1569 87.7468C71.7302 87.9868 71.2555 88.1068 70.7329 88.1068ZM70.7329 87.4748C71.1222 87.4748 71.4715 87.3841 71.7809 87.2028C72.0955 87.0214 72.3409 86.7628 72.5169 86.4268C72.6982 86.0908 72.7889 85.7014 72.7889 85.2588C72.7889 84.8108 72.6982 84.4214 72.5169 84.0908C72.3409 83.7548 72.0982 83.4961 71.7889 83.3148C71.4795 83.1334 71.1275 83.0428 70.7329 83.0428C70.3382 83.0428 69.9862 83.1334 69.6769 83.3148C69.3675 83.4961 69.1222 83.7548 68.9409 84.0908C68.7649 84.4214 68.6769 84.8108 68.6769 85.2588C68.6769 85.7014 68.7649 86.0908 68.9409 86.4268C69.1222 86.7628 69.3675 87.0214 69.6769 87.2028C69.9915 87.3841 70.3435 87.4748 70.7329 87.4748ZM77.7899 86.8108H75.3579L74.9099 88.0508H74.1419L76.1579 82.5068H76.9979L79.0059 88.0508H78.2379L77.7899 86.8108ZM77.5819 86.2188L76.5739 83.4028L75.5659 86.2188H77.5819ZM80.6126 87.4588H82.5646V88.0508H79.8846V82.4748H80.6126V87.4588Z" fill="black"/>
<rect x="17.8511" y="141.127" width="112.098" height="21.8155" rx="6.71247" fill="#C4C4C4"/>
<path d="M31.1709 152.31V157.846H30.4429V153.718L28.6029 157.846H28.0909L26.2429 153.71V157.846H25.5149V152.31H26.2989L28.3469 156.886L30.3949 152.31H31.1709ZM34.9336 157.902C34.4162 157.902 33.9442 157.782 33.5176 157.542C33.0909 157.296 32.7522 156.958 32.5016 156.526C32.2562 156.088 32.1336 155.598 32.1336 155.054C32.1336 154.51 32.2562 154.022 32.5016 153.59C32.7522 153.152 33.0909 152.814 33.5176 152.574C33.9442 152.328 34.4162 152.206 34.9336 152.206C35.4562 152.206 35.9309 152.328 36.3576 152.574C36.7842 152.814 37.1202 153.15 37.3656 153.582C37.6109 154.014 37.7336 154.504 37.7336 155.054C37.7336 155.603 37.6109 156.094 37.3656 156.526C37.1202 156.958 36.7842 157.296 36.3576 157.542C35.9309 157.782 35.4562 157.902 34.9336 157.902ZM34.9336 157.27C35.3229 157.27 35.6722 157.179 35.9816 156.998C36.2962 156.816 36.5416 156.558 36.7176 156.222C36.8989 155.886 36.9896 155.496 36.9896 155.054C36.9896 154.606 36.8989 154.216 36.7176 153.886C36.5416 153.55 36.2989 153.291 35.9896 153.11C35.6802 152.928 35.3282 152.838 34.9336 152.838C34.5389 152.838 34.1869 152.928 33.8776 153.11C33.5682 153.291 33.3229 153.55 33.1416 153.886C32.9656 154.216 32.8776 154.606 32.8776 155.054C32.8776 155.496 32.9656 155.886 33.1416 156.222C33.3229 156.558 33.5682 156.816 33.8776 156.998C34.1922 157.179 34.5442 157.27 34.9336 157.27ZM43.0786 157.846H42.3506L39.4226 153.406V157.846H38.6946V152.262H39.4226L42.3506 156.694V152.262H43.0786V157.846ZM45.0476 152.862V154.726H47.0796V155.326H45.0476V157.246H47.3196V157.846H44.3196V152.262H47.3196V152.862H45.0476ZM52.3252 152.27L50.5092 155.742V157.846H49.7812V155.742L47.9572 152.27H48.7652L50.1412 155.094L51.5172 152.27H52.3252ZM58.5219 156.606H56.0899L55.6419 157.846H54.8739L56.8899 152.302H57.7299L59.7379 157.846H58.9699L58.5219 156.606ZM58.3139 156.014L57.3059 153.198L56.2979 156.014H58.3139ZM62.3525 152.27C62.9605 152.27 63.4858 152.384 63.9285 152.614C64.3765 152.838 64.7178 153.16 64.9525 153.582C65.1925 154.003 65.3125 154.499 65.3125 155.07C65.3125 155.64 65.1925 156.136 64.9525 156.558C64.7178 156.974 64.3765 157.294 63.9285 157.518C63.4858 157.736 62.9605 157.846 62.3525 157.846H60.6165V152.27H62.3525ZM62.3525 157.246C63.0725 157.246 63.6218 157.056 64.0005 156.678C64.3792 156.294 64.5685 155.758 64.5685 155.07C64.5685 154.376 64.3765 153.835 63.9925 153.446C63.6138 153.056 63.0672 152.862 62.3525 152.862H61.3445V157.246H62.3525ZM68.0087 152.27C68.6167 152.27 69.1421 152.384 69.5847 152.614C70.0327 152.838 70.3741 153.16 70.6087 153.582C70.8487 154.003 70.9687 154.499 70.9687 155.07C70.9687 155.64 70.8487 156.136 70.6087 156.558C70.3741 156.974 70.0327 157.294 69.5847 157.518C69.1421 157.736 68.6167 157.846 68.0087 157.846H66.2727V152.27H68.0087ZM68.0087 157.246C68.7287 157.246 69.2781 157.056 69.6567 156.678C70.0354 156.294 70.2247 155.758 70.2247 155.07C70.2247 154.376 70.0327 153.835 69.6487 153.446C69.2701 153.056 68.7234 152.862 68.0087 152.862H67.0007V157.246H68.0087ZM72.657 152.862V154.726H74.689V155.326H72.657V157.246H74.929V157.846H71.929V152.262H74.929V152.862H72.657ZM77.7666 152.27C78.3746 152.27 78.8999 152.384 79.3426 152.614C79.7906 152.838 80.1319 153.16 80.3666 153.582C80.6066 154.003 80.7266 154.499 80.7266 155.07C80.7266 155.64 80.6066 156.136 80.3666 156.558C80.1319 156.974 79.7906 157.294 79.3426 157.518C78.8999 157.736 78.3746 157.846 77.7666 157.846H76.0306V152.27H77.7666ZM77.7666 157.246C78.4866 157.246 79.0359 157.056 79.4146 156.678C79.7932 156.294 79.9826 155.758 79.9826 155.07C79.9826 154.376 79.7906 153.835 79.4066 153.446C79.0279 153.056 78.4812 152.862 77.7666 152.862H76.7586V157.246H77.7666Z" fill="black"/>
<rect x="17.8511" y="166.299" width="112.098" height="21.8155" rx="6.71247" fill="#C4C4C4"/>
<path d="M31.1709 177.482V183.018H30.4429V178.89L28.6029 183.018H28.0909L26.2429 178.882V183.018H25.5149V177.482H26.2989L28.3469 182.058L30.3949 177.482H31.1709ZM34.9336 183.074C34.4162 183.074 33.9442 182.954 33.5176 182.714C33.0909 182.468 32.7522 182.13 32.5016 181.698C32.2562 181.26 32.1336 180.77 32.1336 180.226C32.1336 179.682 32.2562 179.194 32.5016 178.762C32.7522 178.324 33.0909 177.986 33.5176 177.746C33.9442 177.5 34.4162 177.378 34.9336 177.378C35.4562 177.378 35.9309 177.5 36.3576 177.746C36.7842 177.986 37.1202 178.322 37.3656 178.754C37.6109 179.186 37.7336 179.676 37.7336 180.226C37.7336 180.775 37.6109 181.266 37.3656 181.698C37.1202 182.13 36.7842 182.468 36.3576 182.714C35.9309 182.954 35.4562 183.074 34.9336 183.074ZM34.9336 182.442C35.3229 182.442 35.6722 182.351 35.9816 182.17C36.2962 181.988 36.5416 181.73 36.7176 181.394C36.8989 181.058 36.9896 180.668 36.9896 180.226C36.9896 179.778 36.8989 179.388 36.7176 179.058C36.5416 178.722 36.2989 178.463 35.9896 178.282C35.6802 178.1 35.3282 178.01 34.9336 178.01C34.5389 178.01 34.1869 178.1 33.8776 178.282C33.5682 178.463 33.3229 178.722 33.1416 179.058C32.9656 179.388 32.8776 179.778 32.8776 180.226C32.8776 180.668 32.9656 181.058 33.1416 181.394C33.3229 181.73 33.5682 181.988 33.8776 182.17C34.1922 182.351 34.5442 182.442 34.9336 182.442ZM43.0786 183.018H42.3506L39.4226 178.578V183.018H38.6946V177.434H39.4226L42.3506 181.866V177.434H43.0786V183.018ZM45.0476 178.034V179.898H47.0796V180.498H45.0476V182.418H47.3196V183.018H44.3196V177.434H47.3196V178.034H45.0476ZM52.3252 177.442L50.5092 180.914V183.018H49.7812V180.914L47.9572 177.442H48.7652L50.1412 180.266L51.5172 177.442H52.3252ZM55.9379 177.442V180.97C55.9379 181.466 56.0579 181.834 56.2979 182.074C56.5432 182.314 56.8819 182.434 57.3139 182.434C57.7405 182.434 58.0739 182.314 58.3139 182.074C58.5592 181.834 58.6819 181.466 58.6819 180.97V177.442H59.4099V180.962C59.4099 181.426 59.3165 181.818 59.1299 182.138C58.9432 182.452 58.6899 182.687 58.3699 182.842C58.0552 182.996 57.7005 183.074 57.3059 183.074C56.9112 183.074 56.5539 182.996 56.2339 182.842C55.9192 182.687 55.6685 182.452 55.4819 182.138C55.3005 181.818 55.2099 181.426 55.2099 180.962V177.442H55.9379ZM62.3923 183.074C62.0243 183.074 61.6936 183.01 61.4003 182.882C61.1123 182.748 60.8856 182.567 60.7203 182.338C60.555 182.103 60.4696 181.834 60.4643 181.53H61.2403C61.267 181.791 61.3736 182.012 61.5603 182.194C61.7523 182.37 62.0296 182.458 62.3923 182.458C62.739 182.458 63.011 182.372 63.2083 182.202C63.411 182.026 63.5123 181.802 63.5123 181.53C63.5123 181.316 63.4536 181.143 63.3363 181.01C63.219 180.876 63.0723 180.775 62.8963 180.706C62.7203 180.636 62.483 180.562 62.1843 180.482C61.8163 180.386 61.5203 180.29 61.2963 180.194C61.0776 180.098 60.8883 179.948 60.7283 179.746C60.5736 179.538 60.4963 179.26 60.4963 178.914C60.4963 178.61 60.5736 178.34 60.7283 178.106C60.883 177.871 61.099 177.69 61.3763 177.562C61.659 177.434 61.9816 177.37 62.3443 177.37C62.867 177.37 63.2936 177.5 63.6243 177.762C63.9603 178.023 64.1496 178.37 64.1923 178.802H63.3923C63.3656 178.588 63.2536 178.402 63.0563 178.242C62.859 178.076 62.5976 177.994 62.2723 177.994C61.9683 177.994 61.7203 178.074 61.5283 178.234C61.3363 178.388 61.2403 178.607 61.2403 178.89C61.2403 179.092 61.2963 179.258 61.4083 179.386C61.5256 179.514 61.667 179.612 61.8323 179.682C62.003 179.746 62.2403 179.82 62.5443 179.906C62.9123 180.007 63.2083 180.108 63.4323 180.21C63.6563 180.306 63.8483 180.458 64.0083 180.666C64.1683 180.868 64.2483 181.146 64.2483 181.498C64.2483 181.77 64.1763 182.026 64.0323 182.266C63.8883 182.506 63.675 182.7 63.3923 182.85C63.1096 182.999 62.7763 183.074 62.3923 183.074ZM66.0476 178.034V179.898H68.0796V180.498H66.0476V182.418H68.3196V183.018H65.3196V177.434H68.3196V178.034H66.0476ZM71.1572 177.442C71.7652 177.442 72.2905 177.556 72.7332 177.786C73.1812 178.01 73.5225 178.332 73.7572 178.754C73.9972 179.175 74.1172 179.671 74.1172 180.242C74.1172 180.812 73.9972 181.308 73.7572 181.73C73.5225 182.146 73.1812 182.466 72.7332 182.69C72.2905 182.908 71.7652 183.018 71.1572 183.018H69.4212V177.442H71.1572ZM71.1572 182.418C71.8772 182.418 72.4265 182.228 72.8052 181.85C73.1838 181.466 73.3732 180.93 73.3732 180.242C73.3732 179.548 73.1812 179.007 72.7972 178.618C72.4185 178.228 71.8718 178.034 71.1572 178.034H70.1492V182.418H71.1572Z" fill="black"/>
<rect x="17.8511" y="191.471" width="112.098" height="21.8155" rx="6.71247" fill="#C4C4C4"/>
<path d="M31.1709 202.653V208.189H30.4429V204.061L28.6029 208.189H28.0909L26.2429 204.053V208.189H25.5149V202.653H26.2989L28.3469 207.229L30.3949 202.653H31.1709ZM34.9336 208.245C34.4162 208.245 33.9442 208.125 33.5176 207.885C33.0909 207.64 32.7522 207.301 32.5016 206.869C32.2562 206.432 32.1336 205.941 32.1336 205.397C32.1336 204.853 32.2562 204.365 32.5016 203.933C32.7522 203.496 33.0909 203.157 33.5176 202.917C33.9442 202.672 34.4162 202.549 34.9336 202.549C35.4562 202.549 35.9309 202.672 36.3576 202.917C36.7842 203.157 37.1202 203.493 37.3656 203.925C37.6109 204.357 37.7336 204.848 37.7336 205.397C37.7336 205.947 37.6109 206.437 37.3656 206.869C37.1202 207.301 36.7842 207.64 36.3576 207.885C35.9309 208.125 35.4562 208.245 34.9336 208.245ZM34.9336 207.613C35.3229 207.613 35.6722 207.523 35.9816 207.341C36.2962 207.16 36.5416 206.901 36.7176 206.565C36.8989 206.229 36.9896 205.84 36.9896 205.397C36.9896 204.949 36.8989 204.56 36.7176 204.229C36.5416 203.893 36.2989 203.635 35.9896 203.453C35.6802 203.272 35.3282 203.181 34.9336 203.181C34.5389 203.181 34.1869 203.272 33.8776 203.453C33.5682 203.635 33.3229 203.893 33.1416 204.229C32.9656 204.56 32.8776 204.949 32.8776 205.397C32.8776 205.84 32.9656 206.229 33.1416 206.565C33.3229 206.901 33.5682 207.16 33.8776 207.341C34.1922 207.523 34.5442 207.613 34.9336 207.613ZM43.0786 208.189H42.3506L39.4226 203.749V208.189H38.6946V202.605H39.4226L42.3506 207.037V202.605H43.0786V208.189ZM45.0476 203.205V205.069H47.0796V205.669H45.0476V207.589H47.3196V208.189H44.3196V202.605H47.3196V203.205H45.0476ZM52.3252 202.613L50.5092 206.085V208.189H49.7812V206.085L47.9572 202.613H48.7652L50.1412 205.437L51.5172 202.613H52.3252ZM58.5219 206.949H56.0899L55.6419 208.189H54.8739L56.8899 202.645H57.7299L59.7379 208.189H58.9699L58.5219 206.949ZM58.3139 206.357L57.3059 203.541L56.2979 206.357H58.3139ZM62.3525 202.613C62.9605 202.613 63.4858 202.728 63.9285 202.957C64.3765 203.181 64.7178 203.504 64.9525 203.925C65.1925 204.347 65.3125 204.843 65.3125 205.413C65.3125 205.984 65.1925 206.48 64.9525 206.901C64.7178 207.317 64.3765 207.637 63.9285 207.861C63.4858 208.08 62.9605 208.189 62.3525 208.189H60.6165V202.613H62.3525ZM62.3525 207.589C63.0725 207.589 63.6218 207.4 64.0005 207.021C64.3792 206.637 64.5685 206.101 64.5685 205.413C64.5685 204.72 64.3765 204.179 63.9925 203.789C63.6138 203.4 63.0672 203.205 62.3525 203.205H61.3445V207.589H62.3525ZM68.0087 202.613C68.6167 202.613 69.1421 202.728 69.5847 202.957C70.0327 203.181 70.3741 203.504 70.6087 203.925C70.8487 204.347 70.9687 204.843 70.9687 205.413C70.9687 205.984 70.8487 206.48 70.6087 206.901C70.3741 207.317 70.0327 207.637 69.5847 207.861C69.1421 208.08 68.6167 208.189 68.0087 208.189H66.2727V202.613H68.0087ZM68.0087 207.589C68.7287 207.589 69.2781 207.4 69.6567 207.021C70.0354 206.637 70.2247 206.101 70.2247 205.413C70.2247 204.72 70.0327 204.179 69.6487 203.789C69.2701 203.4 68.7234 203.205 68.0087 203.205H67.0007V207.589H68.0087ZM72.657 203.205V205.069H74.689V205.669H72.657V207.589H74.929V208.189H71.929V202.605H74.929V203.205H72.657ZM77.7666 202.613C78.3746 202.613 78.8999 202.728 79.3426 202.957C79.7906 203.181 80.1319 203.504 80.3666 203.925C80.6066 204.347 80.7266 204.843 80.7266 205.413C80.7266 205.984 80.6066 206.48 80.3666 206.901C80.1319 207.317 79.7906 207.637 79.3426 207.861C78.8999 208.08 78.3746 208.189 77.7666 208.189H76.0306V202.613H77.7666ZM77.7666 207.589C78.4866 207.589 79.0359 207.4 79.4146 207.021C79.7932 206.637 79.9826 206.101 79.9826 205.413C79.9826 204.72 79.7906 204.179 79.4066 203.789C79.0279 203.4 78.4812 203.205 77.7666 203.205H76.7586V207.589H77.7666Z" fill="black"/>
<rect x="17.8511" y="216.643" width="112.098" height="21.8155" rx="6.71247" fill="#C4C4C4"/>
<path d="M31.1709 227.825V233.361H30.4429V229.233L28.6029 233.361H28.0909L26.2429 229.225V233.361H25.5149V227.825H26.2989L28.3469 232.401L30.3949 227.825H31.1709ZM34.9336 233.417C34.4162 233.417 33.9442 233.297 33.5176 233.057C33.0909 232.812 32.7522 232.473 32.5016 232.041C32.2562 231.604 32.1336 231.113 32.1336 230.569C32.1336 230.025 32.2562 229.537 32.5016 229.105C32.7522 228.668 33.0909 228.329 33.5176 228.089C33.9442 227.844 34.4162 227.721 34.9336 227.721C35.4562 227.721 35.9309 227.844 36.3576 228.089C36.7842 228.329 37.1202 228.665 37.3656 229.097C37.6109 229.529 37.7336 230.02 37.7336 230.569C37.7336 231.119 37.6109 231.609 37.3656 232.041C37.1202 232.473 36.7842 232.812 36.3576 233.057C35.9309 233.297 35.4562 233.417 34.9336 233.417ZM34.9336 232.785C35.3229 232.785 35.6722 232.695 35.9816 232.513C36.2962 232.332 36.5416 232.073 36.7176 231.737C36.8989 231.401 36.9896 231.012 36.9896 230.569C36.9896 230.121 36.8989 229.732 36.7176 229.401C36.5416 229.065 36.2989 228.807 35.9896 228.625C35.6802 228.444 35.3282 228.353 34.9336 228.353C34.5389 228.353 34.1869 228.444 33.8776 228.625C33.5682 228.807 33.3229 229.065 33.1416 229.401C32.9656 229.732 32.8776 230.121 32.8776 230.569C32.8776 231.012 32.9656 231.401 33.1416 231.737C33.3229 232.073 33.5682 232.332 33.8776 232.513C34.1922 232.695 34.5442 232.785 34.9336 232.785ZM43.0786 233.361H42.3506L39.4226 228.921V233.361H38.6946V227.777H39.4226L42.3506 232.209V227.777H43.0786V233.361ZM45.0476 228.377V230.241H47.0796V230.841H45.0476V232.761H47.3196V233.361H44.3196V227.777H47.3196V228.377H45.0476ZM52.3252 227.785L50.5092 231.257V233.361H49.7812V231.257L47.9572 227.785H48.7652L50.1412 230.609L51.5172 227.785H52.3252ZM58.5219 232.121H56.0899L55.6419 233.361H54.8739L56.8899 227.817H57.7299L59.7379 233.361H58.9699L58.5219 232.121ZM58.3139 231.529L57.3059 228.713L56.2979 231.529H58.3139ZM62.3525 227.785C62.9605 227.785 63.4858 227.9 63.9285 228.129C64.3765 228.353 64.7178 228.676 64.9525 229.097C65.1925 229.519 65.3125 230.015 65.3125 230.585C65.3125 231.156 65.1925 231.652 64.9525 232.073C64.7178 232.489 64.3765 232.809 63.9285 233.033C63.4858 233.252 62.9605 233.361 62.3525 233.361H60.6165V227.785H62.3525ZM62.3525 232.761C63.0725 232.761 63.6218 232.572 64.0005 232.193C64.3792 231.809 64.5685 231.273 64.5685 230.585C64.5685 229.892 64.3765 229.351 63.9925 228.961C63.6138 228.572 63.0672 228.377 62.3525 228.377H61.3445V232.761H62.3525ZM68.0087 227.785C68.6167 227.785 69.1421 227.9 69.5847 228.129C70.0327 228.353 70.3741 228.676 70.6087 229.097C70.8487 229.519 70.9687 230.015 70.9687 230.585C70.9687 231.156 70.8487 231.652 70.6087 232.073C70.3741 232.489 70.0327 232.809 69.5847 233.033C69.1421 233.252 68.6167 233.361 68.0087 233.361H66.2727V227.785H68.0087ZM68.0087 232.761C68.7287 232.761 69.2781 232.572 69.6567 232.193C70.0354 231.809 70.2247 231.273 70.2247 230.585C70.2247 229.892 70.0327 229.351 69.6487 228.961C69.2701 228.572 68.7234 228.377 68.0087 228.377H67.0007V232.761H68.0087ZM72.657 228.377V230.241H74.689V230.841H72.657V232.761H74.929V233.361H71.929V227.777H74.929V228.377H72.657ZM77.7666 227.785C78.3746 227.785 78.8999 227.9 79.3426 228.129C79.7906 228.353 80.1319 228.676 80.3666 229.097C80.6066 229.519 80.7266 230.015 80.7266 230.585C80.7266 231.156 80.6066 231.652 80.3666 232.073C80.1319 232.489 79.7906 232.809 79.3426 233.033C78.8999 233.252 78.3746 233.361 77.7666 233.361H76.0306V227.785H77.7666ZM77.7666 232.761C78.4866 232.761 79.0359 232.572 79.4146 232.193C79.7932 231.809 79.9826 231.273 79.9826 230.585C79.9826 229.892 79.7906 229.351 79.4066 228.961C79.0279 228.572 78.4812 228.377 77.7666 228.377H76.7586V232.761H77.7666Z" fill="black"/>
<rect x="17.8511" y="37.7559" width="112.098" height="21.8155" rx="6.71247" fill="#C4C4C4"/>
<path d="M27.2834 54.5306C26.9154 54.5306 26.5847 54.4666 26.2914 54.3386C26.0034 54.2053 25.7767 54.0239 25.6114 53.7946C25.4461 53.5599 25.3607 53.2906 25.3554 52.9866H26.1314C26.1581 53.2479 26.2647 53.4693 26.4514 53.6506C26.6434 53.8266 26.9207 53.9146 27.2834 53.9146C27.6301 53.9146 27.9021 53.8293 28.0994 53.6586C28.3021 53.4826 28.4034 53.2586 28.4034 52.9866C28.4034 52.7733 28.3447 52.5999 28.2274 52.4666C28.1101 52.3333 27.9634 52.2319 27.7874 52.1626C27.6114 52.0933 27.3741 52.0186 27.0754 51.9386C26.7074 51.8426 26.4114 51.7466 26.1874 51.6506C25.9687 51.5546 25.7794 51.4053 25.6194 51.2026C25.4647 50.9946 25.3874 50.7173 25.3874 50.3706C25.3874 50.0666 25.4647 49.7973 25.6194 49.5626C25.7741 49.3279 25.9901 49.1466 26.2674 49.0186C26.5501 48.8906 26.8727 48.8266 27.2354 48.8266C27.7581 48.8266 28.1847 48.9573 28.5154 49.2186C28.8514 49.4799 29.0407 49.8266 29.0834 50.2586H28.2834C28.2567 50.0453 28.1447 49.8586 27.9474 49.6986C27.7501 49.5333 27.4887 49.4506 27.1634 49.4506C26.8594 49.4506 26.6114 49.5306 26.4194 49.6906C26.2274 49.8453 26.1314 50.0639 26.1314 50.3466C26.1314 50.5493 26.1874 50.7146 26.2994 50.8426C26.4167 50.9706 26.5581 51.0693 26.7234 51.1386C26.8941 51.2026 27.1314 51.2773 27.4354 51.3626C27.8034 51.4639 28.0994 51.5653 28.3234 51.6666C28.5474 51.7626 28.7394 51.9146 28.8994 52.1226C29.0594 52.3253 29.1394 52.6026 29.1394 52.9546C29.1394 53.2266 29.0674 53.4826 28.9234 53.7226C28.7794 53.9626 28.5661 54.1573 28.2834 54.3066C28.0007 54.4559 27.6674 54.5306 27.2834 54.5306ZM33.5067 53.2346H31.0747L30.6267 54.4746H29.8587L31.8747 48.9306H32.7147L34.7227 54.4746H33.9547L33.5067 53.2346ZM33.2987 52.6426L32.2907 49.8266L31.2827 52.6426H33.2987ZM40.2094 48.8986L38.1054 54.4746H37.2654L35.1614 48.8986H35.9374L37.6894 53.7066L39.4414 48.8986H40.2094ZM41.7356 48.8986V54.4746H41.0076V48.8986H41.7356ZM47.3604 54.4746H46.6324L43.7044 50.0346V54.4746H42.9764V48.8906H43.7044L46.6324 53.3226V48.8906H47.3604V54.4746ZM52.8254 50.5146C52.6707 50.1893 52.4467 49.9386 52.1534 49.7626C51.86 49.5813 51.5187 49.4906 51.1294 49.4906C50.74 49.4906 50.388 49.5813 50.0734 49.7626C49.764 49.9386 49.5187 50.1946 49.3374 50.5306C49.1614 50.8613 49.0734 51.2453 49.0734 51.6826C49.0734 52.1199 49.1614 52.5039 49.3374 52.8346C49.5187 53.1653 49.764 53.4213 50.0734 53.6026C50.388 53.7786 50.74 53.8666 51.1294 53.8666C51.6734 53.8666 52.1214 53.7039 52.4734 53.3786C52.8254 53.0533 53.0307 52.6133 53.0894 52.0586H50.8654V51.4666H53.8654V52.0266C53.8227 52.4853 53.6787 52.9066 53.4334 53.2906C53.188 53.6693 52.8654 53.9706 52.4654 54.1946C52.0654 54.4133 51.62 54.5226 51.1294 54.5226C50.612 54.5226 50.14 54.4026 49.7134 54.1626C49.2867 53.9173 48.948 53.5786 48.6974 53.1466C48.452 52.7146 48.3294 52.2266 48.3294 51.6826C48.3294 51.1386 48.452 50.6506 48.6974 50.2186C48.948 49.7813 49.2867 49.4426 49.7134 49.2026C50.14 48.9573 50.612 48.8346 51.1294 48.8346C51.7214 48.8346 52.244 48.9813 52.6974 49.2746C53.156 49.5679 53.4894 49.9813 53.6974 50.5146H52.8254ZM56.5959 54.5306C56.2279 54.5306 55.8972 54.4666 55.6039 54.3386C55.3159 54.2053 55.0892 54.0239 54.9239 53.7946C54.7586 53.5599 54.6732 53.2906 54.6679 52.9866H55.4439C55.4706 53.2479 55.5772 53.4693 55.7639 53.6506C55.9559 53.8266 56.2332 53.9146 56.5959 53.9146C56.9426 53.9146 57.2146 53.8293 57.4119 53.6586C57.6146 53.4826 57.7159 53.2586 57.7159 52.9866C57.7159 52.7733 57.6572 52.5999 57.5399 52.4666C57.4226 52.3333 57.2759 52.2319 57.0999 52.1626C56.9239 52.0933 56.6866 52.0186 56.3879 51.9386C56.0199 51.8426 55.7239 51.7466 55.4999 51.6506C55.2812 51.5546 55.0919 51.4053 54.9319 51.2026C54.7772 50.9946 54.6999 50.7173 54.6999 50.3706C54.6999 50.0666 54.7772 49.7973 54.9319 49.5626C55.0866 49.3279 55.3026 49.1466 55.5799 49.0186C55.8626 48.8906 56.1852 48.8266 56.5479 48.8266C57.0706 48.8266 57.4972 48.9573 57.8279 49.2186C58.1639 49.4799 58.3532 49.8266 58.3959 50.2586H57.5959C57.5692 50.0453 57.4572 49.8586 57.2599 49.6986C57.0626 49.5333 56.8012 49.4506 56.4759 49.4506C56.1719 49.4506 55.9239 49.5306 55.7319 49.6906C55.5399 49.8453 55.4439 50.0639 55.4439 50.3466C55.4439 50.5493 55.4999 50.7146 55.6119 50.8426C55.7292 50.9706 55.8706 51.0693 56.0359 51.1386C56.2066 51.2026 56.4439 51.2773 56.7479 51.3626C57.1159 51.4639 57.4119 51.5653 57.6359 51.6666C57.8599 51.7626 58.0519 51.9146 58.2119 52.1226C58.3719 52.3253 58.4519 52.6026 58.4519 52.9546C58.4519 53.2266 58.3799 53.4826 58.2359 53.7226C58.0919 53.9626 57.8786 54.1573 57.5959 54.3066C57.3132 54.4559 56.9799 54.5306 56.5959 54.5306ZM65.88 50.5146C65.7254 50.1893 65.5014 49.9386 65.208 49.7626C64.9147 49.5813 64.5734 49.4906 64.184 49.4906C63.7947 49.4906 63.4427 49.5813 63.128 49.7626C62.8187 49.9386 62.5734 50.1946 62.392 50.5306C62.216 50.8613 62.128 51.2453 62.128 51.6826C62.128 52.1199 62.216 52.5039 62.392 52.8346C62.5734 53.1653 62.8187 53.4213 63.128 53.6026C63.4427 53.7786 63.7947 53.8666 64.184 53.8666C64.728 53.8666 65.176 53.7039 65.528 53.3786C65.88 53.0533 66.0854 52.6133 66.144 52.0586H63.92V51.4666H66.92V52.0266C66.8774 52.4853 66.7334 52.9066 66.488 53.2906C66.2427 53.6693 65.92 53.9706 65.52 54.1946C65.12 54.4133 64.6747 54.5226 64.184 54.5226C63.6667 54.5226 63.1947 54.4026 62.768 54.1626C62.3414 53.9173 62.0027 53.5786 61.752 53.1466C61.5067 52.7146 61.384 52.2266 61.384 51.6826C61.384 51.1386 61.5067 50.6506 61.752 50.2186C62.0027 49.7813 62.3414 49.4426 62.768 49.2026C63.1947 48.9573 63.6667 48.8346 64.184 48.8346C64.776 48.8346 65.2987 48.9813 65.752 49.2746C66.2107 49.5679 66.544 49.9813 66.752 50.5146H65.88ZM70.4106 54.5306C69.8933 54.5306 69.4213 54.4106 68.9946 54.1706C68.5679 53.9253 68.2293 53.5866 67.9786 53.1546C67.7333 52.7173 67.6106 52.2266 67.6106 51.6826C67.6106 51.1386 67.7333 50.6506 67.9786 50.2186C68.2293 49.7813 68.5679 49.4426 68.9946 49.2026C69.4213 48.9573 69.8933 48.8346 70.4106 48.8346C70.9333 48.8346 71.4079 48.9573 71.8346 49.2026C72.2613 49.4426 72.5973 49.7786 72.8426 50.2106C73.0879 50.6426 73.2106 51.1333 73.2106 51.6826C73.2106 52.2319 73.0879 52.7226 72.8426 53.1546C72.5973 53.5866 72.2613 53.9253 71.8346 54.1706C71.4079 54.4106 70.9333 54.5306 70.4106 54.5306ZM70.4106 53.8986C70.7999 53.8986 71.1493 53.8079 71.4586 53.6266C71.7733 53.4453 72.0186 53.1866 72.1946 52.8506C72.3759 52.5146 72.4666 52.1253 72.4666 51.6826C72.4666 51.2346 72.3759 50.8453 72.1946 50.5146C72.0186 50.1786 71.7759 49.9199 71.4666 49.7386C71.1573 49.5573 70.8053 49.4666 70.4106 49.4666C70.0159 49.4666 69.6639 49.5573 69.3546 49.7386C69.0453 49.9199 68.7999 50.1786 68.6186 50.5146C68.4426 50.8453 68.3546 51.2346 68.3546 51.6826C68.3546 52.1253 68.4426 52.5146 68.6186 52.8506C68.7999 53.1866 69.0453 53.4453 69.3546 53.6266C69.6693 53.8079 70.0213 53.8986 70.4106 53.8986ZM77.4677 53.2346H75.0357L74.5877 54.4746H73.8197L75.8357 48.9306H76.6757L78.6837 54.4746H77.9157L77.4677 53.2346ZM77.2597 52.6426L76.2517 49.8266L75.2437 52.6426H77.2597ZM80.2903 53.8826H82.2423V54.4746H79.5623V48.8986H80.2903V53.8826Z" fill="black"/>
<rect x="91.353" y="69.6406" width="38.5967" height="28.8636" rx="6.71247" fill="#C4C4C4"/>
<rect x="17.5156" y="102.867" width="72.4947" height="28.8636" rx="6.71247" fill="#C4C4C4"/>
<path d="M27.6057 121.333C27.2377 121.333 26.907 121.269 26.6137 121.141C26.3257 121.008 26.099 120.827 25.9337 120.597C25.7683 120.363 25.683 120.093 25.6777 119.789H26.4537C26.4803 120.051 26.587 120.272 26.7737 120.453C26.9657 120.629 27.243 120.717 27.6057 120.717C27.9523 120.717 28.2243 120.632 28.4217 120.461C28.6243 120.285 28.7257 120.061 28.7257 119.789C28.7257 119.576 28.667 119.403 28.5497 119.269C28.4323 119.136 28.2857 119.035 28.1097 118.965C27.9337 118.896 27.6963 118.821 27.3977 118.741C27.0297 118.645 26.7337 118.549 26.5097 118.453C26.291 118.357 26.1017 118.208 25.9417 118.005C25.787 117.797 25.7097 117.52 25.7097 117.173C25.7097 116.869 25.787 116.6 25.9417 116.365C26.0963 116.131 26.3123 115.949 26.5897 115.821C26.8723 115.693 27.195 115.629 27.5577 115.629C28.0803 115.629 28.507 115.76 28.8377 116.021C29.1737 116.283 29.363 116.629 29.4057 117.061H28.6057C28.579 116.848 28.467 116.661 28.2697 116.501C28.0723 116.336 27.811 116.253 27.4857 116.253C27.1817 116.253 26.9337 116.333 26.7417 116.493C26.5497 116.648 26.4537 116.867 26.4537 117.149C26.4537 117.352 26.5097 117.517 26.6217 117.645C26.739 117.773 26.8803 117.872 27.0457 117.941C27.2163 118.005 27.4537 118.08 27.7577 118.165C28.1257 118.267 28.4217 118.368 28.6457 118.469C28.8697 118.565 29.0617 118.717 29.2217 118.925C29.3817 119.128 29.4617 119.405 29.4617 119.757C29.4617 120.029 29.3897 120.285 29.2457 120.525C29.1017 120.765 28.8883 120.96 28.6057 121.109C28.323 121.259 27.9897 121.333 27.6057 121.333ZM33.829 120.037H31.397L30.949 121.277H30.181L32.197 115.733H33.037L35.045 121.277H34.277L33.829 120.037ZM33.621 119.445L32.613 116.629L31.605 119.445H33.621ZM40.5316 115.701L38.4276 121.277H37.5876L35.4836 115.701H36.2596L38.0116 120.509L39.7636 115.701H40.5316ZM42.0579 115.701V121.277H41.3299V115.701H42.0579ZM47.6826 121.277H46.9546L44.0266 116.837V121.277H43.2986V115.693H44.0266L46.9546 120.125V115.693H47.6826V121.277ZM53.1476 117.317C52.993 116.992 52.769 116.741 52.4756 116.565C52.1823 116.384 51.841 116.293 51.4516 116.293C51.0623 116.293 50.7103 116.384 50.3956 116.565C50.0863 116.741 49.841 116.997 49.6596 117.333C49.4836 117.664 49.3956 118.048 49.3956 118.485C49.3956 118.923 49.4836 119.307 49.6596 119.637C49.841 119.968 50.0863 120.224 50.3956 120.405C50.7103 120.581 51.0623 120.669 51.4516 120.669C51.9956 120.669 52.4436 120.507 52.7956 120.181C53.1476 119.856 53.353 119.416 53.4116 118.861H51.1876V118.269H54.1876V118.829C54.145 119.288 54.001 119.709 53.7556 120.093C53.5103 120.472 53.1876 120.773 52.7876 120.997C52.3876 121.216 51.9423 121.325 51.4516 121.325C50.9343 121.325 50.4623 121.205 50.0356 120.965C49.609 120.72 49.2703 120.381 49.0196 119.949C48.7743 119.517 48.6516 119.029 48.6516 118.485C48.6516 117.941 48.7743 117.453 49.0196 117.021C49.2703 116.584 49.609 116.245 50.0356 116.005C50.4623 115.76 50.9343 115.637 51.4516 115.637C52.0436 115.637 52.5663 115.784 53.0196 116.077C53.4783 116.371 53.8116 116.784 54.0196 117.317H53.1476ZM56.9182 121.333C56.5502 121.333 56.2195 121.269 55.9262 121.141C55.6382 121.008 55.4115 120.827 55.2462 120.597C55.0808 120.363 54.9955 120.093 54.9902 119.789H55.7662C55.7928 120.051 55.8995 120.272 56.0862 120.453C56.2782 120.629 56.5555 120.717 56.9182 120.717C57.2648 120.717 57.5368 120.632 57.7342 120.461C57.9368 120.285 58.0382 120.061 58.0382 119.789C58.0382 119.576 57.9795 119.403 57.8622 119.269C57.7448 119.136 57.5982 119.035 57.4222 118.965C57.2462 118.896 57.0088 118.821 56.7102 118.741C56.3422 118.645 56.0462 118.549 55.8222 118.453C55.6035 118.357 55.4142 118.208 55.2542 118.005C55.0995 117.797 55.0222 117.52 55.0222 117.173C55.0222 116.869 55.0995 116.6 55.2542 116.365C55.4088 116.131 55.6248 115.949 55.9022 115.821C56.1848 115.693 56.5075 115.629 56.8702 115.629C57.3928 115.629 57.8195 115.76 58.1502 116.021C58.4862 116.283 58.6755 116.629 58.7182 117.061H57.9182C57.8915 116.848 57.7795 116.661 57.5822 116.501C57.3848 116.336 57.1235 116.253 56.7982 116.253C56.4942 116.253 56.2462 116.333 56.0542 116.493C55.8622 116.648 55.7662 116.867 55.7662 117.149C55.7662 117.352 55.8222 117.517 55.9342 117.645C56.0515 117.773 56.1928 117.872 56.3582 117.941C56.5288 118.005 56.7662 118.08 57.0702 118.165C57.4382 118.267 57.7342 118.368 57.9582 118.469C58.1822 118.565 58.3742 118.717 58.5342 118.925C58.6942 119.128 58.7742 119.405 58.7742 119.757C58.7742 120.029 58.7022 120.285 58.5582 120.525C58.4142 120.765 58.2008 120.96 57.9182 121.109C57.6355 121.259 57.3022 121.333 56.9182 121.333ZM66.2023 117.317C66.0476 116.992 65.8236 116.741 65.5303 116.565C65.237 116.384 64.8956 116.293 64.5063 116.293C64.117 116.293 63.765 116.384 63.4503 116.565C63.141 116.741 62.8956 116.997 62.7143 117.333C62.5383 117.664 62.4503 118.048 62.4503 118.485C62.4503 118.923 62.5383 119.307 62.7143 119.637C62.8956 119.968 63.141 120.224 63.4503 120.405C63.765 120.581 64.117 120.669 64.5063 120.669C65.0503 120.669 65.4983 120.507 65.8503 120.181C66.2023 119.856 66.4076 119.416 66.4663 118.861H64.2423V118.269H67.2423V118.829C67.1996 119.288 67.0556 119.709 66.8103 120.093C66.565 120.472 66.2423 120.773 65.8423 120.997C65.4423 121.216 64.997 121.325 64.5063 121.325C63.989 121.325 63.517 121.205 63.0903 120.965C62.6636 120.72 62.325 120.381 62.0743 119.949C61.829 119.517 61.7063 119.029 61.7063 118.485C61.7063 117.941 61.829 117.453 62.0743 117.021C62.325 116.584 62.6636 116.245 63.0903 116.005C63.517 115.76 63.989 115.637 64.5063 115.637C65.0983 115.637 65.621 115.784 66.0743 116.077C66.533 116.371 66.8663 116.784 67.0743 117.317H66.2023ZM70.7329 121.333C70.2155 121.333 69.7435 121.213 69.3169 120.973C68.8902 120.728 68.5515 120.389 68.3009 119.957C68.0555 119.52 67.9329 119.029 67.9329 118.485C67.9329 117.941 68.0555 117.453 68.3009 117.021C68.5515 116.584 68.8902 116.245 69.3169 116.005C69.7435 115.76 70.2155 115.637 70.7329 115.637C71.2555 115.637 71.7302 115.76 72.1569 116.005C72.5835 116.245 72.9195 116.581 73.1649 117.013C73.4102 117.445 73.5329 117.936 73.5329 118.485C73.5329 119.035 73.4102 119.525 73.1649 119.957C72.9195 120.389 72.5835 120.728 72.1569 120.973C71.7302 121.213 71.2555 121.333 70.7329 121.333ZM70.7329 120.701C71.1222 120.701 71.4715 120.611 71.7809 120.429C72.0955 120.248 72.3409 119.989 72.5169 119.653C72.6982 119.317 72.7889 118.928 72.7889 118.485C72.7889 118.037 72.6982 117.648 72.5169 117.317C72.3409 116.981 72.0982 116.723 71.7889 116.541C71.4795 116.36 71.1275 116.269 70.7329 116.269C70.3382 116.269 69.9862 116.36 69.6769 116.541C69.3675 116.723 69.1222 116.981 68.9409 117.317C68.7649 117.648 68.6769 118.037 68.6769 118.485C68.6769 118.928 68.7649 119.317 68.9409 119.653C69.1222 119.989 69.3675 120.248 69.6769 120.429C69.9915 120.611 70.3435 120.701 70.7329 120.701ZM77.7899 120.037H75.3579L74.9099 121.277H74.1419L76.1579 115.733H76.9979L79.0059 121.277H78.2379L77.7899 120.037ZM77.5819 119.445L76.5739 116.629L75.5659 119.445H77.5819ZM80.6126 120.685H82.5646V121.277H79.8846V115.701H80.6126V120.685Z" fill="black"/>
<rect x="91.353" y="102.867" width="38.5967" height="28.8636" rx="6.71247" fill="#C4C4C4"/>
<path d="M94.344 85.208C94.344 84.664 94.4667 84.176 94.712 83.744C94.9573 83.3067 95.2907 82.9653 95.712 82.72C96.1387 82.4747 96.6107 82.352 97.128 82.352C97.736 82.352 98.2667 82.4987 98.72 82.792C99.1733 83.0853 99.504 83.5013 99.712 84.04H98.84C98.6853 83.704 98.4613 83.4453 98.168 83.264C97.88 83.0827 97.5333 82.992 97.128 82.992C96.7387 82.992 96.3893 83.0827 96.08 83.264C95.7707 83.4453 95.528 83.704 95.352 84.04C95.176 84.3707 95.088 84.76 95.088 85.208C95.088 85.6507 95.176 86.04 95.352 86.376C95.528 86.7067 95.7707 86.9627 96.08 87.144C96.3893 87.3253 96.7387 87.416 97.128 87.416C97.5333 87.416 97.88 87.328 98.168 87.152C98.4613 86.9707 98.6853 86.712 98.84 86.376H99.712C99.504 86.9093 99.1733 87.3227 98.72 87.616C98.2667 87.904 97.736 88.048 97.128 88.048C96.6107 88.048 96.1387 87.928 95.712 87.688C95.2907 87.4427 94.9573 87.104 94.712 86.672C94.4667 86.24 94.344 85.752 94.344 85.208ZM105.092 82.424V88H104.364V85.472H101.524V88H100.796V82.424H101.524V84.872H104.364V82.424H105.092ZM109.631 86.76H107.199L106.751 88H105.983L107.999 82.456H108.839L110.847 88H110.079L109.631 86.76ZM109.423 86.168L108.415 83.352L107.407 86.168H109.423ZM116.109 88H115.381L112.453 83.56V88H111.725V82.416H112.453L115.381 86.848V82.416H116.109V88ZM121.574 84.04C121.42 83.7147 121.196 83.464 120.902 83.288C120.609 83.1067 120.268 83.016 119.878 83.016C119.489 83.016 119.137 83.1067 118.822 83.288C118.513 83.464 118.268 83.72 118.086 84.056C117.91 84.3867 117.822 84.7707 117.822 85.208C117.822 85.6453 117.91 86.0293 118.086 86.36C118.268 86.6907 118.513 86.9467 118.822 87.128C119.137 87.304 119.489 87.392 119.878 87.392C120.422 87.392 120.87 87.2293 121.222 86.904C121.574 86.5787 121.78 86.1387 121.838 85.584H119.614V84.992H122.614V85.552C122.572 86.0107 122.428 86.432 122.182 86.816C121.937 87.1947 121.614 87.496 121.214 87.72C120.814 87.9387 120.369 88.048 119.878 88.048C119.361 88.048 118.889 87.928 118.462 87.688C118.036 87.4427 117.697 87.104 117.446 86.672C117.201 86.24 117.078 85.752 117.078 85.208C117.078 84.664 117.201 84.176 117.446 83.744C117.697 83.3067 118.036 82.968 118.462 82.728C118.889 82.4827 119.361 82.36 119.878 82.36C120.47 82.36 120.993 82.5067 121.446 82.8C121.905 83.0933 122.238 83.5067 122.446 84.04H121.574ZM124.305 83.016V84.88H126.337V85.48H124.305V87.4H126.577V88H123.577V82.416H126.577V83.016H124.305Z" fill="black"/>
<path d="M94.344 118.208C94.344 117.664 94.4667 117.176 94.712 116.744C94.9573 116.307 95.2907 115.965 95.712 115.72C96.1387 115.475 96.6107 115.352 97.128 115.352C97.736 115.352 98.2667 115.499 98.72 115.792C99.1733 116.085 99.504 116.501 99.712 117.04H98.84C98.6853 116.704 98.4613 116.445 98.168 116.264C97.88 116.083 97.5333 115.992 97.128 115.992C96.7387 115.992 96.3893 116.083 96.08 116.264C95.7707 116.445 95.528 116.704 95.352 117.04C95.176 117.371 95.088 117.76 95.088 118.208C95.088 118.651 95.176 119.04 95.352 119.376C95.528 119.707 95.7707 119.963 96.08 120.144C96.3893 120.325 96.7387 120.416 97.128 120.416C97.5333 120.416 97.88 120.328 98.168 120.152C98.4613 119.971 98.6853 119.712 98.84 119.376H99.712C99.504 119.909 99.1733 120.323 98.72 120.616C98.2667 120.904 97.736 121.048 97.128 121.048C96.6107 121.048 96.1387 120.928 95.712 120.688C95.2907 120.443 94.9573 120.104 94.712 119.672C94.4667 119.24 94.344 118.752 94.344 118.208ZM105.092 115.424V121H104.364V118.472H101.524V121H100.796V115.424H101.524V117.872H104.364V115.424H105.092ZM109.631 119.76H107.199L106.751 121H105.983L107.999 115.456H108.839L110.847 121H110.079L109.631 119.76ZM109.423 119.168L108.415 116.352L107.407 119.168H109.423ZM116.109 121H115.381L112.453 116.56V121H111.725V115.416H112.453L115.381 119.848V115.416H116.109V121ZM121.574 117.04C121.42 116.715 121.196 116.464 120.902 116.288C120.609 116.107 120.268 116.016 119.878 116.016C119.489 116.016 119.137 116.107 118.822 116.288C118.513 116.464 118.268 116.72 118.086 117.056C117.91 117.387 117.822 117.771 117.822 118.208C117.822 118.645 117.91 119.029 118.086 119.36C118.268 119.691 118.513 119.947 118.822 120.128C119.137 120.304 119.489 120.392 119.878 120.392C120.422 120.392 120.87 120.229 121.222 119.904C121.574 119.579 121.78 119.139 121.838 118.584H119.614V117.992H122.614V118.552C122.572 119.011 122.428 119.432 122.182 119.816C121.937 120.195 121.614 120.496 121.214 120.72C120.814 120.939 120.369 121.048 119.878 121.048C119.361 121.048 118.889 120.928 118.462 120.688C118.036 120.443 117.697 120.104 117.446 119.672C117.201 119.24 117.078 118.752 117.078 118.208C117.078 117.664 117.201 117.176 117.446 116.744C117.697 116.307 118.036 115.968 118.462 115.728C118.889 115.483 119.361 115.36 119.878 115.36C120.47 115.36 120.993 115.507 121.446 115.8C121.905 116.093 122.238 116.507 122.446 117.04H121.574ZM124.305 116.016V117.88H126.337V118.48H124.305V120.4H126.577V121H123.577V115.416H126.577V116.016H124.305Z" fill="black"/>
</g>
<defs>
<clipPath id="clip0_149_23242">
<rect width="145.996" height="294.006" fill="white" transform="translate(0.734375 0.837891)"/>
</clipPath>
</defs>
</svg>
