<svg width="454" height="189" viewBox="0 0 454 189" fill="none" xmlns="http://www.w3.org/2000/svg">
<path d="M148.309 75.56C150.505 76.028 152.269 77.126 153.601 78.854C154.933 80.546 155.599 82.49 155.599 84.686C155.599 87.854 154.483 90.374 152.251 92.246C150.055 94.082 146.977 95 143.017 95H125.359V57.092H142.423C146.275 57.092 149.281 57.974 151.441 59.738C153.637 61.502 154.735 63.896 154.735 66.92C154.735 69.152 154.141 71.006 152.953 72.482C151.801 73.958 150.253 74.984 148.309 75.56ZM134.593 72.428H140.641C142.153 72.428 143.305 72.104 144.097 71.456C144.925 70.772 145.339 69.782 145.339 68.486C145.339 67.19 144.925 66.2 144.097 65.516C143.305 64.832 142.153 64.49 140.641 64.49H134.593V72.428ZM141.397 87.548C142.945 87.548 144.133 87.206 144.961 86.522C145.825 85.802 146.257 84.776 146.257 83.444C146.257 82.112 145.807 81.068 144.907 80.312C144.043 79.556 142.837 79.178 141.289 79.178H134.593V87.548H141.397ZM172.187 57.092V79.772C172.187 82.04 172.745 83.786 173.861 85.01C174.977 86.234 176.615 86.846 178.775 86.846C180.935 86.846 182.591 86.234 183.743 85.01C184.895 83.786 185.471 82.04 185.471 79.772V57.092H194.705V79.718C194.705 83.102 193.985 85.964 192.545 88.304C191.105 90.644 189.161 92.408 186.713 93.596C184.301 94.784 181.601 95.378 178.613 95.378C175.625 95.378 172.943 94.802 170.567 93.65C168.227 92.462 166.373 90.698 165.005 88.358C163.637 85.982 162.953 83.102 162.953 79.718V57.092H172.187ZM217.551 57.092C221.547 57.092 225.039 57.884 228.027 59.468C231.015 61.052 233.319 63.284 234.939 66.164C236.595 69.008 237.423 72.302 237.423 76.046C237.423 79.754 236.595 83.048 234.939 85.928C233.319 88.808 230.997 91.04 227.973 92.624C224.985 94.208 221.511 95 217.551 95H203.349V57.092H217.551ZM216.957 87.008C220.449 87.008 223.167 86.054 225.111 84.146C227.055 82.238 228.027 79.538 228.027 76.046C228.027 72.554 227.055 69.836 225.111 67.892C223.167 65.948 220.449 64.976 216.957 64.976H212.583V87.008H216.957ZM269.907 69.08C269.223 67.82 268.233 66.866 266.937 66.218C265.677 65.534 264.183 65.192 262.455 65.192C259.467 65.192 257.073 66.182 255.273 68.162C253.473 70.106 252.573 72.716 252.573 75.992C252.573 79.484 253.509 82.22 255.381 84.2C257.289 86.144 259.899 87.116 263.211 87.116C265.479 87.116 267.387 86.54 268.935 85.388C270.519 84.236 271.671 82.58 272.391 80.42H260.673V73.616H280.761V82.202C280.077 84.506 278.907 86.648 277.251 88.628C275.631 90.608 273.561 92.21 271.041 93.434C268.521 94.658 265.677 95.27 262.509 95.27C258.765 95.27 255.417 94.46 252.465 92.84C249.549 91.184 247.263 88.898 245.607 85.982C243.987 83.066 243.177 79.736 243.177 75.992C243.177 72.248 243.987 68.918 245.607 66.002C247.263 63.05 249.549 60.764 252.465 59.144C255.381 57.488 258.711 56.66 262.455 56.66C266.991 56.66 270.807 57.758 273.903 59.954C277.035 62.15 279.105 65.192 280.113 69.08H269.907ZM297.27 57.092V95H288.036V57.092H297.27ZM315.356 64.49V72.158H327.722V79.286H315.356V87.602H329.342V95H306.122V57.092H329.342V64.49H315.356Z" fill="white"/>
<path d="M18.1134 124.49V126.164H12.8034V129.854H16.9434V131.528H12.8034V137H10.7514V124.49H18.1134ZM25.721 137.126C24.557 137.126 23.483 136.856 22.499 136.316C21.527 135.764 20.753 135.002 20.177 134.03C19.613 133.046 19.331 131.942 19.331 130.718C19.331 129.494 19.613 128.396 20.177 127.424C20.753 126.452 21.527 125.696 22.499 125.156C23.483 124.604 24.557 124.328 25.721 124.328C26.897 124.328 27.971 124.604 28.943 125.156C29.927 125.696 30.701 126.452 31.265 127.424C31.829 128.396 32.111 129.494 32.111 130.718C32.111 131.942 31.829 133.046 31.265 134.03C30.701 135.002 29.927 135.764 28.943 136.316C27.971 136.856 26.897 137.126 25.721 137.126ZM25.721 135.344C26.549 135.344 27.287 135.158 27.935 134.786C28.583 134.402 29.087 133.862 29.447 133.166C29.819 132.458 30.005 131.642 30.005 130.718C30.005 129.794 29.819 128.984 29.447 128.288C29.087 127.592 28.583 127.058 27.935 126.686C27.287 126.314 26.549 126.128 25.721 126.128C24.893 126.128 24.155 126.314 23.507 126.686C22.859 127.058 22.349 127.592 21.977 128.288C21.617 128.984 21.437 129.794 21.437 130.718C21.437 131.642 21.617 132.458 21.977 133.166C22.349 133.862 22.859 134.402 23.507 134.786C24.155 135.158 24.893 135.344 25.721 135.344ZM40.6283 137L37.7483 131.996H36.1823V137H34.1303V124.49H38.4503C39.4103 124.49 40.2203 124.658 40.8803 124.994C41.5523 125.33 42.0503 125.78 42.3743 126.344C42.7103 126.908 42.8783 127.538 42.8783 128.234C42.8783 129.05 42.6383 129.794 42.1583 130.466C41.6903 131.126 40.9643 131.576 39.9803 131.816L43.0763 137H40.6283ZM36.1823 130.358H38.4503C39.2183 130.358 39.7943 130.166 40.1783 129.782C40.5743 129.398 40.7723 128.882 40.7723 128.234C40.7723 127.586 40.5803 127.082 40.1963 126.722C39.8123 126.35 39.2303 126.164 38.4503 126.164H36.1823V130.358ZM52.2131 124.49V132.464C52.2131 133.412 52.4591 134.126 52.9511 134.606C53.4551 135.086 54.1511 135.326 55.0391 135.326C55.9391 135.326 56.6351 135.086 57.1271 134.606C57.6311 134.126 57.8831 133.412 57.8831 132.464V124.49H59.9351V132.428C59.9351 133.448 59.7131 134.312 59.2691 135.02C58.8251 135.728 58.2311 136.256 57.4871 136.604C56.7431 136.952 55.9211 137.126 55.0211 137.126C54.1211 137.126 53.2991 136.952 52.5551 136.604C51.8231 136.256 51.2411 135.728 50.8091 135.02C50.3771 134.312 50.1611 133.448 50.1611 132.428V124.49H52.2131ZM66.7288 137.126C65.8888 137.126 65.1328 136.982 64.4608 136.694C63.7888 136.394 63.2608 135.974 62.8768 135.434C62.4928 134.894 62.3008 134.264 62.3008 133.544H64.4968C64.5448 134.084 64.7548 134.528 65.1268 134.876C65.5108 135.224 66.0448 135.398 66.7288 135.398C67.4368 135.398 67.9888 135.23 68.3848 134.894C68.7808 134.546 68.9788 134.102 68.9788 133.562C68.9788 133.142 68.8528 132.8 68.6008 132.536C68.3608 132.272 68.0548 132.068 67.6828 131.924C67.3228 131.78 66.8188 131.624 66.1708 131.456C65.3548 131.24 64.6888 131.024 64.1728 130.808C63.6688 130.58 63.2368 130.232 62.8768 129.764C62.5168 129.296 62.3368 128.672 62.3368 127.892C62.3368 127.172 62.5168 126.542 62.8768 126.002C63.2368 125.462 63.7408 125.048 64.3888 124.76C65.0368 124.472 65.7868 124.328 66.6388 124.328C67.8508 124.328 68.8408 124.634 69.6088 125.246C70.3888 125.846 70.8208 126.674 70.9048 127.73H68.6368C68.6008 127.274 68.3848 126.884 67.9888 126.56C67.5928 126.236 67.0708 126.074 66.4228 126.074C65.8348 126.074 65.3548 126.224 64.9828 126.524C64.6108 126.824 64.4248 127.256 64.4248 127.82C64.4248 128.204 64.5388 128.522 64.7668 128.774C65.0068 129.014 65.3068 129.206 65.6668 129.35C66.0268 129.494 66.5188 129.65 67.1428 129.818C67.9708 130.046 68.6428 130.274 69.1588 130.502C69.6868 130.73 70.1308 131.084 70.4908 131.564C70.8628 132.032 71.0488 132.662 71.0488 133.454C71.0488 134.09 70.8748 134.69 70.5268 135.254C70.1908 135.818 69.6928 136.274 69.0328 136.622C68.3848 136.958 67.6168 137.126 66.7288 137.126ZM75.5221 126.146V129.818H79.8421V131.492H75.5221V135.326H80.3821V137H73.4701V124.472H80.3821V126.146H75.5221ZM89.4076 137L86.5276 131.996H84.9616V137H82.9096V124.49H87.2296C88.1896 124.49 88.9996 124.658 89.6596 124.994C90.3316 125.33 90.8296 125.78 91.1536 126.344C91.4896 126.908 91.6576 127.538 91.6576 128.234C91.6576 129.05 91.4176 129.794 90.9376 130.466C90.4696 131.126 89.7436 131.576 88.7596 131.816L91.8556 137H89.4076ZM84.9616 130.358H87.2296C87.9976 130.358 88.5736 130.166 88.9576 129.782C89.3536 129.398 89.5516 128.882 89.5516 128.234C89.5516 127.586 89.3596 127.082 88.9756 126.722C88.5916 126.35 88.0096 126.164 87.2296 126.164H84.9616V130.358ZM98.4046 137.126C97.5646 137.126 96.8086 136.982 96.1366 136.694C95.4646 136.394 94.9366 135.974 94.5526 135.434C94.1686 134.894 93.9766 134.264 93.9766 133.544H96.1726C96.2206 134.084 96.4306 134.528 96.8026 134.876C97.1866 135.224 97.7206 135.398 98.4046 135.398C99.1126 135.398 99.6646 135.23 100.061 134.894C100.457 134.546 100.655 134.102 100.655 133.562C100.655 133.142 100.529 132.8 100.277 132.536C100.037 132.272 99.7306 132.068 99.3586 131.924C98.9986 131.78 98.4946 131.624 97.8466 131.456C97.0306 131.24 96.3646 131.024 95.8486 130.808C95.3446 130.58 94.9126 130.232 94.5526 129.764C94.1926 129.296 94.0126 128.672 94.0126 127.892C94.0126 127.172 94.1926 126.542 94.5526 126.002C94.9126 125.462 95.4166 125.048 96.0646 124.76C96.7126 124.472 97.4626 124.328 98.3146 124.328C99.5266 124.328 100.517 124.634 101.285 125.246C102.065 125.846 102.497 126.674 102.581 127.73H100.313C100.277 127.274 100.061 126.884 99.6646 126.56C99.2686 126.236 98.7466 126.074 98.0986 126.074C97.5106 126.074 97.0306 126.224 96.6586 126.524C96.2866 126.824 96.1006 127.256 96.1006 127.82C96.1006 128.204 96.2146 128.522 96.4426 128.774C96.6826 129.014 96.9826 129.206 97.3426 129.35C97.7026 129.494 98.1946 129.65 98.8186 129.818C99.6466 130.046 100.319 130.274 100.835 130.502C101.363 130.73 101.807 131.084 102.167 131.564C102.539 132.032 102.725 132.662 102.725 133.454C102.725 134.09 102.551 134.69 102.203 135.254C101.867 135.818 101.369 136.274 100.709 136.622C100.061 136.958 99.2926 137.126 98.4046 137.126ZM126.112 124.49L122.404 137H120.082L117.454 127.532L114.664 137L112.36 137.018L108.814 124.49H110.992L113.584 134.678L116.392 124.49H118.696L121.306 134.624L123.916 124.49H126.112ZM137.794 124.49V137H135.742V131.528H129.856V137H127.804V124.49H129.856V129.854H135.742V124.49H137.794ZM146.202 137.126C145.038 137.126 143.964 136.856 142.98 136.316C142.008 135.764 141.234 135.002 140.658 134.03C140.094 133.046 139.812 131.942 139.812 130.718C139.812 129.494 140.094 128.396 140.658 127.424C141.234 126.452 142.008 125.696 142.98 125.156C143.964 124.604 145.038 124.328 146.202 124.328C147.378 124.328 148.452 124.604 149.424 125.156C150.408 125.696 151.182 126.452 151.746 127.424C152.31 128.396 152.592 129.494 152.592 130.718C152.592 131.942 152.31 133.046 151.746 134.03C151.182 135.002 150.408 135.764 149.424 136.316C148.452 136.856 147.378 137.126 146.202 137.126ZM146.202 135.344C147.03 135.344 147.768 135.158 148.416 134.786C149.064 134.402 149.568 133.862 149.928 133.166C150.3 132.458 150.486 131.642 150.486 130.718C150.486 129.794 150.3 128.984 149.928 128.288C149.568 127.592 149.064 127.058 148.416 126.686C147.768 126.314 147.03 126.128 146.202 126.128C145.374 126.128 144.636 126.314 143.988 126.686C143.34 127.058 142.83 127.592 142.458 128.288C142.098 128.984 141.918 129.794 141.918 130.718C141.918 131.642 142.098 132.458 142.458 133.166C142.83 133.862 143.34 134.402 143.988 134.786C144.636 135.158 145.374 135.344 146.202 135.344ZM175.577 124.49L171.869 137H169.547L166.919 127.532L164.129 137L161.825 137.018L158.279 124.49H160.457L163.049 134.678L165.857 124.49H168.161L170.771 134.624L173.381 124.49H175.577ZM184.811 134.444H179.573L178.673 137H176.531L181.013 124.472H183.389L187.871 137H185.711L184.811 134.444ZM184.235 132.77L182.201 126.956L180.149 132.77H184.235ZM200.098 137H198.046L191.872 127.658V137H189.82V124.472H191.872L198.046 133.796V124.472H200.098V137ZM210.874 124.49V126.164H207.544V137H205.492V126.164H202.144V124.49H210.874ZM225.71 124.49V126.164H222.38V137H220.328V126.164H216.98V124.49H225.71ZM233.494 137.126C232.33 137.126 231.256 136.856 230.272 136.316C229.3 135.764 228.526 135.002 227.95 134.03C227.386 133.046 227.104 131.942 227.104 130.718C227.104 129.494 227.386 128.396 227.95 127.424C228.526 126.452 229.3 125.696 230.272 125.156C231.256 124.604 232.33 124.328 233.494 124.328C234.67 124.328 235.744 124.604 236.716 125.156C237.7 125.696 238.474 126.452 239.038 127.424C239.602 128.396 239.884 129.494 239.884 130.718C239.884 131.942 239.602 133.046 239.038 134.03C238.474 135.002 237.7 135.764 236.716 136.316C235.744 136.856 234.67 137.126 233.494 137.126ZM233.494 135.344C234.322 135.344 235.06 135.158 235.708 134.786C236.356 134.402 236.86 133.862 237.22 133.166C237.592 132.458 237.778 131.642 237.778 130.718C237.778 129.794 237.592 128.984 237.22 128.288C236.86 127.592 236.356 127.058 235.708 126.686C235.06 126.314 234.322 126.128 233.494 126.128C232.666 126.128 231.928 126.314 231.28 126.686C230.632 127.058 230.122 127.592 229.75 128.288C229.39 128.984 229.21 129.794 229.21 130.718C229.21 131.642 229.39 132.458 229.75 133.166C230.122 133.862 230.632 134.402 231.28 134.786C231.928 135.158 232.666 135.344 233.494 135.344ZM259.755 124.49V137H257.703V128.432L253.887 137H252.465L248.631 128.432V137H246.579V124.49H248.793L253.185 134.3L257.559 124.49H259.755ZM269.995 134.444H264.757L263.857 137H261.715L266.197 124.472H268.573L273.055 137H270.895L269.995 134.444ZM269.419 132.77L267.385 126.956L265.333 132.77H269.419ZM285.281 137H283.229L277.055 127.658V137H275.003V124.472H277.055L283.229 133.796V124.472H285.281V137ZM295.518 134.444H290.28L289.38 137H287.238L291.72 124.472H294.096L298.578 137H296.418L295.518 134.444ZM294.942 132.77L292.908 126.956L290.856 132.77H294.942ZM309.581 128.09C309.257 127.466 308.807 126.998 308.231 126.686C307.655 126.362 306.989 126.2 306.233 126.2C305.405 126.2 304.667 126.386 304.019 126.758C303.371 127.13 302.861 127.658 302.489 128.342C302.129 129.026 301.949 129.818 301.949 130.718C301.949 131.618 302.129 132.416 302.489 133.112C302.861 133.796 303.371 134.324 304.019 134.696C304.667 135.068 305.405 135.254 306.233 135.254C307.349 135.254 308.255 134.942 308.951 134.318C309.647 133.694 310.073 132.848 310.229 131.78H305.531V130.142H312.425V131.744C312.293 132.716 311.945 133.61 311.381 134.426C310.829 135.242 310.103 135.896 309.203 136.388C308.315 136.868 307.325 137.108 306.233 137.108C305.057 137.108 303.983 136.838 303.011 136.298C302.039 135.746 301.265 134.984 300.689 134.012C300.125 133.04 299.843 131.942 299.843 130.718C299.843 129.494 300.125 128.396 300.689 127.424C301.265 126.452 302.039 125.696 303.011 125.156C303.995 124.604 305.069 124.328 306.233 124.328C307.565 124.328 308.747 124.658 309.779 125.318C310.823 125.966 311.579 126.89 312.047 128.09H309.581ZM316.501 126.146V129.818H320.821V131.492H316.501V135.326H321.361V137H314.449V124.472H321.361V126.146H316.501ZM336.646 124.49V126.164H333.316V137H331.264V126.164H327.916V124.49H336.646ZM348.714 124.49V137H346.662V131.528H340.776V137H338.724V124.49H340.776V129.854H346.662V124.49H348.714ZM353.467 126.146V129.818H357.787V131.492H353.467V135.326H358.327V137H351.415V124.472H358.327V126.146H353.467ZM362.907 124.49V137H360.855V124.49H362.907ZM372.099 137L369.219 131.996H367.653V137H365.601V124.49H369.921C370.881 124.49 371.691 124.658 372.351 124.994C373.023 125.33 373.521 125.78 373.845 126.344C374.181 126.908 374.349 127.538 374.349 128.234C374.349 129.05 374.109 129.794 373.629 130.466C373.161 131.126 372.435 131.576 371.451 131.816L374.547 137H372.099ZM367.653 130.358H369.921C370.689 130.358 371.265 130.166 371.649 129.782C372.045 129.398 372.243 128.882 372.243 128.234C372.243 127.586 372.051 127.082 371.667 126.722C371.283 126.35 370.701 126.164 369.921 126.164H367.653V130.358ZM394.826 124.49V137H392.774V128.432L388.958 137H387.536L383.702 128.432V137H381.65V124.49H383.864L388.256 134.3L392.63 124.49H394.826ZM403.229 137.126C402.065 137.126 400.991 136.856 400.007 136.316C399.035 135.764 398.261 135.002 397.685 134.03C397.121 133.046 396.839 131.942 396.839 130.718C396.839 129.494 397.121 128.396 397.685 127.424C398.261 126.452 399.035 125.696 400.007 125.156C400.991 124.604 402.065 124.328 403.229 124.328C404.405 124.328 405.479 124.604 406.451 125.156C407.435 125.696 408.209 126.452 408.773 127.424C409.337 128.396 409.619 129.494 409.619 130.718C409.619 131.942 409.337 133.046 408.773 134.03C408.209 135.002 407.435 135.764 406.451 136.316C405.479 136.856 404.405 137.126 403.229 137.126ZM403.229 135.344C404.057 135.344 404.795 135.158 405.443 134.786C406.091 134.402 406.595 133.862 406.955 133.166C407.327 132.458 407.513 131.642 407.513 130.718C407.513 129.794 407.327 128.984 406.955 128.288C406.595 127.592 406.091 127.058 405.443 126.686C404.795 126.314 404.057 126.128 403.229 126.128C402.401 126.128 401.663 126.314 401.015 126.686C400.367 127.058 399.857 127.592 399.485 128.288C399.125 128.984 398.945 129.794 398.945 130.718C398.945 131.642 399.125 132.458 399.485 133.166C399.857 133.862 400.367 134.402 401.015 134.786C401.663 135.158 402.401 135.344 403.229 135.344ZM421.916 137H419.864L413.69 127.658V137H411.638V124.472H413.69L419.864 133.796V124.472H421.916V137ZM426.663 126.146V129.818H430.983V131.492H426.663V135.326H431.523V137H424.611V124.472H431.523V126.146H426.663ZM443.32 124.49L439.18 132.464V137H437.128V132.464L432.97 124.49H435.256L438.154 130.628L441.052 124.49H443.32ZM43.3278 151.49V164H41.2758V151.49H43.3278ZM56.2999 164H54.2479L48.0739 154.658V164H46.0219V151.472H48.0739L54.2479 160.796V151.472H56.2999V164ZM71.2123 161.444H65.9743L65.0743 164H62.9323L67.4143 151.472H69.7903L74.2723 164H72.1123L71.2123 161.444ZM70.6363 159.77L68.6023 153.956L66.5503 159.77H70.6363ZM82.9489 162.344H87.1789V164H80.8969V151.49H82.9489V162.344ZM94.6009 164.126C93.4369 164.126 92.3629 163.856 91.3789 163.316C90.4069 162.764 89.6329 162.002 89.0569 161.03C88.4929 160.046 88.2109 158.942 88.2109 157.718C88.2109 156.494 88.4929 155.396 89.0569 154.424C89.6329 153.452 90.4069 152.696 91.3789 152.156C92.3629 151.604 93.4369 151.328 94.6009 151.328C95.7769 151.328 96.8509 151.604 97.8229 152.156C98.8069 152.696 99.5809 153.452 100.145 154.424C100.709 155.396 100.991 156.494 100.991 157.718C100.991 158.942 100.709 160.046 100.145 161.03C99.5809 162.002 98.8069 162.764 97.8229 163.316C96.8509 163.856 95.7769 164.126 94.6009 164.126ZM94.6009 162.344C95.4289 162.344 96.1669 162.158 96.8149 161.786C97.4629 161.402 97.9669 160.862 98.3269 160.166C98.6989 159.458 98.8849 158.642 98.8849 157.718C98.8849 156.794 98.6989 155.984 98.3269 155.288C97.9669 154.592 97.4629 154.058 96.8149 153.686C96.1669 153.314 95.4289 153.128 94.6009 153.128C93.7729 153.128 93.0349 153.314 92.3869 153.686C91.7389 154.058 91.2289 154.592 90.8569 155.288C90.4969 155.984 90.3169 156.794 90.3169 157.718C90.3169 158.642 90.4969 159.458 90.8569 160.166C91.2289 160.862 91.7389 161.402 92.3869 161.786C93.0349 162.158 93.7729 162.344 94.6009 162.344ZM119.3 151.49L115.592 164H113.27L110.642 154.532L107.852 164L105.548 164.018L102.002 151.49H104.18L106.772 161.678L109.58 151.49H111.884L114.494 161.624L117.104 151.49H119.3ZM129.79 164.126C128.95 164.126 128.194 163.982 127.522 163.694C126.85 163.394 126.322 162.974 125.938 162.434C125.554 161.894 125.362 161.264 125.362 160.544H127.558C127.606 161.084 127.816 161.528 128.188 161.876C128.572 162.224 129.106 162.398 129.79 162.398C130.498 162.398 131.05 162.23 131.446 161.894C131.842 161.546 132.04 161.102 132.04 160.562C132.04 160.142 131.914 159.8 131.662 159.536C131.422 159.272 131.116 159.068 130.744 158.924C130.384 158.78 129.88 158.624 129.232 158.456C128.416 158.24 127.75 158.024 127.234 157.808C126.73 157.58 126.298 157.232 125.938 156.764C125.578 156.296 125.398 155.672 125.398 154.892C125.398 154.172 125.578 153.542 125.938 153.002C126.298 152.462 126.802 152.048 127.45 151.76C128.098 151.472 128.848 151.328 129.7 151.328C130.912 151.328 131.902 151.634 132.67 152.246C133.45 152.846 133.882 153.674 133.966 154.73H131.698C131.662 154.274 131.446 153.884 131.05 153.56C130.654 153.236 130.132 153.074 129.484 153.074C128.896 153.074 128.416 153.224 128.044 153.524C127.672 153.824 127.486 154.256 127.486 154.82C127.486 155.204 127.6 155.522 127.828 155.774C128.068 156.014 128.368 156.206 128.728 156.35C129.088 156.494 129.58 156.65 130.204 156.818C131.032 157.046 131.704 157.274 132.22 157.502C132.748 157.73 133.192 158.084 133.552 158.564C133.924 159.032 134.11 159.662 134.11 160.454C134.11 161.09 133.936 161.69 133.588 162.254C133.252 162.818 132.754 163.274 132.094 163.622C131.446 163.958 130.678 164.126 129.79 164.126ZM144.614 151.49V153.164H141.284V164H139.232V153.164H135.884V151.49H144.614ZM153.19 164L150.31 158.996H148.744V164H146.692V151.49H151.012C151.972 151.49 152.782 151.658 153.442 151.994C154.114 152.33 154.612 152.78 154.936 153.344C155.272 153.908 155.44 154.538 155.44 155.234C155.44 156.05 155.2 156.794 154.72 157.466C154.252 158.126 153.526 158.576 152.542 158.816L155.638 164H153.19ZM148.744 157.358H151.012C151.78 157.358 152.356 157.166 152.74 156.782C153.136 156.398 153.334 155.882 153.334 155.234C153.334 154.586 153.142 154.082 152.758 153.722C152.374 153.35 151.792 153.164 151.012 153.164H148.744V157.358ZM160.117 153.146V156.818H164.437V158.492H160.117V162.326H164.977V164H158.065V151.472H164.977V153.146H160.117ZM171.626 164.126C170.786 164.126 170.03 163.982 169.358 163.694C168.686 163.394 168.158 162.974 167.774 162.434C167.39 161.894 167.198 161.264 167.198 160.544H169.394C169.442 161.084 169.652 161.528 170.024 161.876C170.408 162.224 170.942 162.398 171.626 162.398C172.334 162.398 172.886 162.23 173.282 161.894C173.678 161.546 173.876 161.102 173.876 160.562C173.876 160.142 173.75 159.8 173.498 159.536C173.258 159.272 172.952 159.068 172.58 158.924C172.22 158.78 171.716 158.624 171.068 158.456C170.252 158.24 169.586 158.024 169.07 157.808C168.566 157.58 168.134 157.232 167.774 156.764C167.414 156.296 167.234 155.672 167.234 154.892C167.234 154.172 167.414 153.542 167.774 153.002C168.134 152.462 168.638 152.048 169.286 151.76C169.934 151.472 170.684 151.328 171.536 151.328C172.748 151.328 173.738 151.634 174.506 152.246C175.286 152.846 175.718 153.674 175.802 154.73H173.534C173.498 154.274 173.282 153.884 172.886 153.56C172.49 153.236 171.968 153.074 171.32 153.074C170.732 153.074 170.252 153.224 169.88 153.524C169.508 153.824 169.322 154.256 169.322 154.82C169.322 155.204 169.436 155.522 169.664 155.774C169.904 156.014 170.204 156.206 170.564 156.35C170.924 156.494 171.416 156.65 172.04 156.818C172.868 157.046 173.54 157.274 174.056 157.502C174.584 157.73 175.028 158.084 175.388 158.564C175.76 159.032 175.946 159.662 175.946 160.454C175.946 161.09 175.772 161.69 175.424 162.254C175.088 162.818 174.59 163.274 173.93 163.622C173.282 163.958 172.514 164.126 171.626 164.126ZM182.49 164.126C181.65 164.126 180.894 163.982 180.222 163.694C179.55 163.394 179.022 162.974 178.638 162.434C178.254 161.894 178.062 161.264 178.062 160.544H180.258C180.306 161.084 180.516 161.528 180.888 161.876C181.272 162.224 181.806 162.398 182.49 162.398C183.198 162.398 183.75 162.23 184.146 161.894C184.542 161.546 184.74 161.102 184.74 160.562C184.74 160.142 184.614 159.8 184.362 159.536C184.122 159.272 183.816 159.068 183.444 158.924C183.084 158.78 182.58 158.624 181.932 158.456C181.116 158.24 180.45 158.024 179.934 157.808C179.43 157.58 178.998 157.232 178.638 156.764C178.278 156.296 178.098 155.672 178.098 154.892C178.098 154.172 178.278 153.542 178.638 153.002C178.998 152.462 179.502 152.048 180.15 151.76C180.798 151.472 181.548 151.328 182.4 151.328C183.612 151.328 184.602 151.634 185.37 152.246C186.15 152.846 186.582 153.674 186.666 154.73H184.398C184.362 154.274 184.146 153.884 183.75 153.56C183.354 153.236 182.832 153.074 182.184 153.074C181.596 153.074 181.116 153.224 180.744 153.524C180.372 153.824 180.186 154.256 180.186 154.82C180.186 155.204 180.3 155.522 180.528 155.774C180.768 156.014 181.068 156.206 181.428 156.35C181.788 156.494 182.28 156.65 182.904 156.818C183.732 157.046 184.404 157.274 184.92 157.502C185.448 157.73 185.892 158.084 186.252 158.564C186.624 159.032 186.81 159.662 186.81 160.454C186.81 161.09 186.636 161.69 186.288 162.254C185.952 162.818 185.454 163.274 184.794 163.622C184.146 163.958 183.378 164.126 182.49 164.126ZM191.481 161.534L189.303 166.502H187.971L189.249 161.534H191.481ZM205.312 151.49V153.164H200.002V156.854H204.142V158.528H200.002V164H197.95V151.49H205.312ZM213.711 164L210.831 158.996H209.265V164H207.213V151.49H211.533C212.493 151.49 213.303 151.658 213.963 151.994C214.635 152.33 215.133 152.78 215.457 153.344C215.793 153.908 215.961 154.538 215.961 155.234C215.961 156.05 215.721 156.794 215.241 157.466C214.773 158.126 214.047 158.576 213.063 158.816L216.159 164H213.711ZM209.265 157.358H211.533C212.301 157.358 212.877 157.166 213.261 156.782C213.657 156.398 213.855 155.882 213.855 155.234C213.855 154.586 213.663 154.082 213.279 153.722C212.895 153.35 212.313 153.164 211.533 153.164H209.265V157.358ZM220.638 151.49V164H218.586V151.49H220.638ZM225.384 153.146V156.818H229.704V158.492H225.384V162.326H230.244V164H223.332V151.472H230.244V153.146H225.384ZM243.05 164H240.998L234.824 154.658V164H232.772V151.472H234.824L240.998 160.796V151.472H243.05V164ZM249.831 151.49C251.163 151.49 252.327 151.748 253.323 152.264C254.331 152.768 255.105 153.5 255.645 154.46C256.197 155.408 256.473 156.518 256.473 157.79C256.473 159.062 256.197 160.166 255.645 161.102C255.105 162.038 254.331 162.758 253.323 163.262C252.327 163.754 251.163 164 249.831 164H245.745V151.49H249.831ZM249.831 162.326C251.295 162.326 252.417 161.93 253.197 161.138C253.977 160.346 254.367 159.23 254.367 157.79C254.367 156.338 253.977 155.204 253.197 154.388C252.417 153.572 251.295 153.164 249.831 153.164H247.797V162.326H249.831ZM260.558 162.344H264.788V164H258.506V151.49H260.558V162.344ZM275.774 151.49L271.634 159.464V164H269.582V159.464L265.424 151.49H267.71L270.608 157.628L273.506 151.49H275.774ZM284.131 153.146V156.818H288.451V158.492H284.131V162.326H288.991V164H282.079V151.472H288.991V153.146H284.131ZM301.796 164H299.744L293.57 154.658V164H291.518V151.472H293.57L299.744 160.796V151.472H301.796V164ZM315.273 151.49L310.575 164H308.199L303.483 151.49H305.679L309.387 161.894L313.113 151.49H315.273ZM319.041 151.49V164H316.989V151.49H319.041ZM328.233 164L325.353 158.996H323.787V164H321.735V151.49H326.055C327.015 151.49 327.825 151.658 328.485 151.994C329.157 152.33 329.655 152.78 329.979 153.344C330.315 153.908 330.483 154.538 330.483 155.234C330.483 156.05 330.243 156.794 329.763 157.466C329.295 158.126 328.569 158.576 327.585 158.816L330.681 164H328.233ZM323.787 157.358H326.055C326.823 157.358 327.399 157.166 327.783 156.782C328.179 156.398 328.377 155.882 328.377 155.234C328.377 154.586 328.185 154.082 327.801 153.722C327.417 153.35 326.835 153.164 326.055 153.164H323.787V157.358ZM338.814 164.126C337.65 164.126 336.576 163.856 335.592 163.316C334.62 162.764 333.846 162.002 333.27 161.03C332.706 160.046 332.424 158.942 332.424 157.718C332.424 156.494 332.706 155.396 333.27 154.424C333.846 153.452 334.62 152.696 335.592 152.156C336.576 151.604 337.65 151.328 338.814 151.328C339.99 151.328 341.064 151.604 342.036 152.156C343.02 152.696 343.794 153.452 344.358 154.424C344.922 155.396 345.204 156.494 345.204 157.718C345.204 158.942 344.922 160.046 344.358 161.03C343.794 162.002 343.02 162.764 342.036 163.316C341.064 163.856 339.99 164.126 338.814 164.126ZM338.814 162.344C339.642 162.344 340.38 162.158 341.028 161.786C341.676 161.402 342.18 160.862 342.54 160.166C342.912 159.458 343.098 158.642 343.098 157.718C343.098 156.794 342.912 155.984 342.54 155.288C342.18 154.592 341.676 154.058 341.028 153.686C340.38 153.314 339.642 153.128 338.814 153.128C337.986 153.128 337.248 153.314 336.6 153.686C335.952 154.058 335.442 154.592 335.07 155.288C334.71 155.984 334.53 156.794 334.53 157.718C334.53 158.642 334.71 159.458 335.07 160.166C335.442 160.862 335.952 161.402 336.6 161.786C337.248 162.158 337.986 162.344 338.814 162.344ZM357.501 164H355.449L349.275 154.658V164H347.223V151.472H349.275L355.449 160.796V151.472H357.501V164ZM373.372 151.49V164H371.32V155.432L367.504 164H366.082L362.248 155.432V164H360.196V151.49H362.41L366.802 161.3L371.176 151.49H373.372ZM378.121 153.146V156.818H382.441V158.492H378.121V162.326H382.981V164H376.069V151.472H382.981V153.146H378.121ZM395.786 164H393.734L387.56 154.658V164H385.508V151.472H387.56L393.734 160.796V151.472H395.786V164ZM406.563 151.49V153.164H403.233V164H401.181V153.164H397.833V151.49H406.563ZM411.215 151.49L410.981 160.22H409.271L409.037 151.49H411.215ZM410.189 164.126C409.817 164.126 409.505 164 409.253 163.748C409.001 163.496 408.875 163.184 408.875 162.812C408.875 162.44 409.001 162.128 409.253 161.876C409.505 161.624 409.817 161.498 410.189 161.498C410.549 161.498 410.855 161.624 411.107 161.876C411.359 162.128 411.485 162.44 411.485 162.812C411.485 163.184 411.359 163.496 411.107 163.748C410.855 164 410.549 164.126 410.189 164.126Z" fill="white"/>
</svg>
