<svg width="454" height="189" viewBox="0 0 454 189" fill="none" xmlns="http://www.w3.org/2000/svg">
<path d="M29.9032 137.47C29.4352 137.722 29.0572 137.848 28.6432 137.848C27.8152 137.848 27.5092 137.398 27.5092 136.444V130.792H29.5792L29.7592 129.514H27.5092V127.174L25.8532 127.372V129.514H24.1972V130.792H25.8532V136.516C25.8532 138.28 26.8072 139.216 28.4092 139.216C29.2192 139.216 29.9032 139 30.5332 138.568L29.9032 137.47ZM35.5494 129.298C32.8494 129.298 31.3014 131.332 31.3014 134.266C31.3014 137.272 32.8314 139.216 35.5314 139.216C38.2134 139.216 39.7614 137.182 39.7614 134.248C39.7614 131.242 38.2494 129.298 35.5494 129.298ZM35.5494 130.63C37.1154 130.63 37.9794 131.782 37.9794 134.248C37.9794 136.732 37.1154 137.884 35.5314 137.884C33.9474 137.884 33.0834 136.732 33.0834 134.266C33.0834 131.782 33.9654 130.63 35.5494 130.63ZM49.6611 128.452C48.5451 128.956 47.6811 129.352 45.3231 129.298C43.2351 129.298 41.6691 130.666 41.6691 132.61C41.6691 133.834 42.1731 134.662 43.2711 135.238C42.5871 135.688 42.2271 136.3 42.2271 136.912C42.2271 137.866 42.9831 138.712 44.6751 138.712H46.1691C47.3571 138.712 48.0771 139.162 48.0771 140.062C48.0771 141.016 47.3571 141.538 45.3051 141.538C43.2171 141.538 42.7311 141.034 42.7311 139.954H41.2371C41.2371 141.88 42.2091 142.834 45.3051 142.834C48.2391 142.834 49.7511 141.79 49.7511 139.954C49.7511 138.442 48.4551 137.326 46.5111 137.326H44.9991C44.0271 137.326 43.7571 136.984 43.7571 136.552C43.7571 136.21 43.9551 135.868 44.2251 135.67C44.6211 135.796 44.9991 135.85 45.4311 135.85C47.6991 135.85 49.0491 134.5 49.0491 132.628C49.0491 131.53 48.4911 130.738 47.3751 130.234C48.4551 130.234 49.3551 130.198 50.1471 129.946L49.6611 128.452ZM45.3231 130.486C46.6731 130.486 47.3571 131.206 47.3571 132.592C47.3571 133.96 46.6551 134.752 45.3591 134.752C44.0631 134.752 43.3611 133.87 43.3611 132.61C43.3611 131.368 44.0451 130.486 45.3231 130.486ZM59.0127 133.978C59.0127 131.08 57.6627 129.298 55.1067 129.298C52.6587 129.298 51.1647 131.404 51.1647 134.356C51.1647 137.362 52.7127 139.216 55.3587 139.216C56.6727 139.216 57.7347 138.766 58.6707 138.028L57.9507 137.038C57.1227 137.614 56.4207 137.866 55.4847 137.866C54.1167 137.866 53.0907 137.02 52.9287 134.824H58.9767C58.9947 134.608 59.0127 134.302 59.0127 133.978ZM57.3747 133.6H52.9287C53.0547 131.494 53.8827 130.612 55.1427 130.612C56.6367 130.612 57.3747 131.638 57.3747 133.492V133.6ZM65.7977 137.47C65.3297 137.722 64.9517 137.848 64.5377 137.848C63.7097 137.848 63.4037 137.398 63.4037 136.444V130.792H65.4737L65.6537 129.514H63.4037V127.174L61.7477 127.372V129.514H60.0917V130.792H61.7477V136.516C61.7477 138.28 62.7017 139.216 64.3037 139.216C65.1137 139.216 65.7977 139 66.4277 138.568L65.7977 137.47ZM72.5536 129.298C71.3656 129.298 70.4296 129.892 69.7456 130.828V125.536L68.0896 125.716V139H69.7456V132.25C70.3756 131.26 71.1136 130.594 72.1396 130.594C73.0396 130.594 73.6516 131.008 73.6516 132.43V139H75.3076V132.196C75.3076 130.414 74.2816 129.298 72.5536 129.298ZM85.7314 133.978C85.7314 131.08 84.3814 129.298 81.8254 129.298C79.3774 129.298 77.8834 131.404 77.8834 134.356C77.8834 137.362 79.4314 139.216 82.0774 139.216C83.3914 139.216 84.4534 138.766 85.3894 138.028L84.6694 137.038C83.8414 137.614 83.1394 137.866 82.2034 137.866C80.8354 137.866 79.8094 137.02 79.6474 134.824H85.6954C85.7134 134.608 85.7314 134.302 85.7314 133.978ZM84.0934 133.6H79.6474C79.7734 131.494 80.6014 130.612 81.8614 130.612C83.3554 130.612 84.0934 131.638 84.0934 133.492V133.6ZM92.4264 129.298C91.2744 129.298 90.3924 130.018 89.8884 131.44L89.7264 129.514H88.3044V139H89.9604V133.582C90.3564 131.764 91.0404 130.918 92.2284 130.918C92.5704 130.918 92.7684 130.954 93.0564 131.026L93.3624 129.406C93.0744 129.334 92.7324 129.298 92.4264 129.298ZM110.849 129.514H109.265L107.537 137.848L105.755 129.514H103.901L102.029 137.848L100.319 129.514H98.6627L100.877 139H103.073L104.783 131.008L106.439 139H108.689L110.849 129.514ZM120.079 133.978C120.079 131.08 118.729 129.298 116.173 129.298C113.725 129.298 112.231 131.404 112.231 134.356C112.231 137.362 113.779 139.216 116.425 139.216C117.739 139.216 118.801 138.766 119.737 138.028L119.017 137.038C118.189 137.614 117.487 137.866 116.551 137.866C115.183 137.866 114.157 137.02 113.995 134.824H120.043C120.061 134.608 120.079 134.302 120.079 133.978ZM118.441 133.6H113.995C114.121 131.494 114.949 130.612 116.209 130.612C117.703 130.612 118.441 131.638 118.441 133.492V133.6ZM130.926 129.298C128.352 129.298 126.786 131.314 126.786 134.338C126.786 137.398 128.37 139.216 130.926 139.216C132.024 139.216 132.978 138.856 133.824 138.172L133.068 137.092C132.348 137.56 131.79 137.812 130.998 137.812C129.504 137.812 128.568 136.786 128.568 134.302C128.568 131.836 129.504 130.666 130.998 130.666C131.79 130.666 132.384 130.9 133.032 131.368L133.824 130.324C132.942 129.586 132.042 129.298 130.926 129.298ZM142.278 136.786V132.448C142.278 130.468 141.234 129.298 138.948 129.298C137.886 129.298 136.842 129.514 135.672 129.946L136.086 131.152C137.058 130.828 137.94 130.648 138.642 130.648C139.956 130.648 140.622 131.152 140.622 132.52V133.222H139.164C136.518 133.222 134.988 134.32 134.988 136.354C134.988 138.046 136.122 139.216 138.012 139.216C139.164 139.216 140.172 138.784 140.838 137.794C141.126 138.73 141.738 139.108 142.692 139.216L143.07 138.064C142.584 137.884 142.278 137.614 142.278 136.786ZM138.39 137.974C137.31 137.974 136.752 137.38 136.752 136.264C136.752 134.968 137.634 134.32 139.38 134.32H140.622V136.498C140.082 137.488 139.362 137.974 138.39 137.974ZM150.091 129.298C148.849 129.298 147.841 129.946 147.193 130.918L147.049 129.514H145.627V139H147.283V132.268C147.913 131.26 148.633 130.594 149.695 130.594C150.613 130.594 151.189 131.008 151.189 132.43V139H152.845V132.196C152.845 130.396 151.837 129.298 150.091 129.298ZM165.152 129.298C164 129.298 163.118 129.82 162.47 130.702V125.5L160.814 125.698V139H162.272L162.434 137.956C163.082 138.748 163.91 139.216 164.954 139.216C167.258 139.216 168.68 137.218 168.68 134.248C168.68 131.08 167.294 129.298 165.152 129.298ZM164.558 137.902C163.712 137.902 162.956 137.38 162.47 136.624V132.088C162.956 131.332 163.64 130.612 164.684 130.612C166.016 130.612 166.898 131.548 166.898 134.248C166.898 136.84 165.944 137.902 164.558 137.902ZM175.483 129.298C174.331 129.298 173.449 130.018 172.945 131.44L172.783 129.514H171.361V139H173.017V133.582C173.413 131.764 174.097 130.918 175.285 130.918C175.627 130.918 175.825 130.954 176.113 131.026L176.419 129.406C176.131 129.334 175.789 129.298 175.483 129.298ZM185.118 133.978C185.118 131.08 183.768 129.298 181.212 129.298C178.764 129.298 177.27 131.404 177.27 134.356C177.27 137.362 178.818 139.216 181.464 139.216C182.778 139.216 183.84 138.766 184.776 138.028L184.056 137.038C183.228 137.614 182.526 137.866 181.59 137.866C180.222 137.866 179.196 137.02 179.034 134.824H185.082C185.1 134.608 185.118 134.302 185.118 133.978ZM183.48 133.6H179.034C179.16 131.494 179.988 130.612 181.248 130.612C182.742 130.612 183.48 131.638 183.48 133.492V133.6ZM193.957 136.786V132.448C193.957 130.468 192.913 129.298 190.627 129.298C189.565 129.298 188.521 129.514 187.351 129.946L187.765 131.152C188.737 130.828 189.619 130.648 190.321 130.648C191.635 130.648 192.301 131.152 192.301 132.52V133.222H190.843C188.197 133.222 186.667 134.32 186.667 136.354C186.667 138.046 187.801 139.216 189.691 139.216C190.843 139.216 191.851 138.784 192.517 137.794C192.805 138.73 193.417 139.108 194.371 139.216L194.749 138.064C194.263 137.884 193.957 137.614 193.957 136.786ZM190.069 137.974C188.989 137.974 188.431 137.38 188.431 136.264C188.431 134.968 189.313 134.32 191.059 134.32H192.301V136.498C191.761 137.488 191.041 137.974 190.069 137.974ZM198.962 125.5L197.306 125.698V139H198.962V125.5ZM204.416 129.514H202.562L199.07 133.816L202.832 139H204.812L200.924 133.708L204.416 129.514ZM216.88 125.5V130.468C216.25 129.802 215.44 129.298 214.324 129.298C212.002 129.298 210.598 131.404 210.598 134.302C210.598 137.254 211.876 139.216 214.18 139.216C215.35 139.216 216.304 138.64 216.916 137.686L217.078 139H218.536V125.698L216.88 125.5ZM214.54 137.902C213.172 137.902 212.38 136.768 212.38 134.266C212.38 131.8 213.262 130.612 214.684 130.612C215.62 130.612 216.286 131.098 216.88 131.854V136.498C216.25 137.38 215.602 137.902 214.54 137.902ZM225.463 129.298C222.763 129.298 221.215 131.332 221.215 134.266C221.215 137.272 222.745 139.216 225.445 139.216C228.127 139.216 229.675 137.182 229.675 134.248C229.675 131.242 228.163 129.298 225.463 129.298ZM225.463 130.63C227.029 130.63 227.893 131.782 227.893 134.248C227.893 136.732 227.029 137.884 225.445 137.884C223.861 137.884 222.997 136.732 222.997 134.266C222.997 131.782 223.879 130.63 225.463 130.63ZM243.247 129.514H241.663L239.935 137.848L238.153 129.514H236.299L234.427 137.848L232.717 129.514H231.061L233.275 139H235.471L237.181 131.008L238.837 139H241.087L243.247 129.514ZM249.724 129.298C248.482 129.298 247.474 129.946 246.826 130.918L246.682 129.514H245.26V139H246.916V132.268C247.546 131.26 248.266 130.594 249.328 130.594C250.246 130.594 250.822 131.008 250.822 132.43V139H252.478V132.196C252.478 130.396 251.47 129.298 249.724 129.298ZM267.467 129.514H265.757L263.273 137.794L260.735 129.514H258.971L262.157 139H262.715C262.175 140.476 261.635 141.214 259.709 141.538L259.889 142.834C262.517 142.546 263.633 141.07 264.299 139.054L267.467 129.514ZM272.854 129.298C270.154 129.298 268.606 131.332 268.606 134.266C268.606 137.272 270.136 139.216 272.836 139.216C275.518 139.216 277.066 137.182 277.066 134.248C277.066 131.242 275.554 129.298 272.854 129.298ZM272.854 130.63C274.42 130.63 275.284 131.782 275.284 134.248C275.284 136.732 274.42 137.884 272.836 137.884C271.252 137.884 270.388 136.732 270.388 134.266C270.388 131.782 271.27 130.63 272.854 130.63ZM286.786 129.514H285.13V136.282C284.554 137.236 283.78 137.92 282.754 137.92C281.728 137.92 281.296 137.434 281.296 136.138V129.514H279.64V136.318C279.64 138.172 280.63 139.216 282.286 139.216C283.636 139.216 284.518 138.676 285.238 137.524L285.364 139H286.786V129.514ZM294.223 129.298C293.071 129.298 292.189 130.018 291.685 131.44L291.523 129.514H290.101V139H291.757V133.582C292.153 131.764 292.837 130.918 294.025 130.918C294.367 130.918 294.565 130.954 294.853 131.026L295.159 129.406C294.871 129.334 294.529 129.298 294.223 129.298ZM307.408 125.5V130.468C306.778 129.802 305.968 129.298 304.852 129.298C302.53 129.298 301.126 131.404 301.126 134.302C301.126 137.254 302.404 139.216 304.708 139.216C305.878 139.216 306.832 138.64 307.444 137.686L307.606 139H309.064V125.698L307.408 125.5ZM305.068 137.902C303.7 137.902 302.908 136.768 302.908 134.266C302.908 131.8 303.79 130.612 305.212 130.612C306.148 130.612 306.814 131.098 307.408 131.854V136.498C306.778 137.38 306.13 137.902 305.068 137.902ZM318.727 136.786V132.448C318.727 130.468 317.683 129.298 315.397 129.298C314.335 129.298 313.291 129.514 312.121 129.946L312.535 131.152C313.507 130.828 314.389 130.648 315.091 130.648C316.405 130.648 317.071 131.152 317.071 132.52V133.222H315.613C312.967 133.222 311.437 134.32 311.437 136.354C311.437 138.046 312.571 139.216 314.461 139.216C315.613 139.216 316.621 138.784 317.287 137.794C317.575 138.73 318.187 139.108 319.141 139.216L319.519 138.064C319.033 137.884 318.727 137.614 318.727 136.786ZM314.839 137.974C313.759 137.974 313.201 137.38 313.201 136.264C313.201 134.968 314.083 134.32 315.829 134.32H317.071V136.498C316.531 137.488 315.811 137.974 314.839 137.974ZM329.008 129.514H327.298L324.814 137.794L322.276 129.514H320.512L323.698 139H324.256C323.716 140.476 323.176 141.214 321.25 141.538L321.43 142.834C324.058 142.546 325.174 141.07 325.84 139.054L329.008 129.514ZM336.421 124.96C335.737 124.96 335.269 125.446 335.269 126.094C335.269 126.724 335.737 127.21 336.421 127.21C337.123 127.21 337.591 126.724 337.591 126.094C337.591 125.446 337.123 124.96 336.421 124.96ZM337.267 129.514H335.611V139H337.267V129.514ZM345.05 129.298C343.808 129.298 342.8 129.946 342.152 130.918L342.008 129.514H340.586V139H342.242V132.268C342.872 131.26 343.592 130.594 344.654 130.594C345.572 130.594 346.148 131.008 346.148 132.43V139H347.804V132.196C347.804 130.396 346.796 129.298 345.05 129.298ZM355.222 137.47C354.754 137.722 354.376 137.848 353.962 137.848C353.134 137.848 352.828 137.398 352.828 136.444V130.792H354.898L355.078 129.514H352.828V127.174L351.172 127.372V129.514H349.516V130.792H351.172V136.516C351.172 138.28 352.126 139.216 353.728 139.216C354.538 139.216 355.222 139 355.852 138.568L355.222 137.47ZM360.868 129.298C358.168 129.298 356.62 131.332 356.62 134.266C356.62 137.272 358.15 139.216 360.85 139.216C363.532 139.216 365.08 137.182 365.08 134.248C365.08 131.242 363.568 129.298 360.868 129.298ZM360.868 130.63C362.434 130.63 363.298 131.782 363.298 134.248C363.298 136.732 362.434 137.884 360.85 137.884C359.266 137.884 358.402 136.732 358.402 134.266C358.402 131.782 359.284 130.63 360.868 130.63ZM379.743 133.978C379.743 131.08 378.393 129.298 375.837 129.298C373.389 129.298 371.895 131.404 371.895 134.356C371.895 137.362 373.443 139.216 376.089 139.216C377.403 139.216 378.465 138.766 379.401 138.028L378.681 137.038C377.853 137.614 377.151 137.866 376.215 137.866C374.847 137.866 373.821 137.02 373.659 134.824H379.707C379.725 134.608 379.743 134.302 379.743 133.978ZM378.105 133.6H373.659C373.785 131.494 374.613 130.612 375.873 130.612C377.367 130.612 378.105 131.638 378.105 133.492V133.6ZM388.582 136.786V132.448C388.582 130.468 387.538 129.298 385.252 129.298C384.19 129.298 383.146 129.514 381.976 129.946L382.39 131.152C383.362 130.828 384.244 130.648 384.946 130.648C386.26 130.648 386.926 131.152 386.926 132.52V133.222H385.468C382.822 133.222 381.292 134.32 381.292 136.354C381.292 138.046 382.426 139.216 384.316 139.216C385.468 139.216 386.476 138.784 387.142 137.794C387.43 138.73 388.042 139.108 388.996 139.216L389.374 138.064C388.888 137.884 388.582 137.614 388.582 136.786ZM384.694 137.974C383.614 137.974 383.056 137.38 383.056 136.264C383.056 134.968 383.938 134.32 385.684 134.32H386.926V136.498C386.386 137.488 385.666 137.974 384.694 137.974ZM394.559 129.298C392.597 129.298 391.139 130.396 391.139 131.908C391.139 133.24 391.949 134.122 394.001 134.662C395.837 135.148 396.305 135.508 396.305 136.444C396.305 137.344 395.513 137.884 394.271 137.884C393.245 137.884 392.363 137.542 391.607 136.966L390.725 137.974C391.553 138.694 392.705 139.216 394.307 139.216C396.233 139.216 398.051 138.316 398.051 136.336C398.051 134.68 396.899 133.888 394.901 133.384C393.371 132.988 392.867 132.628 392.867 131.854C392.867 131.098 393.533 130.612 394.613 130.612C395.495 130.612 396.233 130.882 397.079 131.422L397.781 130.378C396.881 129.694 395.891 129.298 394.559 129.298ZM407.266 129.514H405.556L403.072 137.794L400.534 129.514H398.77L401.956 139H402.514C401.974 140.476 401.434 141.214 399.508 141.538L399.688 142.834C402.316 142.546 403.432 141.07 404.098 139.054L407.266 129.514ZM418.081 137.47C417.613 137.722 417.235 137.848 416.821 137.848C415.993 137.848 415.687 137.398 415.687 136.444V130.792H417.757L417.937 129.514H415.687V127.174L414.031 127.372V129.514H412.375V130.792H414.031V136.516C414.031 138.28 414.985 139.216 416.587 139.216C417.397 139.216 418.081 139 418.711 138.568L418.081 137.47ZM423.727 129.298C421.027 129.298 419.479 131.332 419.479 134.266C419.479 137.272 421.009 139.216 423.709 139.216C426.391 139.216 427.939 137.182 427.939 134.248C427.939 131.242 426.427 129.298 423.727 129.298ZM423.727 130.63C425.293 130.63 426.157 131.782 426.157 134.248C426.157 136.732 425.293 137.884 423.709 137.884C422.125 137.884 421.261 136.732 421.261 134.266C421.261 131.782 422.143 130.63 423.727 130.63ZM160.304 158.786V154.448C160.304 152.468 159.26 151.298 156.974 151.298C155.912 151.298 154.868 151.514 153.698 151.946L154.112 153.152C155.084 152.828 155.966 152.648 156.668 152.648C157.982 152.648 158.648 153.152 158.648 154.52V155.222H157.19C154.544 155.222 153.014 156.32 153.014 158.354C153.014 160.046 154.148 161.216 156.038 161.216C157.19 161.216 158.198 160.784 158.864 159.794C159.152 160.73 159.764 161.108 160.718 161.216L161.096 160.064C160.61 159.884 160.304 159.614 160.304 158.786ZM156.416 159.974C155.336 159.974 154.778 159.38 154.778 158.264C154.778 156.968 155.66 156.32 157.406 156.32H158.648V158.498C158.108 159.488 157.388 159.974 156.416 159.974ZM167.163 151.298C164.589 151.298 163.023 153.314 163.023 156.338C163.023 159.398 164.607 161.216 167.163 161.216C168.261 161.216 169.215 160.856 170.061 160.172L169.305 159.092C168.585 159.56 168.027 159.812 167.235 159.812C165.741 159.812 164.805 158.786 164.805 156.302C164.805 153.836 165.741 152.666 167.235 152.666C168.027 152.666 168.621 152.9 169.269 153.368L170.061 152.324C169.179 151.586 168.279 151.298 167.163 151.298ZM175.495 151.298C172.921 151.298 171.355 153.314 171.355 156.338C171.355 159.398 172.939 161.216 175.495 161.216C176.593 161.216 177.547 160.856 178.393 160.172L177.637 159.092C176.917 159.56 176.359 159.812 175.567 159.812C174.073 159.812 173.137 158.786 173.137 156.302C173.137 153.836 174.073 152.666 175.567 152.666C176.359 152.666 176.953 152.9 177.601 153.368L178.393 152.324C177.511 151.586 176.611 151.298 175.495 151.298ZM183.935 151.298C181.235 151.298 179.687 153.332 179.687 156.266C179.687 159.272 181.217 161.216 183.917 161.216C186.599 161.216 188.147 159.182 188.147 156.248C188.147 153.242 186.635 151.298 183.935 151.298ZM183.935 152.63C185.501 152.63 186.365 153.782 186.365 156.248C186.365 158.732 185.501 159.884 183.917 159.884C182.333 159.884 181.469 158.732 181.469 156.266C181.469 153.782 182.351 152.63 183.935 152.63ZM200.351 151.298C199.073 151.298 198.209 151.982 197.525 153.008C197.165 151.928 196.301 151.298 195.131 151.298C193.889 151.298 193.025 151.946 192.395 152.9L192.251 151.514H190.829V161H192.485V154.268C193.115 153.26 193.691 152.594 194.717 152.594C195.437 152.594 196.049 153.008 196.049 154.43V161H197.705V154.268C198.353 153.26 198.911 152.594 199.937 152.594C200.657 152.594 201.269 153.008 201.269 154.43V161H202.925V154.196C202.925 152.414 201.899 151.298 200.351 151.298ZM210.478 151.298C209.398 151.298 208.372 151.82 207.67 152.792L207.544 151.514H206.122V164.834L207.778 164.636V160.136C208.39 160.874 209.236 161.216 210.262 161.216C212.71 161.216 213.988 159.128 213.988 156.248C213.988 153.26 212.998 151.298 210.478 151.298ZM209.866 159.866C209.002 159.866 208.264 159.452 207.778 158.714V154.088C208.282 153.332 209.056 152.612 210.064 152.612C211.486 152.612 212.206 153.782 212.206 156.248C212.206 158.732 211.378 159.866 209.866 159.866ZM218.541 161.216C219.027 161.216 219.495 161.09 219.855 160.892L219.423 159.74C219.243 159.812 219.045 159.848 218.811 159.848C218.379 159.848 218.217 159.596 218.217 159.092V147.5L216.561 147.698V159.128C216.561 160.478 217.335 161.216 218.541 161.216ZM222.77 146.96C222.086 146.96 221.618 147.446 221.618 148.094C221.618 148.724 222.086 149.21 222.77 149.21C223.472 149.21 223.94 148.724 223.94 148.094C223.94 147.446 223.472 146.96 222.77 146.96ZM223.616 151.514H221.96V161H223.616V151.514ZM229.562 151.298C227.6 151.298 226.142 152.396 226.142 153.908C226.142 155.24 226.952 156.122 229.004 156.662C230.84 157.148 231.308 157.508 231.308 158.444C231.308 159.344 230.516 159.884 229.274 159.884C228.248 159.884 227.366 159.542 226.61 158.966L225.728 159.974C226.556 160.694 227.708 161.216 229.31 161.216C231.236 161.216 233.054 160.316 233.054 158.336C233.054 156.68 231.902 155.888 229.904 155.384C228.374 154.988 227.87 154.628 227.87 153.854C227.87 153.098 228.536 152.612 229.616 152.612C230.498 152.612 231.236 152.882 232.082 153.422L232.784 152.378C231.884 151.694 230.894 151.298 229.562 151.298ZM239.801 151.298C238.613 151.298 237.677 151.892 236.993 152.828V147.536L235.337 147.716V161H236.993V154.25C237.623 153.26 238.361 152.594 239.387 152.594C240.287 152.594 240.899 153.008 240.899 154.43V161H242.555V154.196C242.555 152.414 241.529 151.298 239.801 151.298ZM254.88 151.298C253.8 151.298 252.774 151.82 252.072 152.792L251.946 151.514H250.524V164.834L252.18 164.636V160.136C252.792 160.874 253.638 161.216 254.664 161.216C257.112 161.216 258.39 159.128 258.39 156.248C258.39 153.26 257.4 151.298 254.88 151.298ZM254.268 159.866C253.404 159.866 252.666 159.452 252.18 158.714V154.088C252.684 153.332 253.458 152.612 254.466 152.612C255.888 152.612 256.608 153.782 256.608 156.248C256.608 158.732 255.78 159.866 254.268 159.866ZM261.881 146.96C261.197 146.96 260.729 147.446 260.729 148.094C260.729 148.724 261.197 149.21 261.881 149.21C262.583 149.21 263.051 148.724 263.051 148.094C263.051 147.446 262.583 146.96 261.881 146.96ZM262.727 151.514H261.071V161H262.727V151.514ZM273.264 155.978C273.264 153.08 271.914 151.298 269.358 151.298C266.91 151.298 265.416 153.404 265.416 156.356C265.416 159.362 266.964 161.216 269.61 161.216C270.924 161.216 271.986 160.766 272.922 160.028L272.202 159.038C271.374 159.614 270.672 159.866 269.736 159.866C268.368 159.866 267.342 159.02 267.18 156.824H273.228C273.246 156.608 273.264 156.302 273.264 155.978ZM271.626 155.6H267.18C267.306 153.494 268.134 152.612 269.394 152.612C270.888 152.612 271.626 153.638 271.626 155.492V155.6ZM279.347 151.298C276.773 151.298 275.207 153.314 275.207 156.338C275.207 159.398 276.791 161.216 279.347 161.216C280.445 161.216 281.399 160.856 282.245 160.172L281.489 159.092C280.769 159.56 280.211 159.812 279.419 159.812C277.925 159.812 276.989 158.786 276.989 156.302C276.989 153.836 277.925 152.666 279.419 152.666C280.211 152.666 280.805 152.9 281.453 153.368L282.245 152.324C281.363 151.586 280.463 151.298 279.347 151.298ZM291.387 155.978C291.387 153.08 290.037 151.298 287.481 151.298C285.033 151.298 283.539 153.404 283.539 156.356C283.539 159.362 285.087 161.216 287.733 161.216C289.047 161.216 290.109 160.766 291.045 160.028L290.325 159.038C289.497 159.614 288.795 159.866 287.859 159.866C286.491 159.866 285.465 159.02 285.303 156.824H291.351C291.369 156.608 291.387 156.302 291.387 155.978ZM289.749 155.6H285.303C285.429 153.494 286.257 152.612 287.517 152.612C289.011 152.612 289.749 153.638 289.749 155.492V155.6ZM296.588 151.298C294.626 151.298 293.168 152.396 293.168 153.908C293.168 155.24 293.978 156.122 296.03 156.662C297.866 157.148 298.334 157.508 298.334 158.444C298.334 159.344 297.542 159.884 296.3 159.884C295.274 159.884 294.392 159.542 293.636 158.966L292.754 159.974C293.582 160.694 294.734 161.216 296.336 161.216C298.262 161.216 300.08 160.316 300.08 158.336C300.08 156.68 298.928 155.888 296.93 155.384C295.4 154.988 294.896 154.628 294.896 153.854C294.896 153.098 295.562 152.612 296.642 152.612C297.524 152.612 298.262 152.882 299.108 153.422L299.81 152.378C298.91 151.694 297.92 151.298 296.588 151.298Z" fill="black"/>
<path d="M96.2344 63.184H101.898V64.144H96.2344V83.536C96.2344 84.496 96.3944 85.184 96.7144 85.6C97.0664 85.984 97.6104 86.176 98.3464 86.176C99.7224 86.176 100.81 85.216 101.61 83.296L102.426 83.728C101.21 87.024 99.0184 88.672 95.8504 88.672C93.7384 88.672 92.1384 88.128 91.0504 87.04C90.3784 86.368 89.9144 85.536 89.6584 84.544C89.4344 83.52 89.3224 82.128 89.3224 80.368V64.144H85.2904V63.184H89.3224V56.848C91.9784 56.848 94.2824 56.336 96.2344 55.312V63.184ZM115.029 66.976C116.469 64 119.077 62.512 122.853 62.512C125.349 62.512 127.109 63.136 128.133 64.384C128.677 64.992 129.061 65.792 129.285 66.784C129.541 67.744 129.669 69.024 129.669 70.624V83.536C129.669 84.848 129.893 85.76 130.341 86.272C130.789 86.752 131.589 86.992 132.741 86.992V88C129.413 87.872 127.301 87.808 126.405 87.808C125.317 87.808 123.237 87.872 120.165 88V86.992C121.125 86.992 121.797 86.752 122.181 86.272C122.565 85.76 122.757 84.848 122.757 83.536V68.608C122.757 67.296 122.533 66.304 122.085 65.632C121.669 64.96 120.901 64.624 119.781 64.624C118.437 64.624 117.301 65.152 116.373 66.208C115.477 67.232 115.029 68.544 115.029 70.144V83.536C115.029 84.848 115.221 85.76 115.605 86.272C115.989 86.752 116.661 86.992 117.621 86.992V88C114.549 87.872 112.565 87.808 111.669 87.808C110.581 87.808 108.373 87.872 105.045 88V86.992C106.165 86.992 106.949 86.752 107.397 86.272C107.877 85.76 108.117 84.848 108.117 83.536V56.224C108.117 54.752 107.877 53.68 107.397 53.008C106.949 52.336 106.165 52 105.045 52V50.992C106.069 51.088 107.061 51.136 108.021 51.136C110.805 51.136 113.141 50.912 115.029 50.464V66.976ZM142.649 50.8C143.993 50.8 145.049 51.136 145.817 51.808C146.617 52.448 147.017 53.344 147.017 54.496C147.017 55.648 146.617 56.56 145.817 57.232C145.049 57.872 143.993 58.192 142.649 58.192C141.305 58.192 140.233 57.872 139.433 57.232C138.665 56.56 138.281 55.648 138.281 54.496C138.281 53.344 138.665 52.448 139.433 51.808C140.233 51.136 141.305 50.8 142.649 50.8ZM146.393 83.536C146.393 84.848 146.617 85.76 147.065 86.272C147.545 86.752 148.345 86.992 149.465 86.992V88C146.265 87.872 144.137 87.808 143.081 87.808C142.089 87.808 139.865 87.872 136.409 88V86.992C137.561 86.992 138.361 86.752 138.809 86.272C139.257 85.76 139.481 84.848 139.481 83.536V68.416C139.481 66.944 139.257 65.872 138.809 65.2C138.361 64.528 137.561 64.192 136.409 64.192V63.184C137.433 63.28 138.425 63.328 139.385 63.328C142.233 63.328 144.569 63.104 146.393 62.656V83.536ZM171.325 62.512C173.757 62.512 175.517 63.136 176.605 64.384C177.149 64.992 177.533 65.776 177.757 66.736C177.981 67.696 178.093 68.992 178.093 70.624V83.536C178.093 84.848 178.317 85.76 178.765 86.272C179.245 86.752 180.045 86.992 181.165 86.992V88C177.965 87.872 175.853 87.808 174.829 87.808C173.869 87.808 171.789 87.872 168.589 88V86.992C169.549 86.992 170.221 86.752 170.605 86.272C170.989 85.76 171.181 84.848 171.181 83.536V68.608C171.181 67.296 170.957 66.304 170.509 65.632C170.093 64.96 169.325 64.624 168.205 64.624C166.893 64.624 165.773 65.168 164.845 66.256C163.917 67.312 163.453 68.624 163.453 70.192V83.536C163.453 84.848 163.645 85.76 164.029 86.272C164.413 86.752 165.085 86.992 166.045 86.992V88C163.101 87.872 161.117 87.808 160.093 87.808C159.133 87.808 156.925 87.872 153.469 88V86.992C154.621 86.992 155.421 86.752 155.869 86.272C156.317 85.76 156.541 84.848 156.541 83.536V68.416C156.541 66.944 156.317 65.872 155.869 65.2C155.421 64.528 154.621 64.192 153.469 64.192V63.184C154.493 63.28 155.485 63.328 156.445 63.328C159.293 63.328 161.629 63.104 163.453 62.656V66.976C164.893 64 167.517 62.512 171.325 62.512ZM207.297 67.792C206.657 67.792 206.113 67.584 205.665 67.168C205.217 66.72 204.993 66.096 204.993 65.296C204.993 64.528 205.185 63.744 205.569 62.944C204.801 63.264 204.161 63.632 203.649 64.048C203.169 64.432 202.753 64.928 202.401 65.536C203.393 66.72 203.889 68.256 203.889 70.144C203.889 72.672 203.009 74.576 201.249 75.856C199.521 77.136 197.217 77.776 194.337 77.776H193.473C192.161 78.544 191.505 79.392 191.505 80.32C191.505 81.344 192.145 81.856 193.425 81.856H198.657C201.473 81.856 203.713 82.384 205.377 83.44C207.073 84.464 207.921 86.048 207.921 88.192C207.921 89.824 207.393 91.296 206.337 92.608C205.313 93.952 203.745 95.024 201.633 95.824C199.521 96.624 196.929 97.024 193.857 97.024C190.753 97.024 188.257 96.624 186.369 95.824C184.513 95.056 183.585 93.936 183.585 92.464C183.585 91.472 184.033 90.576 184.929 89.776C185.825 89.008 187.153 88.4 188.913 87.952L189.345 88.72C188.193 89.68 187.617 90.784 187.617 92.032C187.617 93.376 188.225 94.4 189.441 95.104C190.657 95.84 192.337 96.208 194.481 96.208C196.721 96.208 198.529 95.76 199.905 94.864C201.313 93.968 202.017 92.704 202.017 91.072C202.017 90.016 201.617 89.184 200.817 88.576C200.049 87.968 198.689 87.664 196.737 87.664H193.761C191.713 87.664 190.113 87.328 188.961 86.656C187.809 85.952 187.233 84.896 187.233 83.488C187.233 82.304 187.649 81.248 188.481 80.32C189.313 79.392 190.577 78.496 192.273 77.632C189.969 77.344 188.145 76.576 186.801 75.328C185.457 74.08 184.785 72.352 184.785 70.144C184.785 67.616 185.649 65.712 187.377 64.432C189.137 63.152 191.457 62.512 194.337 62.512C197.537 62.512 199.985 63.264 201.681 64.768C202.289 63.904 203.041 63.216 203.937 62.704C204.833 62.192 205.745 61.936 206.673 61.936C207.633 61.936 208.385 62.224 208.929 62.8C209.505 63.344 209.793 64.064 209.793 64.96C209.793 65.856 209.537 66.56 209.025 67.072C208.545 67.552 207.969 67.792 207.297 67.792ZM194.337 76.912C195.233 76.912 195.905 76.4 196.353 75.376C196.833 74.352 197.073 72.608 197.073 70.144C197.073 67.68 196.833 65.936 196.353 64.912C195.905 63.888 195.233 63.376 194.337 63.376C193.441 63.376 192.753 63.888 192.273 64.912C191.825 65.936 191.601 67.68 191.601 70.144C191.601 72.608 191.825 74.352 192.273 75.376C192.753 76.4 193.441 76.912 194.337 76.912ZM222.126 62.512C223.342 62.512 224.462 62.672 225.486 62.992C226.51 63.28 227.294 63.616 227.838 64C228.158 64.224 228.446 64.336 228.702 64.336C228.99 64.336 229.23 64.192 229.422 63.904C229.646 63.584 229.79 63.136 229.854 62.56H230.862C230.734 64.192 230.67 67.008 230.67 71.008H229.662C229.374 68.896 228.734 67.136 227.742 65.728C226.782 64.288 225.374 63.568 223.518 63.568C222.558 63.568 221.758 63.84 221.118 64.384C220.51 64.928 220.206 65.68 220.206 66.64C220.206 67.728 220.574 68.672 221.31 69.472C222.046 70.24 223.198 71.184 224.766 72.304L226.158 73.312C228.11 74.784 229.55 76.096 230.478 77.248C231.406 78.4 231.87 79.84 231.87 81.568C231.87 82.976 231.454 84.224 230.622 85.312C229.822 86.4 228.734 87.232 227.358 87.808C225.982 88.384 224.462 88.672 222.798 88.672C221.038 88.672 219.534 88.336 218.286 87.664C217.262 87.152 216.526 86.816 216.078 86.656C215.758 86.56 215.47 86.672 215.214 86.992C214.99 87.28 214.814 87.728 214.686 88.336H213.678C213.806 86.512 213.87 83.312 213.87 78.736H214.878C215.518 84.624 217.678 87.568 221.358 87.568C222.286 87.568 223.07 87.296 223.71 86.752C224.382 86.176 224.718 85.312 224.718 84.16C224.718 83.264 224.51 82.464 224.094 81.76C223.71 81.056 223.214 80.432 222.606 79.888C221.998 79.344 221.086 78.592 219.87 77.632C218.43 76.48 217.326 75.552 216.558 74.848C215.822 74.144 215.182 73.312 214.638 72.352C214.126 71.392 213.87 70.32 213.87 69.136C213.87 67.088 214.67 65.472 216.27 64.288C217.87 63.104 219.822 62.512 222.126 62.512ZM259.018 63.184H264.682V64.144H259.018V83.536C259.018 84.496 259.178 85.184 259.498 85.6C259.85 85.984 260.394 86.176 261.13 86.176C262.506 86.176 263.594 85.216 264.394 83.296L265.21 83.728C263.994 87.024 261.802 88.672 258.634 88.672C256.522 88.672 254.922 88.128 253.834 87.04C253.162 86.368 252.698 85.536 252.442 84.544C252.218 83.52 252.106 82.128 252.106 80.368V64.144H248.074V63.184H252.106V56.848C254.762 56.848 257.066 56.336 259.018 55.312V63.184ZM280.266 62.512C283.946 62.512 286.826 63.568 288.906 65.68C290.986 67.76 292.026 71.072 292.026 75.616C292.026 80.16 290.986 83.472 288.906 85.552C286.826 87.632 283.946 88.672 280.266 88.672C276.618 88.672 273.738 87.632 271.626 85.552C269.546 83.472 268.506 80.16 268.506 75.616C268.506 71.072 269.546 67.76 271.626 65.68C273.738 63.568 276.618 62.512 280.266 62.512ZM280.266 63.472C278.89 63.472 277.786 64.48 276.954 66.496C276.154 68.48 275.754 71.52 275.754 75.616C275.754 79.712 276.154 82.752 276.954 84.736C277.786 86.72 278.89 87.712 280.266 87.712C281.674 87.712 282.778 86.736 283.578 84.784C284.378 82.8 284.778 79.744 284.778 75.616C284.778 71.488 284.362 68.432 283.53 66.448C282.73 64.464 281.642 63.472 280.266 63.472ZM333.681 82.72C333.681 84.192 333.905 85.264 334.353 85.936C334.801 86.608 335.601 86.944 336.753 86.944V87.952C335.761 87.856 334.769 87.808 333.777 87.808C330.929 87.808 328.593 88.032 326.769 88.48V84.352C325.681 87.232 323.601 88.672 320.529 88.672C317.521 88.672 315.121 87.584 313.329 85.408C311.569 83.2 310.705 79.888 310.737 75.472C310.737 72.656 311.185 70.288 312.081 68.368C313.009 66.416 314.273 64.96 315.873 64C317.505 63.008 319.361 62.512 321.441 62.512C323.777 62.512 325.553 63.12 326.769 64.336V56.176C326.769 54.704 326.529 53.632 326.049 52.96C325.601 52.288 324.817 51.952 323.697 51.952V50.944C324.721 51.04 325.713 51.088 326.673 51.088C329.457 51.088 331.793 50.864 333.681 50.416V82.72ZM322.497 86.608C323.553 86.608 324.481 86.224 325.281 85.456C326.113 84.688 326.609 83.648 326.769 82.336V65.536C325.969 64.448 324.801 63.904 323.265 63.904C321.569 63.904 320.257 64.88 319.329 66.832C318.401 68.784 317.953 71.696 317.985 75.568C317.953 79.472 318.321 82.288 319.089 84.016C319.889 85.744 321.025 86.608 322.497 86.608ZM353.057 62.512C356.737 62.512 359.617 63.568 361.697 65.68C363.777 67.76 364.817 71.072 364.817 75.616C364.817 80.16 363.777 83.472 361.697 85.552C359.617 87.632 356.737 88.672 353.057 88.672C349.409 88.672 346.529 87.632 344.417 85.552C342.337 83.472 341.297 80.16 341.297 75.616C341.297 71.072 342.337 67.76 344.417 65.68C346.529 63.568 349.409 62.512 353.057 62.512ZM353.057 63.472C351.681 63.472 350.577 64.48 349.745 66.496C348.945 68.48 348.545 71.52 348.545 75.616C348.545 79.712 348.945 82.752 349.745 84.736C350.577 86.72 351.681 87.712 353.057 87.712C354.465 87.712 355.569 86.736 356.369 84.784C357.169 82.8 357.569 79.744 357.569 75.616C357.569 71.488 357.153 68.432 356.321 66.448C355.521 64.464 354.433 63.472 353.057 63.472Z" fill="black"/>
</svg>
