<svg width="454" height="189" viewBox="0 0 454 189" fill="none" xmlns="http://www.w3.org/2000/svg">
<path d="M79.2811 129.47C78.8131 129.722 78.4351 129.848 78.0211 129.848C77.1931 129.848 76.8871 129.398 76.8871 128.444V122.792H78.9571L79.1371 121.514H76.8871V119.174L75.2311 119.372V121.514H73.5751V122.792H75.2311V128.516C75.2311 130.28 76.1851 131.216 77.7871 131.216C78.5971 131.216 79.2811 131 79.9111 130.568L79.2811 129.47ZM87.927 128.786V124.448C87.927 122.468 86.883 121.298 84.597 121.298C83.535 121.298 82.491 121.514 81.321 121.946L81.735 123.152C82.707 122.828 83.589 122.648 84.291 122.648C85.605 122.648 86.271 123.152 86.271 124.52V125.222H84.813C82.167 125.222 80.637 126.32 80.637 128.354C80.637 130.046 81.771 131.216 83.661 131.216C84.813 131.216 85.821 130.784 86.487 129.794C86.775 130.73 87.387 131.108 88.341 131.216L88.719 130.064C88.233 129.884 87.927 129.614 87.927 128.786ZM84.039 129.974C82.959 129.974 82.401 129.38 82.401 128.264C82.401 126.968 83.283 126.32 85.029 126.32H86.271V128.498C85.731 129.488 85.011 129.974 84.039 129.974ZM92.9321 117.5L91.2761 117.698V131H92.9321V117.5ZM98.3861 121.514H96.5321L93.0401 125.816L96.8021 131H98.7821L94.8941 125.708L98.3861 121.514ZM107.564 125.978C107.564 123.08 106.214 121.298 103.658 121.298C101.21 121.298 99.7164 123.404 99.7164 126.356C99.7164 129.362 101.264 131.216 103.91 131.216C105.224 131.216 106.286 130.766 107.222 130.028L106.502 129.038C105.674 129.614 104.972 129.866 104.036 129.866C102.668 129.866 101.642 129.02 101.48 126.824H107.528C107.546 126.608 107.564 126.302 107.564 125.978ZM105.926 125.6H101.48C101.606 123.494 102.434 122.612 103.694 122.612C105.188 122.612 105.926 123.638 105.926 125.492V125.6ZM121.255 128.786V124.448C121.255 122.468 120.211 121.298 117.925 121.298C116.863 121.298 115.819 121.514 114.649 121.946L115.063 123.152C116.035 122.828 116.917 122.648 117.619 122.648C118.933 122.648 119.599 123.152 119.599 124.52V125.222H118.141C115.495 125.222 113.965 126.32 113.965 128.354C113.965 130.046 115.099 131.216 116.989 131.216C118.141 131.216 119.149 130.784 119.815 129.794C120.103 130.73 120.715 131.108 121.669 131.216L122.047 130.064C121.561 129.884 121.255 129.614 121.255 128.786ZM117.367 129.974C116.287 129.974 115.729 129.38 115.729 128.264C115.729 126.968 116.611 126.32 118.357 126.32H119.599V128.498C119.059 129.488 118.339 129.974 117.367 129.974ZM133.706 121.298C132.554 121.298 131.672 121.82 131.024 122.702V117.5L129.368 117.698V131H130.826L130.988 129.956C131.636 130.748 132.464 131.216 133.508 131.216C135.812 131.216 137.234 129.218 137.234 126.248C137.234 123.08 135.848 121.298 133.706 121.298ZM133.112 129.902C132.266 129.902 131.51 129.38 131.024 128.624V124.088C131.51 123.332 132.194 122.612 133.238 122.612C134.57 122.612 135.452 123.548 135.452 126.248C135.452 128.84 134.498 129.902 133.112 129.902ZM144.037 121.298C142.885 121.298 142.003 122.018 141.499 123.44L141.337 121.514H139.915V131H141.571V125.582C141.967 123.764 142.651 122.918 143.839 122.918C144.181 122.918 144.379 122.954 144.667 123.026L144.973 121.406C144.685 121.334 144.343 121.298 144.037 121.298ZM153.672 125.978C153.672 123.08 152.322 121.298 149.766 121.298C147.318 121.298 145.824 123.404 145.824 126.356C145.824 129.362 147.372 131.216 150.018 131.216C151.332 131.216 152.394 130.766 153.33 130.028L152.61 129.038C151.782 129.614 151.08 129.866 150.144 129.866C148.776 129.866 147.75 129.02 147.588 126.824H153.636C153.654 126.608 153.672 126.302 153.672 125.978ZM152.034 125.6H147.588C147.714 123.494 148.542 122.612 149.802 122.612C151.296 122.612 152.034 123.638 152.034 125.492V125.6ZM162.511 128.786V124.448C162.511 122.468 161.467 121.298 159.181 121.298C158.119 121.298 157.075 121.514 155.905 121.946L156.319 123.152C157.291 122.828 158.173 122.648 158.875 122.648C160.189 122.648 160.855 123.152 160.855 124.52V125.222H159.397C156.751 125.222 155.221 126.32 155.221 128.354C155.221 130.046 156.355 131.216 158.245 131.216C159.397 131.216 160.405 130.784 161.071 129.794C161.359 130.73 161.971 131.108 162.925 131.216L163.303 130.064C162.817 129.884 162.511 129.614 162.511 128.786ZM158.623 129.974C157.543 129.974 156.985 129.38 156.985 128.264C156.985 126.968 157.867 126.32 159.613 126.32H160.855V128.498C160.315 129.488 159.595 129.974 158.623 129.974ZM167.516 117.5L165.86 117.698V131H167.516V117.5ZM172.97 121.514H171.116L167.624 125.816L171.386 131H173.366L169.478 125.708L172.97 121.514ZM183.058 118.832C183.544 118.832 184.102 118.922 184.714 119.192L185.236 117.986C184.48 117.662 183.868 117.5 182.968 117.5C181.042 117.5 179.998 118.634 179.998 120.218V121.514H178.306V122.792H179.998V131H181.654V122.792H183.778L183.958 121.514H181.654V120.2C181.654 119.282 182.014 118.832 183.058 118.832ZM189.933 121.298C188.781 121.298 187.899 122.018 187.395 123.44L187.233 121.514H185.811V131H187.467V125.582C187.863 123.764 188.547 122.918 189.735 122.918C190.077 122.918 190.275 122.954 190.563 123.026L190.869 121.406C190.581 121.334 190.239 121.298 189.933 121.298ZM195.968 121.298C193.268 121.298 191.72 123.332 191.72 126.266C191.72 129.272 193.25 131.216 195.95 131.216C198.632 131.216 200.18 129.182 200.18 126.248C200.18 123.242 198.668 121.298 195.968 121.298ZM195.968 122.63C197.534 122.63 198.398 123.782 198.398 126.248C198.398 128.732 197.534 129.884 195.95 129.884C194.366 129.884 193.502 128.732 193.502 126.266C193.502 123.782 194.384 122.63 195.968 122.63ZM212.384 121.298C211.106 121.298 210.242 121.982 209.558 123.008C209.198 121.928 208.334 121.298 207.164 121.298C205.922 121.298 205.058 121.946 204.428 122.9L204.284 121.514H202.862V131H204.518V124.268C205.148 123.26 205.724 122.594 206.75 122.594C207.47 122.594 208.082 123.008 208.082 124.43V131H209.738V124.268C210.386 123.26 210.944 122.594 211.97 122.594C212.69 122.594 213.302 123.008 213.302 124.43V131H214.958V124.196C214.958 122.414 213.932 121.298 212.384 121.298ZM229.939 121.514H228.229L225.745 129.794L223.207 121.514H221.443L224.629 131H225.187C224.647 132.476 224.107 133.214 222.181 133.538L222.361 134.834C224.989 134.546 226.105 133.07 226.771 131.054L229.939 121.514ZM235.326 121.298C232.626 121.298 231.078 123.332 231.078 126.266C231.078 129.272 232.608 131.216 235.308 131.216C237.99 131.216 239.538 129.182 239.538 126.248C239.538 123.242 238.026 121.298 235.326 121.298ZM235.326 122.63C236.892 122.63 237.756 123.782 237.756 126.248C237.756 128.732 236.892 129.884 235.308 129.884C233.724 129.884 232.86 128.732 232.86 126.266C232.86 123.782 233.742 122.63 235.326 122.63ZM249.257 121.514H247.601V128.282C247.025 129.236 246.251 129.92 245.225 129.92C244.199 129.92 243.767 129.434 243.767 128.138V121.514H242.111V128.318C242.111 130.172 243.101 131.216 244.757 131.216C246.107 131.216 246.989 130.676 247.709 129.524L247.835 131H249.257V121.514ZM256.695 121.298C255.543 121.298 254.661 122.018 254.157 123.44L253.995 121.514H252.573V131H254.229V125.582C254.625 123.764 255.309 122.918 256.497 122.918C256.839 122.918 257.037 122.954 257.325 123.026L257.631 121.406C257.343 121.334 257.001 121.298 256.695 121.298ZM268.565 121.298C267.413 121.298 266.531 121.82 265.883 122.702V117.5L264.227 117.698V131H265.685L265.847 129.956C266.495 130.748 267.323 131.216 268.367 131.216C270.671 131.216 272.093 129.218 272.093 126.248C272.093 123.08 270.707 121.298 268.565 121.298ZM267.971 129.902C267.125 129.902 266.369 129.38 265.883 128.624V124.088C266.369 123.332 267.053 122.612 268.097 122.612C269.429 122.612 270.311 123.548 270.311 126.248C270.311 128.84 269.357 129.902 267.971 129.902ZM281.812 121.514H280.156V128.282C279.58 129.236 278.806 129.92 277.78 129.92C276.754 129.92 276.322 129.434 276.322 128.138V121.514H274.666V128.318C274.666 130.172 275.656 131.216 277.312 131.216C278.662 131.216 279.544 130.676 280.264 129.524L280.39 131H281.812V121.514ZM287.756 121.298C285.794 121.298 284.336 122.396 284.336 123.908C284.336 125.24 285.146 126.122 287.198 126.662C289.034 127.148 289.502 127.508 289.502 128.444C289.502 129.344 288.71 129.884 287.468 129.884C286.442 129.884 285.56 129.542 284.804 128.966L283.922 129.974C284.75 130.694 285.902 131.216 287.504 131.216C289.43 131.216 291.248 130.316 291.248 128.336C291.248 126.68 290.096 125.888 288.098 125.384C286.568 124.988 286.064 124.628 286.064 123.854C286.064 123.098 286.73 122.612 287.81 122.612C288.692 122.612 289.43 122.882 290.276 123.422L290.978 122.378C290.078 121.694 289.088 121.298 287.756 121.298ZM300.462 121.514H298.752L296.268 129.794L293.73 121.514H291.966L295.152 131H295.71C295.17 132.476 294.63 133.214 292.704 133.538L292.884 134.834C295.512 134.546 296.628 133.07 297.294 131.054L300.462 121.514ZM309.693 121.298C307.731 121.298 306.273 122.396 306.273 123.908C306.273 125.24 307.083 126.122 309.135 126.662C310.971 127.148 311.439 127.508 311.439 128.444C311.439 129.344 310.647 129.884 309.405 129.884C308.379 129.884 307.497 129.542 306.741 128.966L305.859 129.974C306.687 130.694 307.839 131.216 309.441 131.216C311.367 131.216 313.185 130.316 313.185 128.336C313.185 126.68 312.033 125.888 310.035 125.384C308.505 124.988 308.001 124.628 308.001 123.854C308.001 123.098 308.667 122.612 309.747 122.612C310.629 122.612 311.367 122.882 312.213 123.422L312.915 122.378C312.015 121.694 311.025 121.298 309.693 121.298ZM318.978 121.298C316.404 121.298 314.838 123.314 314.838 126.338C314.838 129.398 316.422 131.216 318.978 131.216C320.076 131.216 321.03 130.856 321.876 130.172L321.12 129.092C320.4 129.56 319.842 129.812 319.05 129.812C317.556 129.812 316.62 128.786 316.62 126.302C316.62 123.836 317.556 122.666 319.05 122.666C319.842 122.666 320.436 122.9 321.084 123.368L321.876 122.324C320.994 121.586 320.094 121.298 318.978 121.298ZM328.527 121.298C327.339 121.298 326.403 121.892 325.719 122.828V117.536L324.063 117.716V131H325.719V124.25C326.349 123.26 327.087 122.594 328.113 122.594C329.013 122.594 329.625 123.008 329.625 124.43V131H331.281V124.196C331.281 122.414 330.255 121.298 328.527 121.298ZM341.705 125.978C341.705 123.08 340.355 121.298 337.799 121.298C335.351 121.298 333.857 123.404 333.857 126.356C333.857 129.362 335.405 131.216 338.051 131.216C339.365 131.216 340.427 130.766 341.363 130.028L340.643 129.038C339.815 129.614 339.113 129.866 338.177 129.866C336.809 129.866 335.783 129.02 335.621 126.824H341.669C341.687 126.608 341.705 126.302 341.705 125.978ZM340.067 125.6H335.621C335.747 123.494 336.575 122.612 337.835 122.612C339.329 122.612 340.067 123.638 340.067 125.492V125.6ZM349.93 117.5V122.468C349.3 121.802 348.49 121.298 347.374 121.298C345.052 121.298 343.648 123.404 343.648 126.302C343.648 129.254 344.926 131.216 347.23 131.216C348.4 131.216 349.354 130.64 349.966 129.686L350.128 131H351.586V117.698L349.93 117.5ZM347.59 129.902C346.222 129.902 345.43 128.768 345.43 126.266C345.43 123.8 346.312 122.612 347.734 122.612C348.67 122.612 349.336 123.098 349.93 123.854V128.498C349.3 129.38 348.652 129.902 347.59 129.902ZM361.933 121.514H360.277V128.282C359.701 129.236 358.927 129.92 357.901 129.92C356.875 129.92 356.443 129.434 356.443 128.138V121.514H354.787V128.318C354.787 130.172 355.777 131.216 357.433 131.216C358.783 131.216 359.665 130.676 360.385 129.524L360.511 131H361.933V121.514ZM367.121 131.216C367.607 131.216 368.075 131.09 368.435 130.892L368.003 129.74C367.823 129.812 367.625 129.848 367.391 129.848C366.959 129.848 366.797 129.596 366.797 129.092V117.5L365.141 117.698V129.128C365.141 130.478 365.915 131.216 367.121 131.216ZM377.67 125.978C377.67 123.08 376.32 121.298 373.764 121.298C371.316 121.298 369.822 123.404 369.822 126.356C369.822 129.362 371.37 131.216 374.016 131.216C375.33 131.216 376.392 130.766 377.328 130.028L376.608 129.038C375.78 129.614 375.078 129.866 374.142 129.866C372.774 129.866 371.748 129.02 371.586 126.824H377.634C377.652 126.608 377.67 126.302 377.67 125.978ZM376.032 125.6H371.586C371.712 123.494 372.54 122.612 373.8 122.612C375.294 122.612 376.032 123.638 376.032 125.492V125.6ZM138.534 150.786V146.448C138.534 144.468 137.49 143.298 135.204 143.298C134.142 143.298 133.098 143.514 131.928 143.946L132.342 145.152C133.314 144.828 134.196 144.648 134.898 144.648C136.212 144.648 136.878 145.152 136.878 146.52V147.222H135.42C132.774 147.222 131.244 148.32 131.244 150.354C131.244 152.046 132.378 153.216 134.268 153.216C135.42 153.216 136.428 152.784 137.094 151.794C137.382 152.73 137.994 153.108 138.948 153.216L139.326 152.064C138.84 151.884 138.534 151.614 138.534 150.786ZM134.646 151.974C133.566 151.974 133.008 151.38 133.008 150.264C133.008 148.968 133.89 148.32 135.636 148.32H136.878V150.498C136.338 151.488 135.618 151.974 134.646 151.974ZM146.348 143.298C145.106 143.298 144.098 143.946 143.45 144.918L143.306 143.514H141.884V153H143.54V146.268C144.17 145.26 144.89 144.594 145.952 144.594C146.87 144.594 147.446 145.008 147.446 146.43V153H149.102V146.196C149.102 144.396 148.094 143.298 146.348 143.298ZM157.959 139.5V144.468C157.329 143.802 156.519 143.298 155.403 143.298C153.081 143.298 151.677 145.404 151.677 148.302C151.677 151.254 152.955 153.216 155.259 153.216C156.429 153.216 157.383 152.64 157.995 151.686L158.157 153H159.615V139.698L157.959 139.5ZM155.619 151.902C154.251 151.902 153.459 150.768 153.459 148.266C153.459 145.8 154.341 144.612 155.763 144.612C156.699 144.612 157.365 145.098 157.959 145.854V150.498C157.329 151.38 156.681 151.902 155.619 151.902ZM169.56 153.216C170.046 153.216 170.514 153.09 170.874 152.892L170.442 151.74C170.262 151.812 170.064 151.848 169.83 151.848C169.398 151.848 169.236 151.596 169.236 151.092V139.5L167.58 139.698V151.128C167.58 152.478 168.354 153.216 169.56 153.216ZM180.109 147.978C180.109 145.08 178.759 143.298 176.203 143.298C173.755 143.298 172.261 145.404 172.261 148.356C172.261 151.362 173.809 153.216 176.455 153.216C177.769 153.216 178.831 152.766 179.767 152.028L179.047 151.038C178.219 151.614 177.517 151.866 176.581 151.866C175.213 151.866 174.187 151.02 174.025 148.824H180.073C180.091 148.608 180.109 148.302 180.109 147.978ZM178.471 147.6H174.025C174.151 145.494 174.979 144.612 176.239 144.612C177.733 144.612 178.471 145.638 178.471 147.492V147.6ZM186.894 151.47C186.426 151.722 186.048 151.848 185.634 151.848C184.806 151.848 184.5 151.398 184.5 150.444V144.792H186.57L186.75 143.514H184.5V141.174L182.844 141.372V143.514H181.188V144.792H182.844V150.516C182.844 152.28 183.798 153.216 185.4 153.216C186.21 153.216 186.894 153 187.524 152.568L186.894 151.47ZM189.409 139.446C188.779 139.446 188.239 139.95 188.239 140.58C188.239 140.94 188.401 141.246 188.707 141.48L187.987 144.18H189.067L190.273 141.624C190.507 141.12 190.579 140.868 190.579 140.58C190.579 139.95 190.057 139.446 189.409 139.446ZM195.471 143.298C193.509 143.298 192.051 144.396 192.051 145.908C192.051 147.24 192.861 148.122 194.913 148.662C196.749 149.148 197.217 149.508 197.217 150.444C197.217 151.344 196.425 151.884 195.183 151.884C194.157 151.884 193.275 151.542 192.519 150.966L191.637 151.974C192.465 152.694 193.617 153.216 195.219 153.216C197.145 153.216 198.963 152.316 198.963 150.336C198.963 148.68 197.811 147.888 195.813 147.384C194.283 146.988 193.779 146.628 193.779 145.854C193.779 145.098 194.445 144.612 195.525 144.612C196.407 144.612 197.145 144.882 197.991 145.422L198.693 144.378C197.793 143.694 196.803 143.298 195.471 143.298ZM209.519 143.298C206.945 143.298 205.379 145.314 205.379 148.338C205.379 151.398 206.963 153.216 209.519 153.216C210.617 153.216 211.571 152.856 212.417 152.172L211.661 151.092C210.941 151.56 210.383 151.812 209.591 151.812C208.097 151.812 207.161 150.786 207.161 148.302C207.161 145.836 208.097 144.666 209.591 144.666C210.383 144.666 210.977 144.9 211.625 145.368L212.417 144.324C211.535 143.586 210.635 143.298 209.519 143.298ZM217.959 143.298C215.259 143.298 213.711 145.332 213.711 148.266C213.711 151.272 215.241 153.216 217.941 153.216C220.623 153.216 222.171 151.182 222.171 148.248C222.171 145.242 220.659 143.298 217.959 143.298ZM217.959 144.63C219.525 144.63 220.389 145.782 220.389 148.248C220.389 150.732 219.525 151.884 217.941 151.884C216.357 151.884 215.493 150.732 215.493 148.266C215.493 145.782 216.375 144.63 217.959 144.63ZM228.47 143.298C225.77 143.298 224.222 145.332 224.222 148.266C224.222 151.272 225.752 153.216 228.452 153.216C231.134 153.216 232.682 151.182 232.682 148.248C232.682 145.242 231.17 143.298 228.47 143.298ZM228.47 144.63C230.036 144.63 230.9 145.782 230.9 148.248C230.9 150.732 230.036 151.884 228.452 151.884C226.868 151.884 226.004 150.732 226.004 148.266C226.004 145.782 226.886 144.63 228.47 144.63ZM237.02 139.5L235.364 139.698V153H237.02V139.5ZM242.474 143.514H240.62L237.128 147.816L240.89 153H242.87L238.982 147.708L242.474 143.514ZM253.498 151.47C253.03 151.722 252.652 151.848 252.238 151.848C251.41 151.848 251.104 151.398 251.104 150.444V144.792H253.174L253.354 143.514H251.104V141.174L249.448 141.372V143.514H247.792V144.792H249.448V150.516C249.448 152.28 250.402 153.216 252.004 153.216C252.814 153.216 253.498 153 254.128 152.568L253.498 151.47ZM259.144 143.298C256.444 143.298 254.896 145.332 254.896 148.266C254.896 151.272 256.426 153.216 259.126 153.216C261.808 153.216 263.356 151.182 263.356 148.248C263.356 145.242 261.844 143.298 259.144 143.298ZM259.144 144.63C260.71 144.63 261.574 145.782 261.574 148.248C261.574 150.732 260.71 151.884 259.126 151.884C257.542 151.884 256.678 150.732 256.678 148.266C256.678 145.782 257.56 144.63 259.144 144.63ZM273.256 142.452C272.14 142.956 271.276 143.352 268.918 143.298C266.83 143.298 265.264 144.666 265.264 146.61C265.264 147.834 265.768 148.662 266.866 149.238C266.182 149.688 265.822 150.3 265.822 150.912C265.822 151.866 266.578 152.712 268.27 152.712H269.764C270.952 152.712 271.672 153.162 271.672 154.062C271.672 155.016 270.952 155.538 268.9 155.538C266.812 155.538 266.326 155.034 266.326 153.954H264.832C264.832 155.88 265.804 156.834 268.9 156.834C271.834 156.834 273.346 155.79 273.346 153.954C273.346 152.442 272.05 151.326 270.106 151.326H268.594C267.622 151.326 267.352 150.984 267.352 150.552C267.352 150.21 267.55 149.868 267.82 149.67C268.216 149.796 268.594 149.85 269.026 149.85C271.294 149.85 272.644 148.5 272.644 146.628C272.644 145.53 272.086 144.738 270.97 144.234C272.05 144.234 272.95 144.198 273.742 143.946L273.256 142.452ZM268.918 144.486C270.268 144.486 270.952 145.206 270.952 146.592C270.952 147.96 270.25 148.752 268.954 148.752C267.658 148.752 266.956 147.87 266.956 146.61C266.956 145.368 267.64 144.486 268.918 144.486ZM282.607 147.978C282.607 145.08 281.257 143.298 278.701 143.298C276.253 143.298 274.759 145.404 274.759 148.356C274.759 151.362 276.307 153.216 278.953 153.216C280.267 153.216 281.329 152.766 282.265 152.028L281.545 151.038C280.717 151.614 280.015 151.866 279.079 151.866C277.711 151.866 276.685 151.02 276.523 148.824H282.571C282.589 148.608 282.607 148.302 282.607 147.978ZM280.969 147.6H276.523C276.649 145.494 277.477 144.612 278.737 144.612C280.231 144.612 280.969 145.638 280.969 147.492V147.6ZM289.392 151.47C288.924 151.722 288.546 151.848 288.132 151.848C287.304 151.848 286.998 151.398 286.998 150.444V144.792H289.068L289.248 143.514H286.998V141.174L285.342 141.372V143.514H283.686V144.792H285.342V150.516C285.342 152.28 286.296 153.216 287.898 153.216C288.708 153.216 289.392 153 290.022 152.568L289.392 151.47ZM296.148 143.298C294.96 143.298 294.024 143.892 293.34 144.828V139.536L291.684 139.716V153H293.34V146.25C293.97 145.26 294.708 144.594 295.734 144.594C296.634 144.594 297.246 145.008 297.246 146.43V153H298.902V146.196C298.902 144.414 297.876 143.298 296.148 143.298ZM309.326 147.978C309.326 145.08 307.976 143.298 305.42 143.298C302.972 143.298 301.478 145.404 301.478 148.356C301.478 151.362 303.026 153.216 305.672 153.216C306.986 153.216 308.048 152.766 308.984 152.028L308.264 151.038C307.436 151.614 306.734 151.866 305.798 151.866C304.43 151.866 303.404 151.02 303.242 148.824H309.29C309.308 148.608 309.326 148.302 309.326 147.978ZM307.688 147.6H303.242C303.368 145.494 304.196 144.612 305.456 144.612C306.95 144.612 307.688 145.638 307.688 147.492V147.6ZM316.021 143.298C314.869 143.298 313.987 144.018 313.483 145.44L313.321 143.514H311.899V153H313.555V147.582C313.951 145.764 314.635 144.918 315.823 144.918C316.165 144.918 316.363 144.954 316.651 145.026L316.957 143.406C316.669 143.334 316.327 143.298 316.021 143.298ZM320.194 140.598H318.358L318.556 148.86H320.014L320.194 140.598ZM319.294 150.714C318.592 150.714 318.052 151.272 318.052 151.956C318.052 152.658 318.592 153.216 319.294 153.216C320.014 153.216 320.554 152.658 320.554 151.956C320.554 151.272 320.014 150.714 319.294 150.714Z" fill="#3D455C"/>
<path d="M108.622 42.208V42.832C110.734 42.832 111.982 43.648 111.982 46.624V70.864C111.982 74.128 110.686 75.376 108.622 75.376V76H120.286V75.376C118.27 75.376 116.926 74.128 116.926 70.864V46.624C116.926 43.648 118.222 42.832 120.286 42.832V42.208H108.622ZM128.146 53.68C130.258 52.576 131.026 51.328 131.65 50.368C132.946 48.256 133.762 44.848 132.082 43.168C130.978 42.064 129.202 42.064 128.098 43.168C126.994 44.272 127.042 46.048 128.146 47.152C128.722 47.68 129.346 47.872 130.018 47.968C130.786 48.064 131.074 50.992 127.858 53.296L128.146 53.68ZM172.381 75.424C170.701 74.992 170.413 74.176 170.413 71.536V61.072C170.413 55.264 168.061 53.392 164.125 53.392C161.053 53.392 158.173 55.696 157.309 58.528C156.685 54.928 154.525 53.392 151.165 53.392C148.141 53.392 145.453 55.6 144.397 58.336V53.392L137.773 54.784V55.36C139.789 55.888 140.173 56.704 140.173 58.384V71.584C140.173 74.032 140.125 74.848 138.301 75.376V76H146.365V75.376C144.637 74.944 144.397 74.224 144.397 71.584V59.92C144.733 58.288 146.509 55.792 148.909 55.792C151.981 55.792 153.277 57.76 153.277 61.216V71.536C153.277 73.984 153.181 74.896 151.357 75.424V76H159.421V75.424C157.693 74.992 157.453 74.176 157.453 71.536V61.168C157.453 60.736 157.453 60.352 157.453 60.016C157.453 58.24 159.469 55.792 161.869 55.792C164.941 55.792 166.237 57.76 166.237 61.216V71.536C166.237 73.984 166.141 74.896 164.317 75.424V76H172.381V75.424ZM215.104 48.88C215.104 44.224 215.2 43.264 217.456 42.832V42.208H208.96V42.832C210.304 43.264 210.352 44.224 210.352 48.88V59.392H197.2V48.88C197.2 44.224 197.248 43.264 198.592 42.832V42.208H190.048V42.832C192.352 43.264 192.448 44.56 192.448 48.88V69.472C192.448 74.08 192.592 74.704 190.048 75.376V76H198.592V75.376C197.248 74.896 197.2 74.368 197.2 69.472V60.208H210.352V69.472C210.352 73.744 210.256 74.896 208.96 75.376V76H217.456V75.376C214.96 74.704 215.104 73.408 215.104 69.472V48.88ZM243.98 74.848C241.964 74.608 241.532 74.32 241.532 72.016V53.392L235.1 54.304V54.88C237.452 55.024 237.356 55.36 237.356 58.288V70.384C236.492 72.4 234.764 74.08 232.364 74.08C229.58 74.08 227.42 72.688 227.42 69.04V53.392L220.604 54.304V54.88C223.34 55.072 223.292 55.312 223.292 58.384V69.184C223.292 75.184 226.7 76.432 230.156 76.432C233.372 76.432 236.492 74.128 237.356 71.584V75.664C237.356 75.664 237.356 76.624 238.508 76.384L243.98 75.472V74.848ZM269.826 75.424C268.146 74.992 267.858 74.176 267.858 71.536V61.072C267.858 55.264 265.122 53.392 261.234 53.392C258.21 53.392 254.898 55.648 253.89 58.432V53.392L247.266 54.784V55.36C249.282 55.888 249.666 56.512 249.666 58.192V71.584C249.666 74.032 249.618 74.848 247.794 75.376V76H255.858V75.376C254.13 74.944 253.89 74.224 253.89 71.584V59.92C254.274 58.192 256.29 55.792 258.786 55.792C261.954 55.792 263.682 57.952 263.682 61.216V71.536C263.682 73.984 263.586 74.896 261.762 75.424V76H269.826V75.424ZM289.932 60.736C289.932 66.112 287.292 67.504 285.084 67.504C282.972 67.504 280.284 66.112 280.284 60.736C280.284 55.36 282.684 54.016 285.084 54.016C287.148 54.016 289.932 55.36 289.932 60.736ZM298.092 56.848C299.004 56.08 299.148 54.736 298.428 53.776C297.9 53.152 296.988 52.912 296.22 52.96C295.068 53.104 293.148 53.776 291.9 55.648C290.316 54.256 287.964 53.392 285.084 53.392C279.564 53.392 276.108 56.848 276.108 60.736C276.108 63.28 277.356 65.92 279.9 67.024C275.436 68.32 275.628 72.352 275.628 72.352C275.628 74.08 276.396 75.376 277.788 76.048C274.62 77.824 272.508 81.376 274.284 84.64C276.252 88.288 283.788 89.008 290.364 85.312C295.404 82.48 295.548 78.736 295.548 78.736C296.412 72.448 290.604 72.64 287.292 72.64H281.532C275.868 72.64 278.268 67.696 280.524 67.312C281.772 67.84 283.212 68.128 285.084 68.128C290.7 68.128 294.108 64.624 294.108 60.736C294.108 59.008 293.532 57.232 292.332 56.032C293.196 54.784 294.684 54.592 294.588 54.976C294.444 55.504 294.636 56.08 295.02 56.56C295.74 57.52 297.132 57.616 298.092 56.848ZM277.5 83.488C277.596 83.584 273.852 79.408 278.412 76.384C280.092 77.056 281.964 77.008 282.492 77.008H289.116C293.244 77.008 293.436 79.456 293.436 79.456C293.436 79.456 293.772 82.48 290.028 84.784C285.756 87.424 279.756 86.176 277.5 83.488ZM314.651 53.536C312.731 53.776 309.995 55.168 308.219 58.432V53.392L301.595 54.784V55.36C303.563 55.888 303.995 56.56 303.995 58.24V71.536C303.995 74.032 303.899 74.848 302.075 75.376V76H310.187V75.376C308.459 74.944 308.219 74.224 308.219 71.536V59.584C309.707 56.368 312.923 55.216 312.779 56.032C312.635 56.656 312.875 57.328 313.307 57.856C314.315 59.008 315.947 59.104 317.051 58.192C318.203 57.232 318.347 55.6 317.387 54.448C316.715 53.68 315.515 53.44 314.651 53.536ZM335.688 53.824V54.4C341.256 54.352 338.232 61.936 338.232 61.936L335.063 70.672L329.112 57.904C329.112 57.904 327.431 54.4 330.552 54.4V53.824H320.615V54.4C321.335 54.448 323.015 54.64 323.975 56.848C323.975 56.848 327.239 63.568 332.951 76.192L330.791 82.288C330.119 84.064 329.112 84.736 328.919 84.064C328.727 83.44 328.295 82.816 327.623 82.528C326.375 81.952 324.887 82.528 324.263 83.824C323.735 85.12 324.263 86.608 325.559 87.184C326.471 87.616 327.767 87.376 328.44 86.848C329.112 86.272 330.407 85.168 331.367 82.384L338.808 62.08C341.64 54.832 343.272 54.4 344.951 54.4V53.824H335.688Z" fill="#3D455C"/>
</svg>
