<svg width="336" height="160" viewBox="0 0 336 160" fill="none" xmlns="http://www.w3.org/2000/svg">
<rect x="1.29846" y="1.49072" width="334" height="158" rx="19.5" fill="#F3FBFF"/>
<path d="M247.283 32.7647C247.283 33.6661 247.049 34.5154 246.581 35.3127C246.13 36.0927 245.454 36.7427 244.553 37.2627C243.669 37.7654 242.62 38.0601 241.407 38.1467V40.2527H239.743V38.1207C238.009 37.9647 236.614 37.4447 235.557 36.5607C234.499 35.6594 233.953 34.4461 233.919 32.9207H237.819C237.923 34.1687 238.564 34.9227 239.743 35.1827V30.2167C238.495 29.9047 237.489 29.5927 236.727 29.2807C235.964 28.9687 235.305 28.4661 234.751 27.7727C234.196 27.0794 233.919 26.1347 233.919 24.9387C233.919 23.4307 234.456 22.2001 235.531 21.2467C236.623 20.2934 238.027 19.7474 239.743 19.6087V17.5027H241.407V19.6087C243.071 19.7474 244.397 20.2501 245.385 21.1167C246.39 21.9834 246.953 23.1794 247.075 24.7047H243.149C243.097 24.2021 242.915 23.7687 242.603 23.4047C242.308 23.0234 241.909 22.7547 241.407 22.5987V27.5127C242.707 27.8421 243.729 28.1627 244.475 28.4747C245.237 28.7694 245.896 29.2634 246.451 29.9567C247.005 30.6327 247.283 31.5687 247.283 32.7647ZM237.715 24.7567C237.715 25.3287 237.888 25.7967 238.235 26.1607C238.581 26.5074 239.084 26.7934 239.743 27.0187V22.5207C239.119 22.6074 238.625 22.8414 238.261 23.2227C237.897 23.6041 237.715 24.1154 237.715 24.7567ZM241.407 35.2347C242.065 35.1134 242.577 34.8447 242.941 34.4287C243.322 34.0127 243.513 33.5101 243.513 32.9207C243.513 32.3487 243.331 31.8894 242.967 31.5427C242.603 31.1961 242.083 30.9101 241.407 30.6847V35.2347ZM263.67 22.1827H255.246V26.6287C255.61 26.1781 256.13 25.8141 256.806 25.5367C257.482 25.2421 258.202 25.0947 258.964 25.0947C260.351 25.0947 261.486 25.3981 262.37 26.0047C263.254 26.6114 263.896 27.3914 264.294 28.3447C264.693 29.2807 264.892 30.2861 264.892 31.3607C264.892 33.3541 264.32 34.9574 263.176 36.1707C262.05 37.3841 260.438 37.9907 258.34 37.9907C256.364 37.9907 254.787 37.4967 253.608 36.5087C252.43 35.5207 251.762 34.2294 251.606 32.6347H255.142C255.298 33.3281 255.645 33.8827 256.182 34.2987C256.737 34.7147 257.439 34.9227 258.288 34.9227C259.311 34.9227 260.082 34.6021 260.602 33.9607C261.122 33.3194 261.382 32.4701 261.382 31.4127C261.382 30.3381 261.114 29.5234 260.576 28.9687C260.056 28.3967 259.285 28.1107 258.262 28.1107C257.534 28.1107 256.928 28.2927 256.442 28.6567C255.957 29.0207 255.61 29.5061 255.402 30.1127H251.918V18.9847H263.67V22.1827ZM272.057 34.1687L269.015 41.4747H266.675L268.365 34.1687H272.057ZM278.476 32.6607C278.615 33.4234 278.927 34.0127 279.412 34.4287C279.915 34.8274 280.582 35.0267 281.414 35.0267C282.489 35.0267 283.269 34.5847 283.754 33.7007C284.24 32.7994 284.482 31.2914 284.482 29.1767C284.084 29.7314 283.52 30.1647 282.792 30.4767C282.082 30.7887 281.31 30.9447 280.478 30.9447C279.369 30.9447 278.364 30.7194 277.462 30.2687C276.578 29.8007 275.876 29.1161 275.356 28.2147C274.836 27.2961 274.576 26.1867 274.576 24.8867C274.576 22.9627 275.148 21.4374 276.292 20.3107C277.436 19.1667 278.996 18.5947 280.972 18.5947C283.434 18.5947 285.167 19.3834 286.172 20.9607C287.195 22.5381 287.706 24.9127 287.706 28.0847C287.706 30.3381 287.507 32.1841 287.108 33.6227C286.727 35.0614 286.06 36.1534 285.106 36.8987C284.17 37.6441 282.888 38.0167 281.258 38.0167C279.976 38.0167 278.884 37.7741 277.982 37.2887C277.081 36.7861 276.388 36.1361 275.902 35.3387C275.434 34.5241 275.166 33.6314 275.096 32.6607H278.476ZM281.232 27.9807C282.134 27.9807 282.844 27.7034 283.364 27.1487C283.884 26.5941 284.144 25.8487 284.144 24.9127C284.144 23.8901 283.867 23.1014 283.312 22.5467C282.775 21.9747 282.038 21.6887 281.102 21.6887C280.166 21.6887 279.421 21.9834 278.866 22.5727C278.329 23.1447 278.06 23.9074 278.06 24.8607C278.06 25.7794 278.32 26.5334 278.84 27.1227C279.378 27.6947 280.175 27.9807 281.232 27.9807ZM291.684 33.8827C293.348 32.4961 294.674 31.3434 295.662 30.4247C296.65 29.4887 297.473 28.5181 298.132 27.5127C298.79 26.5074 299.12 25.5194 299.12 24.5487C299.12 23.6647 298.912 22.9714 298.496 22.4687C298.08 21.9661 297.438 21.7147 296.572 21.7147C295.705 21.7147 295.038 22.0094 294.57 22.5987C294.102 23.1707 293.859 23.9594 293.842 24.9647H290.306C290.375 22.8847 290.99 21.3074 292.152 20.2327C293.33 19.1581 294.821 18.6207 296.624 18.6207C298.6 18.6207 300.116 19.1494 301.174 20.2067C302.231 21.2467 302.76 22.6247 302.76 24.3407C302.76 25.6927 302.396 26.9841 301.668 28.2147C300.94 29.4454 300.108 30.5201 299.172 31.4387C298.236 32.3401 297.014 33.4321 295.506 34.7147H303.176V37.7307H290.332V35.0267L291.684 33.8827ZM308.641 27.9547C306.908 27.0534 306.041 25.6581 306.041 23.7687C306.041 22.8327 306.275 21.9834 306.743 21.2207C307.229 20.4407 307.948 19.8254 308.901 19.3747C309.872 18.9067 311.051 18.6727 312.437 18.6727C313.824 18.6727 314.994 18.9067 315.947 19.3747C316.918 19.8254 317.637 20.4407 318.105 21.2207C318.591 21.9834 318.833 22.8327 318.833 23.7687C318.833 24.7221 318.599 25.5627 318.131 26.2907C317.663 27.0014 317.039 27.5561 316.259 27.9547C317.213 28.3707 317.958 28.9774 318.495 29.7747C319.033 30.5721 319.301 31.5167 319.301 32.6087C319.301 33.7874 318.998 34.8187 318.391 35.7027C317.802 36.5694 316.987 37.2367 315.947 37.7047C314.907 38.1727 313.737 38.4067 312.437 38.4067C311.137 38.4067 309.967 38.1727 308.927 37.7047C307.905 37.2367 307.09 36.5694 306.483 35.7027C305.894 34.8187 305.599 33.7874 305.599 32.6087C305.599 31.5167 305.868 30.5721 306.405 29.7747C306.943 28.9601 307.688 28.3534 308.641 27.9547ZM315.297 24.2887C315.297 23.4394 315.037 22.7807 314.517 22.3127C314.015 21.8447 313.321 21.6107 312.437 21.6107C311.571 21.6107 310.877 21.8447 310.357 22.3127C309.855 22.7807 309.603 23.4481 309.603 24.3147C309.603 25.0947 309.863 25.7187 310.383 26.1867C310.921 26.6547 311.605 26.8887 312.437 26.8887C313.269 26.8887 313.954 26.6547 314.491 26.1867C315.029 25.7014 315.297 25.0687 315.297 24.2887ZM312.437 29.5407C311.449 29.5407 310.643 29.7921 310.019 30.2947C309.413 30.7974 309.109 31.5167 309.109 32.4527C309.109 33.3194 309.404 34.0301 309.993 34.5847C310.6 35.1221 311.415 35.3907 312.437 35.3907C313.46 35.3907 314.266 35.1134 314.855 34.5587C315.445 34.0041 315.739 33.3021 315.739 32.4527C315.739 31.5341 315.436 30.8234 314.829 30.3207C314.223 29.8007 313.425 29.5407 312.437 29.5407Z" fill="#154C6B"/>
<path d="M16.5685 31.2907C16.5685 29.7801 16.9058 28.4307 17.5805 27.2427C18.2698 26.0401 19.2011 25.1087 20.3745 24.4487C21.5625 23.7741 22.8898 23.4367 24.3565 23.4367C26.0725 23.4367 27.5758 23.8767 28.8665 24.7567C30.1571 25.6367 31.0591 26.8541 31.5725 28.4087H28.0305C27.6785 27.6754 27.1798 27.1254 26.5345 26.7587C25.9038 26.3921 25.1705 26.2087 24.3345 26.2087C23.4398 26.2087 22.6405 26.4214 21.9365 26.8467C21.2471 27.2574 20.7045 27.8441 20.3085 28.6067C19.9271 29.3694 19.7365 30.2641 19.7365 31.2907C19.7365 32.3027 19.9271 33.1974 20.3085 33.9747C20.7045 34.7374 21.2471 35.3314 21.9365 35.7567C22.6405 36.1674 23.4398 36.3727 24.3345 36.3727C25.1705 36.3727 25.9038 36.1894 26.5345 35.8227C27.1798 35.4414 27.6785 34.8841 28.0305 34.1507H31.5725C31.0591 35.7201 30.1571 36.9447 28.8665 37.8247C27.5905 38.6901 26.0871 39.1227 24.3565 39.1227C22.8898 39.1227 21.5625 38.7927 20.3745 38.1327C19.2011 37.4581 18.2698 36.5267 17.5805 35.3387C16.9058 34.1507 16.5685 32.8014 16.5685 31.2907ZM33.4112 32.8527C33.4112 31.6207 33.6532 30.5281 34.1372 29.5747C34.6358 28.6214 35.3032 27.8881 36.1392 27.3747C36.9898 26.8614 37.9358 26.6047 38.9772 26.6047C39.8865 26.6047 40.6785 26.7881 41.3532 27.1547C42.0425 27.5214 42.5925 27.9834 43.0032 28.5407V26.8027H46.1052V38.9907H43.0032V37.2087C42.6072 37.7807 42.0572 38.2574 41.3532 38.6387C40.6638 39.0054 39.8645 39.1887 38.9552 39.1887C37.9285 39.1887 36.9898 38.9247 36.1392 38.3967C35.3032 37.8687 34.6358 37.1281 34.1372 36.1747C33.6532 35.2067 33.4112 34.0994 33.4112 32.8527ZM43.0032 32.8967C43.0032 32.1487 42.8565 31.5107 42.5632 30.9827C42.2698 30.4401 41.8738 30.0294 41.3752 29.7507C40.8765 29.4574 40.3412 29.3107 39.7692 29.3107C39.1972 29.3107 38.6692 29.4501 38.1852 29.7287C37.7012 30.0074 37.3052 30.4181 36.9972 30.9607C36.7038 31.4887 36.5572 32.1194 36.5572 32.8527C36.5572 33.5861 36.7038 34.2314 36.9972 34.7887C37.3052 35.3314 37.7012 35.7494 38.1852 36.0427C38.6838 36.3361 39.2118 36.4827 39.7692 36.4827C40.3412 36.4827 40.8765 36.3434 41.3752 36.0647C41.8738 35.7714 42.2698 35.3607 42.5632 34.8327C42.8565 34.2901 43.0032 33.6447 43.0032 32.8967ZM52.1933 28.6947C52.5893 28.0494 53.1027 27.5434 53.7333 27.1767C54.3787 26.8101 55.112 26.6267 55.9333 26.6267V29.8607H55.1193C54.1513 29.8607 53.418 30.0881 52.9193 30.5427C52.4353 30.9974 52.1933 31.7894 52.1933 32.9187V38.9907H49.1133V26.8027H52.1933V28.6947ZM66.3301 22.7107V38.9907H63.2501V22.7107H66.3301ZM74.7851 39.1887C73.6118 39.1887 72.5558 38.9321 71.6171 38.4187C70.6784 37.8907 69.9378 37.1501 69.3951 36.1967C68.8671 35.2434 68.6031 34.1434 68.6031 32.8967C68.6031 31.6501 68.8744 30.5501 69.4171 29.5967C69.9744 28.6434 70.7298 27.9101 71.6831 27.3967C72.6364 26.8687 73.6998 26.6047 74.8731 26.6047C76.0464 26.6047 77.1098 26.8687 78.0631 27.3967C79.0164 27.9101 79.7644 28.6434 80.3071 29.5967C80.8644 30.5501 81.1431 31.6501 81.1431 32.8967C81.1431 34.1434 80.8571 35.2434 80.2851 36.1967C79.7278 37.1501 78.9651 37.8907 77.9971 38.4187C77.0438 38.9321 75.9731 39.1887 74.7851 39.1887ZM74.7851 36.5047C75.3424 36.5047 75.8631 36.3727 76.3471 36.1087C76.8458 35.8301 77.2418 35.4194 77.5351 34.8767C77.8284 34.3341 77.9751 33.6741 77.9751 32.8967C77.9751 31.7381 77.6671 30.8507 77.0511 30.2347C76.4498 29.6041 75.7091 29.2887 74.8291 29.2887C73.9491 29.2887 73.2084 29.6041 72.6071 30.2347C72.0204 30.8507 71.7271 31.7381 71.7271 32.8967C71.7271 34.0554 72.0131 34.9501 72.5851 35.5807C73.1718 36.1967 73.9051 36.5047 74.7851 36.5047ZM82.6104 32.8527C82.6104 31.6207 82.8524 30.5281 83.3364 29.5747C83.8351 28.6214 84.5024 27.8881 85.3384 27.3747C86.1891 26.8614 87.1351 26.6047 88.1764 26.6047C89.0857 26.6047 89.8777 26.7881 90.5524 27.1547C91.2417 27.5214 91.7917 27.9834 92.2024 28.5407V26.8027H95.3044V38.9907H92.2024V37.2087C91.8064 37.7807 91.2564 38.2574 90.5524 38.6387C89.8631 39.0054 89.0637 39.1887 88.1544 39.1887C87.1277 39.1887 86.1891 38.9247 85.3384 38.3967C84.5024 37.8687 83.8351 37.1281 83.3364 36.1747C82.8524 35.2067 82.6104 34.0994 82.6104 32.8527ZM92.2024 32.8967C92.2024 32.1487 92.0557 31.5107 91.7624 30.9827C91.4691 30.4401 91.0731 30.0294 90.5744 29.7507C90.0757 29.4574 89.5404 29.3107 88.9684 29.3107C88.3964 29.3107 87.8684 29.4501 87.3844 29.7287C86.9004 30.0074 86.5044 30.4181 86.1964 30.9607C85.9031 31.4887 85.7564 32.1194 85.7564 32.8527C85.7564 33.5861 85.9031 34.2314 86.1964 34.7887C86.5044 35.3314 86.9004 35.7494 87.3844 36.0427C87.8831 36.3361 88.4111 36.4827 88.9684 36.4827C89.5404 36.4827 90.0757 36.3434 90.5744 36.0647C91.0731 35.7714 91.4691 35.3607 91.7624 34.8327C92.0557 34.2901 92.2024 33.6447 92.2024 32.8967ZM105.067 26.6267C106.519 26.6267 107.692 27.0887 108.587 28.0127C109.481 28.9221 109.929 30.1981 109.929 31.8407V38.9907H106.849V32.2587C106.849 31.2907 106.607 30.5501 106.123 30.0367C105.639 29.5087 104.979 29.2447 104.143 29.2447C103.292 29.2447 102.617 29.5087 102.119 30.0367C101.635 30.5501 101.393 31.2907 101.393 32.2587V38.9907H98.3126V26.8027H101.393V28.3207C101.803 27.7927 102.324 27.3821 102.955 27.0887C103.6 26.7807 104.304 26.6267 105.067 26.6267Z" fill="#154C6B"/>
<rect x="1.29846" y="1.49072" width="334" height="158" rx="19.5" stroke="#DDECF5"/>
<path d="M66.2985 139.991C58.8294 139.991 51.5057 137.925 45.1373 134.023C38.7688 130.12 33.6036 124.532 30.2127 117.877C26.8218 111.222 25.3373 103.759 25.9233 96.3131C26.5093 88.867 29.143 81.7281 33.5333 75.6854C37.9235 69.6428 43.8992 64.9319 50.7998 62.0736C57.7003 59.2153 65.2569 58.3209 72.6341 59.4893C80.0112 60.6578 86.9216 63.8435 92.6011 68.6943C98.2807 73.5451 102.508 79.872 104.816 86.9755L66.2985 99.4907L66.2985 139.991Z" fill="#FFD260"/>
<path d="M143.502 75.0747C142.726 75.0747 142.01 74.8947 141.354 74.5347C140.706 74.1667 140.19 73.6587 139.806 73.0107C139.43 72.3547 139.242 71.6187 139.242 70.8027C139.242 69.9867 139.43 69.2547 139.806 68.6067C140.19 67.9587 140.706 67.4547 141.354 67.0947C142.01 66.7267 142.726 66.5427 143.502 66.5427C144.286 66.5427 145.002 66.7267 145.65 67.0947C146.306 67.4547 146.822 67.9587 147.198 68.6067C147.574 69.2547 147.762 69.9867 147.762 70.8027C147.762 71.6187 147.574 72.3547 147.198 73.0107C146.822 73.6587 146.306 74.1667 145.65 74.5347C145.002 74.8947 144.286 75.0747 143.502 75.0747ZM143.502 73.8867C144.054 73.8867 144.546 73.7627 144.978 73.5147C145.41 73.2587 145.746 72.8987 145.986 72.4347C146.234 71.9627 146.358 71.4187 146.358 70.8027C146.358 70.1867 146.234 69.6467 145.986 69.1827C145.746 68.7187 145.41 68.3627 144.978 68.1147C144.546 67.8667 144.054 67.7427 143.502 67.7427C142.95 67.7427 142.458 67.8667 142.026 68.1147C141.594 68.3627 141.254 68.7187 141.006 69.1827C140.766 69.6467 140.646 70.1867 140.646 70.8027C140.646 71.4187 140.766 71.9627 141.006 72.4347C141.254 72.8987 141.594 73.2587 142.026 73.5147C142.458 73.7627 142.95 73.8867 143.502 73.8867ZM153.441 74.9907L151.521 71.6547H150.477V74.9907H149.109V66.6507H151.989C152.629 66.6507 153.169 66.7627 153.609 66.9867C154.057 67.2107 154.389 67.5107 154.605 67.8867C154.829 68.2627 154.941 68.6827 154.941 69.1467C154.941 69.6907 154.781 70.1867 154.461 70.6347C154.149 71.0747 153.665 71.3747 153.009 71.5347L155.073 74.9907H153.441ZM150.477 70.5627H151.989C152.501 70.5627 152.885 70.4347 153.141 70.1787C153.405 69.9227 153.537 69.5787 153.537 69.1467C153.537 68.7147 153.409 68.3787 153.153 68.1387C152.897 67.8907 152.509 67.7667 151.989 67.7667H150.477V70.5627ZM158.059 66.6507V74.9907H156.691V66.6507H158.059ZM165.891 69.0507C165.675 68.6347 165.375 68.3227 164.991 68.1147C164.607 67.8987 164.163 67.7907 163.659 67.7907C163.107 67.7907 162.615 67.9147 162.183 68.1627C161.751 68.4107 161.411 68.7627 161.163 69.2187C160.923 69.6747 160.803 70.2027 160.803 70.8027C160.803 71.4027 160.923 71.9347 161.163 72.3987C161.411 72.8547 161.751 73.2067 162.183 73.4547C162.615 73.7027 163.107 73.8267 163.659 73.8267C164.403 73.8267 165.007 73.6187 165.471 73.2027C165.935 72.7867 166.219 72.2227 166.323 71.5107H163.191V70.4187H167.787V71.4867C167.699 72.1347 167.467 72.7307 167.091 73.2747C166.723 73.8187 166.239 74.2547 165.639 74.5827C165.047 74.9027 164.387 75.0627 163.659 75.0627C162.875 75.0627 162.159 74.8827 161.511 74.5227C160.863 74.1547 160.347 73.6467 159.963 72.9987C159.587 72.3507 159.399 71.6187 159.399 70.8027C159.399 69.9867 159.587 69.2547 159.963 68.6067C160.347 67.9587 160.863 67.4547 161.511 67.0947C162.167 66.7267 162.883 66.5427 163.659 66.5427C164.547 66.5427 165.335 66.7627 166.023 67.2027C166.719 67.6347 167.223 68.2507 167.535 69.0507H165.891ZM170.504 66.6507V74.9907H169.136V66.6507H170.504ZM179.152 74.9907H177.784L173.668 68.7627V74.9907H172.3V66.6387H173.668L177.784 72.8547V66.6387H179.152V74.9907ZM185.976 73.2867H182.484L181.884 74.9907H180.456L183.444 66.6387H185.028L188.016 74.9907H186.576L185.976 73.2867ZM185.592 72.1707L184.236 68.2947L182.868 72.1707H185.592ZM190.684 73.8867H193.504V74.9907H189.316V66.6507H190.684V73.8867Z" fill="#154C6B"/>
<path d="M148.777 92.7747C148.777 93.3294 148.633 93.8521 148.345 94.3427C148.067 94.8227 147.651 95.2227 147.097 95.5427C146.553 95.8521 145.907 96.0334 145.161 96.0867V97.3827H144.137V96.0707C143.07 95.9747 142.211 95.6547 141.561 95.1107C140.91 94.5561 140.574 93.8094 140.553 92.8707H142.953C143.017 93.6387 143.411 94.1027 144.137 94.2627V91.2067C143.369 91.0147 142.75 90.8227 142.281 90.6307C141.811 90.4387 141.406 90.1294 141.065 89.7027C140.723 89.2761 140.553 88.6947 140.553 87.9587C140.553 87.0307 140.883 86.2734 141.545 85.6867C142.217 85.1001 143.081 84.7641 144.137 84.6787V83.3827H145.161V84.6787C146.185 84.7641 147.001 85.0734 147.609 85.6067C148.227 86.1401 148.574 86.8761 148.649 87.8147H146.233C146.201 87.5054 146.089 87.2387 145.897 87.0147C145.715 86.7801 145.47 86.6147 145.161 86.5187V89.5427C145.961 89.7454 146.59 89.9427 147.049 90.1347C147.518 90.3161 147.923 90.6201 148.265 91.0467C148.606 91.4627 148.777 92.0387 148.777 92.7747ZM142.889 87.8467C142.889 88.1987 142.995 88.4867 143.209 88.7107C143.422 88.9241 143.731 89.1001 144.137 89.2387V86.4707C143.753 86.5241 143.449 86.6681 143.225 86.9027C143.001 87.1374 142.889 87.4521 142.889 87.8467ZM145.161 94.2947C145.566 94.2201 145.881 94.0547 146.105 93.7987C146.339 93.5427 146.457 93.2334 146.457 92.8707C146.457 92.5187 146.345 92.2361 146.121 92.0227C145.897 91.8094 145.577 91.6334 145.161 91.4947V94.2947ZM151.725 93.4627C152.749 92.6094 153.565 91.9001 154.173 91.3347C154.781 90.7587 155.288 90.1614 155.693 89.5427C156.099 88.9241 156.301 88.3161 156.301 87.7187C156.301 87.1747 156.173 86.7481 155.917 86.4387C155.661 86.1294 155.267 85.9747 154.733 85.9747C154.2 85.9747 153.789 86.1561 153.501 86.5187C153.213 86.8707 153.064 87.3561 153.053 87.9747H150.877C150.92 86.6947 151.299 85.7241 152.013 85.0627C152.739 84.4014 153.656 84.0707 154.765 84.0707C155.981 84.0707 156.915 84.3961 157.565 85.0467C158.216 85.6867 158.541 86.5347 158.541 87.5907C158.541 88.4227 158.317 89.2174 157.869 89.9747C157.421 90.7321 156.909 91.3934 156.333 91.9587C155.757 92.5134 155.005 93.1854 154.077 93.9747H158.797V95.8307H150.893V94.1667L151.725 93.4627ZM160.209 90.0067C160.209 88.1614 160.54 86.7161 161.201 85.6707C161.873 84.6254 162.982 84.1027 164.529 84.1027C166.076 84.1027 167.18 84.6254 167.841 85.6707C168.513 86.7161 168.849 88.1614 168.849 90.0067C168.849 91.8627 168.513 93.3187 167.841 94.3747C167.18 95.4307 166.076 95.9587 164.529 95.9587C162.982 95.9587 161.873 95.4307 161.201 94.3747C160.54 93.3187 160.209 91.8627 160.209 90.0067ZM166.641 90.0067C166.641 89.2174 166.588 88.5561 166.481 88.0227C166.385 87.4787 166.182 87.0361 165.873 86.6947C165.574 86.3534 165.126 86.1827 164.529 86.1827C163.932 86.1827 163.478 86.3534 163.169 86.6947C162.87 87.0361 162.668 87.4787 162.561 88.0227C162.465 88.5561 162.417 89.2174 162.417 90.0067C162.417 90.8174 162.465 91.5001 162.561 92.0547C162.657 92.5987 162.86 93.0414 163.169 93.3827C163.478 93.7134 163.932 93.8787 164.529 93.8787C165.126 93.8787 165.58 93.7134 165.889 93.3827C166.198 93.0414 166.401 92.5987 166.497 92.0547C166.593 91.5001 166.641 90.8174 166.641 90.0067ZM173.257 93.6387L171.385 98.1347H169.945L170.985 93.6387H173.257ZM174.615 90.0067C174.615 88.1614 174.946 86.7161 175.607 85.6707C176.279 84.6254 177.389 84.1027 178.935 84.1027C180.482 84.1027 181.586 84.6254 182.247 85.6707C182.919 86.7161 183.255 88.1614 183.255 90.0067C183.255 91.8627 182.919 93.3187 182.247 94.3747C181.586 95.4307 180.482 95.9587 178.935 95.9587C177.389 95.9587 176.279 95.4307 175.607 94.3747C174.946 93.3187 174.615 91.8627 174.615 90.0067ZM181.047 90.0067C181.047 89.2174 180.994 88.5561 180.887 88.0227C180.791 87.4787 180.589 87.0361 180.279 86.6947C179.981 86.3534 179.533 86.1827 178.935 86.1827C178.338 86.1827 177.885 86.3534 177.575 86.6947C177.277 87.0361 177.074 87.4787 176.967 88.0227C176.871 88.5561 176.823 89.2174 176.823 90.0067C176.823 90.8174 176.871 91.5001 176.967 92.0547C177.063 92.5987 177.266 93.0414 177.575 93.3827C177.885 93.7134 178.338 93.8787 178.935 93.8787C179.533 93.8787 179.986 93.7134 180.295 93.3827C180.605 93.0414 180.807 92.5987 180.903 92.0547C180.999 91.5001 181.047 90.8174 181.047 90.0067ZM184.959 90.0067C184.959 88.1614 185.29 86.7161 185.951 85.6707C186.623 84.6254 187.732 84.1027 189.279 84.1027C190.826 84.1027 191.93 84.6254 192.591 85.6707C193.263 86.7161 193.599 88.1614 193.599 90.0067C193.599 91.8627 193.263 93.3187 192.591 94.3747C191.93 95.4307 190.826 95.9587 189.279 95.9587C187.732 95.9587 186.623 95.4307 185.951 94.3747C185.29 93.3187 184.959 91.8627 184.959 90.0067ZM191.391 90.0067C191.391 89.2174 191.338 88.5561 191.231 88.0227C191.135 87.4787 190.932 87.0361 190.623 86.6947C190.324 86.3534 189.876 86.1827 189.279 86.1827C188.682 86.1827 188.228 86.3534 187.919 86.6947C187.62 87.0361 187.418 87.4787 187.311 88.0227C187.215 88.5561 187.167 89.2174 187.167 90.0067C187.167 90.8174 187.215 91.5001 187.311 92.0547C187.407 92.5987 187.61 93.0414 187.919 93.3827C188.228 93.7134 188.682 93.8787 189.279 93.8787C189.876 93.8787 190.33 93.7134 190.639 93.3827C190.948 93.0414 191.151 92.5987 191.247 92.0547C191.343 91.5001 191.391 90.8174 191.391 90.0067ZM195.303 90.0067C195.303 88.1614 195.633 86.7161 196.295 85.6707C196.967 84.6254 198.076 84.1027 199.623 84.1027C201.169 84.1027 202.273 84.6254 202.935 85.6707C203.607 86.7161 203.943 88.1614 203.943 90.0067C203.943 91.8627 203.607 93.3187 202.935 94.3747C202.273 95.4307 201.169 95.9587 199.623 95.9587C198.076 95.9587 196.967 95.4307 196.295 94.3747C195.633 93.3187 195.303 91.8627 195.303 90.0067ZM201.735 90.0067C201.735 89.2174 201.681 88.5561 201.575 88.0227C201.479 87.4787 201.276 87.0361 200.967 86.6947C200.668 86.3534 200.22 86.1827 199.623 86.1827C199.025 86.1827 198.572 86.3534 198.263 86.6947C197.964 87.0361 197.761 87.4787 197.655 88.0227C197.559 88.5561 197.511 89.2174 197.511 90.0067C197.511 90.8174 197.559 91.5001 197.655 92.0547C197.751 92.5987 197.953 93.0414 198.263 93.3827C198.572 93.7134 199.025 93.8787 199.623 93.8787C200.22 93.8787 200.673 93.7134 200.983 93.3827C201.292 93.0414 201.495 92.5987 201.591 92.0547C201.687 91.5001 201.735 90.8174 201.735 90.0067Z" fill="#154C6B"/>
<path d="M145.53 117.135C145.53 117.559 145.43 117.959 145.23 118.335C145.03 118.711 144.71 119.019 144.27 119.259C143.83 119.491 143.266 119.607 142.578 119.607H141.066V122.991H139.698V114.651H142.578C143.218 114.651 143.758 114.763 144.198 114.987C144.646 115.203 144.978 115.499 145.194 115.875C145.418 116.251 145.53 116.671 145.53 117.135ZM142.578 118.491C143.098 118.491 143.486 118.375 143.742 118.143C143.998 117.903 144.126 117.567 144.126 117.135C144.126 116.223 143.61 115.767 142.578 115.767H141.066V118.491H142.578ZM151.863 121.287H148.371L147.771 122.991H146.343L149.331 114.639H150.915L153.903 122.991H152.463L151.863 121.287ZM151.479 120.171L150.123 116.295L148.755 120.171H151.479ZM161.382 114.651L158.622 119.967V122.991H157.254V119.967L154.482 114.651H156.006L157.938 118.743L159.87 114.651H161.382ZM171.252 114.651V122.991H169.884V117.279L167.34 122.991H166.392L163.836 117.279V122.991H162.468V114.651H163.944L166.872 121.191L169.788 114.651H171.252ZM174.418 115.755V118.203H177.298V119.319H174.418V121.875H177.658V122.991H173.05V114.639H177.658V115.755H174.418ZM186.195 122.991H184.827L180.711 116.763V122.991H179.343V114.639H180.711L184.827 120.855V114.639H186.195V122.991ZM193.379 114.651V115.767H191.159V122.991H189.791V115.767H187.559V114.651H193.379Z" fill="#154C6B"/>
<path d="M242.53 117.135C242.53 117.559 242.43 117.959 242.23 118.335C242.03 118.711 241.71 119.019 241.27 119.259C240.83 119.491 240.266 119.607 239.578 119.607H238.066V122.991H236.698V114.651H239.578C240.218 114.651 240.758 114.763 241.198 114.987C241.646 115.203 241.978 115.499 242.194 115.875C242.418 116.251 242.53 116.671 242.53 117.135ZM239.578 118.491C240.098 118.491 240.486 118.375 240.742 118.143C240.998 117.903 241.126 117.567 241.126 117.135C241.126 116.223 240.61 115.767 239.578 115.767H238.066V118.491H239.578ZM248.863 121.287H245.371L244.771 122.991H243.343L246.331 114.639H247.915L250.903 122.991H249.463L248.863 121.287ZM248.479 120.171L247.123 116.295L245.755 120.171H248.479ZM258.382 114.651L255.622 119.967V122.991H254.254V119.967L251.482 114.651H253.006L254.938 118.743L256.87 114.651H258.382ZM263.272 123.075C262.496 123.075 261.78 122.895 261.124 122.535C260.476 122.167 259.96 121.659 259.576 121.011C259.2 120.355 259.012 119.619 259.012 118.803C259.012 117.987 259.2 117.255 259.576 116.607C259.96 115.959 260.476 115.455 261.124 115.095C261.78 114.727 262.496 114.543 263.272 114.543C264.056 114.543 264.772 114.727 265.42 115.095C266.076 115.455 266.592 115.959 266.968 116.607C267.344 117.255 267.532 117.987 267.532 118.803C267.532 119.619 267.344 120.355 266.968 121.011C266.592 121.659 266.076 122.167 265.42 122.535C264.772 122.895 264.056 123.075 263.272 123.075ZM263.272 121.887C263.824 121.887 264.316 121.763 264.748 121.515C265.18 121.259 265.516 120.899 265.756 120.435C266.004 119.963 266.128 119.419 266.128 118.803C266.128 118.187 266.004 117.647 265.756 117.183C265.516 116.719 265.18 116.363 264.748 116.115C264.316 115.867 263.824 115.743 263.272 115.743C262.72 115.743 262.228 115.867 261.796 116.115C261.364 116.363 261.024 116.719 260.776 117.183C260.536 117.647 260.416 118.187 260.416 118.803C260.416 119.419 260.536 119.963 260.776 120.435C261.024 120.899 261.364 121.259 261.796 121.515C262.228 121.763 262.72 121.887 263.272 121.887ZM273.786 114.651V115.767H270.246V118.227H273.006V119.343H270.246V122.991H268.878V114.651H273.786ZM279.962 114.651V115.767H276.422V118.227H279.182V119.343H276.422V122.991H275.054V114.651H279.962ZM288.811 118.707C289.259 118.787 289.639 119.023 289.951 119.415C290.263 119.807 290.419 120.251 290.419 120.747C290.419 121.171 290.307 121.555 290.083 121.899C289.867 122.235 289.551 122.503 289.135 122.703C288.719 122.895 288.235 122.991 287.683 122.991H284.347V114.651H287.527C288.095 114.651 288.583 114.747 288.991 114.939C289.399 115.131 289.707 115.391 289.915 115.719C290.123 116.039 290.227 116.399 290.227 116.799C290.227 117.279 290.099 117.679 289.843 117.999C289.587 118.319 289.243 118.555 288.811 118.707ZM285.715 118.155H287.407C287.855 118.155 288.203 118.055 288.451 117.855C288.707 117.647 288.835 117.351 288.835 116.967C288.835 116.591 288.707 116.299 288.451 116.091C288.203 115.875 287.855 115.767 287.407 115.767H285.715V118.155ZM287.563 121.875C288.027 121.875 288.391 121.763 288.655 121.539C288.919 121.315 289.051 121.003 289.051 120.603C289.051 120.195 288.911 119.871 288.631 119.631C288.351 119.391 287.979 119.271 287.515 119.271H285.715V121.875H287.563ZM298.085 114.651L295.325 119.967V122.991H293.957V119.967L291.185 114.651H292.709L294.641 118.743L296.573 114.651H298.085Z" fill="#154C6B"/>
<path d="M148.839 140.775C148.839 141.329 148.695 141.852 148.407 142.343C148.13 142.823 147.714 143.223 147.159 143.543C146.615 143.852 145.97 144.033 145.223 144.087V145.383H144.199V144.071C143.133 143.975 142.274 143.655 141.623 143.111C140.973 142.556 140.637 141.809 140.615 140.871H143.015C143.079 141.639 143.474 142.103 144.199 142.263V139.207C143.431 139.015 142.813 138.823 142.343 138.631C141.874 138.439 141.469 138.129 141.127 137.703C140.786 137.276 140.615 136.695 140.615 135.959C140.615 135.031 140.946 134.273 141.607 133.687C142.279 133.1 143.143 132.764 144.199 132.679V131.383H145.223V132.679C146.247 132.764 147.063 133.073 147.671 133.607C148.29 134.14 148.637 134.876 148.711 135.815H146.295C146.263 135.505 146.151 135.239 145.959 135.015C145.778 134.78 145.533 134.615 145.223 134.519V137.543C146.023 137.745 146.653 137.943 147.111 138.135C147.581 138.316 147.986 138.62 148.327 139.047C148.669 139.463 148.839 140.039 148.839 140.775ZM142.951 135.847C142.951 136.199 143.058 136.487 143.271 136.711C143.485 136.924 143.794 137.1 144.199 137.239V134.471C143.815 134.524 143.511 134.668 143.287 134.903C143.063 135.137 142.951 135.452 142.951 135.847ZM145.223 142.295C145.629 142.22 145.943 142.055 146.167 141.799C146.402 141.543 146.519 141.233 146.519 140.871C146.519 140.519 146.407 140.236 146.183 140.023C145.959 139.809 145.639 139.633 145.223 139.495V142.295ZM151.116 135.399C151.169 134.332 151.543 133.511 152.236 132.935C152.94 132.348 153.863 132.055 155.004 132.055C155.783 132.055 156.449 132.193 157.004 132.471C157.559 132.737 157.975 133.105 158.252 133.575C158.54 134.033 158.684 134.556 158.684 135.143C158.684 135.815 158.508 136.385 158.156 136.855C157.815 137.313 157.404 137.623 156.924 137.783V137.847C157.543 138.039 158.023 138.38 158.364 138.871C158.716 139.361 158.892 139.991 158.892 140.759C158.892 141.399 158.743 141.969 158.444 142.471C158.156 142.972 157.724 143.367 157.148 143.655C156.583 143.932 155.9 144.071 155.1 144.071C153.895 144.071 152.913 143.767 152.156 143.159C151.399 142.551 150.999 141.655 150.956 140.471H153.132C153.153 140.993 153.329 141.415 153.66 141.735C154.001 142.044 154.465 142.199 155.052 142.199C155.596 142.199 156.012 142.049 156.3 141.751C156.599 141.441 156.748 141.047 156.748 140.567C156.748 139.927 156.545 139.468 156.14 139.191C155.735 138.913 155.105 138.775 154.252 138.775H153.788V136.935H154.252C155.767 136.935 156.524 136.428 156.524 135.415C156.524 134.956 156.385 134.599 156.108 134.343C155.841 134.087 155.452 133.959 154.94 133.959C154.439 133.959 154.049 134.097 153.772 134.375C153.505 134.641 153.351 134.983 153.308 135.399H151.116ZM160.39 134.391V132.327H164.246V143.991H161.942V134.391H160.39ZM167.163 141.463C168.187 140.609 169.003 139.9 169.611 139.335C170.219 138.759 170.726 138.161 171.131 137.543C171.536 136.924 171.739 136.316 171.739 135.719C171.739 135.175 171.611 134.748 171.355 134.439C171.099 134.129 170.704 133.975 170.171 133.975C169.638 133.975 169.227 134.156 168.939 134.519C168.651 134.871 168.502 135.356 168.491 135.975H166.315C166.358 134.695 166.736 133.724 167.451 133.063C168.176 132.401 169.094 132.071 170.203 132.071C171.419 132.071 172.352 132.396 173.003 133.047C173.654 133.687 173.979 134.535 173.979 135.591C173.979 136.423 173.755 137.217 173.307 137.975C172.859 138.732 172.347 139.393 171.771 139.959C171.195 140.513 170.443 141.185 169.515 141.975H174.235V143.831H166.331V142.167L167.163 141.463Z" fill="#154C6B"/>
<path d="M249.266 132.823V143.991H247.026V136.727L244.034 143.991H242.338L239.33 136.727V143.991H237.09V132.823H239.634L243.186 141.127L246.738 132.823H249.266ZM250.905 139.527C250.905 138.631 251.081 137.836 251.433 137.143C251.795 136.449 252.281 135.916 252.889 135.543C253.507 135.169 254.195 134.983 254.953 134.983C255.614 134.983 256.19 135.116 256.681 135.383C257.182 135.649 257.582 135.985 257.881 136.391V135.127H260.137V143.991H257.881V142.695C257.593 143.111 257.193 143.457 256.681 143.735C256.179 144.001 255.598 144.135 254.937 144.135C254.19 144.135 253.507 143.943 252.889 143.559C252.281 143.175 251.795 142.636 251.433 141.943C251.081 141.239 250.905 140.433 250.905 139.527ZM257.881 139.559C257.881 139.015 257.774 138.551 257.561 138.167C257.347 137.772 257.059 137.473 256.697 137.271C256.334 137.057 255.945 136.951 255.529 136.951C255.113 136.951 254.729 137.052 254.377 137.255C254.025 137.457 253.737 137.756 253.513 138.151C253.299 138.535 253.193 138.993 253.193 139.527C253.193 140.06 253.299 140.529 253.513 140.935C253.737 141.329 254.025 141.633 254.377 141.847C254.739 142.06 255.123 142.167 255.529 142.167C255.945 142.167 256.334 142.065 256.697 141.863C257.059 141.649 257.347 141.351 257.561 140.967C257.774 140.572 257.881 140.103 257.881 139.559ZM264.564 136.503C264.852 136.033 265.226 135.665 265.684 135.399C266.154 135.132 266.687 134.999 267.284 134.999V137.351H266.692C265.988 137.351 265.455 137.516 265.092 137.847C264.74 138.177 264.564 138.753 264.564 139.575V143.991H262.324V135.127H264.564V136.503ZM273.054 141.463C274.078 140.609 274.894 139.9 275.502 139.335C276.11 138.759 276.616 138.161 277.022 137.543C277.427 136.924 277.63 136.316 277.63 135.719C277.63 135.175 277.502 134.748 277.246 134.439C276.99 134.129 276.595 133.975 276.062 133.975C275.528 133.975 275.118 134.156 274.83 134.519C274.542 134.871 274.392 135.356 274.382 135.975H272.206C272.248 134.695 272.627 133.724 273.342 133.063C274.067 132.401 274.984 132.071 276.094 132.071C277.31 132.071 278.243 132.396 278.894 133.047C279.544 133.687 279.87 134.535 279.87 135.591C279.87 136.423 279.646 137.217 279.198 137.975C278.75 138.732 278.238 139.393 277.662 139.959C277.086 140.513 276.334 141.185 275.406 141.975H280.126V143.831H272.222V142.167L273.054 141.463ZM281.537 138.007C281.537 136.161 281.868 134.716 282.529 133.671C283.201 132.625 284.31 132.103 285.857 132.103C287.404 132.103 288.508 132.625 289.169 133.671C289.841 134.716 290.177 136.161 290.177 138.007C290.177 139.863 289.841 141.319 289.169 142.375C288.508 143.431 287.404 143.959 285.857 143.959C284.31 143.959 283.201 143.431 282.529 142.375C281.868 141.319 281.537 139.863 281.537 138.007ZM287.969 138.007C287.969 137.217 287.916 136.556 287.809 136.023C287.713 135.479 287.51 135.036 287.201 134.695C286.902 134.353 286.454 134.183 285.857 134.183C285.26 134.183 284.806 134.353 284.497 134.695C284.198 135.036 283.996 135.479 283.889 136.023C283.793 136.556 283.745 137.217 283.745 138.007C283.745 138.817 283.793 139.5 283.889 140.055C283.985 140.599 284.188 141.041 284.497 141.383C284.806 141.713 285.26 141.879 285.857 141.879C286.454 141.879 286.908 141.713 287.217 141.383C287.526 141.041 287.729 140.599 287.825 140.055C287.921 139.5 287.969 138.817 287.969 138.007ZM292.585 141.463C293.609 140.609 294.425 139.9 295.033 139.335C295.641 138.759 296.148 138.161 296.553 137.543C296.958 136.924 297.161 136.316 297.161 135.719C297.161 135.175 297.033 134.748 296.777 134.439C296.521 134.129 296.126 133.975 295.593 133.975C295.06 133.975 294.649 134.156 294.361 134.519C294.073 134.871 293.924 135.356 293.913 135.975H291.737C291.78 134.695 292.158 133.724 292.873 133.063C293.598 132.401 294.516 132.071 295.625 132.071C296.841 132.071 297.774 132.396 298.425 133.047C299.076 133.687 299.401 134.535 299.401 135.591C299.401 136.423 299.177 137.217 298.729 137.975C298.281 138.732 297.769 139.393 297.193 139.959C296.617 140.513 295.865 141.185 294.937 141.975H299.657V143.831H291.753V142.167L292.585 141.463ZM301.1 135.399C301.154 134.332 301.527 133.511 302.22 132.935C302.924 132.348 303.847 132.055 304.988 132.055C305.767 132.055 306.434 132.193 306.988 132.471C307.543 132.737 307.959 133.105 308.236 133.575C308.524 134.033 308.668 134.556 308.668 135.143C308.668 135.815 308.492 136.385 308.14 136.855C307.799 137.313 307.388 137.623 306.908 137.783V137.847C307.527 138.039 308.007 138.38 308.348 138.871C308.7 139.361 308.876 139.991 308.876 140.759C308.876 141.399 308.727 141.969 308.428 142.471C308.14 142.972 307.708 143.367 307.132 143.655C306.567 143.932 305.884 144.071 305.084 144.071C303.879 144.071 302.898 143.767 302.14 143.159C301.383 142.551 300.983 141.655 300.94 140.471H303.116C303.138 140.993 303.314 141.415 303.644 141.735C303.986 142.044 304.45 142.199 305.036 142.199C305.58 142.199 305.996 142.049 306.284 141.751C306.583 141.441 306.732 141.047 306.732 140.567C306.732 139.927 306.53 139.468 306.124 139.191C305.719 138.913 305.09 138.775 304.236 138.775H303.772V136.935H304.236C305.751 136.935 306.508 136.428 306.508 135.415C306.508 134.956 306.37 134.599 306.092 134.343C305.826 134.087 305.436 133.959 304.924 133.959C304.423 133.959 304.034 134.097 303.756 134.375C303.49 134.641 303.335 134.983 303.292 135.399H301.1Z" fill="#154C6B"/>
<path d="M238.066 66.6507V74.9907H236.698V66.6507H238.066ZM246.715 74.9907H245.347L241.231 68.7627V74.9907H239.863V66.6387H241.231L245.347 72.8547V66.6387H246.715V74.9907ZM253.899 66.6507V67.7667H251.679V74.9907H250.311V67.7667H248.079V66.6507H253.899ZM256.652 67.7547V70.2027H259.532V71.3187H256.652V73.8747H259.892V74.9907H255.284V66.6387H259.892V67.7547H256.652ZM265.909 74.9907L263.989 71.6547H262.945V74.9907H261.577V66.6507H264.457C265.097 66.6507 265.637 66.7627 266.077 66.9867C266.525 67.2107 266.857 67.5107 267.073 67.8867C267.297 68.2627 267.409 68.6827 267.409 69.1467C267.409 69.6907 267.249 70.1867 266.929 70.6347C266.617 71.0747 266.133 71.3747 265.477 71.5347L267.541 74.9907H265.909ZM262.945 70.5627H264.457C264.969 70.5627 265.353 70.4347 265.609 70.1787C265.873 69.9227 266.005 69.5787 266.005 69.1467C266.005 68.7147 265.877 68.3787 265.621 68.1387C265.365 67.8907 264.977 67.7667 264.457 67.7667H262.945V70.5627ZM270.527 67.7547V70.2027H273.407V71.3187H270.527V73.8747H273.767V74.9907H269.159V66.6387H273.767V67.7547H270.527ZM278.2 75.0747C277.64 75.0747 277.136 74.9787 276.688 74.7867C276.24 74.5867 275.888 74.3067 275.632 73.9467C275.376 73.5867 275.248 73.1667 275.248 72.6867H276.712C276.744 73.0467 276.884 73.3427 277.132 73.5747C277.388 73.8067 277.744 73.9227 278.2 73.9227C278.672 73.9227 279.04 73.8107 279.304 73.5867C279.568 73.3547 279.7 73.0587 279.7 72.6987C279.7 72.4187 279.616 72.1907 279.448 72.0147C279.288 71.8387 279.084 71.7027 278.836 71.6067C278.596 71.5107 278.26 71.4067 277.828 71.2947C277.284 71.1507 276.84 71.0067 276.496 70.8627C276.16 70.7107 275.872 70.4787 275.632 70.1667C275.392 69.8547 275.272 69.4387 275.272 68.9187C275.272 68.4387 275.392 68.0187 275.632 67.6587C275.872 67.2987 276.208 67.0227 276.64 66.8307C277.072 66.6387 277.572 66.5427 278.14 66.5427C278.948 66.5427 279.608 66.7467 280.12 67.1547C280.64 67.5547 280.928 68.1067 280.984 68.8107H279.472C279.448 68.5067 279.304 68.2467 279.04 68.0307C278.776 67.8147 278.428 67.7067 277.996 67.7067C277.604 67.7067 277.284 67.8067 277.036 68.0067C276.788 68.2067 276.664 68.4947 276.664 68.8707C276.664 69.1267 276.74 69.3387 276.892 69.5067C277.052 69.6667 277.252 69.7947 277.492 69.8907C277.732 69.9867 278.06 70.0907 278.476 70.2027C279.028 70.3547 279.476 70.5067 279.82 70.6587C280.172 70.8107 280.468 71.0467 280.708 71.3667C280.956 71.6787 281.08 72.0987 281.08 72.6267C281.08 73.0507 280.964 73.4507 280.732 73.8267C280.508 74.2027 280.176 74.5067 279.736 74.7387C279.304 74.9627 278.792 75.0747 278.2 75.0747ZM288.083 66.6507V67.7667H285.863V74.9907H284.495V67.7667H282.263V66.6507H288.083ZM296.917 74.9907L294.997 71.6547H293.953V74.9907H292.585V66.6507H295.465C296.105 66.6507 296.645 66.7627 297.085 66.9867C297.533 67.2107 297.865 67.5107 298.081 67.8867C298.305 68.2627 298.417 68.6827 298.417 69.1467C298.417 69.6907 298.257 70.1867 297.937 70.6347C297.625 71.0747 297.141 71.3747 296.485 71.5347L298.549 74.9907H296.917ZM293.953 70.5627H295.465C295.977 70.5627 296.361 70.4347 296.617 70.1787C296.881 69.9227 297.013 69.5787 297.013 69.1467C297.013 68.7147 296.885 68.3787 296.629 68.1387C296.373 67.8907 295.985 67.7667 295.465 67.7667H293.953V70.5627ZM305.195 73.2867H301.703L301.103 74.9907H299.675L302.663 66.6387H304.247L307.235 74.9907H305.795L305.195 73.2867ZM304.811 72.1707L303.455 68.2947L302.087 72.1707H304.811ZM313.922 66.6507V67.7667H311.702V74.9907H310.334V67.7667H308.102V66.6507H313.922ZM316.676 67.7547V70.2027H319.556V71.3187H316.676V73.8747H319.916V74.9907H315.308V66.6387H319.916V67.7547H316.676Z" fill="#154C6B"/>
<path d="M236.91 93.7187V91.9587L242.142 84.4707H244.75V91.7667H246.158V93.7187H244.75V95.9907H242.51V93.7187H236.91ZM242.654 86.8707L239.374 91.7667H242.654V86.8707ZM248.832 96.1027C248.427 96.1027 248.091 95.9801 247.824 95.7347C247.568 95.4787 247.44 95.1641 247.44 94.7907C247.44 94.4174 247.568 94.1081 247.824 93.8627C248.091 93.6067 248.427 93.4787 248.832 93.4787C249.227 93.4787 249.552 93.6067 249.808 93.8627C250.064 94.1081 250.192 94.4174 250.192 94.7907C250.192 95.1641 250.064 95.4787 249.808 95.7347C249.552 95.9801 249.227 96.1027 248.832 96.1027ZM259.58 86.2627H254.396V88.9987C254.62 88.7214 254.94 88.4974 255.356 88.3267C255.772 88.1454 256.215 88.0547 256.684 88.0547C257.538 88.0547 258.236 88.2414 258.78 88.6147C259.324 88.9881 259.719 89.4681 259.964 90.0547C260.21 90.6307 260.332 91.2494 260.332 91.9107C260.332 93.1374 259.98 94.1241 259.276 94.8707C258.583 95.6174 257.591 95.9907 256.3 95.9907C255.084 95.9907 254.114 95.6867 253.388 95.0787C252.663 94.4707 252.252 93.6761 252.156 92.6947H254.332C254.428 93.1214 254.642 93.4627 254.972 93.7187C255.314 93.9747 255.746 94.1027 256.268 94.1027C256.898 94.1027 257.372 93.9054 257.692 93.5107C258.012 93.1161 258.172 92.5934 258.172 91.9427C258.172 91.2814 258.007 90.7801 257.676 90.4387C257.356 90.0867 256.882 89.9107 256.252 89.9107C255.804 89.9107 255.431 90.0227 255.132 90.2467C254.834 90.4707 254.62 90.7694 254.492 91.1427H252.348V84.2947H259.58V86.2627ZM262.037 90.0067C262.037 88.1614 262.368 86.7161 263.029 85.6707C263.701 84.6254 264.81 84.1027 266.357 84.1027C267.904 84.1027 269.008 84.6254 269.669 85.6707C270.341 86.7161 270.677 88.1614 270.677 90.0067C270.677 91.8627 270.341 93.3187 269.669 94.3747C269.008 95.4307 267.904 95.9587 266.357 95.9587C264.81 95.9587 263.701 95.4307 263.029 94.3747C262.368 93.3187 262.037 91.8627 262.037 90.0067ZM268.469 90.0067C268.469 89.2174 268.416 88.5561 268.309 88.0227C268.213 87.4787 268.01 87.0361 267.701 86.6947C267.402 86.3534 266.954 86.1827 266.357 86.1827C265.76 86.1827 265.306 86.3534 264.997 86.6947C264.698 87.0361 264.496 87.4787 264.389 88.0227C264.293 88.5561 264.245 89.2174 264.245 90.0067C264.245 90.8174 264.293 91.5001 264.389 92.0547C264.485 92.5987 264.688 93.0414 264.997 93.3827C265.306 93.7134 265.76 93.8787 266.357 93.8787C266.954 93.8787 267.408 93.7134 267.717 93.3827C268.026 93.0414 268.229 92.5987 268.325 92.0547C268.421 91.5001 268.469 90.8174 268.469 90.0067ZM272.125 87.1907C272.125 86.3801 272.36 85.7454 272.829 85.2867C273.309 84.8281 273.922 84.5987 274.669 84.5987C275.416 84.5987 276.024 84.8281 276.493 85.2867C276.973 85.7454 277.213 86.3801 277.213 87.1907C277.213 88.0121 276.973 88.6521 276.493 89.1107C276.024 89.5694 275.416 89.7987 274.669 89.7987C273.922 89.7987 273.309 89.5694 272.829 89.1107C272.36 88.6521 272.125 88.0121 272.125 87.1907ZM282.397 84.7907L276.109 95.9907H273.933L280.205 84.7907H282.397ZM274.653 85.9427C274.066 85.9427 273.773 86.3587 273.773 87.1907C273.773 88.0334 274.066 88.4547 274.653 88.4547C274.941 88.4547 275.165 88.3534 275.325 88.1507C275.485 87.9374 275.565 87.6174 275.565 87.1907C275.565 86.3587 275.261 85.9427 274.653 85.9427ZM279.149 93.5747C279.149 92.7534 279.384 92.1187 279.853 91.6707C280.333 91.2121 280.946 90.9827 281.693 90.9827C282.44 90.9827 283.042 91.2121 283.501 91.6707C283.97 92.1187 284.205 92.7534 284.205 93.5747C284.205 94.3961 283.97 95.0361 283.501 95.4947C283.042 95.9534 282.44 96.1827 281.693 96.1827C280.936 96.1827 280.322 95.9534 279.853 95.4947C279.384 95.0361 279.149 94.3961 279.149 93.5747ZM281.677 92.3267C281.069 92.3267 280.765 92.7427 280.765 93.5747C280.765 94.4174 281.069 94.8387 281.677 94.8387C282.274 94.8387 282.573 94.4174 282.573 93.5747C282.573 92.7427 282.274 92.3267 281.677 92.3267Z" fill="#154C6B"/>
<path fill-rule="evenodd" clip-rule="evenodd" d="M65.8007 108.626C59.3404 108.626 51.3168 108.325 48.2656 107.967C46.6459 107.778 46.0432 106.95 46.0432 105.518V102.994C46.0432 100.452 46.5329 99.2464 47.8513 97.4948L49.8854 94.8391C50.3563 92.3153 51.5805 88.3977 52.3528 86.7214C52.9931 85.3841 54.1985 84.6119 55.8372 84.4047C57.1367 84.2352 60.8095 84.0845 65.8007 84.0845C70.7918 84.0845 74.5211 84.2541 75.7265 84.4047C77.4216 84.6119 78.5893 85.403 79.2297 86.7402C80.0396 88.3788 81.2262 92.2776 81.6971 94.8391L83.7312 97.4948C85.0684 99.2464 85.5393 100.452 85.5393 102.994V105.518C85.5393 106.95 84.9366 107.778 83.3357 107.967C80.2845 108.325 72.2609 108.626 65.8007 108.626ZM53.4075 94.048C52.5976 94.0857 52.2586 93.7279 52.4469 92.9556C52.8613 91.1475 53.6335 88.7744 54.1797 87.8326C54.6882 86.8909 55.3098 86.4954 56.421 86.3447C57.6829 86.1752 60.7718 86.0433 65.8007 86.0433C70.8295 86.0433 73.8995 86.1752 75.1803 86.3447C76.2915 86.4954 76.8942 86.8909 77.4216 87.8326C77.9678 88.7744 78.74 91.1475 79.1544 92.9556C79.3239 93.7279 79.0037 94.0857 78.175 94.048C75.4251 93.8785 71.9407 93.709 65.8007 93.709C59.6606 93.709 56.1762 93.8785 53.4075 94.048ZM55.3286 103.051C55.3286 104.84 53.9725 106.196 52.1644 106.196C50.3751 106.196 49.019 104.84 49.019 103.051C49.019 101.243 50.3751 99.8868 52.1644 99.8868C53.9725 99.8868 55.3286 101.243 55.3286 103.051ZM82.5823 103.051C82.5823 104.84 81.2262 106.196 79.4181 106.196C77.6288 106.196 76.2727 104.84 76.2727 103.051C76.2727 101.243 77.6288 99.8868 79.4181 99.8868C81.2262 99.8868 82.5823 101.243 82.5823 103.051ZM70.886 105.405H60.7153C59.3592 105.405 58.4175 104.464 58.4175 103.126C58.4175 101.789 59.3592 100.847 60.7153 100.847H70.886C72.2233 100.847 73.165 101.789 73.165 103.126C73.165 104.464 72.2233 105.405 70.886 105.405Z" fill="#EEF7FC"/>
<path fill-rule="evenodd" clip-rule="evenodd" d="M46.5517 116.894H48.8307C50.2621 116.894 51.3734 115.783 51.3734 114.352V111.282C55.517 111.527 61.1673 111.677 65.8007 111.677C70.4151 111.677 76.0655 111.527 80.2091 111.282V114.352C80.2091 115.783 81.3204 116.894 82.7706 116.894H85.0308C86.481 116.894 87.5923 115.783 87.5923 114.352V109.398C88.2138 108.664 88.5528 107.684 88.5528 106.479V103.164C88.5528 99.8491 87.969 97.9845 86.1797 95.7243L84.5034 93.6149C83.8065 90.2246 82.5634 86.6649 81.9042 85.2711C80.8495 83.0486 78.8154 81.7302 76.2162 81.3724C74.8413 81.184 70.8107 81.0898 65.8007 81.0898C60.7907 81.0898 56.7412 81.2029 55.3851 81.3724C52.7859 81.6926 50.733 83.0486 49.6971 85.2711C49.0379 86.6649 47.7948 90.2246 47.0979 93.6149L45.4216 95.7243C43.6323 97.9845 43.0485 99.8491 43.0485 103.164V106.479C43.0485 107.684 43.3875 108.664 44.009 109.398V114.352C44.009 115.783 45.1203 116.894 46.5517 116.894ZM65.8007 108.626C59.3404 108.626 51.3168 108.325 48.2656 107.967C46.6459 107.778 46.0432 106.95 46.0432 105.518V102.994C46.0432 100.452 46.5329 99.2464 47.8513 97.4948L49.8854 94.8391C50.3563 92.3153 51.5805 88.3977 52.3528 86.7214C52.9931 85.3841 54.1985 84.6119 55.8372 84.4047C57.1367 84.2352 60.8095 84.0845 65.8007 84.0845C70.7918 84.0845 74.5211 84.2541 75.7265 84.4047C77.4216 84.6119 78.5893 85.403 79.2297 86.7402C80.0396 88.3788 81.2262 92.2776 81.6971 94.8391L83.7312 97.4948C85.0684 99.2464 85.5393 100.452 85.5393 102.994V105.518C85.5393 106.95 84.9366 107.778 83.3357 107.967C80.2845 108.325 72.2609 108.626 65.8007 108.626ZM52.4469 92.9556C52.2586 93.7279 52.5976 94.0857 53.4075 94.048C56.1762 93.8785 59.6606 93.709 65.8007 93.709C71.9407 93.709 75.4251 93.8785 78.175 94.048C79.0037 94.0857 79.3239 93.7279 79.1544 92.9556C78.74 91.1475 77.9678 88.7744 77.4216 87.8326C76.8942 86.8909 76.2915 86.4954 75.1803 86.3447C73.8995 86.1752 70.8295 86.0433 65.8007 86.0433C60.7718 86.0433 57.6829 86.1752 56.421 86.3447C55.3098 86.4954 54.6882 86.8909 54.1797 87.8326C53.6335 88.7744 52.8613 91.1475 52.4469 92.9556ZM70.886 105.405C72.2233 105.405 73.165 104.464 73.165 103.126C73.165 101.789 72.2233 100.847 70.886 100.847H60.7153C59.3592 100.847 58.4175 101.789 58.4175 103.126C58.4175 104.464 59.3592 105.405 60.7153 105.405H70.886Z" fill="#EEF7FC"/>
<path d="M52.1644 106.196C53.9725 106.196 55.3286 104.84 55.3286 103.051C55.3286 101.243 53.9725 99.8868 52.1644 99.8868C50.3751 99.8868 49.019 101.243 49.019 103.051C49.019 104.84 50.3751 106.196 52.1644 106.196Z" fill="#EEF7FC"/>
<path d="M79.4181 106.196C81.2262 106.196 82.5823 104.84 82.5823 103.051C82.5823 101.243 81.2262 99.8868 79.4181 99.8868C77.6288 99.8868 76.2727 101.243 76.2727 103.051C76.2727 104.84 77.6288 106.196 79.4181 106.196Z" fill="#EEF7FC"/>
<path fill-rule="evenodd" clip-rule="evenodd" d="M65.7976 108.625C59.3373 108.625 51.3138 108.324 48.2626 107.966C46.6428 107.777 46.0401 106.949 46.0401 105.517V102.994C46.0401 100.451 46.5298 99.2454 47.8482 97.4938L49.8824 94.8381C50.3532 92.3143 51.5775 88.3967 52.3497 86.7204C52.9901 85.3832 54.1955 84.6109 55.8341 84.4038C57.1337 84.2342 60.8064 84.0836 65.7976 84.0836C70.7888 84.0836 74.518 84.2531 75.7234 84.4038C77.4185 84.6109 78.5863 85.402 79.2267 86.7392C80.0366 88.3779 81.2231 92.2766 81.694 94.8381L83.7281 97.4938C85.0654 99.2454 85.5363 100.451 85.5363 102.994V105.517C85.5363 106.949 84.9336 107.777 83.3326 107.966C80.2814 108.324 72.2579 108.625 65.7976 108.625ZM53.4044 94.0471C52.5945 94.0847 52.2555 93.7269 52.4439 92.9547C52.8582 91.1465 53.6305 88.7734 54.1767 87.8317C54.6852 86.8899 55.3067 86.4944 56.418 86.3437C57.6799 86.1742 60.7688 86.0424 65.7976 86.0424C70.8264 86.0424 73.8965 86.1742 75.1772 86.3437C76.2885 86.4944 76.8912 86.8899 77.4185 87.8317C77.9647 88.7734 78.737 91.1465 79.1513 92.9547C79.3208 93.7269 79.0007 94.0847 78.1719 94.0471C75.4221 93.8776 71.9377 93.708 65.7976 93.708C59.6575 93.708 56.1731 93.8776 53.4044 94.0471ZM55.3256 103.05C55.3256 104.839 53.9695 106.195 52.1614 106.195C50.3721 106.195 49.016 104.839 49.016 103.05C49.016 101.242 50.3721 99.8858 52.1614 99.8858C53.9695 99.8858 55.3256 101.242 55.3256 103.05ZM82.5792 103.05C82.5792 104.839 81.2231 106.195 79.415 106.195C77.6257 106.195 76.2696 104.839 76.2696 103.05C76.2696 101.242 77.6257 99.8858 79.415 99.8858C81.2231 99.8858 82.5792 101.242 82.5792 103.05ZM70.8829 105.404H60.7123C59.3562 105.404 58.4144 104.463 58.4144 103.125C58.4144 101.788 59.3562 100.846 60.7123 100.846H70.8829C72.2202 100.846 73.1619 101.788 73.1619 103.125C73.1619 104.463 72.2202 105.404 70.8829 105.404Z" fill="#B2C59F"/>
<path fill-rule="evenodd" clip-rule="evenodd" d="M46.5486 116.893H48.8276C50.2591 116.893 51.3703 115.782 51.3703 114.351V111.281C55.5139 111.526 61.1643 111.676 65.7976 111.676C70.4121 111.676 76.0625 111.526 80.2061 111.281V114.351C80.2061 115.782 81.3173 116.893 82.7676 116.893H85.0277C86.478 116.893 87.5892 115.782 87.5892 114.351V109.397C88.2108 108.663 88.5498 107.683 88.5498 106.478V103.163C88.5498 99.8481 87.9659 97.9835 86.1766 95.7233L84.5004 93.6139C83.8035 90.2236 82.5604 86.6639 81.9012 85.2701C80.8464 83.0477 78.8123 81.7292 76.2131 81.3714C74.8382 81.183 70.8076 81.0889 65.7976 81.0889C60.7876 81.0889 56.7382 81.2019 55.3821 81.3714C52.7829 81.6916 50.7299 83.0477 49.694 85.2701C49.0348 86.6639 47.7917 90.2236 47.0948 93.6139L45.4186 95.7233C43.6293 97.9835 43.0454 99.8481 43.0454 103.163V106.478C43.0454 107.683 43.3844 108.663 44.006 109.397V114.351C44.006 115.782 45.1172 116.893 46.5486 116.893ZM65.7976 108.625C59.3373 108.625 51.3138 108.324 48.2626 107.966C46.6428 107.777 46.0401 106.949 46.0401 105.517V102.994C46.0401 100.451 46.5298 99.2454 47.8482 97.4938L49.8824 94.8381C50.3532 92.3143 51.5775 88.3967 52.3497 86.7204C52.9901 85.3832 54.1955 84.6109 55.8341 84.4038C57.1337 84.2342 60.8064 84.0836 65.7976 84.0836C70.7888 84.0836 74.518 84.2531 75.7234 84.4038C77.4185 84.6109 78.5863 85.402 79.2267 86.7392C80.0366 88.3779 81.2231 92.2766 81.694 94.8381L83.7281 97.4938C85.0654 99.2454 85.5363 100.451 85.5363 102.994V105.517C85.5363 106.949 84.9336 107.777 83.3326 107.966C80.2814 108.324 72.2579 108.625 65.7976 108.625ZM52.4439 92.9547C52.2555 93.7269 52.5945 94.0847 53.4044 94.0471C56.1731 93.8776 59.6575 93.708 65.7976 93.708C71.9377 93.708 75.4221 93.8776 78.1719 94.0471C79.0007 94.0847 79.3208 93.7269 79.1513 92.9547C78.737 91.1465 77.9647 88.7734 77.4185 87.8317C76.8912 86.8899 76.2885 86.4944 75.1772 86.3437C73.8965 86.1742 70.8264 86.0424 65.7976 86.0424C60.7688 86.0424 57.6799 86.1742 56.418 86.3437C55.3067 86.4944 54.6852 86.8899 54.1767 87.8317C53.6305 88.7734 52.8582 91.1465 52.4439 92.9547ZM70.8829 105.404C72.2202 105.404 73.1619 104.463 73.1619 103.125C73.1619 101.788 72.2202 100.846 70.8829 100.846H60.7123C59.3562 100.846 58.4144 101.788 58.4144 103.125C58.4144 104.463 59.3562 105.404 60.7123 105.404H70.8829Z" fill="#B2C59F"/>
<path fill-rule="evenodd" clip-rule="evenodd" d="M48.8276 116.893H46.5486C45.1172 116.893 44.006 115.782 44.006 114.351V109.397C44.006 109.397 46.1112 110.347 47.5356 110.716C49.001 111.095 51.3703 111.281 51.3703 111.281V114.351C51.3703 115.782 50.2591 116.893 48.8276 116.893ZM80.2061 111.281V114.351C80.2061 115.782 81.3173 116.893 82.7676 116.893H85.0277C86.478 116.893 87.5892 115.782 87.5892 114.351V109.397C87.5892 109.397 85.8053 110.477 84.3474 110.85C82.8824 111.225 80.2061 111.281 80.2061 111.281ZM53.4044 94.0471C52.5946 94.0847 52.2555 93.7269 52.4439 92.9547C52.8582 91.1465 53.6305 88.7734 54.1767 87.8317C54.6852 86.8899 55.3067 86.4944 56.418 86.3437C57.6799 86.1742 60.7688 86.0424 65.7976 86.0424C70.8264 86.0424 73.8965 86.1742 75.1772 86.3437C76.2885 86.4944 76.8912 86.8899 77.4185 87.8317C77.9647 88.7734 78.737 91.1465 79.1513 92.9547C79.3208 93.7269 79.0007 94.0847 78.1719 94.0471C75.4221 93.8776 71.9377 93.708 65.7976 93.708C59.6575 93.708 56.1731 93.8776 53.4044 94.0471ZM73.1619 103.125C73.1619 104.463 72.2202 105.404 70.8829 105.404H60.7123C59.3562 105.404 58.4144 104.463 58.4144 103.125C58.4144 101.788 59.3562 100.846 60.7123 100.846H70.8829C72.2202 100.846 73.1619 101.788 73.1619 103.125Z" fill="#5F5F5F"/>
</svg>
