<svg width="336" height="153" viewBox="0 0 336 153" fill="none" xmlns="http://www.w3.org/2000/svg">
<rect x="0.798462" y="0.994629" width="270" height="151" rx="20" fill="#EBEBEB"/>
<path d="M272.798 20.9946C272.798 9.94894 281.753 0.994629 292.798 0.994629H315.802C326.848 0.994629 335.802 9.94893 335.802 20.9946V132.004C335.802 143.05 326.848 152.004 315.802 152.004H292.798C281.753 152.004 272.798 143.05 272.798 132.004V20.9946Z" fill="#EBEBEB"/>
<path d="M201.209 25.2544C201.209 24.7205 201.059 24.2974 200.759 23.9849C200.466 23.6659 199.965 23.3729 199.255 23.106C198.546 22.839 197.934 22.5754 197.42 22.3149C196.905 22.048 196.463 21.7453 196.091 21.4067C195.727 21.0617 195.44 20.658 195.232 20.1958C195.03 19.7336 194.929 19.1834 194.929 18.5454C194.929 17.4451 195.281 16.5435 195.984 15.8403C196.687 15.1372 197.621 14.7271 198.787 14.6099V12.52H200.349V14.6392C201.502 14.8019 202.403 15.2837 203.054 16.0845C203.705 16.8787 204.031 17.9106 204.031 19.1802H201.209C201.209 18.3989 201.046 17.8162 200.72 17.4321C200.401 17.0415 199.972 16.8462 199.431 16.8462C198.897 16.8462 198.484 16.9992 198.191 17.3052C197.898 17.6047 197.752 18.0213 197.752 18.5552C197.752 19.05 197.895 19.4471 198.181 19.7466C198.468 20.0461 198.998 20.3521 199.773 20.6646C200.554 20.9771 201.196 21.2733 201.697 21.5532C202.198 21.8267 202.621 22.1392 202.966 22.4907C203.311 22.8358 203.575 23.2329 203.757 23.6821C203.94 24.1248 204.031 24.6424 204.031 25.2349C204.031 26.3416 203.686 27.2401 202.996 27.9302C202.306 28.6203 201.355 29.0272 200.144 29.1509V31.0942H198.591V29.1606C197.257 29.0174 196.222 28.5454 195.486 27.7446C194.757 26.9373 194.392 25.8664 194.392 24.5317H197.214C197.214 25.3065 197.397 25.9022 197.761 26.3188C198.132 26.729 198.663 26.9341 199.353 26.9341C199.926 26.9341 200.379 26.7843 200.711 26.4849C201.043 26.1789 201.209 25.7687 201.209 25.2544ZM206.365 22.0024L207.185 14.7759H215.154V17.1294H209.5L209.148 20.186C209.819 19.828 210.532 19.6489 211.287 19.6489C212.641 19.6489 213.702 20.0688 214.47 20.9087C215.239 21.7485 215.623 22.9237 215.623 24.4341C215.623 25.3521 215.427 26.1756 215.037 26.9048C214.653 27.6274 214.099 28.1906 213.377 28.5942C212.654 28.9914 211.801 29.1899 210.818 29.1899C209.959 29.1899 209.161 29.0174 208.425 28.6724C207.69 28.3208 207.107 27.8293 206.677 27.1978C206.254 26.5662 206.03 25.8468 206.004 25.0396H208.797C208.855 25.632 209.06 26.0942 209.412 26.4263C209.77 26.7518 210.235 26.9146 210.808 26.9146C211.446 26.9146 211.938 26.6867 212.283 26.231C212.628 25.7687 212.8 25.1177 212.8 24.2778C212.8 23.4705 212.602 22.8521 212.205 22.4224C211.808 21.9927 211.244 21.7778 210.515 21.7778C209.845 21.7778 209.301 21.9536 208.884 22.3052L208.611 22.5591L206.365 22.0024ZM218.279 32.5591L216.804 31.7876L217.156 31.1528C217.592 30.3586 217.817 29.5675 217.83 28.7798V26.5923H220.213L220.203 28.5454C220.196 29.2681 220.014 29.9972 219.656 30.7329C219.298 31.4686 218.839 32.0773 218.279 32.5591ZM228.914 23.311C228.178 24.0337 227.319 24.395 226.336 24.395C225.079 24.395 224.073 23.9653 223.318 23.106C222.563 22.2401 222.185 21.0747 222.185 19.6099C222.185 18.6789 222.387 17.826 222.791 17.0513C223.201 16.27 223.77 15.6646 224.5 15.2349C225.229 14.7987 226.049 14.5806 226.961 14.5806C227.898 14.5806 228.731 14.8149 229.461 15.2837C230.19 15.7524 230.756 16.4263 231.16 17.3052C231.563 18.1841 231.769 19.1899 231.775 20.3228V21.3677C231.775 23.7375 231.186 25.5994 230.007 26.9536C228.829 28.3078 227.159 29.0304 224.998 29.1216L224.304 29.1313V26.7778L224.929 26.7681C227.384 26.6574 228.712 25.505 228.914 23.311ZM227.029 22.2368C227.485 22.2368 227.875 22.1196 228.201 21.8853C228.533 21.6509 228.783 21.3677 228.953 21.0356V19.8735C228.953 18.9165 228.77 18.1743 228.406 17.647C228.041 17.1196 227.553 16.856 226.941 16.856C226.375 16.856 225.909 17.1164 225.545 17.6372C225.18 18.1515 224.998 18.7993 224.998 19.5806C224.998 20.3553 225.173 20.9933 225.525 21.4946C225.883 21.9894 226.384 22.2368 227.029 22.2368ZM243.543 28.9946H233.797V27.061L238.396 22.1587C239.028 21.4686 239.493 20.8664 239.793 20.3521C240.099 19.8377 240.252 19.3494 240.252 18.8872C240.252 18.2557 240.092 17.7609 239.773 17.4028C239.454 17.0382 238.998 16.856 238.406 16.856C237.768 16.856 237.263 17.0773 236.892 17.52C236.528 17.9562 236.345 18.5324 236.345 19.2485H233.513C233.513 18.3826 233.718 17.5916 234.129 16.8755C234.545 16.1593 235.131 15.5994 235.886 15.1958C236.642 14.7856 237.498 14.5806 238.455 14.5806C239.92 14.5806 241.056 14.9321 241.863 15.6353C242.677 16.3384 243.084 17.3312 243.084 18.6138C243.084 19.3169 242.901 20.033 242.537 20.7622C242.172 21.4914 241.547 22.341 240.662 23.311L237.429 26.7192H243.543V28.9946ZM254.548 18.5552C254.548 19.2453 254.376 19.8573 254.031 20.3911C253.686 20.925 253.211 21.3514 252.605 21.6704C253.295 22.0024 253.842 22.4614 254.246 23.0474C254.649 23.6268 254.851 24.3104 254.851 25.0981C254.851 26.3612 254.422 27.3605 253.562 28.0962C252.703 28.8254 251.534 29.1899 250.056 29.1899C248.578 29.1899 247.407 28.8221 246.541 28.0864C245.675 27.3507 245.242 26.3547 245.242 25.0981C245.242 24.3104 245.444 23.6235 245.847 23.0376C246.251 22.4517 246.795 21.9959 247.478 21.6704C246.873 21.3514 246.397 20.925 246.052 20.3911C245.714 19.8573 245.545 19.2453 245.545 18.5552C245.545 17.3442 245.948 16.3807 246.755 15.6646C247.563 14.9419 248.66 14.5806 250.047 14.5806C251.427 14.5806 252.52 14.9386 253.328 15.6548C254.142 16.3644 254.548 17.3312 254.548 18.5552ZM252.019 24.8931C252.019 24.2746 251.84 23.7798 251.482 23.4087C251.124 23.0376 250.642 22.8521 250.037 22.8521C249.438 22.8521 248.959 23.0376 248.601 23.4087C248.243 23.7733 248.064 24.2681 248.064 24.8931C248.064 25.4985 248.24 25.9868 248.591 26.3579C248.943 26.729 249.431 26.9146 250.056 26.9146C250.668 26.9146 251.147 26.7355 251.492 26.3774C251.843 26.0194 252.019 25.5246 252.019 24.8931ZM251.726 18.6919C251.726 18.1385 251.58 17.6958 251.287 17.3638C250.994 17.0252 250.58 16.856 250.047 16.856C249.519 16.856 249.109 17.0187 248.816 17.3442C248.523 17.6698 248.377 18.119 248.377 18.6919C248.377 19.2583 248.523 19.714 248.816 20.0591C249.109 20.4041 249.522 20.5767 250.056 20.5767C250.59 20.5767 251 20.4041 251.287 20.0591C251.58 19.714 251.726 19.2583 251.726 18.6919Z" fill="black"/>
<path d="M58.6344 25.2915C58.5198 26.505 58.0719 27.453 57.2906 28.1353C56.5094 28.8123 55.4703 29.1509 54.1735 29.1509C53.2672 29.1509 52.4677 28.9373 51.775 28.5103C51.0875 28.078 50.5563 27.466 50.1813 26.6743C49.8063 25.8826 49.611 24.9634 49.5953 23.9165V22.854C49.5953 21.7811 49.7854 20.8358 50.1656 20.0181C50.5459 19.2004 51.0901 18.5701 51.7985 18.1274C52.512 17.6847 53.3349 17.4634 54.2672 17.4634C55.5224 17.4634 56.5328 17.8045 57.2985 18.4868C58.0641 19.1691 58.5094 20.1326 58.6344 21.3774H56.6656C56.5719 20.5597 56.3323 19.9712 55.9469 19.6118C55.5667 19.2472 55.0068 19.0649 54.2672 19.0649C53.4078 19.0649 52.7464 19.38 52.2828 20.0103C51.8245 20.6353 51.5901 21.5545 51.5797 22.7681V23.7759C51.5797 25.005 51.7985 25.9425 52.236 26.5884C52.6787 27.2342 53.3245 27.5571 54.1735 27.5571C54.9495 27.5571 55.5328 27.3826 55.9235 27.0337C56.3141 26.6847 56.5615 26.104 56.6656 25.2915H58.6344ZM65.275 28.9946C65.1917 28.8332 65.1188 28.5701 65.0563 28.2056C64.4521 28.8358 63.7125 29.1509 62.8375 29.1509C61.9886 29.1509 61.2959 28.9087 60.7594 28.4243C60.2229 27.9399 59.9547 27.341 59.9547 26.6274C59.9547 25.7264 60.288 25.0363 60.9547 24.5571C61.6266 24.0728 62.5849 23.8306 63.8297 23.8306H64.9938V23.2759C64.9938 22.8384 64.8714 22.4894 64.6266 22.229C64.3818 21.9634 64.0094 21.8306 63.5094 21.8306C63.0771 21.8306 62.7229 21.9399 62.4469 22.1587C62.1709 22.3722 62.0328 22.6457 62.0328 22.979H60.1344C60.1344 22.5155 60.288 22.0832 60.5953 21.6821C60.9026 21.2759 61.3193 20.9582 61.8453 20.729C62.3766 20.4998 62.9677 20.3853 63.6188 20.3853C64.6084 20.3853 65.3974 20.6353 65.986 21.1353C66.5745 21.63 66.8766 22.328 66.8922 23.229V27.0415C66.8922 27.8019 66.999 28.4087 67.2125 28.8618V28.9946H65.275ZM63.1891 27.6274C63.5641 27.6274 63.9156 27.5363 64.2438 27.354C64.5771 27.1717 64.8271 26.9269 64.9938 26.6196V25.0259H63.9703C63.2672 25.0259 62.7386 25.1483 62.3844 25.3931C62.0302 25.6379 61.8531 25.9842 61.8531 26.4321C61.8531 26.7967 61.9729 27.0884 62.2125 27.3071C62.4573 27.5207 62.7828 27.6274 63.1891 27.6274ZM73.3063 22.2759C73.0563 22.2342 72.7985 22.2134 72.5328 22.2134C71.663 22.2134 71.0771 22.5467 70.775 23.2134V28.9946H68.8766V20.5415H70.6891L70.736 21.4868C71.1943 20.7524 71.8297 20.3853 72.6422 20.3853C72.913 20.3853 73.137 20.4217 73.3141 20.4946L73.3063 22.2759ZM80.5094 28.9946H78.611V16.9946H80.5094V28.9946ZM82.2281 24.6899C82.2281 23.8618 82.3922 23.117 82.7203 22.4556C83.0485 21.7889 83.5094 21.2785 84.1031 20.9243C84.6969 20.5649 85.3792 20.3853 86.15 20.3853C87.2906 20.3853 88.2151 20.7524 88.9235 21.4868C89.637 22.2212 90.0224 23.1951 90.0797 24.4087L90.0875 24.854C90.0875 25.6873 89.9261 26.4321 89.6031 27.0884C89.2854 27.7446 88.8271 28.2524 88.2281 28.6118C87.6344 28.9712 86.9469 29.1509 86.1656 29.1509C84.9729 29.1509 84.0172 28.755 83.2985 27.9634C82.5849 27.1665 82.2281 26.1066 82.2281 24.7837V24.6899ZM84.1266 24.854C84.1266 25.7238 84.3063 26.4061 84.6656 26.9009C85.025 27.3905 85.525 27.6353 86.1656 27.6353C86.8063 27.6353 87.3037 27.3853 87.6578 26.8853C88.0172 26.3853 88.1969 25.6535 88.1969 24.6899C88.1969 23.8358 88.012 23.1587 87.6422 22.6587C87.2776 22.1587 86.7802 21.9087 86.15 21.9087C85.5302 21.9087 85.038 22.1561 84.6735 22.6509C84.3089 23.1405 84.1266 23.8748 84.1266 24.854ZM96.7438 28.9946C96.6604 28.8332 96.5875 28.5701 96.525 28.2056C95.9209 28.8358 95.1813 29.1509 94.3063 29.1509C93.4573 29.1509 92.7646 28.9087 92.2281 28.4243C91.6917 27.9399 91.4235 27.341 91.4235 26.6274C91.4235 25.7264 91.7568 25.0363 92.4235 24.5571C93.0953 24.0728 94.0537 23.8306 95.2985 23.8306H96.4625V23.2759C96.4625 22.8384 96.3401 22.4894 96.0953 22.229C95.8505 21.9634 95.4781 21.8306 94.9781 21.8306C94.5459 21.8306 94.1917 21.9399 93.9156 22.1587C93.6396 22.3722 93.5016 22.6457 93.5016 22.979H91.6031C91.6031 22.5155 91.7568 22.0832 92.0641 21.6821C92.3714 21.2759 92.788 20.9582 93.3141 20.729C93.8453 20.4998 94.4365 20.3853 95.0875 20.3853C96.0771 20.3853 96.8662 20.6353 97.4547 21.1353C98.0433 21.63 98.3453 22.328 98.361 23.229V27.0415C98.361 27.8019 98.4677 28.4087 98.6813 28.8618V28.9946H96.7438ZM94.6578 27.6274C95.0328 27.6274 95.3844 27.5363 95.7125 27.354C96.0459 27.1717 96.2959 26.9269 96.4625 26.6196V25.0259H95.4391C94.736 25.0259 94.2073 25.1483 93.8531 25.3931C93.499 25.6379 93.3219 25.9842 93.3219 26.4321C93.3219 26.7967 93.4417 27.0884 93.6813 27.3071C93.9261 27.5207 94.2516 27.6274 94.6578 27.6274ZM102.111 20.5415L102.166 21.5181C102.791 20.7629 103.611 20.3853 104.627 20.3853C106.387 20.3853 107.283 21.3931 107.314 23.4087V28.9946H105.416V23.5181C105.416 22.9816 105.298 22.5858 105.064 22.3306C104.835 22.0701 104.457 21.9399 103.931 21.9399C103.166 21.9399 102.595 22.2863 102.22 22.979V28.9946H100.322V20.5415H102.111Z" fill="black"/>
<path d="M51.3619 61.9946H50.0494V52.0415H51.3619V61.9946ZM55.0162 54.5981L55.0573 55.5278C55.6224 54.8169 56.3606 54.4614 57.2721 54.4614C58.8352 54.4614 59.6237 55.3433 59.6373 57.1069V61.9946H58.3727V57.1001C58.3681 56.5669 58.2451 56.1727 58.0035 55.9175C57.7666 55.6623 57.3951 55.5347 56.8893 55.5347C56.4791 55.5347 56.1191 55.644 55.8092 55.8628C55.4993 56.0815 55.2578 56.3687 55.0846 56.7241V61.9946H53.8199V54.5981H55.0162ZM63.5104 52.8071V54.5981H64.8912V55.5757H63.5104V60.1626C63.5104 60.4588 63.5719 60.6821 63.6949 60.8325C63.818 60.9784 64.0276 61.0513 64.3239 61.0513C64.4697 61.0513 64.6702 61.0239 64.9254 60.9692V61.9946C64.5927 62.0858 64.2692 62.1313 63.9547 62.1313C63.3896 62.1313 62.9635 61.9604 62.6764 61.6187C62.3893 61.2769 62.2457 60.7915 62.2457 60.1626V55.5757H60.899V54.5981H62.2457V52.8071H63.5104ZM69.694 62.1313C68.6914 62.1313 67.8756 61.8032 67.2467 61.147C66.6178 60.4862 66.3033 59.6043 66.3033 58.5015V58.269C66.3033 57.5353 66.4423 56.8813 66.7203 56.3071C67.0029 55.7284 67.3948 55.2772 67.8961 54.9536C68.402 54.6255 68.9489 54.4614 69.5367 54.4614C70.4983 54.4614 71.2457 54.7782 71.7789 55.4116C72.3121 56.0451 72.5787 56.952 72.5787 58.1323V58.6587H67.568C67.5862 59.3879 67.7981 59.978 68.2037 60.4292C68.6139 60.8758 69.1334 61.0991 69.7623 61.0991C70.2089 61.0991 70.5872 61.008 70.8971 60.8257C71.207 60.6434 71.4781 60.4019 71.7106 60.1011L72.483 60.7026C71.8632 61.6551 70.9336 62.1313 69.694 62.1313ZM69.5367 55.5005C69.0263 55.5005 68.5979 55.6873 68.2516 56.061C67.9052 56.4302 67.691 56.9497 67.609 57.6196H71.3141V57.5239C71.2776 56.8813 71.1045 56.3846 70.7946 56.0337C70.4847 55.6782 70.0654 55.5005 69.5367 55.5005ZM77.8737 55.7329C77.6823 55.701 77.4749 55.6851 77.2516 55.6851C76.4222 55.6851 75.8593 56.0382 75.5631 56.7446V61.9946H74.2985V54.5981H75.5289L75.5494 55.4526C75.9642 54.7918 76.552 54.4614 77.3131 54.4614C77.5592 54.4614 77.7461 54.4933 77.8737 54.5571V55.7329ZM82.2252 62.1313C81.2226 62.1313 80.4069 61.8032 79.778 61.147C79.149 60.4862 78.8346 59.6043 78.8346 58.5015V58.269C78.8346 57.5353 78.9736 56.8813 79.2516 56.3071C79.5341 55.7284 79.9261 55.2772 80.4274 54.9536C80.9332 54.6255 81.4801 54.4614 82.068 54.4614C83.0296 54.4614 83.777 54.7782 84.3102 55.4116C84.8434 56.0451 85.11 56.952 85.11 58.1323V58.6587H80.0992C80.1175 59.3879 80.3294 59.978 80.735 60.4292C81.1451 60.8758 81.6647 61.0991 82.2936 61.0991C82.7402 61.0991 83.1184 61.008 83.4283 60.8257C83.7382 60.6434 84.0094 60.4019 84.2418 60.1011L85.0143 60.7026C84.3945 61.6551 83.4648 62.1313 82.2252 62.1313ZM82.068 55.5005C81.5576 55.5005 81.1292 55.6873 80.7828 56.061C80.4365 56.4302 80.2223 56.9497 80.1403 57.6196H83.8453V57.5239C83.8089 56.8813 83.6357 56.3846 83.3258 56.0337C83.0159 55.6782 82.5966 55.5005 82.068 55.5005ZM91.1364 60.0327C91.1364 59.6909 91.0065 59.4266 90.7467 59.2397C90.4915 59.0483 90.0426 58.8843 89.4 58.7476C88.762 58.6108 88.2539 58.4468 87.8756 58.2554C87.5019 58.064 87.2239 57.8361 87.0416 57.5718C86.8639 57.3075 86.775 56.993 86.775 56.6284C86.775 56.0223 87.0302 55.5096 87.5406 55.0903C88.0556 54.6711 88.7119 54.4614 89.5094 54.4614C90.3479 54.4614 91.027 54.6779 91.5465 55.1108C92.0706 55.5438 92.3326 56.0975 92.3326 56.772H91.0612C91.0612 56.4256 90.913 56.1271 90.6168 55.8765C90.3252 55.6258 89.956 55.5005 89.5094 55.5005C89.0491 55.5005 88.6891 55.6007 88.4293 55.8013C88.1696 56.0018 88.0397 56.2638 88.0397 56.5874C88.0397 56.8927 88.1604 57.1229 88.402 57.2778C88.6435 57.4328 89.0787 57.5809 89.7076 57.7222C90.3411 57.8634 90.8538 58.0321 91.2457 58.228C91.6377 58.424 91.927 58.661 92.1139 58.939C92.3053 59.2124 92.401 59.5474 92.401 59.9438C92.401 60.6047 92.1367 61.1356 91.608 61.5366C91.0794 61.9331 90.3935 62.1313 89.5504 62.1313C88.958 62.1313 88.4339 62.0265 87.9781 61.8169C87.5224 61.6073 87.1647 61.3156 86.9049 60.9419C86.6497 60.5636 86.5221 60.1558 86.5221 59.7183H87.7867C87.8095 60.1421 87.9781 60.4793 88.2926 60.73C88.6116 60.9761 89.0309 61.0991 89.5504 61.0991C90.0289 61.0991 90.4117 61.0034 90.6989 60.812C90.9905 60.616 91.1364 60.3563 91.1364 60.0327ZM96.0143 52.8071V54.5981H97.3951V55.5757H96.0143V60.1626C96.0143 60.4588 96.0758 60.6821 96.1989 60.8325C96.3219 60.9784 96.5315 61.0513 96.8278 61.0513C96.9736 61.0513 97.1741 61.0239 97.4293 60.9692V61.9946C97.0966 62.0858 96.7731 62.1313 96.4586 62.1313C95.8935 62.1313 95.4674 61.9604 95.1803 61.6187C94.8932 61.2769 94.7496 60.7915 94.7496 60.1626V55.5757H93.403V54.5981H94.7496V52.8071H96.0143ZM106.426 55.7329C106.235 55.701 106.028 55.6851 105.804 55.6851C104.975 55.6851 104.412 56.0382 104.116 56.7446V61.9946H102.851V54.5981H104.082L104.102 55.4526C104.517 54.7918 105.105 54.4614 105.866 54.4614C106.112 54.4614 106.299 54.4933 106.426 54.5571V55.7329ZM112.138 61.9946C112.065 61.8488 112.006 61.589 111.961 61.2153C111.373 61.826 110.671 62.1313 109.855 62.1313C109.126 62.1313 108.527 61.9263 108.057 61.5161C107.592 61.1014 107.36 60.5773 107.36 59.9438C107.36 59.1737 107.652 58.5767 108.235 58.1528C108.823 57.7244 109.648 57.5103 110.71 57.5103H111.94V56.9292C111.94 56.4871 111.808 56.1362 111.544 55.8765C111.279 55.6121 110.89 55.48 110.375 55.48C109.923 55.48 109.545 55.5939 109.24 55.8218C108.935 56.0496 108.782 56.3254 108.782 56.6489H107.51C107.51 56.2798 107.64 55.9243 107.9 55.5825C108.164 55.2362 108.52 54.9627 108.966 54.7622C109.418 54.5617 109.912 54.4614 110.45 54.4614C111.302 54.4614 111.97 54.6756 112.453 55.104C112.936 55.5278 113.186 56.1134 113.205 56.8608V60.2651C113.205 60.9442 113.291 61.4842 113.464 61.8853V61.9946H112.138ZM110.04 61.0308C110.436 61.0308 110.812 60.9282 111.168 60.7231C111.523 60.5181 111.781 60.2515 111.94 59.9233V58.4058H110.949C109.399 58.4058 108.625 58.8592 108.625 59.7661C108.625 60.1626 108.757 60.4725 109.021 60.6958C109.285 60.9191 109.625 61.0308 110.04 61.0308ZM117.153 52.8071V54.5981H118.534V55.5757H117.153V60.1626C117.153 60.4588 117.214 60.6821 117.338 60.8325C117.461 60.9784 117.67 61.0513 117.966 61.0513C118.112 61.0513 118.313 61.0239 118.568 60.9692V61.9946C118.235 62.0858 117.912 62.1313 117.597 62.1313C117.032 62.1313 116.606 61.9604 116.319 61.6187C116.032 61.2769 115.888 60.7915 115.888 60.1626V55.5757H114.542V54.5981H115.888V52.8071H117.153ZM123.337 62.1313C122.334 62.1313 121.518 61.8032 120.889 61.147C120.26 60.4862 119.946 59.6043 119.946 58.5015V58.269C119.946 57.5353 120.085 56.8813 120.363 56.3071C120.645 55.7284 121.037 55.2772 121.539 54.9536C122.045 54.6255 122.591 54.4614 123.179 54.4614C124.141 54.4614 124.888 54.7782 125.422 55.4116C125.955 56.0451 126.221 56.952 126.221 58.1323V58.6587H121.211C121.229 59.3879 121.441 59.978 121.846 60.4292C122.256 60.8758 122.776 61.0991 123.405 61.0991C123.852 61.0991 124.23 61.008 124.54 60.8257C124.85 60.6434 125.121 60.4019 125.353 60.1011L126.126 60.7026C125.506 61.6551 124.576 62.1313 123.337 62.1313ZM123.179 55.5005C122.669 55.5005 122.241 55.6873 121.894 56.061C121.548 56.4302 121.334 56.9497 121.252 57.6196H124.957V57.5239C124.92 56.8813 124.747 56.3846 124.437 56.0337C124.127 55.6782 123.708 55.5005 123.179 55.5005Z" fill="black"/>
<path d="M57.61 81.3394C57.61 82.3146 57.4459 83.1668 57.1178 83.896C56.7897 84.6206 56.3248 85.1743 55.7233 85.5571C55.1217 85.9399 54.4199 86.1313 53.6178 86.1313C52.8339 86.1313 52.139 85.9399 51.5328 85.5571C50.9267 85.1698 50.455 84.6206 50.1178 83.9097C49.7851 83.1942 49.6142 82.367 49.6051 81.4282V80.7104C49.6051 79.7534 49.7714 78.908 50.1041 78.1743C50.4368 77.4406 50.9062 76.88 51.5123 76.4927C52.123 76.1007 52.8203 75.9048 53.6041 75.9048C54.4017 75.9048 55.1035 76.0985 55.7096 76.4858C56.3203 76.8687 56.7897 77.4269 57.1178 78.1606C57.4459 78.8898 57.61 79.7397 57.61 80.7104V81.3394ZM56.3043 80.6968C56.3043 79.5164 56.0673 78.6118 55.5934 77.9829C55.1194 77.3494 54.4563 77.0327 53.6041 77.0327C52.7747 77.0327 52.1207 77.3494 51.6422 77.9829C51.1683 78.6118 50.9244 79.4868 50.9108 80.6079V81.3394C50.9108 82.4832 51.15 83.3833 51.6285 84.0396C52.1116 84.6912 52.7747 85.0171 53.6178 85.0171C54.4655 85.0171 55.1217 84.7095 55.5865 84.0942C56.0514 83.4744 56.2906 82.5881 56.3043 81.4351V80.6968ZM63.2057 79.7329C63.0143 79.701 62.8069 79.6851 62.5836 79.6851C61.7542 79.6851 61.1914 80.0382 60.8951 80.7446V85.9946H59.6305V78.5981H60.861L60.8815 79.4526C61.2962 78.7918 61.8841 78.4614 62.6451 78.4614C62.8912 78.4614 63.0781 78.4933 63.2057 78.5571V79.7329ZM65.9987 85.9946H64.734V78.5981H65.9987V85.9946ZM64.6315 76.6362C64.6315 76.4312 64.693 76.258 64.816 76.1167C64.9436 75.9754 65.1305 75.9048 65.3766 75.9048C65.6227 75.9048 65.8095 75.9754 65.9371 76.1167C66.0647 76.258 66.1285 76.4312 66.1285 76.6362C66.1285 76.8413 66.0647 77.0122 65.9371 77.1489C65.8095 77.2856 65.6227 77.354 65.3766 77.354C65.1305 77.354 64.9436 77.2856 64.816 77.1489C64.693 77.0122 64.6315 76.8413 64.6315 76.6362ZM67.9781 82.2349C67.9781 81.0819 68.2448 80.1659 68.778 79.4868C69.3112 78.8032 70.0175 78.4614 70.8971 78.4614C71.7994 78.4614 72.5035 78.7804 73.0094 79.4185L73.0709 78.5981H74.2262V85.8169C74.2262 86.7739 73.9414 87.5282 73.3717 88.0796C72.8066 88.631 72.0455 88.9067 71.0885 88.9067C70.5553 88.9067 70.0335 88.7928 69.5231 88.5649C69.0127 88.3371 68.623 88.0249 68.3541 87.6284L69.0104 86.8696C69.5527 87.5396 70.2158 87.8745 70.9996 87.8745C71.6149 87.8745 72.0934 87.7013 72.4352 87.355C72.7815 87.0086 72.9547 86.521 72.9547 85.8921V85.2563C72.4489 85.8397 71.7584 86.1313 70.8834 86.1313C70.0175 86.1313 69.3157 85.7827 68.778 85.0854C68.2448 84.3882 67.9781 83.438 67.9781 82.2349ZM69.2496 82.3784C69.2496 83.2124 69.4205 83.8687 69.7623 84.3472C70.1041 84.8211 70.5826 85.0581 71.1979 85.0581C71.9954 85.0581 72.581 84.6958 72.9547 83.9712V80.5942C72.5673 79.8879 71.9863 79.5347 71.2115 79.5347C70.5963 79.5347 70.1155 79.7739 69.7692 80.2524C69.4228 80.731 69.2496 81.4396 69.2496 82.3784ZM77.7643 85.9946H76.4996V78.5981H77.7643V85.9946ZM76.3971 76.6362C76.3971 76.4312 76.4586 76.258 76.5817 76.1167C76.7093 75.9754 76.8961 75.9048 77.1422 75.9048C77.3883 75.9048 77.5752 75.9754 77.7028 76.1167C77.8304 76.258 77.8942 76.4312 77.8942 76.6362C77.8942 76.8413 77.8304 77.0122 77.7028 77.1489C77.5752 77.2856 77.3883 77.354 77.1422 77.354C76.8961 77.354 76.7093 77.2856 76.5817 77.1489C76.4586 77.0122 76.3971 76.8413 76.3971 76.6362ZM81.2408 78.5981L81.2819 79.5278C81.847 78.8169 82.5852 78.4614 83.4967 78.4614C85.0599 78.4614 85.8483 79.3433 85.8619 81.1069V85.9946H84.5973V81.1001C84.5927 80.5669 84.4697 80.1727 84.2281 79.9175C83.9912 79.6623 83.6198 79.5347 83.1139 79.5347C82.7037 79.5347 82.3437 79.644 82.0338 79.8628C81.7239 80.0815 81.4824 80.3687 81.3092 80.7241V85.9946H80.0446V78.5981H81.2408ZM89.3932 85.9946H88.1285V78.5981H89.3932V85.9946ZM88.026 76.6362C88.026 76.4312 88.0875 76.258 88.2106 76.1167C88.3382 75.9754 88.525 75.9048 88.7711 75.9048C89.0172 75.9048 89.2041 75.9754 89.3317 76.1167C89.4593 76.258 89.5231 76.4312 89.5231 76.6362C89.5231 76.8413 89.4593 77.0122 89.3317 77.1489C89.2041 77.2856 89.0172 77.354 88.7711 77.354C88.525 77.354 88.3382 77.2856 88.2106 77.1489C88.0875 77.0122 88.026 76.8413 88.026 76.6362ZM96.2399 85.9946C96.167 85.8488 96.1077 85.589 96.0621 85.2153C95.4742 85.826 94.7724 86.1313 93.9567 86.1313C93.2275 86.1313 92.6282 85.9263 92.1588 85.5161C91.694 85.1014 91.4615 84.5773 91.4615 83.9438C91.4615 83.1737 91.7532 82.5767 92.3365 82.1528C92.9244 81.7244 93.7493 81.5103 94.8112 81.5103H96.0416V80.9292C96.0416 80.4871 95.9095 80.1362 95.6451 79.8765C95.3808 79.6121 94.9912 79.48 94.4762 79.48C94.025 79.48 93.6468 79.5939 93.3414 79.8218C93.0361 80.0496 92.8834 80.3254 92.8834 80.6489H91.6119C91.6119 80.2798 91.7418 79.9243 92.0016 79.5825C92.2659 79.2362 92.6214 78.9627 93.068 78.7622C93.5192 78.5617 94.0136 78.4614 94.5514 78.4614C95.4036 78.4614 96.0712 78.6756 96.5543 79.104C97.0374 79.5278 97.288 80.1134 97.3063 80.8608V84.2651C97.3063 84.9442 97.3929 85.4842 97.566 85.8853V85.9946H96.2399ZM94.1412 85.0308C94.5377 85.0308 94.9137 84.9282 95.2692 84.7231C95.6246 84.5181 95.8821 84.2515 96.0416 83.9233V82.4058H95.0504C93.5009 82.4058 92.7262 82.8592 92.7262 83.7661C92.7262 84.1626 92.8584 84.4725 93.1227 84.6958C93.387 84.9191 93.7265 85.0308 94.1412 85.0308ZM100.913 85.9946H99.6481V75.4946H100.913V85.9946ZM108.29 85.9946H107.025V75.4946H108.29V85.9946ZM110.235 82.228C110.235 81.5034 110.376 80.8517 110.659 80.2729C110.946 79.6942 111.342 79.2476 111.848 78.9331C112.359 78.6187 112.94 78.4614 113.591 78.4614C114.599 78.4614 115.412 78.8101 116.032 79.5073C116.656 80.2046 116.968 81.132 116.968 82.2896V82.3784C116.968 83.0985 116.829 83.7456 116.551 84.3198C116.278 84.8895 115.884 85.3338 115.369 85.6528C114.858 85.9718 114.27 86.1313 113.605 86.1313C112.602 86.1313 111.789 85.7827 111.165 85.0854C110.545 84.3882 110.235 83.4653 110.235 82.3169V82.228ZM111.506 82.3784C111.506 83.1987 111.696 83.8573 112.074 84.354C112.457 84.8507 112.967 85.0991 113.605 85.0991C114.248 85.0991 114.758 84.8485 115.136 84.3472C115.515 83.8413 115.704 83.1349 115.704 82.228C115.704 81.4168 115.51 80.7606 115.123 80.2593C114.74 79.7534 114.229 79.5005 113.591 79.5005C112.967 79.5005 112.464 79.7489 112.081 80.2456C111.698 80.7424 111.506 81.4533 111.506 82.3784ZM123.371 85.9946C123.298 85.8488 123.239 85.589 123.193 85.2153C122.605 85.826 121.903 86.1313 121.088 86.1313C120.358 86.1313 119.759 85.9263 119.29 85.5161C118.825 85.1014 118.592 84.5773 118.592 83.9438C118.592 83.1737 118.884 82.5767 119.467 82.1528C120.055 81.7244 120.88 81.5103 121.942 81.5103H123.172V80.9292C123.172 80.4871 123.04 80.1362 122.776 79.8765C122.512 79.6121 122.122 79.48 121.607 79.48C121.156 79.48 120.778 79.5939 120.472 79.8218C120.167 80.0496 120.014 80.3254 120.014 80.6489H118.743C118.743 80.2798 118.873 79.9243 119.132 79.5825C119.397 79.2362 119.752 78.9627 120.199 78.7622C120.65 78.5617 121.144 78.4614 121.682 78.4614C122.534 78.4614 123.202 78.6756 123.685 79.104C124.168 79.5278 124.419 80.1134 124.437 80.8608V84.2651C124.437 84.9442 124.524 85.4842 124.697 85.8853V85.9946H123.371ZM121.272 85.0308C121.669 85.0308 122.045 84.9282 122.4 84.7231C122.755 84.5181 123.013 84.2515 123.172 83.9233V82.4058H122.181C120.632 82.4058 119.857 82.8592 119.857 83.7661C119.857 84.1626 119.989 84.4725 120.254 84.6958C120.518 84.9191 120.857 85.0308 121.272 85.0308ZM127.866 78.5981L127.907 79.5278C128.472 78.8169 129.21 78.4614 130.122 78.4614C131.685 78.4614 132.473 79.3433 132.487 81.1069V85.9946H131.222V81.1001C131.218 80.5669 131.095 80.1727 130.853 79.9175C130.616 79.6623 130.245 79.5347 129.739 79.5347C129.329 79.5347 128.969 79.644 128.659 79.8628C128.349 80.0815 128.107 80.3687 127.934 80.7241V85.9946H126.67V78.5981H127.866Z" fill="black"/>
<path d="M223.435 58.6519H224.816V59.6841H223.435V61.9946H222.164V59.6841H217.631V58.939L222.089 52.0415H223.435V58.6519ZM219.067 58.6519H222.164V53.771L222.013 54.0444L219.067 58.6519ZM226.365 61.3315C226.365 61.1128 226.429 60.9305 226.556 60.7847C226.688 60.6388 226.884 60.5659 227.144 60.5659C227.404 60.5659 227.6 60.6388 227.732 60.7847C227.869 60.9305 227.937 61.1128 227.937 61.3315C227.937 61.5412 227.869 61.7166 227.732 61.8579C227.6 61.9992 227.404 62.0698 227.144 62.0698C226.884 62.0698 226.688 61.9992 226.556 61.8579C226.429 61.7166 226.365 61.5412 226.365 61.3315ZM230.73 57.0044L231.236 52.0415H236.336V53.2104H232.309L232.008 55.9243C232.496 55.6372 233.05 55.4937 233.67 55.4937C234.576 55.4937 235.297 55.7944 235.83 56.396C236.363 56.993 236.63 57.8019 236.63 58.8228C236.63 59.8481 236.352 60.6571 235.796 61.2495C235.244 61.8374 234.472 62.1313 233.478 62.1313C232.599 62.1313 231.881 61.8875 231.325 61.3999C230.769 60.9123 230.452 60.2378 230.375 59.3765H231.571C231.648 59.9461 231.851 60.3768 232.179 60.6685C232.507 60.9556 232.94 61.0991 233.478 61.0991C234.066 61.0991 234.526 60.8986 234.859 60.4976C235.196 60.0965 235.365 59.5428 235.365 58.8364C235.365 58.1711 235.183 57.6379 234.818 57.2368C234.458 56.8312 233.977 56.6284 233.376 56.6284C232.824 56.6284 232.391 56.7492 232.077 56.9907L231.742 57.2642L230.73 57.0044ZM244.502 57.7495C244.502 59.2306 244.249 60.3312 243.743 61.0513C243.237 61.7713 242.446 62.1313 241.371 62.1313C240.309 62.1313 239.523 61.7804 239.012 61.0786C238.502 60.3722 238.238 59.3195 238.219 57.9204V56.2319C238.219 54.769 238.472 53.6821 238.978 52.9712C239.484 52.2603 240.277 51.9048 241.357 51.9048C242.428 51.9048 243.216 52.2489 243.722 52.937C244.228 53.6206 244.488 54.6779 244.502 56.1089V57.7495ZM243.237 56.02C243.237 54.9491 243.087 54.1698 242.786 53.6821C242.485 53.1899 242.009 52.9438 241.357 52.9438C240.71 52.9438 240.238 53.1877 239.942 53.6753C239.646 54.1629 239.493 54.9126 239.484 55.9243V57.9478C239.484 59.0233 239.639 59.8185 239.949 60.3335C240.263 60.8439 240.737 61.0991 241.371 61.0991C241.995 61.0991 242.458 60.8576 242.758 60.3745C243.064 59.8914 243.223 59.1304 243.237 58.0913V56.02ZM246.262 53.9556C246.262 53.3586 246.451 52.8664 246.83 52.479C247.213 52.0916 247.702 51.8979 248.299 51.8979C248.906 51.8979 249.395 52.0939 249.769 52.4858C250.147 52.8732 250.337 53.3768 250.337 53.9966V54.4819C250.337 55.0835 250.145 55.5757 249.762 55.9585C249.384 56.3368 248.901 56.5259 248.313 56.5259C247.721 56.5259 247.231 56.3368 246.843 55.9585C246.456 55.5757 246.262 55.0675 246.262 54.4341V53.9556ZM247.206 54.4819C247.206 54.8374 247.306 55.1313 247.506 55.3638C247.707 55.5916 247.976 55.7056 248.313 55.7056C248.637 55.7056 248.896 55.5939 249.092 55.3706C249.293 55.1473 249.393 54.842 249.393 54.4546V53.9556C249.393 53.6001 249.295 53.3062 249.099 53.0737C248.903 52.8413 248.637 52.7251 248.299 52.7251C247.962 52.7251 247.696 52.8413 247.5 53.0737C247.304 53.3062 247.206 53.6092 247.206 53.9829V54.4819ZM251.109 59.5542C251.109 58.9572 251.298 58.4673 251.676 58.0845C252.059 57.6971 252.549 57.5034 253.146 57.5034C253.743 57.5034 254.233 57.6948 254.616 58.0776C254.999 58.4604 255.19 58.9686 255.19 59.6021V60.0874C255.19 60.6844 254.999 61.1766 254.616 61.564C254.238 61.9468 253.752 62.1382 253.16 62.1382C252.567 62.1382 252.077 61.9491 251.69 61.5708C251.303 61.188 251.109 60.6799 251.109 60.0464V59.5542ZM252.052 60.0874C252.052 60.4474 252.153 60.7437 252.353 60.9761C252.554 61.2039 252.823 61.3179 253.16 61.3179C253.488 61.3179 253.75 61.2062 253.946 60.9829C254.142 60.755 254.24 60.4474 254.24 60.0601V59.5542C254.24 59.1942 254.14 58.9002 253.939 58.6724C253.743 58.4445 253.479 58.3306 253.146 58.3306C252.823 58.3306 252.558 58.4445 252.353 58.6724C252.153 58.8957 252.052 59.1987 252.052 59.5815V60.0874ZM248.6 61.2427L247.882 60.7915L252.743 53.0122L253.461 53.4634L248.6 61.2427Z" fill="black"/>
<path d="M210.234 83.4312C210.234 83.0119 210.086 82.6587 209.79 82.3716C209.498 82.0845 209.004 81.8247 208.306 81.5923C207.336 81.2961 206.627 80.911 206.18 80.437C205.738 79.9585 205.517 79.3524 205.517 78.6187C205.517 77.8713 205.734 77.2583 206.167 76.7798C206.604 76.3013 207.203 76.0164 207.964 75.9253V74.4282H208.983V75.9321C209.749 76.0369 210.343 76.3582 210.767 76.896C211.196 77.4338 211.41 78.1698 211.41 79.104H210.152C210.152 78.4614 209.999 77.951 209.694 77.5728C209.389 77.1945 208.976 77.0054 208.457 77.0054C207.914 77.0054 207.5 77.1466 207.213 77.4292C206.925 77.7072 206.782 78.0968 206.782 78.5981C206.782 79.063 206.932 79.4344 207.233 79.7124C207.538 79.9858 208.037 80.2365 208.73 80.4644C209.427 80.6877 209.97 80.936 210.357 81.2095C210.749 81.4784 211.036 81.7928 211.218 82.1528C211.405 82.5129 211.499 82.9344 211.499 83.4175C211.499 84.1877 211.266 84.8075 210.801 85.2769C210.341 85.7463 209.694 86.0243 208.86 86.1108V87.4165H207.848V86.1108C207.001 86.0334 206.335 85.7326 205.852 85.2085C205.374 84.6799 205.134 83.9644 205.134 83.062H206.399C206.399 83.6955 206.565 84.1831 206.898 84.5249C207.231 84.8667 207.702 85.0376 208.313 85.0376C208.91 85.0376 209.38 84.894 209.721 84.6069C210.063 84.3198 210.234 83.9279 210.234 83.4312ZM219.842 85.9946H213.321V85.0854L216.766 81.2573C217.277 80.6785 217.628 80.2091 217.819 79.8491C218.015 79.4845 218.113 79.1086 218.113 78.7212C218.113 78.2017 217.956 77.7756 217.641 77.4429C217.327 77.1102 216.908 76.9438 216.383 76.9438C215.755 76.9438 215.265 77.1239 214.914 77.4839C214.567 77.8394 214.394 78.3361 214.394 78.9741H213.13C213.13 78.0581 213.423 77.3175 214.011 76.7524C214.604 76.1873 215.394 75.9048 216.383 75.9048C217.309 75.9048 218.04 76.1486 218.578 76.6362C219.116 77.1193 219.384 77.7642 219.384 78.5708C219.384 79.5506 218.76 80.7173 217.511 82.0708L214.845 84.9624H219.842V85.9946ZM227.673 81.7495C227.673 83.2306 227.421 84.3312 226.915 85.0513C226.409 85.7713 225.618 86.1313 224.543 86.1313C223.481 86.1313 222.695 85.7804 222.184 85.0786C221.674 84.3722 221.409 83.3195 221.391 81.9204V80.2319C221.391 78.769 221.644 77.6821 222.15 76.9712C222.656 76.2603 223.449 75.9048 224.529 75.9048C225.6 75.9048 226.388 76.2489 226.894 76.937C227.4 77.6206 227.66 78.6779 227.673 80.1089V81.7495ZM226.409 80.02C226.409 78.9491 226.258 78.1698 225.958 77.6821C225.657 77.1899 225.181 76.9438 224.529 76.9438C223.882 76.9438 223.41 77.1877 223.114 77.6753C222.818 78.1629 222.665 78.9126 222.656 79.9243V81.9478C222.656 83.0233 222.811 83.8185 223.121 84.3335C223.435 84.8439 223.909 85.0991 224.543 85.0991C225.167 85.0991 225.63 84.8576 225.93 84.3745C226.236 83.8914 226.395 83.1304 226.409 82.0913V80.02ZM229.632 87.9771L228.915 87.4849C229.343 86.8879 229.566 86.2726 229.585 85.6392V84.4976H230.822V85.4888C230.822 85.9491 230.708 86.4093 230.48 86.8696C230.257 87.3299 229.974 87.6991 229.632 87.9771ZM238.783 81.7495C238.783 83.2306 238.53 84.3312 238.024 85.0513C237.518 85.7713 236.727 86.1313 235.652 86.1313C234.59 86.1313 233.804 85.7804 233.294 85.0786C232.783 84.3722 232.519 83.3195 232.501 81.9204V80.2319C232.501 78.769 232.754 77.6821 233.259 76.9712C233.765 76.2603 234.558 75.9048 235.638 75.9048C236.709 75.9048 237.498 76.2489 238.004 76.937C238.509 77.6206 238.769 78.6779 238.783 80.1089V81.7495ZM237.518 80.02C237.518 78.9491 237.368 78.1698 237.067 77.6821C236.766 77.1899 236.29 76.9438 235.638 76.9438C234.991 76.9438 234.519 77.1877 234.223 77.6753C233.927 78.1629 233.774 78.9126 233.765 79.9243V81.9478C233.765 83.0233 233.92 83.8185 234.23 84.3335C234.545 84.8439 235.019 85.0991 235.652 85.0991C236.276 85.0991 236.739 84.8576 237.04 84.3745C237.345 83.8914 237.505 83.1304 237.518 82.0913V80.02ZM246.894 81.7495C246.894 83.2306 246.641 84.3312 246.135 85.0513C245.63 85.7713 244.839 86.1313 243.763 86.1313C242.701 86.1313 241.915 85.7804 241.405 85.0786C240.894 84.3722 240.63 83.3195 240.612 81.9204V80.2319C240.612 78.769 240.865 77.6821 241.371 76.9712C241.877 76.2603 242.67 75.9048 243.75 75.9048C244.821 75.9048 245.609 76.2489 246.115 76.937C246.621 77.6206 246.88 78.6779 246.894 80.1089V81.7495ZM245.63 80.02C245.63 78.9491 245.479 78.1698 245.178 77.6821C244.878 77.1899 244.401 76.9438 243.75 76.9438C243.102 76.9438 242.631 77.1877 242.335 77.6753C242.038 78.1629 241.886 78.9126 241.877 79.9243V81.9478C241.877 83.0233 242.032 83.8185 242.341 84.3335C242.656 84.8439 243.13 85.0991 243.763 85.0991C244.388 85.0991 244.85 84.8576 245.151 84.3745C245.456 83.8914 245.616 83.1304 245.63 82.0913V80.02ZM255.005 81.7495C255.005 83.2306 254.753 84.3312 254.247 85.0513C253.741 85.7713 252.95 86.1313 251.875 86.1313C250.813 86.1313 250.027 85.7804 249.516 85.0786C249.006 84.3722 248.741 83.3195 248.723 81.9204V80.2319C248.723 78.769 248.976 77.6821 249.482 76.9712C249.988 76.2603 250.781 75.9048 251.861 75.9048C252.932 75.9048 253.72 76.2489 254.226 76.937C254.732 77.6206 254.992 78.6779 255.005 80.1089V81.7495ZM253.741 80.02C253.741 78.9491 253.59 78.1698 253.29 77.6821C252.989 77.1899 252.513 76.9438 251.861 76.9438C251.214 76.9438 250.742 77.1877 250.446 77.6753C250.15 78.1629 249.997 78.9126 249.988 79.9243V81.9478C249.988 83.0233 250.143 83.8185 250.453 84.3335C250.767 84.8439 251.241 85.0991 251.875 85.0991C252.499 85.0991 252.962 84.8576 253.262 84.3745C253.568 83.8914 253.727 83.1304 253.741 82.0913V80.02Z" fill="black"/>
<path d="M51.649 100.042L54.903 108.163L58.1569 100.042H59.859V109.995H58.5465V106.119L58.6696 101.935L55.402 109.995H54.3971L51.1364 101.956L51.2662 106.119V109.995H49.9537V100.042H51.649ZM61.8932 106.228C61.8932 105.503 62.0345 104.852 62.317 104.273C62.6041 103.694 63.0006 103.248 63.5065 102.933C64.0169 102.619 64.5979 102.461 65.2496 102.461C66.2568 102.461 67.0703 102.81 67.6901 103.507C68.3144 104.205 68.6266 105.132 68.6266 106.29V106.378C68.6266 107.098 68.4876 107.746 68.2096 108.32C67.9362 108.889 67.542 109.334 67.027 109.653C66.5166 109.972 65.9287 110.131 65.2633 110.131C64.2607 110.131 63.4472 109.783 62.8229 109.085C62.2031 108.388 61.8932 107.465 61.8932 106.317V106.228ZM63.1647 106.378C63.1647 107.199 63.3538 107.857 63.7321 108.354C64.1149 108.851 64.6253 109.099 65.2633 109.099C65.9059 109.099 66.4163 108.848 66.7946 108.347C67.1728 107.841 67.3619 107.135 67.3619 106.228C67.3619 105.417 67.1683 104.761 66.7809 104.259C66.3981 103.753 65.8877 103.5 65.2496 103.5C64.6253 103.5 64.1217 103.749 63.7389 104.246C63.3561 104.742 63.1647 105.453 63.1647 106.378ZM71.6588 102.598L71.6998 103.528C72.2649 102.817 73.0032 102.461 73.9147 102.461C75.4778 102.461 76.2662 103.343 76.2799 105.107V109.995H75.0153V105.1C75.0107 104.567 74.8877 104.173 74.6461 103.917C74.4091 103.662 74.0377 103.535 73.5319 103.535C73.1217 103.535 72.7617 103.644 72.4518 103.863C72.1419 104.082 71.9003 104.369 71.7272 104.724V109.995H70.4625V102.598H71.6588ZM80.153 100.807V102.598H81.5338V103.576H80.153V108.163C80.153 108.459 80.2145 108.682 80.3375 108.833C80.4606 108.978 80.6702 109.051 80.9664 109.051C81.1123 109.051 81.3128 109.024 81.568 108.969V109.995C81.2353 110.086 80.9117 110.131 80.5973 110.131C80.0322 110.131 79.6061 109.96 79.319 109.619C79.0319 109.277 78.8883 108.792 78.8883 108.163V103.576H77.5416V102.598H78.8883V100.807H80.153ZM84.5319 103.494C85.0924 102.806 85.8216 102.461 86.7194 102.461C88.2825 102.461 89.0709 103.343 89.0846 105.107V109.995H87.8199V105.1C87.8154 104.567 87.6923 104.173 87.4508 103.917C87.2138 103.662 86.8424 103.535 86.3365 103.535C85.9264 103.535 85.5664 103.644 85.2565 103.863C84.9466 104.082 84.705 104.369 84.5319 104.724V109.995H83.2672V99.4946H84.5319V103.494ZM92.6022 109.995H91.3375V99.4946H92.6022V109.995ZM97.3024 108.142L99.025 102.598H100.379L97.4049 111.136C96.9446 112.367 96.2132 112.982 95.2106 112.982L94.9713 112.961L94.4996 112.873V111.847L94.8414 111.875C95.2698 111.875 95.6025 111.788 95.8395 111.615C96.081 111.442 96.2793 111.125 96.4342 110.665L96.7145 109.913L94.0758 102.598H95.4567L97.3024 108.142ZM111.734 106.378C111.734 107.504 111.477 108.411 110.962 109.099C110.447 109.787 109.749 110.131 108.87 110.131C107.972 110.131 107.266 109.847 106.751 109.277V112.838H105.486V102.598H106.641L106.703 103.418C107.218 102.78 107.933 102.461 108.849 102.461C109.738 102.461 110.44 102.796 110.955 103.466C111.474 104.136 111.734 105.068 111.734 106.262V106.378ZM110.469 106.235C110.469 105.401 110.292 104.742 109.936 104.259C109.581 103.776 109.093 103.535 108.473 103.535C107.708 103.535 107.133 103.874 106.751 104.553V108.087C107.129 108.762 107.708 109.099 108.487 109.099C109.093 109.099 109.574 108.86 109.929 108.381C110.289 107.898 110.469 107.183 110.469 106.235ZM118.164 109.995C118.091 109.849 118.032 109.589 117.986 109.215C117.398 109.826 116.696 110.131 115.88 110.131C115.151 110.131 114.552 109.926 114.083 109.516C113.618 109.101 113.385 108.577 113.385 107.944C113.385 107.174 113.677 106.577 114.26 106.153C114.848 105.724 115.673 105.51 116.735 105.51H117.965V104.929C117.965 104.487 117.833 104.136 117.569 103.876C117.305 103.612 116.915 103.48 116.4 103.48C115.949 103.48 115.571 103.594 115.265 103.822C114.96 104.05 114.807 104.325 114.807 104.649H113.536C113.536 104.28 113.666 103.924 113.925 103.583C114.19 103.236 114.545 102.963 114.992 102.762C115.443 102.562 115.937 102.461 116.475 102.461C117.327 102.461 117.995 102.676 118.478 103.104C118.961 103.528 119.212 104.113 119.23 104.861V108.265C119.23 108.944 119.317 109.484 119.49 109.885V109.995H118.164ZM116.065 109.031C116.462 109.031 116.838 108.928 117.193 108.723C117.548 108.518 117.806 108.251 117.965 107.923V106.406H116.974C115.425 106.406 114.65 106.859 114.65 107.766C114.65 108.163 114.782 108.472 115.047 108.696C115.311 108.919 115.65 109.031 116.065 109.031ZM123.773 108.142L125.496 102.598H126.849L123.876 111.136C123.415 112.367 122.684 112.982 121.681 112.982L121.442 112.961L120.97 112.873V111.847L121.312 111.875C121.741 111.875 122.073 111.788 122.31 111.615C122.552 111.442 122.75 111.125 122.905 110.665L123.185 109.913L120.547 102.598H121.927L123.773 108.142ZM129.423 102.598L129.458 103.418C130 102.78 130.731 102.461 131.652 102.461C132.686 102.461 133.391 102.858 133.764 103.651C134.01 103.295 134.329 103.008 134.721 102.79C135.118 102.571 135.585 102.461 136.123 102.461C137.745 102.461 138.57 103.32 138.597 105.039V109.995H137.333V105.114C137.333 104.585 137.212 104.191 136.97 103.931C136.729 103.667 136.323 103.535 135.754 103.535C135.284 103.535 134.894 103.676 134.585 103.958C134.275 104.236 134.095 104.612 134.045 105.086V109.995H132.773V105.148C132.773 104.072 132.247 103.535 131.194 103.535C130.365 103.535 129.797 103.888 129.492 104.594V109.995H128.227V102.598H129.423ZM143.831 110.131C142.828 110.131 142.012 109.803 141.383 109.147C140.755 108.486 140.44 107.604 140.44 106.501V106.269C140.44 105.535 140.579 104.881 140.857 104.307C141.14 103.728 141.532 103.277 142.033 102.954C142.539 102.625 143.086 102.461 143.673 102.461C144.635 102.461 145.382 102.778 145.916 103.412C146.449 104.045 146.715 104.952 146.715 106.132V106.659H141.705C141.723 107.388 141.935 107.978 142.34 108.429C142.751 108.876 143.27 109.099 143.899 109.099C144.346 109.099 144.724 109.008 145.034 108.826C145.344 108.643 145.615 108.402 145.847 108.101L146.62 108.703C146 109.655 145.07 110.131 143.831 110.131ZM143.673 103.5C143.163 103.5 142.735 103.687 142.388 104.061C142.042 104.43 141.828 104.95 141.746 105.62H145.451V105.524C145.414 104.881 145.241 104.385 144.931 104.034C144.621 103.678 144.202 103.5 143.673 103.5ZM149.631 102.598L149.672 103.528C150.238 102.817 150.976 102.461 151.887 102.461C153.45 102.461 154.239 103.343 154.253 105.107V109.995H152.988V105.1C152.983 104.567 152.86 104.173 152.619 103.917C152.382 103.662 152.01 103.535 151.505 103.535C151.094 103.535 150.734 103.644 150.424 103.863C150.115 104.082 149.873 104.369 149.7 104.724V109.995H148.435V102.598H149.631ZM158.126 100.807V102.598H159.506V103.576H158.126V108.163C158.126 108.459 158.187 108.682 158.31 108.833C158.433 108.978 158.643 109.051 158.939 109.051C159.085 109.051 159.285 109.024 159.541 108.969V109.995C159.208 110.086 158.884 110.131 158.57 110.131C158.005 110.131 157.579 109.96 157.292 109.619C157.005 109.277 156.861 108.792 156.861 108.163V103.576H155.514V102.598H156.861V100.807H158.126Z" fill="black"/>
<path d="M229.455 107.431C229.455 107.012 229.307 106.659 229.01 106.372C228.719 106.084 228.224 105.825 227.527 105.592C226.556 105.296 225.848 104.911 225.401 104.437C224.959 103.958 224.738 103.352 224.738 102.619C224.738 101.871 224.954 101.258 225.387 100.78C225.825 100.301 226.424 100.016 227.185 99.9253V98.4282H228.204V99.9321C228.969 100.037 229.564 100.358 229.988 100.896C230.416 101.434 230.63 102.17 230.63 103.104H229.373C229.373 102.461 229.22 101.951 228.915 101.573C228.609 101.194 228.197 101.005 227.677 101.005C227.135 101.005 226.72 101.147 226.433 101.429C226.146 101.707 226.003 102.097 226.003 102.598C226.003 103.063 226.153 103.434 226.454 103.712C226.759 103.986 227.258 104.236 227.951 104.464C228.648 104.688 229.19 104.936 229.578 105.209C229.97 105.478 230.257 105.793 230.439 106.153C230.626 106.513 230.719 106.934 230.719 107.417C230.719 108.188 230.487 108.807 230.022 109.277C229.562 109.746 228.915 110.024 228.081 110.111V111.417H227.069V110.111C226.221 110.033 225.556 109.733 225.073 109.208C224.594 108.68 224.355 107.964 224.355 107.062H225.62C225.62 107.695 225.786 108.183 226.119 108.525C226.451 108.867 226.923 109.038 227.534 109.038C228.131 109.038 228.6 108.894 228.942 108.607C229.284 108.32 229.455 107.928 229.455 107.431ZM234.38 104.403H235.331C235.928 104.394 236.397 104.236 236.739 103.931C237.081 103.626 237.252 103.213 237.252 102.694C237.252 101.527 236.671 100.944 235.508 100.944C234.962 100.944 234.524 101.101 234.196 101.416C233.872 101.725 233.711 102.138 233.711 102.653H232.446C232.446 101.864 232.733 101.21 233.307 100.691C233.886 100.167 234.62 99.9048 235.508 99.9048C236.447 99.9048 237.183 100.153 237.716 100.65C238.25 101.147 238.516 101.837 238.516 102.721C238.516 103.154 238.375 103.573 238.092 103.979C237.814 104.385 237.434 104.688 236.951 104.888C237.498 105.061 237.919 105.348 238.215 105.75C238.516 106.151 238.667 106.64 238.667 107.219C238.667 108.112 238.375 108.821 237.792 109.345C237.208 109.869 236.45 110.131 235.515 110.131C234.581 110.131 233.82 109.878 233.232 109.373C232.649 108.867 232.357 108.199 232.357 107.37H233.629C233.629 107.894 233.799 108.313 234.141 108.627C234.483 108.942 234.941 109.099 235.515 109.099C236.126 109.099 236.593 108.94 236.917 108.621C237.24 108.302 237.402 107.844 237.402 107.247C237.402 106.668 237.224 106.223 236.869 105.914C236.513 105.604 236.001 105.444 235.331 105.435H234.38V104.403ZM244.809 109.995H243.538V101.566L240.988 102.502V101.354L244.611 99.9937H244.809V109.995ZM255.286 109.995H248.764V109.085L252.21 105.257C252.72 104.679 253.071 104.209 253.262 103.849C253.458 103.485 253.556 103.109 253.556 102.721C253.556 102.202 253.399 101.776 253.085 101.443C252.77 101.11 252.351 100.944 251.827 100.944C251.198 100.944 250.708 101.124 250.357 101.484C250.011 101.839 249.838 102.336 249.838 102.974H248.573C248.573 102.058 248.867 101.318 249.455 100.752C250.047 100.187 250.838 99.9048 251.827 99.9048C252.752 99.9048 253.483 100.149 254.021 100.636C254.559 101.119 254.828 101.764 254.828 102.571C254.828 103.551 254.203 104.717 252.955 106.071L250.289 108.962H255.286V109.995Z" fill="black"/>
<path d="M51.2662 130.098V133.995H49.9537V124.042H53.6246C54.7138 124.042 55.566 124.319 56.1813 124.875C56.8011 125.431 57.111 126.167 57.111 127.083C57.111 128.05 56.8079 128.795 56.2018 129.319C55.6002 129.838 54.7366 130.098 53.611 130.098H51.2662ZM51.2662 129.025H53.6246C54.3265 129.025 54.8642 128.861 55.2379 128.533C55.6116 128.2 55.7985 127.722 55.7985 127.097C55.7985 126.505 55.6116 126.031 55.2379 125.675C54.8642 125.32 54.3515 125.135 53.6998 125.122H51.2662V129.025ZM63.3219 133.995C63.249 133.849 63.1897 133.589 63.1442 133.215C62.5563 133.826 61.8545 134.131 61.0387 134.131C60.3095 134.131 59.7102 133.926 59.2408 133.516C58.776 133.101 58.5436 132.577 58.5436 131.944C58.5436 131.174 58.8352 130.577 59.4186 130.153C60.0065 129.724 60.8313 129.51 61.8932 129.51H63.1237V128.929C63.1237 128.487 62.9915 128.136 62.7272 127.876C62.4628 127.612 62.0732 127.48 61.5582 127.48C61.1071 127.48 60.7288 127.594 60.4235 127.822C60.1181 128.05 59.9655 128.325 59.9655 128.649H58.694C58.694 128.28 58.8239 127.924 59.0836 127.583C59.3479 127.236 59.7034 126.963 60.15 126.762C60.6012 126.562 61.0957 126.461 61.6334 126.461C62.4856 126.461 63.1533 126.676 63.6364 127.104C64.1194 127.528 64.3701 128.113 64.3883 128.861V132.265C64.3883 132.944 64.4749 133.484 64.6481 133.885V133.995H63.3219ZM61.2233 133.031C61.6198 133.031 61.9957 132.928 62.3512 132.723C62.7067 132.518 62.9642 132.251 63.1237 131.923V130.406H62.1324C60.583 130.406 59.8082 130.859 59.8082 131.766C59.8082 132.163 59.9404 132.472 60.2047 132.696C60.469 132.919 60.8086 133.031 61.2233 133.031ZM68.9313 132.142L70.6539 126.598H72.0074L69.0338 135.136C68.5735 136.367 67.8421 136.982 66.8395 136.982L66.6002 136.961L66.1285 136.873V135.847L66.4703 135.875C66.8987 135.875 67.2314 135.788 67.4684 135.615C67.7099 135.442 67.9082 135.125 68.0631 134.665L68.3434 133.913L65.7047 126.598H67.0856L68.9313 132.142ZM72.9479 130.228C72.9479 129.503 73.0892 128.852 73.3717 128.273C73.6588 127.694 74.0553 127.248 74.5612 126.933C75.0716 126.619 75.6526 126.461 76.3043 126.461C77.3115 126.461 78.125 126.81 78.7448 127.507C79.3691 128.205 79.6813 129.132 79.6813 130.29V130.378C79.6813 131.098 79.5423 131.746 79.2643 132.32C78.9908 132.889 78.5966 133.334 78.0817 133.653C77.5712 133.972 76.9834 134.131 76.318 134.131C75.3154 134.131 74.5019 133.783 73.8776 133.085C73.2578 132.388 72.9479 131.465 72.9479 130.317V130.228ZM74.2194 130.378C74.2194 131.199 74.4085 131.857 74.7867 132.354C75.1696 132.851 75.68 133.099 76.318 133.099C76.9606 133.099 77.471 132.848 77.8492 132.347C78.2275 131.841 78.4166 131.135 78.4166 130.228C78.4166 129.417 78.2229 128.761 77.8356 128.259C77.4528 127.753 76.9423 127.5 76.3043 127.5C75.68 127.5 75.1764 127.749 74.7936 128.246C74.4108 128.742 74.2194 129.453 74.2194 130.378ZM82.1393 133.995V127.576H80.9703V126.598H82.1393V125.839C82.1393 125.046 82.3512 124.433 82.775 124C83.1989 123.568 83.7981 123.351 84.5729 123.351C84.8645 123.351 85.1539 123.39 85.441 123.467L85.3727 124.493C85.1585 124.452 84.9306 124.431 84.6891 124.431C84.2789 124.431 83.9622 124.552 83.7389 124.793C83.5156 125.03 83.4039 125.372 83.4039 125.819V126.598H84.983V127.576H83.4039V133.995H82.1393ZM87.2565 133.995V127.576H86.0875V126.598H87.2565V125.839C87.2565 125.046 87.4684 124.433 87.8922 124C88.316 123.568 88.9153 123.351 89.6901 123.351C89.9817 123.351 90.2711 123.39 90.5582 123.467L90.4899 124.493C90.2757 124.452 90.0478 124.431 89.8063 124.431C89.3961 124.431 89.0794 124.552 88.8561 124.793C88.6328 125.03 88.5211 125.372 88.5211 125.819V126.598H90.1002V127.576H88.5211V133.995H87.2565ZM95.1666 130.235C95.1666 129.1 95.4355 128.189 95.9733 127.5C96.511 126.808 97.2151 126.461 98.0856 126.461C98.9515 126.461 99.6373 126.758 100.143 127.35V123.495H101.408V133.995H100.246L100.184 133.202C99.6783 133.821 98.9742 134.131 98.0719 134.131C97.2151 134.131 96.5156 133.78 95.9733 133.079C95.4355 132.377 95.1666 131.461 95.1666 130.331V130.235ZM96.4313 130.378C96.4313 131.217 96.6045 131.873 96.9508 132.347C97.2972 132.821 97.7757 133.058 98.3864 133.058C99.1884 133.058 99.774 132.698 100.143 131.978V128.581C99.7649 127.883 99.1839 127.535 98.4 127.535C97.7802 127.535 97.2972 127.774 96.9508 128.252C96.6045 128.731 96.4313 129.44 96.4313 130.378ZM108.193 133.995C108.12 133.849 108.061 133.589 108.015 133.215C107.427 133.826 106.726 134.131 105.91 134.131C105.181 134.131 104.581 133.926 104.112 133.516C103.647 133.101 103.415 132.577 103.415 131.944C103.415 131.174 103.706 130.577 104.29 130.153C104.878 129.724 105.702 129.51 106.764 129.51H107.995V128.929C107.995 128.487 107.863 128.136 107.598 127.876C107.334 127.612 106.944 127.48 106.429 127.48C105.978 127.48 105.6 127.594 105.295 127.822C104.989 128.05 104.837 128.325 104.837 128.649H103.565C103.565 128.28 103.695 127.924 103.955 127.583C104.219 127.236 104.575 126.963 105.021 126.762C105.472 126.562 105.967 126.461 106.505 126.461C107.357 126.461 108.024 126.676 108.507 127.104C108.991 127.528 109.241 128.113 109.259 128.861V132.265C109.259 132.944 109.346 133.484 109.519 133.885V133.995H108.193ZM106.094 133.031C106.491 133.031 106.867 132.928 107.222 132.723C107.578 132.518 107.835 132.251 107.995 131.923V130.406H107.004C105.454 130.406 104.679 130.859 104.679 131.766C104.679 132.163 104.811 132.472 105.076 132.696C105.34 132.919 105.68 133.031 106.094 133.031ZM113.208 124.807V126.598H114.589V127.576H113.208V132.163C113.208 132.459 113.269 132.682 113.392 132.833C113.515 132.978 113.725 133.051 114.021 133.051C114.167 133.051 114.367 133.024 114.623 132.969V133.995C114.29 134.086 113.966 134.131 113.652 134.131C113.087 134.131 112.661 133.96 112.374 133.619C112.087 133.277 111.943 132.792 111.943 132.163V127.576H110.596V126.598H111.943V124.807H113.208ZM119.391 134.131C118.389 134.131 117.573 133.803 116.944 133.147C116.315 132.486 116.001 131.604 116.001 130.501V130.269C116.001 129.535 116.14 128.881 116.418 128.307C116.7 127.728 117.092 127.277 117.593 126.954C118.099 126.625 118.646 126.461 119.234 126.461C120.196 126.461 120.943 126.778 121.476 127.412C122.009 128.045 122.276 128.952 122.276 130.132V130.659H117.265C117.283 131.388 117.495 131.978 117.901 132.429C118.311 132.876 118.831 133.099 119.46 133.099C119.906 133.099 120.284 133.008 120.594 132.826C120.904 132.643 121.175 132.402 121.408 132.101L122.18 132.703C121.561 133.655 120.631 134.131 119.391 134.131ZM119.234 127.5C118.724 127.5 118.295 127.687 117.949 128.061C117.602 128.43 117.388 128.95 117.306 129.62H121.011V129.524C120.975 128.881 120.802 128.385 120.492 128.034C120.182 127.678 119.763 127.5 119.234 127.5Z" fill="black"/>
<path d="M197.399 124.042L200.653 132.163L203.907 124.042H205.609V133.995H204.297V130.119L204.42 125.935L201.152 133.995H200.147L196.886 125.956L197.016 130.119V133.995H195.704V124.042H197.399ZM212.545 133.995C212.472 133.849 212.412 133.589 212.367 133.215C211.779 133.826 211.077 134.131 210.261 134.131C209.532 134.131 208.933 133.926 208.464 133.516C207.999 133.101 207.766 132.577 207.766 131.944C207.766 131.174 208.058 130.577 208.641 130.153C209.229 129.724 210.054 129.51 211.116 129.51H212.346V128.929C212.346 128.487 212.214 128.136 211.95 127.876C211.686 127.612 211.296 127.48 210.781 127.48C210.33 127.48 209.951 127.594 209.646 127.822C209.341 128.05 209.188 128.325 209.188 128.649H207.917C207.917 128.28 208.047 127.924 208.306 127.583C208.571 127.236 208.926 126.963 209.373 126.762C209.824 126.562 210.318 126.461 210.856 126.461C211.708 126.461 212.376 126.676 212.859 127.104C213.342 127.528 213.593 128.113 213.611 128.861V132.265C213.611 132.944 213.698 133.484 213.871 133.885V133.995H212.545ZM210.446 133.031C210.842 133.031 211.218 132.928 211.574 132.723C211.929 132.518 212.187 132.251 212.346 131.923V130.406H211.355C209.806 130.406 209.031 130.859 209.031 131.766C209.031 132.163 209.163 132.472 209.427 132.696C209.692 132.919 210.031 133.031 210.446 133.031ZM219.419 127.733C219.227 127.701 219.02 127.685 218.797 127.685C217.967 127.685 217.404 128.038 217.108 128.745V133.995H215.843V126.598H217.074L217.094 127.453C217.509 126.792 218.097 126.461 218.858 126.461C219.104 126.461 219.291 126.493 219.419 126.557V127.733ZM230.952 133.995H224.43V133.085L227.876 129.257C228.386 128.679 228.737 128.209 228.928 127.849C229.124 127.485 229.222 127.109 229.222 126.721C229.222 126.202 229.065 125.776 228.751 125.443C228.436 125.11 228.017 124.944 227.493 124.944C226.864 124.944 226.374 125.124 226.023 125.484C225.677 125.839 225.504 126.336 225.504 126.974H224.239C224.239 126.058 224.533 125.318 225.121 124.752C225.713 124.187 226.504 123.905 227.493 123.905C228.418 123.905 229.149 124.149 229.687 124.636C230.225 125.119 230.494 125.764 230.494 126.571C230.494 127.551 229.869 128.717 228.621 130.071L225.955 132.962H230.952V133.995ZM238.783 129.75C238.783 131.231 238.53 132.331 238.024 133.051C237.518 133.771 236.727 134.131 235.652 134.131C234.59 134.131 233.804 133.78 233.294 133.079C232.783 132.372 232.519 131.319 232.501 129.92V128.232C232.501 126.769 232.754 125.682 233.259 124.971C233.765 124.26 234.558 123.905 235.638 123.905C236.709 123.905 237.498 124.249 238.004 124.937C238.509 125.621 238.769 126.678 238.783 128.109V129.75ZM237.518 128.02C237.518 126.949 237.368 126.17 237.067 125.682C236.766 125.19 236.29 124.944 235.638 124.944C234.991 124.944 234.519 125.188 234.223 125.675C233.927 126.163 233.774 126.913 233.765 127.924V129.948C233.765 131.023 233.92 131.819 234.23 132.333C234.545 132.844 235.019 133.099 235.652 133.099C236.276 133.099 236.739 132.858 237.04 132.375C237.345 131.891 237.505 131.13 237.518 130.091V128.02ZM247.174 133.995H240.653V133.085L244.098 129.257C244.609 128.679 244.96 128.209 245.151 127.849C245.347 127.485 245.445 127.109 245.445 126.721C245.445 126.202 245.288 125.776 244.973 125.443C244.659 125.11 244.24 124.944 243.715 124.944C243.087 124.944 242.597 125.124 242.246 125.484C241.899 125.839 241.726 126.336 241.726 126.974H240.462C240.462 126.058 240.755 125.318 241.343 124.752C241.936 124.187 242.727 123.905 243.715 123.905C244.641 123.905 245.372 124.149 245.91 124.636C246.448 125.119 246.716 125.764 246.716 126.571C246.716 127.551 246.092 128.717 244.843 130.071L242.177 132.962H247.174V133.995ZM250.603 128.403H251.553C252.15 128.394 252.62 128.236 252.962 127.931C253.303 127.626 253.474 127.213 253.474 126.694C253.474 125.527 252.893 124.944 251.731 124.944C251.184 124.944 250.747 125.101 250.419 125.416C250.095 125.725 249.933 126.138 249.933 126.653H248.669C248.669 125.864 248.956 125.21 249.53 124.691C250.109 124.167 250.842 123.905 251.731 123.905C252.67 123.905 253.406 124.153 253.939 124.65C254.472 125.147 254.739 125.837 254.739 126.721C254.739 127.154 254.598 127.573 254.315 127.979C254.037 128.385 253.657 128.688 253.173 128.888C253.72 129.061 254.142 129.348 254.438 129.75C254.739 130.151 254.889 130.64 254.889 131.219C254.889 132.112 254.598 132.821 254.014 133.345C253.431 133.869 252.672 134.131 251.738 134.131C250.804 134.131 250.043 133.878 249.455 133.373C248.871 132.867 248.58 132.199 248.58 131.37H249.851C249.851 131.894 250.022 132.313 250.364 132.627C250.706 132.942 251.164 133.099 251.738 133.099C252.349 133.099 252.816 132.94 253.139 132.621C253.463 132.302 253.625 131.844 253.625 131.247C253.625 130.668 253.447 130.223 253.091 129.914C252.736 129.604 252.223 129.444 251.553 129.435H250.603V128.403Z" fill="black"/>
<path fill-rule="evenodd" clip-rule="evenodd" d="M24.7994 80.4915C21.7845 80.4915 18.0402 80.3509 16.6162 80.1839C15.8603 80.096 15.5791 79.7092 15.5791 79.0412V77.8634C15.5791 76.6768 15.8076 76.1143 16.4229 75.2969L17.3721 74.0575C17.5919 72.8797 18.1632 71.0515 18.5236 70.2692C18.8224 69.6451 19.385 69.2848 20.1497 69.1881C20.7561 69.109 22.4701 69.0387 24.7994 69.0387C27.1286 69.0387 28.8689 69.1178 29.4315 69.1881C30.2225 69.2848 30.7675 69.6539 31.0663 70.278C31.4443 71.0427 31.998 72.8621 32.2178 74.0575L33.1671 75.2969C33.7911 76.1143 34.0109 76.6768 34.0109 77.8634V79.0412C34.0109 79.7092 33.7296 80.096 32.9825 80.1839C31.5586 80.3509 27.8142 80.4915 24.7994 80.4915ZM19.0158 73.6884C18.6378 73.7059 18.4796 73.5389 18.5675 73.1786C18.7609 72.3348 19.1213 71.2273 19.3762 70.7878C19.6135 70.3483 19.9035 70.1637 20.4221 70.0934C21.011 70.0143 22.4525 69.9528 24.7994 69.9528C27.1462 69.9528 28.5789 70.0143 29.1766 70.0934C29.6952 70.1637 29.9764 70.3483 30.2225 70.7878C30.4774 71.2273 30.8378 72.3348 31.0312 73.1786C31.1103 73.5389 30.9609 73.7059 30.5741 73.6884C29.2908 73.6093 27.6648 73.5301 24.7994 73.5301C21.9339 73.5301 20.3079 73.6093 19.0158 73.6884ZM19.9123 77.8898C19.9123 78.7248 19.2795 79.3577 18.4357 79.3577C17.6007 79.3577 16.9678 78.7248 16.9678 77.8898C16.9678 77.046 17.6007 76.4131 18.4357 76.4131C19.2795 76.4131 19.9123 77.046 19.9123 77.8898ZM32.6309 77.8898C32.6309 78.7248 31.998 79.3577 31.1542 79.3577C30.3192 79.3577 29.6864 78.7248 29.6864 77.8898C29.6864 77.046 30.3192 76.4131 31.1542 76.4131C31.998 76.4131 32.6309 77.046 32.6309 77.8898ZM27.1725 78.9885H22.4262C21.7933 78.9885 21.3538 78.549 21.3538 77.9249C21.3538 77.3009 21.7933 76.8614 22.4262 76.8614H27.1725C27.7966 76.8614 28.2361 77.3009 28.2361 77.9249C28.2361 78.549 27.7966 78.9885 27.1725 78.9885Z" fill="#CED7DC"/>
<path fill-rule="evenodd" clip-rule="evenodd" d="M15.8164 84.3501H16.8799C17.5479 84.3501 18.0665 83.8316 18.0665 83.1636V81.7308C20.0002 81.8451 22.6371 81.9154 24.7994 81.9154C26.9528 81.9154 29.5897 81.8451 31.5234 81.7308V83.1636C31.5234 83.8316 32.042 84.3501 32.7188 84.3501H33.7735C34.4503 84.3501 34.9689 83.8316 34.9689 83.1636V80.8519C35.259 80.5091 35.4172 80.052 35.4172 79.4895V77.9425C35.4172 76.3956 35.1447 75.5254 34.3097 74.4706L33.5274 73.4862C33.2022 71.9041 32.6221 70.2428 32.3145 69.5924C31.8222 68.5552 30.873 67.94 29.66 67.773C29.0184 67.6851 27.1374 67.6411 24.7994 67.6411C22.4613 67.6411 20.5716 67.6939 19.9387 67.773C18.7257 67.9224 17.7677 68.5552 17.2842 69.5924C16.9766 70.2428 16.3965 71.9041 16.0713 73.4862L15.289 74.4706C14.454 75.5254 14.1815 76.3956 14.1815 77.9425V79.4895C14.1815 80.052 14.3397 80.5091 14.6298 80.8519V83.1636C14.6298 83.8316 15.1484 84.3501 15.8164 84.3501ZM24.7994 80.4915C21.7845 80.4915 18.0402 80.3509 16.6162 80.1839C15.8603 80.096 15.5791 79.7092 15.5791 79.0412V77.8634C15.5791 76.6768 15.8076 76.1143 16.4229 75.2969L17.3721 74.0575C17.5919 72.8797 18.1632 71.0515 18.5236 70.2692C18.8224 69.6451 19.385 69.2848 20.1497 69.1881C20.7561 69.109 22.4701 69.0387 24.7994 69.0387C27.1286 69.0387 28.8689 69.1178 29.4315 69.1881C30.2225 69.2848 30.7675 69.6539 31.0663 70.278C31.4443 71.0427 31.998 72.8621 32.2178 74.0575L33.1671 75.2969C33.7911 76.1143 34.0109 76.6768 34.0109 77.8634V79.0412C34.0109 79.7092 33.7296 80.096 32.9825 80.1839C31.5586 80.3509 27.8142 80.4915 24.7994 80.4915ZM18.5675 73.1786C18.4796 73.5389 18.6378 73.7059 19.0158 73.6884C20.3079 73.6093 21.9339 73.5301 24.7994 73.5301C27.6648 73.5301 29.2908 73.6093 30.5741 73.6884C30.9609 73.7059 31.1103 73.5389 31.0312 73.1786C30.8378 72.3348 30.4774 71.2273 30.2225 70.7878C29.9764 70.3483 29.6952 70.1637 29.1766 70.0934C28.5789 70.0143 27.1462 69.9528 24.7994 69.9528C22.4525 69.9528 21.011 70.0143 20.4221 70.0934C19.9035 70.1637 19.6135 70.3483 19.3762 70.7878C19.1213 71.2273 18.7609 72.3348 18.5675 73.1786ZM27.1725 78.9885C27.7966 78.9885 28.2361 78.549 28.2361 77.9249C28.2361 77.3009 27.7966 76.8614 27.1725 76.8614H22.4262C21.7933 76.8614 21.3538 77.3009 21.3538 77.9249C21.3538 78.549 21.7933 78.9885 22.4262 78.9885H27.1725Z" fill="#CED7DC"/>
<path fill-rule="evenodd" clip-rule="evenodd" d="M16.8799 84.3501H15.8164C15.1484 84.3501 14.6298 83.8316 14.6298 83.1636V80.8519C14.6298 80.8519 15.6122 81.295 16.277 81.4671C16.9608 81.6442 18.0665 81.7308 18.0665 81.7308V83.1636C18.0665 83.8316 17.5479 84.3501 16.8799 84.3501ZM31.5234 81.7308V83.1636C31.5234 83.8316 32.042 84.3501 32.7188 84.3501H33.7735C34.4503 84.3501 34.9689 83.8316 34.9689 83.1636V80.8519C34.9689 80.8519 34.1364 81.3557 33.456 81.5299C32.7724 81.7049 31.5234 81.7308 31.5234 81.7308ZM19.0158 73.6884C18.6378 73.7059 18.4796 73.5389 18.5675 73.1786C18.7609 72.3348 19.1213 71.2273 19.3762 70.7878C19.6135 70.3483 19.9035 70.1637 20.4221 70.0934C21.011 70.0143 22.4525 69.9528 24.7994 69.9528C27.1462 69.9528 28.5789 70.0143 29.1766 70.0934C29.6952 70.1637 29.9764 70.3483 30.2225 70.7878C30.4774 71.2273 30.8378 72.3348 31.0312 73.1786C31.1103 73.5389 30.9609 73.7059 30.5741 73.6884C29.2908 73.6093 27.6648 73.5301 24.7994 73.5301C21.9339 73.5301 20.3079 73.6093 19.0158 73.6884ZM28.2361 77.9249C28.2361 78.549 27.7966 78.9885 27.1725 78.9885H22.4262C21.7933 78.9885 21.3538 78.549 21.3538 77.9249C21.3538 77.3009 21.7933 76.8614 22.4262 76.8614H27.1725C27.7966 76.8614 28.2361 77.3009 28.2361 77.9249Z" fill="#939EA7"/>
<path d="M299.594 66.6569C302.483 65.2976 305.674 65.3328 308.426 66.4488L307.429 69.223C307.227 69.7851 307.817 70.3209 308.375 70.0584L313.694 67.5556C314.041 67.3922 314.185 66.9933 314.02 66.649L311.497 61.3729C311.232 60.8195 310.433 60.8639 310.237 61.4384L309.351 63.8739C305.942 62.5252 302.001 62.5112 298.418 64.1972C292.529 66.9684 289.547 73.3734 290.893 79.429C291.09 80.2855 292.032 80.7615 292.838 80.3823C293.42 80.1081 293.722 79.4689 293.588 78.839C292.504 74.0005 294.883 68.8739 299.594 66.6569ZM310.181 88.7942C316.071 86.0231 319.053 79.618 317.706 73.5624C317.509 72.706 316.567 72.23 315.761 72.6092C315.179 72.8834 314.877 73.5226 315.011 74.1525C316.095 78.991 313.716 84.1176 309.005 86.3345C306.116 87.6938 302.925 87.6587 300.173 86.5427L301.171 83.7684C301.373 83.2063 300.782 82.6706 300.224 82.9331L294.905 85.4359C294.558 85.5992 294.415 85.9981 294.579 86.3425L297.102 91.6186C297.367 92.172 298.166 92.1275 298.362 91.5531L299.248 89.1175C302.657 90.4662 306.598 90.4802 310.181 88.7942Z" fill="#CED7DC"/>
<path d="M304.293 84.165C304.651 84.165 304.926 83.9043 304.926 83.5339V82.6147C307.154 82.4089 308.833 81.133 308.833 79.0476C308.833 77.1818 307.622 76.0842 305.228 75.6452L304.926 75.5766V72.1742C305.806 72.3251 306.411 72.8465 306.673 73.6559C306.879 74.1086 307.168 74.3693 307.663 74.3693C308.214 74.3693 308.599 73.9989 308.599 73.4775C308.599 73.3129 308.558 73.162 308.53 72.9974C308.159 71.5843 306.769 70.569 304.926 70.377V69.4578C304.926 69.0873 304.651 68.8267 304.293 68.8267C303.935 68.8267 303.674 69.0873 303.674 69.4578V70.377C301.5 70.5965 299.959 71.9135 299.959 73.8205C299.959 75.6041 301.156 76.6467 303.44 77.1681L303.674 77.223V80.8449C302.559 80.6802 301.913 80.0903 301.693 79.2809C301.5 78.787 301.184 78.54 300.716 78.54C300.138 78.54 299.767 78.9242 299.767 79.4729C299.767 79.6239 299.808 79.7748 299.849 79.9531C300.248 81.4074 301.706 82.4226 303.674 82.601V83.5339C303.674 83.918 303.935 84.165 304.293 84.165ZM303.674 75.2611L303.577 75.2336C302.477 74.9181 301.968 74.4379 301.968 73.6971C301.968 72.9425 302.614 72.3251 303.674 72.1605V75.2611ZM304.926 77.5385L305.187 77.5934C306.384 77.9226 306.81 78.4165 306.81 79.1986C306.81 80.0629 306.178 80.694 304.926 80.8449V77.5385Z" fill="#939EA7"/>
</svg>
