<svg width="336" height="160" viewBox="0 0 336 160" fill="none" xmlns="http://www.w3.org/2000/svg">
<rect x="1.29846" y="1.49218" width="333.997" height="157.999" rx="19.4998" fill="#F3FBFF"/>
<path d="M239.715 40.2547H241.379V38.1487C245.175 37.8887 247.255 35.4187 247.255 32.7667C247.255 28.9188 244.083 28.2168 241.379 27.5148V22.6008C242.393 22.9128 243.017 23.6928 243.121 24.7068H247.047C246.813 21.6128 244.629 19.8708 241.379 19.6108V17.5049H239.715V19.6108C236.335 19.8708 233.891 21.8728 233.891 24.9408C233.891 28.7888 237.037 29.5428 239.715 30.2187V35.1847C238.519 34.9247 237.895 34.1187 237.791 32.9227H233.891C233.969 36.0427 236.361 37.8367 239.715 38.1227V40.2547ZM243.485 32.9227C243.485 34.0927 242.705 35.0027 241.379 35.2367V30.6867C242.601 31.1027 243.485 31.7007 243.485 32.9227ZM237.687 24.7588C237.687 23.4328 238.519 22.7048 239.715 22.5228V27.0208C238.519 26.6048 237.687 25.9808 237.687 24.7588ZM251.89 18.9869V30.1148H255.374C255.764 28.9448 256.726 28.1128 258.234 28.1128C260.288 28.1128 261.354 29.2828 261.354 31.4147C261.354 33.4167 260.392 34.9247 258.26 34.9247C256.492 34.9247 255.426 33.9627 255.114 32.6367H251.578C251.89 35.7307 254.23 37.9927 258.312 37.9927C262.628 37.9927 264.864 35.2367 264.864 31.3627C264.864 28.4248 263.356 25.0968 258.936 25.0968C257.35 25.0968 255.92 25.7728 255.218 26.6308V22.1848H263.642V18.9869H251.89ZM266.569 41.7366H268.935L272.158 33.9887H268.311L266.569 41.7366ZM275.093 32.6627C275.301 35.4447 277.225 38.0187 281.255 38.0187C286.273 38.0187 287.703 34.5347 287.703 28.0868C287.703 22.0808 286.117 18.5969 280.969 18.5969C276.965 18.5969 274.573 21.0928 274.573 24.8888C274.573 28.8928 277.199 30.9467 280.475 30.9467C282.139 30.9467 283.673 30.2967 284.479 29.1788C284.479 33.4427 283.543 35.0287 281.411 35.0287C279.721 35.0287 278.759 34.1707 278.473 32.6627H275.093ZM281.229 27.9828C279.019 27.9828 278.057 26.5788 278.057 24.8628C278.057 22.9648 279.201 21.6908 281.099 21.6908C282.945 21.6908 284.141 22.8348 284.141 24.9148C284.141 26.7608 283.049 27.9828 281.229 27.9828ZM290.329 37.7327H303.173V34.7167H295.503C298.519 32.1687 302.757 28.7368 302.757 24.3428C302.757 21.0408 300.703 18.6229 296.621 18.6229C293.215 18.6229 290.433 20.6248 290.303 24.9668H293.839C293.865 22.9648 294.827 21.7168 296.569 21.7168C298.363 21.7168 299.117 22.8608 299.117 24.5508C299.117 28.0348 294.619 31.3887 290.329 35.0287V37.7327ZM308.638 27.9568C306.766 28.7368 305.596 30.3747 305.596 32.6107C305.596 36.2247 308.56 38.4087 312.434 38.4087C316.334 38.4087 319.298 36.2247 319.298 32.6107C319.298 30.4007 318.128 28.7628 316.256 27.9568C317.738 27.2028 318.83 25.7728 318.83 23.7708C318.83 21.0668 316.75 18.6749 312.434 18.6749C308.118 18.6749 306.038 21.0408 306.038 23.7708C306.038 25.8248 307.078 27.1508 308.638 27.9568ZM312.434 26.8908C310.796 26.8908 309.6 25.8768 309.6 24.3168C309.6 22.5488 310.744 21.6128 312.434 21.6128C314.176 21.6128 315.294 22.5748 315.294 24.2908C315.294 25.8508 314.098 26.8908 312.434 26.8908ZM312.434 29.5428C314.384 29.5428 315.736 30.5827 315.736 32.4547C315.736 34.1187 314.514 35.3927 312.434 35.3927C310.354 35.3927 309.106 34.1447 309.106 32.4547C309.106 30.5307 310.536 29.5428 312.434 29.5428Z" fill="#154C6B"/>
<path d="M16.5681 31.2913C16.5681 35.8892 19.9341 39.1232 24.356 39.1232C27.766 39.1232 30.538 37.3192 31.5719 34.1513H28.03C27.304 35.6472 25.984 36.3732 24.334 36.3732C21.65 36.3732 19.7361 34.3933 19.7361 31.2913C19.7361 28.1673 21.65 26.2093 24.334 26.2093C25.984 26.2093 27.304 26.9353 28.03 28.4093H31.5719C30.538 25.2633 27.766 23.4374 24.356 23.4374C19.9341 23.4374 16.5681 26.6933 16.5681 31.2913ZM33.4106 32.8533C33.4106 36.6592 35.8746 39.1892 38.9546 39.1892C40.8906 39.1892 42.2766 38.2652 43.0026 37.2092V38.9912H46.1045V26.8033H43.0026V28.5413C42.2766 27.5293 40.9346 26.6053 38.9766 26.6053C35.8746 26.6053 33.4106 29.0473 33.4106 32.8533ZM43.0026 32.8973C43.0026 35.2072 41.4626 36.4832 39.7686 36.4832C38.1186 36.4832 36.5566 35.1632 36.5566 32.8533C36.5566 30.5433 38.1186 29.3113 39.7686 29.3113C41.4626 29.3113 43.0026 30.5873 43.0026 32.8973ZM52.1926 32.9193C52.1926 30.5653 53.2926 29.8613 55.1186 29.8613H55.9326V26.6273C54.2386 26.6273 52.9626 27.4413 52.1926 28.6953V26.8033H49.1127V38.9912H52.1926V32.9193ZM63.2492 38.9912H66.3292V22.7114H63.2492V38.9912ZM81.1421 32.8973C81.1421 29.0473 78.3922 26.6053 74.8722 26.6053C71.3522 26.6053 68.6022 29.0473 68.6022 32.8973C68.6022 36.7252 71.2642 39.1892 74.7842 39.1892C78.3262 39.1892 81.1421 36.7252 81.1421 32.8973ZM71.7262 32.8973C71.7262 30.4553 73.2002 29.2893 74.8282 29.2893C76.4562 29.2893 77.9742 30.4553 77.9742 32.8973C77.9742 35.3172 76.4122 36.5052 74.7842 36.5052C73.1342 36.5052 71.7262 35.3172 71.7262 32.8973ZM82.6094 32.8533C82.6094 36.6592 85.0734 39.1892 88.1534 39.1892C90.0893 39.1892 91.4753 38.2652 92.2013 37.2092V38.9912H95.3033V26.8033H92.2013V28.5413C91.4753 27.5293 90.1333 26.6053 88.1754 26.6053C85.0734 26.6053 82.6094 29.0473 82.6094 32.8533ZM92.2013 32.8973C92.2013 35.2072 90.6613 36.4832 88.9673 36.4832C87.3174 36.4832 85.7554 35.1632 85.7554 32.8533C85.7554 30.5433 87.3174 29.3113 88.9673 29.3113C90.6613 29.3113 92.2013 30.5873 92.2013 32.8973ZM106.847 38.9912H109.927V31.8413C109.927 28.4753 107.903 26.6273 105.065 26.6273C103.503 26.6273 102.183 27.2873 101.391 28.3213V26.8033H98.3114V38.9912H101.391V32.2593C101.391 30.3013 102.469 29.2453 104.141 29.2453C105.769 29.2453 106.847 30.3013 106.847 32.2593V38.9912Z" fill="#154C6B"/>
<path d="M134.723 136.657V133.815H136.277C137.383 133.815 137.873 134.347 137.873 135.243C137.873 136.111 137.383 136.657 136.277 136.657H134.723ZM139.889 135.243C139.889 133.549 138.713 132.219 136.361 132.219H132.763V141.991H134.723V138.239H136.361C138.881 138.239 139.889 136.727 139.889 135.243ZM140.777 138.085C140.777 140.507 142.345 142.117 144.305 142.117C145.537 142.117 146.419 141.529 146.881 140.857V141.991H148.855V134.235H146.881V135.341C146.419 134.697 145.565 134.109 144.319 134.109C142.345 134.109 140.777 135.663 140.777 138.085ZM146.881 138.113C146.881 139.583 145.901 140.395 144.823 140.395C143.773 140.395 142.779 139.555 142.779 138.085C142.779 136.615 143.773 135.831 144.823 135.831C145.901 135.831 146.881 136.643 146.881 138.113ZM154.073 139.653L152.071 134.235H149.873L152.981 141.795L151.301 145.659H153.387L158.189 134.235H156.103L154.073 139.653ZM166.735 138.113C166.735 135.663 164.985 134.109 162.745 134.109C160.505 134.109 158.755 135.663 158.755 138.113C158.755 140.549 160.449 142.117 162.689 142.117C164.943 142.117 166.735 140.549 166.735 138.113ZM160.743 138.113C160.743 136.559 161.681 135.817 162.717 135.817C163.753 135.817 164.719 136.559 164.719 138.113C164.719 139.653 163.725 140.409 162.689 140.409C161.639 140.409 160.743 139.653 160.743 138.113ZM168.383 141.991H170.371V135.845H171.729V134.235H170.371V133.913C170.371 133.045 170.693 132.737 171.645 132.765V131.113C169.461 131.057 168.383 131.939 168.383 133.843V134.235H167.501V135.845H168.383V141.991ZM173.209 141.991H175.197V135.845H176.555V134.235H175.197V133.913C175.197 133.045 175.519 132.737 176.471 132.765V131.113C174.287 131.057 173.209 131.939 173.209 133.843V134.235H172.327V135.845H173.209V141.991ZM183.121 135.369V131.631H181.161V141.991H183.121V140.885C183.597 141.557 184.465 142.117 185.683 142.117C187.671 142.117 189.225 140.507 189.225 138.085C189.225 135.663 187.671 134.109 185.683 134.109C184.507 134.109 183.597 134.655 183.121 135.369ZM187.223 138.085C187.223 139.555 186.229 140.395 185.165 140.395C184.115 140.395 183.121 139.583 183.121 138.113C183.121 136.643 184.115 135.831 185.165 135.831C186.229 135.831 187.223 136.615 187.223 138.085ZM193.953 139.653L191.951 134.235H189.753L192.861 141.795L191.181 145.659H193.267L198.069 134.235H195.983L193.953 139.653Z" fill="#507184"/>
<path d="M132.875 95.9902H134.149V86.2323H132.875V95.9902ZM141.685 95.9902H142.945V91.4683C142.945 89.2703 141.587 88.1783 139.809 88.1783C138.773 88.1783 137.849 88.6123 137.345 89.4103V88.3183H136.071V95.9902H137.345V91.7483C137.345 90.0963 138.241 89.2843 139.543 89.2843C140.831 89.2843 141.685 90.0823 141.685 91.6503V95.9902ZM145.056 93.8903C145.056 95.4302 145.826 95.9902 147.184 95.9902H148.332V94.9122H147.394C146.61 94.9122 146.33 94.6462 146.33 93.8903V89.3683H148.332V88.3183H146.33V86.3863H145.056V88.3183H144.062V89.3683H145.056V93.8903ZM152.887 89.2703C154.203 89.2703 155.323 90.0963 155.309 91.5943H150.465C150.605 90.0963 151.641 89.2703 152.887 89.2703ZM156.471 93.6243H155.099C154.819 94.4502 154.091 95.0382 152.943 95.0382C151.641 95.0382 150.549 94.1843 150.451 92.6303H156.583C156.611 92.3643 156.625 92.1403 156.625 91.8603C156.625 89.7603 155.169 88.1923 152.943 88.1923C150.703 88.1923 149.149 89.7183 149.149 92.1403C149.149 94.5762 150.759 96.1162 152.943 96.1162C154.847 96.1162 156.079 95.0242 156.471 93.6243ZM159.331 91.8183C159.331 90.0403 160.255 89.4943 161.473 89.4943H161.809V88.1783C160.591 88.1783 159.765 88.7103 159.331 89.5643V88.3183H158.057V95.9902H159.331V91.8183ZM166.291 89.2703C167.607 89.2703 168.727 90.0963 168.713 91.5943H163.869C164.009 90.0963 165.045 89.2703 166.291 89.2703ZM169.875 93.6243H168.503C168.223 94.4502 167.495 95.0382 166.347 95.0382C165.045 95.0382 163.953 94.1843 163.855 92.6303H169.987C170.015 92.3643 170.029 92.1403 170.029 91.8603C170.029 89.7603 168.573 88.1923 166.347 88.1923C164.107 88.1923 162.553 89.7183 162.553 92.1403C162.553 94.5762 164.163 96.1162 166.347 96.1162C168.251 96.1162 169.483 95.0242 169.875 93.6243ZM176.977 93.9043C176.921 91.1603 172.469 92.1543 172.469 90.3343C172.469 89.7183 173.029 89.2703 173.967 89.2703C174.989 89.2703 175.577 89.8303 175.633 90.6003H176.907C176.823 89.1023 175.703 88.1923 174.009 88.1923C172.301 88.1923 171.195 89.1583 171.195 90.3343C171.195 93.1903 175.731 92.1963 175.731 93.9043C175.731 94.5342 175.171 95.0382 174.163 95.0382C173.085 95.0382 172.427 94.4782 172.357 93.7363H171.041C171.125 95.1362 172.385 96.1162 174.177 96.1162C175.871 96.1162 176.977 95.1642 176.977 93.9043ZM178.805 93.8903C178.805 95.4302 179.575 95.9902 180.933 95.9902H182.081V94.9122H181.143C180.359 94.9122 180.079 94.6462 180.079 93.8903V89.3683H182.081V88.3183H180.079V86.3863H178.805V88.3183H177.811V89.3683H178.805V93.8903ZM188.131 91.8183C188.131 90.0403 189.055 89.4943 190.273 89.4943H190.609V88.1783C189.391 88.1783 188.565 88.7103 188.131 89.5643V88.3183H186.857V95.9902H188.131V91.8183ZM191.354 92.1263C191.354 94.5062 192.936 96.1162 194.98 96.1162C196.394 96.1162 197.388 95.3882 197.85 94.5622V95.9902H199.138V88.3183H197.85V89.7183C197.402 88.9203 196.422 88.1923 194.994 88.1923C192.936 88.1923 191.354 89.7323 191.354 92.1263ZM197.85 92.1403C197.85 93.9463 196.646 94.9962 195.246 94.9962C193.846 94.9962 192.656 93.9323 192.656 92.1263C192.656 90.3203 193.846 89.2983 195.246 89.2983C196.646 89.2983 197.85 90.3623 197.85 92.1403ZM201.321 93.8903C201.321 95.4302 202.091 95.9902 203.449 95.9902H204.597V94.9122H203.659C202.875 94.9122 202.595 94.6462 202.595 93.8903V89.3683H204.597V88.3183H202.595V86.3863H201.321V88.3183H200.327V89.3683H201.321V93.8903ZM209.152 89.2703C210.468 89.2703 211.588 90.0963 211.574 91.5943H206.73C206.87 90.0963 207.906 89.2703 209.152 89.2703ZM212.736 93.6243H211.364C211.084 94.4502 210.356 95.0382 209.208 95.0382C207.906 95.0382 206.814 94.1843 206.716 92.6303H212.848C212.876 92.3643 212.89 92.1403 212.89 91.8603C212.89 89.7603 211.434 88.1923 209.208 88.1923C206.968 88.1923 205.414 89.7183 205.414 92.1403C205.414 94.5762 207.024 96.1162 209.208 96.1162C211.112 96.1162 212.344 95.0242 212.736 93.6243Z" fill="#507184"/>
<path d="M142.201 72.1053C142.201 69.1793 140.059 67.1213 137.301 67.1213C134.557 67.1213 132.401 69.1793 132.401 72.1053C132.401 75.0312 134.557 77.0892 137.301 77.0892C140.059 77.0892 142.201 75.0312 142.201 72.1053ZM133.703 72.1053C133.703 69.7113 135.243 68.2273 137.301 68.2273C139.359 68.2273 140.899 69.7113 140.899 72.1053C140.899 74.4852 139.359 75.9832 137.301 75.9832C135.243 75.9832 133.703 74.4852 133.703 72.1053ZM144.907 72.8193C144.907 71.0413 145.831 70.4953 147.049 70.4953H147.385V69.1793C146.167 69.1793 145.341 69.7113 144.907 70.5653V69.3193H143.633V76.9912H144.907V72.8193ZM148.605 76.9912H149.879V69.3193H148.605V76.9912ZM149.263 68.0733C149.725 68.0733 150.103 67.6953 150.103 67.2053C150.103 66.7153 149.725 66.3373 149.263 66.3373C148.773 66.3373 148.395 66.7153 148.395 67.2053C148.395 67.6953 148.773 68.0733 149.263 68.0733ZM151.325 73.1272C151.325 75.5072 152.907 77.1172 154.964 77.1172C156.364 77.1172 157.358 76.3752 157.82 75.5492V77.1592C157.82 78.7972 156.798 79.6652 155.44 79.6652C154.181 79.6652 153.271 79.0352 152.991 78.1112H151.731C151.983 79.7492 153.425 80.7712 155.44 80.7712C157.694 80.7712 159.108 79.2732 159.108 77.1592V69.3193H157.82V70.7193C157.372 69.8933 156.364 69.1933 154.964 69.1933C152.907 69.1933 151.325 70.7333 151.325 73.1272ZM157.82 73.1412C157.82 74.9472 156.616 75.9972 155.216 75.9972C153.817 75.9972 152.627 74.9332 152.627 73.1272C152.627 71.3213 153.817 70.2993 155.216 70.2993C156.616 70.2993 157.82 71.3633 157.82 73.1412ZM161.011 76.9912H162.285V69.3193H161.011V76.9912ZM161.669 68.0733C162.131 68.0733 162.509 67.6953 162.509 67.2053C162.509 66.7153 162.131 66.3373 161.669 66.3373C161.179 66.3373 160.801 66.7153 160.801 67.2053C160.801 67.6953 161.179 68.0733 161.669 68.0733ZM169.821 76.9912H171.081V72.4693C171.081 70.2713 169.723 69.1793 167.945 69.1793C166.909 69.1793 165.985 69.6133 165.481 70.4113V69.3193H164.207V76.9912H165.481V72.7493C165.481 71.0973 166.377 70.2853 167.679 70.2853C168.967 70.2853 169.821 71.0833 169.821 72.6513V76.9912ZM172.912 76.9912H174.186V69.3193H172.912V76.9912ZM173.57 68.0733C174.032 68.0733 174.41 67.6953 174.41 67.2053C174.41 66.7153 174.032 66.3373 173.57 66.3373C173.08 66.3373 172.702 66.7153 172.702 67.2053C172.702 67.6953 173.08 68.0733 173.57 68.0733ZM175.631 73.1272C175.631 75.5072 177.213 77.1172 179.257 77.1172C180.671 77.1172 181.665 76.3892 182.127 75.5632V76.9912H183.415V69.3193H182.127V70.7193C181.679 69.9213 180.699 69.1933 179.271 69.1933C177.213 69.1933 175.631 70.7333 175.631 73.1272ZM182.127 73.1412C182.127 74.9472 180.923 75.9972 179.523 75.9972C178.123 75.9972 176.933 74.9332 176.933 73.1272C176.933 71.3213 178.123 70.2993 179.523 70.2993C180.923 70.2993 182.127 71.3633 182.127 73.1412ZM185.318 76.9912H186.592V66.6313H185.318V76.9912ZM191.995 76.9912H193.269V66.6313H191.995V76.9912ZM202.471 73.1412C202.471 70.7193 200.777 69.1933 198.593 69.1933C196.423 69.1933 194.715 70.7193 194.715 73.1412C194.715 75.5772 196.367 77.1172 198.537 77.1172C200.721 77.1172 202.471 75.5772 202.471 73.1412ZM196.017 73.1412C196.017 71.2093 197.235 70.2993 198.579 70.2993C199.895 70.2993 201.169 71.2093 201.169 73.1412C201.169 75.0872 199.867 75.9972 198.537 75.9972C197.207 75.9972 196.017 75.0872 196.017 73.1412ZM203.42 73.1272C203.42 75.5072 205.002 77.1172 207.046 77.1172C208.46 77.1172 209.454 76.3892 209.916 75.5632V76.9912H211.204V69.3193H209.916V70.7193C209.468 69.9213 208.488 69.1933 207.06 69.1933C205.002 69.1933 203.42 70.7333 203.42 73.1272ZM209.916 73.1412C209.916 74.9472 208.712 75.9972 207.312 75.9972C205.912 75.9972 204.722 74.9332 204.722 73.1272C204.722 71.3213 205.912 70.2993 207.312 70.2993C208.712 70.2993 209.916 71.3633 209.916 73.1412ZM218.721 76.9912H219.981V72.4693C219.981 70.2713 218.623 69.1793 216.845 69.1793C215.809 69.1793 214.885 69.6133 214.381 70.4113V69.3193H213.107V76.9912H214.381V72.7493C214.381 71.0973 215.277 70.2853 216.579 70.2853C217.867 70.2853 218.721 71.0833 218.721 72.6513V76.9912Z" fill="#507184"/>
<path d="M134.15 109.867V106.283H136.026C137.482 106.283 138.098 106.955 138.098 108.089C138.098 109.181 137.482 109.867 136.026 109.867H134.15ZM139.4 108.089C139.4 106.493 138.322 105.233 136.026 105.233H132.876V114.991H134.15V110.917H136.026C138.448 110.917 139.4 109.573 139.4 108.089ZM140.257 111.127C140.257 113.507 141.839 115.117 143.883 115.117C145.297 115.117 146.291 114.389 146.753 113.563V114.991H148.041V107.319H146.753V108.719C146.305 107.921 145.325 107.193 143.897 107.193C141.839 107.193 140.257 108.733 140.257 111.127ZM146.753 111.141C146.753 112.947 145.549 113.997 144.149 113.997C142.749 113.997 141.559 112.933 141.559 111.127C141.559 109.321 142.749 108.299 144.149 108.299C145.549 108.299 146.753 109.363 146.753 111.141ZM152.856 113.535L150.448 107.319H149.034L152.128 114.907L150.616 118.603H151.932L156.552 107.319H155.236L152.856 113.535ZM168.657 114.991H169.917V110.469C169.917 108.271 168.559 107.179 166.809 107.179C165.633 107.179 164.541 107.781 164.093 108.887C163.589 107.739 162.539 107.179 161.279 107.179C160.271 107.179 159.361 107.613 158.857 108.425V107.319H157.583V114.991H158.857V110.763C158.857 109.111 159.739 108.285 161.027 108.285C162.287 108.285 163.127 109.083 163.127 110.651V114.991H164.387V110.763C164.387 109.111 165.269 108.285 166.557 108.285C167.817 108.285 168.657 109.083 168.657 110.651V114.991ZM175.018 108.271C176.334 108.271 177.454 109.097 177.44 110.595H172.596C172.736 109.097 173.772 108.271 175.018 108.271ZM178.602 112.625H177.23C176.95 113.451 176.222 114.039 175.074 114.039C173.772 114.039 172.68 113.185 172.582 111.631H178.714C178.742 111.365 178.756 111.141 178.756 110.861C178.756 108.761 177.3 107.193 175.074 107.193C172.834 107.193 171.28 108.719 171.28 111.141C171.28 113.577 172.89 115.117 175.074 115.117C176.978 115.117 178.21 114.025 178.602 112.625ZM185.802 114.991H187.062V110.469C187.062 108.271 185.704 107.179 183.926 107.179C182.89 107.179 181.966 107.613 181.462 108.411V107.319H180.188V114.991H181.462V110.749C181.462 109.097 182.358 108.285 183.66 108.285C184.948 108.285 185.802 109.083 185.802 110.651V114.991ZM189.173 112.891C189.173 114.431 189.943 114.991 191.301 114.991H192.449V113.913H191.511C190.727 113.913 190.447 113.647 190.447 112.891V108.369H192.449V107.319H190.447V105.387H189.173V107.319H188.179V108.369H189.173V112.891Z" fill="#507184"/>
<path d="M260.675 141.99H262.635V135.634L265.267 141.99H266.751L269.369 135.634V141.99H271.329V132.218H269.117L266.009 139.484L262.901 132.218H260.675V141.99ZM272.263 138.084C272.263 140.506 273.831 142.116 275.791 142.116C277.023 142.116 277.905 141.528 278.367 140.856V141.99H280.341V134.234H278.367V135.34C277.905 134.696 277.051 134.108 275.805 134.108C273.831 134.108 272.263 135.662 272.263 138.084ZM278.367 138.112C278.367 139.582 277.387 140.394 276.309 140.394C275.259 140.394 274.265 139.554 274.265 138.084C274.265 136.614 275.259 135.83 276.309 135.83C277.387 135.83 278.367 136.642 278.367 138.112ZM283.715 138.126C283.715 136.628 284.415 136.18 285.577 136.18H286.095V134.122C285.017 134.122 284.205 134.64 283.715 135.438V134.234H281.755V141.99H283.715V138.126ZM289.415 141.85H296.331V140.226H292.201C293.825 138.854 296.107 137.006 296.107 134.64C296.107 132.862 295.001 131.56 292.803 131.56C290.969 131.56 289.471 132.638 289.401 134.976H291.305C291.319 133.898 291.837 133.226 292.775 133.226C293.741 133.226 294.147 133.842 294.147 134.752C294.147 136.628 291.725 138.434 289.415 140.394V141.85ZM297.066 136.754C297.066 139.736 297.962 141.962 300.846 141.962C303.73 141.962 304.626 139.736 304.626 136.754C304.626 133.8 303.73 131.588 300.846 131.588C297.962 131.588 297.066 133.8 297.066 136.754ZM302.694 136.754C302.694 138.574 302.498 140.142 300.846 140.142C299.194 140.142 298.998 138.574 298.998 136.754C298.998 135.004 299.194 133.408 300.846 133.408C302.498 133.408 302.694 135.004 302.694 136.754ZM305.505 141.85H312.421V140.226H308.291C309.915 138.854 312.197 137.006 312.197 134.64C312.197 132.862 311.091 131.56 308.893 131.56C307.059 131.56 305.561 132.638 305.491 134.976H307.395C307.409 133.898 307.927 133.226 308.865 133.226C309.831 133.226 310.237 133.842 310.237 134.752C310.237 136.628 307.815 138.434 305.505 140.394V141.85ZM313.184 134.472H315.102C315.172 133.828 315.578 133.212 316.53 133.212C317.426 133.212 317.916 133.688 317.916 134.486C317.916 135.494 317.076 135.816 315.928 135.816H315.522V137.426H315.928C317.384 137.426 318.112 137.846 318.112 138.994C318.112 139.806 317.608 140.422 316.628 140.422C315.578 140.422 314.99 139.792 314.948 138.91H313.044C313.128 141.052 314.654 142.06 316.67 142.06C318.812 142.06 319.988 140.828 319.988 139.162C319.988 137.776 319.302 136.936 318.266 136.614V136.558C319.008 136.306 319.806 135.522 319.806 134.248C319.806 132.736 318.686 131.546 316.586 131.546C314.626 131.546 313.282 132.582 313.184 134.472Z" fill="#507184"/>
<path d="M279.973 93.8627V92.6588L284.676 85.9108H286.608V92.4768H287.91V93.8627H286.608V95.9907H285.04V93.8627H279.973ZM285.11 87.5348L281.807 92.4768H285.11V87.5348ZM290.087 96.0887C289.798 96.0887 289.555 95.9907 289.359 95.7947C289.163 95.5987 289.065 95.3561 289.065 95.0667C289.065 94.7774 289.163 94.5347 289.359 94.3387C289.555 94.1427 289.798 94.0447 290.087 94.0447C290.367 94.0447 290.605 94.1427 290.801 94.3387C290.997 94.5347 291.095 94.7774 291.095 95.0667C291.095 95.3561 290.997 95.5987 290.801 95.7947C290.605 95.9907 290.367 96.0887 290.087 96.0887ZM299.19 87.1568H294.5V89.9428C294.696 89.6814 294.985 89.4621 295.368 89.2848C295.76 89.1075 296.175 89.0188 296.614 89.0188C297.398 89.0188 298.032 89.1868 298.518 89.5228C299.012 89.8588 299.362 90.2834 299.568 90.7968C299.782 91.3101 299.89 91.8514 299.89 92.4208C299.89 93.1114 299.754 93.7274 299.484 94.2687C299.222 94.8007 298.826 95.2207 298.294 95.5287C297.771 95.8367 297.127 95.9907 296.362 95.9907C295.344 95.9907 294.528 95.7387 293.912 95.2347C293.296 94.7307 292.927 94.0634 292.806 93.2327H294.36C294.462 93.6714 294.691 94.0214 295.046 94.2827C295.4 94.5347 295.844 94.6607 296.376 94.6607C297.038 94.6607 297.533 94.4601 297.86 94.0587C298.196 93.6574 298.364 93.1254 298.364 92.4628C298.364 91.7908 298.196 91.2774 297.86 90.9228C297.524 90.5588 297.029 90.3768 296.376 90.3768C295.918 90.3768 295.531 90.4934 295.214 90.7268C294.906 90.9508 294.682 91.2588 294.542 91.6508H293.03V85.7568H299.19V87.1568ZM301.551 90.7548C301.551 89.1401 301.822 87.8801 302.363 86.9748C302.914 86.0602 303.856 85.6028 305.191 85.6028C306.526 85.6028 307.464 86.0602 308.005 86.9748C308.556 87.8801 308.831 89.1401 308.831 90.7548C308.831 92.3881 308.556 93.6667 308.005 94.5907C307.464 95.5054 306.526 95.9627 305.191 95.9627C303.856 95.9627 302.914 95.5054 302.363 94.5907C301.822 93.6667 301.551 92.3881 301.551 90.7548ZM307.263 90.7548C307.263 89.9988 307.212 89.3595 307.109 88.8368C307.016 88.3141 306.82 87.8895 306.521 87.5628C306.222 87.2268 305.779 87.0588 305.191 87.0588C304.603 87.0588 304.16 87.2268 303.861 87.5628C303.562 87.8895 303.362 88.3141 303.259 88.8368C303.166 89.3595 303.119 89.9988 303.119 90.7548C303.119 91.5388 303.166 92.1968 303.259 92.7288C303.352 93.2607 303.548 93.6901 303.847 94.0167C304.155 94.3434 304.603 94.5067 305.191 94.5067C305.779 94.5067 306.222 94.3434 306.521 94.0167C306.829 93.6901 307.03 93.2607 307.123 92.7288C307.216 92.1968 307.263 91.5388 307.263 90.7548ZM310.268 88.2488C310.268 87.5675 310.464 87.0355 310.856 86.6528C311.257 86.2608 311.77 86.0648 312.396 86.0648C313.021 86.0648 313.53 86.2608 313.922 86.6528C314.323 87.0355 314.524 87.5675 314.524 88.2488C314.524 88.9301 314.323 89.4668 313.922 89.8588C313.53 90.2508 313.021 90.4468 312.396 90.4468C311.77 90.4468 311.257 90.2508 310.856 89.8588C310.464 89.4668 310.268 88.9301 310.268 88.2488ZM318.808 86.2468L313.222 95.9907H311.654L317.24 86.2468H318.808ZM312.396 87.0308C311.808 87.0308 311.514 87.4368 311.514 88.2488C311.514 89.0701 311.808 89.4808 312.396 89.4808C312.676 89.4808 312.89 89.3828 313.04 89.1868C313.198 88.9815 313.278 88.6688 313.278 88.2488C313.278 87.4368 312.984 87.0308 312.396 87.0308ZM315.966 93.9747C315.966 93.2934 316.162 92.7614 316.554 92.3788C316.955 91.9868 317.468 91.7908 318.094 91.7908C318.71 91.7908 319.214 91.9868 319.606 92.3788C320.007 92.7614 320.208 93.2934 320.208 93.9747C320.208 94.6561 320.007 95.1927 319.606 95.5847C319.214 95.9767 318.71 96.1727 318.094 96.1727C317.468 96.1727 316.955 95.9767 316.554 95.5847C316.162 95.1927 315.966 94.6561 315.966 93.9747ZM318.08 92.7568C317.492 92.7568 317.198 93.1627 317.198 93.9747C317.198 94.7867 317.492 95.1927 318.08 95.1927C318.668 95.1927 318.962 94.7867 318.962 93.9747C318.962 93.1627 318.668 92.7568 318.08 92.7568Z" fill="#507184"/>
<path d="M272.206 74.2192C272.206 74.6859 272.09 75.1246 271.856 75.5352C271.632 75.9459 271.296 76.2912 270.848 76.5712C270.41 76.8512 269.887 77.0192 269.281 77.0752V78.2092H268.371V77.0752C267.493 76.9912 266.784 76.7159 266.243 76.2492C265.701 75.7826 265.431 75.1666 265.431 74.4012H267.139C267.167 74.7652 267.283 75.0686 267.489 75.3112C267.694 75.5446 267.988 75.6939 268.371 75.7592V72.6793C267.745 72.5206 267.237 72.3619 266.845 72.2033C266.453 72.0353 266.117 71.7739 265.837 71.4193C265.566 71.0646 265.431 70.5793 265.431 69.9633C265.431 69.1886 265.701 68.5493 266.243 68.0453C266.784 67.532 267.493 67.2333 268.371 67.1493V66.0153H269.281V67.1493C270.102 67.224 270.76 67.4853 271.254 67.9333C271.758 68.372 272.043 68.9786 272.108 69.7533H270.401C270.373 69.4639 270.261 69.2073 270.065 68.9833C269.869 68.75 269.607 68.5913 269.281 68.5073V71.5313C269.906 71.6806 270.415 71.8393 270.806 72.0073C271.198 72.1659 271.53 72.4226 271.8 72.7773C272.071 73.1226 272.206 73.6032 272.206 74.2192ZM267.055 69.8793C267.055 70.2619 267.167 70.5606 267.391 70.7753C267.624 70.9899 267.951 71.1626 268.371 71.2933V68.4653C267.969 68.512 267.647 68.6566 267.405 68.8993C267.171 69.142 267.055 69.4686 267.055 69.8793ZM269.281 75.7592C269.691 75.6939 270.013 75.5306 270.247 75.2692C270.48 74.9986 270.597 74.6766 270.597 74.3032C270.597 73.9299 270.48 73.6406 270.247 73.4352C270.023 73.2206 269.701 73.0479 269.281 72.9172V75.7592ZM275.418 74.8212C276.314 74.0466 277.019 73.4119 277.532 72.9172C278.055 72.4133 278.489 71.8906 278.834 71.3493C279.179 70.8079 279.352 70.2666 279.352 69.7253C279.352 69.1653 279.217 68.7266 278.946 68.4093C278.685 68.092 278.269 67.9333 277.7 67.9333C277.149 67.9333 276.72 68.1106 276.412 68.4653C276.113 68.8106 275.955 69.2773 275.936 69.8653H274.396C274.424 68.8013 274.741 67.9893 275.348 67.4293C275.964 66.86 276.743 66.5753 277.686 66.5753C278.703 66.5753 279.497 66.8553 280.066 67.4153C280.645 67.9753 280.934 68.722 280.934 69.6553C280.934 70.3273 280.761 70.9759 280.416 71.6013C280.08 72.2173 279.674 72.7726 279.198 73.2672C278.731 73.7526 278.134 74.3172 277.406 74.9612L276.776 75.5212H281.214V76.8512H274.41V75.6892L275.418 74.8212ZM282.616 71.7553C282.616 70.1406 282.887 68.8806 283.428 67.9753C283.979 67.0606 284.921 66.6033 286.256 66.6033C287.591 66.6033 288.529 67.0606 289.07 67.9753C289.621 68.8806 289.896 70.1406 289.896 71.7553C289.896 73.3886 289.621 74.6672 289.07 75.5912C288.529 76.5059 287.591 76.9632 286.256 76.9632C284.921 76.9632 283.979 76.5059 283.428 75.5912C282.887 74.6672 282.616 73.3886 282.616 71.7553ZM288.328 71.7553C288.328 70.9993 288.277 70.3599 288.174 69.8373C288.081 69.3146 287.885 68.89 287.586 68.5633C287.287 68.2273 286.844 68.0593 286.256 68.0593C285.668 68.0593 285.225 68.2273 284.926 68.5633C284.627 68.89 284.427 69.3146 284.324 69.8373C284.231 70.3599 284.184 70.9993 284.184 71.7553C284.184 72.5393 284.231 73.1972 284.324 73.7292C284.417 74.2612 284.613 74.6906 284.912 75.0172C285.22 75.3439 285.668 75.5072 286.256 75.5072C286.844 75.5072 287.287 75.3439 287.586 75.0172C287.894 74.6906 288.095 74.2612 288.188 73.7292C288.281 73.1972 288.328 72.5393 288.328 71.7553ZM293.545 75.0732L291.851 78.9372H290.815L291.809 75.0732H293.545ZM294.729 71.7553C294.729 70.1406 295 68.8806 295.541 67.9753C296.092 67.0606 297.034 66.6033 298.369 66.6033C299.704 66.6033 300.642 67.0606 301.183 67.9753C301.734 68.8806 302.009 70.1406 302.009 71.7553C302.009 73.3886 301.734 74.6672 301.183 75.5912C300.642 76.5059 299.704 76.9632 298.369 76.9632C297.034 76.9632 296.092 76.5059 295.541 75.5912C295 74.6672 294.729 73.3886 294.729 71.7553ZM300.441 71.7553C300.441 70.9993 300.39 70.3599 300.287 69.8373C300.194 69.3146 299.998 68.89 299.699 68.5633C299.4 68.2273 298.957 68.0593 298.369 68.0593C297.781 68.0593 297.338 68.2273 297.039 68.5633C296.74 68.89 296.54 69.3146 296.437 69.8373C296.344 70.3599 296.297 70.9993 296.297 71.7553C296.297 72.5393 296.344 73.1972 296.437 73.7292C296.53 74.2612 296.726 74.6906 297.025 75.0172C297.333 75.3439 297.781 75.5072 298.369 75.5072C298.957 75.5072 299.4 75.3439 299.699 75.0172C300.007 74.6906 300.208 74.2612 300.301 73.7292C300.394 73.1972 300.441 72.5393 300.441 71.7553ZM303.698 71.7553C303.698 70.1406 303.968 68.8806 304.51 67.9753C305.06 67.0606 306.003 66.6033 307.338 66.6033C308.672 66.6033 309.61 67.0606 310.152 67.9753C310.702 68.8806 310.978 70.1406 310.978 71.7553C310.978 73.3886 310.702 74.6672 310.152 75.5912C309.61 76.5059 308.672 76.9632 307.338 76.9632C306.003 76.9632 305.06 76.5059 304.51 75.5912C303.968 74.6672 303.698 73.3886 303.698 71.7553ZM309.41 71.7553C309.41 70.9993 309.358 70.3599 309.256 69.8373C309.162 69.3146 308.966 68.89 308.668 68.5633C308.369 68.2273 307.926 68.0593 307.338 68.0593C306.75 68.0593 306.306 68.2273 306.008 68.5633C305.709 68.89 305.508 69.3146 305.406 69.8373C305.312 70.3599 305.266 70.9993 305.266 71.7553C305.266 72.5393 305.312 73.1972 305.406 73.7292C305.499 74.2612 305.695 74.6906 305.994 75.0172C306.302 75.3439 306.75 75.5072 307.338 75.5072C307.926 75.5072 308.369 75.3439 308.668 75.0172C308.976 74.6906 309.176 74.2612 309.27 73.7292C309.363 73.1972 309.41 72.5393 309.41 71.7553ZM312.666 71.7553C312.666 70.1406 312.937 68.8806 313.478 67.9753C314.029 67.0606 314.972 66.6033 316.306 66.6033C317.641 66.6033 318.579 67.0606 319.12 67.9753C319.671 68.8806 319.946 70.1406 319.946 71.7553C319.946 73.3886 319.671 74.6672 319.12 75.5912C318.579 76.5059 317.641 76.9632 316.306 76.9632C314.972 76.9632 314.029 76.5059 313.478 75.5912C312.937 74.6672 312.666 73.3886 312.666 71.7553ZM318.378 71.7553C318.378 70.9993 318.327 70.3599 318.224 69.8373C318.131 69.3146 317.935 68.89 317.636 68.5633C317.338 68.2273 316.894 68.0593 316.306 68.0593C315.718 68.0593 315.275 68.2273 314.976 68.5633C314.678 68.89 314.477 69.3146 314.374 69.8373C314.281 70.3599 314.234 70.9993 314.234 71.7553C314.234 72.5393 314.281 73.1972 314.374 73.7292C314.468 74.2612 314.664 74.6906 314.962 75.0172C315.27 75.3439 315.718 75.5072 316.306 75.5072C316.894 75.5072 317.338 75.3439 317.636 75.0172C317.944 74.6906 318.145 74.2612 318.238 73.7292C318.332 73.1972 318.378 72.5393 318.378 71.7553Z" fill="#507184"/>
<path d="M298.018 112.219C298.018 112.685 297.902 113.124 297.668 113.535C297.444 113.945 297.108 114.291 296.66 114.571C296.222 114.851 295.699 115.019 295.092 115.075V116.209H294.182V115.075C293.305 114.991 292.596 114.715 292.055 114.249C291.513 113.782 291.243 113.166 291.243 112.401H292.95C292.978 112.765 293.095 113.068 293.3 113.311C293.506 113.544 293.8 113.693 294.182 113.759V110.679C293.557 110.52 293.048 110.361 292.656 110.203C292.265 110.035 291.929 109.773 291.649 109.419C291.378 109.064 291.243 108.579 291.243 107.963C291.243 107.188 291.513 106.549 292.055 106.045C292.596 105.531 293.305 105.233 294.182 105.149V104.015H295.092V105.149C295.914 105.223 296.572 105.485 297.066 105.933C297.57 106.371 297.855 106.978 297.92 107.753H296.212C296.184 107.463 296.072 107.207 295.876 106.983C295.68 106.749 295.419 106.591 295.092 106.507V109.531C295.718 109.68 296.226 109.839 296.618 110.007C297.01 110.165 297.342 110.422 297.612 110.777C297.883 111.122 298.018 111.603 298.018 112.219ZM292.866 107.879C292.866 108.261 292.978 108.56 293.202 108.775C293.436 108.989 293.762 109.162 294.182 109.293V106.465C293.781 106.511 293.459 106.656 293.216 106.899C292.983 107.141 292.866 107.468 292.866 107.879ZM295.092 113.759C295.503 113.693 295.825 113.53 296.058 113.269C296.292 112.998 296.408 112.676 296.408 112.303C296.408 111.929 296.292 111.64 296.058 111.435C295.834 111.22 295.512 111.047 295.092 110.917V113.759ZM300.32 107.305C300.376 106.437 300.707 105.76 301.314 105.275C301.93 104.789 302.714 104.547 303.666 104.547C304.319 104.547 304.884 104.663 305.36 104.897C305.836 105.13 306.195 105.447 306.438 105.849C306.681 106.25 306.802 106.703 306.802 107.207C306.802 107.785 306.648 108.28 306.34 108.691C306.032 109.101 305.663 109.377 305.234 109.517V109.573C305.785 109.741 306.214 110.049 306.522 110.497C306.83 110.935 306.984 111.5 306.984 112.191C306.984 112.741 306.858 113.231 306.606 113.661C306.354 114.09 305.981 114.431 305.486 114.683C304.991 114.925 304.399 115.047 303.708 115.047C302.7 115.047 301.869 114.79 301.216 114.277C300.572 113.754 300.227 113.007 300.18 112.037H301.72C301.757 112.531 301.949 112.937 302.294 113.255C302.639 113.563 303.106 113.717 303.694 113.717C304.263 113.717 304.702 113.563 305.01 113.255C305.318 112.937 305.472 112.531 305.472 112.037C305.472 111.383 305.262 110.921 304.842 110.651C304.431 110.371 303.797 110.231 302.938 110.231H302.574V108.915H302.952C303.708 108.905 304.282 108.779 304.674 108.537C305.075 108.294 305.276 107.911 305.276 107.389C305.276 106.941 305.131 106.586 304.842 106.325C304.553 106.054 304.142 105.919 303.61 105.919C303.087 105.919 302.681 106.054 302.392 106.325C302.103 106.586 301.93 106.913 301.874 107.305H300.32ZM308.45 106.241V104.785H311.362V114.991H309.752V106.241H308.45ZM314.437 112.821C315.333 112.046 316.037 111.411 316.551 110.917C317.073 110.413 317.507 109.89 317.853 109.349C318.198 108.807 318.371 108.266 318.371 107.725C318.371 107.165 318.235 106.726 317.965 106.409C317.703 106.091 317.288 105.933 316.719 105.933C316.168 105.933 315.739 106.11 315.431 106.465C315.132 106.81 314.973 107.277 314.955 107.865H313.415C313.443 106.801 313.76 105.989 314.367 105.429C314.983 104.859 315.762 104.575 316.705 104.575C317.722 104.575 318.515 104.855 319.085 105.415C319.663 105.975 319.953 106.721 319.953 107.655C319.953 108.327 319.78 108.975 319.435 109.601C319.099 110.217 318.693 110.772 318.217 111.267C317.75 111.752 317.153 112.317 316.425 112.961L315.795 113.521H320.233V114.851H313.429V113.689L314.437 112.821Z" fill="#507184"/>
<path d="M66.2973 139.989C58.8284 139.989 51.5049 137.924 45.1366 134.021C38.7683 130.119 33.6032 124.531 30.2124 117.876C26.8215 111.221 25.3371 103.758 25.9231 96.3123C26.5091 88.8664 29.1427 81.7276 33.5329 75.6851C37.923 69.6426 43.8986 64.9318 50.799 62.0735C57.6994 59.2153 65.2558 58.3209 72.6328 59.4893C80.0098 60.6577 86.92 63.8434 92.5994 68.6941C98.2789 73.5448 102.506 79.8715 104.814 86.9749L66.2973 99.4899V139.989Z" fill="#FCEDB7"/>
<path fill-rule="evenodd" clip-rule="evenodd" d="M66.2974 105.11C62.5291 105.11 57.849 104.934 56.0693 104.726C55.1245 104.616 54.7729 104.132 54.7729 103.297V101.825C54.7729 100.342 55.0586 99.639 55.8276 98.6173L57.0141 97.0682C57.2888 95.5961 58.0029 93.311 58.4533 92.3332C58.8268 91.5532 59.5299 91.1028 60.4857 90.9819C61.2438 90.883 63.3861 90.7951 66.2974 90.7951C69.2087 90.7951 71.384 90.894 72.0871 90.9819C73.0759 91.1028 73.757 91.5642 74.1305 92.3442C74.6029 93.3 75.2951 95.5741 75.5697 97.0682L76.7562 98.6173C77.5362 99.639 77.8109 100.342 77.8109 101.825V103.297C77.8109 104.132 77.4593 104.616 76.5255 104.726C74.7458 104.934 70.0657 105.11 66.2974 105.11ZM59.0685 96.6068C58.5961 96.6288 58.3984 96.4201 58.5082 95.9696C58.7499 94.9149 59.2003 93.5307 59.5189 92.9814C59.8156 92.4321 60.1781 92.2014 60.8263 92.1135C61.5624 92.0146 63.3641 91.9377 66.2974 91.9377C69.2307 91.9377 71.0214 92.0146 71.7685 92.1135C72.4167 92.2014 72.7682 92.4321 73.0759 92.9814C73.3945 93.5307 73.8449 94.9149 74.0866 95.9696C74.1855 96.4201 73.9987 96.6288 73.5153 96.6068C71.9113 96.5079 69.8789 96.4091 66.2974 96.4091C62.7159 96.4091 60.6835 96.5079 59.0685 96.6068ZM60.1891 101.858C60.1891 102.902 59.3981 103.693 58.3434 103.693C57.2997 103.693 56.5087 102.902 56.5087 101.858C56.5087 100.804 57.2997 100.013 58.3434 100.013C59.3981 100.013 60.1891 100.804 60.1891 101.858ZM76.0861 101.858C76.0861 102.902 75.2951 103.693 74.2404 103.693C73.1967 103.693 72.4057 102.902 72.4057 101.858C72.4057 100.804 73.1967 100.013 74.2404 100.013C75.2951 100.013 76.0861 100.804 76.0861 101.858ZM69.2637 103.231H63.3311C62.5401 103.231 61.9908 102.682 61.9908 101.902C61.9908 101.122 62.5401 100.573 63.3311 100.573H69.2637C70.0437 100.573 70.593 101.122 70.593 101.902C70.593 102.682 70.0437 103.231 69.2637 103.231Z" fill="white"/>
<path fill-rule="evenodd" clip-rule="evenodd" d="M55.0695 109.933H56.3989C57.2338 109.933 57.882 109.285 57.882 108.45V106.659C60.299 106.802 63.5948 106.89 66.2974 106.89C68.989 106.89 72.2849 106.802 74.7018 106.659V108.45C74.7018 109.285 75.35 109.933 76.1959 109.933H77.5143C78.3602 109.933 79.0084 109.285 79.0084 108.45V105.561C79.3709 105.132 79.5687 104.561 79.5687 103.858V101.924C79.5687 99.9906 79.2281 98.9029 78.1844 97.5846L77.2067 96.3541C76.8002 94.3766 76.0751 92.3002 75.6906 91.4873C75.0753 90.1909 73.8888 89.4219 72.3727 89.2131C71.5708 89.1033 69.2197 89.0483 66.2974 89.0483C63.3751 89.0483 61.0131 89.1143 60.2221 89.2131C58.706 89.3999 57.5085 90.1909 56.9042 91.4873C56.5197 92.3002 55.7946 94.3766 55.3881 96.3541L54.4104 97.5846C53.3667 98.9029 53.0261 99.9906 53.0261 101.924V103.858C53.0261 104.561 53.2239 105.132 53.5864 105.561V108.45C53.5864 109.285 54.2346 109.933 55.0695 109.933ZM66.2974 105.11C62.5291 105.11 57.849 104.934 56.0693 104.726C55.1245 104.616 54.7729 104.132 54.7729 103.297V101.825C54.7729 100.342 55.0586 99.639 55.8276 98.6173L57.0141 97.0682C57.2888 95.5961 58.0029 93.311 58.4533 92.3332C58.8268 91.5532 59.5299 91.1028 60.4857 90.9819C61.2438 90.883 63.3861 90.7951 66.2974 90.7951C69.2087 90.7951 71.384 90.894 72.0871 90.9819C73.0759 91.1028 73.757 91.5642 74.1305 92.3442C74.6029 93.3 75.2951 95.5741 75.5697 97.0682L76.7562 98.6173C77.5362 99.639 77.8109 100.342 77.8109 101.825V103.297C77.8109 104.132 77.4593 104.616 76.5255 104.726C74.7458 104.934 70.0657 105.11 66.2974 105.11ZM58.5082 95.9696C58.3984 96.4201 58.5961 96.6288 59.0685 96.6068C60.6835 96.5079 62.7159 96.4091 66.2974 96.4091C69.8789 96.4091 71.9113 96.5079 73.5153 96.6068C73.9987 96.6288 74.1855 96.4201 74.0866 95.9696C73.8449 94.9149 73.3945 93.5307 73.0759 92.9814C72.7682 92.4321 72.4167 92.2014 71.7685 92.1135C71.0214 92.0146 69.2307 91.9377 66.2974 91.9377C63.3641 91.9377 61.5624 92.0146 60.8263 92.1135C60.1781 92.2014 59.8156 92.4321 59.5189 92.9814C59.2003 93.5307 58.7499 94.9149 58.5082 95.9696ZM69.2637 103.231C70.0437 103.231 70.593 102.682 70.593 101.902C70.593 101.122 70.0437 100.573 69.2637 100.573H63.3311C62.5401 100.573 61.9908 101.122 61.9908 101.902C61.9908 102.682 62.5401 103.231 63.3311 103.231H69.2637Z" fill="white"/>
<path d="M58.3434 103.693C59.3981 103.693 60.1891 102.902 60.1891 101.858C60.1891 100.804 59.3981 100.013 58.3434 100.013C57.2997 100.013 56.5087 100.804 56.5087 101.858C56.5087 102.902 57.2997 103.693 58.3434 103.693Z" fill="white"/>
<path d="M74.2404 103.693C75.2951 103.693 76.0861 102.902 76.0861 101.858C76.0861 100.804 75.2951 100.013 74.2404 100.013C73.1967 100.013 72.4057 100.804 72.4057 101.858C72.4057 102.902 73.1967 103.693 74.2404 103.693Z" fill="white"/>
<path fill-rule="evenodd" clip-rule="evenodd" d="M66.297 105.11C62.5288 105.11 57.8487 104.934 56.0689 104.726C55.1241 104.616 54.7726 104.132 54.7726 103.297V101.825C54.7726 100.342 55.0582 99.639 55.8272 98.6173L57.0137 97.0682C57.2884 95.5961 58.0025 93.311 58.4529 92.3332C58.8264 91.5532 59.5296 91.1028 60.4854 90.9819C61.2434 90.883 63.3857 90.7951 66.297 90.7951C69.2084 90.7951 71.3836 90.894 72.0867 90.9819C73.0755 91.1028 73.7566 91.5642 74.1302 92.3442C74.6026 93.3 75.2947 95.5741 75.5693 97.0682L76.7559 98.6173C77.5359 99.639 77.8105 100.342 77.8105 101.825V103.297C77.8105 104.132 77.459 104.616 76.5251 104.726C74.7454 104.934 70.0653 105.11 66.297 105.11ZM59.0681 96.6068C58.5957 96.6288 58.398 96.4201 58.5078 95.9696C58.7495 94.9149 59.2 93.5307 59.5186 92.9814C59.8152 92.4321 60.1777 92.2014 60.8259 92.1135C61.562 92.0146 63.3637 91.9377 66.297 91.9377C69.2303 91.9377 71.0211 92.0146 71.7681 92.1135C72.4163 92.2014 72.7679 92.4321 73.0755 92.9814C73.3941 93.5307 73.8445 94.9149 74.0862 95.9696C74.1851 96.4201 73.9983 96.6288 73.5149 96.6068C71.911 96.5079 69.8785 96.4091 66.297 96.4091C62.7155 96.4091 60.6831 96.5079 59.0681 96.6068ZM60.1887 101.858C60.1887 102.902 59.3977 103.693 58.3431 103.693C57.2994 103.693 56.5084 102.902 56.5084 101.858C56.5084 100.804 57.2994 100.013 58.3431 100.013C59.3977 100.013 60.1887 100.804 60.1887 101.858ZM76.0857 101.858C76.0857 102.902 75.2947 103.693 74.24 103.693C73.1963 103.693 72.4053 102.902 72.4053 101.858C72.4053 100.804 73.1963 100.013 74.24 100.013C75.2947 100.013 76.0857 100.804 76.0857 101.858ZM69.2633 103.231H63.3308C62.5398 103.231 61.9905 102.682 61.9905 101.902C61.9905 101.122 62.5398 100.573 63.3308 100.573H69.2633C70.0433 100.573 70.5926 101.122 70.5926 101.902C70.5926 102.682 70.0433 103.231 69.2633 103.231Z" fill="#A9E0FF"/>
<path fill-rule="evenodd" clip-rule="evenodd" d="M55.0692 109.933H56.3985C57.2335 109.933 57.8816 109.285 57.8816 108.45V106.659C60.2986 106.802 63.5944 106.89 66.297 106.89C68.9886 106.89 72.2845 106.802 74.7014 106.659V108.45C74.7014 109.285 75.3496 109.933 76.1956 109.933H77.5139C78.3598 109.933 79.008 109.285 79.008 108.45V105.561C79.3706 105.132 79.5683 104.561 79.5683 103.858V101.924C79.5683 99.9906 79.2277 98.9029 78.1841 97.5846L77.2063 96.3541C76.7998 94.3766 76.0747 92.3002 75.6902 91.4873C75.075 90.1909 73.8885 89.4219 72.3724 89.2131C71.5704 89.1033 69.2194 89.0483 66.297 89.0483C63.3747 89.0483 61.0127 89.1143 60.2217 89.2131C58.7056 89.3999 57.5081 90.1909 56.9039 91.4873C56.5194 92.3002 55.7943 94.3766 55.3878 96.3541L54.41 97.5846C53.3663 98.9029 53.0258 99.9906 53.0258 101.924V103.858C53.0258 104.561 53.2235 105.132 53.5861 105.561V108.45C53.5861 109.285 54.2342 109.933 55.0692 109.933ZM66.297 105.11C62.5288 105.11 57.8487 104.934 56.0689 104.726C55.1241 104.616 54.7726 104.132 54.7726 103.297V101.825C54.7726 100.342 55.0582 99.639 55.8272 98.6173L57.0137 97.0682C57.2884 95.5961 58.0025 93.311 58.4529 92.3332C58.8264 91.5532 59.5296 91.1028 60.4854 90.9819C61.2434 90.883 63.3857 90.7951 66.297 90.7951C69.2084 90.7951 71.3836 90.894 72.0867 90.9819C73.0755 91.1028 73.7566 91.5642 74.1302 92.3442C74.6026 93.3 75.2947 95.5741 75.5693 97.0682L76.7559 98.6173C77.5359 99.639 77.8105 100.342 77.8105 101.825V103.297C77.8105 104.132 77.459 104.616 76.5251 104.726C74.7454 104.934 70.0653 105.11 66.297 105.11ZM58.5078 95.9696C58.398 96.4201 58.5957 96.6288 59.0681 96.6068C60.6831 96.5079 62.7155 96.4091 66.297 96.4091C69.8785 96.4091 71.911 96.5079 73.5149 96.6068C73.9983 96.6288 74.1851 96.4201 74.0862 95.9696C73.8445 94.9149 73.3941 93.5307 73.0755 92.9814C72.7679 92.4321 72.4163 92.2014 71.7681 92.1135C71.0211 92.0146 69.2303 91.9377 66.297 91.9377C63.3637 91.9377 61.562 92.0146 60.8259 92.1135C60.1777 92.2014 59.8152 92.4321 59.5186 92.9814C59.2 93.5307 58.7495 94.9149 58.5078 95.9696ZM69.2633 103.231C70.0433 103.231 70.5926 102.682 70.5926 101.902C70.5926 101.122 70.0433 100.573 69.2633 100.573H63.3308C62.5398 100.573 61.9905 101.122 61.9905 101.902C61.9905 102.682 62.5398 103.231 63.3308 103.231H69.2633Z" fill="#A9E0FF"/>
<path fill-rule="evenodd" clip-rule="evenodd" d="M56.3985 109.933H55.0692C54.2342 109.933 53.5861 109.285 53.5861 108.45V105.561C53.5861 105.561 54.814 106.114 55.6449 106.33C56.4996 106.551 57.8816 106.659 57.8816 106.659V108.45C57.8816 109.285 57.2335 109.933 56.3985 109.933ZM74.7014 106.659V108.45C74.7014 109.285 75.3496 109.933 76.1956 109.933H77.5139C78.3598 109.933 79.008 109.285 79.008 108.45V105.561C79.008 105.561 77.9675 106.19 77.1171 106.408C76.2625 106.627 74.7014 106.659 74.7014 106.659ZM59.0681 96.6068C58.5957 96.6288 58.398 96.4201 58.5078 95.9696C58.7495 94.9149 59.2 93.5307 59.5186 92.9814C59.8152 92.4321 60.1777 92.2014 60.8259 92.1135C61.562 92.0146 63.3637 91.9377 66.297 91.9377C69.2303 91.9377 71.0211 92.0146 71.7681 92.1135C72.4163 92.2014 72.7679 92.4321 73.0755 92.9814C73.3941 93.5307 73.8445 94.9149 74.0862 95.9696C74.1851 96.4201 73.9983 96.6288 73.5149 96.6068C71.911 96.5079 69.8785 96.4091 66.297 96.4091C62.7155 96.4091 60.6831 96.5079 59.0681 96.6068ZM70.5926 101.902C70.5926 102.682 70.0433 103.231 69.2633 103.231H63.3308C62.5398 103.231 61.9905 102.682 61.9905 101.902C61.9905 101.122 62.5398 100.573 63.3308 100.573H69.2633C70.0433 100.573 70.5926 101.122 70.5926 101.902Z" fill="#7AA2B9"/>
<rect x="1.29846" y="1.49218" width="333.997" height="157.999" rx="19.4998" stroke="#DDECF5" stroke-width="0.999991"/>
</svg>
