<svg width="336" height="109" viewBox="0 0 336 109" fill="none" xmlns="http://www.w3.org/2000/svg">
<rect x="0.798462" y="0.993164" width="334.997" height="107.999" rx="19.9998" fill="white"/>
<path d="M16.5383 55.0127C16.5383 53.6528 16.8517 52.4328 17.4783 51.3528C18.1183 50.2728 18.9783 49.4328 20.0583 48.8328C21.1516 48.2195 22.3449 47.9128 23.6383 47.9128C25.1183 47.9128 26.4316 48.2795 27.5782 49.0128C28.7382 49.7328 29.5782 50.7594 30.0982 52.0928H27.3582C26.9982 51.3594 26.4982 50.8128 25.8582 50.4528C25.2183 50.0928 24.4783 49.9128 23.6383 49.9128C22.7183 49.9128 21.8983 50.1195 21.1783 50.5328C20.4583 50.9461 19.8916 51.5394 19.4783 52.3128C19.0783 53.0861 18.8783 53.9861 18.8783 55.0127C18.8783 56.0394 19.0783 56.9394 19.4783 57.7127C19.8916 58.486 20.4583 59.086 21.1783 59.5127C21.8983 59.926 22.7183 60.1327 23.6383 60.1327C24.4783 60.1327 25.2183 59.9527 25.8582 59.5927C26.4982 59.2327 26.9982 58.686 27.3582 57.9527H30.0982C29.5782 59.286 28.7382 60.3127 27.5782 61.0327C26.4316 61.7527 25.1183 62.1127 23.6383 62.1127C22.3316 62.1127 21.1383 61.8127 20.0583 61.2127C18.9783 60.5994 18.1183 59.7527 17.4783 58.6727C16.8517 57.5927 16.5383 56.3727 16.5383 55.0127ZM32.0069 56.4327C32.0069 55.3261 32.2336 54.3461 32.6869 53.4928C33.1536 52.6394 33.7803 51.9794 34.5669 51.5128C35.3669 51.0328 36.2469 50.7928 37.2069 50.7928C38.0735 50.7928 38.8269 50.9661 39.4669 51.3128C40.1202 51.6461 40.6402 52.0661 41.0268 52.5728V50.9728H43.3268V61.9927H41.0268V60.3527C40.6402 60.8727 40.1135 61.306 39.4469 61.6527C38.7802 61.9993 38.0202 62.1727 37.1669 62.1727C36.2202 62.1727 35.3536 61.9327 34.5669 61.4527C33.7803 60.9594 33.1536 60.2794 32.6869 59.4127C32.2336 58.5327 32.0069 57.5394 32.0069 56.4327ZM41.0268 56.4727C41.0268 55.7127 40.8669 55.0527 40.5469 54.4927C40.2402 53.9328 39.8335 53.5061 39.3269 53.2128C38.8202 52.9194 38.2735 52.7728 37.6869 52.7728C37.1002 52.7728 36.5536 52.9194 36.0469 53.2128C35.5402 53.4928 35.1269 53.9128 34.8069 54.4727C34.5002 55.0194 34.3469 55.6727 34.3469 56.4327C34.3469 57.1927 34.5002 57.8594 34.8069 58.4327C35.1269 59.006 35.5402 59.446 36.0469 59.7527C36.5669 60.046 37.1136 60.1927 37.6869 60.1927C38.2735 60.1927 38.8202 60.046 39.3269 59.7527C39.8335 59.4594 40.2402 59.0327 40.5469 58.4727C40.8669 57.8994 41.0268 57.2327 41.0268 56.4727ZM48.6015 52.5728C48.9348 52.0128 49.3748 51.5794 49.9215 51.2728C50.4814 50.9528 51.1414 50.7928 51.9014 50.7928V53.1528H51.3214C50.4281 53.1528 49.7481 53.3794 49.2815 53.8328C48.8281 54.2861 48.6015 55.0727 48.6015 56.1927V61.9927H46.3215V50.9728H48.6015V52.5728ZM61.4724 47.1928V61.9927H59.1925V47.1928H61.4724ZM69.2458 62.1727C68.2058 62.1727 67.2658 61.9393 66.4258 61.4727C65.5858 60.9927 64.9258 60.326 64.4458 59.4727C63.9658 58.606 63.7259 57.6061 63.7259 56.4727C63.7259 55.3527 63.9725 54.3594 64.4658 53.4928C64.9592 52.6261 65.6325 51.9594 66.4858 51.4928C67.3392 51.0261 68.2925 50.7928 69.3458 50.7928C70.3991 50.7928 71.3524 51.0261 72.2058 51.4928C73.0591 51.9594 73.7324 52.6261 74.2258 53.4928C74.7191 54.3594 74.9657 55.3527 74.9657 56.4727C74.9657 57.5927 74.7124 58.586 74.2058 59.4527C73.6991 60.3194 73.0058 60.9927 72.1258 61.4727C71.2591 61.9393 70.2991 62.1727 69.2458 62.1727ZM69.2458 60.1927C69.8325 60.1927 70.3791 60.0527 70.8858 59.7727C71.4058 59.4927 71.8258 59.0727 72.1458 58.5127C72.4658 57.9527 72.6258 57.2727 72.6258 56.4727C72.6258 55.6727 72.4724 54.9994 72.1658 54.4527C71.8591 53.8928 71.4524 53.4728 70.9458 53.1928C70.4391 52.9128 69.8925 52.7728 69.3058 52.7728C68.7191 52.7728 68.1725 52.9128 67.6658 53.1928C67.1725 53.4728 66.7792 53.8928 66.4858 54.4527C66.1925 54.9994 66.0458 55.6727 66.0458 56.4727C66.0458 57.6594 66.3458 58.5794 66.9458 59.2327C67.5591 59.8727 68.3258 60.1927 69.2458 60.1927ZM76.4596 56.4327C76.4596 55.3261 76.6863 54.3461 77.1396 53.4928C77.6063 52.6394 78.233 51.9794 79.0196 51.5128C79.8196 51.0328 80.6996 50.7928 81.6596 50.7928C82.5262 50.7928 83.2796 50.9661 83.9196 51.3128C84.5729 51.6461 85.0929 52.0661 85.4796 52.5728V50.9728H87.7795V61.9927H85.4796V60.3527C85.0929 60.8727 84.5662 61.306 83.8996 61.6527C83.2329 61.9993 82.4729 62.1727 81.6196 62.1727C80.6729 62.1727 79.8063 61.9327 79.0196 61.4527C78.233 60.9594 77.6063 60.2794 77.1396 59.4127C76.6863 58.5327 76.4596 57.5394 76.4596 56.4327ZM85.4796 56.4727C85.4796 55.7127 85.3196 55.0527 84.9996 54.4927C84.6929 53.9328 84.2862 53.5061 83.7796 53.2128C83.2729 52.9194 82.7262 52.7728 82.1396 52.7728C81.5529 52.7728 81.0063 52.9194 80.4996 53.2128C79.9929 53.4928 79.5796 53.9128 79.2596 54.4727C78.9529 55.0194 78.7996 55.6727 78.7996 56.4327C78.7996 57.1927 78.9529 57.8594 79.2596 58.4327C79.5796 59.006 79.9929 59.446 80.4996 59.7527C81.0196 60.046 81.5663 60.1927 82.1396 60.1927C82.7262 60.1927 83.2729 60.046 83.7796 59.7527C84.2862 59.4594 84.6929 59.0327 84.9996 58.4727C85.3196 57.8994 85.4796 57.2327 85.4796 56.4727ZM96.3341 50.7928C97.2008 50.7928 97.9741 50.9728 98.6541 51.3328C99.3474 51.6928 99.8874 52.2261 100.274 52.9328C100.661 53.6394 100.854 54.4927 100.854 55.4927V61.9927H98.5941V55.8327C98.5941 54.8461 98.3474 54.0928 97.8541 53.5728C97.3608 53.0394 96.6875 52.7728 95.8341 52.7728C94.9808 52.7728 94.3008 53.0394 93.7942 53.5728C93.3008 54.0928 93.0542 54.8461 93.0542 55.8327V61.9927H90.7742V50.9728H93.0542V52.2328C93.4275 51.7794 93.9008 51.4261 94.4742 51.1728C95.0608 50.9194 95.6808 50.7928 96.3341 50.7928Z" fill="#154C6B"/>
<path d="M168.296 95.9909C160.827 95.9909 153.503 93.9255 147.135 90.023C140.767 86.1205 135.601 80.5329 132.211 73.878C128.82 67.2231 127.335 59.7602 127.921 52.3143C128.507 44.8684 131.141 37.7295 135.531 31.687C139.921 25.6445 145.897 20.9337 152.797 18.0755C159.698 15.2172 167.254 14.3229 174.631 15.4913C182.008 16.6597 188.918 19.8453 194.598 24.696C200.277 29.5467 204.505 35.8735 206.813 42.9769L168.296 55.4918V95.9909Z" fill="#FCEDB7"/>
<path fill-rule="evenodd" clip-rule="evenodd" d="M168.296 61.1111C164.528 61.1111 159.848 60.9353 158.068 60.7266C157.124 60.6167 156.772 60.1333 156.772 59.2984V57.8262C156.772 56.3431 157.058 55.64 157.827 54.6183L159.013 53.0692C159.288 51.5971 160.002 49.3119 160.452 48.3342C160.826 47.5542 161.529 47.1037 162.485 46.9829C163.243 46.884 165.385 46.7961 168.296 46.7961C171.208 46.7961 173.383 46.895 174.086 46.9829C175.075 47.1037 175.756 47.5651 176.13 48.3452C176.602 49.301 177.294 51.5751 177.569 53.0692L178.755 54.6183C179.535 55.64 179.81 56.3431 179.81 57.8262V59.2984C179.81 60.1333 179.458 60.6167 178.525 60.7266C176.745 60.9353 172.065 61.1111 168.296 61.1111ZM161.068 52.6078C160.595 52.6298 160.397 52.421 160.507 51.9706C160.749 50.9159 161.199 49.5317 161.518 48.9824C161.815 48.4331 162.177 48.2023 162.825 48.1145C163.561 48.0156 165.363 47.9387 168.296 47.9387C171.23 47.9387 173.021 48.0156 173.768 48.1145C174.416 48.2023 174.767 48.4331 175.075 48.9824C175.394 49.5317 175.844 50.9159 176.086 51.9706C176.185 52.421 175.998 52.6298 175.514 52.6078C173.91 52.5089 171.878 52.41 168.296 52.41C164.715 52.41 162.683 52.5089 161.068 52.6078ZM162.188 57.8592C162.188 58.9029 161.397 59.6939 160.343 59.6939C159.299 59.6939 158.508 58.9029 158.508 57.8592C158.508 56.8045 159.299 56.0135 160.343 56.0135C161.397 56.0135 162.188 56.8045 162.188 57.8592ZM178.085 57.8592C178.085 58.9029 177.294 59.6939 176.239 59.6939C175.196 59.6939 174.405 58.9029 174.405 57.8592C174.405 56.8045 175.196 56.0135 176.239 56.0135C177.294 56.0135 178.085 56.8045 178.085 57.8592ZM171.263 59.2324H165.33C164.539 59.2324 163.99 58.6831 163.99 57.9031C163.99 57.1231 164.539 56.5738 165.33 56.5738H171.263C172.043 56.5738 172.592 57.1231 172.592 57.9031C172.592 58.6831 172.043 59.2324 171.263 59.2324Z" fill="white"/>
<path fill-rule="evenodd" clip-rule="evenodd" d="M157.069 65.934H158.398C159.233 65.934 159.881 65.2858 159.881 64.4509V62.6601C162.298 62.8029 165.594 62.8908 168.296 62.8908C170.988 62.8908 174.284 62.8029 176.701 62.6601V64.4509C176.701 65.2858 177.349 65.934 178.195 65.934H179.513C180.359 65.934 181.007 65.2858 181.007 64.4509V61.5615C181.37 61.133 181.568 60.5618 181.568 59.8587V57.9251C181.568 55.9915 181.227 54.9039 180.184 53.5856L179.206 52.3551C178.799 50.3776 178.074 48.3012 177.69 47.4882C177.074 46.1919 175.888 45.4228 174.372 45.2141C173.57 45.1042 171.219 45.0493 168.296 45.0493C165.374 45.0493 163.012 45.1152 162.221 45.2141C160.705 45.4009 159.508 46.1919 158.903 47.4882C158.519 48.3012 157.794 50.3776 157.387 52.3551L156.409 53.5856C155.366 54.9039 155.025 55.9915 155.025 57.9251V59.8587C155.025 60.5618 155.223 61.133 155.586 61.5615V64.4509C155.586 65.2858 156.234 65.934 157.069 65.934ZM168.296 61.1111C164.528 61.1111 159.848 60.9353 158.068 60.7266C157.124 60.6167 156.772 60.1333 156.772 59.2984V57.8262C156.772 56.3431 157.058 55.64 157.827 54.6183L159.013 53.0692C159.288 51.5971 160.002 49.3119 160.452 48.3342C160.826 47.5542 161.529 47.1037 162.485 46.9829C163.243 46.884 165.385 46.7961 168.296 46.7961C171.208 46.7961 173.383 46.895 174.086 46.9829C175.075 47.1037 175.756 47.5651 176.13 48.3452C176.602 49.301 177.294 51.5751 177.569 53.0692L178.755 54.6183C179.535 55.64 179.81 56.3431 179.81 57.8262V59.2984C179.81 60.1333 179.458 60.6167 178.525 60.7266C176.745 60.9353 172.065 61.1111 168.296 61.1111ZM160.507 51.9706C160.397 52.421 160.595 52.6298 161.068 52.6078C162.683 52.5089 164.715 52.41 168.296 52.41C171.878 52.41 173.91 52.5089 175.514 52.6078C175.998 52.6298 176.185 52.421 176.086 51.9706C175.844 50.9159 175.394 49.5317 175.075 48.9824C174.767 48.4331 174.416 48.2023 173.768 48.1145C173.021 48.0156 171.23 47.9387 168.296 47.9387C165.363 47.9387 163.561 48.0156 162.825 48.1145C162.177 48.2023 161.815 48.4331 161.518 48.9824C161.199 49.5317 160.749 50.9159 160.507 51.9706ZM171.263 59.2324C172.043 59.2324 172.592 58.6831 172.592 57.9031C172.592 57.1231 172.043 56.5738 171.263 56.5738H165.33C164.539 56.5738 163.99 57.1231 163.99 57.9031C163.99 58.6831 164.539 59.2324 165.33 59.2324H171.263Z" fill="white"/>
<path d="M160.343 59.6939C161.397 59.6939 162.188 58.9029 162.188 57.8592C162.188 56.8045 161.397 56.0135 160.343 56.0135C159.299 56.0135 158.508 56.8045 158.508 57.8592C158.508 58.9029 159.299 59.6939 160.343 59.6939Z" fill="white"/>
<path d="M176.239 59.6939C177.294 59.6939 178.085 58.9029 178.085 57.8592C178.085 56.8045 177.294 56.0135 176.239 56.0135C175.196 56.0135 174.405 56.8045 174.405 57.8592C174.405 58.9029 175.196 59.6939 176.239 59.6939Z" fill="white"/>
<path fill-rule="evenodd" clip-rule="evenodd" d="M168.296 61.1111C164.528 61.1111 159.848 60.9353 158.068 60.7266C157.123 60.6167 156.772 60.1333 156.772 59.2984V57.8262C156.772 56.3431 157.057 55.64 157.826 54.6183L159.013 53.0692C159.287 51.5971 160.002 49.3119 160.452 48.3342C160.826 47.5542 161.529 47.1037 162.484 46.9829C163.242 46.884 165.385 46.7961 168.296 46.7961C171.207 46.7961 173.383 46.895 174.086 46.9829C175.075 47.1037 175.756 47.5651 176.129 48.3452C176.602 49.301 177.294 51.5751 177.568 53.0692L178.755 54.6183C179.535 55.64 179.81 56.3431 179.81 57.8262V59.2984C179.81 60.1333 179.458 60.6167 178.524 60.7266C176.744 60.9353 172.064 61.1111 168.296 61.1111ZM161.067 52.6078C160.595 52.6298 160.397 52.421 160.507 51.9706C160.749 50.9159 161.199 49.5317 161.518 48.9824C161.814 48.4331 162.177 48.2023 162.825 48.1145C163.561 48.0156 165.363 47.9387 168.296 47.9387C171.229 47.9387 173.02 48.0156 173.767 48.1145C174.415 48.2023 174.767 48.4331 175.075 48.9824C175.393 49.5317 175.844 50.9159 176.085 51.9706C176.184 52.421 175.997 52.6298 175.514 52.6078C173.91 52.5089 171.878 52.41 168.296 52.41C164.715 52.41 162.682 52.5089 161.067 52.6078ZM162.188 57.8592C162.188 58.9029 161.397 59.6939 160.342 59.6939C159.298 59.6939 158.507 58.9029 158.507 57.8592C158.507 56.8045 159.298 56.0135 160.342 56.0135C161.397 56.0135 162.188 56.8045 162.188 57.8592ZM178.085 57.8592C178.085 58.9029 177.294 59.6939 176.239 59.6939C175.195 59.6939 174.404 58.9029 174.404 57.8592C174.404 56.8045 175.195 56.0135 176.239 56.0135C177.294 56.0135 178.085 56.8045 178.085 57.8592ZM171.262 59.2324H165.33C164.539 59.2324 163.99 58.6831 163.99 57.9031C163.99 57.1231 164.539 56.5738 165.33 56.5738H171.262C172.042 56.5738 172.592 57.1231 172.592 57.9031C172.592 58.6831 172.042 59.2324 171.262 59.2324Z" fill="#A9E0FF"/>
<path fill-rule="evenodd" clip-rule="evenodd" d="M157.068 65.934H158.398C159.233 65.934 159.881 65.2858 159.881 64.4509V62.6601C162.298 62.8029 165.594 62.8908 168.296 62.8908C170.988 62.8908 174.284 62.8029 176.701 62.6601V64.4509C176.701 65.2858 177.349 65.934 178.195 65.934H179.513C180.359 65.934 181.007 65.2858 181.007 64.4509V61.5615C181.37 61.133 181.567 60.5618 181.567 59.8587V57.9251C181.567 55.9915 181.227 54.9039 180.183 53.5856L179.205 52.3551C178.799 50.3776 178.074 48.3012 177.689 47.4882C177.074 46.1919 175.888 45.4228 174.371 45.2141C173.569 45.1042 171.218 45.0493 168.296 45.0493C165.374 45.0493 163.012 45.1152 162.221 45.2141C160.705 45.4009 159.507 46.1919 158.903 47.4882C158.518 48.3012 157.793 50.3776 157.387 52.3551L156.409 53.5856C155.365 54.9039 155.025 55.9915 155.025 57.9251V59.8587C155.025 60.5618 155.223 61.133 155.585 61.5615V64.4509C155.585 65.2858 156.233 65.934 157.068 65.934ZM168.296 61.1111C164.528 61.1111 159.848 60.9353 158.068 60.7266C157.123 60.6167 156.772 60.1333 156.772 59.2984V57.8262C156.772 56.3431 157.057 55.64 157.826 54.6183L159.013 53.0692C159.287 51.5971 160.002 49.3119 160.452 48.3342C160.826 47.5542 161.529 47.1037 162.484 46.9829C163.242 46.884 165.385 46.7961 168.296 46.7961C171.207 46.7961 173.383 46.895 174.086 46.9829C175.075 47.1037 175.756 47.5651 176.129 48.3452C176.602 49.301 177.294 51.5751 177.568 53.0692L178.755 54.6183C179.535 55.64 179.81 56.3431 179.81 57.8262V59.2984C179.81 60.1333 179.458 60.6167 178.524 60.7266C176.744 60.9353 172.064 61.1111 168.296 61.1111ZM160.507 51.9706C160.397 52.421 160.595 52.6298 161.067 52.6078C162.682 52.5089 164.715 52.41 168.296 52.41C171.878 52.41 173.91 52.5089 175.514 52.6078C175.997 52.6298 176.184 52.421 176.085 51.9706C175.844 50.9159 175.393 49.5317 175.075 48.9824C174.767 48.4331 174.415 48.2023 173.767 48.1145C173.02 48.0156 171.229 47.9387 168.296 47.9387C165.363 47.9387 163.561 48.0156 162.825 48.1145C162.177 48.2023 161.814 48.4331 161.518 48.9824C161.199 49.5317 160.749 50.9159 160.507 51.9706ZM171.262 59.2324C172.042 59.2324 172.592 58.6831 172.592 57.9031C172.592 57.1231 172.042 56.5738 171.262 56.5738H165.33C164.539 56.5738 163.99 57.1231 163.99 57.9031C163.99 58.6831 164.539 59.2324 165.33 59.2324H171.262Z" fill="#A9E0FF"/>
<path fill-rule="evenodd" clip-rule="evenodd" d="M158.398 65.934H157.068C156.233 65.934 155.585 65.2858 155.585 64.4509V61.5615C155.585 61.5615 156.813 62.1153 157.644 62.3305C158.499 62.5518 159.881 62.6601 159.881 62.6601V64.4509C159.881 65.2858 159.233 65.934 158.398 65.934ZM176.701 62.6601V64.4509C176.701 65.2858 177.349 65.934 178.195 65.934H179.513C180.359 65.934 181.007 65.2858 181.007 64.4509V61.5615C181.007 61.5615 179.967 62.1913 179.116 62.409C178.262 62.6277 176.701 62.6601 176.701 62.6601ZM161.067 52.6078C160.595 52.6298 160.397 52.421 160.507 51.9706C160.749 50.9159 161.199 49.5317 161.518 48.9824C161.814 48.4331 162.177 48.2023 162.825 48.1145C163.561 48.0156 165.363 47.9387 168.296 47.9387C171.229 47.9387 173.02 48.0156 173.767 48.1145C174.415 48.2023 174.767 48.4331 175.075 48.9824C175.393 49.5317 175.844 50.9159 176.085 51.9706C176.184 52.421 175.997 52.6298 175.514 52.6078C173.91 52.5089 171.878 52.41 168.296 52.41C164.715 52.41 162.682 52.5089 161.067 52.6078ZM172.592 57.9031C172.592 58.6831 172.042 59.2324 171.262 59.2324H165.33C164.539 59.2324 163.99 58.6831 163.99 57.9031C163.99 57.1231 164.539 56.5738 165.33 56.5738H171.262C172.042 56.5738 172.592 57.1231 172.592 57.9031Z" fill="#7AA2B9"/>
<path d="M247.494 50.8457C247.494 51.7124 247.278 52.527 246.844 53.2897C246.428 54.0523 245.804 54.6937 244.972 55.2137C244.158 55.7337 243.187 56.0457 242.06 56.1497V58.2556H240.37V56.1497C238.741 55.9937 237.424 55.4823 236.418 54.6157C235.413 53.749 234.91 52.605 234.91 51.1837H238.082C238.134 51.8597 238.351 52.423 238.732 52.8737C239.114 53.307 239.66 53.5843 240.37 53.7057V47.9857C239.209 47.6911 238.264 47.3964 237.536 47.1017C236.808 46.7897 236.184 46.3044 235.664 45.6457C235.162 44.9871 234.91 44.0858 234.91 42.9418C234.91 41.5031 235.413 40.3158 236.418 39.3798C237.424 38.4265 238.741 37.8718 240.37 37.7158V35.6098H242.06V37.7158C243.586 37.8545 244.808 38.3398 245.726 39.1718C246.662 39.9865 247.191 41.1131 247.312 42.5518H244.14C244.088 42.0145 243.88 41.5378 243.516 41.1218C243.152 40.6885 242.667 40.3938 242.06 40.2378V45.8537C243.222 46.1311 244.166 46.4257 244.894 46.7377C245.622 47.0324 246.238 47.5091 246.74 48.1677C247.243 48.8091 247.494 49.7017 247.494 50.8457ZM237.926 42.7858C237.926 43.4964 238.134 44.0511 238.55 44.4498C238.984 44.8484 239.59 45.1691 240.37 45.4118V40.1598C239.625 40.2465 239.027 40.5151 238.576 40.9658C238.143 41.4165 237.926 42.0231 237.926 42.7858ZM242.06 53.7057C242.823 53.5843 243.421 53.281 243.854 52.7957C244.288 52.293 244.504 51.695 244.504 51.0017C244.504 50.3084 244.288 49.771 243.854 49.3897C243.438 48.9911 242.84 48.6704 242.06 48.4277V53.7057ZM264.04 39.5878H255.33V44.7618C255.694 44.2764 256.232 43.8691 256.942 43.5398C257.67 43.2104 258.442 43.0458 259.256 43.0458C260.712 43.0458 261.891 43.3578 262.792 43.9818C263.711 44.6058 264.361 45.3944 264.742 46.3477C265.141 47.3011 265.34 48.3064 265.34 49.3637C265.34 50.6464 265.089 51.7904 264.586 52.7957C264.101 53.7837 263.364 54.5637 262.376 55.1357C261.406 55.7077 260.21 55.9937 258.788 55.9937C256.899 55.9937 255.382 55.5257 254.238 54.5897C253.094 53.6537 252.41 52.4144 252.184 50.8717H255.07C255.261 51.6864 255.686 52.3364 256.344 52.8217C257.003 53.2897 257.826 53.5237 258.814 53.5237C260.045 53.5237 260.964 53.151 261.57 52.4057C262.194 51.6604 262.506 50.6724 262.506 49.4417C262.506 48.1937 262.194 47.2404 261.57 46.5817C260.946 45.9057 260.028 45.5678 258.814 45.5678C257.965 45.5678 257.246 45.7844 256.656 46.2177C256.084 46.6337 255.668 47.2057 255.408 47.9337H252.6V36.9878H264.04V39.5878ZM272.066 52.4317L268.92 59.6076H266.996L268.842 52.4317H272.066ZM277.957 50.8457C278.131 51.7124 278.503 52.371 279.075 52.8217C279.647 53.2723 280.419 53.4977 281.389 53.4977C282.62 53.4977 283.521 53.0123 284.093 52.0417C284.665 51.071 284.951 49.4157 284.951 47.0757C284.535 47.6651 283.946 48.1244 283.183 48.4537C282.438 48.7657 281.623 48.9217 280.739 48.9217C279.613 48.9217 278.59 48.6964 277.671 48.2457C276.753 47.7777 276.025 47.0931 275.487 46.1917C274.967 45.2731 274.707 44.1638 274.707 42.8638C274.707 40.9571 275.262 39.4405 276.371 38.3138C277.498 37.1698 279.041 36.5978 280.999 36.5978C283.357 36.5978 285.029 37.3865 286.017 38.9638C287.023 40.5238 287.525 42.9244 287.525 46.1657C287.525 48.4017 287.335 50.2304 286.953 51.6517C286.589 53.073 285.948 54.1477 285.029 54.8757C284.111 55.6037 282.837 55.9677 281.207 55.9677C279.353 55.9677 277.923 55.4823 276.917 54.5117C275.912 53.541 275.349 52.319 275.227 50.8457H277.957ZM281.259 46.4257C282.299 46.4257 283.114 46.1051 283.703 45.4638C284.31 44.8051 284.613 43.9384 284.613 42.8638C284.613 41.6678 284.293 40.7405 283.651 40.0818C283.027 39.4058 282.169 39.0678 281.077 39.0678C279.985 39.0678 279.119 39.4145 278.477 40.1078C277.853 40.7838 277.541 41.6765 277.541 42.7858C277.541 43.8431 277.845 44.7184 278.451 45.4118C279.075 46.0877 280.011 46.4257 281.259 46.4257ZM292.407 51.9637C294.071 50.525 295.38 49.3464 296.333 48.4277C297.304 47.4917 298.11 46.5211 298.751 45.5158C299.392 44.5104 299.713 43.5051 299.713 42.4998C299.713 41.4598 299.462 40.6451 298.959 40.0558C298.474 39.4665 297.703 39.1718 296.645 39.1718C295.623 39.1718 294.825 39.5011 294.253 40.1598C293.699 40.8011 293.404 41.6678 293.369 42.7598H290.509C290.561 40.7838 291.151 39.2758 292.277 38.2358C293.421 37.1785 294.869 36.6498 296.619 36.6498C298.509 36.6498 299.982 37.1698 301.039 38.2098C302.114 39.2498 302.651 40.6365 302.651 42.3698C302.651 43.6178 302.33 44.8224 301.689 45.9837C301.065 47.1277 300.311 48.1591 299.427 49.0777C298.561 49.979 297.451 51.0277 296.099 52.2237L294.929 53.2637H303.171V55.7337H290.535V53.5757L292.407 51.9637ZM308.973 46.0877C307.17 45.1864 306.269 43.7651 306.269 41.8238C306.269 40.8878 306.503 40.0298 306.971 39.2498C307.439 38.4698 308.141 37.8545 309.077 37.4038C310.013 36.9358 311.157 36.7018 312.509 36.7018C313.844 36.7018 314.979 36.9358 315.915 37.4038C316.868 37.8545 317.579 38.4698 318.047 39.2498C318.515 40.0298 318.749 40.8878 318.749 41.8238C318.749 42.7944 318.498 43.6524 317.995 44.3978C317.51 45.1258 316.86 45.6891 316.045 46.0877C317.033 46.4517 317.813 47.0497 318.385 47.8817C318.957 48.6964 319.243 49.6584 319.243 50.7677C319.243 51.8944 318.957 52.891 318.385 53.7577C317.813 54.6243 317.016 55.2917 315.993 55.7597C314.97 56.2277 313.809 56.4616 312.509 56.4616C311.209 56.4616 310.048 56.2277 309.025 55.7597C308.02 55.2917 307.231 54.6243 306.659 53.7577C306.087 52.891 305.801 51.8944 305.801 50.7677C305.801 49.641 306.087 48.6704 306.659 47.8557C307.231 47.0411 308.002 46.4517 308.973 46.0877ZM315.915 42.1878C315.915 41.2171 315.612 40.4718 315.005 39.9518C314.398 39.4318 313.566 39.1718 312.509 39.1718C311.469 39.1718 310.646 39.4318 310.039 39.9518C309.432 40.4718 309.129 41.2258 309.129 42.2138C309.129 43.0804 309.441 43.7911 310.065 44.3458C310.706 44.8831 311.521 45.1518 312.509 45.1518C313.497 45.1518 314.312 44.8744 314.953 44.3198C315.594 43.7651 315.915 43.0544 315.915 42.1878ZM312.509 47.3877C311.365 47.3877 310.429 47.6737 309.701 48.2457C308.99 48.8004 308.635 49.6064 308.635 50.6637C308.635 51.6517 308.982 52.4577 309.675 53.0817C310.368 53.6883 311.313 53.9917 312.509 53.9917C313.688 53.9917 314.615 53.6797 315.291 53.0557C315.984 52.4317 316.331 51.6344 316.331 50.6637C316.331 49.6237 315.976 48.8177 315.265 48.2457C314.572 47.6737 313.653 47.3877 312.509 47.3877Z" fill="#154C6B"/>
<path d="M254.939 68.0533C255.116 68.0533 255.252 68.1093 255.345 68.2213C255.448 68.3239 255.499 68.4639 255.499 68.6413V77.5032C255.499 77.6712 255.452 77.8065 255.359 77.9092C255.266 78.0118 255.135 78.0632 254.967 78.0632C254.799 78.0632 254.673 78.0118 254.589 77.9092C254.505 77.8065 254.463 77.6712 254.463 77.5032V70.3492L251.425 76.1732C251.295 76.4438 251.103 76.5792 250.851 76.5792C250.609 76.5792 250.417 76.4438 250.277 76.1732L247.225 70.4192V77.5032C247.225 77.6712 247.179 77.8065 247.085 77.9092C247.001 78.0118 246.875 78.0632 246.707 78.0632C246.539 78.0632 246.409 78.0118 246.315 77.9092C246.222 77.8065 246.175 77.6712 246.175 77.5032V68.6413C246.175 68.4639 246.227 68.3239 246.329 68.2213C246.432 68.1093 246.572 68.0533 246.749 68.0533C246.983 68.0533 247.169 68.1886 247.309 68.4593L250.865 75.2772L254.379 68.4593C254.454 68.3099 254.533 68.2073 254.617 68.1513C254.71 68.0859 254.818 68.0533 254.939 68.0533ZM260.565 71.0072C262.273 71.0072 263.127 71.9032 263.127 73.6952V77.5032C263.127 77.6712 263.075 77.8065 262.973 77.9092C262.879 78.0118 262.749 78.0632 262.581 78.0632C262.413 78.0632 262.277 78.0118 262.175 77.9092C262.072 77.8065 262.021 77.6712 262.021 77.5032V76.8312C261.843 77.2325 261.573 77.5452 261.209 77.7692C260.845 77.9838 260.425 78.0912 259.949 78.0912C259.51 78.0912 259.104 78.0025 258.731 77.8252C258.367 77.6478 258.077 77.4005 257.863 77.0832C257.648 76.7658 257.541 76.4158 257.541 76.0332C257.541 75.5199 257.671 75.1232 257.933 74.8432C258.194 74.5539 258.623 74.3485 259.221 74.2272C259.818 74.0965 260.649 74.0312 261.713 74.0312H262.021V73.5692C262.021 73.0092 261.904 72.5985 261.671 72.3372C261.447 72.0759 261.078 71.9452 260.565 71.9452C259.93 71.9452 259.286 72.1179 258.633 72.4632C258.381 72.6219 258.203 72.7012 258.101 72.7012C257.989 72.7012 257.895 72.6592 257.821 72.5752C257.746 72.4912 257.709 72.3839 257.709 72.2532C257.709 72.1226 257.746 72.0106 257.821 71.9172C257.905 71.8146 258.035 71.7119 258.213 71.6092C258.539 71.4226 258.908 71.2779 259.319 71.1752C259.739 71.0632 260.154 71.0072 260.565 71.0072ZM260.103 77.1952C260.663 77.1952 261.12 77.0085 261.475 76.6352C261.839 76.2525 262.021 75.7625 262.021 75.1652V74.7592H261.769C260.947 74.7592 260.322 74.7965 259.893 74.8712C259.463 74.9365 259.155 75.0532 258.969 75.2212C258.791 75.3799 258.703 75.6179 258.703 75.9352C258.703 76.2992 258.833 76.6025 259.095 76.8452C259.365 77.0785 259.701 77.1952 260.103 77.1952ZM268.576 71.0352C268.968 71.0072 269.164 71.1659 269.164 71.5112C269.164 71.6606 269.122 71.7819 269.038 71.8752C268.954 71.9592 268.81 72.0106 268.604 72.0292L268.184 72.0712C267.559 72.1272 267.092 72.3512 266.784 72.7432C266.486 73.1259 266.336 73.5785 266.336 74.1012V77.5032C266.336 77.6898 266.285 77.8298 266.182 77.9232C266.08 78.0165 265.944 78.0632 265.776 78.0632C265.608 78.0632 265.468 78.0165 265.356 77.9232C265.254 77.8205 265.202 77.6805 265.202 77.5032V71.5952C265.202 71.4179 265.258 71.2826 265.37 71.1892C265.482 71.0866 265.618 71.0352 265.776 71.0352C265.926 71.0352 266.052 71.0866 266.154 71.1892C266.257 71.2826 266.308 71.4132 266.308 71.5812V72.3652C266.504 71.9546 266.78 71.6419 267.134 71.4272C267.498 71.2126 267.914 71.0866 268.38 71.0492L268.576 71.0352ZM272.815 78.0912C272.18 78.0912 271.616 77.9465 271.121 77.6572C270.636 77.3678 270.258 76.9572 269.987 76.4252C269.726 75.8932 269.595 75.2772 269.595 74.5772C269.595 73.8772 269.73 73.2565 270.001 72.7152C270.281 72.1739 270.668 71.7539 271.163 71.4552C271.658 71.1566 272.227 71.0072 272.871 71.0072C273.226 71.0072 273.576 71.0586 273.921 71.1612C274.276 71.2546 274.584 71.3946 274.845 71.5812C275.013 71.6932 275.13 71.8052 275.195 71.9172C275.27 72.0199 275.307 72.1366 275.307 72.2672C275.307 72.3979 275.27 72.5052 275.195 72.5892C275.13 72.6732 275.041 72.7152 274.929 72.7152C274.864 72.7152 274.794 72.6965 274.719 72.6592C274.644 72.6219 274.579 72.5845 274.523 72.5472C274.476 72.5099 274.444 72.4865 274.425 72.4772C274.182 72.3186 273.949 72.1926 273.725 72.0992C273.51 72.0059 273.244 71.9592 272.927 71.9592C272.246 71.9592 271.714 72.1926 271.331 72.6592C270.958 73.1165 270.771 73.7559 270.771 74.5772C270.771 75.3985 270.958 76.0332 271.331 76.4812C271.714 76.9292 272.246 77.1532 272.927 77.1532C273.244 77.1532 273.515 77.1065 273.739 77.0132C273.972 76.9198 274.206 76.7938 274.439 76.6352C274.542 76.5698 274.64 76.5138 274.733 76.4672C274.826 76.4205 274.906 76.3972 274.971 76.3972C275.074 76.3972 275.158 76.4392 275.223 76.5232C275.298 76.6072 275.335 76.7145 275.335 76.8452C275.335 76.9665 275.302 77.0785 275.237 77.1812C275.172 77.2745 275.05 77.3818 274.873 77.5032C274.612 77.6805 274.294 77.8252 273.921 77.9372C273.557 78.0398 273.188 78.0912 272.815 78.0912ZM280.144 71.0072C280.947 71.0072 281.554 71.2359 281.964 71.6932C282.375 72.1412 282.58 72.8132 282.58 73.7092V77.5032C282.58 77.6805 282.529 77.8205 282.426 77.9232C282.324 78.0165 282.188 78.0632 282.02 78.0632C281.843 78.0632 281.703 78.0165 281.6 77.9232C281.498 77.8205 281.446 77.6805 281.446 77.5032V73.7372C281.446 73.1305 281.32 72.6825 281.068 72.3932C280.826 72.1039 280.434 71.9592 279.892 71.9592C279.267 71.9592 278.768 72.1506 278.394 72.5332C278.021 72.9159 277.834 73.4339 277.834 74.0872V77.5032C277.834 77.6805 277.783 77.8205 277.68 77.9232C277.587 78.0165 277.452 78.0632 277.274 78.0632C277.097 78.0632 276.957 78.0165 276.854 77.9232C276.752 77.8205 276.7 77.6805 276.7 77.5032V68.5993C276.7 68.4406 276.752 68.3099 276.854 68.2073C276.966 68.1046 277.106 68.0533 277.274 68.0533C277.452 68.0533 277.587 68.1046 277.68 68.2073C277.783 68.3006 277.834 68.4313 277.834 68.5993V72.2672C278.058 71.8566 278.371 71.5439 278.772 71.3292C279.174 71.1146 279.631 71.0072 280.144 71.0072ZM294.329 77.0272C294.497 77.0272 294.627 77.0692 294.721 77.1532C294.814 77.2372 294.861 77.3538 294.861 77.5032C294.861 77.8298 294.683 77.9932 294.329 77.9932H288.841C288.682 77.9932 288.551 77.9465 288.449 77.8532C288.346 77.7505 288.295 77.6292 288.295 77.4892C288.295 77.3118 288.36 77.1578 288.491 77.0272L291.865 73.3172C292.331 72.7945 292.667 72.3279 292.873 71.9172C293.087 71.4972 293.195 71.0772 293.195 70.6572C293.195 70.1159 293.036 69.7006 292.719 69.4112C292.411 69.1219 291.972 68.9772 291.403 68.9772C290.955 68.9772 290.525 69.0612 290.115 69.2292C289.704 69.3879 289.293 69.6352 288.883 69.9712C288.743 70.0832 288.612 70.1392 288.491 70.1392C288.388 70.1392 288.299 70.0926 288.225 69.9992C288.15 69.8966 288.113 69.7752 288.113 69.6352C288.113 69.4392 288.187 69.2806 288.337 69.1592C288.719 68.8046 289.186 68.5246 289.737 68.3193C290.287 68.1139 290.852 68.0113 291.431 68.0113C292.317 68.0113 293.022 68.2446 293.545 68.7113C294.077 69.1779 294.343 69.8079 294.343 70.6012C294.343 71.1706 294.212 71.7166 293.951 72.2392C293.699 72.7619 293.279 73.3452 292.691 73.9892L289.891 77.0272H294.329ZM299.811 78.1052C298.682 78.1052 297.823 77.6758 297.235 76.8172C296.647 75.9585 296.353 74.7079 296.353 73.0652C296.353 71.4132 296.647 70.1579 297.235 69.2992C297.823 68.4406 298.682 68.0113 299.811 68.0113C300.94 68.0113 301.799 68.4406 302.387 69.2992C302.975 70.1486 303.269 71.3992 303.269 73.0512C303.269 74.7032 302.975 75.9585 302.387 76.8172C301.799 77.6758 300.94 78.1052 299.811 78.1052ZM299.811 77.1392C300.595 77.1392 301.174 76.8078 301.547 76.1452C301.92 75.4825 302.107 74.4512 302.107 73.0512C302.107 71.6419 301.92 70.6106 301.547 69.9572C301.183 69.3039 300.604 68.9772 299.811 68.9772C299.027 68.9772 298.448 69.3086 298.075 69.9712C297.702 70.6246 297.515 71.6512 297.515 73.0512C297.515 74.4512 297.702 75.4825 298.075 76.1452C298.448 76.8078 299.027 77.1392 299.811 77.1392ZM311.117 77.0272C311.285 77.0272 311.416 77.0692 311.509 77.1532C311.603 77.2372 311.649 77.3538 311.649 77.5032C311.649 77.8298 311.472 77.9932 311.117 77.9932H305.629C305.471 77.9932 305.34 77.9465 305.237 77.8532C305.135 77.7505 305.083 77.6292 305.083 77.4892C305.083 77.3118 305.149 77.1578 305.279 77.0272L308.653 73.3172C309.12 72.7945 309.456 72.3279 309.661 71.9172C309.876 71.4972 309.983 71.0772 309.983 70.6572C309.983 70.1159 309.825 69.7006 309.507 69.4112C309.199 69.1219 308.761 68.9772 308.191 68.9772C307.743 68.9772 307.314 69.0612 306.903 69.2292C306.493 69.3879 306.082 69.6352 305.671 69.9712C305.531 70.0832 305.401 70.1392 305.279 70.1392C305.177 70.1392 305.088 70.0926 305.013 69.9992C304.939 69.8966 304.901 69.7752 304.901 69.6352C304.901 69.4392 304.976 69.2806 305.125 69.1592C305.508 68.8046 305.975 68.5246 306.525 68.3193C307.076 68.1139 307.641 68.0113 308.219 68.0113C309.106 68.0113 309.811 68.2446 310.333 68.7113C310.865 69.1779 311.131 69.8079 311.131 70.6012C311.131 71.1706 311.001 71.7166 310.739 72.2392C310.487 72.7619 310.067 73.3452 309.479 73.9892L306.679 77.0272H311.117ZM317.916 72.9252C318.513 73.0932 318.966 73.3825 319.274 73.7932C319.591 74.2039 319.75 74.7125 319.75 75.3192C319.75 76.1778 319.461 76.8545 318.882 77.3492C318.303 77.8438 317.515 78.0912 316.516 78.0912C315.909 78.0912 315.326 77.9885 314.766 77.7832C314.215 77.5778 313.749 77.2978 313.366 76.9432C313.217 76.8032 313.142 76.6445 313.142 76.4672C313.142 76.3272 313.179 76.2105 313.254 76.1172C313.329 76.0238 313.417 75.9772 313.52 75.9772C313.651 75.9772 313.781 76.0285 313.912 76.1312C314.341 76.4765 314.761 76.7285 315.172 76.8872C315.583 77.0458 316.026 77.1252 316.502 77.1252C317.193 77.1252 317.715 76.9665 318.07 76.6492C318.434 76.3318 318.616 75.8745 318.616 75.2772C318.616 74.0732 317.86 73.4712 316.348 73.4712H315.606C315.457 73.4712 315.335 73.4245 315.242 73.3312C315.158 73.2285 315.116 73.1119 315.116 72.9812C315.116 72.8505 315.158 72.7385 315.242 72.6452C315.335 72.5519 315.457 72.5052 315.606 72.5052H316.124C316.852 72.5052 317.412 72.3466 317.804 72.0292C318.196 71.7026 318.392 71.2359 318.392 70.6292C318.392 70.0972 318.233 69.6912 317.916 69.4112C317.599 69.1219 317.151 68.9772 316.572 68.9772C316.133 68.9772 315.709 69.0612 315.298 69.2292C314.887 69.3879 314.477 69.6352 314.066 69.9712C313.935 70.0739 313.805 70.1252 313.674 70.1252C313.571 70.1252 313.483 70.0786 313.408 69.9852C313.333 69.8919 313.296 69.7752 313.296 69.6352C313.296 69.4579 313.371 69.2992 313.52 69.1592C313.903 68.8046 314.365 68.5246 314.906 68.3193C315.457 68.1139 316.021 68.0113 316.6 68.0113C317.496 68.0113 318.21 68.2399 318.742 68.6973C319.274 69.1546 319.535 69.7706 319.526 70.5452C319.517 71.1052 319.367 71.5952 319.078 72.0152C318.798 72.4352 318.411 72.7385 317.916 72.9252Z" fill="#113950"/>
</svg>
