<svg width="336" height="160" viewBox="0 0 336 160" fill="none" xmlns="http://www.w3.org/2000/svg">
<rect x="0.798462" y="0.994629" width="334.997" height="158.998" rx="19.9998" fill="white"/>
<path d="M247.494 32.8467C247.494 33.7133 247.278 34.528 246.844 35.2907C246.428 36.0533 245.804 36.6946 244.972 37.2146C244.158 37.7346 243.187 38.0466 242.06 38.1506V40.2566H240.37V38.1506C238.741 37.9946 237.424 37.4833 236.418 36.6166C235.413 35.75 234.91 34.606 234.91 33.1847H238.082C238.134 33.8607 238.351 34.424 238.732 34.8747C239.114 35.308 239.66 35.5853 240.37 35.7067V29.9867C239.209 29.692 238.264 29.3974 237.536 29.1027C236.808 28.7907 236.184 28.3054 235.664 27.6467C235.162 26.9881 234.91 26.0867 234.91 24.9428C234.91 23.5041 235.413 22.3168 236.418 21.3808C237.424 20.4275 238.741 19.8728 240.37 19.7168V17.6108H242.06V19.7168C243.586 19.8555 244.808 20.3408 245.726 21.1728C246.662 21.9874 247.191 23.1141 247.312 24.5528H244.14C244.088 24.0154 243.88 23.5388 243.516 23.1228C243.152 22.6894 242.667 22.3948 242.06 22.2388V27.8547C243.222 28.1321 244.166 28.4267 244.894 28.7387C245.622 29.0334 246.238 29.51 246.74 30.1687C247.243 30.81 247.494 31.7027 247.494 32.8467ZM237.926 24.7868C237.926 25.4974 238.134 26.0521 238.55 26.4507C238.984 26.8494 239.59 27.1701 240.37 27.4127V22.1608C239.625 22.2474 239.027 22.5161 238.576 22.9668C238.143 23.4174 237.926 24.0241 237.926 24.7868ZM242.06 35.7067C242.823 35.5853 243.421 35.282 243.854 34.7967C244.288 34.294 244.504 33.696 244.504 33.0027C244.504 32.3093 244.288 31.772 243.854 31.3907C243.438 30.992 242.84 30.6714 242.06 30.4287V35.7067ZM264.04 21.5888H255.33V26.7627C255.694 26.2774 256.232 25.8701 256.942 25.5407C257.67 25.2114 258.442 25.0468 259.256 25.0468C260.712 25.0468 261.891 25.3587 262.792 25.9827C263.711 26.6067 264.361 27.3954 264.742 28.3487C265.141 29.302 265.34 30.3074 265.34 31.3647C265.34 32.6473 265.089 33.7913 264.586 34.7967C264.101 35.7846 263.364 36.5646 262.376 37.1366C261.406 37.7086 260.21 37.9946 258.788 37.9946C256.899 37.9946 255.382 37.5266 254.238 36.5906C253.094 35.6547 252.41 34.4153 252.184 32.8727H255.07C255.261 33.6873 255.686 34.3373 256.344 34.8227C257.003 35.2907 257.826 35.5247 258.814 35.5247C260.045 35.5247 260.964 35.152 261.57 34.4067C262.194 33.6613 262.506 32.6733 262.506 31.4427C262.506 30.1947 262.194 29.2414 261.57 28.5827C260.946 27.9067 260.028 27.5687 258.814 27.5687C257.965 27.5687 257.246 27.7854 256.656 28.2187C256.084 28.6347 255.668 29.2067 255.408 29.9347H252.6V18.9888H264.04V21.5888ZM272.066 34.4327L268.92 41.6086H266.996L268.842 34.4327H272.066ZM277.957 32.8467C278.131 33.7133 278.503 34.372 279.075 34.8227C279.647 35.2733 280.419 35.4987 281.389 35.4987C282.62 35.4987 283.521 35.0133 284.093 34.0427C284.665 33.072 284.951 31.4167 284.951 29.0767C284.535 29.666 283.946 30.1254 283.183 30.4547C282.438 30.7667 281.623 30.9227 280.739 30.9227C279.613 30.9227 278.59 30.6974 277.671 30.2467C276.753 29.7787 276.025 29.094 275.487 28.1927C274.967 27.2741 274.707 26.1647 274.707 24.8648C274.707 22.9581 275.262 21.4415 276.371 20.3148C277.498 19.1708 279.041 18.5988 280.999 18.5988C283.357 18.5988 285.029 19.3875 286.017 20.9648C287.023 22.5248 287.525 24.9254 287.525 28.1667C287.525 30.4027 287.335 32.2313 286.953 33.6527C286.589 35.074 285.948 36.1486 285.029 36.8766C284.111 37.6046 282.837 37.9686 281.207 37.9686C279.353 37.9686 277.923 37.4833 276.917 36.5126C275.912 35.542 275.349 34.32 275.227 32.8467H277.957ZM281.259 28.4267C282.299 28.4267 283.114 28.1061 283.703 27.4647C284.31 26.8061 284.613 25.9394 284.613 24.8648C284.613 23.6688 284.293 22.7414 283.651 22.0828C283.027 21.4068 282.169 21.0688 281.077 21.0688C279.985 21.0688 279.119 21.4155 278.477 22.1088C277.853 22.7848 277.541 23.6774 277.541 24.7868C277.541 25.8441 277.845 26.7194 278.451 27.4127C279.075 28.0887 280.011 28.4267 281.259 28.4267ZM292.407 33.9647C294.071 32.526 295.38 31.3474 296.333 30.4287C297.304 29.4927 298.11 28.5221 298.751 27.5167C299.392 26.5114 299.713 25.5061 299.713 24.5008C299.713 23.4608 299.462 22.6461 298.959 22.0568C298.474 21.4675 297.703 21.1728 296.645 21.1728C295.623 21.1728 294.825 21.5021 294.253 22.1608C293.699 22.8021 293.404 23.6688 293.369 24.7608H290.509C290.561 22.7848 291.151 21.2768 292.277 20.2368C293.421 19.1795 294.869 18.6508 296.619 18.6508C298.509 18.6508 299.982 19.1708 301.039 20.2108C302.114 21.2508 302.651 22.6374 302.651 24.3708C302.651 25.6187 302.33 26.8234 301.689 27.9847C301.065 29.1287 300.311 30.16 299.427 31.0787C298.561 31.98 297.451 33.0287 296.099 34.2247L294.929 35.2647H303.171V37.7346H290.535V35.5767L292.407 33.9647ZM308.973 28.0887C307.17 27.1874 306.269 25.7661 306.269 23.8248C306.269 22.8888 306.503 22.0308 306.971 21.2508C307.439 20.4708 308.141 19.8555 309.077 19.4048C310.013 18.9368 311.157 18.7028 312.509 18.7028C313.844 18.7028 314.979 18.9368 315.915 19.4048C316.868 19.8555 317.579 20.4708 318.047 21.2508C318.515 22.0308 318.749 22.8888 318.749 23.8248C318.749 24.7954 318.498 25.6534 317.995 26.3987C317.51 27.1267 316.86 27.6901 316.045 28.0887C317.033 28.4527 317.813 29.0507 318.385 29.8827C318.957 30.6974 319.243 31.6594 319.243 32.7687C319.243 33.8953 318.957 34.892 318.385 35.7586C317.813 36.6253 317.016 37.2926 315.993 37.7606C314.97 38.2286 313.809 38.4626 312.509 38.4626C311.209 38.4626 310.048 38.2286 309.025 37.7606C308.02 37.2926 307.231 36.6253 306.659 35.7586C306.087 34.892 305.801 33.8953 305.801 32.7687C305.801 31.642 306.087 30.6714 306.659 29.8567C307.231 29.042 308.002 28.4527 308.973 28.0887ZM315.915 24.1888C315.915 23.2181 315.612 22.4728 315.005 21.9528C314.398 21.4328 313.566 21.1728 312.509 21.1728C311.469 21.1728 310.646 21.4328 310.039 21.9528C309.432 22.4728 309.129 23.2268 309.129 24.2148C309.129 25.0814 309.441 25.7921 310.065 26.3467C310.706 26.8841 311.521 27.1527 312.509 27.1527C313.497 27.1527 314.312 26.8754 314.953 26.3207C315.594 25.7661 315.915 25.0554 315.915 24.1888ZM312.509 29.3887C311.365 29.3887 310.429 29.6747 309.701 30.2467C308.99 30.8014 308.635 31.6074 308.635 32.6647C308.635 33.6527 308.982 34.4587 309.675 35.0827C310.368 35.6893 311.313 35.9926 312.509 35.9926C313.688 35.9926 314.615 35.6807 315.291 35.0567C315.984 34.4327 316.331 33.6353 316.331 32.6647C316.331 31.6247 315.976 30.8187 315.265 30.2467C314.572 29.6747 313.653 29.3887 312.509 29.3887Z" fill="#154C6B"/>
<path d="M16.612 31.3152C16.612 29.8192 16.9566 28.4773 17.646 27.2893C18.3499 26.1013 19.2959 25.1773 20.4839 24.5173C21.6866 23.8426 22.9992 23.5053 24.4219 23.5053C26.0499 23.5053 27.4945 23.9086 28.7559 24.7153C30.0318 25.5073 30.9558 26.6366 31.5278 28.1033H28.5139C28.1179 27.2966 27.5679 26.6953 26.8639 26.2993C26.1599 25.9033 25.3459 25.7053 24.4219 25.7053C23.4099 25.7053 22.5079 25.9326 21.7159 26.3873C20.9239 26.8419 20.3006 27.4946 19.8459 28.3453C19.4059 29.1959 19.1859 30.1859 19.1859 31.3152C19.1859 32.4446 19.4059 33.4345 19.8459 34.2852C20.3006 35.1359 20.9239 35.7959 21.7159 36.2652C22.5079 36.7199 23.4099 36.9472 24.4219 36.9472C25.3459 36.9472 26.1599 36.7492 26.8639 36.3532C27.5679 35.9572 28.1179 35.3559 28.5139 34.5492H31.5278C30.9558 36.0159 30.0318 37.1452 28.7559 37.9372C27.4945 38.7292 26.0499 39.1252 24.4219 39.1252C22.9846 39.1252 21.6719 38.7952 20.4839 38.1352C19.2959 37.4605 18.3499 36.5292 17.646 35.3412C16.9566 34.1532 16.612 32.8112 16.612 31.3152ZM33.6274 32.8772C33.6274 31.6599 33.8768 30.5819 34.3754 29.6433C34.8888 28.7046 35.5781 27.9786 36.4434 27.4653C37.3234 26.9373 38.2914 26.6733 39.3474 26.6733C40.3007 26.6733 41.1294 26.8639 41.8334 27.2453C42.552 27.6119 43.124 28.0739 43.5493 28.6313V26.8713H46.0793V38.9932H43.5493V37.1892C43.124 37.7612 42.5447 38.2378 41.8114 38.6192C41.078 39.0005 40.242 39.1912 39.3034 39.1912C38.2621 39.1912 37.3087 38.9272 36.4434 38.3992C35.5781 37.8565 34.8888 37.1085 34.3754 36.1552C33.8768 35.1872 33.6274 34.0945 33.6274 32.8772ZM43.5493 32.9212C43.5493 32.0852 43.3733 31.3592 43.0213 30.7432C42.684 30.1272 42.2367 29.6579 41.6794 29.3353C41.122 29.0126 40.5207 28.8513 39.8754 28.8513C39.23 28.8513 38.6287 29.0126 38.0714 29.3353C37.5141 29.6433 37.0594 30.1052 36.7074 30.7212C36.3701 31.3226 36.2014 32.0412 36.2014 32.8772C36.2014 33.7132 36.3701 34.4465 36.7074 35.0772C37.0594 35.7079 37.5141 36.1919 38.0714 36.5292C38.6434 36.8519 39.2447 37.0132 39.8754 37.0132C40.5207 37.0132 41.122 36.8519 41.6794 36.5292C42.2367 36.2065 42.684 35.7372 43.0213 35.1212C43.3733 34.4905 43.5493 33.7572 43.5493 32.9212ZM51.8814 28.6313C52.2481 28.0153 52.7321 27.5386 53.3334 27.2013C53.9494 26.8493 54.6754 26.6733 55.5114 26.6733V29.2693H54.8734C53.8907 29.2693 53.1427 29.5186 52.6294 30.0172C52.1307 30.5159 51.8814 31.3812 51.8814 32.6132V38.9932H49.3734V26.8713H51.8814V28.6313ZM66.0395 22.7133V38.9932H63.5315V22.7133H66.0395ZM74.5902 39.1912C73.4462 39.1912 72.4122 38.9345 71.4882 38.4212C70.5642 37.8932 69.8382 37.1598 69.3102 36.2212C68.7822 35.2679 68.5182 34.1679 68.5182 32.9212C68.5182 31.6892 68.7896 30.5966 69.3322 29.6433C69.8749 28.6899 70.6156 27.9566 71.5542 27.4433C72.4929 26.9299 73.5415 26.6733 74.7002 26.6733C75.8588 26.6733 76.9075 26.9299 77.8462 27.4433C78.7848 27.9566 79.5255 28.6899 80.0681 29.6433C80.6108 30.5966 80.8821 31.6892 80.8821 32.9212C80.8821 34.1532 80.6035 35.2459 80.0461 36.1992C79.4888 37.1525 78.7261 37.8932 77.7582 38.4212C76.8048 38.9345 75.7488 39.1912 74.5902 39.1912ZM74.5902 37.0132C75.2355 37.0132 75.8368 36.8592 76.3942 36.5512C76.9662 36.2432 77.4282 35.7812 77.7802 35.1652C78.1322 34.5492 78.3082 33.8012 78.3082 32.9212C78.3082 32.0412 78.1395 31.3006 77.8022 30.6992C77.4648 30.0832 77.0175 29.6213 76.4602 29.3133C75.9028 29.0053 75.3015 28.8513 74.6562 28.8513C74.0109 28.8513 73.4095 29.0053 72.8522 29.3133C72.3095 29.6213 71.8769 30.0832 71.5542 30.6992C71.2316 31.3006 71.0702 32.0412 71.0702 32.9212C71.0702 34.2265 71.4002 35.2385 72.0602 35.9572C72.7349 36.6612 73.5782 37.0132 74.5902 37.0132ZM82.5254 32.8772C82.5254 31.6599 82.7747 30.5819 83.2734 29.6433C83.7867 28.7046 84.4761 27.9786 85.3414 27.4653C86.2214 26.9373 87.1894 26.6733 88.2454 26.6733C89.1987 26.6733 90.0273 26.8639 90.7313 27.2453C91.45 27.6119 92.022 28.0739 92.4473 28.6313V26.8713H94.9773V38.9932H92.4473V37.1892C92.022 37.7612 91.4427 38.2378 90.7093 38.6192C89.976 39.0005 89.14 39.1912 88.2014 39.1912C87.16 39.1912 86.2067 38.9272 85.3414 38.3992C84.4761 37.8565 83.7867 37.1085 83.2734 36.1552C82.7747 35.1872 82.5254 34.0945 82.5254 32.8772ZM92.4473 32.9212C92.4473 32.0852 92.2713 31.3592 91.9193 30.7432C91.582 30.1272 91.1347 29.6579 90.5773 29.3353C90.02 29.0126 89.4187 28.8513 88.7734 28.8513C88.128 28.8513 87.5267 29.0126 86.9694 29.3353C86.412 29.6433 85.9574 30.1052 85.6054 30.7212C85.2681 31.3226 85.0994 32.0412 85.0994 32.8772C85.0994 33.7132 85.2681 34.4465 85.6054 35.0772C85.9574 35.7079 86.412 36.1919 86.9694 36.5292C87.5414 36.8519 88.1427 37.0132 88.7734 37.0132C89.4187 37.0132 90.02 36.8519 90.5773 36.5292C91.1347 36.2065 91.582 35.7372 91.9193 35.1212C92.2713 34.4905 92.4473 33.7572 92.4473 32.9212ZM104.387 26.6733C105.341 26.6733 106.191 26.8713 106.939 27.2673C107.702 27.6633 108.296 28.2499 108.721 29.0273C109.147 29.8046 109.359 30.7432 109.359 31.8432V38.9932H106.873V32.2172C106.873 31.1319 106.602 30.3032 106.059 29.7313C105.517 29.1446 104.776 28.8513 103.837 28.8513C102.899 28.8513 102.151 29.1446 101.593 29.7313C101.051 30.3032 100.779 31.1319 100.779 32.2172V38.9932H98.2714V26.8713H100.779V28.2573C101.19 27.7586 101.711 27.3699 102.341 27.0913C102.987 26.8126 103.669 26.6733 104.387 26.6733Z" fill="#154C6B"/>
<path d="M134.148 65.8692V62.2852H136.024C137.48 62.2852 138.096 62.9572 138.096 64.0912C138.096 65.1832 137.48 65.8692 136.024 65.8692H134.148ZM139.398 64.0912C139.398 62.4952 138.32 61.2353 136.024 61.2353H132.874V70.9932H134.148V66.9192H136.024C138.446 66.9192 139.398 65.5752 139.398 64.0912ZM140.006 67.1292C140.006 69.5092 141.588 71.1192 143.632 71.1192C145.046 71.1192 146.04 70.3912 146.502 69.5652V70.9932H147.79V63.3212H146.502V64.7212C146.054 63.9232 145.074 63.1952 143.646 63.1952C141.588 63.1952 140.006 64.7352 140.006 67.1292ZM146.502 67.1432C146.502 68.9492 145.298 69.9992 143.898 69.9992C142.498 69.9992 141.308 68.9352 141.308 67.1292C141.308 65.3232 142.498 64.3012 143.898 64.3012C145.298 64.3012 146.502 65.3652 146.502 67.1432ZM152.355 69.5372L149.947 63.3212H148.533L151.627 70.9092L150.115 74.6051H151.431L156.051 63.3212H154.735L152.355 69.5372ZM164.111 67.1432C164.111 64.7212 162.417 63.1952 160.233 63.1952C158.063 63.1952 156.355 64.7212 156.355 67.1432C156.355 69.5792 158.007 71.1192 160.177 71.1192C162.361 71.1192 164.111 69.5792 164.111 67.1432ZM157.657 67.1432C157.657 65.2112 158.875 64.3012 160.219 64.3012C161.535 64.3012 162.809 65.2112 162.809 67.1432C162.809 69.0892 161.507 69.9992 160.177 69.9992C158.847 69.9992 157.657 69.0892 157.657 67.1432ZM165.524 70.9932H166.798V64.3712H168.408V63.3212H166.798V62.7752C166.798 61.7813 167.176 61.3613 168.324 61.3613V60.2973C166.364 60.2973 165.524 61.0673 165.524 62.7752V63.3212H164.53V64.3712H165.524V70.9932ZM169.632 70.9932H170.906V64.3712H172.516V63.3212H170.906V62.7752C170.906 61.7813 171.284 61.3613 172.432 61.3613V60.2973C170.472 60.2973 169.632 61.0673 169.632 62.7752V63.3212H168.638V64.3712H169.632V70.9932ZM176.257 67.1292C176.257 69.5092 177.839 71.1192 179.897 71.1192C181.297 71.1192 182.291 70.4052 182.753 69.5512V70.9932H184.041V60.6333H182.753V64.6932C182.221 63.8112 181.115 63.1952 179.911 63.1952C177.839 63.1952 176.257 64.7352 176.257 67.1292ZM182.753 67.1432C182.753 68.9492 181.549 69.9992 180.149 69.9992C178.749 69.9992 177.559 68.9352 177.559 67.1292C177.559 65.3232 178.749 64.3012 180.149 64.3012C181.549 64.3012 182.753 65.3652 182.753 67.1432ZM185.218 67.1292C185.218 69.5092 186.8 71.1192 188.844 71.1192C190.258 71.1192 191.252 70.3912 191.714 69.5652V70.9932H193.002V63.3212H191.714V64.7212C191.266 63.9232 190.286 63.1952 188.858 63.1952C186.8 63.1952 185.218 64.7352 185.218 67.1292ZM191.714 67.1432C191.714 68.9492 190.51 69.9992 189.11 69.9992C187.71 69.9992 186.52 68.9352 186.52 67.1292C186.52 65.3232 187.71 64.3012 189.11 64.3012C190.51 64.3012 191.714 65.3652 191.714 67.1432ZM194.935 68.8932C194.935 70.4332 195.705 70.9932 197.063 70.9932H198.211V69.9152H197.273C196.489 69.9152 196.209 69.6492 196.209 68.8932V64.3712H198.211V63.3212H196.209V61.3893H194.935V63.3212H193.941V64.3712H194.935V68.8932ZM202.517 64.2732C203.833 64.2732 204.953 65.0992 204.939 66.5972H200.095C200.235 65.0992 201.271 64.2732 202.517 64.2732ZM206.101 68.6272H204.729C204.449 69.4532 203.721 70.0412 202.573 70.0412C201.271 70.0412 200.179 69.1872 200.081 67.6332H206.213C206.241 67.3672 206.255 67.1432 206.255 66.8632C206.255 64.7632 204.799 63.1952 202.573 63.1952C200.333 63.1952 198.779 64.7212 198.779 67.1432C198.779 69.5792 200.389 71.1192 202.573 71.1192C204.477 71.1192 205.709 70.0272 206.101 68.6272Z" fill="#7D8C95"/>
<path d="M132.874 91.9937H134.148V82.2357H132.874V91.9937ZM141.434 91.9937H142.694V87.4717C142.694 85.2737 141.336 84.1817 139.558 84.1817C138.522 84.1817 137.598 84.6157 137.094 85.4137V84.3217H135.82V91.9937H137.094V87.7517C137.094 86.0997 137.99 85.2877 139.292 85.2877C140.58 85.2877 141.434 86.0857 141.434 87.6537V91.9937ZM144.555 89.8937C144.555 91.4337 145.325 91.9937 146.683 91.9937H147.831V90.9157H146.893C146.109 90.9157 145.829 90.6497 145.829 89.8937V85.3717H147.831V84.3217H145.829V82.3897H144.555V84.3217H143.561V85.3717H144.555V89.8937ZM152.136 85.2737C153.452 85.2737 154.572 86.0997 154.558 87.5977H149.714C149.854 86.0997 150.89 85.2737 152.136 85.2737ZM155.72 89.6277H154.348C154.068 90.4537 153.34 91.0417 152.192 91.0417C150.89 91.0417 149.798 90.1877 149.7 88.6337H155.832C155.86 88.3677 155.874 88.1437 155.874 87.8637C155.874 85.7637 154.418 84.1957 152.192 84.1957C149.952 84.1957 148.398 85.7217 148.398 88.1437C148.398 90.5797 150.008 92.1197 152.192 92.1197C154.096 92.1197 155.328 91.0277 155.72 89.6277ZM158.33 87.8217C158.33 86.0437 159.254 85.4977 160.472 85.4977H160.808V84.1817C159.59 84.1817 158.764 84.7137 158.33 85.5677V84.3217H157.056V91.9937H158.33V87.8217ZM165.04 85.2737C166.356 85.2737 167.476 86.0997 167.462 87.5977H162.619C162.759 86.0997 163.794 85.2737 165.04 85.2737ZM168.624 89.6277H167.252C166.972 90.4537 166.244 91.0417 165.096 91.0417C163.794 91.0417 162.703 90.1877 162.605 88.6337H168.736C168.764 88.3677 168.778 88.1437 168.778 87.8637C168.778 85.7637 167.322 84.1957 165.096 84.1957C162.857 84.1957 161.303 85.7217 161.303 88.1437C161.303 90.5797 162.913 92.1197 165.096 92.1197C167 92.1197 168.232 91.0277 168.624 89.6277ZM175.476 89.9077C175.42 87.1637 170.968 88.1577 170.968 86.3377C170.968 85.7217 171.528 85.2737 172.466 85.2737C173.488 85.2737 174.076 85.8337 174.132 86.6037H175.406C175.322 85.1057 174.202 84.1957 172.508 84.1957C170.8 84.1957 169.694 85.1617 169.694 86.3377C169.694 89.1937 174.23 88.1997 174.23 89.9077C174.23 90.5377 173.67 91.0417 172.662 91.0417C171.584 91.0417 170.926 90.4817 170.856 89.7397H169.54C169.624 91.1397 170.884 92.1197 172.676 92.1197C174.37 92.1197 175.476 91.1677 175.476 89.9077ZM177.054 89.8937C177.054 91.4337 177.824 91.9937 179.182 91.9937H180.33V90.9157H179.392C178.608 90.9157 178.328 90.6497 178.328 89.8937V85.3717H180.33V84.3217H178.328V82.3897H177.054V84.3217H176.06V85.3717H177.054V89.8937ZM185.88 87.8217C185.88 86.0437 186.804 85.4977 188.022 85.4977H188.358V84.1817C187.14 84.1817 186.314 84.7137 185.88 85.5677V84.3217H184.606V91.9937H185.88V87.8217ZM188.853 88.1297C188.853 90.5097 190.435 92.1197 192.479 92.1197C193.893 92.1197 194.887 91.3917 195.349 90.5657V91.9937H196.637V84.3217H195.349V85.7217C194.901 84.9237 193.921 84.1957 192.493 84.1957C190.435 84.1957 188.853 85.7357 188.853 88.1297ZM195.349 88.1437C195.349 89.9497 194.145 90.9997 192.745 90.9997C191.345 90.9997 190.155 89.9357 190.155 88.1297C190.155 86.3237 191.345 85.3017 192.745 85.3017C194.145 85.3017 195.349 86.3657 195.349 88.1437ZM198.57 89.8937C198.57 91.4337 199.34 91.9937 200.698 91.9937H201.846V90.9157H200.908C200.124 90.9157 199.844 90.6497 199.844 89.8937V85.3717H201.846V84.3217H199.844V82.3897H198.57V84.3217H197.576V85.3717H198.57V89.8937ZM206.151 85.2737C207.467 85.2737 208.587 86.0997 208.573 87.5977H203.729C203.869 86.0997 204.905 85.2737 206.151 85.2737ZM209.735 89.6277H208.363C208.083 90.4537 207.355 91.0417 206.207 91.0417C204.905 91.0417 203.813 90.1877 203.715 88.6337H209.847C209.875 88.3677 209.889 88.1437 209.889 87.8637C209.889 85.7637 208.433 84.1957 206.207 84.1957C203.967 84.1957 202.413 85.7217 202.413 88.1437C202.413 90.5797 204.023 92.1197 206.207 92.1197C208.111 92.1197 209.343 91.0277 209.735 89.6277Z" fill="#7D8C95"/>
<path d="M142.198 108.106C142.198 105.18 140.056 103.122 137.298 103.122C134.554 103.122 132.399 105.18 132.399 108.106C132.399 111.032 134.554 113.09 137.298 113.09C140.056 113.09 142.198 111.032 142.198 108.106ZM133.7 108.106C133.7 105.712 135.24 104.228 137.298 104.228C139.356 104.228 140.896 105.712 140.896 108.106C140.896 110.486 139.356 111.984 137.298 111.984C135.24 111.984 133.7 110.486 133.7 108.106ZM144.654 108.82C144.654 107.042 145.578 106.496 146.796 106.496H147.132V105.18C145.914 105.18 145.088 105.712 144.654 106.566V105.32H143.38V112.992H144.654V108.82ZM148.103 112.992H149.377V105.32H148.103V112.992ZM148.761 104.074C149.223 104.074 149.601 103.696 149.601 103.206C149.601 102.716 149.223 102.338 148.761 102.338C148.271 102.338 147.893 102.716 147.893 103.206C147.893 103.696 148.271 104.074 148.761 104.074ZM150.572 109.128C150.572 111.508 152.154 113.118 154.212 113.118C155.612 113.118 156.606 112.376 157.068 111.55V113.16C157.068 114.798 156.046 115.666 154.688 115.666C153.428 115.666 152.518 115.036 152.238 114.112H150.978C151.23 115.75 152.672 116.772 154.688 116.772C156.942 116.772 158.356 115.274 158.356 113.16V105.32H157.068V106.72C156.62 105.894 155.612 105.194 154.212 105.194C152.154 105.194 150.572 106.734 150.572 109.128ZM157.068 109.142C157.068 110.948 155.864 111.998 154.464 111.998C153.064 111.998 151.874 110.934 151.874 109.128C151.874 107.322 153.064 106.3 154.464 106.3C155.864 106.3 157.068 107.364 157.068 109.142ZM160.009 112.992H161.283V105.32H160.009V112.992ZM160.667 104.074C161.129 104.074 161.507 103.696 161.507 103.206C161.507 102.716 161.129 102.338 160.667 102.338C160.177 102.338 159.799 102.716 159.799 103.206C159.799 103.696 160.177 104.074 160.667 104.074ZM168.568 112.992H169.828V108.47C169.828 106.272 168.47 105.18 166.692 105.18C165.656 105.18 164.732 105.614 164.228 106.412V105.32H162.954V112.992H164.228V108.75C164.228 107.098 165.124 106.286 166.426 106.286C167.714 106.286 168.568 107.084 168.568 108.652V112.992ZM171.409 112.992H172.683V105.32H171.409V112.992ZM172.067 104.074C172.529 104.074 172.907 103.696 172.907 103.206C172.907 102.716 172.529 102.338 172.067 102.338C171.577 102.338 171.199 102.716 171.199 103.206C171.199 103.696 171.577 104.074 172.067 104.074ZM173.879 109.128C173.879 111.508 175.461 113.118 177.505 113.118C178.919 113.118 179.913 112.39 180.375 111.564V112.992H181.663V105.32H180.375V106.72C179.927 105.922 178.947 105.194 177.519 105.194C175.461 105.194 173.879 106.734 173.879 109.128ZM180.375 109.142C180.375 110.948 179.171 111.998 177.771 111.998C176.371 111.998 175.181 110.934 175.181 109.128C175.181 107.322 176.371 106.3 177.771 106.3C179.171 106.3 180.375 107.364 180.375 109.142ZM183.315 112.992H184.589V102.632H183.315V112.992ZM189.493 112.992H190.767V102.632H189.493V112.992ZM199.718 109.142C199.718 106.72 198.024 105.194 195.84 105.194C193.67 105.194 191.962 106.72 191.962 109.142C191.962 111.578 193.614 113.118 195.784 113.118C197.968 113.118 199.718 111.578 199.718 109.142ZM193.264 109.142C193.264 107.21 194.482 106.3 195.826 106.3C197.142 106.3 198.416 107.21 198.416 109.142C198.416 111.088 197.114 111.998 195.784 111.998C194.454 111.998 193.264 111.088 193.264 109.142ZM200.417 109.128C200.417 111.508 201.999 113.118 204.043 113.118C205.457 113.118 206.451 112.39 206.913 111.564V112.992H208.201V105.32H206.913V106.72C206.465 105.922 205.485 105.194 204.057 105.194C201.999 105.194 200.417 106.734 200.417 109.128ZM206.913 109.142C206.913 110.948 205.709 111.998 204.309 111.998C202.909 111.998 201.719 110.934 201.719 109.128C201.719 107.322 202.909 106.3 204.309 106.3C205.709 106.3 206.913 107.364 206.913 109.142ZM215.468 112.992H216.728V108.47C216.728 106.272 215.37 105.18 213.592 105.18C212.556 105.18 211.632 105.614 211.128 106.412V105.32H209.854V112.992H211.128V108.75C211.128 107.098 212.024 106.286 213.326 106.286C214.614 106.286 215.468 107.084 215.468 108.652V112.992Z" fill="#7D8C95"/>
<path d="M132.875 133.993H134.149V126.755L137.383 133.993H138.279L141.499 126.769V133.993H142.773V124.305H141.415L137.831 132.313L134.247 124.305H132.875V133.993ZM151.714 130.143C151.714 127.721 150.02 126.195 147.836 126.195C145.666 126.195 143.958 127.721 143.958 130.143C143.958 132.579 145.61 134.119 147.78 134.119C149.964 134.119 151.714 132.579 151.714 130.143ZM145.26 130.143C145.26 128.211 146.478 127.301 147.822 127.301C149.138 127.301 150.412 128.211 150.412 130.143C150.412 132.089 149.11 132.999 147.78 132.999C146.45 132.999 145.26 132.089 145.26 130.143ZM158.503 133.993H159.763V129.471C159.763 127.273 158.405 126.181 156.627 126.181C155.591 126.181 154.667 126.615 154.163 127.413V126.321H152.889V133.993H154.163V129.751C154.163 128.099 155.059 127.287 156.361 127.287C157.649 127.287 158.503 128.085 158.503 129.653V133.993ZM161.624 131.893C161.624 133.433 162.394 133.993 163.752 133.993H164.9V132.915H163.962C163.178 132.915 162.898 132.649 162.898 131.893V127.371H164.9V126.321H162.898V124.389H161.624V126.321H160.63V127.371H161.624V131.893ZM165.943 133.993H167.217V129.751C167.217 128.099 168.113 127.287 169.415 127.287C170.703 127.287 171.557 128.085 171.557 129.653V133.993H172.817V129.471C172.817 127.273 171.459 126.181 169.751 126.181C168.673 126.181 167.721 126.615 167.217 127.427V123.633H165.943V133.993ZM174.398 133.993H175.672V123.633H174.398V133.993ZM180.256 132.537L177.848 126.321H176.434L179.528 133.909L178.016 137.605H179.332L183.952 126.321H182.636L180.256 132.537ZM189.239 127.735V126.321H187.965V137.633H189.239V132.579C189.715 133.363 190.709 134.119 192.109 134.119C194.167 134.119 195.749 132.509 195.749 130.129C195.749 127.735 194.167 126.195 192.109 126.195C190.709 126.195 189.701 126.923 189.239 127.735ZM194.447 130.129C194.447 131.935 193.257 132.999 191.843 132.999C190.457 132.999 189.239 131.949 189.239 130.143C189.239 128.365 190.457 127.301 191.843 127.301C193.257 127.301 194.447 128.323 194.447 130.129ZM196.449 130.129C196.449 132.509 198.031 134.119 200.075 134.119C201.489 134.119 202.483 133.391 202.945 132.565V133.993H204.233V126.321H202.945V127.721C202.497 126.923 201.517 126.195 200.089 126.195C198.031 126.195 196.449 127.735 196.449 130.129ZM202.945 130.143C202.945 131.949 201.741 132.999 200.341 132.999C198.941 132.999 197.751 131.935 197.751 130.129C197.751 128.323 198.941 127.301 200.341 127.301C201.741 127.301 202.945 128.365 202.945 130.143ZM208.798 132.537L206.39 126.321H204.976L208.07 133.909L206.558 137.605H207.874L212.494 126.321H211.178L208.798 132.537ZM224.349 133.993H225.609V129.471C225.609 127.273 224.251 126.181 222.501 126.181C221.325 126.181 220.233 126.783 219.785 127.889C219.281 126.741 218.231 126.181 216.971 126.181C215.963 126.181 215.053 126.615 214.549 127.427V126.321H213.275V133.993H214.549V129.765C214.549 128.113 215.431 127.287 216.719 127.287C217.979 127.287 218.819 128.085 218.819 129.653V133.993H220.079V129.765C220.079 128.113 220.961 127.287 222.249 127.287C223.509 127.287 224.349 128.085 224.349 129.653V133.993ZM230.461 127.273C231.777 127.273 232.897 128.099 232.883 129.597H228.039C228.179 128.099 229.215 127.273 230.461 127.273ZM234.045 131.627H232.673C232.393 132.453 231.665 133.041 230.517 133.041C229.215 133.041 228.123 132.187 228.025 130.633H234.157C234.185 130.367 234.199 130.143 234.199 129.863C234.199 127.763 232.743 126.195 230.517 126.195C228.277 126.195 226.723 127.721 226.723 130.143C226.723 132.579 228.333 134.119 230.517 134.119C232.421 134.119 233.653 133.027 234.045 131.627ZM240.994 133.993H242.254V129.471C242.254 127.273 240.896 126.181 239.118 126.181C238.082 126.181 237.158 126.615 236.654 127.413V126.321H235.38V133.993H236.654V129.751C236.654 128.099 237.55 127.287 238.852 127.287C240.14 127.287 240.994 128.085 240.994 129.653V133.993ZM244.115 131.893C244.115 133.433 244.885 133.993 246.243 133.993H247.391V132.915H246.453C245.669 132.915 245.389 132.649 245.389 131.893V127.371H247.391V126.321H245.389V124.389H244.115V126.321H243.121V127.371H244.115V131.893Z" fill="#7D8C95"/>
<path d="M270.308 61.2633V70.9932H268.712V64.3292L265.744 70.9932H264.638L261.656 64.3292V70.9932H260.06V61.2633H261.782L265.198 68.8932L268.6 61.2633H270.308ZM271.374 67.1012C271.374 66.3265 271.532 65.6405 271.85 65.0432C272.176 64.4459 272.615 63.9839 273.166 63.6572C273.726 63.3212 274.342 63.1532 275.014 63.1532C275.62 63.1532 276.148 63.2746 276.596 63.5172C277.053 63.7506 277.417 64.0446 277.688 64.3992V63.2792H279.298V70.9932H277.688V69.8452C277.417 70.2092 277.048 70.5125 276.582 70.7552C276.115 70.9978 275.583 71.1192 274.986 71.1192C274.323 71.1192 273.716 70.9512 273.166 70.6152C272.615 70.2698 272.176 69.7938 271.85 69.1872C271.532 68.5712 271.374 67.8759 271.374 67.1012ZM277.688 67.1292C277.688 66.5972 277.576 66.1352 277.352 65.7432C277.137 65.3512 276.852 65.0526 276.498 64.8472C276.143 64.6419 275.76 64.5392 275.35 64.5392C274.939 64.5392 274.556 64.6419 274.202 64.8472C273.847 65.0432 273.558 65.3372 273.334 65.7292C273.119 66.1119 273.012 66.5692 273.012 67.1012C273.012 67.6332 273.119 68.0999 273.334 68.5012C273.558 68.9025 273.847 69.2105 274.202 69.4252C274.566 69.6305 274.948 69.7332 275.35 69.7332C275.76 69.7332 276.143 69.6305 276.498 69.4252C276.852 69.2198 277.137 68.9212 277.352 68.5292C277.576 68.1279 277.688 67.6612 277.688 67.1292ZM282.49 64.3992C282.723 64.0072 283.031 63.7039 283.414 63.4892C283.806 63.2652 284.268 63.1532 284.8 63.1532V64.8052H284.394C283.769 64.8052 283.293 64.9639 282.966 65.2812C282.649 65.5985 282.49 66.1492 282.49 66.9332V70.9932H280.894V63.2792H282.49V64.3992ZM289.576 68.8232C290.472 68.0485 291.176 67.4139 291.69 66.9192C292.212 66.4152 292.646 65.8925 292.992 65.3512C293.337 64.8099 293.51 64.2686 293.51 63.7272C293.51 63.1672 293.374 62.7286 293.104 62.4112C292.842 62.0939 292.427 61.9353 291.858 61.9353C291.307 61.9353 290.878 62.1126 290.57 62.4672C290.271 62.8126 290.112 63.2792 290.094 63.8672H288.554C288.582 62.8032 288.899 61.9912 289.506 61.4313C290.122 60.8619 290.901 60.5773 291.844 60.5773C292.861 60.5773 293.654 60.8573 294.224 61.4173C294.802 61.9772 295.092 62.7239 295.092 63.6572C295.092 64.3292 294.919 64.9779 294.574 65.6032C294.238 66.2192 293.832 66.7745 293.356 67.2692C292.889 67.7545 292.292 68.3192 291.564 68.9632L290.934 69.5232H295.372V70.8532H288.568V69.6912L289.576 68.8232ZM296.274 65.7572C296.274 64.1426 296.544 62.8826 297.086 61.9772C297.636 61.0626 298.579 60.6053 299.914 60.6053C301.248 60.6053 302.186 61.0626 302.728 61.9772C303.278 62.8826 303.554 64.1426 303.554 65.7572C303.554 67.3905 303.278 68.6692 302.728 69.5932C302.186 70.5078 301.248 70.9652 299.914 70.9652C298.579 70.9652 297.636 70.5078 297.086 69.5932C296.544 68.6692 296.274 67.3905 296.274 65.7572ZM301.986 65.7572C301.986 65.0012 301.934 64.3619 301.832 63.8392C301.738 63.3166 301.542 62.8919 301.244 62.5652C300.945 62.2292 300.502 62.0612 299.914 62.0612C299.326 62.0612 298.882 62.2292 298.584 62.5652C298.285 62.8919 298.084 63.3166 297.982 63.8392C297.888 64.3619 297.842 65.0012 297.842 65.7572C297.842 66.5412 297.888 67.1992 297.982 67.7312C298.075 68.2632 298.271 68.6925 298.57 69.0192C298.878 69.3458 299.326 69.5092 299.914 69.5092C300.502 69.5092 300.945 69.3458 301.244 69.0192C301.552 68.6925 301.752 68.2632 301.846 67.7312C301.939 67.1992 301.986 66.5412 301.986 65.7572ZM305.624 68.8232C306.52 68.0485 307.225 67.4139 307.738 66.9192C308.261 66.4152 308.695 65.8925 309.04 65.3512C309.386 64.8099 309.558 64.2686 309.558 63.7272C309.558 63.1672 309.423 62.7286 309.152 62.4112C308.891 62.0939 308.476 61.9353 307.906 61.9353C307.356 61.9353 306.926 62.1126 306.618 62.4672C306.32 62.8126 306.161 63.2792 306.142 63.8672H304.602C304.63 62.8032 304.948 61.9912 305.554 61.4313C306.17 60.8619 306.95 60.5773 307.892 60.5773C308.91 60.5773 309.703 60.8573 310.272 61.4173C310.851 61.9772 311.14 62.7239 311.14 63.6572C311.14 64.3292 310.968 64.9779 310.622 65.6032C310.286 66.2192 309.88 66.7745 309.404 67.2692C308.938 67.7545 308.34 68.3192 307.612 68.9632L306.982 69.5232H311.42V70.8532H304.616V69.6912L305.624 68.8232ZM312.294 63.3072C312.35 62.4392 312.682 61.7626 313.288 61.2773C313.904 60.7919 314.688 60.5493 315.64 60.5493C316.294 60.5493 316.858 60.6659 317.334 60.8993C317.81 61.1326 318.17 61.4499 318.412 61.8513C318.655 62.2526 318.776 62.7052 318.776 63.2092C318.776 63.7879 318.622 64.2826 318.314 64.6932C318.006 65.1039 317.638 65.3792 317.208 65.5192V65.5752C317.759 65.7432 318.188 66.0512 318.496 66.4992C318.804 66.9379 318.958 67.5025 318.958 68.1932C318.958 68.7439 318.832 69.2338 318.58 69.6632C318.328 70.0925 317.955 70.4332 317.46 70.6852C316.966 70.9278 316.373 71.0492 315.682 71.0492C314.674 71.0492 313.844 70.7925 313.19 70.2792C312.546 69.7565 312.201 69.0098 312.154 68.0392H313.694C313.732 68.5339 313.923 68.9399 314.268 69.2572C314.614 69.5652 315.08 69.7192 315.668 69.7192C316.238 69.7192 316.676 69.5652 316.984 69.2572C317.292 68.9399 317.446 68.5339 317.446 68.0392C317.446 67.3859 317.236 66.9239 316.816 66.6532C316.406 66.3732 315.771 66.2332 314.912 66.2332H314.548V64.9172H314.926C315.682 64.9079 316.256 64.7819 316.648 64.5392C317.05 64.2966 317.25 63.9139 317.25 63.3912C317.25 62.9432 317.106 62.5886 316.816 62.3272C316.527 62.0566 316.116 61.9213 315.584 61.9213C315.062 61.9213 314.656 62.0566 314.366 62.3272C314.077 62.5886 313.904 62.9152 313.848 63.3072H312.294Z" fill="#7D8C95"/>
<path d="M280.973 89.8657V88.6617L285.677 81.9137H287.609V88.4797H288.911V89.8657H287.609V91.9937H286.041V89.8657H280.973ZM286.111 83.5377L282.807 88.4797H286.111V83.5377ZM290.587 92.0917C290.298 92.0917 290.055 91.9937 289.859 91.7977C289.663 91.6017 289.565 91.359 289.565 91.0697C289.565 90.7803 289.663 90.5377 289.859 90.3417C290.055 90.1457 290.298 90.0477 290.587 90.0477C290.867 90.0477 291.105 90.1457 291.301 90.3417C291.497 90.5377 291.595 90.7803 291.595 91.0697C291.595 91.359 291.497 91.6017 291.301 91.7977C291.105 91.9937 290.867 92.0917 290.587 92.0917ZM299.19 83.1597H294.5V85.9457C294.696 85.6844 294.985 85.465 295.368 85.2877C295.76 85.1104 296.175 85.0217 296.614 85.0217C297.398 85.0217 298.033 85.1897 298.518 85.5257C299.013 85.8617 299.363 86.2864 299.568 86.7997C299.783 87.313 299.89 87.8544 299.89 88.4237C299.89 89.1143 299.755 89.7303 299.484 90.2717C299.223 90.8037 298.826 91.2237 298.294 91.5317C297.771 91.8397 297.127 91.9937 296.362 91.9937C295.345 91.9937 294.528 91.7417 293.912 91.2377C293.296 90.7337 292.927 90.0663 292.806 89.2357H294.36C294.463 89.6743 294.691 90.0243 295.046 90.2857C295.401 90.5377 295.844 90.6637 296.376 90.6637C297.039 90.6637 297.533 90.463 297.86 90.0617C298.196 89.6603 298.364 89.1283 298.364 88.4657C298.364 87.7937 298.196 87.2804 297.86 86.9257C297.524 86.5617 297.029 86.3797 296.376 86.3797C295.919 86.3797 295.531 86.4964 295.214 86.7297C294.906 86.9537 294.682 87.2617 294.542 87.6537H293.03V81.7597H299.19V83.1597ZM301.051 86.7577C301.051 85.1431 301.322 83.8831 301.863 82.9777C302.414 82.0631 303.357 81.6058 304.691 81.6058C306.026 81.6058 306.964 82.0631 307.505 82.9777C308.056 83.8831 308.331 85.1431 308.331 86.7577C308.331 88.391 308.056 89.6697 307.505 90.5937C306.964 91.5083 306.026 91.9657 304.691 91.9657C303.357 91.9657 302.414 91.5083 301.863 90.5937C301.322 89.6697 301.051 88.391 301.051 86.7577ZM306.763 86.7577C306.763 86.0017 306.712 85.3624 306.609 84.8397C306.516 84.3171 306.32 83.8924 306.021 83.5657C305.723 83.2297 305.279 83.0617 304.691 83.0617C304.103 83.0617 303.66 83.2297 303.361 83.5657C303.063 83.8924 302.862 84.3171 302.759 84.8397C302.666 85.3624 302.619 86.0017 302.619 86.7577C302.619 87.5417 302.666 88.1997 302.759 88.7317C302.853 89.2637 303.049 89.693 303.347 90.0197C303.655 90.3463 304.103 90.5097 304.691 90.5097C305.279 90.5097 305.723 90.3463 306.021 90.0197C306.329 89.693 306.53 89.2637 306.623 88.7317C306.717 88.1997 306.763 87.5417 306.763 86.7577ZM309.268 84.2517C309.268 83.5704 309.464 83.0384 309.856 82.6557C310.257 82.2637 310.771 82.0677 311.396 82.0677C312.021 82.0677 312.53 82.2637 312.922 82.6557C313.323 83.0384 313.524 83.5704 313.524 84.2517C313.524 84.9331 313.323 85.4697 312.922 85.8617C312.53 86.2537 312.021 86.4497 311.396 86.4497C310.771 86.4497 310.257 86.2537 309.856 85.8617C309.464 85.4697 309.268 84.9331 309.268 84.2517ZM317.808 82.2497L312.222 91.9937H310.654L316.24 82.2497H317.808ZM311.396 83.0337C310.808 83.0337 310.514 83.4397 310.514 84.2517C310.514 85.0731 310.808 85.4837 311.396 85.4837C311.676 85.4837 311.891 85.3857 312.04 85.1897C312.199 84.9844 312.278 84.6717 312.278 84.2517C312.278 83.4397 311.984 83.0337 311.396 83.0337ZM314.966 89.9777C314.966 89.2963 315.162 88.7643 315.554 88.3817C315.955 87.9897 316.469 87.7937 317.094 87.7937C317.71 87.7937 318.214 87.9897 318.606 88.3817C319.007 88.7643 319.208 89.2963 319.208 89.9777C319.208 90.659 319.007 91.1957 318.606 91.5877C318.214 91.9797 317.71 92.1757 317.094 92.1757C316.469 92.1757 315.955 91.9797 315.554 91.5877C315.162 91.1957 314.966 90.659 314.966 89.9777ZM317.08 88.7597C316.492 88.7597 316.198 89.1657 316.198 89.9777C316.198 90.7897 316.492 91.1957 317.08 91.1957C317.668 91.1957 317.962 90.7897 317.962 89.9777C317.962 89.1657 317.668 88.7597 317.08 88.7597Z" fill="#7D8C95"/>
<path d="M274.206 110.22C274.206 110.687 274.09 111.126 273.856 111.536C273.632 111.947 273.296 112.292 272.848 112.572C272.41 112.852 271.887 113.02 271.28 113.076V114.21H270.37V113.076C269.493 112.992 268.784 112.717 268.242 112.25C267.701 111.784 267.43 111.168 267.43 110.402H269.138C269.166 110.766 269.283 111.07 269.488 111.312C269.694 111.546 269.988 111.695 270.37 111.76V108.68C269.745 108.522 269.236 108.363 268.844 108.204C268.452 108.036 268.116 107.775 267.836 107.42C267.566 107.066 267.43 106.58 267.43 105.964C267.43 105.19 267.701 104.55 268.242 104.046C268.784 103.533 269.493 103.234 270.37 103.15V102.016H271.28V103.15C272.102 103.225 272.76 103.486 273.254 103.934C273.758 104.373 274.043 104.98 274.108 105.754H272.4C272.372 105.465 272.26 105.208 272.064 104.984C271.868 104.751 271.607 104.592 271.28 104.508V107.532C271.906 107.682 272.414 107.84 272.806 108.008C273.198 108.167 273.53 108.424 273.8 108.778C274.071 109.124 274.206 109.604 274.206 110.22ZM269.054 105.88C269.054 106.263 269.166 106.562 269.39 106.776C269.624 106.991 269.95 107.164 270.37 107.294V104.466C269.969 104.513 269.647 104.658 269.404 104.9C269.171 105.143 269.054 105.47 269.054 105.88ZM271.28 111.76C271.691 111.695 272.013 111.532 272.246 111.27C272.48 111 272.596 110.678 272.596 110.304C272.596 109.931 272.48 109.642 272.246 109.436C272.022 109.222 271.7 109.049 271.28 108.918V111.76ZM276.918 110.822C277.814 110.048 278.518 109.413 279.032 108.918C279.554 108.414 279.988 107.892 280.334 107.35C280.679 106.809 280.852 106.268 280.852 105.726C280.852 105.166 280.716 104.728 280.446 104.41C280.184 104.093 279.769 103.934 279.2 103.934C278.649 103.934 278.22 104.112 277.912 104.466C277.613 104.812 277.454 105.278 277.436 105.866H275.896C275.924 104.802 276.241 103.99 276.848 103.43C277.464 102.861 278.243 102.576 279.186 102.576C280.203 102.576 280.996 102.856 281.566 103.416C282.144 103.976 282.434 104.723 282.434 105.656C282.434 106.328 282.261 106.977 281.916 107.602C281.58 108.218 281.174 108.774 280.698 109.268C280.231 109.754 279.634 110.318 278.906 110.962L278.276 111.522H282.714V112.852H275.91V111.69L276.918 110.822ZM283.616 107.756C283.616 106.142 283.886 104.882 284.428 103.976C284.978 103.062 285.921 102.604 287.256 102.604C288.59 102.604 289.528 103.062 290.07 103.976C290.62 104.882 290.896 106.142 290.896 107.756C290.896 109.39 290.62 110.668 290.07 111.592C289.528 112.507 288.59 112.964 287.256 112.964C285.921 112.964 284.978 112.507 284.428 111.592C283.886 110.668 283.616 109.39 283.616 107.756ZM289.328 107.756C289.328 107 289.276 106.361 289.174 105.838C289.08 105.316 288.884 104.891 288.586 104.564C288.287 104.228 287.844 104.06 287.256 104.06C286.668 104.06 286.224 104.228 285.926 104.564C285.627 104.891 285.426 105.316 285.324 105.838C285.23 106.361 285.184 107 285.184 107.756C285.184 108.54 285.23 109.198 285.324 109.73C285.417 110.262 285.613 110.692 285.912 111.018C286.22 111.345 286.668 111.508 287.256 111.508C287.844 111.508 288.287 111.345 288.586 111.018C288.894 110.692 289.094 110.262 289.188 109.73C289.281 109.198 289.328 108.54 289.328 107.756ZM294.044 111.074L292.35 114.938H291.314L292.308 111.074H294.044ZM294.729 107.756C294.729 106.142 295 104.882 295.541 103.976C296.092 103.062 297.034 102.604 298.369 102.604C299.704 102.604 300.642 103.062 301.183 103.976C301.734 104.882 302.009 106.142 302.009 107.756C302.009 109.39 301.734 110.668 301.183 111.592C300.642 112.507 299.704 112.964 298.369 112.964C297.034 112.964 296.092 112.507 295.541 111.592C295 110.668 294.729 109.39 294.729 107.756ZM300.441 107.756C300.441 107 300.39 106.361 300.287 105.838C300.194 105.316 299.998 104.891 299.699 104.564C299.4 104.228 298.957 104.06 298.369 104.06C297.781 104.06 297.338 104.228 297.039 104.564C296.74 104.891 296.54 105.316 296.437 105.838C296.344 106.361 296.297 107 296.297 107.756C296.297 108.54 296.344 109.198 296.437 109.73C296.53 110.262 296.726 110.692 297.025 111.018C297.333 111.345 297.781 111.508 298.369 111.508C298.957 111.508 299.4 111.345 299.699 111.018C300.007 110.692 300.208 110.262 300.301 109.73C300.394 109.198 300.441 108.54 300.441 107.756ZM303.198 107.756C303.198 106.142 303.468 104.882 304.01 103.976C304.56 103.062 305.503 102.604 306.838 102.604C308.172 102.604 309.11 103.062 309.652 103.976C310.202 104.882 310.478 106.142 310.478 107.756C310.478 109.39 310.202 110.668 309.652 111.592C309.11 112.507 308.172 112.964 306.838 112.964C305.503 112.964 304.56 112.507 304.01 111.592C303.468 110.668 303.198 109.39 303.198 107.756ZM308.91 107.756C308.91 107 308.858 106.361 308.756 105.838C308.662 105.316 308.466 104.891 308.168 104.564C307.869 104.228 307.426 104.06 306.838 104.06C306.25 104.06 305.806 104.228 305.508 104.564C305.209 104.891 305.008 105.316 304.906 105.838C304.812 106.361 304.766 107 304.766 107.756C304.766 108.54 304.812 109.198 304.906 109.73C304.999 110.262 305.195 110.692 305.494 111.018C305.802 111.345 306.25 111.508 306.838 111.508C307.426 111.508 307.869 111.345 308.168 111.018C308.476 110.692 308.676 110.262 308.77 109.73C308.863 109.198 308.91 108.54 308.91 107.756ZM311.666 107.756C311.666 106.142 311.937 104.882 312.478 103.976C313.029 103.062 313.972 102.604 315.306 102.604C316.641 102.604 317.579 103.062 318.12 103.976C318.671 104.882 318.946 106.142 318.946 107.756C318.946 109.39 318.671 110.668 318.12 111.592C317.579 112.507 316.641 112.964 315.306 112.964C313.972 112.964 313.029 112.507 312.478 111.592C311.937 110.668 311.666 109.39 311.666 107.756ZM317.378 107.756C317.378 107 317.327 106.361 317.224 105.838C317.131 105.316 316.935 104.891 316.636 104.564C316.338 104.228 315.894 104.06 315.306 104.06C314.718 104.06 314.275 104.228 313.976 104.564C313.678 104.891 313.477 105.316 313.374 105.838C313.281 106.361 313.234 107 313.234 107.756C313.234 108.54 313.281 109.198 313.374 109.73C313.468 110.262 313.664 110.692 313.962 111.018C314.27 111.345 314.718 111.508 315.306 111.508C315.894 111.508 316.338 111.345 316.636 111.018C316.944 110.692 317.145 110.262 317.238 109.73C317.332 109.198 317.378 108.54 317.378 107.756Z" fill="#7D8C95"/>
<path d="M299.519 131.221C299.519 131.687 299.402 132.126 299.169 132.537C298.945 132.947 298.609 133.293 298.161 133.573C297.722 133.853 297.199 134.021 296.593 134.077V135.211H295.683V134.077C294.805 133.993 294.096 133.717 293.555 133.251C293.013 132.784 292.743 132.168 292.743 131.403H294.451C294.479 131.767 294.595 132.07 294.801 132.313C295.006 132.546 295.3 132.695 295.683 132.761V129.681C295.057 129.522 294.549 129.363 294.157 129.205C293.765 129.037 293.429 128.775 293.149 128.421C292.878 128.066 292.743 127.581 292.743 126.965C292.743 126.19 293.013 125.551 293.555 125.047C294.096 124.533 294.805 124.235 295.683 124.151V123.017H296.593V124.151C297.414 124.225 298.072 124.487 298.567 124.935C299.071 125.373 299.355 125.98 299.421 126.755H297.713C297.685 126.465 297.573 126.209 297.377 125.985C297.181 125.751 296.919 125.593 296.593 125.509V128.533C297.218 128.682 297.727 128.841 298.119 129.009C298.511 129.167 298.842 129.424 299.113 129.779C299.383 130.124 299.519 130.605 299.519 131.221ZM294.367 126.881C294.367 127.263 294.479 127.562 294.703 127.777C294.936 127.991 295.263 128.164 295.683 128.295V125.467C295.281 125.513 294.959 125.658 294.717 125.901C294.483 126.143 294.367 126.47 294.367 126.881ZM296.593 132.761C297.003 132.695 297.325 132.532 297.559 132.271C297.792 132 297.909 131.678 297.909 131.305C297.909 130.931 297.792 130.642 297.559 130.437C297.335 130.222 297.013 130.049 296.593 129.919V132.761ZM301.32 126.307C301.376 125.439 301.707 124.762 302.314 124.277C302.93 123.791 303.714 123.549 304.666 123.549C305.319 123.549 305.884 123.665 306.36 123.899C306.836 124.132 307.195 124.449 307.438 124.851C307.681 125.252 307.802 125.705 307.802 126.209C307.802 126.787 307.648 127.282 307.34 127.693C307.032 128.103 306.663 128.379 306.234 128.519V128.575C306.785 128.743 307.214 129.051 307.522 129.499C307.83 129.937 307.984 130.502 307.984 131.193C307.984 131.743 307.858 132.233 307.606 132.663C307.354 133.092 306.981 133.433 306.486 133.685C305.991 133.927 305.399 134.049 304.708 134.049C303.7 134.049 302.869 133.792 302.216 133.279C301.572 132.756 301.227 132.009 301.18 131.039H302.72C302.757 131.533 302.949 131.939 303.294 132.257C303.639 132.565 304.106 132.719 304.694 132.719C305.263 132.719 305.702 132.565 306.01 132.257C306.318 131.939 306.472 131.533 306.472 131.039C306.472 130.385 306.262 129.923 305.842 129.653C305.431 129.373 304.797 129.233 303.938 129.233H303.574V127.917H303.952C304.708 127.907 305.282 127.781 305.674 127.539C306.075 127.296 306.276 126.913 306.276 126.391C306.276 125.943 306.131 125.588 305.842 125.327C305.553 125.056 305.142 124.921 304.61 124.921C304.087 124.921 303.681 125.056 303.392 125.327C303.103 125.588 302.93 125.915 302.874 126.307H301.32ZM308.95 125.243V123.787H311.862V133.993H310.252V125.243H308.95ZM314.437 131.823C315.333 131.048 316.038 130.413 316.551 129.919C317.074 129.415 317.508 128.892 317.853 128.351C318.198 127.809 318.371 127.268 318.371 126.727C318.371 126.167 318.236 125.728 317.965 125.411C317.704 125.093 317.288 124.935 316.719 124.935C316.168 124.935 315.739 125.112 315.431 125.467C315.132 125.812 314.974 126.279 314.955 126.867H313.415C313.443 125.803 313.76 124.991 314.367 124.431C314.983 123.861 315.762 123.577 316.705 123.577C317.722 123.577 318.516 123.857 319.085 124.417C319.663 124.977 319.953 125.723 319.953 126.657C319.953 127.329 319.78 127.977 319.435 128.603C319.099 129.219 318.693 129.774 318.217 130.269C317.75 130.754 317.153 131.319 316.425 131.963L315.795 132.523H320.233V133.853H313.429V132.691L314.437 131.823Z" fill="#7D8C95"/>
<path d="M66.2972 139.991C58.8283 139.991 51.5048 137.926 45.1365 134.023C38.7682 130.12 33.6031 124.533 30.2122 117.878C26.8214 111.223 25.3369 103.76 25.9229 96.3143C26.5089 88.8684 29.1426 81.7295 33.5327 75.687C37.9229 69.6445 43.8985 64.9337 50.7989 62.0755C57.6993 59.2172 65.2557 58.3229 72.6327 59.4913C80.0097 60.6597 86.9199 63.8453 92.5993 68.696C98.2787 73.5467 102.506 79.8735 104.814 86.9769L66.2972 99.4918V139.991Z" fill="#FCEDB7"/>
<path fill-rule="evenodd" clip-rule="evenodd" d="M66.2974 105.113C62.5291 105.113 57.849 104.937 56.0693 104.728C55.1245 104.618 54.7729 104.135 54.7729 103.3V101.828C54.7729 100.345 55.0586 99.6414 55.8276 98.6197L57.0141 97.0707C57.2888 95.5985 58.0029 93.3134 58.4533 92.3356C58.8268 91.5556 59.5299 91.1052 60.4857 90.9843C61.2438 90.8855 63.3861 90.7976 66.2974 90.7976C69.2087 90.7976 71.384 90.8965 72.0871 90.9843C73.0759 91.1052 73.757 91.5666 74.1305 92.3466C74.6029 93.3024 75.2951 95.5766 75.5697 97.0707L76.7562 98.6197C77.5362 99.6414 77.8109 100.345 77.8109 101.828V103.3C77.8109 104.135 77.4593 104.618 76.5255 104.728C74.7458 104.937 70.0657 105.113 66.2974 105.113ZM59.0685 96.6093C58.5961 96.6312 58.3984 96.4225 58.5082 95.9721C58.7499 94.9174 59.2003 93.5331 59.5189 92.9838C59.8156 92.4345 60.1781 92.2038 60.8263 92.1159C61.5624 92.017 63.3641 91.9401 66.2974 91.9401C69.2307 91.9401 71.0214 92.017 71.7685 92.1159C72.4167 92.2038 72.7682 92.4345 73.0759 92.9838C73.3945 93.5331 73.8449 94.9174 74.0866 95.9721C74.1855 96.4225 73.9987 96.6312 73.5153 96.6093C71.9113 96.5104 69.8789 96.4115 66.2974 96.4115C62.7159 96.4115 60.6835 96.5104 59.0685 96.6093ZM60.1891 101.861C60.1891 102.904 59.3981 103.695 58.3434 103.695C57.2997 103.695 56.5087 102.904 56.5087 101.861C56.5087 100.806 57.2997 100.015 58.3434 100.015C59.3981 100.015 60.1891 100.806 60.1891 101.861ZM76.0861 101.861C76.0861 102.904 75.2951 103.695 74.2404 103.695C73.1967 103.695 72.4057 102.904 72.4057 101.861C72.4057 100.806 73.1967 100.015 74.2404 100.015C75.2951 100.015 76.0861 100.806 76.0861 101.861ZM69.2637 103.234H63.3311C62.5401 103.234 61.9908 102.685 61.9908 101.905C61.9908 101.125 62.5401 100.575 63.3311 100.575H69.2637C70.0437 100.575 70.593 101.125 70.593 101.905C70.593 102.685 70.0437 103.234 69.2637 103.234Z" fill="white"/>
<path fill-rule="evenodd" clip-rule="evenodd" d="M55.0695 109.935H56.3989C57.2338 109.935 57.882 109.287 57.882 108.452V106.662C60.299 106.804 63.5948 106.892 66.2974 106.892C68.989 106.892 72.2849 106.804 74.7018 106.662V108.452C74.7018 109.287 75.35 109.935 76.1959 109.935H77.5143C78.3602 109.935 79.0084 109.287 79.0084 108.452V105.563C79.3709 105.135 79.5687 104.563 79.5687 103.86V101.927C79.5687 99.993 79.2281 98.9054 78.1844 97.587L77.2067 96.3566C76.8002 94.3791 76.0751 92.3027 75.6906 91.4897C75.0753 90.1933 73.8888 89.4243 72.3727 89.2156C71.5708 89.1057 69.2197 89.0508 66.2974 89.0508C63.3751 89.0508 61.0131 89.1167 60.2221 89.2156C58.706 89.4023 57.5085 90.1933 56.9042 91.4897C56.5197 92.3027 55.7946 94.3791 55.3881 96.3566L54.4104 97.587C53.3667 98.9054 53.0261 99.993 53.0261 101.927V103.86C53.0261 104.563 53.2239 105.135 53.5864 105.563V108.452C53.5864 109.287 54.2346 109.935 55.0695 109.935ZM66.2974 105.113C62.5291 105.113 57.849 104.937 56.0693 104.728C55.1245 104.618 54.7729 104.135 54.7729 103.3V101.828C54.7729 100.345 55.0586 99.6414 55.8276 98.6197L57.0141 97.0707C57.2888 95.5985 58.0029 93.3134 58.4533 92.3356C58.8268 91.5556 59.5299 91.1052 60.4857 90.9843C61.2438 90.8855 63.3861 90.7976 66.2974 90.7976C69.2087 90.7976 71.384 90.8965 72.0871 90.9843C73.0759 91.1052 73.757 91.5666 74.1305 92.3466C74.6029 93.3024 75.2951 95.5766 75.5697 97.0707L76.7562 98.6197C77.5362 99.6414 77.8109 100.345 77.8109 101.828V103.3C77.8109 104.135 77.4593 104.618 76.5255 104.728C74.7458 104.937 70.0657 105.113 66.2974 105.113ZM58.5082 95.9721C58.3984 96.4225 58.5961 96.6312 59.0685 96.6093C60.6835 96.5104 62.7159 96.4115 66.2974 96.4115C69.8789 96.4115 71.9113 96.5104 73.5153 96.6093C73.9987 96.6312 74.1855 96.4225 74.0866 95.9721C73.8449 94.9174 73.3945 93.5331 73.0759 92.9838C72.7682 92.4345 72.4167 92.2038 71.7685 92.1159C71.0214 92.017 69.2307 91.9401 66.2974 91.9401C63.3641 91.9401 61.5624 92.017 60.8263 92.1159C60.1781 92.2038 59.8156 92.4345 59.5189 92.9838C59.2003 93.5331 58.7499 94.9174 58.5082 95.9721ZM69.2637 103.234C70.0437 103.234 70.593 102.685 70.593 101.905C70.593 101.125 70.0437 100.575 69.2637 100.575H63.3311C62.5401 100.575 61.9908 101.125 61.9908 101.905C61.9908 102.685 62.5401 103.234 63.3311 103.234H69.2637Z" fill="white"/>
<path d="M58.3434 103.695C59.3981 103.695 60.1891 102.904 60.1891 101.861C60.1891 100.806 59.3981 100.015 58.3434 100.015C57.2997 100.015 56.5087 100.806 56.5087 101.861C56.5087 102.904 57.2997 103.695 58.3434 103.695Z" fill="white"/>
<path d="M74.2404 103.695C75.2951 103.695 76.0861 102.904 76.0861 101.861C76.0861 100.806 75.2951 100.015 74.2404 100.015C73.1967 100.015 72.4057 100.806 72.4057 101.861C72.4057 102.904 73.1967 103.695 74.2404 103.695Z" fill="white"/>
<path fill-rule="evenodd" clip-rule="evenodd" d="M66.297 105.113C62.5288 105.113 57.8487 104.937 56.0689 104.728C55.1241 104.618 54.7726 104.135 54.7726 103.3V101.828C54.7726 100.345 55.0582 99.6414 55.8272 98.6197L57.0137 97.0707C57.2884 95.5985 58.0025 93.3134 58.4529 92.3356C58.8264 91.5556 59.5296 91.1052 60.4854 90.9843C61.2434 90.8855 63.3857 90.7976 66.297 90.7976C69.2084 90.7976 71.3836 90.8965 72.0867 90.9843C73.0755 91.1052 73.7566 91.5666 74.1302 92.3466C74.6026 93.3024 75.2947 95.5766 75.5693 97.0707L76.7559 98.6197C77.5359 99.6414 77.8105 100.345 77.8105 101.828V103.3C77.8105 104.135 77.459 104.618 76.5251 104.728C74.7454 104.937 70.0653 105.113 66.297 105.113ZM59.0681 96.6093C58.5957 96.6312 58.398 96.4225 58.5078 95.9721C58.7495 94.9174 59.2 93.5331 59.5186 92.9838C59.8152 92.4345 60.1777 92.2038 60.8259 92.1159C61.562 92.017 63.3637 91.9401 66.297 91.9401C69.2303 91.9401 71.0211 92.017 71.7681 92.1159C72.4163 92.2038 72.7679 92.4345 73.0755 92.9838C73.3941 93.5331 73.8445 94.9174 74.0862 95.9721C74.1851 96.4225 73.9983 96.6312 73.5149 96.6093C71.911 96.5104 69.8785 96.4115 66.297 96.4115C62.7155 96.4115 60.6831 96.5104 59.0681 96.6093ZM60.1887 101.861C60.1887 102.904 59.3977 103.695 58.3431 103.695C57.2994 103.695 56.5084 102.904 56.5084 101.861C56.5084 100.806 57.2994 100.015 58.3431 100.015C59.3977 100.015 60.1887 100.806 60.1887 101.861ZM76.0857 101.861C76.0857 102.904 75.2947 103.695 74.24 103.695C73.1963 103.695 72.4053 102.904 72.4053 101.861C72.4053 100.806 73.1963 100.015 74.24 100.015C75.2947 100.015 76.0857 100.806 76.0857 101.861ZM69.2633 103.234H63.3308C62.5398 103.234 61.9905 102.685 61.9905 101.905C61.9905 101.125 62.5398 100.575 63.3308 100.575H69.2633C70.0433 100.575 70.5926 101.125 70.5926 101.905C70.5926 102.685 70.0433 103.234 69.2633 103.234Z" fill="#A9E0FF"/>
<path fill-rule="evenodd" clip-rule="evenodd" d="M55.0692 109.935H56.3985C57.2335 109.935 57.8816 109.287 57.8816 108.452V106.662C60.2986 106.804 63.5944 106.892 66.297 106.892C68.9886 106.892 72.2845 106.804 74.7014 106.662V108.452C74.7014 109.287 75.3496 109.935 76.1956 109.935H77.5139C78.3598 109.935 79.008 109.287 79.008 108.452V105.563C79.3706 105.135 79.5683 104.563 79.5683 103.86V101.927C79.5683 99.993 79.2277 98.9054 78.1841 97.587L77.2063 96.3566C76.7998 94.3791 76.0747 92.3027 75.6902 91.4897C75.075 90.1933 73.8885 89.4243 72.3724 89.2156C71.5704 89.1057 69.2194 89.0508 66.297 89.0508C63.3747 89.0508 61.0127 89.1167 60.2217 89.2156C58.7056 89.4023 57.5081 90.1933 56.9039 91.4897C56.5194 92.3027 55.7943 94.3791 55.3878 96.3566L54.41 97.587C53.3663 98.9054 53.0258 99.993 53.0258 101.927V103.86C53.0258 104.563 53.2235 105.135 53.5861 105.563V108.452C53.5861 109.287 54.2342 109.935 55.0692 109.935ZM66.297 105.113C62.5288 105.113 57.8487 104.937 56.0689 104.728C55.1241 104.618 54.7726 104.135 54.7726 103.3V101.828C54.7726 100.345 55.0582 99.6414 55.8272 98.6197L57.0137 97.0707C57.2884 95.5985 58.0025 93.3134 58.4529 92.3356C58.8264 91.5556 59.5296 91.1052 60.4854 90.9843C61.2434 90.8855 63.3857 90.7976 66.297 90.7976C69.2084 90.7976 71.3836 90.8965 72.0867 90.9843C73.0755 91.1052 73.7566 91.5666 74.1302 92.3466C74.6026 93.3024 75.2947 95.5766 75.5693 97.0707L76.7559 98.6197C77.5359 99.6414 77.8105 100.345 77.8105 101.828V103.3C77.8105 104.135 77.459 104.618 76.5251 104.728C74.7454 104.937 70.0653 105.113 66.297 105.113ZM58.5078 95.9721C58.398 96.4225 58.5957 96.6312 59.0681 96.6093C60.6831 96.5104 62.7155 96.4115 66.297 96.4115C69.8785 96.4115 71.911 96.5104 73.5149 96.6093C73.9983 96.6312 74.1851 96.4225 74.0862 95.9721C73.8445 94.9174 73.3941 93.5331 73.0755 92.9838C72.7679 92.4345 72.4163 92.2038 71.7681 92.1159C71.0211 92.017 69.2303 91.9401 66.297 91.9401C63.3637 91.9401 61.562 92.017 60.8259 92.1159C60.1777 92.2038 59.8152 92.4345 59.5186 92.9838C59.2 93.5331 58.7495 94.9174 58.5078 95.9721ZM69.2633 103.234C70.0433 103.234 70.5926 102.685 70.5926 101.905C70.5926 101.125 70.0433 100.575 69.2633 100.575H63.3308C62.5398 100.575 61.9905 101.125 61.9905 101.905C61.9905 102.685 62.5398 103.234 63.3308 103.234H69.2633Z" fill="#A9E0FF"/>
<path fill-rule="evenodd" clip-rule="evenodd" d="M56.3985 109.935H55.0692C54.2342 109.935 53.5861 109.287 53.5861 108.452V105.563C53.5861 105.563 54.814 106.117 55.6449 106.332C56.4996 106.553 57.8816 106.662 57.8816 106.662V108.452C57.8816 109.287 57.2335 109.935 56.3985 109.935ZM74.7014 106.662V108.452C74.7014 109.287 75.3496 109.935 76.1956 109.935H77.5139C78.3598 109.935 79.008 109.287 79.008 108.452V105.563C79.008 105.563 77.9675 106.193 77.1171 106.41C76.2625 106.629 74.7014 106.662 74.7014 106.662ZM59.0681 96.6093C58.5957 96.6312 58.398 96.4225 58.5078 95.9721C58.7495 94.9174 59.2 93.5331 59.5186 92.9838C59.8152 92.4345 60.1777 92.2038 60.8259 92.1159C61.562 92.017 63.3637 91.9401 66.297 91.9401C69.2303 91.9401 71.0211 92.017 71.7681 92.1159C72.4163 92.2038 72.7679 92.4345 73.0755 92.9838C73.3941 93.5331 73.8445 94.9174 74.0862 95.9721C74.1851 96.4225 73.9983 96.6312 73.5149 96.6093C71.911 96.5104 69.8785 96.4115 66.297 96.4115C62.7155 96.4115 60.6831 96.5104 59.0681 96.6093ZM70.5926 101.905C70.5926 102.685 70.0433 103.234 69.2633 103.234H63.3308C62.5398 103.234 61.9905 102.685 61.9905 101.905C61.9905 101.125 62.5398 100.575 63.3308 100.575H69.2633C70.0433 100.575 70.5926 101.125 70.5926 101.905Z" fill="#7AA2B9"/>
</svg>
