<svg width="59" height="62" viewBox="0 0 59 62" fill="none" xmlns="http://www.w3.org/2000/svg">
<path d="M0.73234 38.7572C0.372116 38.905 0.199933 39.3169 0.347758 39.6771C0.495583 40.0373 0.907437 40.2095 1.26766 40.0617L0.73234 38.7572ZM15.8971 29.4161L16.4058 29.9043L16.4058 29.9043L15.8971 29.4161ZM22.4419 3.2702L23.0287 2.87936L23.0287 2.87936L22.4419 3.2702ZM14.3953 2.23077L13.9527 1.68203L13.9527 1.68203L14.3953 2.23077ZM9.58217 11.5187L10.2707 11.6704L9.58217 11.5187ZM18.2657 59.1446L17.7651 58.6481L17.7651 58.6481L18.2657 59.1446ZM13.1546 39.4094L13.7097 39.8441L13.7097 39.8441L13.1546 39.4094ZM17.4237 33.604L17.719 34.2442L17.4237 33.604ZM23.8309 37.9638L24.016 38.6441L23.8309 37.9638ZM58.7517 32.8089C59.0069 32.5148 58.9753 32.0695 58.6812 31.8144C58.3871 31.5592 57.9419 31.5907 57.6867 31.8848L58.7517 32.8089ZM1.26766 40.0617C3.13221 39.2965 6.44623 37.2438 9.48412 35.1763C12.5165 33.1126 15.411 30.9408 16.4058 29.9043L15.3885 28.9279C14.5133 29.8398 11.746 31.9314 8.69079 34.0106C5.64101 36.0861 2.44142 38.0558 0.73234 38.7572L1.26766 40.0617ZM16.4058 29.9043C18.4046 27.8217 19.7328 26.4216 20.8002 24.8745C21.8767 23.314 22.673 21.6275 23.6633 18.9784L22.3425 18.4846C21.3694 21.0877 20.621 22.6512 19.6395 24.0738C18.6489 25.5097 17.406 26.8258 15.3885 28.9279L16.4058 29.9043ZM23.6633 18.9784C24.6819 16.2534 25.1036 13.1215 24.9907 10.246C24.8783 7.38647 24.2329 4.68733 23.0287 2.87936L21.8551 3.66104C22.8576 5.16614 23.4744 7.57155 23.5817 10.3014C23.6883 13.0152 23.2872 15.9574 22.3425 18.4846L23.6633 18.9784ZM23.0287 2.87936C22.2841 1.76159 20.8519 0.807057 19.22 0.448362C17.5611 0.0837301 15.6379 0.322571 13.9527 1.68203L14.838 2.77951C16.1446 1.7255 17.6155 1.53941 18.9173 1.82554C20.2461 2.11761 21.3412 2.88952 21.8551 3.66104L23.0287 2.87936ZM13.9527 1.68203C9.98987 4.87868 9.42365 8.96213 8.89367 11.3669L10.2707 11.6704C10.8201 9.17725 11.321 5.61654 14.838 2.77951L13.9527 1.68203ZM8.89367 11.3669C8.27394 14.179 7.37668 20.0614 7.27112 22.7226L8.68006 22.7785C8.78118 20.2294 9.66139 14.4351 10.2707 11.6704L8.89367 11.3669ZM7.27112 22.7226C7.22013 24.0079 6.86496 28.5274 6.51202 33.1264C6.16124 37.6972 5.81196 42.3546 5.78026 43.857L7.19 43.8867C7.22063 42.4351 7.56491 37.8344 7.91794 33.2343C8.26881 28.6624 8.62771 24.0982 8.68006 22.7785L7.27112 22.7226ZM5.78026 43.857C5.75028 45.2774 5.53066 48.1462 5.68876 50.9994C5.76831 52.4348 5.94401 53.9026 6.2958 55.2269C6.64579 56.5444 7.18398 57.7736 8.02495 58.6811L9.05915 57.7226C8.43678 57.051 7.97839 56.0688 7.65859 54.8649C7.34059 53.6678 7.17329 52.3044 7.09665 50.9213C6.94238 48.1374 7.15764 45.4202 7.19 43.8867L5.78026 43.857ZM8.02495 58.6811C9.5704 60.3486 11.4174 61.4248 13.3246 61.6577C15.255 61.8934 17.1671 61.2536 18.7663 59.641L17.7651 58.6481C16.454 59.9701 14.9677 60.4378 13.4955 60.258C12.0001 60.0754 10.4404 59.2129 9.05915 57.7226L8.02495 58.6811ZM18.7663 59.641C20.2572 58.1377 20.825 56.2008 20.8464 54.1751C20.8676 52.16 20.3506 50.0146 19.6278 48.0036C18.1816 43.9802 15.8482 40.3268 14.9832 39.0202L13.8074 39.7986C14.6584 41.084 16.914 44.6223 18.3009 48.4806C18.9945 50.4104 19.4552 52.3783 19.4364 54.1603C19.4177 55.9317 18.928 57.4755 17.7651 58.6481L18.7663 59.641ZM14.9832 39.0202C14.5624 38.3847 14.1835 37.7541 13.8051 37.1405C13.432 36.5356 13.0585 35.9457 12.668 35.433C11.8993 34.4239 10.9421 33.55 9.58217 33.55V34.96C10.254 34.96 10.8454 35.3673 11.5463 36.2875C11.8905 36.7394 12.2321 37.2761 12.6049 37.8807C12.9724 38.4765 13.3702 39.1382 13.8074 39.7986L14.9832 39.0202ZM9.58217 33.55C7.69067 33.55 5.21912 34.9636 5.21912 37.9638L6.62917 37.9638C6.62917 35.936 8.2605 34.96 9.58217 34.96V33.55ZM5.21912 37.9638C5.21912 39.2625 5.39241 40.4857 5.8872 41.4082C6.14003 41.8796 6.48474 42.287 6.94397 42.5742C7.40564 42.863 7.94375 43.0056 8.54205 43.0056V41.5955C8.17423 41.5955 7.90203 41.5103 7.69169 41.3787C7.47891 41.2457 7.28991 41.0402 7.1298 40.7417C6.79871 40.1244 6.62917 39.1792 6.62917 37.9638L5.21912 37.9638ZM8.54205 43.0056C10.8208 43.0056 12.3458 41.5861 13.7097 39.8441L12.5994 38.9748C11.2861 40.6523 10.1278 41.5955 8.54205 41.5955V43.0056ZM13.7097 39.8441C14.6741 38.6123 15.4647 37.2525 16.1274 36.1984C16.466 35.6598 16.7669 35.2067 17.0498 34.858C17.3412 34.4988 17.5615 34.3168 17.719 34.2442L17.1283 32.9638C16.6727 33.174 16.2866 33.5605 15.9547 33.9697C15.6144 34.3893 15.2754 34.9044 14.9337 35.4479C14.2358 36.5581 13.5049 37.8183 12.5994 38.9748L13.7097 39.8441ZM17.719 34.2442C17.8341 34.1911 18.0334 34.1666 18.4827 34.5346C18.9247 34.8967 19.3916 35.4664 19.9369 36.1301C20.454 36.7595 21.0402 37.471 21.6634 37.9748C22.2837 38.4763 23.0936 38.8952 24.016 38.6441L23.6458 37.2836C23.3797 37.356 23.0431 37.2769 22.5499 36.8782C22.0596 36.4819 21.5654 35.891 21.0264 35.235C20.5155 34.6132 19.9506 33.9143 19.3762 33.4438C18.8091 32.9793 18.0075 32.5583 17.1283 32.9638L17.719 34.2442ZM24.016 38.6441C25.3283 38.287 26.4421 37.4004 27.3098 36.7588C27.7675 36.4204 28.1524 36.1501 28.5071 35.9763C28.8568 35.8049 29.1059 35.7638 29.3051 35.7988L29.5491 34.41C28.9414 34.3033 28.3764 34.4701 27.8867 34.71C27.402 34.9475 26.9221 35.2918 26.4715 35.625C25.5224 36.3268 24.645 37.0116 23.6458 37.2836L24.016 38.6441ZM29.3051 35.7988C29.5968 35.8501 29.9349 35.99 30.3498 36.2127C30.7749 36.4409 31.1861 36.7013 31.6964 36.9968C32.6615 37.5558 33.8488 38.1615 35.2261 38.1615V36.7514C34.2514 36.7514 33.346 36.3228 32.4031 35.7767C31.9594 35.5197 31.4628 35.2098 31.0167 34.9703C30.5606 34.7255 30.0643 34.5005 29.5491 34.41L29.3051 35.7988ZM35.2261 38.1615C36.6076 38.1615 37.9075 37.4748 38.9819 36.9027C39.5458 36.6025 40.0537 36.3276 40.5465 36.1231C41.0372 35.9194 41.4593 35.8095 41.8361 35.8095V34.3994C41.1962 34.3994 40.5777 34.5834 40.0059 34.8208C39.4362 35.0572 38.8597 35.3703 38.3192 35.6581C37.185 36.262 36.1966 36.7514 35.2261 36.7514V38.1615ZM41.8361 35.8095C43.5968 35.8095 44.5105 36.3239 45.4933 36.8911C46.5341 37.4917 47.6635 38.1615 49.7032 38.1615V36.7514C48.0527 36.7514 47.195 36.2451 46.1981 35.6698C45.1431 35.061 43.9684 34.3994 41.8361 34.3994V35.8095ZM49.7032 38.1615C53.7401 38.1615 56.3613 35.564 58.7517 32.8089L57.6867 31.8848C55.2919 34.6449 53.0469 36.7514 49.7032 36.7514V38.1615Z" fill="white"/>
</svg>
